<?xml version="1.0" encoding="utf-8" standalone="no"?>
<!DOCTYPE svg PUBLIC "-//W3C//DTD SVG 1.1//EN"
  "http://www.w3.org/Graphics/SVG/1.1/DTD/svg11.dtd">
<!-- Created with matplotlib (http://matplotlib.org/) -->
<svg height="439pt" version="1.1" viewBox="0 0 424 439" width="424pt" xmlns="http://www.w3.org/2000/svg" xmlns:xlink="http://www.w3.org/1999/xlink">
 <defs>
  <style type="text/css">
*{stroke-linecap:butt;stroke-linejoin:round;stroke-miterlimit:100000;}
  </style>
 </defs>
 <g id="figure_1">
  <g id="patch_1">
   <path d="M 0 439.59625 
L 424.557812 439.59625 
L 424.557812 -0 
L 0 -0 
L 0 439.59625 
z
" style="fill:none;"/>
  </g>
  <g id="axes_1">
   <g id="PathCollection_1">
    <defs>
     <path d="M 0 1.118034 
C 0.296506 1.118034 0.580908 1.000231 0.790569 0.790569 
C 1.000231 0.580908 1.118034 0.296506 1.118034 0 
C 1.118034 -0.296506 1.000231 -0.580908 0.790569 -0.790569 
C 0.580908 -1.000231 0.296506 -1.118034 0 -1.118034 
C -0.296506 -1.118034 -0.580908 -1.000231 -0.790569 -0.790569 
C -1.000231 -0.580908 -1.118034 -0.296506 -1.118034 0 
C -1.118034 0.296506 -1.000231 0.580908 -0.790569 0.790569 
C -0.580908 1.000231 -0.296506 1.118034 0 1.118034 
z
" id="m8baca8591e" style="stroke:#00008b;"/>
    </defs>
    <g clip-path="url(#pa578559357)">
     <use style="fill:#ffffff;stroke:#00008b;" x="173.454503628" xlink:href="#m8baca8591e" y="217.42815537"/>
    </g>
   </g>
   <g id="PathCollection_2">
    <defs>
     <path d="M -2.236068 2.236068 
L 2.236068 2.236068 
L 2.236068 -2.236068 
L -2.236068 -2.236068 
z
" id="mb36ae3e655" style="stroke:#00008b;"/>
    </defs>
    <g clip-path="url(#pa578559357)">
     <use style="fill:#ffffff;stroke:#00008b;" x="192.075266972" xlink:href="#mb36ae3e655" y="176.224560193"/>
    </g>
   </g>
   <g id="PathCollection_3">
    <defs>
     <path d="M 0 -2.236068 
L -2.236068 2.236068 
L 2.236068 2.236068 
z
" id="m3ced1ac6c9" style="stroke:#0000ff;"/>
    </defs>
    <g clip-path="url(#pa578559357)">
     <use style="fill:#ffffff;stroke:#0000ff;" x="200.335318031" xlink:href="#m3ced1ac6c9" y="266.682887706"/>
    </g>
   </g>
   <g id="PathCollection_4">
    <defs>
     <path d="M -0 2.236068 
L 2.236068 -2.236068 
L -2.236068 -2.236068 
z
" id="m6db65afb13" style="stroke:#0000ff;"/>
    </defs>
    <g clip-path="url(#pa578559357)">
     <use style="fill:#ffffff;stroke:#0000ff;" x="204.051269505" xlink:href="#m6db65afb13" y="214.317407273"/>
    </g>
   </g>
   <g id="PathCollection_5">
    <defs>
     <path d="M -2.236068 -0 
L 2.236068 2.236068 
L 2.236068 -2.236068 
z
" id="m60cb04d44b" style="stroke:#0000ff;"/>
    </defs>
    <g clip-path="url(#pa578559357)">
     <use style="fill:#ffffff;stroke:#0000ff;" x="377.490907907" xlink:href="#m60cb04d44b" y="301.34585458"/>
    </g>
   </g>
   <g id="PathCollection_6">
    <defs>
     <path d="M 0 -2.236068 
L -2.126627 -0.690983 
L -1.314328 1.809017 
L 1.314328 1.809017 
L 2.126627 -0.690983 
z
" id="mfe44a1f2d5" style="stroke:#00bfbf;"/>
    </defs>
    <g clip-path="url(#pa578559357)">
     <use style="fill:#ffffff;stroke:#00bfbf;" x="197.732301033" xlink:href="#mfe44a1f2d5" y="166.300429143"/>
    </g>
   </g>
   <g id="PathCollection_7">
    <defs>
     <path d="M 0 -2.236068 
L -2.236068 2.236068 
L 2.236068 2.236068 
z
" id="m91f40af703" style="stroke:#ff0000;"/>
    </defs>
    <g clip-path="url(#pa578559357)">
     <use style="fill:#ffffff;stroke:#ff0000;" x="219.997575846" xlink:href="#m91f40af703" y="275.517703127"/>
    </g>
   </g>
   <g id="PathCollection_8">
    <defs>
     <path d="M -0 2.236068 
L 2.236068 -2.236068 
L -2.236068 -2.236068 
z
" id="mceb3d82413" style="stroke:#ff0000;"/>
    </defs>
    <g clip-path="url(#pa578559357)">
     <use style="fill:#ffffff;stroke:#ff0000;" x="127.284659765" xlink:href="#mceb3d82413" y="285.373664271"/>
    </g>
   </g>
   <g id="PathCollection_9">
    <defs>
     <path d="M 0 0 
L 0 2.236068 
M 0 0 
L 1.788854 -1.118034 
M 0 0 
L -1.788854 -1.118034 
" id="m090be8a071" style="stroke:#ff0000;"/>
    </defs>
    <g clip-path="url(#pa578559357)">
     <use style="fill:#ff0000;stroke:#ff0000;" x="212.328066189" xlink:href="#m090be8a071" y="395.135102269"/>
    </g>
   </g>
   <g id="line2d_1">
    <path clip-path="url(#pa578559357)" d="M 226.420312 38.207326 
L 229.59395 38.235016 
L 232.76662 38.31808 
L 239.105195 38.650208 
L 245.428316 39.203304 
L 251.728278 39.976696 
L 257.997407 40.96944 
L 264.228063 42.180328 
L 270.412657 43.607883 
L 276.543653 45.250368 
L 282.613581 47.10578 
L 288.615047 49.171859 
L 294.540738 51.446087 
L 300.383434 53.925695 
L 306.136018 56.607661 
L 311.791481 59.488717 
L 317.342932 62.565354 
L 322.783607 65.833823 
L 328.106879 69.290141 
L 333.306262 72.930099 
L 338.37542 76.74926 
L 343.308178 80.742972 
L 348.098527 84.90637 
L 352.740629 89.234381 
L 357.22883 93.721731 
L 361.55766 98.362955 
L 365.721847 103.152396 
L 369.716316 108.08422 
L 373.5362 113.152418 
L 377.176847 118.350816 
L 380.63382 123.67308 
L 383.902908 129.112725 
L 386.980128 134.663125 
L 389.86173 140.317516 
L 392.544204 146.069011 
L 395.024281 151.910601 
L 397.298941 157.835169 
L 399.365411 163.835498 
L 401.221174 169.904277 
L 402.86397 176.034112 
L 404.291796 182.217534 
L 405.502913 188.447011 
L 406.495845 194.714952 
L 407.269383 201.013722 
L 407.822585 207.335645 
L 408.154775 213.67302 
L 408.265551 220.018125 
L 408.154775 226.36323 
L 407.822585 232.700605 
L 407.269383 239.022528 
L 406.495845 245.321298 
L 405.502913 251.589239 
L 404.291796 257.818716 
L 402.86397 264.002138 
L 401.221174 270.131973 
L 399.365411 276.200752 
L 397.298941 282.201081 
L 395.024281 288.125649 
L 392.544204 293.967239 
L 389.86173 299.718734 
L 386.980128 305.373125 
L 383.902908 310.923525 
L 380.63382 316.36317 
L 377.176847 321.685434 
L 373.5362 326.883832 
L 369.716316 331.95203 
L 365.721847 336.883854 
L 361.55766 341.673295 
L 357.22883 346.314519 
L 352.740629 350.801869 
L 348.098527 355.12988 
L 343.308178 359.293278 
L 338.37542 363.28699 
L 333.306262 367.106151 
L 328.106879 370.746109 
L 322.783607 374.202427 
L 317.342932 377.470896 
L 311.791481 380.547533 
L 306.136018 383.428589 
L 300.383434 386.110555 
L 294.540738 388.590163 
L 288.615047 390.864391 
L 282.613581 392.93047 
L 276.543653 394.785882 
L 270.412657 396.428367 
L 264.228063 397.855922 
L 257.997407 399.06681 
L 251.728278 400.059554 
L 245.428316 400.832946 
L 239.105195 401.386042 
L 232.76662 401.71817 
L 226.420312 401.828924 
L 220.074005 401.71817 
L 213.73543 401.386042 
L 207.412309 400.832946 
L 201.112347 400.059554 
L 194.843218 399.06681 
L 188.612562 397.855922 
L 182.427968 396.428367 
L 176.296972 394.785882 
L 170.227044 392.93047 
L 164.225578 390.864391 
L 158.299887 388.590163 
L 152.457191 386.110555 
L 146.704607 383.428589 
L 141.049144 380.547533 
L 135.497693 377.470896 
L 130.057018 374.202427 
L 124.733746 370.746109 
L 119.534363 367.106151 
L 114.465205 363.28699 
L 109.532447 359.293278 
L 104.742098 355.12988 
L 100.099996 350.801869 
L 95.611795 346.314519 
L 91.282965 341.673295 
L 87.118778 336.883854 
L 83.124309 331.95203 
L 79.304425 326.883832 
L 75.663778 321.685434 
L 72.206805 316.36317 
L 68.937717 310.923525 
L 65.860497 305.373125 
L 62.978895 299.718734 
L 60.296421 293.967239 
L 57.816344 288.125649 
L 55.541684 282.201081 
L 53.475214 276.200752 
L 51.619451 270.131973 
L 49.976655 264.002138 
L 48.548829 257.818716 
L 47.337712 251.589239 
L 46.34478 245.321298 
L 45.571242 239.022528 
L 45.01804 232.700605 
L 44.68585 226.36323 
L 44.575074 220.018125 
L 44.68585 213.67302 
L 45.01804 207.335645 
L 45.571242 201.013722 
L 46.34478 194.714952 
L 47.337712 188.447011 
L 48.548829 182.217534 
L 49.976655 176.034112 
L 51.619451 169.904277 
L 53.475214 163.835498 
L 55.541684 157.835169 
L 57.816344 151.910601 
L 60.296421 146.069011 
L 62.978895 140.317516 
L 65.860497 134.663125 
L 68.937717 129.112725 
L 72.206805 123.67308 
L 75.663778 118.350816 
L 79.304425 113.152418 
L 83.124309 108.08422 
L 87.118778 103.152396 
L 91.282965 98.362955 
L 95.611795 93.721731 
L 100.099996 89.234381 
L 104.742098 84.90637 
L 109.532447 80.742972 
L 114.465205 76.74926 
L 119.534363 72.930099 
L 124.733746 69.290141 
L 130.057018 65.833823 
L 135.497693 62.565354 
L 141.049144 59.488717 
L 146.704607 56.607661 
L 152.457191 53.925695 
L 158.299887 51.446087 
L 164.225578 49.171859 
L 170.227044 47.10578 
L 176.296972 45.250368 
L 182.427968 43.607883 
L 188.612562 42.180328 
L 194.843218 40.96944 
L 201.112347 39.976696 
L 207.412309 39.203304 
L 213.73543 38.650208 
L 220.074005 38.31808 
L 226.420312 38.207326 
L 226.420312 38.207326 
" style="fill:none;stroke:#000000;stroke-linecap:square;"/>
   </g>
   <g id="line2d_2">
    <defs>
     <path d="M -3 0 
L 3 0 
M 0 3 
L 0 -3 
" id="m57ab4e175e" style="stroke:#000000;stroke-width:0.5;"/>
    </defs>
    <g clip-path="url(#pa578559357)">
     <use style="stroke:#000000;stroke-width:0.5;" x="226.4203125" xlink:href="#m57ab4e175e" y="54.7450259161"/>
     <use style="stroke:#000000;stroke-width:0.5;" x="226.4203125" xlink:href="#m57ab4e175e" y="72.5405542306"/>
     <use style="stroke:#000000;stroke-width:0.5;" x="226.4203125" xlink:href="#m57ab4e175e" y="91.4584759081"/>
     <use style="stroke:#000000;stroke-width:0.5;" x="226.4203125" xlink:href="#m57ab4e175e" y="111.354814142"/>
     <use style="stroke:#000000;stroke-width:0.5;" x="226.4203125" xlink:href="#m57ab4e175e" y="132.078145783"/>
     <use style="stroke:#000000;stroke-width:0.5;" x="226.4203125" xlink:href="#m57ab4e175e" y="153.470753767"/>
     <use style="stroke:#000000;stroke-width:0.5;" x="226.4203125" xlink:href="#m57ab4e175e" y="175.369827427"/>
     <use style="stroke:#000000;stroke-width:0.5;" x="226.4203125" xlink:href="#m57ab4e175e" y="197.608701592"/>
     <use style="stroke:#000000;stroke-width:0.5;" x="226.4203125" xlink:href="#m57ab4e175e" y="220.018125"/>
    </g>
   </g>
   <g id="line2d_3">
    <g clip-path="url(#pa578559357)">
     <use style="stroke:#000000;stroke-width:0.5;" x="391.724717772" xlink:href="#m57ab4e175e" y="220.018125"/>
     <use style="stroke:#000000;stroke-width:0.5;" x="373.925818612" xlink:href="#m57ab4e175e" y="220.018125"/>
     <use style="stroke:#000000;stroke-width:0.5;" x="355.004313484" xlink:href="#m57ab4e175e" y="220.018125"/>
     <use style="stroke:#000000;stroke-width:0.5;" x="335.104206467" xlink:href="#m57ab4e175e" y="220.018125"/>
     <use style="stroke:#000000;stroke-width:0.5;" x="314.376949392" xlink:href="#m57ab4e175e" y="220.018125"/>
     <use style="stroke:#000000;stroke-width:0.5;" x="292.9802892" xlink:href="#m57ab4e175e" y="220.018125"/>
     <use style="stroke:#000000;stroke-width:0.5;" x="271.077067396" xlink:href="#m57ab4e175e" y="220.018125"/>
     <use style="stroke:#000000;stroke-width:0.5;" x="248.833980722" xlink:href="#m57ab4e175e" y="220.018125"/>
    </g>
   </g>
   <g id="line2d_4">
    <g clip-path="url(#pa578559357)">
     <use style="stroke:#000000;stroke-width:0.5;" x="226.4203125" xlink:href="#m57ab4e175e" y="385.291224084"/>
     <use style="stroke:#000000;stroke-width:0.5;" x="226.4203125" xlink:href="#m57ab4e175e" y="367.495695769"/>
     <use style="stroke:#000000;stroke-width:0.5;" x="226.4203125" xlink:href="#m57ab4e175e" y="348.577774092"/>
     <use style="stroke:#000000;stroke-width:0.5;" x="226.4203125" xlink:href="#m57ab4e175e" y="328.681435858"/>
     <use style="stroke:#000000;stroke-width:0.5;" x="226.4203125" xlink:href="#m57ab4e175e" y="307.958104217"/>
     <use style="stroke:#000000;stroke-width:0.5;" x="226.4203125" xlink:href="#m57ab4e175e" y="286.565496233"/>
     <use style="stroke:#000000;stroke-width:0.5;" x="226.4203125" xlink:href="#m57ab4e175e" y="264.666422573"/>
     <use style="stroke:#000000;stroke-width:0.5;" x="226.4203125" xlink:href="#m57ab4e175e" y="242.427548408"/>
    </g>
   </g>
   <g id="line2d_5">
    <g clip-path="url(#pa578559357)">
     <use style="stroke:#000000;stroke-width:0.5;" x="61.1159072276" xlink:href="#m57ab4e175e" y="220.018125"/>
     <use style="stroke:#000000;stroke-width:0.5;" x="78.9148063881" xlink:href="#m57ab4e175e" y="220.018125"/>
     <use style="stroke:#000000;stroke-width:0.5;" x="97.8363115164" xlink:href="#m57ab4e175e" y="220.018125"/>
     <use style="stroke:#000000;stroke-width:0.5;" x="117.736418533" xlink:href="#m57ab4e175e" y="220.018125"/>
     <use style="stroke:#000000;stroke-width:0.5;" x="138.463675608" xlink:href="#m57ab4e175e" y="220.018125"/>
     <use style="stroke:#000000;stroke-width:0.5;" x="159.8603358" xlink:href="#m57ab4e175e" y="220.018125"/>
     <use style="stroke:#000000;stroke-width:0.5;" x="181.763557604" xlink:href="#m57ab4e175e" y="220.018125"/>
     <use style="stroke:#000000;stroke-width:0.5;" x="204.006644278" xlink:href="#m57ab4e175e" y="220.018125"/>
    </g>
   </g>
   <g id="line2d_6">
    <path clip-path="url(#pa578559357)" d="M 226.420312 38.207326 
L 226.420312 39.800827 
L 226.420312 41.408052 
L 226.420312 43.02888 
" style="fill:none;stroke:#000000;stroke-linecap:square;"/>
   </g>
   <g id="line2d_7">
    <path clip-path="url(#pa578559357)" d="M 257.997407 40.96944 
L 257.720646 42.538733 
L 257.441501 44.121541 
L 257.159994 45.717744 
" style="fill:none;stroke:#000000;stroke-linecap:square;"/>
   </g>
   <g id="line2d_8">
    <path clip-path="url(#pa578559357)" d="M 288.615047 49.171859 
L 288.069934 50.66926 
L 287.520127 52.179558 
L 286.965666 53.702637 
" style="fill:none;stroke:#000000;stroke-linecap:square;"/>
   </g>
   <g id="line2d_9">
    <path clip-path="url(#pa578559357)" d="M 317.342932 62.565354 
L 316.54603 63.945367 
L 315.742265 65.337265 
L 314.931698 66.740942 
" style="fill:none;stroke:#000000;stroke-linecap:square;"/>
   </g>
   <g id="line2d_10">
    <path clip-path="url(#pa578559357)" d="M 343.308178 80.742972 
L 342.283702 81.963665 
L 341.250401 83.194871 
L 340.208356 84.436497 
" style="fill:none;stroke:#000000;stroke-linecap:square;"/>
   </g>
   <g id="line2d_11">
    <path clip-path="url(#pa578559357)" d="M 365.721847 103.152396 
L 364.500923 104.176679 
L 363.269483 105.209783 
L 362.027622 106.251631 
" style="fill:none;stroke:#000000;stroke-linecap:square;"/>
   </g>
   <g id="line2d_12">
    <path clip-path="url(#pa578559357)" d="M 383.902908 129.112725 
L 382.522634 129.909476 
L 381.130473 130.713089 
L 379.726529 131.523502 
" style="fill:none;stroke:#000000;stroke-linecap:square;"/>
   </g>
   <g id="line2d_13">
    <path clip-path="url(#pa578559357)" d="M 397.298941 157.835169 
L 395.801256 158.380179 
L 394.290672 158.929882 
L 392.767304 159.484238 
" style="fill:none;stroke:#000000;stroke-linecap:square;"/>
   </g>
   <g id="line2d_14">
    <path clip-path="url(#pa578559357)" d="M 405.502913 188.447011 
L 403.933323 188.72372 
L 402.350215 189.002811 
L 400.75371 189.284265 
" style="fill:none;stroke:#000000;stroke-linecap:square;"/>
   </g>
   <g id="line2d_15">
    <path clip-path="url(#pa578559357)" d="M 408.265551 220.018125 
L 406.671748 220.018125 
L 405.064218 220.018125 
L 403.443083 220.018125 
" style="fill:none;stroke:#000000;stroke-linecap:square;"/>
   </g>
   <g id="line2d_16">
    <path clip-path="url(#pa578559357)" d="M 405.502913 251.589239 
L 403.933323 251.31253 
L 402.350215 251.033439 
L 400.75371 250.751985 
" style="fill:none;stroke:#000000;stroke-linecap:square;"/>
   </g>
   <g id="line2d_17">
    <path clip-path="url(#pa578559357)" d="M 397.298941 282.201081 
L 395.801256 281.656071 
L 394.290672 281.106368 
L 392.767304 280.552012 
" style="fill:none;stroke:#000000;stroke-linecap:square;"/>
   </g>
   <g id="line2d_18">
    <path clip-path="url(#pa578559357)" d="M 383.902908 310.923525 
L 382.522634 310.126774 
L 381.130473 309.323161 
L 379.726529 308.512748 
" style="fill:none;stroke:#000000;stroke-linecap:square;"/>
   </g>
   <g id="line2d_19">
    <path clip-path="url(#pa578559357)" d="M 365.721847 336.883854 
L 364.500923 335.859571 
L 363.269483 334.826467 
L 362.027622 333.784619 
" style="fill:none;stroke:#000000;stroke-linecap:square;"/>
   </g>
   <g id="line2d_20">
    <path clip-path="url(#pa578559357)" d="M 343.308178 359.293278 
L 342.283702 358.072585 
L 341.250401 356.841379 
L 340.208356 355.599753 
" style="fill:none;stroke:#000000;stroke-linecap:square;"/>
   </g>
   <g id="line2d_21">
    <path clip-path="url(#pa578559357)" d="M 317.342932 377.470896 
L 316.54603 376.090883 
L 315.742265 374.698985 
L 314.931698 373.295308 
" style="fill:none;stroke:#000000;stroke-linecap:square;"/>
   </g>
   <g id="line2d_22">
    <path clip-path="url(#pa578559357)" d="M 288.615047 390.864391 
L 288.069934 389.36699 
L 287.520127 387.856692 
L 286.965666 386.333613 
" style="fill:none;stroke:#000000;stroke-linecap:square;"/>
   </g>
   <g id="line2d_23">
    <path clip-path="url(#pa578559357)" d="M 257.997407 399.06681 
L 257.720646 397.497517 
L 257.441501 395.914709 
L 257.159994 394.318506 
" style="fill:none;stroke:#000000;stroke-linecap:square;"/>
   </g>
   <g id="line2d_24">
    <path clip-path="url(#pa578559357)" d="M 226.420312 401.828924 
L 226.420312 400.235423 
L 226.420312 398.628198 
L 226.420312 397.00737 
" style="fill:none;stroke:#000000;stroke-linecap:square;"/>
   </g>
   <g id="line2d_25">
    <path clip-path="url(#pa578559357)" d="M 194.843218 399.06681 
L 195.119979 397.497517 
L 195.399124 395.914709 
L 195.680631 394.318506 
" style="fill:none;stroke:#000000;stroke-linecap:square;"/>
   </g>
   <g id="line2d_26">
    <path clip-path="url(#pa578559357)" d="M 164.225578 390.864391 
L 164.770691 389.36699 
L 165.320498 387.856692 
L 165.874959 386.333613 
" style="fill:none;stroke:#000000;stroke-linecap:square;"/>
   </g>
   <g id="line2d_27">
    <path clip-path="url(#pa578559357)" d="M 135.497693 377.470896 
L 136.294595 376.090883 
L 137.09836 374.698985 
L 137.908927 373.295308 
" style="fill:none;stroke:#000000;stroke-linecap:square;"/>
   </g>
   <g id="line2d_28">
    <path clip-path="url(#pa578559357)" d="M 109.532447 359.293278 
L 110.556923 358.072585 
L 111.590224 356.841379 
L 112.632269 355.599753 
" style="fill:none;stroke:#000000;stroke-linecap:square;"/>
   </g>
   <g id="line2d_29">
    <path clip-path="url(#pa578559357)" d="M 87.118778 336.883854 
L 88.339702 335.859571 
L 89.571142 334.826467 
L 90.813003 333.784619 
" style="fill:none;stroke:#000000;stroke-linecap:square;"/>
   </g>
   <g id="line2d_30">
    <path clip-path="url(#pa578559357)" d="M 68.937717 310.923525 
L 70.317991 310.126774 
L 71.710152 309.323161 
L 73.114096 308.512748 
" style="fill:none;stroke:#000000;stroke-linecap:square;"/>
   </g>
   <g id="line2d_31">
    <path clip-path="url(#pa578559357)" d="M 55.541684 282.201081 
L 57.039369 281.656071 
L 58.549953 281.106368 
L 60.073321 280.552012 
" style="fill:none;stroke:#000000;stroke-linecap:square;"/>
   </g>
   <g id="line2d_32">
    <path clip-path="url(#pa578559357)" d="M 47.337712 251.589239 
L 48.907302 251.31253 
L 50.49041 251.033439 
L 52.086915 250.751985 
" style="fill:none;stroke:#000000;stroke-linecap:square;"/>
   </g>
   <g id="line2d_33">
    <path clip-path="url(#pa578559357)" d="M 44.575074 220.018125 
L 46.168877 220.018125 
L 47.776407 220.018125 
L 49.397542 220.018125 
" style="fill:none;stroke:#000000;stroke-linecap:square;"/>
   </g>
   <g id="line2d_34">
    <path clip-path="url(#pa578559357)" d="M 47.337712 188.447011 
L 48.907302 188.72372 
L 50.49041 189.002811 
L 52.086915 189.284265 
" style="fill:none;stroke:#000000;stroke-linecap:square;"/>
   </g>
   <g id="line2d_35">
    <path clip-path="url(#pa578559357)" d="M 55.541684 157.835169 
L 57.039369 158.380179 
L 58.549953 158.929882 
L 60.073321 159.484238 
" style="fill:none;stroke:#000000;stroke-linecap:square;"/>
   </g>
   <g id="line2d_36">
    <path clip-path="url(#pa578559357)" d="M 68.937717 129.112725 
L 70.317991 129.909476 
L 71.710152 130.713089 
L 73.114096 131.523502 
" style="fill:none;stroke:#000000;stroke-linecap:square;"/>
   </g>
   <g id="line2d_37">
    <path clip-path="url(#pa578559357)" d="M 87.118778 103.152396 
L 88.339702 104.176679 
L 89.571142 105.209783 
L 90.813003 106.251631 
" style="fill:none;stroke:#000000;stroke-linecap:square;"/>
   </g>
   <g id="line2d_38">
    <path clip-path="url(#pa578559357)" d="M 109.532447 80.742972 
L 110.556923 81.963665 
L 111.590224 83.194871 
L 112.632269 84.436497 
" style="fill:none;stroke:#000000;stroke-linecap:square;"/>
   </g>
   <g id="line2d_39">
    <path clip-path="url(#pa578559357)" d="M 135.497693 62.565354 
L 136.294595 63.945367 
L 137.09836 65.337265 
L 137.908927 66.740942 
" style="fill:none;stroke:#000000;stroke-linecap:square;"/>
   </g>
   <g id="line2d_40">
    <path clip-path="url(#pa578559357)" d="M 164.225578 49.171859 
L 164.770691 50.66926 
L 165.320498 52.179558 
L 165.874959 53.702637 
" style="fill:none;stroke:#000000;stroke-linecap:square;"/>
   </g>
   <g id="line2d_41">
    <path clip-path="url(#pa578559357)" d="M 194.843218 40.96944 
L 195.119979 42.538733 
L 195.399124 44.121541 
L 195.680631 45.717744 
" style="fill:none;stroke:#000000;stroke-linecap:square;"/>
   </g>
   <g id="line2d_42">
    <path clip-path="url(#pa578559357)" d="M 174.785316 198.685793 
L 173.655318 198.649825 
L 172.523966 198.688099 
L 171.395745 198.800676 
L 170.275153 198.987317 
L 169.166682 199.247486 
L 168.074803 199.580346 
L 167.003941 199.98476 
L 165.958463 200.459291 
L 164.942653 201.00221 
L 163.960694 201.611491 
L 163.016652 202.284829 
L 162.114452 203.019635 
L 161.257862 203.813056 
L 160.450476 204.661977 
L 159.695693 205.563038 
L 158.996703 206.512645 
L 158.356468 207.506984 
L 157.77771 208.54204 
L 157.262896 209.613611 
L 156.814224 210.717329 
L 156.433612 211.848678 
L 156.12269 213.003014 
L 155.882788 214.175589 
L 155.71493 215.361569 
L 155.619832 216.55606 
L 155.597892 217.754128 
L 155.649195 218.950824 
L 155.773508 220.141209 
L 155.970282 221.320371 
L 156.238655 222.483455 
L 156.577462 223.625679 
L 156.985232 224.742364 
L 157.460205 225.828946 
L 158.000335 226.881004 
L 158.603307 227.894275 
L 159.266543 228.864675 
L 159.98722 229.788317 
L 160.762282 230.661524 
L 161.588458 231.480846 
L 162.462276 232.243075 
L 163.380081 232.945253 
L 164.338054 233.584687 
L 165.332228 234.158955 
L 166.358507 234.665917 
L 167.412688 235.103717 
L 168.490476 235.470792 
L 169.587503 235.765872 
L 170.699352 235.987985 
L 171.821568 236.136457 
L 172.949684 236.210908 
L 174.079233 236.211255 
L 175.205769 236.137708 
L 176.324885 235.990761 
L 177.432225 235.771195 
L 178.523505 235.480065 
L 179.594527 235.118696 
L 180.641192 234.688674 
L 181.659516 234.19184 
L 182.645642 233.630276 
L 183.595853 233.0063 
L 184.506586 232.322452 
L 185.37444 231.581484 
L 186.196188 230.78635 
L 186.968787 229.940189 
L 187.689386 229.046321 
L 188.355334 228.108225 
L 188.964189 227.129535 
L 189.513727 226.114019 
L 190.00194 225.065571 
L 190.427052 223.988194 
L 190.787515 222.885989 
L 191.082019 221.76314 
L 191.309492 220.623898 
L 191.469106 219.472572 
L 191.560278 218.313508 
L 191.582668 217.151081 
L 191.536186 215.989676 
L 191.42099 214.833679 
L 191.237483 213.687455 
L 190.986317 212.555342 
L 190.668388 211.441631 
L 190.284835 210.350555 
L 189.837036 209.28627 
L 189.326607 208.252848 
L 188.755397 207.254257 
L 188.125481 206.29435 
L 187.439156 205.37685 
L 186.698936 204.505336 
L 185.907543 203.683233 
L 185.067901 202.913794 
L 184.183125 202.200089 
L 183.256515 201.544995 
L 182.291543 200.951179 
L 181.291844 200.421093 
L 180.261204 199.956954 
L 179.203547 199.560743 
L 178.122921 199.234188 
L 177.023489 198.978757 
L 175.909508 198.795651 
L 174.785316 198.685793 
" style="fill:none;stroke:#00008b;stroke-linecap:square;"/>
   </g>
   <g id="line2d_43">
    <path clip-path="url(#pa578559357)" d="M 211.855343 161.65853 
L 210.934794 160.511401 
L 209.938999 159.425654 
L 208.871618 158.405845 
L 207.736631 157.4563 
L 206.538322 156.581094 
L 205.281268 155.784032 
L 203.970321 155.068629 
L 202.610595 154.438085 
L 201.207445 153.895272 
L 199.766444 153.442715 
L 198.293367 153.082575 
L 196.794162 152.816632 
L 195.274926 152.646278 
L 193.741878 152.572498 
L 192.201335 152.595867 
L 190.659675 152.716541 
L 189.123314 152.934249 
L 187.598673 153.248293 
L 186.092146 153.657551 
L 184.610068 154.16047 
L 183.158687 154.755082 
L 181.744128 155.439002 
L 180.372364 156.209445 
L 179.049187 157.063231 
L 177.780177 157.996809 
L 176.570675 159.006265 
L 175.425754 160.087348 
L 174.350198 161.235486 
L 173.348474 162.445815 
L 172.424714 163.713199 
L 171.582694 165.032259 
L 170.825818 166.397401 
L 170.157102 167.802842 
L 169.579165 169.242641 
L 169.094215 170.710732 
L 168.704045 172.200949 
L 168.410025 173.707061 
L 168.213105 175.222799 
L 168.11381 176.741889 
L 168.112243 178.258079 
L 168.208092 179.765169 
L 168.400638 181.257038 
L 168.688757 182.72767 
L 169.070937 184.171181 
L 169.545287 185.581845 
L 170.109554 186.954109 
L 170.761133 188.282623 
L 171.497086 189.562256 
L 172.314161 190.788111 
L 173.208807 191.955547 
L 174.177195 193.060191 
L 175.215237 194.09795 
L 176.318607 195.065025 
L 177.482757 195.95792 
L 178.702944 196.773451 
L 179.974246 197.508753 
L 181.291585 198.161285 
L 182.649745 198.728835 
L 184.043395 199.209524 
L 185.467109 199.601807 
L 186.915385 199.904473 
L 188.382663 200.116649 
L 189.863349 200.237792 
L 191.35183 200.267693 
L 192.842491 200.206471 
L 194.329741 200.054568 
L 195.808019 199.81275 
L 197.271823 199.482094 
L 198.715719 199.06399 
L 200.134358 198.560128 
L 201.522496 197.972494 
L 202.875006 197.303363 
L 204.186896 196.555287 
L 205.453318 195.731093 
L 206.669591 194.833866 
L 207.831205 193.866945 
L 208.933844 192.833909 
L 209.973393 191.738571 
L 210.945951 190.58496 
L 211.847848 189.377317 
L 212.675652 188.120077 
L 213.426181 186.817858 
L 214.096519 185.47545 
L 214.684021 184.097796 
L 215.186325 182.689985 
L 215.601364 181.25723 
L 215.927374 179.804857 
L 216.162898 178.338288 
L 216.306803 176.863022 
L 216.358279 175.384622 
L 216.316851 173.908694 
L 216.182381 172.440868 
L 215.955076 170.986783 
L 215.63549 169.552062 
L 215.224526 168.142296 
L 214.723441 166.763024 
L 214.133844 165.419706 
L 213.457697 164.11771 
L 212.697311 162.862282 
L 211.855343 161.65853 
" style="fill:none;stroke:#00008b;stroke-linecap:square;"/>
   </g>
   <g id="line2d_44">
    <path clip-path="url(#pa578559357)" d="M 181.99431 255.819945 
L 181.385743 256.947442 
L 180.851782 258.114087 
L 180.394792 259.315375 
L 180.016842 260.546635 
L 179.719698 261.803041 
L 179.504807 263.079638 
L 179.373291 264.371353 
L 179.325939 265.673021 
L 179.363193 266.979403 
L 179.485149 268.28521 
L 179.691547 269.585125 
L 179.981775 270.873827 
L 180.35486 272.146014 
L 180.809474 273.396429 
L 181.343937 274.619882 
L 181.956217 275.811277 
L 182.643941 276.965635 
L 183.404403 278.078119 
L 184.234571 279.144059 
L 185.131103 280.158971 
L 186.090361 281.118583 
L 187.108424 282.018858 
L 188.181107 282.856007 
L 189.303983 283.626517 
L 190.472399 284.32716 
L 191.681503 284.955016 
L 192.926262 285.507483 
L 194.201491 285.982288 
L 195.501875 286.377504 
L 196.821995 286.691552 
L 198.156357 286.923209 
L 199.499415 287.071614 
L 200.845599 287.136271 
L 202.189341 287.117046 
L 203.525102 287.014168 
L 204.847398 286.828226 
L 206.150823 286.56016 
L 207.430076 286.211258 
L 208.679981 285.783145 
L 209.895514 285.27777 
L 211.071818 284.697398 
L 212.20423 284.044597 
L 213.288294 283.322218 
L 214.319778 282.533383 
L 215.294696 281.681471 
L 216.209315 280.770093 
L 217.06017 279.803081 
L 217.844077 278.784466 
L 218.55814 277.718459 
L 219.199762 276.609431 
L 219.766646 275.461895 
L 220.256809 274.280485 
L 220.668577 273.069939 
L 221.000592 271.835073 
L 221.251813 270.580769 
L 221.421516 269.311953 
L 221.509289 268.033572 
L 221.515036 266.750584 
L 221.43897 265.467934 
L 221.281606 264.190536 
L 221.043762 262.92326 
L 220.726549 261.670914 
L 220.331364 260.438227 
L 219.859885 259.229833 
L 219.31406 258.05026 
L 218.696099 256.903911 
L 218.008465 255.795056 
L 217.253866 254.727812 
L 216.43524 253.706137 
L 215.555747 252.733816 
L 214.618758 251.814446 
L 213.627843 250.951432 
L 212.586758 250.147972 
L 211.499431 249.407049 
L 210.369953 248.731422 
L 209.202565 248.123617 
L 208.001637 247.58592 
L 206.771665 247.120369 
L 205.517248 246.728747 
L 204.243079 246.412577 
L 202.953927 246.173114 
L 201.654626 246.011343 
L 200.350054 245.927973 
L 199.045123 245.923432 
L 197.744759 245.997868 
L 196.45389 246.151142 
L 195.177425 246.382828 
L 193.920242 246.692213 
L 192.687168 247.078297 
L 191.482964 247.539792 
L 190.312307 248.075125 
L 189.179774 248.68244 
L 188.089823 249.359601 
L 187.046778 250.1042 
L 186.05481 250.913554 
L 185.11792 251.784723 
L 184.239923 252.714508 
L 183.424433 253.699465 
L 182.674843 254.735912 
L 181.99431 255.819945 
" style="fill:none;stroke:#0000ff;stroke-linecap:square;"/>
   </g>
   <g id="line2d_45">
    <path clip-path="url(#pa578559357)" d="M 206.781024 203.856809 
L 206.123646 203.70865 
L 205.458005 203.602367 
L 204.786728 203.538409 
L 204.112463 203.51706 
L 203.437879 203.538433 
L 202.765646 203.602474 
L 202.098429 203.708957 
L 201.438879 203.857488 
L 200.789617 204.047504 
L 200.153228 204.278277 
L 199.532246 204.548913 
L 198.929151 204.858359 
L 198.34635 205.205407 
L 197.786172 205.588693 
L 197.250859 206.006709 
L 196.742553 206.457805 
L 196.263292 206.940198 
L 195.814995 207.451976 
L 195.399461 207.991109 
L 195.018356 208.555453 
L 194.67321 209.142764 
L 194.365406 209.750702 
L 194.096179 210.376846 
L 193.866608 211.018697 
L 193.677611 211.673696 
L 193.529945 212.339227 
L 193.424197 213.012635 
L 193.360788 213.691231 
L 193.339964 214.372306 
L 193.361802 215.053142 
L 193.426208 215.731024 
L 193.532912 216.403248 
L 193.681479 217.067136 
L 193.871301 217.720044 
L 194.101607 218.359375 
L 194.371464 218.982587 
L 194.67978 219.587207 
L 195.02531 220.170838 
L 195.40666 220.731169 
L 195.822295 221.265985 
L 196.270544 221.773176 
L 196.749609 222.250745 
L 197.257569 222.696814 
L 197.792391 223.109635 
L 198.351939 223.487593 
L 198.933979 223.829216 
L 199.536193 224.133175 
L 200.156185 224.398296 
L 200.791493 224.623557 
L 201.439596 224.808098 
L 202.097928 224.951219 
L 202.763886 225.052384 
L 203.434839 225.111226 
L 204.108142 225.127542 
L 204.781143 225.101296 
L 205.451197 225.032622 
L 206.115672 224.921818 
L 206.771962 224.769345 
L 207.417497 224.57583 
L 208.04975 224.342055 
L 208.666252 224.068961 
L 209.264595 223.75764 
L 209.842446 223.409331 
L 210.397553 223.025416 
L 210.927757 222.607414 
L 211.430993 222.156974 
L 211.905306 221.675869 
L 212.348853 221.165991 
L 212.759911 220.629341 
L 213.136884 220.068022 
L 213.478308 219.484231 
L 213.782858 218.880251 
L 214.04935 218.258444 
L 214.276749 217.621238 
L 214.464171 216.97112 
L 214.610883 216.310627 
L 214.716314 215.642337 
L 214.780049 214.968858 
L 214.801834 214.292816 
L 214.781578 213.616852 
L 214.719352 212.943603 
L 214.615389 212.275701 
L 214.470083 211.615754 
L 214.283989 210.966346 
L 214.057819 210.330018 
L 213.792441 209.709263 
L 213.488878 209.106517 
L 213.148299 208.524148 
L 212.772019 207.964445 
L 212.361494 207.429615 
L 211.918313 206.921768 
L 211.444197 206.442911 
L 210.940987 205.994941 
L 210.41064 205.579638 
L 209.855224 205.198655 
L 209.276906 204.853512 
L 208.677946 204.545594 
L 208.060688 204.276137 
L 207.427552 204.04623 
L 206.781024 203.856809 
" style="fill:none;stroke:#0000ff;stroke-linecap:square;"/>
   </g>
   <g id="line2d_46">
    <path clip-path="url(#pa578559357)" d="M 342.930994 346.730014 
L 344.41673 347.999654 
L 346.042405 349.099996 
L 347.805793 350.022014 
L 349.703788 350.756824 
L 351.732317 351.29576 
L 351.941935 349.6229 
L 351.817341 347.344211 
L 351.825803 344.962386 
L 351.962741 342.485721 
L 352.223487 339.922314 
L 352.603324 337.280078 
L 353.097511 334.56676 
L 353.701314 331.789958 
L 354.410018 328.957139 
L 355.21895 326.075653 
L 356.123488 323.152755 
L 357.119076 320.195614 
L 358.201227 317.211334 
L 359.365531 314.206966 
L 360.607662 311.189521 
L 361.923374 308.165985 
L 363.308509 305.143331 
L 364.758992 302.128529 
L 366.270832 299.12856 
L 367.840118 296.150424 
L 369.463018 293.20115 
L 371.135771 290.287807 
L 372.854686 287.417514 
L 374.61613 284.597443 
L 376.416526 281.834833 
L 378.252342 279.136995 
L 380.120081 276.511315 
L 382.016269 273.965266 
L 383.937447 271.50641 
L 385.880154 269.142402 
L 387.84091 266.880992 
L 389.816204 264.730032 
L 391.802468 262.697468 
L 393.796064 260.791345 
L 395.793254 259.0198 
L 397.790179 257.391051 
L 399.782827 255.913394 
L 401.767007 254.595182 
L 403.738313 253.444805 
L 405.01977 252.348962 
L 403.453089 250.952443 
L 401.79471 249.772705 
L 400.054107 248.808377 
L 398.240412 248.05716 
L 396.362386 247.515942 
L 394.428413 247.180906 
L 392.446492 247.047621 
L 390.424248 247.111137 
L 388.368941 247.366059 
L 386.28748 247.806624 
L 384.186443 248.426756 
L 382.072096 249.220127 
L 379.950418 250.180202 
L 377.827118 251.30028 
L 375.707663 252.57353 
L 373.5973 253.993016 
L 371.501073 255.551731 
L 369.423847 257.242606 
L 367.370329 259.058537 
L 365.345083 260.992393 
L 363.352549 263.037026 
L 361.397058 265.185283 
L 359.482849 267.430009 
L 357.614078 269.764051 
L 355.794833 272.180263 
L 354.029144 274.671503 
L 352.320994 277.230636 
L 350.674321 279.850531 
L 349.093034 282.524057 
L 347.581012 285.244085 
L 346.142112 288.003477 
L 344.780169 290.795086 
L 343.499003 293.611748 
L 342.302416 296.446278 
L 341.194193 299.291459 
L 340.178101 302.140042 
L 339.257884 304.984732 
L 338.43726 307.818181 
L 337.719912 310.632983 
L 337.109483 313.421662 
L 336.609561 316.176665 
L 336.223669 318.890351 
L 335.955251 321.554984 
L 335.807648 324.162725 
L 335.784082 326.705624 
L 335.88763 329.17561 
L 336.121194 331.564488 
L 336.487468 333.863935 
L 336.988906 336.065494 
L 337.627672 338.160579 
L 338.405603 340.140475 
L 339.324148 341.996349 
L 340.384318 343.719259 
L 341.586621 345.300177 
L 342.930994 346.730014 
" style="fill:none;stroke:#0000ff;stroke-linecap:square;"/>
   </g>
   <g id="line2d_47">
    <path clip-path="url(#pa578559357)" d="M 207.17327 161.430561 
L 206.863842 160.88181 
L 206.518223 160.354296 
L 206.137716 159.850148 
L 205.723766 159.37141 
L 205.277959 158.920031 
L 204.802013 158.497857 
L 204.297774 158.106625 
L 203.76721 157.747953 
L 203.212401 157.423331 
L 202.635531 157.134118 
L 202.038885 156.881531 
L 201.424832 156.666641 
L 200.795822 156.49037 
L 200.154371 156.353482 
L 199.503054 156.256579 
L 198.844493 156.200101 
L 198.181345 156.184322 
L 197.516294 156.209347 
L 196.852032 156.275111 
L 196.191256 156.381379 
L 195.53665 156.527747 
L 194.890877 156.713643 
L 194.256563 156.938329 
L 193.636291 157.200905 
L 193.032584 157.500309 
L 192.447897 157.835328 
L 191.884606 158.204597 
L 191.344994 158.60661 
L 190.831247 159.039722 
L 190.34544 159.502163 
L 189.889529 159.992037 
L 189.465344 160.50734 
L 189.07458 161.045962 
L 188.718788 161.6057 
L 188.399374 162.184268 
L 188.11759 162.779307 
L 187.874527 163.388392 
L 187.671118 164.00905 
L 187.508126 164.638764 
L 187.38615 165.274987 
L 187.305618 165.915154 
L 187.266786 166.55669 
L 187.269743 167.197025 
L 187.314407 167.8336 
L 187.400527 168.463883 
L 187.527686 169.085372 
L 187.695307 169.695612 
L 187.902651 170.292203 
L 188.148823 170.872806 
L 188.43278 171.435156 
L 188.75333 171.977066 
L 189.109145 172.496441 
L 189.498762 172.99128 
L 189.92059 173.459688 
L 190.372922 173.899876 
L 190.853934 174.310176 
L 191.361702 174.689037 
L 191.894202 175.035037 
L 192.449324 175.346885 
L 193.024877 175.623425 
L 193.618598 175.863638 
L 194.228165 176.066648 
L 194.851197 176.231723 
L 195.485273 176.358274 
L 196.127934 176.445861 
L 196.776695 176.494191 
L 197.429052 176.50312 
L 198.082494 176.472651 
L 198.73451 176.402935 
L 199.382596 176.294269 
L 200.024269 176.147094 
L 200.65707 175.961995 
L 201.278576 175.739699 
L 201.886409 175.481068 
L 202.47824 175.1871 
L 203.051802 174.858924 
L 203.604896 174.497795 
L 204.135397 174.105093 
L 204.641265 173.682315 
L 205.120548 173.231068 
L 205.571392 172.753071 
L 205.99205 172.250142 
L 206.380881 171.724194 
L 206.736363 171.177231 
L 207.057096 170.611337 
L 207.341808 170.028672 
L 207.58936 169.431465 
L 207.798751 168.822003 
L 207.969119 168.202625 
L 208.099753 167.575715 
L 208.190087 166.943692 
L 208.239708 166.309002 
L 208.248361 165.674108 
L 208.215942 165.041483 
L 208.14251 164.413597 
L 208.028281 163.792912 
L 207.873629 163.181873 
L 207.67909 162.582892 
L 207.445354 161.998345 
L 207.17327 161.430561 
" style="fill:none;stroke:#00bfbf;stroke-linecap:square;"/>
   </g>
   <g id="line2d_48">
    <path clip-path="url(#pa578559357)" d="M 207.009683 273.803016 
L 206.936191 274.583709 
L 206.914302 275.368378 
L 206.94421 276.153923 
L 207.025905 276.937227 
L 207.159167 277.715167 
L 207.34357 278.484631 
L 207.578479 279.242527 
L 207.863053 279.985798 
L 208.196244 280.711435 
L 208.576803 281.416488 
L 209.003284 282.098082 
L 209.474043 282.753428 
L 209.987253 283.379836 
L 210.540903 283.974727 
L 211.132808 284.535646 
L 211.76062 285.060271 
L 212.421834 285.546426 
L 213.1138 285.992092 
L 213.833735 286.395416 
L 214.578731 286.754716 
L 215.345772 287.068495 
L 216.131745 287.335446 
L 216.933453 287.554457 
L 217.747633 287.724618 
L 218.570963 287.845223 
L 219.400086 287.915777 
L 220.231617 287.935996 
L 221.062165 287.905807 
L 221.888341 287.825353 
L 222.706782 287.694985 
L 223.514156 287.515267 
L 224.307185 287.286966 
L 225.082657 287.011056 
L 225.837436 286.688705 
L 226.568482 286.321276 
L 227.272859 285.910314 
L 227.94775 285.457543 
L 228.590468 284.964855 
L 229.198467 284.434302 
L 229.769351 283.868085 
L 230.300886 283.268545 
L 230.791005 282.63815 
L 231.237818 281.979488 
L 231.63962 281.295247 
L 231.994892 280.588214 
L 232.30231 279.861253 
L 232.560748 279.117296 
L 232.76928 278.359335 
L 232.927183 277.5904 
L 233.033939 276.813555 
L 233.089231 276.031881 
L 233.092951 275.248466 
L 233.045189 274.46639 
L 232.946239 273.688716 
L 232.796592 272.918477 
L 232.596932 272.158665 
L 232.348135 271.412218 
L 232.051261 270.682015 
L 231.707551 269.970858 
L 231.318421 269.281469 
L 230.885453 268.616475 
L 230.410391 267.978404 
L 229.895133 267.369674 
L 229.341721 266.792585 
L 228.752335 266.249311 
L 228.129285 265.741896 
L 227.475001 265.272244 
L 226.792023 264.842113 
L 226.082994 264.453114 
L 225.350648 264.106699 
L 224.597802 263.804164 
L 223.827346 263.546638 
L 223.04223 263.335084 
L 222.245459 263.170295 
L 221.440077 263.052892 
L 220.629159 262.983319 
L 219.815803 262.961844 
L 219.003114 262.988561 
L 218.194196 263.063382 
L 217.392144 263.186043 
L 216.600029 263.356105 
L 215.820887 263.57295 
L 215.057715 263.835787 
L 214.313452 264.143653 
L 213.590973 264.495414 
L 212.893079 264.889773 
L 212.222485 265.325266 
L 211.58181 265.800275 
L 210.973568 266.313028 
L 210.400159 266.861602 
L 209.863858 267.443935 
L 209.366805 268.057831 
L 208.911001 268.700963 
L 208.498293 269.370885 
L 208.130372 270.065038 
L 207.80876 270.780761 
L 207.534809 271.515297 
L 207.309687 272.265805 
L 207.134381 273.029371 
L 207.009683 273.803016 
" style="fill:none;stroke:#ff0000;stroke-linecap:square;"/>
   </g>
   <g id="line2d_49">
    <path clip-path="url(#pa578559357)" d="M 120.760343 274.835941 
L 120.252741 275.179115 
L 119.772512 275.562931 
L 119.321682 275.986033 
L 118.902179 276.446893 
L 118.515819 276.943818 
L 118.164304 277.47495 
L 117.849206 278.038273 
L 117.571959 278.631622 
L 117.333854 279.252687 
L 117.136025 279.899022 
L 116.979446 280.568057 
L 116.864924 281.257103 
L 116.793087 281.963371 
L 116.764386 282.683974 
L 116.779084 283.41595 
L 116.837257 284.156266 
L 116.938788 284.901842 
L 117.083368 285.649557 
L 117.270493 286.39627 
L 117.499467 287.138832 
L 117.769402 287.874104 
L 118.079224 288.598973 
L 118.427673 289.310367 
L 118.813311 290.005271 
L 119.234531 290.680741 
L 119.689561 291.333922 
L 120.176473 291.96206 
L 120.693196 292.562519 
L 121.237523 293.132789 
L 121.807127 293.670504 
L 122.399569 294.173449 
L 123.012312 294.639571 
L 123.642738 295.06699 
L 124.288155 295.454007 
L 124.945819 295.799107 
L 125.61294 296.10097 
L 126.286705 296.358471 
L 126.964282 296.570684 
L 127.642845 296.736886 
L 128.319578 296.856558 
L 128.991693 296.929379 
L 129.656443 296.955233 
L 130.311134 296.934199 
L 130.953132 296.866552 
L 131.579883 296.752759 
L 132.188914 296.593469 
L 132.777847 296.389514 
L 133.34441 296.141896 
L 133.886438 295.851786 
L 134.401887 295.52051 
L 134.888836 295.149547 
L 135.345495 294.740517 
L 135.77021 294.295173 
L 136.161464 293.815393 
L 136.517882 293.303168 
L 136.838237 292.760599 
L 137.121447 292.189881 
L 137.366578 291.593296 
L 137.572848 290.973208 
L 137.739622 290.332045 
L 137.866416 289.6723 
L 137.952895 288.996514 
L 137.99887 288.30727 
L 138.004302 287.607184 
L 137.969294 286.8989 
L 137.894091 286.185072 
L 137.77908 285.468368 
L 137.624784 284.75145 
L 137.431859 284.036975 
L 137.201096 283.327583 
L 136.93341 282.625887 
L 136.629842 281.934472 
L 136.291552 281.255881 
L 135.919817 280.592611 
L 135.516027 279.947106 
L 135.081677 279.321746 
L 134.618369 278.718847 
L 134.1278 278.140646 
L 133.611764 277.589301 
L 133.072142 277.066881 
L 132.510898 276.575359 
L 131.930075 276.116607 
L 131.33179 275.692391 
L 130.718224 275.30436 
L 130.091622 274.954045 
L 129.45428 274.642851 
L 128.808545 274.372049 
L 128.156805 274.142777 
L 127.50148 273.956027 
L 126.845021 273.812645 
L 126.189895 273.713323 
L 125.538584 273.658598 
L 124.89357 273.648845 
L 124.257335 273.684274 
L 123.632345 273.764927 
L 123.021044 273.890675 
L 122.425846 274.061216 
L 121.849124 274.276073 
L 121.293202 274.534591 
L 120.760343 274.835941 
" style="fill:none;stroke:#ff0000;stroke-linecap:square;"/>
   </g>
   <g id="line2d_50">
    <path clip-path="url(#pa578559357)" d="M 184.12872 390.621072 
L 183.973041 391.560709 
L 183.928584 392.518682 
L 183.997143 393.49142 
L 184.180094 394.475134 
L 184.47837 395.46583 
L 184.892425 396.459317 
L 185.555375 396.874877 
L 186.559618 396.259435 
L 187.648873 395.683723 
L 188.818449 395.148789 
L 190.063535 394.655521 
L 191.379215 394.204664 
L 192.760486 393.796829 
L 194.202266 393.432504 
L 195.699409 393.112062 
L 197.24671 392.835774 
L 198.838921 392.603819 
L 200.470749 392.416285 
L 202.136873 392.273184 
L 203.831943 392.174454 
L 205.550588 392.119966 
L 207.28742 392.109529 
L 209.037041 392.142891 
L 210.794044 392.219749 
L 212.553018 392.339744 
L 214.308554 392.502466 
L 216.055245 392.707456 
L 217.787695 392.954201 
L 219.500516 393.242138 
L 221.188339 393.570652 
L 222.845816 393.939071 
L 224.467624 394.346662 
L 226.048472 394.792633 
L 227.583108 395.276121 
L 229.066324 395.796191 
L 230.492966 396.351831 
L 231.857939 396.94194 
L 233.156224 397.565326 
L 234.382883 398.220696 
L 235.533073 398.906646 
L 236.602062 399.621658 
L 237.585242 400.364082 
L 238.478151 401.132136 
L 239.199025 400.827895 
L 239.766624 399.913375 
L 240.219486 398.983103 
L 240.557392 398.041287 
L 240.78062 397.092022 
L 240.889927 396.139266 
L 240.886509 395.186831 
L 240.771978 394.238374 
L 240.54833 393.297389 
L 240.217913 392.367203 
L 239.783401 391.450973 
L 239.247768 390.551685 
L 238.614257 389.67216 
L 237.886359 388.815049 
L 237.067787 387.982846 
L 236.16246 387.177883 
L 235.174473 386.402344 
L 234.108088 385.658264 
L 232.967709 384.947541 
L 231.757872 384.271937 
L 230.483228 383.633087 
L 229.148528 383.032504 
L 227.758613 382.471586 
L 226.318405 381.951621 
L 224.832891 381.473791 
L 223.307119 381.039179 
L 221.746189 380.648771 
L 220.155243 380.30346 
L 218.539461 380.00405 
L 216.90405 379.75126 
L 215.254243 379.545721 
L 213.595289 379.387981 
L 211.932452 379.278507 
L 210.271 379.217679 
L 208.616202 379.205795 
L 206.973326 379.243069 
L 205.347626 379.329624 
L 203.744345 379.465494 
L 202.168701 379.650619 
L 200.625886 379.884841 
L 199.121055 380.167899 
L 197.659323 380.499422 
L 196.245752 380.878926 
L 194.885345 381.305806 
L 193.583034 381.779326 
L 192.343672 382.298616 
L 191.172018 382.862661 
L 190.072723 383.470293 
L 189.050318 384.120184 
L 188.109198 384.810833 
L 187.253601 385.540562 
L 186.487593 386.307506 
L 185.815044 387.109604 
L 185.239606 387.944591 
L 184.764692 388.809994 
L 184.393446 389.703124 
L 184.12872 390.621072 
" style="fill:none;stroke:#ff0000;stroke-linecap:square;"/>
   </g>
   <g id="text_1">
    <!-- Overprint Directions - geographic/tilt-corrected -->
    <defs>
     <path d="M 39.40625 66.21875 
Q 28.65625 66.21875 22.328125 58.203125 
Q 16.015625 50.203125 16.015625 36.375 
Q 16.015625 22.609375 22.328125 14.59375 
Q 28.65625 6.59375 39.40625 6.59375 
Q 50.140625 6.59375 56.421875 14.59375 
Q 62.703125 22.609375 62.703125 36.375 
Q 62.703125 50.203125 56.421875 58.203125 
Q 50.140625 66.21875 39.40625 66.21875 
M 39.40625 74.21875 
Q 54.734375 74.21875 63.90625 63.9375 
Q 73.09375 53.65625 73.09375 36.375 
Q 73.09375 19.140625 63.90625 8.859375 
Q 54.734375 -1.421875 39.40625 -1.421875 
Q 24.03125 -1.421875 14.8125 8.828125 
Q 5.609375 19.09375 5.609375 36.375 
Q 5.609375 53.65625 14.8125 63.9375 
Q 24.03125 74.21875 39.40625 74.21875 
" id="BitstreamVeraSans-Roman-4f"/>
     <path d="M 45.40625 27.984375 
Q 45.40625 37.75 41.375 43.109375 
Q 37.359375 48.484375 30.078125 48.484375 
Q 22.859375 48.484375 18.828125 43.109375 
Q 14.796875 37.75 14.796875 27.984375 
Q 14.796875 18.265625 18.828125 12.890625 
Q 22.859375 7.515625 30.078125 7.515625 
Q 37.359375 7.515625 41.375 12.890625 
Q 45.40625 18.265625 45.40625 27.984375 
M 54.390625 6.78125 
Q 54.390625 -7.171875 48.1875 -13.984375 
Q 42 -20.796875 29.203125 -20.796875 
Q 24.46875 -20.796875 20.265625 -20.09375 
Q 16.0625 -19.390625 12.109375 -17.921875 
L 12.109375 -9.1875 
Q 16.0625 -11.328125 19.921875 -12.34375 
Q 23.78125 -13.375 27.78125 -13.375 
Q 36.625 -13.375 41.015625 -8.765625 
Q 45.40625 -4.15625 45.40625 5.171875 
L 45.40625 9.625 
Q 42.625 4.78125 38.28125 2.390625 
Q 33.9375 0 27.875 0 
Q 17.828125 0 11.671875 7.65625 
Q 5.515625 15.328125 5.515625 27.984375 
Q 5.515625 40.671875 11.671875 48.328125 
Q 17.828125 56 27.875 56 
Q 33.9375 56 38.28125 53.609375 
Q 42.625 51.21875 45.40625 46.390625 
L 45.40625 54.6875 
L 54.390625 54.6875 
z
" id="BitstreamVeraSans-Roman-67"/>
     <path id="BitstreamVeraSans-Roman-20"/>
     <path d="M 54.890625 33.015625 
L 54.890625 0 
L 45.90625 0 
L 45.90625 32.71875 
Q 45.90625 40.484375 42.875 44.328125 
Q 39.84375 48.1875 33.796875 48.1875 
Q 26.515625 48.1875 22.3125 43.546875 
Q 18.109375 38.921875 18.109375 30.90625 
L 18.109375 0 
L 9.078125 0 
L 9.078125 54.6875 
L 18.109375 54.6875 
L 18.109375 46.1875 
Q 21.34375 51.125 25.703125 53.5625 
Q 30.078125 56 35.796875 56 
Q 45.21875 56 50.046875 50.171875 
Q 54.890625 44.34375 54.890625 33.015625 
" id="BitstreamVeraSans-Roman-6e"/>
     <path d="M 34.28125 27.484375 
Q 23.390625 27.484375 19.1875 25 
Q 14.984375 22.515625 14.984375 16.5 
Q 14.984375 11.71875 18.140625 8.90625 
Q 21.296875 6.109375 26.703125 6.109375 
Q 34.1875 6.109375 38.703125 11.40625 
Q 43.21875 16.703125 43.21875 25.484375 
L 43.21875 27.484375 
z
M 52.203125 31.203125 
L 52.203125 0 
L 43.21875 0 
L 43.21875 8.296875 
Q 40.140625 3.328125 35.546875 0.953125 
Q 30.953125 -1.421875 24.3125 -1.421875 
Q 15.921875 -1.421875 10.953125 3.296875 
Q 6 8.015625 6 15.921875 
Q 6 25.140625 12.171875 29.828125 
Q 18.359375 34.515625 30.609375 34.515625 
L 43.21875 34.515625 
L 43.21875 35.40625 
Q 43.21875 41.609375 39.140625 45 
Q 35.0625 48.390625 27.6875 48.390625 
Q 23 48.390625 18.546875 47.265625 
Q 14.109375 46.140625 10.015625 43.890625 
L 10.015625 52.203125 
Q 14.9375 54.109375 19.578125 55.046875 
Q 24.21875 56 28.609375 56 
Q 40.484375 56 46.34375 49.84375 
Q 52.203125 43.703125 52.203125 31.203125 
" id="BitstreamVeraSans-Roman-61"/>
     <path d="M 30.609375 48.390625 
Q 23.390625 48.390625 19.1875 42.75 
Q 14.984375 37.109375 14.984375 27.296875 
Q 14.984375 17.484375 19.15625 11.84375 
Q 23.34375 6.203125 30.609375 6.203125 
Q 37.796875 6.203125 41.984375 11.859375 
Q 46.1875 17.53125 46.1875 27.296875 
Q 46.1875 37.015625 41.984375 42.703125 
Q 37.796875 48.390625 30.609375 48.390625 
M 30.609375 56 
Q 42.328125 56 49.015625 48.375 
Q 55.71875 40.765625 55.71875 27.296875 
Q 55.71875 13.875 49.015625 6.21875 
Q 42.328125 -1.421875 30.609375 -1.421875 
Q 18.84375 -1.421875 12.171875 6.21875 
Q 5.515625 13.875 5.515625 27.296875 
Q 5.515625 40.765625 12.171875 48.375 
Q 18.84375 56 30.609375 56 
" id="BitstreamVeraSans-Roman-6f"/>
     <path d="M 9.421875 75.984375 
L 18.40625 75.984375 
L 18.40625 0 
L 9.421875 0 
z
" id="BitstreamVeraSans-Roman-6c"/>
     <path d="M 54.890625 33.015625 
L 54.890625 0 
L 45.90625 0 
L 45.90625 32.71875 
Q 45.90625 40.484375 42.875 44.328125 
Q 39.84375 48.1875 33.796875 48.1875 
Q 26.515625 48.1875 22.3125 43.546875 
Q 18.109375 38.921875 18.109375 30.90625 
L 18.109375 0 
L 9.078125 0 
L 9.078125 75.984375 
L 18.109375 75.984375 
L 18.109375 46.1875 
Q 21.34375 51.125 25.703125 53.5625 
Q 30.078125 56 35.796875 56 
Q 45.21875 56 50.046875 50.171875 
Q 54.890625 44.34375 54.890625 33.015625 
" id="BitstreamVeraSans-Roman-68"/>
     <path d="M 56.203125 29.59375 
L 56.203125 25.203125 
L 14.890625 25.203125 
Q 15.484375 15.921875 20.484375 11.0625 
Q 25.484375 6.203125 34.421875 6.203125 
Q 39.59375 6.203125 44.453125 7.46875 
Q 49.3125 8.734375 54.109375 11.28125 
L 54.109375 2.78125 
Q 49.265625 0.734375 44.1875 -0.34375 
Q 39.109375 -1.421875 33.890625 -1.421875 
Q 20.796875 -1.421875 13.15625 6.1875 
Q 5.515625 13.8125 5.515625 26.8125 
Q 5.515625 40.234375 12.765625 48.109375 
Q 20.015625 56 32.328125 56 
Q 43.359375 56 49.78125 48.890625 
Q 56.203125 41.796875 56.203125 29.59375 
M 47.21875 32.234375 
Q 47.125 39.59375 43.09375 43.984375 
Q 39.0625 48.390625 32.421875 48.390625 
Q 24.90625 48.390625 20.390625 44.140625 
Q 15.875 39.890625 15.1875 32.171875 
z
" id="BitstreamVeraSans-Roman-65"/>
     <path d="M 19.671875 64.796875 
L 19.671875 8.109375 
L 31.59375 8.109375 
Q 46.6875 8.109375 53.6875 14.9375 
Q 60.6875 21.78125 60.6875 36.53125 
Q 60.6875 51.171875 53.6875 57.984375 
Q 46.6875 64.796875 31.59375 64.796875 
z
M 9.8125 72.90625 
L 30.078125 72.90625 
Q 51.265625 72.90625 61.171875 64.09375 
Q 71.09375 55.28125 71.09375 36.53125 
Q 71.09375 17.671875 61.125 8.828125 
Q 51.171875 0 30.078125 0 
L 9.8125 0 
z
" id="BitstreamVeraSans-Roman-44"/>
     <path d="M 9.421875 54.6875 
L 18.40625 54.6875 
L 18.40625 0 
L 9.421875 0 
z
M 9.421875 75.984375 
L 18.40625 75.984375 
L 18.40625 64.59375 
L 9.421875 64.59375 
z
" id="BitstreamVeraSans-Roman-69"/>
     <path d="M 48.78125 52.59375 
L 48.78125 44.1875 
Q 44.96875 46.296875 41.140625 47.34375 
Q 37.3125 48.390625 33.40625 48.390625 
Q 24.65625 48.390625 19.8125 42.84375 
Q 14.984375 37.3125 14.984375 27.296875 
Q 14.984375 17.28125 19.8125 11.734375 
Q 24.65625 6.203125 33.40625 6.203125 
Q 37.3125 6.203125 41.140625 7.25 
Q 44.96875 8.296875 48.78125 10.40625 
L 48.78125 2.09375 
Q 45.015625 0.34375 40.984375 -0.53125 
Q 36.96875 -1.421875 32.421875 -1.421875 
Q 20.0625 -1.421875 12.78125 6.34375 
Q 5.515625 14.109375 5.515625 27.296875 
Q 5.515625 40.671875 12.859375 48.328125 
Q 20.21875 56 33.015625 56 
Q 37.15625 56 41.109375 55.140625 
Q 45.0625 54.296875 48.78125 52.59375 
" id="BitstreamVeraSans-Roman-63"/>
     <path d="M 25.390625 72.90625 
L 33.6875 72.90625 
L 8.296875 -9.28125 
L 0 -9.28125 
z
" id="BitstreamVeraSans-Roman-2f"/>
     <path d="M 2.984375 54.6875 
L 12.5 54.6875 
L 29.59375 8.796875 
L 46.6875 54.6875 
L 56.203125 54.6875 
L 35.6875 0 
L 23.484375 0 
z
" id="BitstreamVeraSans-Roman-76"/>
     <path d="M 45.40625 46.390625 
L 45.40625 75.984375 
L 54.390625 75.984375 
L 54.390625 0 
L 45.40625 0 
L 45.40625 8.203125 
Q 42.578125 3.328125 38.25 0.953125 
Q 33.9375 -1.421875 27.875 -1.421875 
Q 17.96875 -1.421875 11.734375 6.484375 
Q 5.515625 14.40625 5.515625 27.296875 
Q 5.515625 40.1875 11.734375 48.09375 
Q 17.96875 56 27.875 56 
Q 33.9375 56 38.25 53.625 
Q 42.578125 51.265625 45.40625 46.390625 
M 14.796875 27.296875 
Q 14.796875 17.390625 18.875 11.75 
Q 22.953125 6.109375 30.078125 6.109375 
Q 37.203125 6.109375 41.296875 11.75 
Q 45.40625 17.390625 45.40625 27.296875 
Q 45.40625 37.203125 41.296875 42.84375 
Q 37.203125 48.484375 30.078125 48.484375 
Q 22.953125 48.484375 18.875 42.84375 
Q 14.796875 37.203125 14.796875 27.296875 
" id="BitstreamVeraSans-Roman-64"/>
     <path d="M 18.3125 70.21875 
L 18.3125 54.6875 
L 36.8125 54.6875 
L 36.8125 47.703125 
L 18.3125 47.703125 
L 18.3125 18.015625 
Q 18.3125 11.328125 20.140625 9.421875 
Q 21.96875 7.515625 27.59375 7.515625 
L 36.8125 7.515625 
L 36.8125 0 
L 27.59375 0 
Q 17.1875 0 13.234375 3.875 
Q 9.28125 7.765625 9.28125 18.015625 
L 9.28125 47.703125 
L 2.6875 47.703125 
L 2.6875 54.6875 
L 9.28125 54.6875 
L 9.28125 70.21875 
z
" id="BitstreamVeraSans-Roman-74"/>
     <path d="M 41.109375 46.296875 
Q 39.59375 47.171875 37.8125 47.578125 
Q 36.03125 48 33.890625 48 
Q 26.265625 48 22.1875 43.046875 
Q 18.109375 38.09375 18.109375 28.8125 
L 18.109375 0 
L 9.078125 0 
L 9.078125 54.6875 
L 18.109375 54.6875 
L 18.109375 46.1875 
Q 20.953125 51.171875 25.484375 53.578125 
Q 30.03125 56 36.53125 56 
Q 37.453125 56 38.578125 55.875 
Q 39.703125 55.765625 41.0625 55.515625 
z
" id="BitstreamVeraSans-Roman-72"/>
     <path d="M 44.28125 53.078125 
L 44.28125 44.578125 
Q 40.484375 46.53125 36.375 47.5 
Q 32.28125 48.484375 27.875 48.484375 
Q 21.1875 48.484375 17.84375 46.4375 
Q 14.5 44.390625 14.5 40.28125 
Q 14.5 37.15625 16.890625 35.375 
Q 19.28125 33.59375 26.515625 31.984375 
L 29.59375 31.296875 
Q 39.15625 29.25 43.1875 25.515625 
Q 47.21875 21.78125 47.21875 15.09375 
Q 47.21875 7.46875 41.1875 3.015625 
Q 35.15625 -1.421875 24.609375 -1.421875 
Q 20.21875 -1.421875 15.453125 -0.5625 
Q 10.6875 0.296875 5.421875 2 
L 5.421875 11.28125 
Q 10.40625 8.6875 15.234375 7.390625 
Q 20.0625 6.109375 24.8125 6.109375 
Q 31.15625 6.109375 34.5625 8.28125 
Q 37.984375 10.453125 37.984375 14.40625 
Q 37.984375 18.0625 35.515625 20.015625 
Q 33.0625 21.96875 24.703125 23.78125 
L 21.578125 24.515625 
Q 13.234375 26.265625 9.515625 29.90625 
Q 5.8125 33.546875 5.8125 39.890625 
Q 5.8125 47.609375 11.28125 51.796875 
Q 16.75 56 26.8125 56 
Q 31.78125 56 36.171875 55.265625 
Q 40.578125 54.546875 44.28125 53.078125 
" id="BitstreamVeraSans-Roman-73"/>
     <path d="M 18.109375 8.203125 
L 18.109375 -20.796875 
L 9.078125 -20.796875 
L 9.078125 54.6875 
L 18.109375 54.6875 
L 18.109375 46.390625 
Q 20.953125 51.265625 25.265625 53.625 
Q 29.59375 56 35.59375 56 
Q 45.5625 56 51.78125 48.09375 
Q 58.015625 40.1875 58.015625 27.296875 
Q 58.015625 14.40625 51.78125 6.484375 
Q 45.5625 -1.421875 35.59375 -1.421875 
Q 29.59375 -1.421875 25.265625 0.953125 
Q 20.953125 3.328125 18.109375 8.203125 
M 48.6875 27.296875 
Q 48.6875 37.203125 44.609375 42.84375 
Q 40.53125 48.484375 33.40625 48.484375 
Q 26.265625 48.484375 22.1875 42.84375 
Q 18.109375 37.203125 18.109375 27.296875 
Q 18.109375 17.390625 22.1875 11.75 
Q 26.265625 6.109375 33.40625 6.109375 
Q 40.53125 6.109375 44.609375 11.75 
Q 48.6875 17.390625 48.6875 27.296875 
" id="BitstreamVeraSans-Roman-70"/>
     <path d="M 4.890625 31.390625 
L 31.203125 31.390625 
L 31.203125 23.390625 
L 4.890625 23.390625 
z
" id="BitstreamVeraSans-Roman-2d"/>
    </defs>
    <g transform="translate(84.973125 16.318125)scale(0.12 -0.12)">
     <use xlink:href="#BitstreamVeraSans-Roman-4f"/>
     <use x="78.7109375" xlink:href="#BitstreamVeraSans-Roman-76"/>
     <use x="137.890625" xlink:href="#BitstreamVeraSans-Roman-65"/>
     <use x="199.4140625" xlink:href="#BitstreamVeraSans-Roman-72"/>
     <use x="240.52734375" xlink:href="#BitstreamVeraSans-Roman-70"/>
     <use x="304.00390625" xlink:href="#BitstreamVeraSans-Roman-72"/>
     <use x="345.1171875" xlink:href="#BitstreamVeraSans-Roman-69"/>
     <use x="372.900390625" xlink:href="#BitstreamVeraSans-Roman-6e"/>
     <use x="436.279296875" xlink:href="#BitstreamVeraSans-Roman-74"/>
     <use x="475.48828125" xlink:href="#BitstreamVeraSans-Roman-20"/>
     <use x="507.275390625" xlink:href="#BitstreamVeraSans-Roman-44"/>
     <use x="584.27734375" xlink:href="#BitstreamVeraSans-Roman-69"/>
     <use x="612.060546875" xlink:href="#BitstreamVeraSans-Roman-72"/>
     <use x="653.142578125" xlink:href="#BitstreamVeraSans-Roman-65"/>
     <use x="714.666015625" xlink:href="#BitstreamVeraSans-Roman-63"/>
     <use x="769.646484375" xlink:href="#BitstreamVeraSans-Roman-74"/>
     <use x="808.85546875" xlink:href="#BitstreamVeraSans-Roman-69"/>
     <use x="836.638671875" xlink:href="#BitstreamVeraSans-Roman-6f"/>
     <use x="897.8203125" xlink:href="#BitstreamVeraSans-Roman-6e"/>
     <use x="961.19921875" xlink:href="#BitstreamVeraSans-Roman-73"/>
     <use x="1013.29882812" xlink:href="#BitstreamVeraSans-Roman-20"/>
     <use x="1045.0859375" xlink:href="#BitstreamVeraSans-Roman-2d"/>
     <use x="1081.16992188" xlink:href="#BitstreamVeraSans-Roman-20"/>
     <use x="1112.95703125" xlink:href="#BitstreamVeraSans-Roman-67"/>
     <use x="1176.43359375" xlink:href="#BitstreamVeraSans-Roman-65"/>
     <use x="1237.95703125" xlink:href="#BitstreamVeraSans-Roman-6f"/>
     <use x="1299.13867188" xlink:href="#BitstreamVeraSans-Roman-67"/>
     <use x="1362.61523438" xlink:href="#BitstreamVeraSans-Roman-72"/>
     <use x="1403.72851562" xlink:href="#BitstreamVeraSans-Roman-61"/>
     <use x="1465.0078125" xlink:href="#BitstreamVeraSans-Roman-70"/>
     <use x="1528.484375" xlink:href="#BitstreamVeraSans-Roman-68"/>
     <use x="1591.86328125" xlink:href="#BitstreamVeraSans-Roman-69"/>
     <use x="1619.64648438" xlink:href="#BitstreamVeraSans-Roman-63"/>
     <use x="1674.62695312" xlink:href="#BitstreamVeraSans-Roman-2f"/>
     <use x="1708.31835938" xlink:href="#BitstreamVeraSans-Roman-74"/>
     <use x="1747.52734375" xlink:href="#BitstreamVeraSans-Roman-69"/>
     <use x="1775.31054688" xlink:href="#BitstreamVeraSans-Roman-6c"/>
     <use x="1803.09375" xlink:href="#BitstreamVeraSans-Roman-74"/>
     <use x="1842.30273438" xlink:href="#BitstreamVeraSans-Roman-2d"/>
     <use x="1878.38671875" xlink:href="#BitstreamVeraSans-Roman-63"/>
     <use x="1933.3671875" xlink:href="#BitstreamVeraSans-Roman-6f"/>
     <use x="1994.54882812" xlink:href="#BitstreamVeraSans-Roman-72"/>
     <use x="2035.64648438" xlink:href="#BitstreamVeraSans-Roman-72"/>
     <use x="2076.72851562" xlink:href="#BitstreamVeraSans-Roman-65"/>
     <use x="2138.25195312" xlink:href="#BitstreamVeraSans-Roman-63"/>
     <use x="2193.23242188" xlink:href="#BitstreamVeraSans-Roman-74"/>
     <use x="2232.44140625" xlink:href="#BitstreamVeraSans-Roman-65"/>
     <use x="2293.96484375" xlink:href="#BitstreamVeraSans-Roman-64"/>
    </g>
   </g>
   <g id="legend_1">
    <g id="patch_2">
     <path d="M 264.607812 210.083125 
L 404.527812 210.083125 
L 404.527812 44.955625 
L 264.607812 44.955625 
z
" style="fill:#ffffff;stroke:#000000;stroke-linejoin:miter;"/>
    </g>
    <g id="PathCollection_10">
     <path d="M 273.007812 56.841784 
C 273.304319 56.841784 273.58872 56.723981 273.798382 56.514319 
C 274.008043 56.304658 274.125846 56.020256 274.125846 55.72375 
C 274.125846 55.427244 274.008043 55.142842 273.798382 54.933181 
C 273.58872 54.723519 273.304319 54.605716 273.007812 54.605716 
C 272.711306 54.605716 272.426905 54.723519 272.217243 54.933181 
C 272.007582 55.142842 271.889779 55.427244 271.889779 55.72375 
C 271.889779 56.020256 272.007582 56.304658 272.217243 56.514319 
C 272.426905 56.723981 272.711306 56.841784 273.007812 56.841784 
z
" style="fill:#ffffff;stroke:#00008b;"/>
     <path d="M 281.407812 55.791784 
C 281.704319 55.791784 281.98872 55.673981 282.198382 55.464319 
C 282.408043 55.254658 282.525846 54.970256 282.525846 54.67375 
C 282.525846 54.377244 282.408043 54.092842 282.198382 53.883181 
C 281.98872 53.673519 281.704319 53.555716 281.407812 53.555716 
C 281.111306 53.555716 280.826905 53.673519 280.617243 53.883181 
C 280.407582 54.092842 280.289779 54.377244 280.289779 54.67375 
C 280.289779 54.970256 280.407582 55.254658 280.617243 55.464319 
C 280.826905 55.673981 281.111306 55.791784 281.407812 55.791784 
z
" style="fill:#ffffff;stroke:#00008b;"/>
     <path d="M 289.807812 57.366784 
C 290.104319 57.366784 290.38872 57.248981 290.598382 57.039319 
C 290.808043 56.829658 290.925846 56.545256 290.925846 56.24875 
C 290.925846 55.952244 290.808043 55.667842 290.598382 55.458181 
C 290.38872 55.248519 290.104319 55.130716 289.807812 55.130716 
C 289.511306 55.130716 289.226905 55.248519 289.017243 55.458181 
C 288.807582 55.667842 288.689779 55.952244 288.689779 56.24875 
C 288.689779 56.545256 288.807582 56.829658 289.017243 57.039319 
C 289.226905 57.248981 289.511306 57.366784 289.807812 57.366784 
z
" style="fill:#ffffff;stroke:#00008b;"/>
    </g>
    <g id="text_2">
     <!-- Lev10_INT_geo -->
     <defs>
      <path d="M 31.78125 66.40625 
Q 24.171875 66.40625 20.328125 58.90625 
Q 16.5 51.421875 16.5 36.375 
Q 16.5 21.390625 20.328125 13.890625 
Q 24.171875 6.390625 31.78125 6.390625 
Q 39.453125 6.390625 43.28125 13.890625 
Q 47.125 21.390625 47.125 36.375 
Q 47.125 51.421875 43.28125 58.90625 
Q 39.453125 66.40625 31.78125 66.40625 
M 31.78125 74.21875 
Q 44.046875 74.21875 50.515625 64.515625 
Q 56.984375 54.828125 56.984375 36.375 
Q 56.984375 17.96875 50.515625 8.265625 
Q 44.046875 -1.421875 31.78125 -1.421875 
Q 19.53125 -1.421875 13.0625 8.265625 
Q 6.59375 17.96875 6.59375 36.375 
Q 6.59375 54.828125 13.0625 64.515625 
Q 19.53125 74.21875 31.78125 74.21875 
" id="BitstreamVeraSans-Roman-30"/>
      <path d="M 12.40625 8.296875 
L 28.515625 8.296875 
L 28.515625 63.921875 
L 10.984375 60.40625 
L 10.984375 69.390625 
L 28.421875 72.90625 
L 38.28125 72.90625 
L 38.28125 8.296875 
L 54.390625 8.296875 
L 54.390625 0 
L 12.40625 0 
z
" id="BitstreamVeraSans-Roman-31"/>
      <path d="M 9.8125 72.90625 
L 19.671875 72.90625 
L 19.671875 8.296875 
L 55.171875 8.296875 
L 55.171875 0 
L 9.8125 0 
z
" id="BitstreamVeraSans-Roman-4c"/>
      <path d="M 50.984375 -16.609375 
L 50.984375 -23.578125 
L -0.984375 -23.578125 
L -0.984375 -16.609375 
z
" id="BitstreamVeraSans-Roman-5f"/>
      <path d="M 9.8125 72.90625 
L 23.09375 72.90625 
L 55.421875 11.921875 
L 55.421875 72.90625 
L 64.984375 72.90625 
L 64.984375 0 
L 51.703125 0 
L 19.390625 60.984375 
L 19.390625 0 
L 9.8125 0 
z
" id="BitstreamVeraSans-Roman-4e"/>
      <path d="M -0.296875 72.90625 
L 61.375 72.90625 
L 61.375 64.59375 
L 35.5 64.59375 
L 35.5 0 
L 25.59375 0 
L 25.59375 64.59375 
L -0.296875 64.59375 
z
" id="BitstreamVeraSans-Roman-54"/>
      <path d="M 9.8125 72.90625 
L 19.671875 72.90625 
L 19.671875 0 
L 9.8125 0 
z
" id="BitstreamVeraSans-Roman-49"/>
     </defs>
     <g transform="translate(303.0078125 58.87375)scale(0.12 -0.12)">
      <use xlink:href="#BitstreamVeraSans-Roman-4c"/>
      <use x="55.697265625" xlink:href="#BitstreamVeraSans-Roman-65"/>
      <use x="117.220703125" xlink:href="#BitstreamVeraSans-Roman-76"/>
      <use x="176.400390625" xlink:href="#BitstreamVeraSans-Roman-31"/>
      <use x="240.0234375" xlink:href="#BitstreamVeraSans-Roman-30"/>
      <use x="303.646484375" xlink:href="#BitstreamVeraSans-Roman-5f"/>
      <use x="353.646484375" xlink:href="#BitstreamVeraSans-Roman-49"/>
      <use x="383.138671875" xlink:href="#BitstreamVeraSans-Roman-4e"/>
      <use x="457.943359375" xlink:href="#BitstreamVeraSans-Roman-54"/>
      <use x="519.02734375" xlink:href="#BitstreamVeraSans-Roman-5f"/>
      <use x="569.02734375" xlink:href="#BitstreamVeraSans-Roman-67"/>
      <use x="632.50390625" xlink:href="#BitstreamVeraSans-Roman-65"/>
      <use x="694.02734375" xlink:href="#BitstreamVeraSans-Roman-6f"/>
     </g>
    </g>
    <g id="PathCollection_11">
     <path d="M 270.771745 75.907318 
L 275.24388 75.907318 
L 275.24388 71.435182 
L 270.771745 71.435182 
z
" style="fill:#ffffff;stroke:#00008b;"/>
     <path d="M 279.171745 74.857318 
L 283.64388 74.857318 
L 283.64388 70.385182 
L 279.171745 70.385182 
z
" style="fill:#ffffff;stroke:#00008b;"/>
     <path d="M 287.571745 76.432318 
L 292.04388 76.432318 
L 292.04388 71.960182 
L 287.571745 71.960182 
z
" style="fill:#ffffff;stroke:#00008b;"/>
    </g>
    <g id="text_3">
     <!-- Lev10_HT_tc -->
     <defs>
      <path d="M 9.8125 72.90625 
L 19.671875 72.90625 
L 19.671875 43.015625 
L 55.515625 43.015625 
L 55.515625 72.90625 
L 65.375 72.90625 
L 65.375 0 
L 55.515625 0 
L 55.515625 34.71875 
L 19.671875 34.71875 
L 19.671875 0 
L 9.8125 0 
z
" id="BitstreamVeraSans-Roman-48"/>
     </defs>
     <g transform="translate(303.0078125 76.82125)scale(0.12 -0.12)">
      <use xlink:href="#BitstreamVeraSans-Roman-4c"/>
      <use x="55.697265625" xlink:href="#BitstreamVeraSans-Roman-65"/>
      <use x="117.220703125" xlink:href="#BitstreamVeraSans-Roman-76"/>
      <use x="176.400390625" xlink:href="#BitstreamVeraSans-Roman-31"/>
      <use x="240.0234375" xlink:href="#BitstreamVeraSans-Roman-30"/>
      <use x="303.646484375" xlink:href="#BitstreamVeraSans-Roman-5f"/>
      <use x="353.646484375" xlink:href="#BitstreamVeraSans-Roman-48"/>
      <use x="428.841796875" xlink:href="#BitstreamVeraSans-Roman-54"/>
      <use x="489.92578125" xlink:href="#BitstreamVeraSans-Roman-5f"/>
      <use x="539.92578125" xlink:href="#BitstreamVeraSans-Roman-74"/>
      <use x="579.134765625" xlink:href="#BitstreamVeraSans-Roman-63"/>
     </g>
    </g>
    <g id="PathCollection_12">
     <path d="M 273.007812 89.382682 
L 270.771745 93.854818 
L 275.24388 93.854818 
z
" style="fill:#ffffff;stroke:#0000ff;"/>
     <path d="M 281.407812 88.332682 
L 279.171745 92.804818 
L 283.64388 92.804818 
z
" style="fill:#ffffff;stroke:#0000ff;"/>
     <path d="M 289.807812 89.907682 
L 287.571745 94.379818 
L 292.04388 94.379818 
z
" style="fill:#ffffff;stroke:#0000ff;"/>
    </g>
    <g id="text_4">
     <!-- Krav01_INT_geo -->
     <defs>
      <path d="M 9.8125 72.90625 
L 19.671875 72.90625 
L 19.671875 42.09375 
L 52.390625 72.90625 
L 65.09375 72.90625 
L 28.90625 38.921875 
L 67.671875 0 
L 54.6875 0 
L 19.671875 35.109375 
L 19.671875 0 
L 9.8125 0 
z
" id="BitstreamVeraSans-Roman-4b"/>
     </defs>
     <g transform="translate(303.0078125 94.76875)scale(0.12 -0.12)">
      <use xlink:href="#BitstreamVeraSans-Roman-4b"/>
      <use x="65.576171875" xlink:href="#BitstreamVeraSans-Roman-72"/>
      <use x="106.689453125" xlink:href="#BitstreamVeraSans-Roman-61"/>
      <use x="167.96875" xlink:href="#BitstreamVeraSans-Roman-76"/>
      <use x="227.1484375" xlink:href="#BitstreamVeraSans-Roman-30"/>
      <use x="290.771484375" xlink:href="#BitstreamVeraSans-Roman-31"/>
      <use x="354.39453125" xlink:href="#BitstreamVeraSans-Roman-5f"/>
      <use x="404.39453125" xlink:href="#BitstreamVeraSans-Roman-49"/>
      <use x="433.88671875" xlink:href="#BitstreamVeraSans-Roman-4e"/>
      <use x="508.69140625" xlink:href="#BitstreamVeraSans-Roman-54"/>
      <use x="569.775390625" xlink:href="#BitstreamVeraSans-Roman-5f"/>
      <use x="619.775390625" xlink:href="#BitstreamVeraSans-Roman-67"/>
      <use x="683.251953125" xlink:href="#BitstreamVeraSans-Roman-65"/>
      <use x="744.775390625" xlink:href="#BitstreamVeraSans-Roman-6f"/>
     </g>
    </g>
    <g id="PathCollection_13">
     <path d="M 273.007812 111.802318 
L 275.24388 107.330182 
L 270.771745 107.330182 
z
" style="fill:#ffffff;stroke:#0000ff;"/>
     <path d="M 281.407812 110.752318 
L 283.64388 106.280182 
L 279.171745 106.280182 
z
" style="fill:#ffffff;stroke:#0000ff;"/>
     <path d="M 289.807812 112.327318 
L 292.04388 107.855182 
L 287.571745 107.855182 
z
" style="fill:#ffffff;stroke:#0000ff;"/>
    </g>
    <g id="text_5">
     <!-- Krav01_INT_tc -->
     <g transform="translate(303.0078125 112.71625)scale(0.12 -0.12)">
      <use xlink:href="#BitstreamVeraSans-Roman-4b"/>
      <use x="65.576171875" xlink:href="#BitstreamVeraSans-Roman-72"/>
      <use x="106.689453125" xlink:href="#BitstreamVeraSans-Roman-61"/>
      <use x="167.96875" xlink:href="#BitstreamVeraSans-Roman-76"/>
      <use x="227.1484375" xlink:href="#BitstreamVeraSans-Roman-30"/>
      <use x="290.771484375" xlink:href="#BitstreamVeraSans-Roman-31"/>
      <use x="354.39453125" xlink:href="#BitstreamVeraSans-Roman-5f"/>
      <use x="404.39453125" xlink:href="#BitstreamVeraSans-Roman-49"/>
      <use x="433.88671875" xlink:href="#BitstreamVeraSans-Roman-4e"/>
      <use x="508.69140625" xlink:href="#BitstreamVeraSans-Roman-54"/>
      <use x="569.775390625" xlink:href="#BitstreamVeraSans-Roman-5f"/>
      <use x="619.775390625" xlink:href="#BitstreamVeraSans-Roman-74"/>
      <use x="658.984375" xlink:href="#BitstreamVeraSans-Roman-63"/>
     </g>
    </g>
    <g id="PathCollection_14">
     <path d="M 270.771745 127.51375 
L 275.24388 129.749818 
L 275.24388 125.277682 
z
" style="fill:#ffffff;stroke:#0000ff;"/>
     <path d="M 279.171745 126.46375 
L 283.64388 128.699818 
L 283.64388 124.227682 
z
" style="fill:#ffffff;stroke:#0000ff;"/>
     <path d="M 287.571745 128.03875 
L 292.04388 130.274818 
L 292.04388 125.802682 
z
" style="fill:#ffffff;stroke:#0000ff;"/>
    </g>
    <g id="text_6">
     <!-- Krav01_HT_tc -->
     <g transform="translate(303.0078125 130.66375)scale(0.12 -0.12)">
      <use xlink:href="#BitstreamVeraSans-Roman-4b"/>
      <use x="65.576171875" xlink:href="#BitstreamVeraSans-Roman-72"/>
      <use x="106.689453125" xlink:href="#BitstreamVeraSans-Roman-61"/>
      <use x="167.96875" xlink:href="#BitstreamVeraSans-Roman-76"/>
      <use x="227.1484375" xlink:href="#BitstreamVeraSans-Roman-30"/>
      <use x="290.771484375" xlink:href="#BitstreamVeraSans-Roman-31"/>
      <use x="354.39453125" xlink:href="#BitstreamVeraSans-Roman-5f"/>
      <use x="404.39453125" xlink:href="#BitstreamVeraSans-Roman-48"/>
      <use x="479.58984375" xlink:href="#BitstreamVeraSans-Roman-54"/>
      <use x="540.673828125" xlink:href="#BitstreamVeraSans-Roman-5f"/>
      <use x="590.673828125" xlink:href="#BitstreamVeraSans-Roman-74"/>
      <use x="629.8828125" xlink:href="#BitstreamVeraSans-Roman-63"/>
     </g>
    </g>
    <g id="PathCollection_15">
     <path d="M 273.007812 143.225182 
L 270.881185 144.770267 
L 271.693485 147.270267 
L 274.32214 147.270267 
L 275.13444 144.770267 
z
" style="fill:#ffffff;stroke:#00bfbf;"/>
     <path d="M 281.407812 142.175182 
L 279.281185 143.720267 
L 280.093485 146.220267 
L 282.72214 146.220267 
L 283.53444 143.720267 
z
" style="fill:#ffffff;stroke:#00bfbf;"/>
     <path d="M 289.807812 143.750182 
L 287.681185 145.295267 
L 288.493485 147.795267 
L 291.12214 147.795267 
L 291.93444 145.295267 
z
" style="fill:#ffffff;stroke:#00bfbf;"/>
    </g>
    <g id="text_7">
     <!-- Evans96_HT_tc -->
     <defs>
      <path d="M 9.8125 72.90625 
L 55.90625 72.90625 
L 55.90625 64.59375 
L 19.671875 64.59375 
L 19.671875 43.015625 
L 54.390625 43.015625 
L 54.390625 34.71875 
L 19.671875 34.71875 
L 19.671875 8.296875 
L 56.78125 8.296875 
L 56.78125 0 
L 9.8125 0 
z
" id="BitstreamVeraSans-Roman-45"/>
      <path d="M 10.984375 1.515625 
L 10.984375 10.5 
Q 14.703125 8.734375 18.5 7.8125 
Q 22.3125 6.890625 25.984375 6.890625 
Q 35.75 6.890625 40.890625 13.453125 
Q 46.046875 20.015625 46.78125 33.40625 
Q 43.953125 29.203125 39.59375 26.953125 
Q 35.25 24.703125 29.984375 24.703125 
Q 19.046875 24.703125 12.671875 31.3125 
Q 6.296875 37.9375 6.296875 49.421875 
Q 6.296875 60.640625 12.9375 67.421875 
Q 19.578125 74.21875 30.609375 74.21875 
Q 43.265625 74.21875 49.921875 64.515625 
Q 56.59375 54.828125 56.59375 36.375 
Q 56.59375 19.140625 48.40625 8.859375 
Q 40.234375 -1.421875 26.421875 -1.421875 
Q 22.703125 -1.421875 18.890625 -0.6875 
Q 15.09375 0.046875 10.984375 1.515625 
M 30.609375 32.421875 
Q 37.25 32.421875 41.125 36.953125 
Q 45.015625 41.5 45.015625 49.421875 
Q 45.015625 57.28125 41.125 61.84375 
Q 37.25 66.40625 30.609375 66.40625 
Q 23.96875 66.40625 20.09375 61.84375 
Q 16.21875 57.28125 16.21875 49.421875 
Q 16.21875 41.5 20.09375 36.953125 
Q 23.96875 32.421875 30.609375 32.421875 
" id="BitstreamVeraSans-Roman-39"/>
      <path d="M 33.015625 40.375 
Q 26.375 40.375 22.484375 35.828125 
Q 18.609375 31.296875 18.609375 23.390625 
Q 18.609375 15.53125 22.484375 10.953125 
Q 26.375 6.390625 33.015625 6.390625 
Q 39.65625 6.390625 43.53125 10.953125 
Q 47.40625 15.53125 47.40625 23.390625 
Q 47.40625 31.296875 43.53125 35.828125 
Q 39.65625 40.375 33.015625 40.375 
M 52.59375 71.296875 
L 52.59375 62.3125 
Q 48.875 64.0625 45.09375 64.984375 
Q 41.3125 65.921875 37.59375 65.921875 
Q 27.828125 65.921875 22.671875 59.328125 
Q 17.53125 52.734375 16.796875 39.40625 
Q 19.671875 43.65625 24.015625 45.921875 
Q 28.375 48.1875 33.59375 48.1875 
Q 44.578125 48.1875 50.953125 41.515625 
Q 57.328125 34.859375 57.328125 23.390625 
Q 57.328125 12.15625 50.6875 5.359375 
Q 44.046875 -1.421875 33.015625 -1.421875 
Q 20.359375 -1.421875 13.671875 8.265625 
Q 6.984375 17.96875 6.984375 36.375 
Q 6.984375 53.65625 15.1875 63.9375 
Q 23.390625 74.21875 37.203125 74.21875 
Q 40.921875 74.21875 44.703125 73.484375 
Q 48.484375 72.75 52.59375 71.296875 
" id="BitstreamVeraSans-Roman-36"/>
     </defs>
     <g transform="translate(303.0078125 148.61125)scale(0.12 -0.12)">
      <use xlink:href="#BitstreamVeraSans-Roman-45"/>
      <use x="63.18359375" xlink:href="#BitstreamVeraSans-Roman-76"/>
      <use x="122.36328125" xlink:href="#BitstreamVeraSans-Roman-61"/>
      <use x="183.642578125" xlink:href="#BitstreamVeraSans-Roman-6e"/>
      <use x="247.021484375" xlink:href="#BitstreamVeraSans-Roman-73"/>
      <use x="299.12109375" xlink:href="#BitstreamVeraSans-Roman-39"/>
      <use x="362.744140625" xlink:href="#BitstreamVeraSans-Roman-36"/>
      <use x="426.3671875" xlink:href="#BitstreamVeraSans-Roman-5f"/>
      <use x="476.3671875" xlink:href="#BitstreamVeraSans-Roman-48"/>
      <use x="551.5625" xlink:href="#BitstreamVeraSans-Roman-54"/>
      <use x="612.646484375" xlink:href="#BitstreamVeraSans-Roman-5f"/>
      <use x="662.646484375" xlink:href="#BitstreamVeraSans-Roman-74"/>
      <use x="701.85546875" xlink:href="#BitstreamVeraSans-Roman-63"/>
     </g>
    </g>
    <g id="PathCollection_16">
     <path d="M 273.007812 161.172682 
L 270.771745 165.644818 
L 275.24388 165.644818 
z
" style="fill:#ffffff;stroke:#ff0000;"/>
     <path d="M 281.407812 160.122682 
L 279.171745 164.594818 
L 283.64388 164.594818 
z
" style="fill:#ffffff;stroke:#ff0000;"/>
     <path d="M 289.807812 161.697682 
L 287.571745 166.169818 
L 292.04388 166.169818 
z
" style="fill:#ffffff;stroke:#ff0000;"/>
    </g>
    <g id="text_8">
     <!-- Teel_Mag_geo -->
     <defs>
      <path d="M 9.8125 72.90625 
L 24.515625 72.90625 
L 43.109375 23.296875 
L 61.8125 72.90625 
L 76.515625 72.90625 
L 76.515625 0 
L 66.890625 0 
L 66.890625 64.015625 
L 48.09375 14.015625 
L 38.1875 14.015625 
L 19.390625 64.015625 
L 19.390625 0 
L 9.8125 0 
z
" id="BitstreamVeraSans-Roman-4d"/>
     </defs>
     <g transform="translate(303.0078125 166.55875)scale(0.12 -0.12)">
      <use xlink:href="#BitstreamVeraSans-Roman-54"/>
      <use x="60.818359375" xlink:href="#BitstreamVeraSans-Roman-65"/>
      <use x="122.341796875" xlink:href="#BitstreamVeraSans-Roman-65"/>
      <use x="183.865234375" xlink:href="#BitstreamVeraSans-Roman-6c"/>
      <use x="211.6484375" xlink:href="#BitstreamVeraSans-Roman-5f"/>
      <use x="261.6484375" xlink:href="#BitstreamVeraSans-Roman-4d"/>
      <use x="347.927734375" xlink:href="#BitstreamVeraSans-Roman-61"/>
      <use x="409.20703125" xlink:href="#BitstreamVeraSans-Roman-67"/>
      <use x="472.68359375" xlink:href="#BitstreamVeraSans-Roman-5f"/>
      <use x="522.68359375" xlink:href="#BitstreamVeraSans-Roman-67"/>
      <use x="586.16015625" xlink:href="#BitstreamVeraSans-Roman-65"/>
      <use x="647.68359375" xlink:href="#BitstreamVeraSans-Roman-6f"/>
     </g>
    </g>
    <g id="PathCollection_17">
     <path d="M 273.007812 183.592318 
L 275.24388 179.120182 
L 270.771745 179.120182 
z
" style="fill:#ffffff;stroke:#ff0000;"/>
     <path d="M 281.407812 182.542318 
L 283.64388 178.070182 
L 279.171745 178.070182 
z
" style="fill:#ffffff;stroke:#ff0000;"/>
     <path d="M 289.807812 184.117318 
L 292.04388 179.645182 
L 287.571745 179.645182 
z
" style="fill:#ffffff;stroke:#ff0000;"/>
    </g>
    <g id="text_9">
     <!-- Teel_Mag_tc -->
     <g transform="translate(303.0078125 184.50625)scale(0.12 -0.12)">
      <use xlink:href="#BitstreamVeraSans-Roman-54"/>
      <use x="60.818359375" xlink:href="#BitstreamVeraSans-Roman-65"/>
      <use x="122.341796875" xlink:href="#BitstreamVeraSans-Roman-65"/>
      <use x="183.865234375" xlink:href="#BitstreamVeraSans-Roman-6c"/>
      <use x="211.6484375" xlink:href="#BitstreamVeraSans-Roman-5f"/>
      <use x="261.6484375" xlink:href="#BitstreamVeraSans-Roman-4d"/>
      <use x="347.927734375" xlink:href="#BitstreamVeraSans-Roman-61"/>
      <use x="409.20703125" xlink:href="#BitstreamVeraSans-Roman-67"/>
      <use x="472.68359375" xlink:href="#BitstreamVeraSans-Roman-5f"/>
      <use x="522.68359375" xlink:href="#BitstreamVeraSans-Roman-74"/>
      <use x="561.892578125" xlink:href="#BitstreamVeraSans-Roman-63"/>
     </g>
    </g>
    <g id="PathCollection_18">
     <path d="M 273.007812 199.30375 
L 273.007812 201.539818 
M 273.007812 199.30375 
L 274.796667 198.185716 
M 273.007812 199.30375 
L 271.218958 198.185716 
" style="fill:#ff0000;stroke:#ff0000;"/>
     <path d="M 281.407812 198.25375 
L 281.407812 200.489818 
M 281.407812 198.25375 
L 283.196667 197.135716 
M 281.407812 198.25375 
L 279.618958 197.135716 
" style="fill:#ff0000;stroke:#ff0000;"/>
     <path d="M 289.807812 199.82875 
L 289.807812 202.064818 
M 289.807812 199.82875 
L 291.596667 198.710716 
M 289.807812 199.82875 
L 288.018958 198.710716 
" style="fill:#ff0000;stroke:#ff0000;"/>
    </g>
    <g id="text_10">
     <!-- Teel_Hem_geo -->
     <defs>
      <path d="M 52 44.1875 
Q 55.375 50.25 60.0625 53.125 
Q 64.75 56 71.09375 56 
Q 79.640625 56 84.28125 50.015625 
Q 88.921875 44.046875 88.921875 33.015625 
L 88.921875 0 
L 79.890625 0 
L 79.890625 32.71875 
Q 79.890625 40.578125 77.09375 44.375 
Q 74.3125 48.1875 68.609375 48.1875 
Q 61.625 48.1875 57.5625 43.546875 
Q 53.515625 38.921875 53.515625 30.90625 
L 53.515625 0 
L 44.484375 0 
L 44.484375 32.71875 
Q 44.484375 40.625 41.703125 44.40625 
Q 38.921875 48.1875 33.109375 48.1875 
Q 26.21875 48.1875 22.15625 43.53125 
Q 18.109375 38.875 18.109375 30.90625 
L 18.109375 0 
L 9.078125 0 
L 9.078125 54.6875 
L 18.109375 54.6875 
L 18.109375 46.1875 
Q 21.1875 51.21875 25.484375 53.609375 
Q 29.78125 56 35.6875 56 
Q 41.65625 56 45.828125 52.96875 
Q 50 49.953125 52 44.1875 
" id="BitstreamVeraSans-Roman-6d"/>
     </defs>
     <g transform="translate(303.0078125 202.45375)scale(0.12 -0.12)">
      <use xlink:href="#BitstreamVeraSans-Roman-54"/>
      <use x="60.818359375" xlink:href="#BitstreamVeraSans-Roman-65"/>
      <use x="122.341796875" xlink:href="#BitstreamVeraSans-Roman-65"/>
      <use x="183.865234375" xlink:href="#BitstreamVeraSans-Roman-6c"/>
      <use x="211.6484375" xlink:href="#BitstreamVeraSans-Roman-5f"/>
      <use x="261.6484375" xlink:href="#BitstreamVeraSans-Roman-48"/>
      <use x="336.84375" xlink:href="#BitstreamVeraSans-Roman-65"/>
      <use x="398.3671875" xlink:href="#BitstreamVeraSans-Roman-6d"/>
      <use x="495.779296875" xlink:href="#BitstreamVeraSans-Roman-5f"/>
      <use x="545.779296875" xlink:href="#BitstreamVeraSans-Roman-67"/>
      <use x="609.255859375" xlink:href="#BitstreamVeraSans-Roman-65"/>
      <use x="670.779296875" xlink:href="#BitstreamVeraSans-Roman-6f"/>
     </g>
    </g>
   </g>
  </g>
 </g>
 <defs>
  <clipPath id="pa578559357">
   <rect height="397.4" width="381.875" x="35.4828125" y="21.318125"/>
  </clipPath>
 </defs>
</svg>
