<?xml version="1.0" encoding="utf-8" standalone="no"?>
<!DOCTYPE svg PUBLIC "-//W3C//DTD SVG 1.1//EN"
  "http://www.w3.org/Graphics/SVG/1.1/DTD/svg11.dtd">
<!-- Created with matplotlib (http://matplotlib.org/) -->
<svg height="439pt" version="1.1" viewBox="0 0 424 439" width="424pt" xmlns="http://www.w3.org/2000/svg" xmlns:xlink="http://www.w3.org/1999/xlink">
 <defs>
  <style type="text/css">
*{stroke-linecap:butt;stroke-linejoin:round;stroke-miterlimit:100000;}
  </style>
 </defs>
 <g id="figure_1">
  <g id="patch_1">
   <path d="M 0 439.59625 
L 424.557812 439.59625 
L 424.557812 -0 
L 0 -0 
L 0 439.59625 
z
" style="fill:none;"/>
  </g>
  <g id="axes_1">
   <g id="PathCollection_1">
    <defs>
     <path d="M 0 1.118034 
C 0.296506 1.118034 0.580908 1.000231 0.790569 0.790569 
C 1.000231 0.580908 1.118034 0.296506 1.118034 0 
C 1.118034 -0.296506 1.000231 -0.580908 0.790569 -0.790569 
C 0.580908 -1.000231 0.296506 -1.118034 0 -1.118034 
C -0.296506 -1.118034 -0.580908 -1.000231 -0.790569 -0.790569 
C -1.000231 -0.580908 -1.118034 -0.296506 -1.118034 0 
C -1.118034 0.296506 -1.000231 0.580908 -0.790569 0.790569 
C -0.580908 1.000231 -0.296506 1.118034 0 1.118034 
z
" id="m242794f039" style="stroke:#00008b;"/>
    </defs>
    <g clip-path="url(#p06b7185826)">
     <use style="fill:#ffffff;stroke:#00008b;" x="263.819555194" xlink:href="#m242794f039" y="315.924055596"/>
    </g>
   </g>
   <g id="PathCollection_2">
    <defs>
     <path d="M -2.236068 2.236068 
L 2.236068 2.236068 
L 2.236068 -2.236068 
L -2.236068 -2.236068 
z
" id="ma26f0c3590" style="stroke:#00008b;"/>
    </defs>
    <g clip-path="url(#p06b7185826)">
     <use style="fill:#ffffff;stroke:#00008b;" x="192.075266972" xlink:href="#ma26f0c3590" y="176.224560193"/>
    </g>
   </g>
   <g id="PathCollection_3">
    <defs>
     <path d="M 0 -2.236068 
L -2.236068 2.236068 
L 2.236068 2.236068 
z
" id="m3aaf7df81c" style="stroke:#0000ff;"/>
    </defs>
    <g clip-path="url(#p06b7185826)">
     <use style="fill:#ffffff;stroke:#0000ff;" x="204.051269505" xlink:href="#m3aaf7df81c" y="214.317407273"/>
    </g>
   </g>
   <g id="PathCollection_4">
    <defs>
     <path d="M -2.236068 -0 
L 2.236068 2.236068 
L 2.236068 -2.236068 
z
" id="m49c7e73e07" style="stroke:#0000ff;"/>
    </defs>
    <g clip-path="url(#p06b7185826)">
     <use style="fill:#ffffff;stroke:#0000ff;" x="377.490907907" xlink:href="#m49c7e73e07" y="301.34585458"/>
    </g>
   </g>
   <g id="PathCollection_5">
    <defs>
     <path d="M 2.236068 0 
L -2.236068 -2.236068 
L -2.236068 2.236068 
z
" id="m7f2e09f121" style="stroke:#ff0000;"/>
    </defs>
    <g clip-path="url(#p06b7185826)">
     <use style="fill:#ffffff;stroke:#ff0000;" x="127.284659765" xlink:href="#m7f2e09f121" y="285.373664271"/>
    </g>
   </g>
   <g id="PathCollection_6">
    <defs>
     <path d="M 0 0 
L 0 2.236068 
M 0 0 
L 1.788854 -1.118034 
M 0 0 
L -1.788854 -1.118034 
" id="ma1256cfa38" style="stroke:#ff0000;"/>
    </defs>
    <g clip-path="url(#p06b7185826)">
     <use style="fill:#ff0000;stroke:#ff0000;" x="217.722772005" xlink:href="#ma1256cfa38" y="391.677589031"/>
    </g>
   </g>
   <g id="PathCollection_7">
    <defs>
     <path d="M 0 -2.236068 
L -2.126627 -0.690983 
L -1.314328 1.809017 
L 1.314328 1.809017 
L 2.126627 -0.690983 
z
" id="m4032f01e4e" style="stroke:#00bfbf;"/>
    </defs>
    <g clip-path="url(#p06b7185826)">
     <use style="fill:#ffffff;stroke:#00bfbf;" x="197.732301033" xlink:href="#m4032f01e4e" y="166.300429143"/>
    </g>
   </g>
   <g id="line2d_1">
    <path clip-path="url(#p06b7185826)" d="M 226.420312 38.207326 
L 229.59395 38.235016 
L 232.76662 38.31808 
L 239.105195 38.650208 
L 245.428316 39.203304 
L 251.728278 39.976696 
L 257.997407 40.96944 
L 264.228063 42.180328 
L 270.412657 43.607883 
L 276.543653 45.250368 
L 282.613581 47.10578 
L 288.615047 49.171859 
L 294.540738 51.446087 
L 300.383434 53.925695 
L 306.136018 56.607661 
L 311.791481 59.488717 
L 317.342932 62.565354 
L 322.783607 65.833823 
L 328.106879 69.290141 
L 333.306262 72.930099 
L 338.37542 76.74926 
L 343.308178 80.742972 
L 348.098527 84.90637 
L 352.740629 89.234381 
L 357.22883 93.721731 
L 361.55766 98.362955 
L 365.721847 103.152396 
L 369.716316 108.08422 
L 373.5362 113.152418 
L 377.176847 118.350816 
L 380.63382 123.67308 
L 383.902908 129.112725 
L 386.980128 134.663125 
L 389.86173 140.317516 
L 392.544204 146.069011 
L 395.024281 151.910601 
L 397.298941 157.835169 
L 399.365411 163.835498 
L 401.221174 169.904277 
L 402.86397 176.034112 
L 404.291796 182.217534 
L 405.502913 188.447011 
L 406.495845 194.714952 
L 407.269383 201.013722 
L 407.822585 207.335645 
L 408.154775 213.67302 
L 408.265551 220.018125 
L 408.154775 226.36323 
L 407.822585 232.700605 
L 407.269383 239.022528 
L 406.495845 245.321298 
L 405.502913 251.589239 
L 404.291796 257.818716 
L 402.86397 264.002138 
L 401.221174 270.131973 
L 399.365411 276.200752 
L 397.298941 282.201081 
L 395.024281 288.125649 
L 392.544204 293.967239 
L 389.86173 299.718734 
L 386.980128 305.373125 
L 383.902908 310.923525 
L 380.63382 316.36317 
L 377.176847 321.685434 
L 373.5362 326.883832 
L 369.716316 331.95203 
L 365.721847 336.883854 
L 361.55766 341.673295 
L 357.22883 346.314519 
L 352.740629 350.801869 
L 348.098527 355.12988 
L 343.308178 359.293278 
L 338.37542 363.28699 
L 333.306262 367.106151 
L 328.106879 370.746109 
L 322.783607 374.202427 
L 317.342932 377.470896 
L 311.791481 380.547533 
L 306.136018 383.428589 
L 300.383434 386.110555 
L 294.540738 388.590163 
L 288.615047 390.864391 
L 282.613581 392.93047 
L 276.543653 394.785882 
L 270.412657 396.428367 
L 264.228063 397.855922 
L 257.997407 399.06681 
L 251.728278 400.059554 
L 245.428316 400.832946 
L 239.105195 401.386042 
L 232.76662 401.71817 
L 226.420312 401.828924 
L 220.074005 401.71817 
L 213.73543 401.386042 
L 207.412309 400.832946 
L 201.112347 400.059554 
L 194.843218 399.06681 
L 188.612562 397.855922 
L 182.427968 396.428367 
L 176.296972 394.785882 
L 170.227044 392.93047 
L 164.225578 390.864391 
L 158.299887 388.590163 
L 152.457191 386.110555 
L 146.704607 383.428589 
L 141.049144 380.547533 
L 135.497693 377.470896 
L 130.057018 374.202427 
L 124.733746 370.746109 
L 119.534363 367.106151 
L 114.465205 363.28699 
L 109.532447 359.293278 
L 104.742098 355.12988 
L 100.099996 350.801869 
L 95.611795 346.314519 
L 91.282965 341.673295 
L 87.118778 336.883854 
L 83.124309 331.95203 
L 79.304425 326.883832 
L 75.663778 321.685434 
L 72.206805 316.36317 
L 68.937717 310.923525 
L 65.860497 305.373125 
L 62.978895 299.718734 
L 60.296421 293.967239 
L 57.816344 288.125649 
L 55.541684 282.201081 
L 53.475214 276.200752 
L 51.619451 270.131973 
L 49.976655 264.002138 
L 48.548829 257.818716 
L 47.337712 251.589239 
L 46.34478 245.321298 
L 45.571242 239.022528 
L 45.01804 232.700605 
L 44.68585 226.36323 
L 44.575074 220.018125 
L 44.68585 213.67302 
L 45.01804 207.335645 
L 45.571242 201.013722 
L 46.34478 194.714952 
L 47.337712 188.447011 
L 48.548829 182.217534 
L 49.976655 176.034112 
L 51.619451 169.904277 
L 53.475214 163.835498 
L 55.541684 157.835169 
L 57.816344 151.910601 
L 60.296421 146.069011 
L 62.978895 140.317516 
L 65.860497 134.663125 
L 68.937717 129.112725 
L 72.206805 123.67308 
L 75.663778 118.350816 
L 79.304425 113.152418 
L 83.124309 108.08422 
L 87.118778 103.152396 
L 91.282965 98.362955 
L 95.611795 93.721731 
L 100.099996 89.234381 
L 104.742098 84.90637 
L 109.532447 80.742972 
L 114.465205 76.74926 
L 119.534363 72.930099 
L 124.733746 69.290141 
L 130.057018 65.833823 
L 135.497693 62.565354 
L 141.049144 59.488717 
L 146.704607 56.607661 
L 152.457191 53.925695 
L 158.299887 51.446087 
L 164.225578 49.171859 
L 170.227044 47.10578 
L 176.296972 45.250368 
L 182.427968 43.607883 
L 188.612562 42.180328 
L 194.843218 40.96944 
L 201.112347 39.976696 
L 207.412309 39.203304 
L 213.73543 38.650208 
L 220.074005 38.31808 
L 226.420312 38.207326 
L 226.420312 38.207326 
" style="fill:none;stroke:#000000;stroke-linecap:square;"/>
   </g>
   <g id="line2d_2">
    <defs>
     <path d="M -3 0 
L 3 0 
M 0 3 
L 0 -3 
" id="m048e11cbea" style="stroke:#000000;stroke-width:0.5;"/>
    </defs>
    <g clip-path="url(#p06b7185826)">
     <use style="stroke:#000000;stroke-width:0.5;" x="226.4203125" xlink:href="#m048e11cbea" y="54.7450259161"/>
     <use style="stroke:#000000;stroke-width:0.5;" x="226.4203125" xlink:href="#m048e11cbea" y="72.5405542306"/>
     <use style="stroke:#000000;stroke-width:0.5;" x="226.4203125" xlink:href="#m048e11cbea" y="91.4584759081"/>
     <use style="stroke:#000000;stroke-width:0.5;" x="226.4203125" xlink:href="#m048e11cbea" y="111.354814142"/>
     <use style="stroke:#000000;stroke-width:0.5;" x="226.4203125" xlink:href="#m048e11cbea" y="132.078145783"/>
     <use style="stroke:#000000;stroke-width:0.5;" x="226.4203125" xlink:href="#m048e11cbea" y="153.470753767"/>
     <use style="stroke:#000000;stroke-width:0.5;" x="226.4203125" xlink:href="#m048e11cbea" y="175.369827427"/>
     <use style="stroke:#000000;stroke-width:0.5;" x="226.4203125" xlink:href="#m048e11cbea" y="197.608701592"/>
     <use style="stroke:#000000;stroke-width:0.5;" x="226.4203125" xlink:href="#m048e11cbea" y="220.018125"/>
    </g>
   </g>
   <g id="line2d_3">
    <g clip-path="url(#p06b7185826)">
     <use style="stroke:#000000;stroke-width:0.5;" x="391.724717772" xlink:href="#m048e11cbea" y="220.018125"/>
     <use style="stroke:#000000;stroke-width:0.5;" x="373.925818612" xlink:href="#m048e11cbea" y="220.018125"/>
     <use style="stroke:#000000;stroke-width:0.5;" x="355.004313484" xlink:href="#m048e11cbea" y="220.018125"/>
     <use style="stroke:#000000;stroke-width:0.5;" x="335.104206467" xlink:href="#m048e11cbea" y="220.018125"/>
     <use style="stroke:#000000;stroke-width:0.5;" x="314.376949392" xlink:href="#m048e11cbea" y="220.018125"/>
     <use style="stroke:#000000;stroke-width:0.5;" x="292.9802892" xlink:href="#m048e11cbea" y="220.018125"/>
     <use style="stroke:#000000;stroke-width:0.5;" x="271.077067396" xlink:href="#m048e11cbea" y="220.018125"/>
     <use style="stroke:#000000;stroke-width:0.5;" x="248.833980722" xlink:href="#m048e11cbea" y="220.018125"/>
    </g>
   </g>
   <g id="line2d_4">
    <g clip-path="url(#p06b7185826)">
     <use style="stroke:#000000;stroke-width:0.5;" x="226.4203125" xlink:href="#m048e11cbea" y="385.291224084"/>
     <use style="stroke:#000000;stroke-width:0.5;" x="226.4203125" xlink:href="#m048e11cbea" y="367.495695769"/>
     <use style="stroke:#000000;stroke-width:0.5;" x="226.4203125" xlink:href="#m048e11cbea" y="348.577774092"/>
     <use style="stroke:#000000;stroke-width:0.5;" x="226.4203125" xlink:href="#m048e11cbea" y="328.681435858"/>
     <use style="stroke:#000000;stroke-width:0.5;" x="226.4203125" xlink:href="#m048e11cbea" y="307.958104217"/>
     <use style="stroke:#000000;stroke-width:0.5;" x="226.4203125" xlink:href="#m048e11cbea" y="286.565496233"/>
     <use style="stroke:#000000;stroke-width:0.5;" x="226.4203125" xlink:href="#m048e11cbea" y="264.666422573"/>
     <use style="stroke:#000000;stroke-width:0.5;" x="226.4203125" xlink:href="#m048e11cbea" y="242.427548408"/>
    </g>
   </g>
   <g id="line2d_5">
    <g clip-path="url(#p06b7185826)">
     <use style="stroke:#000000;stroke-width:0.5;" x="61.1159072276" xlink:href="#m048e11cbea" y="220.018125"/>
     <use style="stroke:#000000;stroke-width:0.5;" x="78.9148063881" xlink:href="#m048e11cbea" y="220.018125"/>
     <use style="stroke:#000000;stroke-width:0.5;" x="97.8363115164" xlink:href="#m048e11cbea" y="220.018125"/>
     <use style="stroke:#000000;stroke-width:0.5;" x="117.736418533" xlink:href="#m048e11cbea" y="220.018125"/>
     <use style="stroke:#000000;stroke-width:0.5;" x="138.463675608" xlink:href="#m048e11cbea" y="220.018125"/>
     <use style="stroke:#000000;stroke-width:0.5;" x="159.8603358" xlink:href="#m048e11cbea" y="220.018125"/>
     <use style="stroke:#000000;stroke-width:0.5;" x="181.763557604" xlink:href="#m048e11cbea" y="220.018125"/>
     <use style="stroke:#000000;stroke-width:0.5;" x="204.006644278" xlink:href="#m048e11cbea" y="220.018125"/>
    </g>
   </g>
   <g id="line2d_6">
    <path clip-path="url(#p06b7185826)" d="M 226.420312 38.207326 
L 226.420312 39.800827 
L 226.420312 41.408052 
L 226.420312 43.02888 
" style="fill:none;stroke:#000000;stroke-linecap:square;"/>
   </g>
   <g id="line2d_7">
    <path clip-path="url(#p06b7185826)" d="M 257.997407 40.96944 
L 257.720646 42.538733 
L 257.441501 44.121541 
L 257.159994 45.717744 
" style="fill:none;stroke:#000000;stroke-linecap:square;"/>
   </g>
   <g id="line2d_8">
    <path clip-path="url(#p06b7185826)" d="M 288.615047 49.171859 
L 288.069934 50.66926 
L 287.520127 52.179558 
L 286.965666 53.702637 
" style="fill:none;stroke:#000000;stroke-linecap:square;"/>
   </g>
   <g id="line2d_9">
    <path clip-path="url(#p06b7185826)" d="M 317.342932 62.565354 
L 316.54603 63.945367 
L 315.742265 65.337265 
L 314.931698 66.740942 
" style="fill:none;stroke:#000000;stroke-linecap:square;"/>
   </g>
   <g id="line2d_10">
    <path clip-path="url(#p06b7185826)" d="M 343.308178 80.742972 
L 342.283702 81.963665 
L 341.250401 83.194871 
L 340.208356 84.436497 
" style="fill:none;stroke:#000000;stroke-linecap:square;"/>
   </g>
   <g id="line2d_11">
    <path clip-path="url(#p06b7185826)" d="M 365.721847 103.152396 
L 364.500923 104.176679 
L 363.269483 105.209783 
L 362.027622 106.251631 
" style="fill:none;stroke:#000000;stroke-linecap:square;"/>
   </g>
   <g id="line2d_12">
    <path clip-path="url(#p06b7185826)" d="M 383.902908 129.112725 
L 382.522634 129.909476 
L 381.130473 130.713089 
L 379.726529 131.523502 
" style="fill:none;stroke:#000000;stroke-linecap:square;"/>
   </g>
   <g id="line2d_13">
    <path clip-path="url(#p06b7185826)" d="M 397.298941 157.835169 
L 395.801256 158.380179 
L 394.290672 158.929882 
L 392.767304 159.484238 
" style="fill:none;stroke:#000000;stroke-linecap:square;"/>
   </g>
   <g id="line2d_14">
    <path clip-path="url(#p06b7185826)" d="M 405.502913 188.447011 
L 403.933323 188.72372 
L 402.350215 189.002811 
L 400.75371 189.284265 
" style="fill:none;stroke:#000000;stroke-linecap:square;"/>
   </g>
   <g id="line2d_15">
    <path clip-path="url(#p06b7185826)" d="M 408.265551 220.018125 
L 406.671748 220.018125 
L 405.064218 220.018125 
L 403.443083 220.018125 
" style="fill:none;stroke:#000000;stroke-linecap:square;"/>
   </g>
   <g id="line2d_16">
    <path clip-path="url(#p06b7185826)" d="M 405.502913 251.589239 
L 403.933323 251.31253 
L 402.350215 251.033439 
L 400.75371 250.751985 
" style="fill:none;stroke:#000000;stroke-linecap:square;"/>
   </g>
   <g id="line2d_17">
    <path clip-path="url(#p06b7185826)" d="M 397.298941 282.201081 
L 395.801256 281.656071 
L 394.290672 281.106368 
L 392.767304 280.552012 
" style="fill:none;stroke:#000000;stroke-linecap:square;"/>
   </g>
   <g id="line2d_18">
    <path clip-path="url(#p06b7185826)" d="M 383.902908 310.923525 
L 382.522634 310.126774 
L 381.130473 309.323161 
L 379.726529 308.512748 
" style="fill:none;stroke:#000000;stroke-linecap:square;"/>
   </g>
   <g id="line2d_19">
    <path clip-path="url(#p06b7185826)" d="M 365.721847 336.883854 
L 364.500923 335.859571 
L 363.269483 334.826467 
L 362.027622 333.784619 
" style="fill:none;stroke:#000000;stroke-linecap:square;"/>
   </g>
   <g id="line2d_20">
    <path clip-path="url(#p06b7185826)" d="M 343.308178 359.293278 
L 342.283702 358.072585 
L 341.250401 356.841379 
L 340.208356 355.599753 
" style="fill:none;stroke:#000000;stroke-linecap:square;"/>
   </g>
   <g id="line2d_21">
    <path clip-path="url(#p06b7185826)" d="M 317.342932 377.470896 
L 316.54603 376.090883 
L 315.742265 374.698985 
L 314.931698 373.295308 
" style="fill:none;stroke:#000000;stroke-linecap:square;"/>
   </g>
   <g id="line2d_22">
    <path clip-path="url(#p06b7185826)" d="M 288.615047 390.864391 
L 288.069934 389.36699 
L 287.520127 387.856692 
L 286.965666 386.333613 
" style="fill:none;stroke:#000000;stroke-linecap:square;"/>
   </g>
   <g id="line2d_23">
    <path clip-path="url(#p06b7185826)" d="M 257.997407 399.06681 
L 257.720646 397.497517 
L 257.441501 395.914709 
L 257.159994 394.318506 
" style="fill:none;stroke:#000000;stroke-linecap:square;"/>
   </g>
   <g id="line2d_24">
    <path clip-path="url(#p06b7185826)" d="M 226.420312 401.828924 
L 226.420312 400.235423 
L 226.420312 398.628198 
L 226.420312 397.00737 
" style="fill:none;stroke:#000000;stroke-linecap:square;"/>
   </g>
   <g id="line2d_25">
    <path clip-path="url(#p06b7185826)" d="M 194.843218 399.06681 
L 195.119979 397.497517 
L 195.399124 395.914709 
L 195.680631 394.318506 
" style="fill:none;stroke:#000000;stroke-linecap:square;"/>
   </g>
   <g id="line2d_26">
    <path clip-path="url(#p06b7185826)" d="M 164.225578 390.864391 
L 164.770691 389.36699 
L 165.320498 387.856692 
L 165.874959 386.333613 
" style="fill:none;stroke:#000000;stroke-linecap:square;"/>
   </g>
   <g id="line2d_27">
    <path clip-path="url(#p06b7185826)" d="M 135.497693 377.470896 
L 136.294595 376.090883 
L 137.09836 374.698985 
L 137.908927 373.295308 
" style="fill:none;stroke:#000000;stroke-linecap:square;"/>
   </g>
   <g id="line2d_28">
    <path clip-path="url(#p06b7185826)" d="M 109.532447 359.293278 
L 110.556923 358.072585 
L 111.590224 356.841379 
L 112.632269 355.599753 
" style="fill:none;stroke:#000000;stroke-linecap:square;"/>
   </g>
   <g id="line2d_29">
    <path clip-path="url(#p06b7185826)" d="M 87.118778 336.883854 
L 88.339702 335.859571 
L 89.571142 334.826467 
L 90.813003 333.784619 
" style="fill:none;stroke:#000000;stroke-linecap:square;"/>
   </g>
   <g id="line2d_30">
    <path clip-path="url(#p06b7185826)" d="M 68.937717 310.923525 
L 70.317991 310.126774 
L 71.710152 309.323161 
L 73.114096 308.512748 
" style="fill:none;stroke:#000000;stroke-linecap:square;"/>
   </g>
   <g id="line2d_31">
    <path clip-path="url(#p06b7185826)" d="M 55.541684 282.201081 
L 57.039369 281.656071 
L 58.549953 281.106368 
L 60.073321 280.552012 
" style="fill:none;stroke:#000000;stroke-linecap:square;"/>
   </g>
   <g id="line2d_32">
    <path clip-path="url(#p06b7185826)" d="M 47.337712 251.589239 
L 48.907302 251.31253 
L 50.49041 251.033439 
L 52.086915 250.751985 
" style="fill:none;stroke:#000000;stroke-linecap:square;"/>
   </g>
   <g id="line2d_33">
    <path clip-path="url(#p06b7185826)" d="M 44.575074 220.018125 
L 46.168877 220.018125 
L 47.776407 220.018125 
L 49.397542 220.018125 
" style="fill:none;stroke:#000000;stroke-linecap:square;"/>
   </g>
   <g id="line2d_34">
    <path clip-path="url(#p06b7185826)" d="M 47.337712 188.447011 
L 48.907302 188.72372 
L 50.49041 189.002811 
L 52.086915 189.284265 
" style="fill:none;stroke:#000000;stroke-linecap:square;"/>
   </g>
   <g id="line2d_35">
    <path clip-path="url(#p06b7185826)" d="M 55.541684 157.835169 
L 57.039369 158.380179 
L 58.549953 158.929882 
L 60.073321 159.484238 
" style="fill:none;stroke:#000000;stroke-linecap:square;"/>
   </g>
   <g id="line2d_36">
    <path clip-path="url(#p06b7185826)" d="M 68.937717 129.112725 
L 70.317991 129.909476 
L 71.710152 130.713089 
L 73.114096 131.523502 
" style="fill:none;stroke:#000000;stroke-linecap:square;"/>
   </g>
   <g id="line2d_37">
    <path clip-path="url(#p06b7185826)" d="M 87.118778 103.152396 
L 88.339702 104.176679 
L 89.571142 105.209783 
L 90.813003 106.251631 
" style="fill:none;stroke:#000000;stroke-linecap:square;"/>
   </g>
   <g id="line2d_38">
    <path clip-path="url(#p06b7185826)" d="M 109.532447 80.742972 
L 110.556923 81.963665 
L 111.590224 83.194871 
L 112.632269 84.436497 
" style="fill:none;stroke:#000000;stroke-linecap:square;"/>
   </g>
   <g id="line2d_39">
    <path clip-path="url(#p06b7185826)" d="M 135.497693 62.565354 
L 136.294595 63.945367 
L 137.09836 65.337265 
L 137.908927 66.740942 
" style="fill:none;stroke:#000000;stroke-linecap:square;"/>
   </g>
   <g id="line2d_40">
    <path clip-path="url(#p06b7185826)" d="M 164.225578 49.171859 
L 164.770691 50.66926 
L 165.320498 52.179558 
L 165.874959 53.702637 
" style="fill:none;stroke:#000000;stroke-linecap:square;"/>
   </g>
   <g id="line2d_41">
    <path clip-path="url(#p06b7185826)" d="M 194.843218 40.96944 
L 195.119979 42.538733 
L 195.399124 44.121541 
L 195.680631 45.717744 
" style="fill:none;stroke:#000000;stroke-linecap:square;"/>
   </g>
   <g id="line2d_42">
    <path clip-path="url(#p06b7185826)" d="M 205.374858 330.508834 
L 206.29052 333.518135 
L 207.43523 336.469257 
L 208.808612 339.349392 
L 210.409297 342.145511 
L 212.234855 344.84442 
L 214.281733 347.432829 
L 216.545192 349.897424 
L 219.019254 352.224954 
L 221.696646 354.40233 
L 224.568771 356.416728 
L 227.625675 358.255712 
L 230.856035 359.907354 
L 234.247162 361.360369 
L 237.785026 362.604251 
L 241.454294 363.629415 
L 245.238396 364.427333 
L 249.119607 364.990674 
L 253.079162 365.313428 
L 257.09738 365.391027 
L 261.153818 365.220451 
L 265.227442 364.800307 
L 269.296815 364.130903 
L 273.340293 363.214281 
L 277.33624 362.054237 
L 281.263235 360.656308 
L 285.100288 359.027734 
L 288.827048 357.177391 
L 292.423998 355.115699 
L 295.872641 352.854507 
L 299.155662 350.406957 
L 302.257075 347.787332 
L 305.162339 345.010891 
L 307.85845 342.093693 
L 310.334015 339.052419 
L 312.579287 335.904191 
L 314.586184 332.666402 
L 316.348282 329.356542 
L 317.860783 325.992044 
L 319.120473 322.590136 
L 320.125651 319.167713 
L 320.876058 315.741216 
L 321.372787 312.326537 
L 321.618189 308.938933 
L 321.615773 305.592961 
L 321.370111 302.30242 
L 320.886725 299.080319 
L 320.172001 295.938844 
L 319.23308 292.889352 
L 318.077776 289.942359 
L 316.714482 287.10755 
L 315.152094 284.393787 
L 313.399933 281.809129 
L 311.467676 279.360857 
L 309.3653 277.055492 
L 307.103016 274.898834 
L 304.69123 272.895983 
L 302.140492 271.051377 
L 299.461458 269.368822 
L 296.66486 267.85152 
L 293.761471 266.502104 
L 290.762087 265.322666 
L 287.677499 264.314786 
L 284.518476 263.479555 
L 281.295753 262.817607 
L 278.020016 262.329137 
L 274.701888 262.013923 
L 271.351925 261.871348 
L 267.980607 261.900416 
L 264.598329 262.099767 
L 261.215399 262.467695 
L 257.842031 263.002152 
L 254.488341 263.70077 
L 251.164348 264.560857 
L 247.879961 265.579416 
L 244.644986 266.753142 
L 241.469113 268.078429 
L 238.361917 269.551371 
L 235.332851 271.167769 
L 232.391244 272.92312 
L 229.546287 274.812627 
L 226.807033 276.831188 
L 224.182387 278.973395 
L 221.68109 281.23353 
L 219.311717 283.605559 
L 217.082653 286.083122 
L 215.002089 288.659532 
L 213.077994 291.32776 
L 211.318101 294.080433 
L 209.729884 296.909819 
L 208.32053 299.807826 
L 207.096915 302.765989 
L 206.065566 305.775462 
L 205.232634 308.827017 
L 204.603849 311.911032 
L 204.184479 315.017495 
L 203.979285 318.136001 
L 203.992473 321.255752 
L 204.227636 324.365568 
L 204.687699 327.453898 
L 205.374858 330.508834 
" style="fill:none;stroke:#00008b;stroke-linecap:square;"/>
   </g>
   <g id="line2d_43">
    <path clip-path="url(#p06b7185826)" d="M 211.855343 161.65853 
L 210.934794 160.511401 
L 209.938999 159.425654 
L 208.871618 158.405845 
L 207.736631 157.4563 
L 206.538322 156.581094 
L 205.281268 155.784032 
L 203.970321 155.068629 
L 202.610595 154.438085 
L 201.207445 153.895272 
L 199.766444 153.442715 
L 198.293367 153.082575 
L 196.794162 152.816632 
L 195.274926 152.646278 
L 193.741878 152.572498 
L 192.201335 152.595867 
L 190.659675 152.716541 
L 189.123314 152.934249 
L 187.598673 153.248293 
L 186.092146 153.657551 
L 184.610068 154.16047 
L 183.158687 154.755082 
L 181.744128 155.439002 
L 180.372364 156.209445 
L 179.049187 157.063231 
L 177.780177 157.996809 
L 176.570675 159.006265 
L 175.425754 160.087348 
L 174.350198 161.235486 
L 173.348474 162.445815 
L 172.424714 163.713199 
L 171.582694 165.032259 
L 170.825818 166.397401 
L 170.157102 167.802842 
L 169.579165 169.242641 
L 169.094215 170.710732 
L 168.704045 172.200949 
L 168.410025 173.707061 
L 168.213105 175.222799 
L 168.11381 176.741889 
L 168.112243 178.258079 
L 168.208092 179.765169 
L 168.400638 181.257038 
L 168.688757 182.72767 
L 169.070937 184.171181 
L 169.545287 185.581845 
L 170.109554 186.954109 
L 170.761133 188.282623 
L 171.497086 189.562256 
L 172.314161 190.788111 
L 173.208807 191.955547 
L 174.177195 193.060191 
L 175.215237 194.09795 
L 176.318607 195.065025 
L 177.482757 195.95792 
L 178.702944 196.773451 
L 179.974246 197.508753 
L 181.291585 198.161285 
L 182.649745 198.728835 
L 184.043395 199.209524 
L 185.467109 199.601807 
L 186.915385 199.904473 
L 188.382663 200.116649 
L 189.863349 200.237792 
L 191.35183 200.267693 
L 192.842491 200.206471 
L 194.329741 200.054568 
L 195.808019 199.81275 
L 197.271823 199.482094 
L 198.715719 199.06399 
L 200.134358 198.560128 
L 201.522496 197.972494 
L 202.875006 197.303363 
L 204.186896 196.555287 
L 205.453318 195.731093 
L 206.669591 194.833866 
L 207.831205 193.866945 
L 208.933844 192.833909 
L 209.973393 191.738571 
L 210.945951 190.58496 
L 211.847848 189.377317 
L 212.675652 188.120077 
L 213.426181 186.817858 
L 214.096519 185.47545 
L 214.684021 184.097796 
L 215.186325 182.689985 
L 215.601364 181.25723 
L 215.927374 179.804857 
L 216.162898 178.338288 
L 216.306803 176.863022 
L 216.358279 175.384622 
L 216.316851 173.908694 
L 216.182381 172.440868 
L 215.955076 170.986783 
L 215.63549 169.552062 
L 215.224526 168.142296 
L 214.723441 166.763024 
L 214.133844 165.419706 
L 213.457697 164.11771 
L 212.697311 162.862282 
L 211.855343 161.65853 
" style="fill:none;stroke:#00008b;stroke-linecap:square;"/>
   </g>
   <g id="line2d_44">
    <path clip-path="url(#p06b7185826)" d="M 206.781024 203.856809 
L 206.123646 203.70865 
L 205.458005 203.602367 
L 204.786728 203.538409 
L 204.112463 203.51706 
L 203.437879 203.538433 
L 202.765646 203.602474 
L 202.098429 203.708957 
L 201.438879 203.857488 
L 200.789617 204.047504 
L 200.153228 204.278277 
L 199.532246 204.548913 
L 198.929151 204.858359 
L 198.34635 205.205407 
L 197.786172 205.588693 
L 197.250859 206.006709 
L 196.742553 206.457805 
L 196.263292 206.940198 
L 195.814995 207.451976 
L 195.399461 207.991109 
L 195.018356 208.555453 
L 194.67321 209.142764 
L 194.365406 209.750702 
L 194.096179 210.376846 
L 193.866608 211.018697 
L 193.677611 211.673696 
L 193.529945 212.339227 
L 193.424197 213.012635 
L 193.360788 213.691231 
L 193.339964 214.372306 
L 193.361802 215.053142 
L 193.426208 215.731024 
L 193.532912 216.403248 
L 193.681479 217.067136 
L 193.871301 217.720044 
L 194.101607 218.359375 
L 194.371464 218.982587 
L 194.67978 219.587207 
L 195.02531 220.170838 
L 195.40666 220.731169 
L 195.822295 221.265985 
L 196.270544 221.773176 
L 196.749609 222.250745 
L 197.257569 222.696814 
L 197.792391 223.109635 
L 198.351939 223.487593 
L 198.933979 223.829216 
L 199.536193 224.133175 
L 200.156185 224.398296 
L 200.791493 224.623557 
L 201.439596 224.808098 
L 202.097928 224.951219 
L 202.763886 225.052384 
L 203.434839 225.111226 
L 204.108142 225.127542 
L 204.781143 225.101296 
L 205.451197 225.032622 
L 206.115672 224.921818 
L 206.771962 224.769345 
L 207.417497 224.57583 
L 208.04975 224.342055 
L 208.666252 224.068961 
L 209.264595 223.75764 
L 209.842446 223.409331 
L 210.397553 223.025416 
L 210.927757 222.607414 
L 211.430993 222.156974 
L 211.905306 221.675869 
L 212.348853 221.165991 
L 212.759911 220.629341 
L 213.136884 220.068022 
L 213.478308 219.484231 
L 213.782858 218.880251 
L 214.04935 218.258444 
L 214.276749 217.621238 
L 214.464171 216.97112 
L 214.610883 216.310627 
L 214.716314 215.642337 
L 214.780049 214.968858 
L 214.801834 214.292816 
L 214.781578 213.616852 
L 214.719352 212.943603 
L 214.615389 212.275701 
L 214.470083 211.615754 
L 214.283989 210.966346 
L 214.057819 210.330018 
L 213.792441 209.709263 
L 213.488878 209.106517 
L 213.148299 208.524148 
L 212.772019 207.964445 
L 212.361494 207.429615 
L 211.918313 206.921768 
L 211.444197 206.442911 
L 210.940987 205.994941 
L 210.41064 205.579638 
L 209.855224 205.198655 
L 209.276906 204.853512 
L 208.677946 204.545594 
L 208.060688 204.276137 
L 207.427552 204.04623 
L 206.781024 203.856809 
" style="fill:none;stroke:#0000ff;stroke-linecap:square;"/>
   </g>
   <g id="line2d_45">
    <path clip-path="url(#p06b7185826)" d="M 342.930994 346.730014 
L 344.41673 347.999654 
L 346.042405 349.099996 
L 347.805793 350.022014 
L 349.703788 350.756824 
L 351.732317 351.29576 
L 351.941935 349.6229 
L 351.817341 347.344211 
L 351.825803 344.962386 
L 351.962741 342.485721 
L 352.223487 339.922314 
L 352.603324 337.280078 
L 353.097511 334.56676 
L 353.701314 331.789958 
L 354.410018 328.957139 
L 355.21895 326.075653 
L 356.123488 323.152755 
L 357.119076 320.195614 
L 358.201227 317.211334 
L 359.365531 314.206966 
L 360.607662 311.189521 
L 361.923374 308.165985 
L 363.308509 305.143331 
L 364.758992 302.128529 
L 366.270832 299.12856 
L 367.840118 296.150424 
L 369.463018 293.20115 
L 371.135771 290.287807 
L 372.854686 287.417514 
L 374.61613 284.597443 
L 376.416526 281.834833 
L 378.252342 279.136995 
L 380.120081 276.511315 
L 382.016269 273.965266 
L 383.937447 271.50641 
L 385.880154 269.142402 
L 387.84091 266.880992 
L 389.816204 264.730032 
L 391.802468 262.697468 
L 393.796064 260.791345 
L 395.793254 259.0198 
L 397.790179 257.391051 
L 399.782827 255.913394 
L 401.767007 254.595182 
L 403.738313 253.444805 
L 405.01977 252.348962 
L 403.453089 250.952443 
L 401.79471 249.772705 
L 400.054107 248.808377 
L 398.240412 248.05716 
L 396.362386 247.515942 
L 394.428413 247.180906 
L 392.446492 247.047621 
L 390.424248 247.111137 
L 388.368941 247.366059 
L 386.28748 247.806624 
L 384.186443 248.426756 
L 382.072096 249.220127 
L 379.950418 250.180202 
L 377.827118 251.30028 
L 375.707663 252.57353 
L 373.5973 253.993016 
L 371.501073 255.551731 
L 369.423847 257.242606 
L 367.370329 259.058537 
L 365.345083 260.992393 
L 363.352549 263.037026 
L 361.397058 265.185283 
L 359.482849 267.430009 
L 357.614078 269.764051 
L 355.794833 272.180263 
L 354.029144 274.671503 
L 352.320994 277.230636 
L 350.674321 279.850531 
L 349.093034 282.524057 
L 347.581012 285.244085 
L 346.142112 288.003477 
L 344.780169 290.795086 
L 343.499003 293.611748 
L 342.302416 296.446278 
L 341.194193 299.291459 
L 340.178101 302.140042 
L 339.257884 304.984732 
L 338.43726 307.818181 
L 337.719912 310.632983 
L 337.109483 313.421662 
L 336.609561 316.176665 
L 336.223669 318.890351 
L 335.955251 321.554984 
L 335.807648 324.162725 
L 335.784082 326.705624 
L 335.88763 329.17561 
L 336.121194 331.564488 
L 336.487468 333.863935 
L 336.988906 336.065494 
L 337.627672 338.160579 
L 338.405603 340.140475 
L 339.324148 341.996349 
L 340.384318 343.719259 
L 341.586621 345.300177 
L 342.930994 346.730014 
" style="fill:none;stroke:#0000ff;stroke-linecap:square;"/>
   </g>
   <g id="line2d_46">
    <path clip-path="url(#p06b7185826)" d="M 120.760343 274.835941 
L 120.252741 275.179115 
L 119.772512 275.562931 
L 119.321682 275.986033 
L 118.902179 276.446893 
L 118.515819 276.943818 
L 118.164304 277.47495 
L 117.849206 278.038273 
L 117.571959 278.631622 
L 117.333854 279.252687 
L 117.136025 279.899022 
L 116.979446 280.568057 
L 116.864924 281.257103 
L 116.793087 281.963371 
L 116.764386 282.683974 
L 116.779084 283.41595 
L 116.837257 284.156266 
L 116.938788 284.901842 
L 117.083368 285.649557 
L 117.270493 286.39627 
L 117.499467 287.138832 
L 117.769402 287.874104 
L 118.079224 288.598973 
L 118.427673 289.310367 
L 118.813311 290.005271 
L 119.234531 290.680741 
L 119.689561 291.333922 
L 120.176473 291.96206 
L 120.693196 292.562519 
L 121.237523 293.132789 
L 121.807127 293.670504 
L 122.399569 294.173449 
L 123.012312 294.639571 
L 123.642738 295.06699 
L 124.288155 295.454007 
L 124.945819 295.799107 
L 125.61294 296.10097 
L 126.286705 296.358471 
L 126.964282 296.570684 
L 127.642845 296.736886 
L 128.319578 296.856558 
L 128.991693 296.929379 
L 129.656443 296.955233 
L 130.311134 296.934199 
L 130.953132 296.866552 
L 131.579883 296.752759 
L 132.188914 296.593469 
L 132.777847 296.389514 
L 133.34441 296.141896 
L 133.886438 295.851786 
L 134.401887 295.52051 
L 134.888836 295.149547 
L 135.345495 294.740517 
L 135.77021 294.295173 
L 136.161464 293.815393 
L 136.517882 293.303168 
L 136.838237 292.760599 
L 137.121447 292.189881 
L 137.366578 291.593296 
L 137.572848 290.973208 
L 137.739622 290.332045 
L 137.866416 289.6723 
L 137.952895 288.996514 
L 137.99887 288.30727 
L 138.004302 287.607184 
L 137.969294 286.8989 
L 137.894091 286.185072 
L 137.77908 285.468368 
L 137.624784 284.75145 
L 137.431859 284.036975 
L 137.201096 283.327583 
L 136.93341 282.625887 
L 136.629842 281.934472 
L 136.291552 281.255881 
L 135.919817 280.592611 
L 135.516027 279.947106 
L 135.081677 279.321746 
L 134.618369 278.718847 
L 134.1278 278.140646 
L 133.611764 277.589301 
L 133.072142 277.066881 
L 132.510898 276.575359 
L 131.930075 276.116607 
L 131.33179 275.692391 
L 130.718224 275.30436 
L 130.091622 274.954045 
L 129.45428 274.642851 
L 128.808545 274.372049 
L 128.156805 274.142777 
L 127.50148 273.956027 
L 126.845021 273.812645 
L 126.189895 273.713323 
L 125.538584 273.658598 
L 124.89357 273.648845 
L 124.257335 273.684274 
L 123.632345 273.764927 
L 123.021044 273.890675 
L 122.425846 274.061216 
L 121.849124 274.276073 
L 121.293202 274.534591 
L 120.760343 274.835941 
" style="fill:none;stroke:#ff0000;stroke-linecap:square;"/>
   </g>
   <g id="line2d_47">
    <path clip-path="url(#p06b7185826)" d="M 189.318896 387.99065 
L 189.191503 388.97353 
L 189.176198 389.971266 
L 189.27464 390.980074 
L 189.488062 391.995966 
L 189.817243 393.014763 
L 190.262478 394.032107 
L 190.823544 395.043479 
L 191.49968 396.044216 
L 192.289553 397.02954 
L 193.19124 397.994581 
L 194.202208 398.934414 
L 195.552813 398.493914 
L 196.978527 398.059079 
L 198.467758 397.665674 
L 200.015205 397.314095 
L 201.615512 397.004642 
L 203.263284 396.737534 
L 204.953087 396.512913 
L 206.679458 396.330854 
L 208.43691 396.19137 
L 210.219936 396.09442 
L 212.023015 396.03991 
L 213.840614 396.027704 
L 215.667193 396.057619 
L 217.497209 396.129434 
L 219.325114 396.242886 
L 221.145366 396.397677 
L 222.952427 396.593466 
L 224.740766 396.829874 
L 226.504865 397.10648 
L 228.239221 397.422818 
L 229.938353 397.778373 
L 231.596801 398.172576 
L 233.20914 398.604803 
L 234.769977 399.074362 
L 236.273965 399.580492 
L 237.715809 400.12235 
L 239.090273 400.699009 
L 240.38944 401.273715 
L 241.490227 400.440839 
L 242.48484 399.571842 
L 243.370262 398.671369 
L 244.144086 397.744069 
L 244.804505 396.794564 
L 245.350289 395.827413 
L 245.78076 394.847091 
L 246.095771 393.857964 
L 246.295675 392.864266 
L 246.381295 391.870091 
L 246.353899 390.879372 
L 246.215165 389.895876 
L 245.967152 388.923196 
L 245.612275 387.964746 
L 245.153272 387.023762 
L 244.593178 386.103296 
L 243.9353 385.206223 
L 243.183191 384.335239 
L 242.340628 383.492869 
L 241.411589 382.681471 
L 240.400234 381.903238 
L 239.310885 381.160207 
L 238.148011 380.454264 
L 236.916209 379.787153 
L 235.620192 379.160476 
L 234.264774 378.575707 
L 232.854859 378.034191 
L 231.395429 377.537154 
L 229.891535 377.085707 
L 228.348288 376.680849 
L 226.770847 376.323475 
L 225.164415 376.014376 
L 223.53423 375.754244 
L 221.885561 375.543676 
L 220.223697 375.383174 
L 218.553943 375.273144 
L 216.881615 375.213903 
L 215.212036 375.205674 
L 213.550523 375.248587 
L 211.902392 375.342678 
L 210.272941 375.487885 
L 208.667453 375.68405 
L 207.091185 375.93091 
L 205.54936 376.228097 
L 204.047163 376.575133 
L 202.589732 376.971423 
L 201.182147 377.416251 
L 199.829423 377.908773 
L 198.536498 378.448012 
L 197.308223 379.032847 
L 196.149349 379.662009 
L 195.064511 380.334074 
L 194.058216 381.047451 
L 193.134823 381.800378 
L 192.29853 382.590912 
L 191.553347 383.416923 
L 190.903084 384.276086 
L 190.35132 385.165877 
L 189.901385 386.083564 
L 189.556328 387.026206 
L 189.318896 387.99065 
" style="fill:none;stroke:#ff0000;stroke-linecap:square;"/>
   </g>
   <g id="line2d_48">
    <path clip-path="url(#p06b7185826)" d="M 207.17327 161.430561 
L 206.863842 160.88181 
L 206.518223 160.354296 
L 206.137716 159.850148 
L 205.723766 159.37141 
L 205.277959 158.920031 
L 204.802013 158.497857 
L 204.297774 158.106625 
L 203.76721 157.747953 
L 203.212401 157.423331 
L 202.635531 157.134118 
L 202.038885 156.881531 
L 201.424832 156.666641 
L 200.795822 156.49037 
L 200.154371 156.353482 
L 199.503054 156.256579 
L 198.844493 156.200101 
L 198.181345 156.184322 
L 197.516294 156.209347 
L 196.852032 156.275111 
L 196.191256 156.381379 
L 195.53665 156.527747 
L 194.890877 156.713643 
L 194.256563 156.938329 
L 193.636291 157.200905 
L 193.032584 157.500309 
L 192.447897 157.835328 
L 191.884606 158.204597 
L 191.344994 158.60661 
L 190.831247 159.039722 
L 190.34544 159.502163 
L 189.889529 159.992037 
L 189.465344 160.50734 
L 189.07458 161.045962 
L 188.718788 161.6057 
L 188.399374 162.184268 
L 188.11759 162.779307 
L 187.874527 163.388392 
L 187.671118 164.00905 
L 187.508126 164.638764 
L 187.38615 165.274987 
L 187.305618 165.915154 
L 187.266786 166.55669 
L 187.269743 167.197025 
L 187.314407 167.8336 
L 187.400527 168.463883 
L 187.527686 169.085372 
L 187.695307 169.695612 
L 187.902651 170.292203 
L 188.148823 170.872806 
L 188.43278 171.435156 
L 188.75333 171.977066 
L 189.109145 172.496441 
L 189.498762 172.99128 
L 189.92059 173.459688 
L 190.372922 173.899876 
L 190.853934 174.310176 
L 191.361702 174.689037 
L 191.894202 175.035037 
L 192.449324 175.346885 
L 193.024877 175.623425 
L 193.618598 175.863638 
L 194.228165 176.066648 
L 194.851197 176.231723 
L 195.485273 176.358274 
L 196.127934 176.445861 
L 196.776695 176.494191 
L 197.429052 176.50312 
L 198.082494 176.472651 
L 198.73451 176.402935 
L 199.382596 176.294269 
L 200.024269 176.147094 
L 200.65707 175.961995 
L 201.278576 175.739699 
L 201.886409 175.481068 
L 202.47824 175.1871 
L 203.051802 174.858924 
L 203.604896 174.497795 
L 204.135397 174.105093 
L 204.641265 173.682315 
L 205.120548 173.231068 
L 205.571392 172.753071 
L 205.99205 172.250142 
L 206.380881 171.724194 
L 206.736363 171.177231 
L 207.057096 170.611337 
L 207.341808 170.028672 
L 207.58936 169.431465 
L 207.798751 168.822003 
L 207.969119 168.202625 
L 208.099753 167.575715 
L 208.190087 166.943692 
L 208.239708 166.309002 
L 208.248361 165.674108 
L 208.215942 165.041483 
L 208.14251 164.413597 
L 208.028281 163.792912 
L 207.873629 163.181873 
L 207.67909 162.582892 
L 207.445354 161.998345 
L 207.17327 161.430561 
" style="fill:none;stroke:#00bfbf;stroke-linecap:square;"/>
   </g>
   <g id="text_1">
    <!-- Overprint Directions - Tilt-Corrected -->
    <defs>
     <path d="M 39.40625 66.21875 
Q 28.65625 66.21875 22.328125 58.203125 
Q 16.015625 50.203125 16.015625 36.375 
Q 16.015625 22.609375 22.328125 14.59375 
Q 28.65625 6.59375 39.40625 6.59375 
Q 50.140625 6.59375 56.421875 14.59375 
Q 62.703125 22.609375 62.703125 36.375 
Q 62.703125 50.203125 56.421875 58.203125 
Q 50.140625 66.21875 39.40625 66.21875 
M 39.40625 74.21875 
Q 54.734375 74.21875 63.90625 63.9375 
Q 73.09375 53.65625 73.09375 36.375 
Q 73.09375 19.140625 63.90625 8.859375 
Q 54.734375 -1.421875 39.40625 -1.421875 
Q 24.03125 -1.421875 14.8125 8.828125 
Q 5.609375 19.09375 5.609375 36.375 
Q 5.609375 53.65625 14.8125 63.9375 
Q 24.03125 74.21875 39.40625 74.21875 
" id="BitstreamVeraSans-Roman-4f"/>
     <path d="M 64.40625 67.28125 
L 64.40625 56.890625 
Q 59.421875 61.53125 53.78125 63.8125 
Q 48.140625 66.109375 41.796875 66.109375 
Q 29.296875 66.109375 22.65625 58.46875 
Q 16.015625 50.828125 16.015625 36.375 
Q 16.015625 21.96875 22.65625 14.328125 
Q 29.296875 6.6875 41.796875 6.6875 
Q 48.140625 6.6875 53.78125 8.984375 
Q 59.421875 11.28125 64.40625 15.921875 
L 64.40625 5.609375 
Q 59.234375 2.09375 53.4375 0.328125 
Q 47.65625 -1.421875 41.21875 -1.421875 
Q 24.65625 -1.421875 15.125 8.703125 
Q 5.609375 18.84375 5.609375 36.375 
Q 5.609375 53.953125 15.125 64.078125 
Q 24.65625 74.21875 41.21875 74.21875 
Q 47.75 74.21875 53.53125 72.484375 
Q 59.328125 70.75 64.40625 67.28125 
" id="BitstreamVeraSans-Roman-43"/>
     <path id="BitstreamVeraSans-Roman-20"/>
     <path d="M 54.890625 33.015625 
L 54.890625 0 
L 45.90625 0 
L 45.90625 32.71875 
Q 45.90625 40.484375 42.875 44.328125 
Q 39.84375 48.1875 33.796875 48.1875 
Q 26.515625 48.1875 22.3125 43.546875 
Q 18.109375 38.921875 18.109375 30.90625 
L 18.109375 0 
L 9.078125 0 
L 9.078125 54.6875 
L 18.109375 54.6875 
L 18.109375 46.1875 
Q 21.34375 51.125 25.703125 53.5625 
Q 30.078125 56 35.796875 56 
Q 45.21875 56 50.046875 50.171875 
Q 54.890625 44.34375 54.890625 33.015625 
" id="BitstreamVeraSans-Roman-6e"/>
     <path d="M 30.609375 48.390625 
Q 23.390625 48.390625 19.1875 42.75 
Q 14.984375 37.109375 14.984375 27.296875 
Q 14.984375 17.484375 19.15625 11.84375 
Q 23.34375 6.203125 30.609375 6.203125 
Q 37.796875 6.203125 41.984375 11.859375 
Q 46.1875 17.53125 46.1875 27.296875 
Q 46.1875 37.015625 41.984375 42.703125 
Q 37.796875 48.390625 30.609375 48.390625 
M 30.609375 56 
Q 42.328125 56 49.015625 48.375 
Q 55.71875 40.765625 55.71875 27.296875 
Q 55.71875 13.875 49.015625 6.21875 
Q 42.328125 -1.421875 30.609375 -1.421875 
Q 18.84375 -1.421875 12.171875 6.21875 
Q 5.515625 13.875 5.515625 27.296875 
Q 5.515625 40.765625 12.171875 48.375 
Q 18.84375 56 30.609375 56 
" id="BitstreamVeraSans-Roman-6f"/>
     <path d="M 9.421875 75.984375 
L 18.40625 75.984375 
L 18.40625 0 
L 9.421875 0 
z
" id="BitstreamVeraSans-Roman-6c"/>
     <path d="M 56.203125 29.59375 
L 56.203125 25.203125 
L 14.890625 25.203125 
Q 15.484375 15.921875 20.484375 11.0625 
Q 25.484375 6.203125 34.421875 6.203125 
Q 39.59375 6.203125 44.453125 7.46875 
Q 49.3125 8.734375 54.109375 11.28125 
L 54.109375 2.78125 
Q 49.265625 0.734375 44.1875 -0.34375 
Q 39.109375 -1.421875 33.890625 -1.421875 
Q 20.796875 -1.421875 13.15625 6.1875 
Q 5.515625 13.8125 5.515625 26.8125 
Q 5.515625 40.234375 12.765625 48.109375 
Q 20.015625 56 32.328125 56 
Q 43.359375 56 49.78125 48.890625 
Q 56.203125 41.796875 56.203125 29.59375 
M 47.21875 32.234375 
Q 47.125 39.59375 43.09375 43.984375 
Q 39.0625 48.390625 32.421875 48.390625 
Q 24.90625 48.390625 20.390625 44.140625 
Q 15.875 39.890625 15.1875 32.171875 
z
" id="BitstreamVeraSans-Roman-65"/>
     <path d="M 19.671875 64.796875 
L 19.671875 8.109375 
L 31.59375 8.109375 
Q 46.6875 8.109375 53.6875 14.9375 
Q 60.6875 21.78125 60.6875 36.53125 
Q 60.6875 51.171875 53.6875 57.984375 
Q 46.6875 64.796875 31.59375 64.796875 
z
M 9.8125 72.90625 
L 30.078125 72.90625 
Q 51.265625 72.90625 61.171875 64.09375 
Q 71.09375 55.28125 71.09375 36.53125 
Q 71.09375 17.671875 61.125 8.828125 
Q 51.171875 0 30.078125 0 
L 9.8125 0 
z
" id="BitstreamVeraSans-Roman-44"/>
     <path d="M 9.421875 54.6875 
L 18.40625 54.6875 
L 18.40625 0 
L 9.421875 0 
z
M 9.421875 75.984375 
L 18.40625 75.984375 
L 18.40625 64.59375 
L 9.421875 64.59375 
z
" id="BitstreamVeraSans-Roman-69"/>
     <path d="M 48.78125 52.59375 
L 48.78125 44.1875 
Q 44.96875 46.296875 41.140625 47.34375 
Q 37.3125 48.390625 33.40625 48.390625 
Q 24.65625 48.390625 19.8125 42.84375 
Q 14.984375 37.3125 14.984375 27.296875 
Q 14.984375 17.28125 19.8125 11.734375 
Q 24.65625 6.203125 33.40625 6.203125 
Q 37.3125 6.203125 41.140625 7.25 
Q 44.96875 8.296875 48.78125 10.40625 
L 48.78125 2.09375 
Q 45.015625 0.34375 40.984375 -0.53125 
Q 36.96875 -1.421875 32.421875 -1.421875 
Q 20.0625 -1.421875 12.78125 6.34375 
Q 5.515625 14.109375 5.515625 27.296875 
Q 5.515625 40.671875 12.859375 48.328125 
Q 20.21875 56 33.015625 56 
Q 37.15625 56 41.109375 55.140625 
Q 45.0625 54.296875 48.78125 52.59375 
" id="BitstreamVeraSans-Roman-63"/>
     <path d="M 45.40625 46.390625 
L 45.40625 75.984375 
L 54.390625 75.984375 
L 54.390625 0 
L 45.40625 0 
L 45.40625 8.203125 
Q 42.578125 3.328125 38.25 0.953125 
Q 33.9375 -1.421875 27.875 -1.421875 
Q 17.96875 -1.421875 11.734375 6.484375 
Q 5.515625 14.40625 5.515625 27.296875 
Q 5.515625 40.1875 11.734375 48.09375 
Q 17.96875 56 27.875 56 
Q 33.9375 56 38.25 53.625 
Q 42.578125 51.265625 45.40625 46.390625 
M 14.796875 27.296875 
Q 14.796875 17.390625 18.875 11.75 
Q 22.953125 6.109375 30.078125 6.109375 
Q 37.203125 6.109375 41.296875 11.75 
Q 45.40625 17.390625 45.40625 27.296875 
Q 45.40625 37.203125 41.296875 42.84375 
Q 37.203125 48.484375 30.078125 48.484375 
Q 22.953125 48.484375 18.875 42.84375 
Q 14.796875 37.203125 14.796875 27.296875 
" id="BitstreamVeraSans-Roman-64"/>
     <path d="M 2.984375 54.6875 
L 12.5 54.6875 
L 29.59375 8.796875 
L 46.6875 54.6875 
L 56.203125 54.6875 
L 35.6875 0 
L 23.484375 0 
z
" id="BitstreamVeraSans-Roman-76"/>
     <path d="M -0.296875 72.90625 
L 61.375 72.90625 
L 61.375 64.59375 
L 35.5 64.59375 
L 35.5 0 
L 25.59375 0 
L 25.59375 64.59375 
L -0.296875 64.59375 
z
" id="BitstreamVeraSans-Roman-54"/>
     <path d="M 18.3125 70.21875 
L 18.3125 54.6875 
L 36.8125 54.6875 
L 36.8125 47.703125 
L 18.3125 47.703125 
L 18.3125 18.015625 
Q 18.3125 11.328125 20.140625 9.421875 
Q 21.96875 7.515625 27.59375 7.515625 
L 36.8125 7.515625 
L 36.8125 0 
L 27.59375 0 
Q 17.1875 0 13.234375 3.875 
Q 9.28125 7.765625 9.28125 18.015625 
L 9.28125 47.703125 
L 2.6875 47.703125 
L 2.6875 54.6875 
L 9.28125 54.6875 
L 9.28125 70.21875 
z
" id="BitstreamVeraSans-Roman-74"/>
     <path d="M 41.109375 46.296875 
Q 39.59375 47.171875 37.8125 47.578125 
Q 36.03125 48 33.890625 48 
Q 26.265625 48 22.1875 43.046875 
Q 18.109375 38.09375 18.109375 28.8125 
L 18.109375 0 
L 9.078125 0 
L 9.078125 54.6875 
L 18.109375 54.6875 
L 18.109375 46.1875 
Q 20.953125 51.171875 25.484375 53.578125 
Q 30.03125 56 36.53125 56 
Q 37.453125 56 38.578125 55.875 
Q 39.703125 55.765625 41.0625 55.515625 
z
" id="BitstreamVeraSans-Roman-72"/>
     <path d="M 44.28125 53.078125 
L 44.28125 44.578125 
Q 40.484375 46.53125 36.375 47.5 
Q 32.28125 48.484375 27.875 48.484375 
Q 21.1875 48.484375 17.84375 46.4375 
Q 14.5 44.390625 14.5 40.28125 
Q 14.5 37.15625 16.890625 35.375 
Q 19.28125 33.59375 26.515625 31.984375 
L 29.59375 31.296875 
Q 39.15625 29.25 43.1875 25.515625 
Q 47.21875 21.78125 47.21875 15.09375 
Q 47.21875 7.46875 41.1875 3.015625 
Q 35.15625 -1.421875 24.609375 -1.421875 
Q 20.21875 -1.421875 15.453125 -0.5625 
Q 10.6875 0.296875 5.421875 2 
L 5.421875 11.28125 
Q 10.40625 8.6875 15.234375 7.390625 
Q 20.0625 6.109375 24.8125 6.109375 
Q 31.15625 6.109375 34.5625 8.28125 
Q 37.984375 10.453125 37.984375 14.40625 
Q 37.984375 18.0625 35.515625 20.015625 
Q 33.0625 21.96875 24.703125 23.78125 
L 21.578125 24.515625 
Q 13.234375 26.265625 9.515625 29.90625 
Q 5.8125 33.546875 5.8125 39.890625 
Q 5.8125 47.609375 11.28125 51.796875 
Q 16.75 56 26.8125 56 
Q 31.78125 56 36.171875 55.265625 
Q 40.578125 54.546875 44.28125 53.078125 
" id="BitstreamVeraSans-Roman-73"/>
     <path d="M 18.109375 8.203125 
L 18.109375 -20.796875 
L 9.078125 -20.796875 
L 9.078125 54.6875 
L 18.109375 54.6875 
L 18.109375 46.390625 
Q 20.953125 51.265625 25.265625 53.625 
Q 29.59375 56 35.59375 56 
Q 45.5625 56 51.78125 48.09375 
Q 58.015625 40.1875 58.015625 27.296875 
Q 58.015625 14.40625 51.78125 6.484375 
Q 45.5625 -1.421875 35.59375 -1.421875 
Q 29.59375 -1.421875 25.265625 0.953125 
Q 20.953125 3.328125 18.109375 8.203125 
M 48.6875 27.296875 
Q 48.6875 37.203125 44.609375 42.84375 
Q 40.53125 48.484375 33.40625 48.484375 
Q 26.265625 48.484375 22.1875 42.84375 
Q 18.109375 37.203125 18.109375 27.296875 
Q 18.109375 17.390625 22.1875 11.75 
Q 26.265625 6.109375 33.40625 6.109375 
Q 40.53125 6.109375 44.609375 11.75 
Q 48.6875 17.390625 48.6875 27.296875 
" id="BitstreamVeraSans-Roman-70"/>
     <path d="M 4.890625 31.390625 
L 31.203125 31.390625 
L 31.203125 23.390625 
L 4.890625 23.390625 
z
" id="BitstreamVeraSans-Roman-2d"/>
    </defs>
    <g transform="translate(118.49625 16.318125)scale(0.12 -0.12)">
     <use xlink:href="#BitstreamVeraSans-Roman-4f"/>
     <use x="78.7109375" xlink:href="#BitstreamVeraSans-Roman-76"/>
     <use x="137.890625" xlink:href="#BitstreamVeraSans-Roman-65"/>
     <use x="199.4140625" xlink:href="#BitstreamVeraSans-Roman-72"/>
     <use x="240.52734375" xlink:href="#BitstreamVeraSans-Roman-70"/>
     <use x="304.00390625" xlink:href="#BitstreamVeraSans-Roman-72"/>
     <use x="345.1171875" xlink:href="#BitstreamVeraSans-Roman-69"/>
     <use x="372.900390625" xlink:href="#BitstreamVeraSans-Roman-6e"/>
     <use x="436.279296875" xlink:href="#BitstreamVeraSans-Roman-74"/>
     <use x="475.48828125" xlink:href="#BitstreamVeraSans-Roman-20"/>
     <use x="507.275390625" xlink:href="#BitstreamVeraSans-Roman-44"/>
     <use x="584.27734375" xlink:href="#BitstreamVeraSans-Roman-69"/>
     <use x="612.060546875" xlink:href="#BitstreamVeraSans-Roman-72"/>
     <use x="653.142578125" xlink:href="#BitstreamVeraSans-Roman-65"/>
     <use x="714.666015625" xlink:href="#BitstreamVeraSans-Roman-63"/>
     <use x="769.646484375" xlink:href="#BitstreamVeraSans-Roman-74"/>
     <use x="808.85546875" xlink:href="#BitstreamVeraSans-Roman-69"/>
     <use x="836.638671875" xlink:href="#BitstreamVeraSans-Roman-6f"/>
     <use x="897.8203125" xlink:href="#BitstreamVeraSans-Roman-6e"/>
     <use x="961.19921875" xlink:href="#BitstreamVeraSans-Roman-73"/>
     <use x="1013.29882812" xlink:href="#BitstreamVeraSans-Roman-20"/>
     <use x="1045.0859375" xlink:href="#BitstreamVeraSans-Roman-2d"/>
     <use x="1081.16992188" xlink:href="#BitstreamVeraSans-Roman-20"/>
     <use x="1112.95703125" xlink:href="#BitstreamVeraSans-Roman-54"/>
     <use x="1173.99414062" xlink:href="#BitstreamVeraSans-Roman-69"/>
     <use x="1201.77734375" xlink:href="#BitstreamVeraSans-Roman-6c"/>
     <use x="1229.56054688" xlink:href="#BitstreamVeraSans-Roman-74"/>
     <use x="1268.76953125" xlink:href="#BitstreamVeraSans-Roman-2d"/>
     <use x="1304.85351562" xlink:href="#BitstreamVeraSans-Roman-43"/>
     <use x="1374.67773438" xlink:href="#BitstreamVeraSans-Roman-6f"/>
     <use x="1435.859375" xlink:href="#BitstreamVeraSans-Roman-72"/>
     <use x="1476.95703125" xlink:href="#BitstreamVeraSans-Roman-72"/>
     <use x="1518.0390625" xlink:href="#BitstreamVeraSans-Roman-65"/>
     <use x="1579.5625" xlink:href="#BitstreamVeraSans-Roman-63"/>
     <use x="1634.54296875" xlink:href="#BitstreamVeraSans-Roman-74"/>
     <use x="1673.75195312" xlink:href="#BitstreamVeraSans-Roman-65"/>
     <use x="1735.27539062" xlink:href="#BitstreamVeraSans-Roman-64"/>
    </g>
   </g>
   <g id="legend_1">
    <g id="patch_2">
     <path d="M 283.701562 220.018125 
L 400.420312 220.018125 
L 400.420312 90.785625 
L 283.701562 90.785625 
z
" style="fill:#ffffff;stroke:#000000;stroke-linejoin:miter;"/>
    </g>
    <g id="PathCollection_8">
     <path d="M 292.101562 102.671784 
C 292.398069 102.671784 292.68247 102.553981 292.892132 102.344319 
C 293.101793 102.134658 293.219596 101.850256 293.219596 101.55375 
C 293.219596 101.257244 293.101793 100.972842 292.892132 100.763181 
C 292.68247 100.553519 292.398069 100.435716 292.101562 100.435716 
C 291.805056 100.435716 291.520655 100.553519 291.310993 100.763181 
C 291.101332 100.972842 290.983529 101.257244 290.983529 101.55375 
C 290.983529 101.850256 291.101332 102.134658 291.310993 102.344319 
C 291.520655 102.553981 291.805056 102.671784 292.101562 102.671784 
z
" style="fill:#ffffff;stroke:#00008b;"/>
     <path d="M 300.501562 101.621784 
C 300.798069 101.621784 301.08247 101.503981 301.292132 101.294319 
C 301.501793 101.084658 301.619596 100.800256 301.619596 100.50375 
C 301.619596 100.207244 301.501793 99.922842 301.292132 99.713181 
C 301.08247 99.503519 300.798069 99.385716 300.501562 99.385716 
C 300.205056 99.385716 299.920655 99.503519 299.710993 99.713181 
C 299.501332 99.922842 299.383529 100.207244 299.383529 100.50375 
C 299.383529 100.800256 299.501332 101.084658 299.710993 101.294319 
C 299.920655 101.503981 300.205056 101.621784 300.501562 101.621784 
z
" style="fill:#ffffff;stroke:#00008b;"/>
     <path d="M 308.901562 103.196784 
C 309.198069 103.196784 309.48247 103.078981 309.692132 102.869319 
C 309.901793 102.659658 310.019596 102.375256 310.019596 102.07875 
C 310.019596 101.782244 309.901793 101.497842 309.692132 101.288181 
C 309.48247 101.078519 309.198069 100.960716 308.901562 100.960716 
C 308.605056 100.960716 308.320655 101.078519 308.110993 101.288181 
C 307.901332 101.497842 307.783529 101.782244 307.783529 102.07875 
C 307.783529 102.375256 307.901332 102.659658 308.110993 102.869319 
C 308.320655 103.078981 308.605056 103.196784 308.901562 103.196784 
z
" style="fill:#ffffff;stroke:#00008b;"/>
    </g>
    <g id="text_2">
     <!-- Lev10_INT -->
     <defs>
      <path d="M 31.78125 66.40625 
Q 24.171875 66.40625 20.328125 58.90625 
Q 16.5 51.421875 16.5 36.375 
Q 16.5 21.390625 20.328125 13.890625 
Q 24.171875 6.390625 31.78125 6.390625 
Q 39.453125 6.390625 43.28125 13.890625 
Q 47.125 21.390625 47.125 36.375 
Q 47.125 51.421875 43.28125 58.90625 
Q 39.453125 66.40625 31.78125 66.40625 
M 31.78125 74.21875 
Q 44.046875 74.21875 50.515625 64.515625 
Q 56.984375 54.828125 56.984375 36.375 
Q 56.984375 17.96875 50.515625 8.265625 
Q 44.046875 -1.421875 31.78125 -1.421875 
Q 19.53125 -1.421875 13.0625 8.265625 
Q 6.59375 17.96875 6.59375 36.375 
Q 6.59375 54.828125 13.0625 64.515625 
Q 19.53125 74.21875 31.78125 74.21875 
" id="BitstreamVeraSans-Roman-30"/>
      <path d="M 12.40625 8.296875 
L 28.515625 8.296875 
L 28.515625 63.921875 
L 10.984375 60.40625 
L 10.984375 69.390625 
L 28.421875 72.90625 
L 38.28125 72.90625 
L 38.28125 8.296875 
L 54.390625 8.296875 
L 54.390625 0 
L 12.40625 0 
z
" id="BitstreamVeraSans-Roman-31"/>
      <path d="M 9.8125 72.90625 
L 19.671875 72.90625 
L 19.671875 8.296875 
L 55.171875 8.296875 
L 55.171875 0 
L 9.8125 0 
z
" id="BitstreamVeraSans-Roman-4c"/>
      <path d="M 50.984375 -16.609375 
L 50.984375 -23.578125 
L -0.984375 -23.578125 
L -0.984375 -16.609375 
z
" id="BitstreamVeraSans-Roman-5f"/>
      <path d="M 9.8125 72.90625 
L 23.09375 72.90625 
L 55.421875 11.921875 
L 55.421875 72.90625 
L 64.984375 72.90625 
L 64.984375 0 
L 51.703125 0 
L 19.390625 60.984375 
L 19.390625 0 
L 9.8125 0 
z
" id="BitstreamVeraSans-Roman-4e"/>
      <path d="M 9.8125 72.90625 
L 19.671875 72.90625 
L 19.671875 0 
L 9.8125 0 
z
" id="BitstreamVeraSans-Roman-49"/>
     </defs>
     <g transform="translate(322.1015625 104.70375)scale(0.12 -0.12)">
      <use xlink:href="#BitstreamVeraSans-Roman-4c"/>
      <use x="55.697265625" xlink:href="#BitstreamVeraSans-Roman-65"/>
      <use x="117.220703125" xlink:href="#BitstreamVeraSans-Roman-76"/>
      <use x="176.400390625" xlink:href="#BitstreamVeraSans-Roman-31"/>
      <use x="240.0234375" xlink:href="#BitstreamVeraSans-Roman-30"/>
      <use x="303.646484375" xlink:href="#BitstreamVeraSans-Roman-5f"/>
      <use x="353.646484375" xlink:href="#BitstreamVeraSans-Roman-49"/>
      <use x="383.138671875" xlink:href="#BitstreamVeraSans-Roman-4e"/>
      <use x="457.943359375" xlink:href="#BitstreamVeraSans-Roman-54"/>
     </g>
    </g>
    <g id="PathCollection_9">
     <path d="M 289.865495 121.737318 
L 294.33763 121.737318 
L 294.33763 117.265182 
L 289.865495 117.265182 
z
" style="fill:#ffffff;stroke:#00008b;"/>
     <path d="M 298.265495 120.687318 
L 302.73763 120.687318 
L 302.73763 116.215182 
L 298.265495 116.215182 
z
" style="fill:#ffffff;stroke:#00008b;"/>
     <path d="M 306.665495 122.262318 
L 311.13763 122.262318 
L 311.13763 117.790182 
L 306.665495 117.790182 
z
" style="fill:#ffffff;stroke:#00008b;"/>
    </g>
    <g id="text_3">
     <!-- Lev10_HT -->
     <defs>
      <path d="M 9.8125 72.90625 
L 19.671875 72.90625 
L 19.671875 43.015625 
L 55.515625 43.015625 
L 55.515625 72.90625 
L 65.375 72.90625 
L 65.375 0 
L 55.515625 0 
L 55.515625 34.71875 
L 19.671875 34.71875 
L 19.671875 0 
L 9.8125 0 
z
" id="BitstreamVeraSans-Roman-48"/>
     </defs>
     <g transform="translate(322.1015625 122.65125)scale(0.12 -0.12)">
      <use xlink:href="#BitstreamVeraSans-Roman-4c"/>
      <use x="55.697265625" xlink:href="#BitstreamVeraSans-Roman-65"/>
      <use x="117.220703125" xlink:href="#BitstreamVeraSans-Roman-76"/>
      <use x="176.400390625" xlink:href="#BitstreamVeraSans-Roman-31"/>
      <use x="240.0234375" xlink:href="#BitstreamVeraSans-Roman-30"/>
      <use x="303.646484375" xlink:href="#BitstreamVeraSans-Roman-5f"/>
      <use x="353.646484375" xlink:href="#BitstreamVeraSans-Roman-48"/>
      <use x="428.841796875" xlink:href="#BitstreamVeraSans-Roman-54"/>
     </g>
    </g>
    <g id="PathCollection_10">
     <path d="M 292.101562 135.212682 
L 289.865495 139.684818 
L 294.33763 139.684818 
z
" style="fill:#ffffff;stroke:#0000ff;"/>
     <path d="M 300.501562 134.162682 
L 298.265495 138.634818 
L 302.73763 138.634818 
z
" style="fill:#ffffff;stroke:#0000ff;"/>
     <path d="M 308.901562 135.737682 
L 306.665495 140.209818 
L 311.13763 140.209818 
z
" style="fill:#ffffff;stroke:#0000ff;"/>
    </g>
    <g id="text_4">
     <!-- Krav01_INT -->
     <defs>
      <path d="M 34.28125 27.484375 
Q 23.390625 27.484375 19.1875 25 
Q 14.984375 22.515625 14.984375 16.5 
Q 14.984375 11.71875 18.140625 8.90625 
Q 21.296875 6.109375 26.703125 6.109375 
Q 34.1875 6.109375 38.703125 11.40625 
Q 43.21875 16.703125 43.21875 25.484375 
L 43.21875 27.484375 
z
M 52.203125 31.203125 
L 52.203125 0 
L 43.21875 0 
L 43.21875 8.296875 
Q 40.140625 3.328125 35.546875 0.953125 
Q 30.953125 -1.421875 24.3125 -1.421875 
Q 15.921875 -1.421875 10.953125 3.296875 
Q 6 8.015625 6 15.921875 
Q 6 25.140625 12.171875 29.828125 
Q 18.359375 34.515625 30.609375 34.515625 
L 43.21875 34.515625 
L 43.21875 35.40625 
Q 43.21875 41.609375 39.140625 45 
Q 35.0625 48.390625 27.6875 48.390625 
Q 23 48.390625 18.546875 47.265625 
Q 14.109375 46.140625 10.015625 43.890625 
L 10.015625 52.203125 
Q 14.9375 54.109375 19.578125 55.046875 
Q 24.21875 56 28.609375 56 
Q 40.484375 56 46.34375 49.84375 
Q 52.203125 43.703125 52.203125 31.203125 
" id="BitstreamVeraSans-Roman-61"/>
      <path d="M 9.8125 72.90625 
L 19.671875 72.90625 
L 19.671875 42.09375 
L 52.390625 72.90625 
L 65.09375 72.90625 
L 28.90625 38.921875 
L 67.671875 0 
L 54.6875 0 
L 19.671875 35.109375 
L 19.671875 0 
L 9.8125 0 
z
" id="BitstreamVeraSans-Roman-4b"/>
     </defs>
     <g transform="translate(322.1015625 140.59875)scale(0.12 -0.12)">
      <use xlink:href="#BitstreamVeraSans-Roman-4b"/>
      <use x="65.576171875" xlink:href="#BitstreamVeraSans-Roman-72"/>
      <use x="106.689453125" xlink:href="#BitstreamVeraSans-Roman-61"/>
      <use x="167.96875" xlink:href="#BitstreamVeraSans-Roman-76"/>
      <use x="227.1484375" xlink:href="#BitstreamVeraSans-Roman-30"/>
      <use x="290.771484375" xlink:href="#BitstreamVeraSans-Roman-31"/>
      <use x="354.39453125" xlink:href="#BitstreamVeraSans-Roman-5f"/>
      <use x="404.39453125" xlink:href="#BitstreamVeraSans-Roman-49"/>
      <use x="433.88671875" xlink:href="#BitstreamVeraSans-Roman-4e"/>
      <use x="508.69140625" xlink:href="#BitstreamVeraSans-Roman-54"/>
     </g>
    </g>
    <g id="PathCollection_11">
     <path d="M 289.865495 155.39625 
L 294.33763 157.632318 
L 294.33763 153.160182 
z
" style="fill:#ffffff;stroke:#0000ff;"/>
     <path d="M 298.265495 154.34625 
L 302.73763 156.582318 
L 302.73763 152.110182 
z
" style="fill:#ffffff;stroke:#0000ff;"/>
     <path d="M 306.665495 155.92125 
L 311.13763 158.157318 
L 311.13763 153.685182 
z
" style="fill:#ffffff;stroke:#0000ff;"/>
    </g>
    <g id="text_5">
     <!-- Krav01_HT -->
     <g transform="translate(322.1015625 158.54625)scale(0.12 -0.12)">
      <use xlink:href="#BitstreamVeraSans-Roman-4b"/>
      <use x="65.576171875" xlink:href="#BitstreamVeraSans-Roman-72"/>
      <use x="106.689453125" xlink:href="#BitstreamVeraSans-Roman-61"/>
      <use x="167.96875" xlink:href="#BitstreamVeraSans-Roman-76"/>
      <use x="227.1484375" xlink:href="#BitstreamVeraSans-Roman-30"/>
      <use x="290.771484375" xlink:href="#BitstreamVeraSans-Roman-31"/>
      <use x="354.39453125" xlink:href="#BitstreamVeraSans-Roman-5f"/>
      <use x="404.39453125" xlink:href="#BitstreamVeraSans-Roman-48"/>
      <use x="479.58984375" xlink:href="#BitstreamVeraSans-Roman-54"/>
     </g>
    </g>
    <g id="PathCollection_12">
     <path d="M 294.33763 173.34375 
L 289.865495 171.107682 
L 289.865495 175.579818 
z
" style="fill:#ffffff;stroke:#ff0000;"/>
     <path d="M 302.73763 172.29375 
L 298.265495 170.057682 
L 298.265495 174.529818 
z
" style="fill:#ffffff;stroke:#ff0000;"/>
     <path d="M 311.13763 173.86875 
L 306.665495 171.632682 
L 306.665495 176.104818 
z
" style="fill:#ffffff;stroke:#ff0000;"/>
    </g>
    <g id="text_6">
     <!-- Teel_Mag -->
     <defs>
      <path d="M 45.40625 27.984375 
Q 45.40625 37.75 41.375 43.109375 
Q 37.359375 48.484375 30.078125 48.484375 
Q 22.859375 48.484375 18.828125 43.109375 
Q 14.796875 37.75 14.796875 27.984375 
Q 14.796875 18.265625 18.828125 12.890625 
Q 22.859375 7.515625 30.078125 7.515625 
Q 37.359375 7.515625 41.375 12.890625 
Q 45.40625 18.265625 45.40625 27.984375 
M 54.390625 6.78125 
Q 54.390625 -7.171875 48.1875 -13.984375 
Q 42 -20.796875 29.203125 -20.796875 
Q 24.46875 -20.796875 20.265625 -20.09375 
Q 16.0625 -19.390625 12.109375 -17.921875 
L 12.109375 -9.1875 
Q 16.0625 -11.328125 19.921875 -12.34375 
Q 23.78125 -13.375 27.78125 -13.375 
Q 36.625 -13.375 41.015625 -8.765625 
Q 45.40625 -4.15625 45.40625 5.171875 
L 45.40625 9.625 
Q 42.625 4.78125 38.28125 2.390625 
Q 33.9375 0 27.875 0 
Q 17.828125 0 11.671875 7.65625 
Q 5.515625 15.328125 5.515625 27.984375 
Q 5.515625 40.671875 11.671875 48.328125 
Q 17.828125 56 27.875 56 
Q 33.9375 56 38.28125 53.609375 
Q 42.625 51.21875 45.40625 46.390625 
L 45.40625 54.6875 
L 54.390625 54.6875 
z
" id="BitstreamVeraSans-Roman-67"/>
      <path d="M 9.8125 72.90625 
L 24.515625 72.90625 
L 43.109375 23.296875 
L 61.8125 72.90625 
L 76.515625 72.90625 
L 76.515625 0 
L 66.890625 0 
L 66.890625 64.015625 
L 48.09375 14.015625 
L 38.1875 14.015625 
L 19.390625 64.015625 
L 19.390625 0 
L 9.8125 0 
z
" id="BitstreamVeraSans-Roman-4d"/>
     </defs>
     <g transform="translate(322.1015625 176.49375)scale(0.12 -0.12)">
      <use xlink:href="#BitstreamVeraSans-Roman-54"/>
      <use x="60.818359375" xlink:href="#BitstreamVeraSans-Roman-65"/>
      <use x="122.341796875" xlink:href="#BitstreamVeraSans-Roman-65"/>
      <use x="183.865234375" xlink:href="#BitstreamVeraSans-Roman-6c"/>
      <use x="211.6484375" xlink:href="#BitstreamVeraSans-Roman-5f"/>
      <use x="261.6484375" xlink:href="#BitstreamVeraSans-Roman-4d"/>
      <use x="347.927734375" xlink:href="#BitstreamVeraSans-Roman-61"/>
      <use x="409.20703125" xlink:href="#BitstreamVeraSans-Roman-67"/>
     </g>
    </g>
    <g id="PathCollection_13">
     <path d="M 292.101562 191.29125 
L 292.101562 193.527318 
M 292.101562 191.29125 
L 293.890417 190.173216 
M 292.101562 191.29125 
L 290.312708 190.173216 
" style="fill:#ff0000;stroke:#ff0000;"/>
     <path d="M 300.501562 190.24125 
L 300.501562 192.477318 
M 300.501562 190.24125 
L 302.290417 189.123216 
M 300.501562 190.24125 
L 298.712708 189.123216 
" style="fill:#ff0000;stroke:#ff0000;"/>
     <path d="M 308.901562 191.81625 
L 308.901562 194.052318 
M 308.901562 191.81625 
L 310.690417 190.698216 
M 308.901562 191.81625 
L 307.112708 190.698216 
" style="fill:#ff0000;stroke:#ff0000;"/>
    </g>
    <g id="text_7">
     <!-- Teel_Hem -->
     <defs>
      <path d="M 52 44.1875 
Q 55.375 50.25 60.0625 53.125 
Q 64.75 56 71.09375 56 
Q 79.640625 56 84.28125 50.015625 
Q 88.921875 44.046875 88.921875 33.015625 
L 88.921875 0 
L 79.890625 0 
L 79.890625 32.71875 
Q 79.890625 40.578125 77.09375 44.375 
Q 74.3125 48.1875 68.609375 48.1875 
Q 61.625 48.1875 57.5625 43.546875 
Q 53.515625 38.921875 53.515625 30.90625 
L 53.515625 0 
L 44.484375 0 
L 44.484375 32.71875 
Q 44.484375 40.625 41.703125 44.40625 
Q 38.921875 48.1875 33.109375 48.1875 
Q 26.21875 48.1875 22.15625 43.53125 
Q 18.109375 38.875 18.109375 30.90625 
L 18.109375 0 
L 9.078125 0 
L 9.078125 54.6875 
L 18.109375 54.6875 
L 18.109375 46.1875 
Q 21.1875 51.21875 25.484375 53.609375 
Q 29.78125 56 35.6875 56 
Q 41.65625 56 45.828125 52.96875 
Q 50 49.953125 52 44.1875 
" id="BitstreamVeraSans-Roman-6d"/>
     </defs>
     <g transform="translate(322.1015625 194.44125)scale(0.12 -0.12)">
      <use xlink:href="#BitstreamVeraSans-Roman-54"/>
      <use x="60.818359375" xlink:href="#BitstreamVeraSans-Roman-65"/>
      <use x="122.341796875" xlink:href="#BitstreamVeraSans-Roman-65"/>
      <use x="183.865234375" xlink:href="#BitstreamVeraSans-Roman-6c"/>
      <use x="211.6484375" xlink:href="#BitstreamVeraSans-Roman-5f"/>
      <use x="261.6484375" xlink:href="#BitstreamVeraSans-Roman-48"/>
      <use x="336.84375" xlink:href="#BitstreamVeraSans-Roman-65"/>
      <use x="398.3671875" xlink:href="#BitstreamVeraSans-Roman-6d"/>
     </g>
    </g>
    <g id="PathCollection_14">
     <path d="M 292.101562 207.002682 
L 289.974935 208.547767 
L 290.787235 211.047767 
L 293.41589 211.047767 
L 294.22819 208.547767 
z
" style="fill:#ffffff;stroke:#00bfbf;"/>
     <path d="M 300.501562 205.952682 
L 298.374935 207.497767 
L 299.187235 209.997767 
L 301.81589 209.997767 
L 302.62819 207.497767 
z
" style="fill:#ffffff;stroke:#00bfbf;"/>
     <path d="M 308.901562 207.527682 
L 306.774935 209.072767 
L 307.587235 211.572767 
L 310.21589 211.572767 
L 311.02819 209.072767 
z
" style="fill:#ffffff;stroke:#00bfbf;"/>
    </g>
    <g id="text_8">
     <!-- Evans96_HT -->
     <defs>
      <path d="M 9.8125 72.90625 
L 55.90625 72.90625 
L 55.90625 64.59375 
L 19.671875 64.59375 
L 19.671875 43.015625 
L 54.390625 43.015625 
L 54.390625 34.71875 
L 19.671875 34.71875 
L 19.671875 8.296875 
L 56.78125 8.296875 
L 56.78125 0 
L 9.8125 0 
z
" id="BitstreamVeraSans-Roman-45"/>
      <path d="M 10.984375 1.515625 
L 10.984375 10.5 
Q 14.703125 8.734375 18.5 7.8125 
Q 22.3125 6.890625 25.984375 6.890625 
Q 35.75 6.890625 40.890625 13.453125 
Q 46.046875 20.015625 46.78125 33.40625 
Q 43.953125 29.203125 39.59375 26.953125 
Q 35.25 24.703125 29.984375 24.703125 
Q 19.046875 24.703125 12.671875 31.3125 
Q 6.296875 37.9375 6.296875 49.421875 
Q 6.296875 60.640625 12.9375 67.421875 
Q 19.578125 74.21875 30.609375 74.21875 
Q 43.265625 74.21875 49.921875 64.515625 
Q 56.59375 54.828125 56.59375 36.375 
Q 56.59375 19.140625 48.40625 8.859375 
Q 40.234375 -1.421875 26.421875 -1.421875 
Q 22.703125 -1.421875 18.890625 -0.6875 
Q 15.09375 0.046875 10.984375 1.515625 
M 30.609375 32.421875 
Q 37.25 32.421875 41.125 36.953125 
Q 45.015625 41.5 45.015625 49.421875 
Q 45.015625 57.28125 41.125 61.84375 
Q 37.25 66.40625 30.609375 66.40625 
Q 23.96875 66.40625 20.09375 61.84375 
Q 16.21875 57.28125 16.21875 49.421875 
Q 16.21875 41.5 20.09375 36.953125 
Q 23.96875 32.421875 30.609375 32.421875 
" id="BitstreamVeraSans-Roman-39"/>
      <path d="M 33.015625 40.375 
Q 26.375 40.375 22.484375 35.828125 
Q 18.609375 31.296875 18.609375 23.390625 
Q 18.609375 15.53125 22.484375 10.953125 
Q 26.375 6.390625 33.015625 6.390625 
Q 39.65625 6.390625 43.53125 10.953125 
Q 47.40625 15.53125 47.40625 23.390625 
Q 47.40625 31.296875 43.53125 35.828125 
Q 39.65625 40.375 33.015625 40.375 
M 52.59375 71.296875 
L 52.59375 62.3125 
Q 48.875 64.0625 45.09375 64.984375 
Q 41.3125 65.921875 37.59375 65.921875 
Q 27.828125 65.921875 22.671875 59.328125 
Q 17.53125 52.734375 16.796875 39.40625 
Q 19.671875 43.65625 24.015625 45.921875 
Q 28.375 48.1875 33.59375 48.1875 
Q 44.578125 48.1875 50.953125 41.515625 
Q 57.328125 34.859375 57.328125 23.390625 
Q 57.328125 12.15625 50.6875 5.359375 
Q 44.046875 -1.421875 33.015625 -1.421875 
Q 20.359375 -1.421875 13.671875 8.265625 
Q 6.984375 17.96875 6.984375 36.375 
Q 6.984375 53.65625 15.1875 63.9375 
Q 23.390625 74.21875 37.203125 74.21875 
Q 40.921875 74.21875 44.703125 73.484375 
Q 48.484375 72.75 52.59375 71.296875 
" id="BitstreamVeraSans-Roman-36"/>
     </defs>
     <g transform="translate(322.1015625 212.38875)scale(0.12 -0.12)">
      <use xlink:href="#BitstreamVeraSans-Roman-45"/>
      <use x="63.18359375" xlink:href="#BitstreamVeraSans-Roman-76"/>
      <use x="122.36328125" xlink:href="#BitstreamVeraSans-Roman-61"/>
      <use x="183.642578125" xlink:href="#BitstreamVeraSans-Roman-6e"/>
      <use x="247.021484375" xlink:href="#BitstreamVeraSans-Roman-73"/>
      <use x="299.12109375" xlink:href="#BitstreamVeraSans-Roman-39"/>
      <use x="362.744140625" xlink:href="#BitstreamVeraSans-Roman-36"/>
      <use x="426.3671875" xlink:href="#BitstreamVeraSans-Roman-5f"/>
      <use x="476.3671875" xlink:href="#BitstreamVeraSans-Roman-48"/>
      <use x="551.5625" xlink:href="#BitstreamVeraSans-Roman-54"/>
     </g>
    </g>
   </g>
  </g>
 </g>
 <defs>
  <clipPath id="p06b7185826">
   <rect height="397.4" width="381.875" x="35.4828125" y="21.318125"/>
  </clipPath>
 </defs>
</svg>
