<?xml version="1.0" encoding="utf-8" standalone="no"?>
<!DOCTYPE svg PUBLIC "-//W3C//DTD SVG 1.1//EN"
  "http://www.w3.org/Graphics/SVG/1.1/DTD/svg11.dtd">
<!-- Created with matplotlib (http://matplotlib.org/) -->
<svg height="311pt" version="1.1" viewBox="0 0 352 311" width="352pt" xmlns="http://www.w3.org/2000/svg" xmlns:xlink="http://www.w3.org/1999/xlink">
 <defs>
  <style type="text/css">
*{stroke-linecap:butt;stroke-linejoin:round;stroke-miterlimit:100000;}
  </style>
 </defs>
 <g id="figure_1">
  <g id="patch_1">
   <path d="M 0 311.465625 
L 352.418041 311.465625 
L 352.418041 0 
L 0 0 
L 0 311.465625 
z
" style="fill:none;"/>
  </g>
  <g id="axes_1">
   <g id="PathCollection_1">
    <path clip-path="url(#pfa96962a15)" d="M 251.561684 167.838331 
C 252.154696 167.838331 252.7235 167.602725 253.142823 167.183402 
C 253.562146 166.764079 253.797752 166.195275 253.797752 165.602263 
C 253.797752 165.009251 253.562146 164.440447 253.142823 164.021124 
C 252.7235 163.601801 252.154696 163.366195 251.561684 163.366195 
C 250.968672 163.366195 250.399868 163.601801 249.980545 164.021124 
C 249.561222 164.440447 249.325616 165.009251 249.325616 165.602263 
C 249.325616 166.195275 249.561222 166.764079 249.980545 167.183402 
C 250.399868 167.602725 250.968672 167.838331 251.561684 167.838331 
L 251.561684 167.838331 
z
" style="fill:none;stroke:#008000;"/>
   </g>
   <g id="PathCollection_2">
    <defs>
     <path d="M 0 2.236068 
C 0.593012 2.236068 1.161816 2.000462 1.581139 1.581139 
C 2.000462 1.161816 2.236068 0.593012 2.236068 0 
C 2.236068 -0.593012 2.000462 -1.161816 1.581139 -1.581139 
C 1.161816 -2.000462 0.593012 -2.236068 0 -2.236068 
C -0.593012 -2.236068 -1.161816 -2.000462 -1.581139 -1.581139 
C -2.000462 -1.161816 -2.236068 -0.593012 -2.236068 0 
C -2.236068 0.593012 -2.000462 1.161816 -1.581139 1.581139 
C -1.161816 2.000462 -0.593012 2.236068 0 2.236068 
z
" id="m677aa54bcb" style="stroke:#008000;"/>
    </defs>
    <g clip-path="url(#pfa96962a15)">
     <use style="fill:#008000;stroke:#008000;" x="78.8712065091" xlink:href="#m677aa54bcb" y="143.856532155"/>
     <use style="fill:#008000;stroke:#008000;" x="121.223389823" xlink:href="#m677aa54bcb" y="140.168028873"/>
     <use style="fill:#008000;stroke:#008000;" x="138.357653539" xlink:href="#m677aa54bcb" y="128.272160411"/>
     <use style="fill:#008000;stroke:#008000;" x="129.18119049" xlink:href="#m677aa54bcb" y="160.515877294"/>
     <use style="fill:#008000;stroke:#008000;" x="60.9221990969" xlink:href="#m677aa54bcb" y="109.164009169"/>
     <use style="fill:#008000;stroke:#008000;" x="119.934423535" xlink:href="#m677aa54bcb" y="132.025231717"/>
     <use style="fill:#008000;stroke:#008000;" x="127.367372413" xlink:href="#m677aa54bcb" y="88.5262714993"/>
    </g>
   </g>
   <g id="PathCollection_3">
    <defs>
     <path d="M 0 2.236068 
C 0.593012 2.236068 1.161816 2.000462 1.581139 1.581139 
C 2.000462 1.161816 2.236068 0.593012 2.236068 0 
C 2.236068 -0.593012 2.000462 -1.161816 1.581139 -1.581139 
C 1.161816 -2.000462 0.593012 -2.236068 0 -2.236068 
C -0.593012 -2.236068 -1.161816 -2.000462 -1.581139 -1.581139 
C -2.000462 -1.161816 -2.236068 -0.593012 -2.236068 0 
C -2.236068 0.593012 -2.000462 1.161816 -1.581139 1.581139 
C -1.161816 2.000462 -0.593012 2.236068 0 2.236068 
z
" id="m56ad74ed6d" style="stroke:#0000ff;"/>
    </defs>
    <g clip-path="url(#pfa96962a15)">
     <use style="fill:#0000ff;stroke:#0000ff;" x="169.319616655" xlink:href="#m56ad74ed6d" y="252.471342237"/>
     <use style="fill:#0000ff;stroke:#0000ff;" x="165.762864634" xlink:href="#m56ad74ed6d" y="256.680175807"/>
     <use style="fill:#0000ff;stroke:#0000ff;" x="199.784577076" xlink:href="#m56ad74ed6d" y="258.858213337"/>
     <use style="fill:#0000ff;stroke:#0000ff;" x="171.635821106" xlink:href="#m56ad74ed6d" y="252.019579454"/>
     <use style="fill:#0000ff;stroke:#0000ff;" x="178.854252692" xlink:href="#m56ad74ed6d" y="247.690830675"/>
     <use style="fill:#0000ff;stroke:#0000ff;" x="153.325595079" xlink:href="#m56ad74ed6d" y="235.039409864"/>
     <use style="fill:#0000ff;stroke:#0000ff;" x="159.843994364" xlink:href="#m56ad74ed6d" y="250.110735143"/>
     <use style="fill:#0000ff;stroke:#0000ff;" x="161.769569842" xlink:href="#m56ad74ed6d" y="240.181193961"/>
    </g>
   </g>
   <g id="PathCollection_4">
    <defs>
     <path d="M 0 2.236068 
C 0.593012 2.236068 1.161816 2.000462 1.581139 1.581139 
C 2.000462 1.161816 2.236068 0.593012 2.236068 0 
C 2.236068 -0.593012 2.000462 -1.161816 1.581139 -1.581139 
C 1.161816 -2.000462 0.593012 -2.236068 0 -2.236068 
C -0.593012 -2.236068 -1.161816 -2.000462 -1.581139 -1.581139 
C -2.000462 -1.161816 -2.236068 -0.593012 -2.236068 0 
C -2.236068 0.593012 -2.000462 1.161816 -1.581139 1.581139 
C -1.161816 2.000462 -0.593012 2.236068 0 2.236068 
z
" id="md2f6bd696d" style="stroke:#ff0000;"/>
    </defs>
    <g clip-path="url(#pfa96962a15)">
     <use style="fill:#ff0000;stroke:#ff0000;" x="174.486345234" xlink:href="#md2f6bd696d" y="253.122380708"/>
     <use style="fill:#ff0000;stroke:#ff0000;" x="161.147065005" xlink:href="#md2f6bd696d" y="254.596103037"/>
     <use style="fill:#ff0000;stroke:#ff0000;" x="199.570258297" xlink:href="#md2f6bd696d" y="249.182891247"/>
     <use style="fill:#ff0000;stroke:#ff0000;" x="177.074809396" xlink:href="#md2f6bd696d" y="251.648029622"/>
     <use style="fill:#ff0000;stroke:#ff0000;" x="178.888415618" xlink:href="#md2f6bd696d" y="245.255938287"/>
     <use style="fill:#ff0000;stroke:#ff0000;" x="174.828306658" xlink:href="#md2f6bd696d" y="249.881841101"/>
     <use style="fill:#ff0000;stroke:#ff0000;" x="176.850027107" xlink:href="#md2f6bd696d" y="253.919694428"/>
     <use style="fill:#ff0000;stroke:#ff0000;" x="178.672604565" xlink:href="#md2f6bd696d" y="252.606716848"/>
    </g>
   </g>
   <g id="PathCollection_5">
    <defs>
     <path d="M -2.236068 2.236068 
L 2.236068 2.236068 
L 2.236068 -2.236068 
L -2.236068 -2.236068 
z
" id="m79ec4dcbdc" style="stroke:#0000ff;"/>
    </defs>
    <g clip-path="url(#pfa96962a15)">
     <use style="fill:#0000ff;stroke:#0000ff;" x="169.687118241" xlink:href="#m79ec4dcbdc" y="250.049288492"/>
    </g>
   </g>
   <g id="PathCollection_6">
    <g clip-path="url(#pfa96962a15)">
     <use style="fill:#0000ff;stroke:#0000ff;" x="177.726266741" xlink:href="#m79ec4dcbdc" y="251.71594116"/>
    </g>
   </g>
   <g id="line2d_1">
    <path clip-path="url(#pfa96962a15)" d="M 153.201258 51.913435 
L 159.068788 52.066892 
L 164.920237 52.526841 
L 170.739564 53.292022 
L 176.51082 54.360337 
L 182.218187 55.728859 
L 187.84602 57.393836 
L 193.378894 59.350705 
L 198.801643 61.594102 
L 204.099406 64.117878 
L 209.25766 66.915115 
L 214.262267 69.978148 
L 219.099511 73.298579 
L 223.756132 76.867308 
L 228.219367 80.674553 
L 232.476982 84.70988 
L 236.517308 88.962226 
L 240.329271 93.419938 
L 243.902422 98.070796 
L 247.226967 102.902053 
L 250.293795 107.900468 
L 253.094498 113.052338 
L 255.621401 118.343545 
L 257.867578 123.759584 
L 259.826871 129.285611 
L 261.493911 134.90648 
L 262.864129 140.606783 
L 263.933768 146.370897 
L 264.699897 152.183023 
L 265.160416 158.02723 
L 265.314062 163.8875 
L 265.160416 169.74777 
L 264.699897 175.591977 
L 263.933768 181.404103 
L 262.864129 187.168217 
L 261.493911 192.86852 
L 259.826871 198.489389 
L 257.867578 204.015416 
L 255.621401 209.431455 
L 253.094498 214.722662 
L 250.293795 219.874532 
L 247.226967 224.872947 
L 243.902422 229.704204 
L 240.329271 234.355062 
L 236.517308 238.812774 
L 232.476982 243.06512 
L 228.219367 247.100447 
L 223.756132 250.907692 
L 219.099511 254.476421 
L 214.262267 257.796852 
L 209.25766 260.859885 
L 204.099406 263.657122 
L 198.801643 266.180898 
L 193.378894 268.424295 
L 187.84602 270.381164 
L 182.218187 272.046141 
L 176.51082 273.414663 
L 170.739564 274.482978 
L 164.920237 275.248159 
L 159.068788 275.708108 
L 153.201258 275.861565 
L 147.333727 275.708108 
L 141.482278 275.248159 
L 135.662951 274.482978 
L 129.891695 273.414663 
L 124.184328 272.046141 
L 118.556496 270.381164 
L 113.023622 268.424295 
L 107.600872 266.180898 
L 102.303109 263.657122 
L 97.144855 260.859885 
L 92.140248 257.796852 
L 87.303004 254.476421 
L 82.646383 250.907692 
L 78.183148 247.100447 
L 73.925533 243.06512 
L 69.885207 238.812774 
L 66.073244 234.355062 
L 62.500093 229.704204 
L 59.175548 224.872947 
L 56.10872 219.874532 
L 53.308017 214.722662 
L 50.781114 209.431455 
L 48.534937 204.015416 
L 46.575644 198.489389 
L 44.908604 192.86852 
L 43.538387 187.168217 
L 42.468747 181.404103 
L 41.702618 175.591977 
L 41.242099 169.74777 
L 41.088453 163.8875 
L 41.242099 158.02723 
L 41.702618 152.183023 
L 42.468747 146.370897 
L 43.538387 140.606783 
L 44.908604 134.90648 
L 46.575644 129.285611 
L 48.534937 123.759584 
L 50.781114 118.343545 
L 53.308017 113.052338 
L 56.10872 107.900468 
L 59.175548 102.902053 
L 62.500093 98.070796 
L 66.073244 93.419938 
L 69.885207 88.962226 
L 73.925533 84.70988 
L 78.183148 80.674553 
L 82.646383 76.867308 
L 87.303004 73.298579 
L 92.140248 69.978148 
L 97.144855 66.915115 
L 102.303109 64.117878 
L 107.600872 61.594102 
L 113.023622 59.350705 
L 118.556496 57.393836 
L 124.184328 55.728859 
L 129.891695 54.360337 
L 135.662951 53.292022 
L 141.482278 52.526841 
L 147.333727 52.066892 
L 153.201258 51.913435 
L 153.201258 51.913435 
" style="fill:none;stroke:#000000;stroke-linecap:square;"/>
   </g>
   <g id="line2d_2">
    <defs>
     <path d="M -3 0 
L 3 0 
M 0 3 
L 0 -3 
" id="m92fa25fb47" style="stroke:#000000;stroke-width:0.5;"/>
    </defs>
    <g clip-path="url(#pfa96962a15)">
     <use style="stroke:#000000;stroke-width:0.5;" x="153.201257575" xlink:href="#m92fa25fb47" y="62.0987132669"/>
     <use style="stroke:#000000;stroke-width:0.5;" x="153.201257575" xlink:href="#m92fa25fb47" y="73.0586652884"/>
     <use style="stroke:#000000;stroke-width:0.5;" x="153.201257575" xlink:href="#m92fa25fb47" y="84.709879586"/>
     <use style="stroke:#000000;stroke-width:0.5;" x="153.201257575" xlink:href="#m92fa25fb47" y="96.9636833838"/>
     <use style="stroke:#000000;stroke-width:0.5;" x="153.201257575" xlink:href="#m92fa25fb47" y="109.726817836"/>
     <use style="stroke:#000000;stroke-width:0.5;" x="153.201257575" xlink:href="#m92fa25fb47" y="122.902147782"/>
     <use style="stroke:#000000;stroke-width:0.5;" x="153.201257575" xlink:href="#m92fa25fb47" y="136.389401006"/>
     <use style="stroke:#000000;stroke-width:0.5;" x="153.201257575" xlink:href="#m92fa25fb47" y="150.085931368"/>
     <use style="stroke:#000000;stroke-width:0.5;" x="153.201257575" xlink:href="#m92fa25fb47" y="163.8875"/>
    </g>
   </g>
   <g id="line2d_3">
    <g clip-path="url(#pfa96962a15)">
     <use style="stroke:#000000;stroke-width:0.5;" x="255.116164562" xlink:href="#m92fa25fb47" y="163.8875"/>
     <use style="stroke:#000000;stroke-width:0.5;" x="244.142632735" xlink:href="#m92fa25fb47" y="163.8875"/>
     <use style="stroke:#000000;stroke-width:0.5;" x="232.476982131" xlink:href="#m92fa25fb47" y="163.8875"/>
     <use style="stroke:#000000;stroke-width:0.5;" x="220.207995395" xlink:href="#m92fa25fb47" y="163.8875"/>
     <use style="stroke:#000000;stroke-width:0.5;" x="207.429046925" xlink:href="#m92fa25fb47" y="163.8875"/>
     <use style="stroke:#000000;stroke-width:0.5;" x="194.237392234" xlink:href="#m92fa25fb47" y="163.8875"/>
     <use style="stroke:#000000;stroke-width:0.5;" x="180.73342778" xlink:href="#m92fa25fb47" y="163.8875"/>
     <use style="stroke:#000000;stroke-width:0.5;" x="167.019926886" xlink:href="#m92fa25fb47" y="163.8875"/>
    </g>
   </g>
   <g id="line2d_4">
    <g clip-path="url(#pfa96962a15)">
     <use style="stroke:#000000;stroke-width:0.5;" x="153.201257575" xlink:href="#m92fa25fb47" y="265.676286733"/>
     <use style="stroke:#000000;stroke-width:0.5;" x="153.201257575" xlink:href="#m92fa25fb47" y="254.716334712"/>
     <use style="stroke:#000000;stroke-width:0.5;" x="153.201257575" xlink:href="#m92fa25fb47" y="243.065120414"/>
     <use style="stroke:#000000;stroke-width:0.5;" x="153.201257575" xlink:href="#m92fa25fb47" y="230.811316616"/>
     <use style="stroke:#000000;stroke-width:0.5;" x="153.201257575" xlink:href="#m92fa25fb47" y="218.048182164"/>
     <use style="stroke:#000000;stroke-width:0.5;" x="153.201257575" xlink:href="#m92fa25fb47" y="204.872852218"/>
     <use style="stroke:#000000;stroke-width:0.5;" x="153.201257575" xlink:href="#m92fa25fb47" y="191.385598994"/>
     <use style="stroke:#000000;stroke-width:0.5;" x="153.201257575" xlink:href="#m92fa25fb47" y="177.689068632"/>
    </g>
   </g>
   <g id="line2d_5">
    <g clip-path="url(#pfa96962a15)">
     <use style="stroke:#000000;stroke-width:0.5;" x="51.2863505886" xlink:href="#m92fa25fb47" y="163.8875"/>
     <use style="stroke:#000000;stroke-width:0.5;" x="62.2598824157" xlink:href="#m92fa25fb47" y="163.8875"/>
     <use style="stroke:#000000;stroke-width:0.5;" x="73.9255330196" xlink:href="#m92fa25fb47" y="163.8875"/>
     <use style="stroke:#000000;stroke-width:0.5;" x="86.1945197553" xlink:href="#m92fa25fb47" y="163.8875"/>
     <use style="stroke:#000000;stroke-width:0.5;" x="98.9734682256" xlink:href="#m92fa25fb47" y="163.8875"/>
     <use style="stroke:#000000;stroke-width:0.5;" x="112.165122917" xlink:href="#m92fa25fb47" y="163.8875"/>
     <use style="stroke:#000000;stroke-width:0.5;" x="125.669087371" xlink:href="#m92fa25fb47" y="163.8875"/>
     <use style="stroke:#000000;stroke-width:0.5;" x="139.382588264" xlink:href="#m92fa25fb47" y="163.8875"/>
    </g>
   </g>
   <g id="line2d_6">
    <path clip-path="url(#pfa96962a15)" d="M 153.201258 51.913435 
L 153.201258 52.894845 
L 153.201258 53.884706 
L 153.201258 54.882945 
" style="fill:none;stroke:#000000;stroke-linecap:square;"/>
   </g>
   <g id="line2d_7">
    <path clip-path="url(#pfa96962a15)" d="M 172.669442 53.614573 
L 172.498811 54.581072 
L 172.32671 55.555896 
L 172.153153 56.53897 
" style="fill:none;stroke:#000000;stroke-linecap:square;"/>
   </g>
   <g id="line2d_8">
    <path clip-path="url(#pfa96962a15)" d="M 191.546095 58.666298 
L 191.210018 59.588521 
L 190.871045 60.518687 
L 190.529205 61.456724 
" style="fill:none;stroke:#000000;stroke-linecap:square;"/>
   </g>
   <g id="line2d_9">
    <path clip-path="url(#pfa96962a15)" d="M 209.25766 66.915115 
L 208.766347 67.765041 
L 208.270803 68.622286 
L 207.771065 69.486787 
" style="fill:none;stroke:#000000;stroke-linecap:square;"/>
   </g>
   <g id="line2d_10">
    <path clip-path="url(#pfa96962a15)" d="M 225.265979 78.11039 
L 224.63436 78.862193 
L 223.997301 79.620471 
L 223.35485 80.385167 
" style="fill:none;stroke:#000000;stroke-linecap:square;"/>
   </g>
   <g id="line2d_11">
    <path clip-path="url(#pfa96962a15)" d="M 239.084649 91.911959 
L 238.331914 92.542796 
L 237.572696 93.179067 
L 236.807054 93.820723 
" style="fill:none;stroke:#000000;stroke-linecap:square;"/>
   </g>
   <g id="line2d_12">
    <path clip-path="url(#pfa96962a15)" d="M 250.293795 107.900468 
L 249.442816 108.391172 
L 248.584509 108.886103 
L 247.718937 109.385223 
" style="fill:none;stroke:#000000;stroke-linecap:square;"/>
   </g>
   <g id="line2d_13">
    <path clip-path="url(#pfa96962a15)" d="M 258.552833 125.590114 
L 257.629467 125.925776 
L 256.698149 126.264329 
L 255.758949 126.605747 
" style="fill:none;stroke:#000000;stroke-linecap:square;"/>
   </g>
   <g id="line2d_14">
    <path clip-path="url(#pfa96962a15)" d="M 263.610817 144.443408 
L 262.64312 144.613828 
L 261.667089 144.785715 
L 260.682797 144.959058 
" style="fill:none;stroke:#000000;stroke-linecap:square;"/>
   </g>
   <g id="line2d_15">
    <path clip-path="url(#pfa96962a15)" d="M 265.314062 163.8875 
L 264.331437 163.8875 
L 263.340349 163.8875 
L 262.340873 163.8875 
" style="fill:none;stroke:#000000;stroke-linecap:square;"/>
   </g>
   <g id="line2d_16">
    <path clip-path="url(#pfa96962a15)" d="M 263.610817 183.331592 
L 262.64312 183.161172 
L 261.667089 182.989285 
L 260.682797 182.815942 
" style="fill:none;stroke:#000000;stroke-linecap:square;"/>
   </g>
   <g id="line2d_17">
    <path clip-path="url(#pfa96962a15)" d="M 258.552833 202.184886 
L 257.629467 201.849224 
L 256.698149 201.510671 
L 255.758949 201.169253 
" style="fill:none;stroke:#000000;stroke-linecap:square;"/>
   </g>
   <g id="line2d_18">
    <path clip-path="url(#pfa96962a15)" d="M 250.293795 219.874532 
L 249.442816 219.383828 
L 248.584509 218.888897 
L 247.718937 218.389777 
" style="fill:none;stroke:#000000;stroke-linecap:square;"/>
   </g>
   <g id="line2d_19">
    <path clip-path="url(#pfa96962a15)" d="M 239.084649 235.863041 
L 238.331914 235.232204 
L 237.572696 234.595933 
L 236.807054 233.954277 
" style="fill:none;stroke:#000000;stroke-linecap:square;"/>
   </g>
   <g id="line2d_20">
    <path clip-path="url(#pfa96962a15)" d="M 225.265979 249.66461 
L 224.63436 248.912807 
L 223.997301 248.154529 
L 223.35485 247.389833 
" style="fill:none;stroke:#000000;stroke-linecap:square;"/>
   </g>
   <g id="line2d_21">
    <path clip-path="url(#pfa96962a15)" d="M 209.25766 260.859885 
L 208.766347 260.009959 
L 208.270803 259.152714 
L 207.771065 258.288213 
" style="fill:none;stroke:#000000;stroke-linecap:square;"/>
   </g>
   <g id="line2d_22">
    <path clip-path="url(#pfa96962a15)" d="M 191.546095 269.108702 
L 191.210018 268.186479 
L 190.871045 267.256313 
L 190.529205 266.318276 
" style="fill:none;stroke:#000000;stroke-linecap:square;"/>
   </g>
   <g id="line2d_23">
    <path clip-path="url(#pfa96962a15)" d="M 172.669442 274.160427 
L 172.498811 273.193928 
L 172.32671 272.219104 
L 172.153153 271.23603 
" style="fill:none;stroke:#000000;stroke-linecap:square;"/>
   </g>
   <g id="line2d_24">
    <path clip-path="url(#pfa96962a15)" d="M 153.201258 275.861565 
L 153.201258 274.880155 
L 153.201258 273.890294 
L 153.201258 272.892055 
" style="fill:none;stroke:#000000;stroke-linecap:square;"/>
   </g>
   <g id="line2d_25">
    <path clip-path="url(#pfa96962a15)" d="M 133.733073 274.160427 
L 133.903704 273.193928 
L 134.075805 272.219104 
L 134.249362 271.23603 
" style="fill:none;stroke:#000000;stroke-linecap:square;"/>
   </g>
   <g id="line2d_26">
    <path clip-path="url(#pfa96962a15)" d="M 114.85642 269.108702 
L 115.192498 268.186479 
L 115.53147 267.256313 
L 115.873311 266.318276 
" style="fill:none;stroke:#000000;stroke-linecap:square;"/>
   </g>
   <g id="line2d_27">
    <path clip-path="url(#pfa96962a15)" d="M 97.144855 260.859885 
L 97.636168 260.009959 
L 98.131712 259.152714 
L 98.63145 258.288213 
" style="fill:none;stroke:#000000;stroke-linecap:square;"/>
   </g>
   <g id="line2d_28">
    <path clip-path="url(#pfa96962a15)" d="M 81.136536 249.66461 
L 81.768155 248.912807 
L 82.405214 248.154529 
L 83.047665 247.389833 
" style="fill:none;stroke:#000000;stroke-linecap:square;"/>
   </g>
   <g id="line2d_29">
    <path clip-path="url(#pfa96962a15)" d="M 67.317866 235.863041 
L 68.070601 235.232204 
L 68.829819 234.595933 
L 69.595462 233.954277 
" style="fill:none;stroke:#000000;stroke-linecap:square;"/>
   </g>
   <g id="line2d_30">
    <path clip-path="url(#pfa96962a15)" d="M 56.10872 219.874532 
L 56.959699 219.383828 
L 57.818007 218.888897 
L 58.683578 218.389777 
" style="fill:none;stroke:#000000;stroke-linecap:square;"/>
   </g>
   <g id="line2d_31">
    <path clip-path="url(#pfa96962a15)" d="M 47.849682 202.184886 
L 48.773048 201.849224 
L 49.704366 201.510671 
L 50.643566 201.169253 
" style="fill:none;stroke:#000000;stroke-linecap:square;"/>
   </g>
   <g id="line2d_32">
    <path clip-path="url(#pfa96962a15)" d="M 42.791698 183.331592 
L 43.759395 183.161172 
L 44.735427 182.989285 
L 45.719718 182.815942 
" style="fill:none;stroke:#000000;stroke-linecap:square;"/>
   </g>
   <g id="line2d_33">
    <path clip-path="url(#pfa96962a15)" d="M 41.088453 163.8875 
L 42.071078 163.8875 
L 43.062166 163.8875 
L 44.061642 163.8875 
" style="fill:none;stroke:#000000;stroke-linecap:square;"/>
   </g>
   <g id="line2d_34">
    <path clip-path="url(#pfa96962a15)" d="M 42.791698 144.443408 
L 43.759395 144.613828 
L 44.735427 144.785715 
L 45.719718 144.959058 
" style="fill:none;stroke:#000000;stroke-linecap:square;"/>
   </g>
   <g id="line2d_35">
    <path clip-path="url(#pfa96962a15)" d="M 47.849682 125.590114 
L 48.773048 125.925776 
L 49.704366 126.264329 
L 50.643566 126.605747 
" style="fill:none;stroke:#000000;stroke-linecap:square;"/>
   </g>
   <g id="line2d_36">
    <path clip-path="url(#pfa96962a15)" d="M 56.10872 107.900468 
L 56.959699 108.391172 
L 57.818007 108.886103 
L 58.683578 109.385223 
" style="fill:none;stroke:#000000;stroke-linecap:square;"/>
   </g>
   <g id="line2d_37">
    <path clip-path="url(#pfa96962a15)" d="M 67.317866 91.911959 
L 68.070601 92.542796 
L 68.829819 93.179067 
L 69.595462 93.820723 
" style="fill:none;stroke:#000000;stroke-linecap:square;"/>
   </g>
   <g id="line2d_38">
    <path clip-path="url(#pfa96962a15)" d="M 81.136536 78.11039 
L 81.768155 78.862193 
L 82.405214 79.620471 
L 83.047665 80.385167 
" style="fill:none;stroke:#000000;stroke-linecap:square;"/>
   </g>
   <g id="line2d_39">
    <path clip-path="url(#pfa96962a15)" d="M 97.144855 66.915115 
L 97.636168 67.765041 
L 98.131712 68.622286 
L 98.63145 69.486787 
" style="fill:none;stroke:#000000;stroke-linecap:square;"/>
   </g>
   <g id="line2d_40">
    <path clip-path="url(#pfa96962a15)" d="M 114.85642 58.666298 
L 115.192498 59.588521 
L 115.53147 60.518687 
L 115.873311 61.456724 
" style="fill:none;stroke:#000000;stroke-linecap:square;"/>
   </g>
   <g id="line2d_41">
    <path clip-path="url(#pfa96962a15)" d="M 133.733073 53.614573 
L 133.903704 54.581072 
L 134.075805 55.555896 
L 134.249362 56.53897 
" style="fill:none;stroke:#000000;stroke-linecap:square;"/>
   </g>
   <g id="line2d_42">
    <path clip-path="url(#pfa96962a15)" d="M 156.264079 251.83371 
L 156.361234 252.413726 
L 156.511334 252.985635 
L 156.714255 253.547074 
L 156.969654 254.095671 
L 157.276959 254.629057 
L 157.635367 255.144875 
L 158.043837 255.640796 
L 158.501091 256.114527 
L 159.005607 256.563828 
L 159.555623 256.986528 
L 160.149139 257.380537 
L 160.783918 257.743862 
L 161.457494 258.074623 
L 162.167178 258.371066 
L 162.910072 258.631583 
L 163.683074 258.854722 
L 164.4829 259.0392 
L 165.306096 259.183921 
L 166.149056 259.287984 
L 167.008044 259.350691 
L 167.879217 259.371563 
L 168.758643 259.350338 
L 169.642333 259.286982 
L 170.526259 259.181688 
L 171.406387 259.034882 
L 172.278696 258.847213 
L 173.13921 258.619558 
L 173.984021 258.353007 
L 174.809315 258.048865 
L 175.611395 257.708632 
L 176.386704 257.333997 
L 177.131846 256.926825 
L 177.843606 256.489138 
L 178.518966 256.023101 
L 179.155118 255.531008 
L 179.749484 255.015257 
L 180.299717 254.478343 
L 180.803716 253.922827 
L 181.259629 253.351329 
L 181.665859 252.766506 
L 182.021063 252.171033 
L 182.32415 251.56759 
L 182.574287 250.958845 
L 182.770886 250.347439 
L 182.913604 249.735974 
L 183.002334 249.126999 
L 183.0372 248.523002 
L 183.018546 247.926393 
L 182.946926 247.339506 
L 182.823098 246.76458 
L 182.648012 246.203762 
L 182.422795 245.659095 
L 182.148748 245.132517 
L 181.827329 244.625857 
L 181.460144 244.140832 
L 181.04894 243.679044 
L 180.595588 243.241983 
L 180.102079 242.831022 
L 179.57051 242.447417 
L 179.003075 242.092313 
L 178.402061 241.766738 
L 177.769832 241.471609 
L 177.108823 241.207732 
L 176.421536 240.975802 
L 175.710527 240.776406 
L 174.978401 240.610028 
L 174.227805 240.477044 
L 173.461421 240.377732 
L 172.68196 240.312266 
L 171.892156 240.280724 
L 171.094757 240.283088 
L 170.292525 240.319242 
L 169.488224 240.38898 
L 168.68462 240.492003 
L 167.884471 240.627922 
L 167.090524 240.796257 
L 166.30551 240.996442 
L 165.532137 241.227823 
L 164.773086 241.48966 
L 164.031004 241.781126 
L 163.308497 242.101312 
L 162.60813 242.449222 
L 161.932415 242.823777 
L 161.283805 243.223817 
L 160.664693 243.648097 
L 160.0774 244.09529 
L 159.524169 244.563989 
L 159.007159 245.052706 
L 158.528437 245.559874 
L 158.089972 246.083847 
L 157.693623 246.622902 
L 157.341133 247.17524 
L 157.034122 247.738992 
L 156.774074 248.312214 
L 156.562332 248.892899 
L 156.400088 249.478972 
L 156.288371 250.068302 
L 156.228041 250.6587 
L 156.21978 251.247929 
L 156.264079 251.83371 
" style="fill:none;stroke:#0000ff;stroke-linecap:square;"/>
   </g>
   <g id="line2d_43">
    <path clip-path="url(#pfa96962a15)" d="M 170.055481 253.578399 
L 170.145842 253.896949 
L 170.266327 254.207295 
L 170.41662 254.508154 
L 170.596278 254.798266 
L 170.804734 255.076394 
L 171.041294 255.341336 
L 171.30514 255.591931 
L 171.595326 255.827061 
L 171.910789 256.045661 
L 172.250342 256.246726 
L 172.612683 256.429313 
L 172.996398 256.592552 
L 173.399967 256.735649 
L 173.821766 256.857893 
L 174.260081 256.95866 
L 174.713106 257.03742 
L 175.17896 257.09374 
L 175.655691 257.127288 
L 176.141286 257.137835 
L 176.633682 257.125263 
L 177.130777 257.08956 
L 177.630439 257.030825 
L 178.130521 256.949269 
L 178.628868 256.845213 
L 179.123333 256.719085 
L 179.611785 256.571424 
L 180.092122 256.402871 
L 180.562285 256.214169 
L 181.020263 256.006155 
L 181.46411 255.779762 
L 181.89195 255.536005 
L 182.301991 255.275981 
L 182.69253 255.000858 
L 183.061962 254.711872 
L 183.408788 254.410315 
L 183.731624 254.097532 
L 184.0292 253.774908 
L 184.30037 253.443865 
L 184.544116 253.105848 
L 184.759547 252.762325 
L 184.945905 252.414769 
L 185.102562 252.064661 
L 185.229027 251.713474 
L 185.324939 251.36267 
L 185.39007 251.013692 
L 185.424321 250.667959 
L 185.42772 250.326858 
L 185.400424 249.991738 
L 185.342706 249.663908 
L 185.254961 249.34463 
L 185.137697 249.035115 
L 184.991529 248.73652 
L 184.817178 248.449943 
L 184.615466 248.176421 
L 184.387306 247.91693 
L 184.133704 247.672379 
L 183.855747 247.443609 
L 183.554602 247.231396 
L 183.231507 247.036442 
L 182.88777 246.859384 
L 182.524761 246.700783 
L 182.143904 246.561132 
L 181.746677 246.440855 
L 181.334603 246.3403 
L 180.909248 246.25975 
L 180.47221 246.199415 
L 180.025122 246.159436 
L 179.569639 246.139887 
L 179.107439 246.140772 
L 178.640216 246.162032 
L 178.169675 246.203537 
L 177.697527 246.265097 
L 177.225485 246.346456 
L 176.75526 246.447297 
L 176.288555 246.567239 
L 175.827061 246.705844 
L 175.372454 246.862613 
L 174.926386 247.03699 
L 174.490487 247.228364 
L 174.066354 247.436067 
L 173.655552 247.659379 
L 173.259605 247.897528 
L 172.879994 248.14969 
L 172.518152 248.414994 
L 172.175459 248.692521 
L 171.853236 248.981307 
L 171.552743 249.280344 
L 171.275175 249.588584 
L 171.021652 249.904939 
L 170.793219 250.228284 
L 170.590843 250.557461 
L 170.415401 250.89128 
L 170.267685 251.228523 
L 170.148388 251.567946 
L 170.058109 251.908285 
L 169.997342 252.248255 
L 169.966475 252.586561 
L 169.965786 252.921895 
L 169.995439 253.252946 
L 170.055481 253.578399 
" style="fill:none;stroke:#0000ff;stroke-linecap:square;"/>
   </g>
   <g id="legend_1">
    <g id="patch_2">
     <path d="M 188.516791 100.5375 
L 345.218041 100.5375 
L 345.218041 7.2 
L 188.516791 7.2 
z
" style="fill:#ffffff;stroke:#000000;stroke-linejoin:miter;"/>
    </g>
    <g id="PathCollection_7">
     <path d="M 196.916791 20.204193 
C 197.509803 20.204193 198.078607 19.968587 198.49793 19.549264 
C 198.917253 19.129941 199.152859 18.561137 199.152859 17.968125 
C 199.152859 17.375113 198.917253 16.806309 198.49793 16.386986 
C 198.078607 15.967663 197.509803 15.732057 196.916791 15.732057 
C 196.323779 15.732057 195.754975 15.967663 195.335652 16.386986 
C 194.916329 16.806309 194.680723 17.375113 194.680723 17.968125 
C 194.680723 18.561137 194.916329 19.129941 195.335652 19.549264 
C 195.754975 19.968587 196.323779 20.204193 196.916791 20.204193 
L 196.916791 20.204193 
z
" style="fill:none;stroke:#008000;"/>
     <path d="M 205.316791 19.154193 
C 205.909803 19.154193 206.478607 18.918587 206.89793 18.499264 
C 207.317253 18.079941 207.552859 17.511137 207.552859 16.918125 
C 207.552859 16.325113 207.317253 15.756309 206.89793 15.336986 
C 206.478607 14.917663 205.909803 14.682057 205.316791 14.682057 
C 204.723779 14.682057 204.154975 14.917663 203.735652 15.336986 
C 203.316329 15.756309 203.080723 16.325113 203.080723 16.918125 
C 203.080723 17.511137 203.316329 18.079941 203.735652 18.499264 
C 204.154975 18.918587 204.723779 19.154193 205.316791 19.154193 
L 205.316791 19.154193 
z
" style="fill:none;stroke:#008000;"/>
     <path d="M 213.716791 20.729193 
C 214.309803 20.729193 214.878607 20.493587 215.29793 20.074264 
C 215.717253 19.654941 215.952859 19.086137 215.952859 18.493125 
C 215.952859 17.900113 215.717253 17.331309 215.29793 16.911986 
C 214.878607 16.492663 214.309803 16.257057 213.716791 16.257057 
C 213.123779 16.257057 212.554975 16.492663 212.135652 16.911986 
C 211.716329 17.331309 211.480723 17.900113 211.480723 18.493125 
C 211.480723 19.086137 211.716329 19.654941 212.135652 20.074264 
C 212.554975 20.493587 213.123779 20.729193 213.716791 20.729193 
L 213.716791 20.729193 
z
" style="fill:none;stroke:#008000;"/>
    </g>
    <g id="text_1">
     <!-- Z45_low_geo -->
     <defs>
      <path d="M 5.609375 72.90625 
L 62.890625 72.90625 
L 62.890625 65.375 
L 16.796875 8.296875 
L 64.015625 8.296875 
L 64.015625 0 
L 4.5 0 
L 4.5 7.515625 
L 50.59375 64.59375 
L 5.609375 64.59375 
z
" id="BitstreamVeraSans-Roman-5a"/>
      <path d="M 37.796875 64.3125 
L 12.890625 25.390625 
L 37.796875 25.390625 
z
M 35.203125 72.90625 
L 47.609375 72.90625 
L 47.609375 25.390625 
L 58.015625 25.390625 
L 58.015625 17.1875 
L 47.609375 17.1875 
L 47.609375 0 
L 37.796875 0 
L 37.796875 17.1875 
L 4.890625 17.1875 
L 4.890625 26.703125 
z
" id="BitstreamVeraSans-Roman-34"/>
      <path d="M 50.984375 -16.609375 
L 50.984375 -23.578125 
L -0.984375 -23.578125 
L -0.984375 -16.609375 
z
" id="BitstreamVeraSans-Roman-5f"/>
      <path d="M 10.796875 72.90625 
L 49.515625 72.90625 
L 49.515625 64.59375 
L 19.828125 64.59375 
L 19.828125 46.734375 
Q 21.96875 47.46875 24.109375 47.828125 
Q 26.265625 48.1875 28.421875 48.1875 
Q 40.625 48.1875 47.75 41.5 
Q 54.890625 34.8125 54.890625 23.390625 
Q 54.890625 11.625 47.5625 5.09375 
Q 40.234375 -1.421875 26.90625 -1.421875 
Q 22.3125 -1.421875 17.546875 -0.640625 
Q 12.796875 0.140625 7.71875 1.703125 
L 7.71875 11.625 
Q 12.109375 9.234375 16.796875 8.0625 
Q 21.484375 6.890625 26.703125 6.890625 
Q 35.15625 6.890625 40.078125 11.328125 
Q 45.015625 15.765625 45.015625 23.390625 
Q 45.015625 31 40.078125 35.4375 
Q 35.15625 39.890625 26.703125 39.890625 
Q 22.75 39.890625 18.8125 39.015625 
Q 14.890625 38.140625 10.796875 36.28125 
z
" id="BitstreamVeraSans-Roman-35"/>
      <path d="M 30.609375 48.390625 
Q 23.390625 48.390625 19.1875 42.75 
Q 14.984375 37.109375 14.984375 27.296875 
Q 14.984375 17.484375 19.15625 11.84375 
Q 23.34375 6.203125 30.609375 6.203125 
Q 37.796875 6.203125 41.984375 11.859375 
Q 46.1875 17.53125 46.1875 27.296875 
Q 46.1875 37.015625 41.984375 42.703125 
Q 37.796875 48.390625 30.609375 48.390625 
M 30.609375 56 
Q 42.328125 56 49.015625 48.375 
Q 55.71875 40.765625 55.71875 27.296875 
Q 55.71875 13.875 49.015625 6.21875 
Q 42.328125 -1.421875 30.609375 -1.421875 
Q 18.84375 -1.421875 12.171875 6.21875 
Q 5.515625 13.875 5.515625 27.296875 
Q 5.515625 40.765625 12.171875 48.375 
Q 18.84375 56 30.609375 56 
" id="BitstreamVeraSans-Roman-6f"/>
      <path d="M 9.421875 75.984375 
L 18.40625 75.984375 
L 18.40625 0 
L 9.421875 0 
z
" id="BitstreamVeraSans-Roman-6c"/>
      <path d="M 56.203125 29.59375 
L 56.203125 25.203125 
L 14.890625 25.203125 
Q 15.484375 15.921875 20.484375 11.0625 
Q 25.484375 6.203125 34.421875 6.203125 
Q 39.59375 6.203125 44.453125 7.46875 
Q 49.3125 8.734375 54.109375 11.28125 
L 54.109375 2.78125 
Q 49.265625 0.734375 44.1875 -0.34375 
Q 39.109375 -1.421875 33.890625 -1.421875 
Q 20.796875 -1.421875 13.15625 6.1875 
Q 5.515625 13.8125 5.515625 26.8125 
Q 5.515625 40.234375 12.765625 48.109375 
Q 20.015625 56 32.328125 56 
Q 43.359375 56 49.78125 48.890625 
Q 56.203125 41.796875 56.203125 29.59375 
M 47.21875 32.234375 
Q 47.125 39.59375 43.09375 43.984375 
Q 39.0625 48.390625 32.421875 48.390625 
Q 24.90625 48.390625 20.390625 44.140625 
Q 15.875 39.890625 15.1875 32.171875 
z
" id="BitstreamVeraSans-Roman-65"/>
      <path d="M 4.203125 54.6875 
L 13.1875 54.6875 
L 24.421875 12.015625 
L 35.59375 54.6875 
L 46.1875 54.6875 
L 57.421875 12.015625 
L 68.609375 54.6875 
L 77.59375 54.6875 
L 63.28125 0 
L 52.6875 0 
L 40.921875 44.828125 
L 29.109375 0 
L 18.5 0 
z
" id="BitstreamVeraSans-Roman-77"/>
      <path d="M 45.40625 27.984375 
Q 45.40625 37.75 41.375 43.109375 
Q 37.359375 48.484375 30.078125 48.484375 
Q 22.859375 48.484375 18.828125 43.109375 
Q 14.796875 37.75 14.796875 27.984375 
Q 14.796875 18.265625 18.828125 12.890625 
Q 22.859375 7.515625 30.078125 7.515625 
Q 37.359375 7.515625 41.375 12.890625 
Q 45.40625 18.265625 45.40625 27.984375 
M 54.390625 6.78125 
Q 54.390625 -7.171875 48.1875 -13.984375 
Q 42 -20.796875 29.203125 -20.796875 
Q 24.46875 -20.796875 20.265625 -20.09375 
Q 16.0625 -19.390625 12.109375 -17.921875 
L 12.109375 -9.1875 
Q 16.0625 -11.328125 19.921875 -12.34375 
Q 23.78125 -13.375 27.78125 -13.375 
Q 36.625 -13.375 41.015625 -8.765625 
Q 45.40625 -4.15625 45.40625 5.171875 
L 45.40625 9.625 
Q 42.625 4.78125 38.28125 2.390625 
Q 33.9375 0 27.875 0 
Q 17.828125 0 11.671875 7.65625 
Q 5.515625 15.328125 5.515625 27.984375 
Q 5.515625 40.671875 11.671875 48.328125 
Q 17.828125 56 27.875 56 
Q 33.9375 56 38.28125 53.609375 
Q 42.625 51.21875 45.40625 46.390625 
L 45.40625 54.6875 
L 54.390625 54.6875 
z
" id="BitstreamVeraSans-Roman-67"/>
     </defs>
     <g transform="translate(226.916791098 21.118125)scale(0.12 -0.12)">
      <use xlink:href="#BitstreamVeraSans-Roman-5a"/>
      <use x="68.505859375" xlink:href="#BitstreamVeraSans-Roman-34"/>
      <use x="132.12890625" xlink:href="#BitstreamVeraSans-Roman-35"/>
      <use x="195.751953125" xlink:href="#BitstreamVeraSans-Roman-5f"/>
      <use x="245.751953125" xlink:href="#BitstreamVeraSans-Roman-6c"/>
      <use x="273.53515625" xlink:href="#BitstreamVeraSans-Roman-6f"/>
      <use x="334.716796875" xlink:href="#BitstreamVeraSans-Roman-77"/>
      <use x="416.50390625" xlink:href="#BitstreamVeraSans-Roman-5f"/>
      <use x="466.50390625" xlink:href="#BitstreamVeraSans-Roman-67"/>
      <use x="529.98046875" xlink:href="#BitstreamVeraSans-Roman-65"/>
      <use x="591.50390625" xlink:href="#BitstreamVeraSans-Roman-6f"/>
     </g>
    </g>
    <g id="PathCollection_8">
     <path d="M 196.916791 38.151693 
C 197.509803 38.151693 198.078607 37.916087 198.49793 37.496764 
C 198.917253 37.077441 199.152859 36.508637 199.152859 35.915625 
C 199.152859 35.322613 198.917253 34.753809 198.49793 34.334486 
C 198.078607 33.915163 197.509803 33.679557 196.916791 33.679557 
C 196.323779 33.679557 195.754975 33.915163 195.335652 34.334486 
C 194.916329 34.753809 194.680723 35.322613 194.680723 35.915625 
C 194.680723 36.508637 194.916329 37.077441 195.335652 37.496764 
C 195.754975 37.916087 196.323779 38.151693 196.916791 38.151693 
z
" style="fill:#008000;stroke:#008000;"/>
     <path d="M 205.316791 37.101693 
C 205.909803 37.101693 206.478607 36.866087 206.89793 36.446764 
C 207.317253 36.027441 207.552859 35.458637 207.552859 34.865625 
C 207.552859 34.272613 207.317253 33.703809 206.89793 33.284486 
C 206.478607 32.865163 205.909803 32.629557 205.316791 32.629557 
C 204.723779 32.629557 204.154975 32.865163 203.735652 33.284486 
C 203.316329 33.703809 203.080723 34.272613 203.080723 34.865625 
C 203.080723 35.458637 203.316329 36.027441 203.735652 36.446764 
C 204.154975 36.866087 204.723779 37.101693 205.316791 37.101693 
z
" style="fill:#008000;stroke:#008000;"/>
     <path d="M 213.716791 38.676693 
C 214.309803 38.676693 214.878607 38.441087 215.29793 38.021764 
C 215.717253 37.602441 215.952859 37.033637 215.952859 36.440625 
C 215.952859 35.847613 215.717253 35.278809 215.29793 34.859486 
C 214.878607 34.440163 214.309803 34.204557 213.716791 34.204557 
C 213.123779 34.204557 212.554975 34.440163 212.135652 34.859486 
C 211.716329 35.278809 211.480723 35.847613 211.480723 36.440625 
C 211.480723 37.033637 211.716329 37.602441 212.135652 38.021764 
C 212.554975 38.441087 213.123779 38.676693 213.716791 38.676693 
z
" style="fill:#008000;stroke:#008000;"/>
    </g>
    <g id="text_2">
     <!-- Z45_low_geo -->
     <g transform="translate(226.916791098 39.065625)scale(0.12 -0.12)">
      <use xlink:href="#BitstreamVeraSans-Roman-5a"/>
      <use x="68.505859375" xlink:href="#BitstreamVeraSans-Roman-34"/>
      <use x="132.12890625" xlink:href="#BitstreamVeraSans-Roman-35"/>
      <use x="195.751953125" xlink:href="#BitstreamVeraSans-Roman-5f"/>
      <use x="245.751953125" xlink:href="#BitstreamVeraSans-Roman-6c"/>
      <use x="273.53515625" xlink:href="#BitstreamVeraSans-Roman-6f"/>
      <use x="334.716796875" xlink:href="#BitstreamVeraSans-Roman-77"/>
      <use x="416.50390625" xlink:href="#BitstreamVeraSans-Roman-5f"/>
      <use x="466.50390625" xlink:href="#BitstreamVeraSans-Roman-67"/>
      <use x="529.98046875" xlink:href="#BitstreamVeraSans-Roman-65"/>
      <use x="591.50390625" xlink:href="#BitstreamVeraSans-Roman-6f"/>
     </g>
    </g>
    <g id="PathCollection_9">
     <path d="M 196.916791 56.099193 
C 197.509803 56.099193 198.078607 55.863587 198.49793 55.444264 
C 198.917253 55.024941 199.152859 54.456137 199.152859 53.863125 
C 199.152859 53.270113 198.917253 52.701309 198.49793 52.281986 
C 198.078607 51.862663 197.509803 51.627057 196.916791 51.627057 
C 196.323779 51.627057 195.754975 51.862663 195.335652 52.281986 
C 194.916329 52.701309 194.680723 53.270113 194.680723 53.863125 
C 194.680723 54.456137 194.916329 55.024941 195.335652 55.444264 
C 195.754975 55.863587 196.323779 56.099193 196.916791 56.099193 
z
" style="fill:#ff0000;stroke:#ff0000;"/>
     <path d="M 205.316791 55.049193 
C 205.909803 55.049193 206.478607 54.813587 206.89793 54.394264 
C 207.317253 53.974941 207.552859 53.406137 207.552859 52.813125 
C 207.552859 52.220113 207.317253 51.651309 206.89793 51.231986 
C 206.478607 50.812663 205.909803 50.577057 205.316791 50.577057 
C 204.723779 50.577057 204.154975 50.812663 203.735652 51.231986 
C 203.316329 51.651309 203.080723 52.220113 203.080723 52.813125 
C 203.080723 53.406137 203.316329 53.974941 203.735652 54.394264 
C 204.154975 54.813587 204.723779 55.049193 205.316791 55.049193 
z
" style="fill:#ff0000;stroke:#ff0000;"/>
     <path d="M 213.716791 56.624193 
C 214.309803 56.624193 214.878607 56.388587 215.29793 55.969264 
C 215.717253 55.549941 215.952859 54.981137 215.952859 54.388125 
C 215.952859 53.795113 215.717253 53.226309 215.29793 52.806986 
C 214.878607 52.387663 214.309803 52.152057 213.716791 52.152057 
C 213.123779 52.152057 212.554975 52.387663 212.135652 52.806986 
C 211.716329 53.226309 211.480723 53.795113 211.480723 54.388125 
C 211.480723 54.981137 211.716329 55.549941 212.135652 55.969264 
C 212.554975 56.388587 213.123779 56.624193 213.716791 56.624193 
z
" style="fill:#ff0000;stroke:#ff0000;"/>
    </g>
    <g id="text_3">
     <!-- Z45_hem_tc -->
     <defs>
      <path d="M 52 44.1875 
Q 55.375 50.25 60.0625 53.125 
Q 64.75 56 71.09375 56 
Q 79.640625 56 84.28125 50.015625 
Q 88.921875 44.046875 88.921875 33.015625 
L 88.921875 0 
L 79.890625 0 
L 79.890625 32.71875 
Q 79.890625 40.578125 77.09375 44.375 
Q 74.3125 48.1875 68.609375 48.1875 
Q 61.625 48.1875 57.5625 43.546875 
Q 53.515625 38.921875 53.515625 30.90625 
L 53.515625 0 
L 44.484375 0 
L 44.484375 32.71875 
Q 44.484375 40.625 41.703125 44.40625 
Q 38.921875 48.1875 33.109375 48.1875 
Q 26.21875 48.1875 22.15625 43.53125 
Q 18.109375 38.875 18.109375 30.90625 
L 18.109375 0 
L 9.078125 0 
L 9.078125 54.6875 
L 18.109375 54.6875 
L 18.109375 46.1875 
Q 21.1875 51.21875 25.484375 53.609375 
Q 29.78125 56 35.6875 56 
Q 41.65625 56 45.828125 52.96875 
Q 50 49.953125 52 44.1875 
" id="BitstreamVeraSans-Roman-6d"/>
      <path d="M 18.3125 70.21875 
L 18.3125 54.6875 
L 36.8125 54.6875 
L 36.8125 47.703125 
L 18.3125 47.703125 
L 18.3125 18.015625 
Q 18.3125 11.328125 20.140625 9.421875 
Q 21.96875 7.515625 27.59375 7.515625 
L 36.8125 7.515625 
L 36.8125 0 
L 27.59375 0 
Q 17.1875 0 13.234375 3.875 
Q 9.28125 7.765625 9.28125 18.015625 
L 9.28125 47.703125 
L 2.6875 47.703125 
L 2.6875 54.6875 
L 9.28125 54.6875 
L 9.28125 70.21875 
z
" id="BitstreamVeraSans-Roman-74"/>
      <path d="M 54.890625 33.015625 
L 54.890625 0 
L 45.90625 0 
L 45.90625 32.71875 
Q 45.90625 40.484375 42.875 44.328125 
Q 39.84375 48.1875 33.796875 48.1875 
Q 26.515625 48.1875 22.3125 43.546875 
Q 18.109375 38.921875 18.109375 30.90625 
L 18.109375 0 
L 9.078125 0 
L 9.078125 75.984375 
L 18.109375 75.984375 
L 18.109375 46.1875 
Q 21.34375 51.125 25.703125 53.5625 
Q 30.078125 56 35.796875 56 
Q 45.21875 56 50.046875 50.171875 
Q 54.890625 44.34375 54.890625 33.015625 
" id="BitstreamVeraSans-Roman-68"/>
      <path d="M 48.78125 52.59375 
L 48.78125 44.1875 
Q 44.96875 46.296875 41.140625 47.34375 
Q 37.3125 48.390625 33.40625 48.390625 
Q 24.65625 48.390625 19.8125 42.84375 
Q 14.984375 37.3125 14.984375 27.296875 
Q 14.984375 17.28125 19.8125 11.734375 
Q 24.65625 6.203125 33.40625 6.203125 
Q 37.3125 6.203125 41.140625 7.25 
Q 44.96875 8.296875 48.78125 10.40625 
L 48.78125 2.09375 
Q 45.015625 0.34375 40.984375 -0.53125 
Q 36.96875 -1.421875 32.421875 -1.421875 
Q 20.0625 -1.421875 12.78125 6.34375 
Q 5.515625 14.109375 5.515625 27.296875 
Q 5.515625 40.671875 12.859375 48.328125 
Q 20.21875 56 33.015625 56 
Q 37.15625 56 41.109375 55.140625 
Q 45.0625 54.296875 48.78125 52.59375 
" id="BitstreamVeraSans-Roman-63"/>
     </defs>
     <g transform="translate(226.916791098 57.013125)scale(0.12 -0.12)">
      <use xlink:href="#BitstreamVeraSans-Roman-5a"/>
      <use x="68.505859375" xlink:href="#BitstreamVeraSans-Roman-34"/>
      <use x="132.12890625" xlink:href="#BitstreamVeraSans-Roman-35"/>
      <use x="195.751953125" xlink:href="#BitstreamVeraSans-Roman-5f"/>
      <use x="245.751953125" xlink:href="#BitstreamVeraSans-Roman-68"/>
      <use x="309.130859375" xlink:href="#BitstreamVeraSans-Roman-65"/>
      <use x="370.654296875" xlink:href="#BitstreamVeraSans-Roman-6d"/>
      <use x="468.06640625" xlink:href="#BitstreamVeraSans-Roman-5f"/>
      <use x="518.06640625" xlink:href="#BitstreamVeraSans-Roman-74"/>
      <use x="557.275390625" xlink:href="#BitstreamVeraSans-Roman-63"/>
     </g>
    </g>
    <g id="PathCollection_10">
     <path d="M 194.680723 74.046693 
L 199.152859 74.046693 
L 199.152859 69.574557 
L 194.680723 69.574557 
z
" style="fill:#0000ff;stroke:#0000ff;"/>
     <path d="M 203.080723 72.996693 
L 207.552859 72.996693 
L 207.552859 68.524557 
L 203.080723 68.524557 
z
" style="fill:#0000ff;stroke:#0000ff;"/>
     <path d="M 211.480723 74.571693 
L 215.952859 74.571693 
L 215.952859 70.099557 
L 211.480723 70.099557 
z
" style="fill:#0000ff;stroke:#0000ff;"/>
    </g>
    <g id="text_4">
     <!-- Z45_mag_tc_mean -->
     <defs>
      <path d="M 54.890625 33.015625 
L 54.890625 0 
L 45.90625 0 
L 45.90625 32.71875 
Q 45.90625 40.484375 42.875 44.328125 
Q 39.84375 48.1875 33.796875 48.1875 
Q 26.515625 48.1875 22.3125 43.546875 
Q 18.109375 38.921875 18.109375 30.90625 
L 18.109375 0 
L 9.078125 0 
L 9.078125 54.6875 
L 18.109375 54.6875 
L 18.109375 46.1875 
Q 21.34375 51.125 25.703125 53.5625 
Q 30.078125 56 35.796875 56 
Q 45.21875 56 50.046875 50.171875 
Q 54.890625 44.34375 54.890625 33.015625 
" id="BitstreamVeraSans-Roman-6e"/>
      <path d="M 34.28125 27.484375 
Q 23.390625 27.484375 19.1875 25 
Q 14.984375 22.515625 14.984375 16.5 
Q 14.984375 11.71875 18.140625 8.90625 
Q 21.296875 6.109375 26.703125 6.109375 
Q 34.1875 6.109375 38.703125 11.40625 
Q 43.21875 16.703125 43.21875 25.484375 
L 43.21875 27.484375 
z
M 52.203125 31.203125 
L 52.203125 0 
L 43.21875 0 
L 43.21875 8.296875 
Q 40.140625 3.328125 35.546875 0.953125 
Q 30.953125 -1.421875 24.3125 -1.421875 
Q 15.921875 -1.421875 10.953125 3.296875 
Q 6 8.015625 6 15.921875 
Q 6 25.140625 12.171875 29.828125 
Q 18.359375 34.515625 30.609375 34.515625 
L 43.21875 34.515625 
L 43.21875 35.40625 
Q 43.21875 41.609375 39.140625 45 
Q 35.0625 48.390625 27.6875 48.390625 
Q 23 48.390625 18.546875 47.265625 
Q 14.109375 46.140625 10.015625 43.890625 
L 10.015625 52.203125 
Q 14.9375 54.109375 19.578125 55.046875 
Q 24.21875 56 28.609375 56 
Q 40.484375 56 46.34375 49.84375 
Q 52.203125 43.703125 52.203125 31.203125 
" id="BitstreamVeraSans-Roman-61"/>
     </defs>
     <g transform="translate(226.916791098 74.960625)scale(0.12 -0.12)">
      <use xlink:href="#BitstreamVeraSans-Roman-5a"/>
      <use x="68.505859375" xlink:href="#BitstreamVeraSans-Roman-34"/>
      <use x="132.12890625" xlink:href="#BitstreamVeraSans-Roman-35"/>
      <use x="195.751953125" xlink:href="#BitstreamVeraSans-Roman-5f"/>
      <use x="245.751953125" xlink:href="#BitstreamVeraSans-Roman-6d"/>
      <use x="343.1640625" xlink:href="#BitstreamVeraSans-Roman-61"/>
      <use x="404.443359375" xlink:href="#BitstreamVeraSans-Roman-67"/>
      <use x="467.919921875" xlink:href="#BitstreamVeraSans-Roman-5f"/>
      <use x="517.919921875" xlink:href="#BitstreamVeraSans-Roman-74"/>
      <use x="557.12890625" xlink:href="#BitstreamVeraSans-Roman-63"/>
      <use x="612.109375" xlink:href="#BitstreamVeraSans-Roman-5f"/>
      <use x="662.109375" xlink:href="#BitstreamVeraSans-Roman-6d"/>
      <use x="759.521484375" xlink:href="#BitstreamVeraSans-Roman-65"/>
      <use x="821.044921875" xlink:href="#BitstreamVeraSans-Roman-61"/>
      <use x="882.32421875" xlink:href="#BitstreamVeraSans-Roman-6e"/>
     </g>
    </g>
    <g id="PathCollection_11">
     <path d="M 194.680723 91.994193 
L 199.152859 91.994193 
L 199.152859 87.522057 
L 194.680723 87.522057 
z
" style="fill:#0000ff;stroke:#0000ff;"/>
     <path d="M 203.080723 90.944193 
L 207.552859 90.944193 
L 207.552859 86.472057 
L 203.080723 86.472057 
z
" style="fill:#0000ff;stroke:#0000ff;"/>
     <path d="M 211.480723 92.519193 
L 215.952859 92.519193 
L 215.952859 88.047057 
L 211.480723 88.047057 
z
" style="fill:#0000ff;stroke:#0000ff;"/>
    </g>
    <g id="text_5">
     <!-- Z45_hem_tc_mean -->
     <g transform="translate(226.916791098 92.908125)scale(0.12 -0.12)">
      <use xlink:href="#BitstreamVeraSans-Roman-5a"/>
      <use x="68.505859375" xlink:href="#BitstreamVeraSans-Roman-34"/>
      <use x="132.12890625" xlink:href="#BitstreamVeraSans-Roman-35"/>
      <use x="195.751953125" xlink:href="#BitstreamVeraSans-Roman-5f"/>
      <use x="245.751953125" xlink:href="#BitstreamVeraSans-Roman-68"/>
      <use x="309.130859375" xlink:href="#BitstreamVeraSans-Roman-65"/>
      <use x="370.654296875" xlink:href="#BitstreamVeraSans-Roman-6d"/>
      <use x="468.06640625" xlink:href="#BitstreamVeraSans-Roman-5f"/>
      <use x="518.06640625" xlink:href="#BitstreamVeraSans-Roman-74"/>
      <use x="557.275390625" xlink:href="#BitstreamVeraSans-Roman-63"/>
      <use x="612.255859375" xlink:href="#BitstreamVeraSans-Roman-5f"/>
      <use x="662.255859375" xlink:href="#BitstreamVeraSans-Roman-6d"/>
      <use x="759.66796875" xlink:href="#BitstreamVeraSans-Roman-65"/>
      <use x="821.19140625" xlink:href="#BitstreamVeraSans-Roman-61"/>
      <use x="882.470703125" xlink:href="#BitstreamVeraSans-Roman-6e"/>
     </g>
    </g>
   </g>
  </g>
 </g>
 <defs>
  <clipPath id="pfa96962a15">
   <rect height="253.4" width="235.43689015" x="35.4828125" y="37.1875"/>
  </clipPath>
 </defs>
</svg>
