<?xml version="1.0" encoding="utf-8" standalone="no"?>
<!DOCTYPE svg PUBLIC "-//W3C//DTD SVG 1.1//EN"
  "http://www.w3.org/Graphics/SVG/1.1/DTD/svg11.dtd">
<!-- Created with matplotlib (http://matplotlib.org/) -->
<svg height="281pt" version="1.1" viewBox="0 0 280 281" width="280pt" xmlns="http://www.w3.org/2000/svg" xmlns:xlink="http://www.w3.org/1999/xlink">
 <defs>
  <style type="text/css">
*{stroke-linecap:butt;stroke-linejoin:round;stroke-miterlimit:100000;}
  </style>
 </defs>
 <g id="figure_1">
  <g id="patch_1">
   <path d="M 0 281.478125 
L 280.465621 281.478125 
L 280.465621 0 
L 0 0 
L 0 281.478125 
z
" style="fill:none;"/>
  </g>
  <g id="axes_1">
   <g id="PathCollection_1">
    <defs>
     <path d="M 0 2.236068 
C 0.593012 2.236068 1.161816 2.000462 1.581139 1.581139 
C 2.000462 1.161816 2.236068 0.593012 2.236068 0 
C 2.236068 -0.593012 2.000462 -1.161816 1.581139 -1.581139 
C 1.161816 -2.000462 0.593012 -2.236068 0 -2.236068 
C -0.593012 -2.236068 -1.161816 -2.000462 -1.581139 -1.581139 
C -2.000462 -1.161816 -2.236068 -0.593012 -2.236068 0 
C -2.236068 0.593012 -2.000462 1.161816 -1.581139 1.581139 
C -1.161816 2.000462 -0.593012 2.236068 0 2.236068 
z
" id="m64f3c25972" style="stroke:#008000;"/>
    </defs>
    <g clip-path="url(#pb428dc2ba3)">
     <use style="fill:#008000;stroke:#008000;" x="160.5366603" xlink:href="#m64f3c25972" y="93.9819825989"/>
     <use style="fill:#008000;stroke:#008000;" x="160.231316966" xlink:href="#m64f3c25972" y="99.3889047442"/>
     <use style="fill:#008000;stroke:#008000;" x="165.476103595" xlink:href="#m64f3c25972" y="102.617040045"/>
     <use style="fill:#008000;stroke:#008000;" x="145.948660062" xlink:href="#m64f3c25972" y="77.3546953544"/>
     <use style="fill:#008000;stroke:#008000;" x="155.873992068" xlink:href="#m64f3c25972" y="94.7434037228"/>
     <use style="fill:#008000;stroke:#008000;" x="154.38894125" xlink:href="#m64f3c25972" y="108.746353732"/>
     <use style="fill:#008000;stroke:#008000;" x="155.970594667" xlink:href="#m64f3c25972" y="105.174905753"/>
     <use style="fill:#008000;stroke:#008000;" x="149.484846151" xlink:href="#m64f3c25972" y="93.8878978757"/>
     <use style="fill:#008000;stroke:#008000;" x="155.083131248" xlink:href="#m64f3c25972" y="106.329812965"/>
     <use style="fill:#008000;stroke:#008000;" x="145.709758214" xlink:href="#m64f3c25972" y="106.169634696"/>
    </g>
   </g>
   <g id="PathCollection_2">
    <defs>
     <path d="M 0 2.236068 
C 0.593012 2.236068 1.161816 2.000462 1.581139 1.581139 
C 2.000462 1.161816 2.236068 0.593012 2.236068 0 
C 2.236068 -0.593012 2.000462 -1.161816 1.581139 -1.581139 
C 1.161816 -2.000462 0.593012 -2.236068 0 -2.236068 
C -0.593012 -2.236068 -1.161816 -2.000462 -1.581139 -1.581139 
C -2.000462 -1.161816 -2.236068 -0.593012 -2.236068 0 
C -2.236068 0.593012 -2.000462 1.161816 -1.581139 1.581139 
C -1.161816 2.000462 -0.593012 2.236068 0 2.236068 
z
" id="C0_0_a7999fa9dc"/>
    </defs>
    <g clip-path="url(#pb428dc2ba3)">
     <use style="fill:none;stroke:#0000ff;" x="111.115004899" xlink:href="#C0_0_a7999fa9dc" y="157.104108192"/>
    </g>
    <g clip-path="url(#pb428dc2ba3)">
     <use style="fill:none;stroke:#0000ff;" x="81.1652534773" xlink:href="#C0_0_a7999fa9dc" y="164.587935711"/>
    </g>
    <g clip-path="url(#pb428dc2ba3)">
     <use style="fill:none;stroke:#0000ff;" x="83.3352870791" xlink:href="#C0_0_a7999fa9dc" y="171.315445087"/>
    </g>
    <g clip-path="url(#pb428dc2ba3)">
     <use style="fill:none;stroke:#0000ff;" x="114.181263953" xlink:href="#C0_0_a7999fa9dc" y="197.496042367"/>
    </g>
    <g clip-path="url(#pb428dc2ba3)">
     <use style="fill:none;stroke:#0000ff;" x="102.054721735" xlink:href="#C0_0_a7999fa9dc" y="182.716205077"/>
    </g>
    <g clip-path="url(#pb428dc2ba3)">
     <use style="fill:none;stroke:#0000ff;" x="103.711816863" xlink:href="#C0_0_a7999fa9dc" y="158.759792788"/>
    </g>
    <g clip-path="url(#pb428dc2ba3)">
     <use style="fill:none;stroke:#0000ff;" x="116.634605889" xlink:href="#C0_0_a7999fa9dc" y="161.92385504"/>
    </g>
    <g clip-path="url(#pb428dc2ba3)">
     <use style="fill:none;stroke:#0000ff;" x="94.0208195763" xlink:href="#C0_0_a7999fa9dc" y="152.196735092"/>
    </g>
    <g clip-path="url(#pb428dc2ba3)">
     <use style="fill:none;stroke:#0000ff;" x="91.9116048634" xlink:href="#C0_0_a7999fa9dc" y="172.29934781"/>
    </g>
    <g clip-path="url(#pb428dc2ba3)">
     <use style="fill:none;stroke:#0000ff;" x="105.27119144" xlink:href="#C0_0_a7999fa9dc" y="159.78361866"/>
    </g>
   </g>
   <g id="PathCollection_3">
    <defs>
     <path d="M 0 2.236068 
C 0.593012 2.236068 1.161816 2.000462 1.581139 1.581139 
C 2.000462 1.161816 2.236068 0.593012 2.236068 0 
C 2.236068 -0.593012 2.000462 -1.161816 1.581139 -1.581139 
C 1.161816 -2.000462 0.593012 -2.236068 0 -2.236068 
C -0.593012 -2.236068 -1.161816 -2.000462 -1.581139 -1.581139 
C -2.000462 -1.161816 -2.236068 -0.593012 -2.236068 0 
C -2.236068 0.593012 -2.000462 1.161816 -1.581139 1.581139 
C -1.161816 2.000462 -0.593012 2.236068 0 2.236068 
z
" id="C1_0_0b49a86d7e"/>
    </defs>
    <g clip-path="url(#pb428dc2ba3)">
     <use style="fill:none;stroke:#ff0000;" x="100.612922671" xlink:href="#C1_0_0b49a86d7e" y="228.265665258"/>
    </g>
    <g clip-path="url(#pb428dc2ba3)">
     <use style="fill:none;stroke:#ff0000;" x="104.912930959" xlink:href="#C1_0_0b49a86d7e" y="226.152742768"/>
    </g>
   </g>
   <g id="PathCollection_4">
    <defs>
     <path d="M -2.236068 2.236068 
L 2.236068 2.236068 
L 2.236068 -2.236068 
L -2.236068 -2.236068 
z
" id="mf4811bfc15" style="stroke:#0000ff;"/>
    </defs>
    <g clip-path="url(#pb428dc2ba3)">
     <use style="fill:#ffffff;stroke:#0000ff;" x="99.6284276674" xlink:href="#mf4811bfc15" y="168.182585742"/>
    </g>
   </g>
   <g id="line2d_1">
    <path clip-path="url(#pb428dc2ba3)" d="M 153.201256 21.925935 
L 159.068786 22.079392 
L 164.920235 22.539341 
L 170.739562 23.304522 
L 176.510818 24.372837 
L 182.218184 25.741359 
L 187.846017 27.406336 
L 193.378891 29.363205 
L 198.801641 31.606602 
L 204.099403 34.130378 
L 209.257657 36.927615 
L 214.262264 39.990648 
L 219.099508 43.311079 
L 223.756129 46.879808 
L 228.219364 50.687053 
L 232.476979 54.72238 
L 236.517305 58.974726 
L 240.329268 63.432438 
L 243.902419 68.083296 
L 247.226964 72.914553 
L 250.293791 77.912968 
L 253.094495 83.064838 
L 255.621398 88.356045 
L 257.867574 93.772084 
L 259.826868 99.298111 
L 261.493908 104.91898 
L 262.864125 110.619283 
L 263.933764 116.383397 
L 264.699893 122.195523 
L 265.160412 128.03973 
L 265.314059 133.9 
L 265.160412 139.76027 
L 264.699893 145.604477 
L 263.933764 151.416603 
L 262.864125 157.180717 
L 261.493908 162.88102 
L 259.826868 168.501889 
L 257.867574 174.027916 
L 255.621398 179.443955 
L 253.094495 184.735162 
L 250.293791 189.887032 
L 247.226964 194.885447 
L 243.902419 199.716704 
L 240.329268 204.367562 
L 236.517305 208.825274 
L 232.476979 213.07762 
L 228.219364 217.112947 
L 223.756129 220.920192 
L 219.099508 224.488921 
L 214.262264 227.809352 
L 209.257657 230.872385 
L 204.099403 233.669622 
L 198.801641 236.193398 
L 193.378891 238.436795 
L 187.846017 240.393664 
L 182.218184 242.058641 
L 176.510818 243.427163 
L 170.739562 244.495478 
L 164.920235 245.260659 
L 159.068786 245.720608 
L 153.201256 245.874065 
L 147.333725 245.720608 
L 141.482277 245.260659 
L 135.662949 244.495478 
L 129.891693 243.427163 
L 124.184327 242.058641 
L 118.556494 240.393664 
L 113.02362 238.436795 
L 107.600871 236.193398 
L 102.303108 233.669622 
L 97.144854 230.872385 
L 92.140247 227.809352 
L 87.303003 224.488921 
L 82.646383 220.920192 
L 78.183148 217.112947 
L 73.925532 213.07762 
L 69.885206 208.825274 
L 66.073244 204.367562 
L 62.500093 199.716704 
L 59.175547 194.885447 
L 56.10872 189.887032 
L 53.308017 184.735162 
L 50.781114 179.443955 
L 48.534937 174.027916 
L 46.575644 168.501889 
L 44.908604 162.88102 
L 43.538386 157.180717 
L 42.468747 151.416603 
L 41.702618 145.604477 
L 41.242099 139.76027 
L 41.088453 133.9 
L 41.242099 128.03973 
L 41.702618 122.195523 
L 42.468747 116.383397 
L 43.538386 110.619283 
L 44.908604 104.91898 
L 46.575644 99.298111 
L 48.534937 93.772084 
L 50.781114 88.356045 
L 53.308017 83.064838 
L 56.10872 77.912968 
L 59.175547 72.914553 
L 62.500093 68.083296 
L 66.073244 63.432438 
L 69.885206 58.974726 
L 73.925532 54.72238 
L 78.183148 50.687053 
L 82.646383 46.879808 
L 87.303003 43.311079 
L 92.140247 39.990648 
L 97.144854 36.927615 
L 102.303108 34.130378 
L 107.600871 31.606602 
L 113.02362 29.363205 
L 118.556494 27.406336 
L 124.184327 25.741359 
L 129.891693 24.372837 
L 135.662949 23.304522 
L 141.482277 22.539341 
L 147.333725 22.079392 
L 153.201256 21.925935 
L 153.201256 21.925935 
" style="fill:none;stroke:#000000;stroke-linecap:square;"/>
   </g>
   <g id="line2d_2">
    <defs>
     <path d="M -3 0 
L 3 0 
M 0 3 
L 0 -3 
" id="m36a1e82078" style="stroke:#000000;stroke-width:0.5;"/>
    </defs>
    <g clip-path="url(#pb428dc2ba3)">
     <use style="stroke:#000000;stroke-width:0.5;" x="153.201255656" xlink:href="#m36a1e82078" y="32.1112132669"/>
     <use style="stroke:#000000;stroke-width:0.5;" x="153.201255656" xlink:href="#m36a1e82078" y="43.0711652884"/>
     <use style="stroke:#000000;stroke-width:0.5;" x="153.201255656" xlink:href="#m36a1e82078" y="54.722379586"/>
     <use style="stroke:#000000;stroke-width:0.5;" x="153.201255656" xlink:href="#m36a1e82078" y="66.9761833838"/>
     <use style="stroke:#000000;stroke-width:0.5;" x="153.201255656" xlink:href="#m36a1e82078" y="79.7393178357"/>
     <use style="stroke:#000000;stroke-width:0.5;" x="153.201255656" xlink:href="#m36a1e82078" y="92.9146477819"/>
     <use style="stroke:#000000;stroke-width:0.5;" x="153.201255656" xlink:href="#m36a1e82078" y="106.401901006"/>
     <use style="stroke:#000000;stroke-width:0.5;" x="153.201255656" xlink:href="#m36a1e82078" y="120.098431368"/>
     <use style="stroke:#000000;stroke-width:0.5;" x="153.201255656" xlink:href="#m36a1e82078" y="133.9"/>
    </g>
   </g>
   <g id="line2d_3">
    <g clip-path="url(#pb428dc2ba3)">
     <use style="stroke:#000000;stroke-width:0.5;" x="255.11616098" xlink:href="#m36a1e82078" y="133.9"/>
     <use style="stroke:#000000;stroke-width:0.5;" x="244.142629332" xlink:href="#m36a1e82078" y="133.9"/>
     <use style="stroke:#000000;stroke-width:0.5;" x="232.476978919" xlink:href="#m36a1e82078" y="133.9"/>
     <use style="stroke:#000000;stroke-width:0.5;" x="220.207992383" xlink:href="#m36a1e82078" y="133.9"/>
     <use style="stroke:#000000;stroke-width:0.5;" x="207.429044121" xlink:href="#m36a1e82078" y="133.9"/>
     <use style="stroke:#000000;stroke-width:0.5;" x="194.237389645" xlink:href="#m36a1e82078" y="133.9"/>
     <use style="stroke:#000000;stroke-width:0.5;" x="180.733425411" xlink:href="#m36a1e82078" y="133.9"/>
     <use style="stroke:#000000;stroke-width:0.5;" x="167.019924741" xlink:href="#m36a1e82078" y="133.9"/>
    </g>
   </g>
   <g id="line2d_4">
    <g clip-path="url(#pb428dc2ba3)">
     <use style="stroke:#000000;stroke-width:0.5;" x="153.201255656" xlink:href="#m36a1e82078" y="235.688786733"/>
     <use style="stroke:#000000;stroke-width:0.5;" x="153.201255656" xlink:href="#m36a1e82078" y="224.728834712"/>
     <use style="stroke:#000000;stroke-width:0.5;" x="153.201255656" xlink:href="#m36a1e82078" y="213.077620414"/>
     <use style="stroke:#000000;stroke-width:0.5;" x="153.201255656" xlink:href="#m36a1e82078" y="200.823816616"/>
     <use style="stroke:#000000;stroke-width:0.5;" x="153.201255656" xlink:href="#m36a1e82078" y="188.060682164"/>
     <use style="stroke:#000000;stroke-width:0.5;" x="153.201255656" xlink:href="#m36a1e82078" y="174.885352218"/>
     <use style="stroke:#000000;stroke-width:0.5;" x="153.201255656" xlink:href="#m36a1e82078" y="161.398098994"/>
     <use style="stroke:#000000;stroke-width:0.5;" x="153.201255656" xlink:href="#m36a1e82078" y="147.701568632"/>
    </g>
   </g>
   <g id="line2d_5">
    <g clip-path="url(#pb428dc2ba3)">
     <use style="stroke:#000000;stroke-width:0.5;" x="51.2863503309" xlink:href="#m36a1e82078" y="133.9"/>
     <use style="stroke:#000000;stroke-width:0.5;" x="62.259881979" xlink:href="#m36a1e82078" y="133.9"/>
     <use style="stroke:#000000;stroke-width:0.5;" x="73.9255323927" xlink:href="#m36a1e82078" y="133.9"/>
     <use style="stroke:#000000;stroke-width:0.5;" x="86.1945189284" xlink:href="#m36a1e82078" y="133.9"/>
     <use style="stroke:#000000;stroke-width:0.5;" x="98.9734671904" xlink:href="#m36a1e82078" y="133.9"/>
     <use style="stroke:#000000;stroke-width:0.5;" x="112.165121666" xlink:href="#m36a1e82078" y="133.9"/>
     <use style="stroke:#000000;stroke-width:0.5;" x="125.6690859" xlink:href="#m36a1e82078" y="133.9"/>
     <use style="stroke:#000000;stroke-width:0.5;" x="139.38258657" xlink:href="#m36a1e82078" y="133.9"/>
    </g>
   </g>
   <g id="line2d_6">
    <path clip-path="url(#pb428dc2ba3)" d="M 153.201256 21.925935 
L 153.201256 22.907345 
L 153.201256 23.897206 
L 153.201256 24.895445 
" style="fill:none;stroke:#000000;stroke-linecap:square;"/>
   </g>
   <g id="line2d_7">
    <path clip-path="url(#pb428dc2ba3)" d="M 172.66944 23.627073 
L 172.498809 24.593572 
L 172.326708 25.568396 
L 172.153151 26.55147 
" style="fill:none;stroke:#000000;stroke-linecap:square;"/>
   </g>
   <g id="line2d_8">
    <path clip-path="url(#pb428dc2ba3)" d="M 191.546093 28.678798 
L 191.210015 29.601021 
L 190.871043 30.531187 
L 190.529202 31.469224 
" style="fill:none;stroke:#000000;stroke-linecap:square;"/>
   </g>
   <g id="line2d_9">
    <path clip-path="url(#pb428dc2ba3)" d="M 209.257657 36.927615 
L 208.766345 37.777541 
L 208.2708 38.634786 
L 207.771063 39.499287 
" style="fill:none;stroke:#000000;stroke-linecap:square;"/>
   </g>
   <g id="line2d_10">
    <path clip-path="url(#pb428dc2ba3)" d="M 225.265976 48.12289 
L 224.634357 48.874693 
L 223.997298 49.632971 
L 223.354847 50.397667 
" style="fill:none;stroke:#000000;stroke-linecap:square;"/>
   </g>
   <g id="line2d_11">
    <path clip-path="url(#pb428dc2ba3)" d="M 239.084645 61.924459 
L 238.331911 62.555296 
L 237.572693 63.191567 
L 236.80705 63.833223 
" style="fill:none;stroke:#000000;stroke-linecap:square;"/>
   </g>
   <g id="line2d_12">
    <path clip-path="url(#pb428dc2ba3)" d="M 250.293791 77.912968 
L 249.442813 78.403672 
L 248.584505 78.898603 
L 247.718934 79.397723 
" style="fill:none;stroke:#000000;stroke-linecap:square;"/>
   </g>
   <g id="line2d_13">
    <path clip-path="url(#pb428dc2ba3)" d="M 258.552829 95.602614 
L 257.629464 95.938276 
L 256.698145 96.276829 
L 255.758945 96.618247 
" style="fill:none;stroke:#000000;stroke-linecap:square;"/>
   </g>
   <g id="line2d_14">
    <path clip-path="url(#pb428dc2ba3)" d="M 263.610813 114.455908 
L 262.643116 114.626328 
L 261.667085 114.798215 
L 260.682793 114.971558 
" style="fill:none;stroke:#000000;stroke-linecap:square;"/>
   </g>
   <g id="line2d_15">
    <path clip-path="url(#pb428dc2ba3)" d="M 265.314059 133.9 
L 264.331433 133.9 
L 263.340345 133.9 
L 262.340869 133.9 
" style="fill:none;stroke:#000000;stroke-linecap:square;"/>
   </g>
   <g id="line2d_16">
    <path clip-path="url(#pb428dc2ba3)" d="M 263.610813 153.344092 
L 262.643116 153.173672 
L 261.667085 153.001785 
L 260.682793 152.828442 
" style="fill:none;stroke:#000000;stroke-linecap:square;"/>
   </g>
   <g id="line2d_17">
    <path clip-path="url(#pb428dc2ba3)" d="M 258.552829 172.197386 
L 257.629464 171.861724 
L 256.698145 171.523171 
L 255.758945 171.181753 
" style="fill:none;stroke:#000000;stroke-linecap:square;"/>
   </g>
   <g id="line2d_18">
    <path clip-path="url(#pb428dc2ba3)" d="M 250.293791 189.887032 
L 249.442813 189.396328 
L 248.584505 188.901397 
L 247.718934 188.402277 
" style="fill:none;stroke:#000000;stroke-linecap:square;"/>
   </g>
   <g id="line2d_19">
    <path clip-path="url(#pb428dc2ba3)" d="M 239.084645 205.875541 
L 238.331911 205.244704 
L 237.572693 204.608433 
L 236.80705 203.966777 
" style="fill:none;stroke:#000000;stroke-linecap:square;"/>
   </g>
   <g id="line2d_20">
    <path clip-path="url(#pb428dc2ba3)" d="M 225.265976 219.67711 
L 224.634357 218.925307 
L 223.997298 218.167029 
L 223.354847 217.402333 
" style="fill:none;stroke:#000000;stroke-linecap:square;"/>
   </g>
   <g id="line2d_21">
    <path clip-path="url(#pb428dc2ba3)" d="M 209.257657 230.872385 
L 208.766345 230.022459 
L 208.2708 229.165214 
L 207.771063 228.300713 
" style="fill:none;stroke:#000000;stroke-linecap:square;"/>
   </g>
   <g id="line2d_22">
    <path clip-path="url(#pb428dc2ba3)" d="M 191.546093 239.121202 
L 191.210015 238.198979 
L 190.871043 237.268813 
L 190.529202 236.330776 
" style="fill:none;stroke:#000000;stroke-linecap:square;"/>
   </g>
   <g id="line2d_23">
    <path clip-path="url(#pb428dc2ba3)" d="M 172.66944 244.172927 
L 172.498809 243.206428 
L 172.326708 242.231604 
L 172.153151 241.24853 
" style="fill:none;stroke:#000000;stroke-linecap:square;"/>
   </g>
   <g id="line2d_24">
    <path clip-path="url(#pb428dc2ba3)" d="M 153.201256 245.874065 
L 153.201256 244.892655 
L 153.201256 243.902794 
L 153.201256 242.904555 
" style="fill:none;stroke:#000000;stroke-linecap:square;"/>
   </g>
   <g id="line2d_25">
    <path clip-path="url(#pb428dc2ba3)" d="M 133.733072 244.172927 
L 133.903703 243.206428 
L 134.075803 242.231604 
L 134.249361 241.24853 
" style="fill:none;stroke:#000000;stroke-linecap:square;"/>
   </g>
   <g id="line2d_26">
    <path clip-path="url(#pb428dc2ba3)" d="M 114.856419 239.121202 
L 115.192496 238.198979 
L 115.531468 237.268813 
L 115.873309 236.330776 
" style="fill:none;stroke:#000000;stroke-linecap:square;"/>
   </g>
   <g id="line2d_27">
    <path clip-path="url(#pb428dc2ba3)" d="M 97.144854 230.872385 
L 97.636167 230.022459 
L 98.131711 229.165214 
L 98.631449 228.300713 
" style="fill:none;stroke:#000000;stroke-linecap:square;"/>
   </g>
   <g id="line2d_28">
    <path clip-path="url(#pb428dc2ba3)" d="M 81.136535 219.67711 
L 81.768154 218.925307 
L 82.405214 218.167029 
L 83.047664 217.402333 
" style="fill:none;stroke:#000000;stroke-linecap:square;"/>
   </g>
   <g id="line2d_29">
    <path clip-path="url(#pb428dc2ba3)" d="M 67.317866 205.875541 
L 68.070601 205.244704 
L 68.829818 204.608433 
L 69.595461 203.966777 
" style="fill:none;stroke:#000000;stroke-linecap:square;"/>
   </g>
   <g id="line2d_30">
    <path clip-path="url(#pb428dc2ba3)" d="M 56.10872 189.887032 
L 56.959699 189.396328 
L 57.818006 188.901397 
L 58.683578 188.402277 
" style="fill:none;stroke:#000000;stroke-linecap:square;"/>
   </g>
   <g id="line2d_31">
    <path clip-path="url(#pb428dc2ba3)" d="M 47.849682 172.197386 
L 48.773048 171.861724 
L 49.704366 171.523171 
L 50.643566 171.181753 
" style="fill:none;stroke:#000000;stroke-linecap:square;"/>
   </g>
   <g id="line2d_32">
    <path clip-path="url(#pb428dc2ba3)" d="M 42.791698 153.344092 
L 43.759395 153.173672 
L 44.735426 153.001785 
L 45.719718 152.828442 
" style="fill:none;stroke:#000000;stroke-linecap:square;"/>
   </g>
   <g id="line2d_33">
    <path clip-path="url(#pb428dc2ba3)" d="M 41.088453 133.9 
L 42.071078 133.9 
L 43.062166 133.9 
L 44.061642 133.9 
" style="fill:none;stroke:#000000;stroke-linecap:square;"/>
   </g>
   <g id="line2d_34">
    <path clip-path="url(#pb428dc2ba3)" d="M 42.791698 114.455908 
L 43.759395 114.626328 
L 44.735426 114.798215 
L 45.719718 114.971558 
" style="fill:none;stroke:#000000;stroke-linecap:square;"/>
   </g>
   <g id="line2d_35">
    <path clip-path="url(#pb428dc2ba3)" d="M 47.849682 95.602614 
L 48.773048 95.938276 
L 49.704366 96.276829 
L 50.643566 96.618247 
" style="fill:none;stroke:#000000;stroke-linecap:square;"/>
   </g>
   <g id="line2d_36">
    <path clip-path="url(#pb428dc2ba3)" d="M 56.10872 77.912968 
L 56.959699 78.403672 
L 57.818006 78.898603 
L 58.683578 79.397723 
" style="fill:none;stroke:#000000;stroke-linecap:square;"/>
   </g>
   <g id="line2d_37">
    <path clip-path="url(#pb428dc2ba3)" d="M 67.317866 61.924459 
L 68.070601 62.555296 
L 68.829818 63.191567 
L 69.595461 63.833223 
" style="fill:none;stroke:#000000;stroke-linecap:square;"/>
   </g>
   <g id="line2d_38">
    <path clip-path="url(#pb428dc2ba3)" d="M 81.136535 48.12289 
L 81.768154 48.874693 
L 82.405214 49.632971 
L 83.047664 50.397667 
" style="fill:none;stroke:#000000;stroke-linecap:square;"/>
   </g>
   <g id="line2d_39">
    <path clip-path="url(#pb428dc2ba3)" d="M 97.144854 36.927615 
L 97.636167 37.777541 
L 98.131711 38.634786 
L 98.631449 39.499287 
" style="fill:none;stroke:#000000;stroke-linecap:square;"/>
   </g>
   <g id="line2d_40">
    <path clip-path="url(#pb428dc2ba3)" d="M 114.856419 28.678798 
L 115.192496 29.601021 
L 115.531468 30.531187 
L 115.873309 31.469224 
" style="fill:none;stroke:#000000;stroke-linecap:square;"/>
   </g>
   <g id="line2d_41">
    <path clip-path="url(#pb428dc2ba3)" d="M 133.733072 23.627073 
L 133.903703 24.593572 
L 134.075803 25.568396 
L 134.249361 26.55147 
" style="fill:none;stroke:#000000;stroke-linecap:square;"/>
   </g>
   <g id="line2d_42">
    <path clip-path="url(#pb428dc2ba3)" d="M 93.514649 157.729674 
L 92.977231 158.074199 
L 92.465521 158.459132 
L 91.981708 158.883174 
L 91.527896 159.344851 
L 91.106093 159.842516 
L 90.718199 160.374352 
L 90.365998 160.938378 
L 90.05114 161.532452 
L 89.77514 162.154281 
L 89.53936 162.801425 
L 89.345001 163.471307 
L 89.193095 164.161225 
L 89.084496 164.868362 
L 89.019872 165.589798 
L 88.999697 166.322522 
L 89.024246 167.06345 
L 89.093591 167.809438 
L 89.207596 168.557297 
L 89.365915 169.303812 
L 89.567995 170.045757 
L 89.813071 170.779915 
L 90.10017 171.503094 
L 90.428119 172.212144 
L 90.795545 172.903977 
L 91.200882 173.575582 
L 91.642384 174.224045 
L 92.118129 174.846561 
L 92.626032 175.440454 
L 93.163859 176.003185 
L 93.729236 176.532375 
L 94.319665 177.025806 
L 94.932538 177.481441 
L 95.565154 177.897428 
L 96.214732 178.27211 
L 96.878428 178.604032 
L 97.553354 178.891944 
L 98.236587 179.134807 
L 98.925191 179.331794 
L 99.616232 179.48229 
L 100.30679 179.585891 
L 100.993976 179.642406 
L 101.674943 179.651848 
L 102.346904 179.614433 
L 103.007139 179.530575 
L 103.653011 179.400879 
L 104.28197 179.226134 
L 104.891573 179.007306 
L 105.47948 178.745528 
L 106.043472 178.442092 
L 106.581452 178.098443 
L 107.091453 177.716166 
L 107.571643 177.296975 
L 108.020328 176.842709 
L 108.435954 176.355318 
L 108.817114 175.836854 
L 109.162546 175.289461 
L 109.471135 174.715368 
L 109.741913 174.116875 
L 109.974062 173.496349 
L 110.16691 172.856211 
L 110.319932 172.198929 
L 110.432748 171.52701 
L 110.505121 170.842989 
L 110.536957 170.149425 
L 110.5283 169.448889 
L 110.479332 168.743959 
L 110.39037 168.037214 
L 110.261859 167.331222 
L 110.094378 166.628539 
L 109.888626 165.931696 
L 109.64543 165.243199 
L 109.365731 164.565518 
L 109.050589 163.901083 
L 108.701174 163.252274 
L 108.318766 162.621422 
L 107.904751 162.010796 
L 107.460615 161.422602 
L 106.98794 160.858975 
L 106.488406 160.321973 
L 105.963778 159.813571 
L 105.41591 159.335658 
L 104.846735 158.890028 
L 104.258264 158.478376 
L 103.65258 158.102293 
L 103.031833 157.763259 
L 102.398236 157.462638 
L 101.754058 157.201672 
L 101.101619 156.981476 
L 100.443286 156.803034 
L 99.781465 156.66719 
L 99.118594 156.574648 
L 98.457138 156.525963 
L 97.79958 156.521536 
L 97.148413 156.561613 
L 96.506137 156.646279 
L 95.875243 156.775454 
L 95.25821 156.948888 
L 94.657492 157.166161 
L 94.075512 157.426679 
L 93.514649 157.729674 
" style="fill:none;stroke:#0000ff;stroke-linecap:square;"/>
   </g>
   <g id="legend_1">
    <g id="patch_2">
     <path d="M 70.798345 70.55 
L 227.48272 70.55 
L 227.48272 13.1075 
L 70.798345 13.1075 
z
" style="fill:#ffffff;stroke:#000000;stroke-linejoin:miter;"/>
    </g>
    <g id="PathCollection_5">
     <path d="M 79.198345 26.111693 
C 79.791358 26.111693 80.360161 25.876087 80.779484 25.456764 
C 81.198807 25.037441 81.434413 24.468637 81.434413 23.875625 
C 81.434413 23.282613 81.198807 22.713809 80.779484 22.294486 
C 80.360161 21.875163 79.791358 21.639557 79.198345 21.639557 
C 78.605333 21.639557 78.03653 21.875163 77.617207 22.294486 
C 77.197884 22.713809 76.962277 23.282613 76.962277 23.875625 
C 76.962277 24.468637 77.197884 25.037441 77.617207 25.456764 
C 78.03653 25.876087 78.605333 26.111693 79.198345 26.111693 
z
" style="fill:#008000;stroke:#008000;"/>
     <path d="M 87.598345 25.061693 
C 88.191358 25.061693 88.760161 24.826087 89.179484 24.406764 
C 89.598807 23.987441 89.834413 23.418637 89.834413 22.825625 
C 89.834413 22.232613 89.598807 21.663809 89.179484 21.244486 
C 88.760161 20.825163 88.191358 20.589557 87.598345 20.589557 
C 87.005333 20.589557 86.43653 20.825163 86.017207 21.244486 
C 85.597884 21.663809 85.362277 22.232613 85.362277 22.825625 
C 85.362277 23.418637 85.597884 23.987441 86.017207 24.406764 
C 86.43653 24.826087 87.005333 25.061693 87.598345 25.061693 
z
" style="fill:#008000;stroke:#008000;"/>
     <path d="M 95.998345 26.636693 
C 96.591358 26.636693 97.160161 26.401087 97.579484 25.981764 
C 97.998807 25.562441 98.234413 24.993637 98.234413 24.400625 
C 98.234413 23.807613 97.998807 23.238809 97.579484 22.819486 
C 97.160161 22.400163 96.591358 22.164557 95.998345 22.164557 
C 95.405333 22.164557 94.83653 22.400163 94.417207 22.819486 
C 93.997884 23.238809 93.762277 23.807613 93.762277 24.400625 
C 93.762277 24.993637 93.997884 25.562441 94.417207 25.981764 
C 94.83653 26.401087 95.405333 26.636693 95.998345 26.636693 
z
" style="fill:#008000;stroke:#008000;"/>
    </g>
    <g id="text_1">
     <!-- Z38_low_geo -->
     <defs>
      <path d="M 5.609375 72.90625 
L 62.890625 72.90625 
L 62.890625 65.375 
L 16.796875 8.296875 
L 64.015625 8.296875 
L 64.015625 0 
L 4.5 0 
L 4.5 7.515625 
L 50.59375 64.59375 
L 5.609375 64.59375 
z
" id="BitstreamVeraSans-Roman-5a"/>
      <path d="M 50.984375 -16.609375 
L 50.984375 -23.578125 
L -0.984375 -23.578125 
L -0.984375 -16.609375 
z
" id="BitstreamVeraSans-Roman-5f"/>
      <path d="M 40.578125 39.3125 
Q 47.65625 37.796875 51.625 33 
Q 55.609375 28.21875 55.609375 21.1875 
Q 55.609375 10.40625 48.1875 4.484375 
Q 40.765625 -1.421875 27.09375 -1.421875 
Q 22.515625 -1.421875 17.65625 -0.515625 
Q 12.796875 0.390625 7.625 2.203125 
L 7.625 11.71875 
Q 11.71875 9.328125 16.59375 8.109375 
Q 21.484375 6.890625 26.8125 6.890625 
Q 36.078125 6.890625 40.9375 10.546875 
Q 45.796875 14.203125 45.796875 21.1875 
Q 45.796875 27.640625 41.28125 31.265625 
Q 36.765625 34.90625 28.71875 34.90625 
L 20.21875 34.90625 
L 20.21875 43.015625 
L 29.109375 43.015625 
Q 36.375 43.015625 40.234375 45.921875 
Q 44.09375 48.828125 44.09375 54.296875 
Q 44.09375 59.90625 40.109375 62.90625 
Q 36.140625 65.921875 28.71875 65.921875 
Q 24.65625 65.921875 20.015625 65.03125 
Q 15.375 64.15625 9.8125 62.3125 
L 9.8125 71.09375 
Q 15.4375 72.65625 20.34375 73.4375 
Q 25.25 74.21875 29.59375 74.21875 
Q 40.828125 74.21875 47.359375 69.109375 
Q 53.90625 64.015625 53.90625 55.328125 
Q 53.90625 49.265625 50.4375 45.09375 
Q 46.96875 40.921875 40.578125 39.3125 
" id="BitstreamVeraSans-Roman-33"/>
      <path d="M 31.78125 34.625 
Q 24.75 34.625 20.71875 30.859375 
Q 16.703125 27.09375 16.703125 20.515625 
Q 16.703125 13.921875 20.71875 10.15625 
Q 24.75 6.390625 31.78125 6.390625 
Q 38.8125 6.390625 42.859375 10.171875 
Q 46.921875 13.96875 46.921875 20.515625 
Q 46.921875 27.09375 42.890625 30.859375 
Q 38.875 34.625 31.78125 34.625 
M 21.921875 38.8125 
Q 15.578125 40.375 12.03125 44.71875 
Q 8.5 49.078125 8.5 55.328125 
Q 8.5 64.0625 14.71875 69.140625 
Q 20.953125 74.21875 31.78125 74.21875 
Q 42.671875 74.21875 48.875 69.140625 
Q 55.078125 64.0625 55.078125 55.328125 
Q 55.078125 49.078125 51.53125 44.71875 
Q 48 40.375 41.703125 38.8125 
Q 48.828125 37.15625 52.796875 32.3125 
Q 56.78125 27.484375 56.78125 20.515625 
Q 56.78125 9.90625 50.3125 4.234375 
Q 43.84375 -1.421875 31.78125 -1.421875 
Q 19.734375 -1.421875 13.25 4.234375 
Q 6.78125 9.90625 6.78125 20.515625 
Q 6.78125 27.484375 10.78125 32.3125 
Q 14.796875 37.15625 21.921875 38.8125 
M 18.3125 54.390625 
Q 18.3125 48.734375 21.84375 45.5625 
Q 25.390625 42.390625 31.78125 42.390625 
Q 38.140625 42.390625 41.71875 45.5625 
Q 45.3125 48.734375 45.3125 54.390625 
Q 45.3125 60.0625 41.71875 63.234375 
Q 38.140625 66.40625 31.78125 66.40625 
Q 25.390625 66.40625 21.84375 63.234375 
Q 18.3125 60.0625 18.3125 54.390625 
" id="BitstreamVeraSans-Roman-38"/>
      <path d="M 30.609375 48.390625 
Q 23.390625 48.390625 19.1875 42.75 
Q 14.984375 37.109375 14.984375 27.296875 
Q 14.984375 17.484375 19.15625 11.84375 
Q 23.34375 6.203125 30.609375 6.203125 
Q 37.796875 6.203125 41.984375 11.859375 
Q 46.1875 17.53125 46.1875 27.296875 
Q 46.1875 37.015625 41.984375 42.703125 
Q 37.796875 48.390625 30.609375 48.390625 
M 30.609375 56 
Q 42.328125 56 49.015625 48.375 
Q 55.71875 40.765625 55.71875 27.296875 
Q 55.71875 13.875 49.015625 6.21875 
Q 42.328125 -1.421875 30.609375 -1.421875 
Q 18.84375 -1.421875 12.171875 6.21875 
Q 5.515625 13.875 5.515625 27.296875 
Q 5.515625 40.765625 12.171875 48.375 
Q 18.84375 56 30.609375 56 
" id="BitstreamVeraSans-Roman-6f"/>
      <path d="M 9.421875 75.984375 
L 18.40625 75.984375 
L 18.40625 0 
L 9.421875 0 
z
" id="BitstreamVeraSans-Roman-6c"/>
      <path d="M 56.203125 29.59375 
L 56.203125 25.203125 
L 14.890625 25.203125 
Q 15.484375 15.921875 20.484375 11.0625 
Q 25.484375 6.203125 34.421875 6.203125 
Q 39.59375 6.203125 44.453125 7.46875 
Q 49.3125 8.734375 54.109375 11.28125 
L 54.109375 2.78125 
Q 49.265625 0.734375 44.1875 -0.34375 
Q 39.109375 -1.421875 33.890625 -1.421875 
Q 20.796875 -1.421875 13.15625 6.1875 
Q 5.515625 13.8125 5.515625 26.8125 
Q 5.515625 40.234375 12.765625 48.109375 
Q 20.015625 56 32.328125 56 
Q 43.359375 56 49.78125 48.890625 
Q 56.203125 41.796875 56.203125 29.59375 
M 47.21875 32.234375 
Q 47.125 39.59375 43.09375 43.984375 
Q 39.0625 48.390625 32.421875 48.390625 
Q 24.90625 48.390625 20.390625 44.140625 
Q 15.875 39.890625 15.1875 32.171875 
z
" id="BitstreamVeraSans-Roman-65"/>
      <path d="M 4.203125 54.6875 
L 13.1875 54.6875 
L 24.421875 12.015625 
L 35.59375 54.6875 
L 46.1875 54.6875 
L 57.421875 12.015625 
L 68.609375 54.6875 
L 77.59375 54.6875 
L 63.28125 0 
L 52.6875 0 
L 40.921875 44.828125 
L 29.109375 0 
L 18.5 0 
z
" id="BitstreamVeraSans-Roman-77"/>
      <path d="M 45.40625 27.984375 
Q 45.40625 37.75 41.375 43.109375 
Q 37.359375 48.484375 30.078125 48.484375 
Q 22.859375 48.484375 18.828125 43.109375 
Q 14.796875 37.75 14.796875 27.984375 
Q 14.796875 18.265625 18.828125 12.890625 
Q 22.859375 7.515625 30.078125 7.515625 
Q 37.359375 7.515625 41.375 12.890625 
Q 45.40625 18.265625 45.40625 27.984375 
M 54.390625 6.78125 
Q 54.390625 -7.171875 48.1875 -13.984375 
Q 42 -20.796875 29.203125 -20.796875 
Q 24.46875 -20.796875 20.265625 -20.09375 
Q 16.0625 -19.390625 12.109375 -17.921875 
L 12.109375 -9.1875 
Q 16.0625 -11.328125 19.921875 -12.34375 
Q 23.78125 -13.375 27.78125 -13.375 
Q 36.625 -13.375 41.015625 -8.765625 
Q 45.40625 -4.15625 45.40625 5.171875 
L 45.40625 9.625 
Q 42.625 4.78125 38.28125 2.390625 
Q 33.9375 0 27.875 0 
Q 17.828125 0 11.671875 7.65625 
Q 5.515625 15.328125 5.515625 27.984375 
Q 5.515625 40.671875 11.671875 48.328125 
Q 17.828125 56 27.875 56 
Q 33.9375 56 38.28125 53.609375 
Q 42.625 51.21875 45.40625 46.390625 
L 45.40625 54.6875 
L 54.390625 54.6875 
z
" id="BitstreamVeraSans-Roman-67"/>
     </defs>
     <g transform="translate(109.198345447 27.025625)scale(0.12 -0.12)">
      <use xlink:href="#BitstreamVeraSans-Roman-5a"/>
      <use x="68.505859375" xlink:href="#BitstreamVeraSans-Roman-33"/>
      <use x="132.12890625" xlink:href="#BitstreamVeraSans-Roman-38"/>
      <use x="195.751953125" xlink:href="#BitstreamVeraSans-Roman-5f"/>
      <use x="245.751953125" xlink:href="#BitstreamVeraSans-Roman-6c"/>
      <use x="273.53515625" xlink:href="#BitstreamVeraSans-Roman-6f"/>
      <use x="334.716796875" xlink:href="#BitstreamVeraSans-Roman-77"/>
      <use x="416.50390625" xlink:href="#BitstreamVeraSans-Roman-5f"/>
      <use x="466.50390625" xlink:href="#BitstreamVeraSans-Roman-67"/>
      <use x="529.98046875" xlink:href="#BitstreamVeraSans-Roman-65"/>
      <use x="591.50390625" xlink:href="#BitstreamVeraSans-Roman-6f"/>
     </g>
    </g>
    <g id="PathCollection_6">
     <path d="M 79.198345 44.059193 
C 79.791358 44.059193 80.360161 43.823587 80.779484 43.404264 
C 81.198807 42.984941 81.434413 42.416137 81.434413 41.823125 
C 81.434413 41.230113 81.198807 40.661309 80.779484 40.241986 
C 80.360161 39.822663 79.791358 39.587057 79.198345 39.587057 
C 78.605333 39.587057 78.03653 39.822663 77.617207 40.241986 
C 77.197884 40.661309 76.962277 41.230113 76.962277 41.823125 
C 76.962277 42.416137 77.197884 42.984941 77.617207 43.404264 
C 78.03653 43.823587 78.605333 44.059193 79.198345 44.059193 
L 79.198345 44.059193 
z
" style="fill:none;stroke:#ff0000;"/>
     <path d="M 87.598345 43.009193 
C 88.191358 43.009193 88.760161 42.773587 89.179484 42.354264 
C 89.598807 41.934941 89.834413 41.366137 89.834413 40.773125 
C 89.834413 40.180113 89.598807 39.611309 89.179484 39.191986 
C 88.760161 38.772663 88.191358 38.537057 87.598345 38.537057 
C 87.005333 38.537057 86.43653 38.772663 86.017207 39.191986 
C 85.597884 39.611309 85.362277 40.180113 85.362277 40.773125 
C 85.362277 41.366137 85.597884 41.934941 86.017207 42.354264 
C 86.43653 42.773587 87.005333 43.009193 87.598345 43.009193 
L 87.598345 43.009193 
z
" style="fill:none;stroke:#ff0000;"/>
     <path d="M 95.998345 44.584193 
C 96.591358 44.584193 97.160161 44.348587 97.579484 43.929264 
C 97.998807 43.509941 98.234413 42.941137 98.234413 42.348125 
C 98.234413 41.755113 97.998807 41.186309 97.579484 40.766986 
C 97.160161 40.347663 96.591358 40.112057 95.998345 40.112057 
C 95.405333 40.112057 94.83653 40.347663 94.417207 40.766986 
C 93.997884 41.186309 93.762277 41.755113 93.762277 42.348125 
C 93.762277 42.941137 93.997884 43.509941 94.417207 43.929264 
C 94.83653 44.348587 95.405333 44.584193 95.998345 44.584193 
L 95.998345 44.584193 
z
" style="fill:none;stroke:#ff0000;"/>
    </g>
    <g id="text_2">
     <!-- Z38_hem_tc -->
     <defs>
      <path d="M 52 44.1875 
Q 55.375 50.25 60.0625 53.125 
Q 64.75 56 71.09375 56 
Q 79.640625 56 84.28125 50.015625 
Q 88.921875 44.046875 88.921875 33.015625 
L 88.921875 0 
L 79.890625 0 
L 79.890625 32.71875 
Q 79.890625 40.578125 77.09375 44.375 
Q 74.3125 48.1875 68.609375 48.1875 
Q 61.625 48.1875 57.5625 43.546875 
Q 53.515625 38.921875 53.515625 30.90625 
L 53.515625 0 
L 44.484375 0 
L 44.484375 32.71875 
Q 44.484375 40.625 41.703125 44.40625 
Q 38.921875 48.1875 33.109375 48.1875 
Q 26.21875 48.1875 22.15625 43.53125 
Q 18.109375 38.875 18.109375 30.90625 
L 18.109375 0 
L 9.078125 0 
L 9.078125 54.6875 
L 18.109375 54.6875 
L 18.109375 46.1875 
Q 21.1875 51.21875 25.484375 53.609375 
Q 29.78125 56 35.6875 56 
Q 41.65625 56 45.828125 52.96875 
Q 50 49.953125 52 44.1875 
" id="BitstreamVeraSans-Roman-6d"/>
      <path d="M 18.3125 70.21875 
L 18.3125 54.6875 
L 36.8125 54.6875 
L 36.8125 47.703125 
L 18.3125 47.703125 
L 18.3125 18.015625 
Q 18.3125 11.328125 20.140625 9.421875 
Q 21.96875 7.515625 27.59375 7.515625 
L 36.8125 7.515625 
L 36.8125 0 
L 27.59375 0 
Q 17.1875 0 13.234375 3.875 
Q 9.28125 7.765625 9.28125 18.015625 
L 9.28125 47.703125 
L 2.6875 47.703125 
L 2.6875 54.6875 
L 9.28125 54.6875 
L 9.28125 70.21875 
z
" id="BitstreamVeraSans-Roman-74"/>
      <path d="M 54.890625 33.015625 
L 54.890625 0 
L 45.90625 0 
L 45.90625 32.71875 
Q 45.90625 40.484375 42.875 44.328125 
Q 39.84375 48.1875 33.796875 48.1875 
Q 26.515625 48.1875 22.3125 43.546875 
Q 18.109375 38.921875 18.109375 30.90625 
L 18.109375 0 
L 9.078125 0 
L 9.078125 75.984375 
L 18.109375 75.984375 
L 18.109375 46.1875 
Q 21.34375 51.125 25.703125 53.5625 
Q 30.078125 56 35.796875 56 
Q 45.21875 56 50.046875 50.171875 
Q 54.890625 44.34375 54.890625 33.015625 
" id="BitstreamVeraSans-Roman-68"/>
      <path d="M 48.78125 52.59375 
L 48.78125 44.1875 
Q 44.96875 46.296875 41.140625 47.34375 
Q 37.3125 48.390625 33.40625 48.390625 
Q 24.65625 48.390625 19.8125 42.84375 
Q 14.984375 37.3125 14.984375 27.296875 
Q 14.984375 17.28125 19.8125 11.734375 
Q 24.65625 6.203125 33.40625 6.203125 
Q 37.3125 6.203125 41.140625 7.25 
Q 44.96875 8.296875 48.78125 10.40625 
L 48.78125 2.09375 
Q 45.015625 0.34375 40.984375 -0.53125 
Q 36.96875 -1.421875 32.421875 -1.421875 
Q 20.0625 -1.421875 12.78125 6.34375 
Q 5.515625 14.109375 5.515625 27.296875 
Q 5.515625 40.671875 12.859375 48.328125 
Q 20.21875 56 33.015625 56 
Q 37.15625 56 41.109375 55.140625 
Q 45.0625 54.296875 48.78125 52.59375 
" id="BitstreamVeraSans-Roman-63"/>
     </defs>
     <g transform="translate(109.198345447 44.973125)scale(0.12 -0.12)">
      <use xlink:href="#BitstreamVeraSans-Roman-5a"/>
      <use x="68.505859375" xlink:href="#BitstreamVeraSans-Roman-33"/>
      <use x="132.12890625" xlink:href="#BitstreamVeraSans-Roman-38"/>
      <use x="195.751953125" xlink:href="#BitstreamVeraSans-Roman-5f"/>
      <use x="245.751953125" xlink:href="#BitstreamVeraSans-Roman-68"/>
      <use x="309.130859375" xlink:href="#BitstreamVeraSans-Roman-65"/>
      <use x="370.654296875" xlink:href="#BitstreamVeraSans-Roman-6d"/>
      <use x="468.06640625" xlink:href="#BitstreamVeraSans-Roman-5f"/>
      <use x="518.06640625" xlink:href="#BitstreamVeraSans-Roman-74"/>
      <use x="557.275390625" xlink:href="#BitstreamVeraSans-Roman-63"/>
     </g>
    </g>
    <g id="PathCollection_7">
     <path d="M 76.962277 62.006693 
L 81.434413 62.006693 
L 81.434413 57.534557 
L 76.962277 57.534557 
z
" style="fill:#ffffff;stroke:#0000ff;"/>
     <path d="M 85.362277 60.956693 
L 89.834413 60.956693 
L 89.834413 56.484557 
L 85.362277 56.484557 
z
" style="fill:#ffffff;stroke:#0000ff;"/>
     <path d="M 93.762277 62.531693 
L 98.234413 62.531693 
L 98.234413 58.059557 
L 93.762277 58.059557 
z
" style="fill:#ffffff;stroke:#0000ff;"/>
    </g>
    <g id="text_3">
     <!-- Z38_mag_tc_mean -->
     <defs>
      <path d="M 54.890625 33.015625 
L 54.890625 0 
L 45.90625 0 
L 45.90625 32.71875 
Q 45.90625 40.484375 42.875 44.328125 
Q 39.84375 48.1875 33.796875 48.1875 
Q 26.515625 48.1875 22.3125 43.546875 
Q 18.109375 38.921875 18.109375 30.90625 
L 18.109375 0 
L 9.078125 0 
L 9.078125 54.6875 
L 18.109375 54.6875 
L 18.109375 46.1875 
Q 21.34375 51.125 25.703125 53.5625 
Q 30.078125 56 35.796875 56 
Q 45.21875 56 50.046875 50.171875 
Q 54.890625 44.34375 54.890625 33.015625 
" id="BitstreamVeraSans-Roman-6e"/>
      <path d="M 34.28125 27.484375 
Q 23.390625 27.484375 19.1875 25 
Q 14.984375 22.515625 14.984375 16.5 
Q 14.984375 11.71875 18.140625 8.90625 
Q 21.296875 6.109375 26.703125 6.109375 
Q 34.1875 6.109375 38.703125 11.40625 
Q 43.21875 16.703125 43.21875 25.484375 
L 43.21875 27.484375 
z
M 52.203125 31.203125 
L 52.203125 0 
L 43.21875 0 
L 43.21875 8.296875 
Q 40.140625 3.328125 35.546875 0.953125 
Q 30.953125 -1.421875 24.3125 -1.421875 
Q 15.921875 -1.421875 10.953125 3.296875 
Q 6 8.015625 6 15.921875 
Q 6 25.140625 12.171875 29.828125 
Q 18.359375 34.515625 30.609375 34.515625 
L 43.21875 34.515625 
L 43.21875 35.40625 
Q 43.21875 41.609375 39.140625 45 
Q 35.0625 48.390625 27.6875 48.390625 
Q 23 48.390625 18.546875 47.265625 
Q 14.109375 46.140625 10.015625 43.890625 
L 10.015625 52.203125 
Q 14.9375 54.109375 19.578125 55.046875 
Q 24.21875 56 28.609375 56 
Q 40.484375 56 46.34375 49.84375 
Q 52.203125 43.703125 52.203125 31.203125 
" id="BitstreamVeraSans-Roman-61"/>
     </defs>
     <g transform="translate(109.198345447 62.920625)scale(0.12 -0.12)">
      <use xlink:href="#BitstreamVeraSans-Roman-5a"/>
      <use x="68.505859375" xlink:href="#BitstreamVeraSans-Roman-33"/>
      <use x="132.12890625" xlink:href="#BitstreamVeraSans-Roman-38"/>
      <use x="195.751953125" xlink:href="#BitstreamVeraSans-Roman-5f"/>
      <use x="245.751953125" xlink:href="#BitstreamVeraSans-Roman-6d"/>
      <use x="343.1640625" xlink:href="#BitstreamVeraSans-Roman-61"/>
      <use x="404.443359375" xlink:href="#BitstreamVeraSans-Roman-67"/>
      <use x="467.919921875" xlink:href="#BitstreamVeraSans-Roman-5f"/>
      <use x="517.919921875" xlink:href="#BitstreamVeraSans-Roman-74"/>
      <use x="557.12890625" xlink:href="#BitstreamVeraSans-Roman-63"/>
      <use x="612.109375" xlink:href="#BitstreamVeraSans-Roman-5f"/>
      <use x="662.109375" xlink:href="#BitstreamVeraSans-Roman-6d"/>
      <use x="759.521484375" xlink:href="#BitstreamVeraSans-Roman-65"/>
      <use x="821.044921875" xlink:href="#BitstreamVeraSans-Roman-61"/>
      <use x="882.32421875" xlink:href="#BitstreamVeraSans-Roman-6e"/>
     </g>
    </g>
   </g>
  </g>
 </g>
 <defs>
  <clipPath id="pb428dc2ba3">
   <rect height="253.4" width="235.436886311" x="35.4828125" y="7.2"/>
  </clipPath>
 </defs>
</svg>
