<?xml version="1.0" encoding="utf-8" standalone="no"?>
<!DOCTYPE svg PUBLIC "-//W3C//DTD SVG 1.1//EN"
  "http://www.w3.org/Graphics/SVG/1.1/DTD/svg11.dtd">
<!-- Created with matplotlib (http://matplotlib.org/) -->
<svg height="311pt" version="1.1" viewBox="0 0 280 311" width="280pt" xmlns="http://www.w3.org/2000/svg" xmlns:xlink="http://www.w3.org/1999/xlink">
 <defs>
  <style type="text/css">
*{stroke-linecap:butt;stroke-linejoin:round;stroke-miterlimit:100000;}
  </style>
 </defs>
 <g id="figure_1">
  <g id="patch_1">
   <path d="M 0 311.465625 
L 280.465625 311.465625 
L 280.465625 0 
L 0 0 
L 0 311.465625 
z
" style="fill:none;"/>
  </g>
  <g id="axes_1">
   <g id="PathCollection_1">
    <defs>
     <path d="M 0 2.236068 
C 0.593012 2.236068 1.161816 2.000462 1.581139 1.581139 
C 2.000462 1.161816 2.236068 0.593012 2.236068 0 
C 2.236068 -0.593012 2.000462 -1.161816 1.581139 -1.581139 
C 1.161816 -2.000462 0.593012 -2.236068 0 -2.236068 
C -0.593012 -2.236068 -1.161816 -2.000462 -1.581139 -1.581139 
C -2.000462 -1.161816 -2.236068 -0.593012 -2.236068 0 
C -2.236068 0.593012 -2.000462 1.161816 -1.581139 1.581139 
C -1.161816 2.000462 -0.593012 2.236068 0 2.236068 
z
" id="mfb4769110e" style="stroke:#008000;"/>
    </defs>
    <g clip-path="url(#pf22768e4bf)">
     <use style="fill:#008000;stroke:#008000;" x="148.612888546" xlink:href="#mfb4769110e" y="127.611766248"/>
     <use style="fill:#008000;stroke:#008000;" x="143.995838713" xlink:href="#mfb4769110e" y="115.69072206"/>
     <use style="fill:#008000;stroke:#008000;" x="144.605689449" xlink:href="#mfb4769110e" y="116.647675706"/>
     <use style="fill:#008000;stroke:#008000;" x="107.427869533" xlink:href="#mfb4769110e" y="121.255947254"/>
     <use style="fill:#008000;stroke:#008000;" x="162.908656558" xlink:href="#mfb4769110e" y="120.512836299"/>
     <use style="fill:#008000;stroke:#008000;" x="142.682094939" xlink:href="#mfb4769110e" y="107.201413598"/>
     <use style="fill:#008000;stroke:#008000;" x="158.832613867" xlink:href="#mfb4769110e" y="115.277339576"/>
     <use style="fill:#008000;stroke:#008000;" x="150.034059414" xlink:href="#mfb4769110e" y="123.694232737"/>
    </g>
   </g>
   <g id="PathCollection_2">
    <defs>
     <path d="M 0 2.236068 
C 0.593012 2.236068 1.161816 2.000462 1.581139 1.581139 
C 2.000462 1.161816 2.236068 0.593012 2.236068 0 
C 2.236068 -0.593012 2.000462 -1.161816 1.581139 -1.581139 
C 1.161816 -2.000462 0.593012 -2.236068 0 -2.236068 
C -0.593012 -2.236068 -1.161816 -2.000462 -1.581139 -1.581139 
C -2.000462 -1.161816 -2.236068 -0.593012 -2.236068 0 
C -2.236068 0.593012 -2.000462 1.161816 -1.581139 1.581139 
C -1.161816 2.000462 -0.593012 2.236068 0 2.236068 
z
" id="C0_0_6fe568dc98"/>
    </defs>
    <g clip-path="url(#pf22768e4bf)">
     <use style="fill:none;stroke:#0000ff;" x="93.4296542675" xlink:href="#C0_0_6fe568dc98" y="212.923690733"/>
    </g>
    <g clip-path="url(#pf22768e4bf)">
     <use style="fill:none;stroke:#0000ff;" x="92.010672516" xlink:href="#C0_0_6fe568dc98" y="216.084522696"/>
    </g>
    <g clip-path="url(#pf22768e4bf)">
     <use style="fill:none;stroke:#0000ff;" x="91.5103245318" xlink:href="#C0_0_6fe568dc98" y="211.680675182"/>
    </g>
    <g clip-path="url(#pf22768e4bf)">
     <use style="fill:none;stroke:#0000ff;" x="77.828359565" xlink:href="#C0_0_6fe568dc98" y="196.776358879"/>
    </g>
    <g clip-path="url(#pf22768e4bf)">
     <use style="fill:none;stroke:#0000ff;" x="83.3936851092" xlink:href="#C0_0_6fe568dc98" y="200.647310852"/>
    </g>
    <g clip-path="url(#pf22768e4bf)">
     <use style="fill:none;stroke:#0000ff;" x="84.8048876147" xlink:href="#C0_0_6fe568dc98" y="206.905691662"/>
    </g>
    <g clip-path="url(#pf22768e4bf)">
     <use style="fill:none;stroke:#0000ff;" x="103.441709748" xlink:href="#C0_0_6fe568dc98" y="214.460521805"/>
    </g>
    <g clip-path="url(#pf22768e4bf)">
     <use style="fill:none;stroke:#0000ff;" x="91.5904521123" xlink:href="#C0_0_6fe568dc98" y="190.515882705"/>
    </g>
   </g>
   <g id="PathCollection_3">
    <defs>
     <path d="M 0 2.236068 
C 0.593012 2.236068 1.161816 2.000462 1.581139 1.581139 
C 2.000462 1.161816 2.236068 0.593012 2.236068 0 
C 2.236068 -0.593012 2.000462 -1.161816 1.581139 -1.581139 
C 1.161816 -2.000462 0.593012 -2.236068 0 -2.236068 
C -0.593012 -2.236068 -1.161816 -2.000462 -1.581139 -1.581139 
C -2.000462 -1.161816 -2.236068 -0.593012 -2.236068 0 
C -2.236068 0.593012 -2.000462 1.161816 -1.581139 1.581139 
C -1.161816 2.000462 -0.593012 2.236068 0 2.236068 
z
" id="C1_0_361f5bbd96"/>
    </defs>
    <g clip-path="url(#pf22768e4bf)">
     <use style="fill:none;stroke:#ff0000;" x="132.060989985" xlink:href="#C1_0_361f5bbd96" y="262.376006959"/>
    </g>
    <g clip-path="url(#pf22768e4bf)">
     <use style="fill:none;stroke:#ff0000;" x="151.015502671" xlink:href="#C1_0_361f5bbd96" y="253.212256248"/>
    </g>
   </g>
   <g id="PathCollection_4">
    <defs>
     <path d="M 0 2.236068 
C 0.593012 2.236068 1.161816 2.000462 1.581139 1.581139 
C 2.000462 1.161816 2.236068 0.593012 2.236068 0 
C 2.236068 -0.593012 2.000462 -1.161816 1.581139 -1.581139 
C 1.161816 -2.000462 0.593012 -2.236068 0 -2.236068 
C -0.593012 -2.236068 -1.161816 -2.000462 -1.581139 -1.581139 
C -2.000462 -1.161816 -2.236068 -0.593012 -2.236068 0 
C -2.236068 0.593012 -2.000462 1.161816 -1.581139 1.581139 
C -1.161816 2.000462 -0.593012 2.236068 0 2.236068 
z
" id="m8a1e8a36d0" style="stroke:#ff0000;"/>
    </defs>
    <g clip-path="url(#pf22768e4bf)">
     <use style="fill:#ff0000;stroke:#ff0000;" x="109.257120867" xlink:href="#m8a1e8a36d0" y="259.310672515"/>
     <use style="fill:#ff0000;stroke:#ff0000;" x="140.699400081" xlink:href="#m8a1e8a36d0" y="273.479106727"/>
     <use style="fill:#ff0000;stroke:#ff0000;" x="138.535160787" xlink:href="#m8a1e8a36d0" y="264.295529731"/>
     <use style="fill:#ff0000;stroke:#ff0000;" x="133.48565845" xlink:href="#m8a1e8a36d0" y="259.815551123"/>
     <use style="fill:#ff0000;stroke:#ff0000;" x="181.826989153" xlink:href="#m8a1e8a36d0" y="252.93588012"/>
    </g>
   </g>
   <g id="PathCollection_5">
    <defs>
     <path d="M -2.236068 2.236068 
L 2.236068 2.236068 
L 2.236068 -2.236068 
L -2.236068 -2.236068 
z
" id="mf118dd5c96" style="stroke:#0000ff;"/>
    </defs>
    <g clip-path="url(#pf22768e4bf)">
     <use style="fill:#ffffff;stroke:#0000ff;" x="89.3846017898" xlink:href="#mf118dd5c96" y="206.515269041"/>
    </g>
   </g>
   <g id="PathCollection_6">
    <defs>
     <path d="M -2.236068 2.236068 
L 2.236068 2.236068 
L 2.236068 -2.236068 
L -2.236068 -2.236068 
z
" id="m21fb87fcbd" style="stroke:#ff0000;"/>
    </defs>
    <g clip-path="url(#pf22768e4bf)">
     <use style="fill:#ff0000;stroke:#ff0000;" x="140.025800863" xlink:href="#m21fb87fcbd" y="272.418113801"/>
    </g>
   </g>
   <g id="line2d_1">
    <path clip-path="url(#pf22768e4bf)" d="M 153.201258 51.913435 
L 159.068788 52.066892 
L 164.920237 52.526841 
L 170.739564 53.292022 
L 176.51082 54.360337 
L 182.218187 55.728859 
L 187.84602 57.393836 
L 193.378894 59.350705 
L 198.801643 61.594102 
L 204.099406 64.117878 
L 209.25766 66.915115 
L 214.262267 69.978148 
L 219.099511 73.298579 
L 223.756132 76.867308 
L 228.219367 80.674553 
L 232.476982 84.70988 
L 236.517308 88.962226 
L 240.329271 93.419938 
L 243.902422 98.070796 
L 247.226967 102.902053 
L 250.293795 107.900468 
L 253.094498 113.052338 
L 255.621401 118.343545 
L 257.867578 123.759584 
L 259.826871 129.285611 
L 261.493911 134.90648 
L 262.864129 140.606783 
L 263.933768 146.370897 
L 264.699897 152.183023 
L 265.160416 158.02723 
L 265.314062 163.8875 
L 265.160416 169.74777 
L 264.699897 175.591977 
L 263.933768 181.404103 
L 262.864129 187.168217 
L 261.493911 192.86852 
L 259.826871 198.489389 
L 257.867578 204.015416 
L 255.621401 209.431455 
L 253.094498 214.722662 
L 250.293795 219.874532 
L 247.226967 224.872947 
L 243.902422 229.704204 
L 240.329271 234.355062 
L 236.517308 238.812774 
L 232.476982 243.06512 
L 228.219367 247.100447 
L 223.756132 250.907692 
L 219.099511 254.476421 
L 214.262267 257.796852 
L 209.25766 260.859885 
L 204.099406 263.657122 
L 198.801643 266.180898 
L 193.378894 268.424295 
L 187.84602 270.381164 
L 182.218187 272.046141 
L 176.51082 273.414663 
L 170.739564 274.482978 
L 164.920237 275.248159 
L 159.068788 275.708108 
L 153.201258 275.861565 
L 147.333727 275.708108 
L 141.482278 275.248159 
L 135.662951 274.482978 
L 129.891695 273.414663 
L 124.184328 272.046141 
L 118.556496 270.381164 
L 113.023622 268.424295 
L 107.600872 266.180898 
L 102.303109 263.657122 
L 97.144855 260.859885 
L 92.140248 257.796852 
L 87.303004 254.476421 
L 82.646383 250.907692 
L 78.183148 247.100447 
L 73.925533 243.06512 
L 69.885207 238.812774 
L 66.073244 234.355062 
L 62.500093 229.704204 
L 59.175548 224.872947 
L 56.10872 219.874532 
L 53.308017 214.722662 
L 50.781114 209.431455 
L 48.534937 204.015416 
L 46.575644 198.489389 
L 44.908604 192.86852 
L 43.538387 187.168217 
L 42.468747 181.404103 
L 41.702618 175.591977 
L 41.242099 169.74777 
L 41.088453 163.8875 
L 41.242099 158.02723 
L 41.702618 152.183023 
L 42.468747 146.370897 
L 43.538387 140.606783 
L 44.908604 134.90648 
L 46.575644 129.285611 
L 48.534937 123.759584 
L 50.781114 118.343545 
L 53.308017 113.052338 
L 56.10872 107.900468 
L 59.175548 102.902053 
L 62.500093 98.070796 
L 66.073244 93.419938 
L 69.885207 88.962226 
L 73.925533 84.70988 
L 78.183148 80.674553 
L 82.646383 76.867308 
L 87.303004 73.298579 
L 92.140248 69.978148 
L 97.144855 66.915115 
L 102.303109 64.117878 
L 107.600872 61.594102 
L 113.023622 59.350705 
L 118.556496 57.393836 
L 124.184328 55.728859 
L 129.891695 54.360337 
L 135.662951 53.292022 
L 141.482278 52.526841 
L 147.333727 52.066892 
L 153.201258 51.913435 
L 153.201258 51.913435 
" style="fill:none;stroke:#000000;stroke-linecap:square;"/>
   </g>
   <g id="line2d_2">
    <defs>
     <path d="M -3 0 
L 3 0 
M 0 3 
L 0 -3 
" id="m5c7bd3259a" style="stroke:#000000;stroke-width:0.5;"/>
    </defs>
    <g clip-path="url(#pf22768e4bf)">
     <use style="stroke:#000000;stroke-width:0.5;" x="153.201257575" xlink:href="#m5c7bd3259a" y="62.0987132669"/>
     <use style="stroke:#000000;stroke-width:0.5;" x="153.201257575" xlink:href="#m5c7bd3259a" y="73.0586652884"/>
     <use style="stroke:#000000;stroke-width:0.5;" x="153.201257575" xlink:href="#m5c7bd3259a" y="84.709879586"/>
     <use style="stroke:#000000;stroke-width:0.5;" x="153.201257575" xlink:href="#m5c7bd3259a" y="96.9636833838"/>
     <use style="stroke:#000000;stroke-width:0.5;" x="153.201257575" xlink:href="#m5c7bd3259a" y="109.726817836"/>
     <use style="stroke:#000000;stroke-width:0.5;" x="153.201257575" xlink:href="#m5c7bd3259a" y="122.902147782"/>
     <use style="stroke:#000000;stroke-width:0.5;" x="153.201257575" xlink:href="#m5c7bd3259a" y="136.389401006"/>
     <use style="stroke:#000000;stroke-width:0.5;" x="153.201257575" xlink:href="#m5c7bd3259a" y="150.085931368"/>
     <use style="stroke:#000000;stroke-width:0.5;" x="153.201257575" xlink:href="#m5c7bd3259a" y="163.8875"/>
    </g>
   </g>
   <g id="line2d_3">
    <g clip-path="url(#pf22768e4bf)">
     <use style="stroke:#000000;stroke-width:0.5;" x="255.116164562" xlink:href="#m5c7bd3259a" y="163.8875"/>
     <use style="stroke:#000000;stroke-width:0.5;" x="244.142632735" xlink:href="#m5c7bd3259a" y="163.8875"/>
     <use style="stroke:#000000;stroke-width:0.5;" x="232.476982131" xlink:href="#m5c7bd3259a" y="163.8875"/>
     <use style="stroke:#000000;stroke-width:0.5;" x="220.207995395" xlink:href="#m5c7bd3259a" y="163.8875"/>
     <use style="stroke:#000000;stroke-width:0.5;" x="207.429046925" xlink:href="#m5c7bd3259a" y="163.8875"/>
     <use style="stroke:#000000;stroke-width:0.5;" x="194.237392234" xlink:href="#m5c7bd3259a" y="163.8875"/>
     <use style="stroke:#000000;stroke-width:0.5;" x="180.73342778" xlink:href="#m5c7bd3259a" y="163.8875"/>
     <use style="stroke:#000000;stroke-width:0.5;" x="167.019926886" xlink:href="#m5c7bd3259a" y="163.8875"/>
    </g>
   </g>
   <g id="line2d_4">
    <g clip-path="url(#pf22768e4bf)">
     <use style="stroke:#000000;stroke-width:0.5;" x="153.201257575" xlink:href="#m5c7bd3259a" y="265.676286733"/>
     <use style="stroke:#000000;stroke-width:0.5;" x="153.201257575" xlink:href="#m5c7bd3259a" y="254.716334712"/>
     <use style="stroke:#000000;stroke-width:0.5;" x="153.201257575" xlink:href="#m5c7bd3259a" y="243.065120414"/>
     <use style="stroke:#000000;stroke-width:0.5;" x="153.201257575" xlink:href="#m5c7bd3259a" y="230.811316616"/>
     <use style="stroke:#000000;stroke-width:0.5;" x="153.201257575" xlink:href="#m5c7bd3259a" y="218.048182164"/>
     <use style="stroke:#000000;stroke-width:0.5;" x="153.201257575" xlink:href="#m5c7bd3259a" y="204.872852218"/>
     <use style="stroke:#000000;stroke-width:0.5;" x="153.201257575" xlink:href="#m5c7bd3259a" y="191.385598994"/>
     <use style="stroke:#000000;stroke-width:0.5;" x="153.201257575" xlink:href="#m5c7bd3259a" y="177.689068632"/>
    </g>
   </g>
   <g id="line2d_5">
    <g clip-path="url(#pf22768e4bf)">
     <use style="stroke:#000000;stroke-width:0.5;" x="51.2863505886" xlink:href="#m5c7bd3259a" y="163.8875"/>
     <use style="stroke:#000000;stroke-width:0.5;" x="62.2598824157" xlink:href="#m5c7bd3259a" y="163.8875"/>
     <use style="stroke:#000000;stroke-width:0.5;" x="73.9255330196" xlink:href="#m5c7bd3259a" y="163.8875"/>
     <use style="stroke:#000000;stroke-width:0.5;" x="86.1945197553" xlink:href="#m5c7bd3259a" y="163.8875"/>
     <use style="stroke:#000000;stroke-width:0.5;" x="98.9734682256" xlink:href="#m5c7bd3259a" y="163.8875"/>
     <use style="stroke:#000000;stroke-width:0.5;" x="112.165122917" xlink:href="#m5c7bd3259a" y="163.8875"/>
     <use style="stroke:#000000;stroke-width:0.5;" x="125.669087371" xlink:href="#m5c7bd3259a" y="163.8875"/>
     <use style="stroke:#000000;stroke-width:0.5;" x="139.382588264" xlink:href="#m5c7bd3259a" y="163.8875"/>
    </g>
   </g>
   <g id="line2d_6">
    <path clip-path="url(#pf22768e4bf)" d="M 153.201258 51.913435 
L 153.201258 52.894845 
L 153.201258 53.884706 
L 153.201258 54.882945 
" style="fill:none;stroke:#000000;stroke-linecap:square;"/>
   </g>
   <g id="line2d_7">
    <path clip-path="url(#pf22768e4bf)" d="M 172.669442 53.614573 
L 172.498811 54.581072 
L 172.32671 55.555896 
L 172.153153 56.53897 
" style="fill:none;stroke:#000000;stroke-linecap:square;"/>
   </g>
   <g id="line2d_8">
    <path clip-path="url(#pf22768e4bf)" d="M 191.546095 58.666298 
L 191.210018 59.588521 
L 190.871045 60.518687 
L 190.529205 61.456724 
" style="fill:none;stroke:#000000;stroke-linecap:square;"/>
   </g>
   <g id="line2d_9">
    <path clip-path="url(#pf22768e4bf)" d="M 209.25766 66.915115 
L 208.766347 67.765041 
L 208.270803 68.622286 
L 207.771065 69.486787 
" style="fill:none;stroke:#000000;stroke-linecap:square;"/>
   </g>
   <g id="line2d_10">
    <path clip-path="url(#pf22768e4bf)" d="M 225.265979 78.11039 
L 224.63436 78.862193 
L 223.997301 79.620471 
L 223.35485 80.385167 
" style="fill:none;stroke:#000000;stroke-linecap:square;"/>
   </g>
   <g id="line2d_11">
    <path clip-path="url(#pf22768e4bf)" d="M 239.084649 91.911959 
L 238.331914 92.542796 
L 237.572696 93.179067 
L 236.807054 93.820723 
" style="fill:none;stroke:#000000;stroke-linecap:square;"/>
   </g>
   <g id="line2d_12">
    <path clip-path="url(#pf22768e4bf)" d="M 250.293795 107.900468 
L 249.442816 108.391172 
L 248.584509 108.886103 
L 247.718937 109.385223 
" style="fill:none;stroke:#000000;stroke-linecap:square;"/>
   </g>
   <g id="line2d_13">
    <path clip-path="url(#pf22768e4bf)" d="M 258.552833 125.590114 
L 257.629467 125.925776 
L 256.698149 126.264329 
L 255.758949 126.605747 
" style="fill:none;stroke:#000000;stroke-linecap:square;"/>
   </g>
   <g id="line2d_14">
    <path clip-path="url(#pf22768e4bf)" d="M 263.610817 144.443408 
L 262.64312 144.613828 
L 261.667089 144.785715 
L 260.682797 144.959058 
" style="fill:none;stroke:#000000;stroke-linecap:square;"/>
   </g>
   <g id="line2d_15">
    <path clip-path="url(#pf22768e4bf)" d="M 265.314062 163.8875 
L 264.331437 163.8875 
L 263.340349 163.8875 
L 262.340873 163.8875 
" style="fill:none;stroke:#000000;stroke-linecap:square;"/>
   </g>
   <g id="line2d_16">
    <path clip-path="url(#pf22768e4bf)" d="M 263.610817 183.331592 
L 262.64312 183.161172 
L 261.667089 182.989285 
L 260.682797 182.815942 
" style="fill:none;stroke:#000000;stroke-linecap:square;"/>
   </g>
   <g id="line2d_17">
    <path clip-path="url(#pf22768e4bf)" d="M 258.552833 202.184886 
L 257.629467 201.849224 
L 256.698149 201.510671 
L 255.758949 201.169253 
" style="fill:none;stroke:#000000;stroke-linecap:square;"/>
   </g>
   <g id="line2d_18">
    <path clip-path="url(#pf22768e4bf)" d="M 250.293795 219.874532 
L 249.442816 219.383828 
L 248.584509 218.888897 
L 247.718937 218.389777 
" style="fill:none;stroke:#000000;stroke-linecap:square;"/>
   </g>
   <g id="line2d_19">
    <path clip-path="url(#pf22768e4bf)" d="M 239.084649 235.863041 
L 238.331914 235.232204 
L 237.572696 234.595933 
L 236.807054 233.954277 
" style="fill:none;stroke:#000000;stroke-linecap:square;"/>
   </g>
   <g id="line2d_20">
    <path clip-path="url(#pf22768e4bf)" d="M 225.265979 249.66461 
L 224.63436 248.912807 
L 223.997301 248.154529 
L 223.35485 247.389833 
" style="fill:none;stroke:#000000;stroke-linecap:square;"/>
   </g>
   <g id="line2d_21">
    <path clip-path="url(#pf22768e4bf)" d="M 209.25766 260.859885 
L 208.766347 260.009959 
L 208.270803 259.152714 
L 207.771065 258.288213 
" style="fill:none;stroke:#000000;stroke-linecap:square;"/>
   </g>
   <g id="line2d_22">
    <path clip-path="url(#pf22768e4bf)" d="M 191.546095 269.108702 
L 191.210018 268.186479 
L 190.871045 267.256313 
L 190.529205 266.318276 
" style="fill:none;stroke:#000000;stroke-linecap:square;"/>
   </g>
   <g id="line2d_23">
    <path clip-path="url(#pf22768e4bf)" d="M 172.669442 274.160427 
L 172.498811 273.193928 
L 172.32671 272.219104 
L 172.153153 271.23603 
" style="fill:none;stroke:#000000;stroke-linecap:square;"/>
   </g>
   <g id="line2d_24">
    <path clip-path="url(#pf22768e4bf)" d="M 153.201258 275.861565 
L 153.201258 274.880155 
L 153.201258 273.890294 
L 153.201258 272.892055 
" style="fill:none;stroke:#000000;stroke-linecap:square;"/>
   </g>
   <g id="line2d_25">
    <path clip-path="url(#pf22768e4bf)" d="M 133.733073 274.160427 
L 133.903704 273.193928 
L 134.075805 272.219104 
L 134.249362 271.23603 
" style="fill:none;stroke:#000000;stroke-linecap:square;"/>
   </g>
   <g id="line2d_26">
    <path clip-path="url(#pf22768e4bf)" d="M 114.85642 269.108702 
L 115.192498 268.186479 
L 115.53147 267.256313 
L 115.873311 266.318276 
" style="fill:none;stroke:#000000;stroke-linecap:square;"/>
   </g>
   <g id="line2d_27">
    <path clip-path="url(#pf22768e4bf)" d="M 97.144855 260.859885 
L 97.636168 260.009959 
L 98.131712 259.152714 
L 98.63145 258.288213 
" style="fill:none;stroke:#000000;stroke-linecap:square;"/>
   </g>
   <g id="line2d_28">
    <path clip-path="url(#pf22768e4bf)" d="M 81.136536 249.66461 
L 81.768155 248.912807 
L 82.405214 248.154529 
L 83.047665 247.389833 
" style="fill:none;stroke:#000000;stroke-linecap:square;"/>
   </g>
   <g id="line2d_29">
    <path clip-path="url(#pf22768e4bf)" d="M 67.317866 235.863041 
L 68.070601 235.232204 
L 68.829819 234.595933 
L 69.595462 233.954277 
" style="fill:none;stroke:#000000;stroke-linecap:square;"/>
   </g>
   <g id="line2d_30">
    <path clip-path="url(#pf22768e4bf)" d="M 56.10872 219.874532 
L 56.959699 219.383828 
L 57.818007 218.888897 
L 58.683578 218.389777 
" style="fill:none;stroke:#000000;stroke-linecap:square;"/>
   </g>
   <g id="line2d_31">
    <path clip-path="url(#pf22768e4bf)" d="M 47.849682 202.184886 
L 48.773048 201.849224 
L 49.704366 201.510671 
L 50.643566 201.169253 
" style="fill:none;stroke:#000000;stroke-linecap:square;"/>
   </g>
   <g id="line2d_32">
    <path clip-path="url(#pf22768e4bf)" d="M 42.791698 183.331592 
L 43.759395 183.161172 
L 44.735427 182.989285 
L 45.719718 182.815942 
" style="fill:none;stroke:#000000;stroke-linecap:square;"/>
   </g>
   <g id="line2d_33">
    <path clip-path="url(#pf22768e4bf)" d="M 41.088453 163.8875 
L 42.071078 163.8875 
L 43.062166 163.8875 
L 44.061642 163.8875 
" style="fill:none;stroke:#000000;stroke-linecap:square;"/>
   </g>
   <g id="line2d_34">
    <path clip-path="url(#pf22768e4bf)" d="M 42.791698 144.443408 
L 43.759395 144.613828 
L 44.735427 144.785715 
L 45.719718 144.959058 
" style="fill:none;stroke:#000000;stroke-linecap:square;"/>
   </g>
   <g id="line2d_35">
    <path clip-path="url(#pf22768e4bf)" d="M 47.849682 125.590114 
L 48.773048 125.925776 
L 49.704366 126.264329 
L 50.643566 126.605747 
" style="fill:none;stroke:#000000;stroke-linecap:square;"/>
   </g>
   <g id="line2d_36">
    <path clip-path="url(#pf22768e4bf)" d="M 56.10872 107.900468 
L 56.959699 108.391172 
L 57.818007 108.886103 
L 58.683578 109.385223 
" style="fill:none;stroke:#000000;stroke-linecap:square;"/>
   </g>
   <g id="line2d_37">
    <path clip-path="url(#pf22768e4bf)" d="M 67.317866 91.911959 
L 68.070601 92.542796 
L 68.829819 93.179067 
L 69.595462 93.820723 
" style="fill:none;stroke:#000000;stroke-linecap:square;"/>
   </g>
   <g id="line2d_38">
    <path clip-path="url(#pf22768e4bf)" d="M 81.136536 78.11039 
L 81.768155 78.862193 
L 82.405214 79.620471 
L 83.047665 80.385167 
" style="fill:none;stroke:#000000;stroke-linecap:square;"/>
   </g>
   <g id="line2d_39">
    <path clip-path="url(#pf22768e4bf)" d="M 97.144855 66.915115 
L 97.636168 67.765041 
L 98.131712 68.622286 
L 98.63145 69.486787 
" style="fill:none;stroke:#000000;stroke-linecap:square;"/>
   </g>
   <g id="line2d_40">
    <path clip-path="url(#pf22768e4bf)" d="M 114.85642 58.666298 
L 115.192498 59.588521 
L 115.53147 60.518687 
L 115.873311 61.456724 
" style="fill:none;stroke:#000000;stroke-linecap:square;"/>
   </g>
   <g id="line2d_41">
    <path clip-path="url(#pf22768e4bf)" d="M 133.733073 53.614573 
L 133.903704 54.581072 
L 134.075805 55.555896 
L 134.249362 56.53897 
" style="fill:none;stroke:#000000;stroke-linecap:square;"/>
   </g>
   <g id="line2d_42">
    <path clip-path="url(#pf22768e4bf)" d="M 84.712803 198.992972 
L 84.359872 199.231618 
L 84.026437 199.499356 
L 83.713924 199.795268 
L 83.423695 200.118311 
L 83.157037 200.467321 
L 82.915153 200.841013 
L 82.699158 201.237983 
L 82.51007 201.656718 
L 82.348807 202.095595 
L 82.216174 202.552888 
L 82.112863 203.026778 
L 82.039445 203.515356 
L 81.996365 204.01663 
L 81.983937 204.528541 
L 82.002343 205.048963 
L 82.051625 205.575719 
L 82.131689 206.106592 
L 82.242295 206.63933 
L 82.383067 207.171665 
L 82.553484 207.701319 
L 82.752887 208.22602 
L 82.980479 208.74351 
L 83.235328 209.251561 
L 83.516372 209.747986 
L 83.822425 210.23065 
L 84.152181 210.697481 
L 84.504221 211.146483 
L 84.877024 211.575744 
L 85.26897 211.98345 
L 85.678353 212.367889 
L 86.10339 212.727465 
L 86.542228 213.060699 
L 86.99296 213.366243 
L 87.453629 213.642881 
L 87.922245 213.889535 
L 88.39679 214.105269 
L 88.875234 214.289291 
L 89.355542 214.440957 
L 89.835686 214.55977 
L 90.313655 214.645381 
L 90.787464 214.697587 
L 91.255165 214.716333 
L 91.714853 214.701704 
L 92.164677 214.653926 
L 92.602846 214.57336 
L 93.027638 214.460501 
L 93.437403 214.315968 
L 93.830571 214.140504 
L 94.205658 213.934968 
L 94.56127 213.700327 
L 94.896105 213.437653 
L 95.208959 213.148118 
L 95.498725 212.83298 
L 95.764402 212.493586 
L 96.005088 212.131358 
L 96.219988 211.74779 
L 96.408412 211.344441 
L 96.569774 210.922926 
L 96.703596 210.484914 
L 96.809502 210.032116 
L 96.887223 209.566283 
L 96.936591 209.089198 
L 96.957542 208.602673 
L 96.950109 208.108535 
L 96.914428 207.608631 
L 96.850727 207.104815 
L 96.759331 206.598943 
L 96.640659 206.092871 
L 96.495215 205.588448 
L 96.323595 205.087511 
L 96.126479 204.591878 
L 95.904627 204.103347 
L 95.658882 203.623688 
L 95.390161 203.154639 
L 95.099457 202.697903 
L 94.787832 202.255142 
L 94.456418 201.82797 
L 94.106412 201.417955 
L 93.739071 201.026607 
L 93.355712 200.655378 
L 92.957708 200.30566 
L 92.546482 199.978772 
L 92.123507 199.675966 
L 91.6903 199.398415 
L 91.248418 199.147213 
L 90.799457 198.923368 
L 90.345044 198.727801 
L 89.886835 198.561341 
L 89.42651 198.424718 
L 88.965769 198.318562 
L 88.506327 198.243402 
L 88.049905 198.199655 
L 87.598233 198.187631 
L 87.153035 198.207523 
L 86.716032 198.259409 
L 86.288927 198.343247 
L 85.873409 198.458872 
L 85.471137 198.605997 
L 85.083738 198.78421 
L 84.712803 198.992972 
" style="fill:none;stroke:#0000ff;stroke-linecap:square;"/>
   </g>
   <g id="line2d_43">
    <path clip-path="url(#pf22768e4bf)" d="M 113.325771 265.79136 
L 113.06867 266.647871 
L 112.914972 267.533087 
L 112.921306 268.305132 
L 113.591671 267.643318 
L 114.349685 267.020732 
L 115.191067 266.438184 
L 116.111474 265.896295 
L 117.106521 265.395512 
L 118.171793 264.936128 
L 119.302857 264.518302 
L 120.495272 264.142077 
L 121.744593 263.807394 
L 123.046379 263.514106 
L 124.396196 263.26199 
L 125.78962 263.050763 
L 127.222237 262.880088 
L 128.689648 262.749585 
L 130.187464 262.658839 
L 131.711311 262.607408 
L 133.256825 262.594825 
L 134.819652 262.62061 
L 136.39545 262.684266 
L 137.97988 262.785289 
L 139.568614 262.923168 
L 141.157323 263.097386 
L 142.741685 263.307422 
L 144.317374 263.552749 
L 145.880067 263.832836 
L 147.425435 264.147148 
L 148.949147 264.495138 
L 150.446867 264.876251 
L 151.914252 265.289915 
L 153.346954 265.735542 
L 154.740618 266.212516 
L 156.090884 266.720193 
L 157.393389 267.257892 
L 158.643767 267.824887 
L 159.837654 268.420397 
L 160.970692 269.04358 
L 162.038532 269.693518 
L 163.036846 270.369207 
L 163.961329 271.069547 
L 164.807715 271.793325 
L 165.571789 272.539201 
L 166.249399 273.305696 
L 166.836477 274.091171 
L 167.329059 274.893816 
L 167.519944 274.145653 
L 167.582513 273.249402 
L 167.537808 272.356343 
L 167.388375 271.46968 
L 167.137046 270.592385 
L 166.786901 269.72721 
L 166.341232 268.876694 
L 165.803511 268.043175 
L 165.177367 267.228806 
L 164.466558 266.435561 
L 163.674953 265.665254 
L 162.806508 264.919549 
L 161.865255 264.199974 
L 160.855287 263.507934 
L 159.780743 262.844718 
L 158.645803 262.211518 
L 157.454676 261.609431 
L 156.211594 261.039476 
L 154.920806 260.502598 
L 153.586576 259.999678 
L 152.213176 259.53154 
L 150.804885 259.098956 
L 149.365987 258.702656 
L 147.90077 258.343326 
L 146.413524 258.021618 
L 144.90854 257.738153 
L 143.390114 257.493518 
L 141.862541 257.288275 
L 140.330122 257.122958 
L 138.797158 256.998075 
L 137.267955 256.914106 
L 135.746826 256.871504 
L 134.238085 256.870693 
L 132.746054 256.912064 
L 131.275062 256.995971 
L 129.829442 257.122731 
L 128.413535 257.292614 
L 127.031686 257.50584 
L 125.688245 257.762572 
L 124.387565 258.062905 
L 123.134 258.406862 
L 121.931899 258.79438 
L 120.785605 259.225301 
L 119.699447 259.699359 
L 118.677734 260.216169 
L 117.724748 260.775209 
L 116.844729 261.375808 
L 116.041867 262.017127 
L 115.320283 262.698146 
L 114.684016 263.417642 
L 114.136999 264.174172 
L 113.683034 264.966057 
L 113.325771 265.79136 
" style="fill:none;stroke:#ff0000;stroke-linecap:square;"/>
   </g>
   <g id="legend_1">
    <g id="patch_2">
     <path d="M 70.798346 100.5375 
L 227.499596 100.5375 
L 227.499596 7.2 
L 70.798346 7.2 
z
" style="fill:#ffffff;stroke:#000000;stroke-linejoin:miter;"/>
    </g>
    <g id="PathCollection_7">
     <path d="M 79.198346 20.204193 
C 79.791358 20.204193 80.360162 19.968587 80.779485 19.549264 
C 81.198808 19.129941 81.434414 18.561137 81.434414 17.968125 
C 81.434414 17.375113 81.198808 16.806309 80.779485 16.386986 
C 80.360162 15.967663 79.791358 15.732057 79.198346 15.732057 
C 78.605334 15.732057 78.03653 15.967663 77.617207 16.386986 
C 77.197884 16.806309 76.962278 17.375113 76.962278 17.968125 
C 76.962278 18.561137 77.197884 19.129941 77.617207 19.549264 
C 78.03653 19.968587 78.605334 20.204193 79.198346 20.204193 
z
" style="fill:#008000;stroke:#008000;"/>
     <path d="M 87.598346 19.154193 
C 88.191358 19.154193 88.760162 18.918587 89.179485 18.499264 
C 89.598808 18.079941 89.834414 17.511137 89.834414 16.918125 
C 89.834414 16.325113 89.598808 15.756309 89.179485 15.336986 
C 88.760162 14.917663 88.191358 14.682057 87.598346 14.682057 
C 87.005334 14.682057 86.43653 14.917663 86.017207 15.336986 
C 85.597884 15.756309 85.362278 16.325113 85.362278 16.918125 
C 85.362278 17.511137 85.597884 18.079941 86.017207 18.499264 
C 86.43653 18.918587 87.005334 19.154193 87.598346 19.154193 
z
" style="fill:#008000;stroke:#008000;"/>
     <path d="M 95.998346 20.729193 
C 96.591358 20.729193 97.160162 20.493587 97.579485 20.074264 
C 97.998808 19.654941 98.234414 19.086137 98.234414 18.493125 
C 98.234414 17.900113 97.998808 17.331309 97.579485 16.911986 
C 97.160162 16.492663 96.591358 16.257057 95.998346 16.257057 
C 95.405334 16.257057 94.83653 16.492663 94.417207 16.911986 
C 93.997884 17.331309 93.762278 17.900113 93.762278 18.493125 
C 93.762278 19.086137 93.997884 19.654941 94.417207 20.074264 
C 94.83653 20.493587 95.405334 20.729193 95.998346 20.729193 
z
" style="fill:#008000;stroke:#008000;"/>
    </g>
    <g id="text_1">
     <!-- Z47_low_geo -->
     <defs>
      <path d="M 5.609375 72.90625 
L 62.890625 72.90625 
L 62.890625 65.375 
L 16.796875 8.296875 
L 64.015625 8.296875 
L 64.015625 0 
L 4.5 0 
L 4.5 7.515625 
L 50.59375 64.59375 
L 5.609375 64.59375 
z
" id="BitstreamVeraSans-Roman-5a"/>
      <path d="M 8.203125 72.90625 
L 55.078125 72.90625 
L 55.078125 68.703125 
L 28.609375 0 
L 18.3125 0 
L 43.21875 64.59375 
L 8.203125 64.59375 
z
" id="BitstreamVeraSans-Roman-37"/>
      <path d="M 50.984375 -16.609375 
L 50.984375 -23.578125 
L -0.984375 -23.578125 
L -0.984375 -16.609375 
z
" id="BitstreamVeraSans-Roman-5f"/>
      <path d="M 30.609375 48.390625 
Q 23.390625 48.390625 19.1875 42.75 
Q 14.984375 37.109375 14.984375 27.296875 
Q 14.984375 17.484375 19.15625 11.84375 
Q 23.34375 6.203125 30.609375 6.203125 
Q 37.796875 6.203125 41.984375 11.859375 
Q 46.1875 17.53125 46.1875 27.296875 
Q 46.1875 37.015625 41.984375 42.703125 
Q 37.796875 48.390625 30.609375 48.390625 
M 30.609375 56 
Q 42.328125 56 49.015625 48.375 
Q 55.71875 40.765625 55.71875 27.296875 
Q 55.71875 13.875 49.015625 6.21875 
Q 42.328125 -1.421875 30.609375 -1.421875 
Q 18.84375 -1.421875 12.171875 6.21875 
Q 5.515625 13.875 5.515625 27.296875 
Q 5.515625 40.765625 12.171875 48.375 
Q 18.84375 56 30.609375 56 
" id="BitstreamVeraSans-Roman-6f"/>
      <path d="M 37.796875 64.3125 
L 12.890625 25.390625 
L 37.796875 25.390625 
z
M 35.203125 72.90625 
L 47.609375 72.90625 
L 47.609375 25.390625 
L 58.015625 25.390625 
L 58.015625 17.1875 
L 47.609375 17.1875 
L 47.609375 0 
L 37.796875 0 
L 37.796875 17.1875 
L 4.890625 17.1875 
L 4.890625 26.703125 
z
" id="BitstreamVeraSans-Roman-34"/>
      <path d="M 9.421875 75.984375 
L 18.40625 75.984375 
L 18.40625 0 
L 9.421875 0 
z
" id="BitstreamVeraSans-Roman-6c"/>
      <path d="M 56.203125 29.59375 
L 56.203125 25.203125 
L 14.890625 25.203125 
Q 15.484375 15.921875 20.484375 11.0625 
Q 25.484375 6.203125 34.421875 6.203125 
Q 39.59375 6.203125 44.453125 7.46875 
Q 49.3125 8.734375 54.109375 11.28125 
L 54.109375 2.78125 
Q 49.265625 0.734375 44.1875 -0.34375 
Q 39.109375 -1.421875 33.890625 -1.421875 
Q 20.796875 -1.421875 13.15625 6.1875 
Q 5.515625 13.8125 5.515625 26.8125 
Q 5.515625 40.234375 12.765625 48.109375 
Q 20.015625 56 32.328125 56 
Q 43.359375 56 49.78125 48.890625 
Q 56.203125 41.796875 56.203125 29.59375 
M 47.21875 32.234375 
Q 47.125 39.59375 43.09375 43.984375 
Q 39.0625 48.390625 32.421875 48.390625 
Q 24.90625 48.390625 20.390625 44.140625 
Q 15.875 39.890625 15.1875 32.171875 
z
" id="BitstreamVeraSans-Roman-65"/>
      <path d="M 4.203125 54.6875 
L 13.1875 54.6875 
L 24.421875 12.015625 
L 35.59375 54.6875 
L 46.1875 54.6875 
L 57.421875 12.015625 
L 68.609375 54.6875 
L 77.59375 54.6875 
L 63.28125 0 
L 52.6875 0 
L 40.921875 44.828125 
L 29.109375 0 
L 18.5 0 
z
" id="BitstreamVeraSans-Roman-77"/>
      <path d="M 45.40625 27.984375 
Q 45.40625 37.75 41.375 43.109375 
Q 37.359375 48.484375 30.078125 48.484375 
Q 22.859375 48.484375 18.828125 43.109375 
Q 14.796875 37.75 14.796875 27.984375 
Q 14.796875 18.265625 18.828125 12.890625 
Q 22.859375 7.515625 30.078125 7.515625 
Q 37.359375 7.515625 41.375 12.890625 
Q 45.40625 18.265625 45.40625 27.984375 
M 54.390625 6.78125 
Q 54.390625 -7.171875 48.1875 -13.984375 
Q 42 -20.796875 29.203125 -20.796875 
Q 24.46875 -20.796875 20.265625 -20.09375 
Q 16.0625 -19.390625 12.109375 -17.921875 
L 12.109375 -9.1875 
Q 16.0625 -11.328125 19.921875 -12.34375 
Q 23.78125 -13.375 27.78125 -13.375 
Q 36.625 -13.375 41.015625 -8.765625 
Q 45.40625 -4.15625 45.40625 5.171875 
L 45.40625 9.625 
Q 42.625 4.78125 38.28125 2.390625 
Q 33.9375 0 27.875 0 
Q 17.828125 0 11.671875 7.65625 
Q 5.515625 15.328125 5.515625 27.984375 
Q 5.515625 40.671875 11.671875 48.328125 
Q 17.828125 56 27.875 56 
Q 33.9375 56 38.28125 53.609375 
Q 42.625 51.21875 45.40625 46.390625 
L 45.40625 54.6875 
L 54.390625 54.6875 
z
" id="BitstreamVeraSans-Roman-67"/>
     </defs>
     <g transform="translate(109.198346023 21.118125)scale(0.12 -0.12)">
      <use xlink:href="#BitstreamVeraSans-Roman-5a"/>
      <use x="68.505859375" xlink:href="#BitstreamVeraSans-Roman-34"/>
      <use x="132.12890625" xlink:href="#BitstreamVeraSans-Roman-37"/>
      <use x="195.751953125" xlink:href="#BitstreamVeraSans-Roman-5f"/>
      <use x="245.751953125" xlink:href="#BitstreamVeraSans-Roman-6c"/>
      <use x="273.53515625" xlink:href="#BitstreamVeraSans-Roman-6f"/>
      <use x="334.716796875" xlink:href="#BitstreamVeraSans-Roman-77"/>
      <use x="416.50390625" xlink:href="#BitstreamVeraSans-Roman-5f"/>
      <use x="466.50390625" xlink:href="#BitstreamVeraSans-Roman-67"/>
      <use x="529.98046875" xlink:href="#BitstreamVeraSans-Roman-65"/>
      <use x="591.50390625" xlink:href="#BitstreamVeraSans-Roman-6f"/>
     </g>
    </g>
    <g id="PathCollection_8">
     <path d="M 79.198346 38.151693 
C 79.791358 38.151693 80.360162 37.916087 80.779485 37.496764 
C 81.198808 37.077441 81.434414 36.508637 81.434414 35.915625 
C 81.434414 35.322613 81.198808 34.753809 80.779485 34.334486 
C 80.360162 33.915163 79.791358 33.679557 79.198346 33.679557 
C 78.605334 33.679557 78.03653 33.915163 77.617207 34.334486 
C 77.197884 34.753809 76.962278 35.322613 76.962278 35.915625 
C 76.962278 36.508637 77.197884 37.077441 77.617207 37.496764 
C 78.03653 37.916087 78.605334 38.151693 79.198346 38.151693 
L 79.198346 38.151693 
z
" style="fill:none;stroke:#ff0000;"/>
     <path d="M 87.598346 37.101693 
C 88.191358 37.101693 88.760162 36.866087 89.179485 36.446764 
C 89.598808 36.027441 89.834414 35.458637 89.834414 34.865625 
C 89.834414 34.272613 89.598808 33.703809 89.179485 33.284486 
C 88.760162 32.865163 88.191358 32.629557 87.598346 32.629557 
C 87.005334 32.629557 86.43653 32.865163 86.017207 33.284486 
C 85.597884 33.703809 85.362278 34.272613 85.362278 34.865625 
C 85.362278 35.458637 85.597884 36.027441 86.017207 36.446764 
C 86.43653 36.866087 87.005334 37.101693 87.598346 37.101693 
L 87.598346 37.101693 
z
" style="fill:none;stroke:#ff0000;"/>
     <path d="M 95.998346 38.676693 
C 96.591358 38.676693 97.160162 38.441087 97.579485 38.021764 
C 97.998808 37.602441 98.234414 37.033637 98.234414 36.440625 
C 98.234414 35.847613 97.998808 35.278809 97.579485 34.859486 
C 97.160162 34.440163 96.591358 34.204557 95.998346 34.204557 
C 95.405334 34.204557 94.83653 34.440163 94.417207 34.859486 
C 93.997884 35.278809 93.762278 35.847613 93.762278 36.440625 
C 93.762278 37.033637 93.997884 37.602441 94.417207 38.021764 
C 94.83653 38.441087 95.405334 38.676693 95.998346 38.676693 
L 95.998346 38.676693 
z
" style="fill:none;stroke:#ff0000;"/>
    </g>
    <g id="text_2">
     <!-- Z47_hem_tc -->
     <defs>
      <path d="M 52 44.1875 
Q 55.375 50.25 60.0625 53.125 
Q 64.75 56 71.09375 56 
Q 79.640625 56 84.28125 50.015625 
Q 88.921875 44.046875 88.921875 33.015625 
L 88.921875 0 
L 79.890625 0 
L 79.890625 32.71875 
Q 79.890625 40.578125 77.09375 44.375 
Q 74.3125 48.1875 68.609375 48.1875 
Q 61.625 48.1875 57.5625 43.546875 
Q 53.515625 38.921875 53.515625 30.90625 
L 53.515625 0 
L 44.484375 0 
L 44.484375 32.71875 
Q 44.484375 40.625 41.703125 44.40625 
Q 38.921875 48.1875 33.109375 48.1875 
Q 26.21875 48.1875 22.15625 43.53125 
Q 18.109375 38.875 18.109375 30.90625 
L 18.109375 0 
L 9.078125 0 
L 9.078125 54.6875 
L 18.109375 54.6875 
L 18.109375 46.1875 
Q 21.1875 51.21875 25.484375 53.609375 
Q 29.78125 56 35.6875 56 
Q 41.65625 56 45.828125 52.96875 
Q 50 49.953125 52 44.1875 
" id="BitstreamVeraSans-Roman-6d"/>
      <path d="M 18.3125 70.21875 
L 18.3125 54.6875 
L 36.8125 54.6875 
L 36.8125 47.703125 
L 18.3125 47.703125 
L 18.3125 18.015625 
Q 18.3125 11.328125 20.140625 9.421875 
Q 21.96875 7.515625 27.59375 7.515625 
L 36.8125 7.515625 
L 36.8125 0 
L 27.59375 0 
Q 17.1875 0 13.234375 3.875 
Q 9.28125 7.765625 9.28125 18.015625 
L 9.28125 47.703125 
L 2.6875 47.703125 
L 2.6875 54.6875 
L 9.28125 54.6875 
L 9.28125 70.21875 
z
" id="BitstreamVeraSans-Roman-74"/>
      <path d="M 54.890625 33.015625 
L 54.890625 0 
L 45.90625 0 
L 45.90625 32.71875 
Q 45.90625 40.484375 42.875 44.328125 
Q 39.84375 48.1875 33.796875 48.1875 
Q 26.515625 48.1875 22.3125 43.546875 
Q 18.109375 38.921875 18.109375 30.90625 
L 18.109375 0 
L 9.078125 0 
L 9.078125 75.984375 
L 18.109375 75.984375 
L 18.109375 46.1875 
Q 21.34375 51.125 25.703125 53.5625 
Q 30.078125 56 35.796875 56 
Q 45.21875 56 50.046875 50.171875 
Q 54.890625 44.34375 54.890625 33.015625 
" id="BitstreamVeraSans-Roman-68"/>
      <path d="M 48.78125 52.59375 
L 48.78125 44.1875 
Q 44.96875 46.296875 41.140625 47.34375 
Q 37.3125 48.390625 33.40625 48.390625 
Q 24.65625 48.390625 19.8125 42.84375 
Q 14.984375 37.3125 14.984375 27.296875 
Q 14.984375 17.28125 19.8125 11.734375 
Q 24.65625 6.203125 33.40625 6.203125 
Q 37.3125 6.203125 41.140625 7.25 
Q 44.96875 8.296875 48.78125 10.40625 
L 48.78125 2.09375 
Q 45.015625 0.34375 40.984375 -0.53125 
Q 36.96875 -1.421875 32.421875 -1.421875 
Q 20.0625 -1.421875 12.78125 6.34375 
Q 5.515625 14.109375 5.515625 27.296875 
Q 5.515625 40.671875 12.859375 48.328125 
Q 20.21875 56 33.015625 56 
Q 37.15625 56 41.109375 55.140625 
Q 45.0625 54.296875 48.78125 52.59375 
" id="BitstreamVeraSans-Roman-63"/>
     </defs>
     <g transform="translate(109.198346023 39.065625)scale(0.12 -0.12)">
      <use xlink:href="#BitstreamVeraSans-Roman-5a"/>
      <use x="68.505859375" xlink:href="#BitstreamVeraSans-Roman-34"/>
      <use x="132.12890625" xlink:href="#BitstreamVeraSans-Roman-37"/>
      <use x="195.751953125" xlink:href="#BitstreamVeraSans-Roman-5f"/>
      <use x="245.751953125" xlink:href="#BitstreamVeraSans-Roman-68"/>
      <use x="309.130859375" xlink:href="#BitstreamVeraSans-Roman-65"/>
      <use x="370.654296875" xlink:href="#BitstreamVeraSans-Roman-6d"/>
      <use x="468.06640625" xlink:href="#BitstreamVeraSans-Roman-5f"/>
      <use x="518.06640625" xlink:href="#BitstreamVeraSans-Roman-74"/>
      <use x="557.275390625" xlink:href="#BitstreamVeraSans-Roman-63"/>
     </g>
    </g>
    <g id="PathCollection_9">
     <path d="M 79.198346 56.099193 
C 79.791358 56.099193 80.360162 55.863587 80.779485 55.444264 
C 81.198808 55.024941 81.434414 54.456137 81.434414 53.863125 
C 81.434414 53.270113 81.198808 52.701309 80.779485 52.281986 
C 80.360162 51.862663 79.791358 51.627057 79.198346 51.627057 
C 78.605334 51.627057 78.03653 51.862663 77.617207 52.281986 
C 77.197884 52.701309 76.962278 53.270113 76.962278 53.863125 
C 76.962278 54.456137 77.197884 55.024941 77.617207 55.444264 
C 78.03653 55.863587 78.605334 56.099193 79.198346 56.099193 
z
" style="fill:#ff0000;stroke:#ff0000;"/>
     <path d="M 87.598346 55.049193 
C 88.191358 55.049193 88.760162 54.813587 89.179485 54.394264 
C 89.598808 53.974941 89.834414 53.406137 89.834414 52.813125 
C 89.834414 52.220113 89.598808 51.651309 89.179485 51.231986 
C 88.760162 50.812663 88.191358 50.577057 87.598346 50.577057 
C 87.005334 50.577057 86.43653 50.812663 86.017207 51.231986 
C 85.597884 51.651309 85.362278 52.220113 85.362278 52.813125 
C 85.362278 53.406137 85.597884 53.974941 86.017207 54.394264 
C 86.43653 54.813587 87.005334 55.049193 87.598346 55.049193 
z
" style="fill:#ff0000;stroke:#ff0000;"/>
     <path d="M 95.998346 56.624193 
C 96.591358 56.624193 97.160162 56.388587 97.579485 55.969264 
C 97.998808 55.549941 98.234414 54.981137 98.234414 54.388125 
C 98.234414 53.795113 97.998808 53.226309 97.579485 52.806986 
C 97.160162 52.387663 96.591358 52.152057 95.998346 52.152057 
C 95.405334 52.152057 94.83653 52.387663 94.417207 52.806986 
C 93.997884 53.226309 93.762278 53.795113 93.762278 54.388125 
C 93.762278 54.981137 93.997884 55.549941 94.417207 55.969264 
C 94.83653 56.388587 95.405334 56.624193 95.998346 56.624193 
z
" style="fill:#ff0000;stroke:#ff0000;"/>
    </g>
    <g id="text_3">
     <!-- Z47_hem_tc -->
     <g transform="translate(109.198346023 57.013125)scale(0.12 -0.12)">
      <use xlink:href="#BitstreamVeraSans-Roman-5a"/>
      <use x="68.505859375" xlink:href="#BitstreamVeraSans-Roman-34"/>
      <use x="132.12890625" xlink:href="#BitstreamVeraSans-Roman-37"/>
      <use x="195.751953125" xlink:href="#BitstreamVeraSans-Roman-5f"/>
      <use x="245.751953125" xlink:href="#BitstreamVeraSans-Roman-68"/>
      <use x="309.130859375" xlink:href="#BitstreamVeraSans-Roman-65"/>
      <use x="370.654296875" xlink:href="#BitstreamVeraSans-Roman-6d"/>
      <use x="468.06640625" xlink:href="#BitstreamVeraSans-Roman-5f"/>
      <use x="518.06640625" xlink:href="#BitstreamVeraSans-Roman-74"/>
      <use x="557.275390625" xlink:href="#BitstreamVeraSans-Roman-63"/>
     </g>
    </g>
    <g id="PathCollection_10">
     <path d="M 76.962278 74.046693 
L 81.434414 74.046693 
L 81.434414 69.574557 
L 76.962278 69.574557 
z
" style="fill:#ffffff;stroke:#0000ff;"/>
     <path d="M 85.362278 72.996693 
L 89.834414 72.996693 
L 89.834414 68.524557 
L 85.362278 68.524557 
z
" style="fill:#ffffff;stroke:#0000ff;"/>
     <path d="M 93.762278 74.571693 
L 98.234414 74.571693 
L 98.234414 70.099557 
L 93.762278 70.099557 
z
" style="fill:#ffffff;stroke:#0000ff;"/>
    </g>
    <g id="text_4">
     <!-- Z47_mag_tc_mean -->
     <defs>
      <path d="M 54.890625 33.015625 
L 54.890625 0 
L 45.90625 0 
L 45.90625 32.71875 
Q 45.90625 40.484375 42.875 44.328125 
Q 39.84375 48.1875 33.796875 48.1875 
Q 26.515625 48.1875 22.3125 43.546875 
Q 18.109375 38.921875 18.109375 30.90625 
L 18.109375 0 
L 9.078125 0 
L 9.078125 54.6875 
L 18.109375 54.6875 
L 18.109375 46.1875 
Q 21.34375 51.125 25.703125 53.5625 
Q 30.078125 56 35.796875 56 
Q 45.21875 56 50.046875 50.171875 
Q 54.890625 44.34375 54.890625 33.015625 
" id="BitstreamVeraSans-Roman-6e"/>
      <path d="M 34.28125 27.484375 
Q 23.390625 27.484375 19.1875 25 
Q 14.984375 22.515625 14.984375 16.5 
Q 14.984375 11.71875 18.140625 8.90625 
Q 21.296875 6.109375 26.703125 6.109375 
Q 34.1875 6.109375 38.703125 11.40625 
Q 43.21875 16.703125 43.21875 25.484375 
L 43.21875 27.484375 
z
M 52.203125 31.203125 
L 52.203125 0 
L 43.21875 0 
L 43.21875 8.296875 
Q 40.140625 3.328125 35.546875 0.953125 
Q 30.953125 -1.421875 24.3125 -1.421875 
Q 15.921875 -1.421875 10.953125 3.296875 
Q 6 8.015625 6 15.921875 
Q 6 25.140625 12.171875 29.828125 
Q 18.359375 34.515625 30.609375 34.515625 
L 43.21875 34.515625 
L 43.21875 35.40625 
Q 43.21875 41.609375 39.140625 45 
Q 35.0625 48.390625 27.6875 48.390625 
Q 23 48.390625 18.546875 47.265625 
Q 14.109375 46.140625 10.015625 43.890625 
L 10.015625 52.203125 
Q 14.9375 54.109375 19.578125 55.046875 
Q 24.21875 56 28.609375 56 
Q 40.484375 56 46.34375 49.84375 
Q 52.203125 43.703125 52.203125 31.203125 
" id="BitstreamVeraSans-Roman-61"/>
     </defs>
     <g transform="translate(109.198346023 74.960625)scale(0.12 -0.12)">
      <use xlink:href="#BitstreamVeraSans-Roman-5a"/>
      <use x="68.505859375" xlink:href="#BitstreamVeraSans-Roman-34"/>
      <use x="132.12890625" xlink:href="#BitstreamVeraSans-Roman-37"/>
      <use x="195.751953125" xlink:href="#BitstreamVeraSans-Roman-5f"/>
      <use x="245.751953125" xlink:href="#BitstreamVeraSans-Roman-6d"/>
      <use x="343.1640625" xlink:href="#BitstreamVeraSans-Roman-61"/>
      <use x="404.443359375" xlink:href="#BitstreamVeraSans-Roman-67"/>
      <use x="467.919921875" xlink:href="#BitstreamVeraSans-Roman-5f"/>
      <use x="517.919921875" xlink:href="#BitstreamVeraSans-Roman-74"/>
      <use x="557.12890625" xlink:href="#BitstreamVeraSans-Roman-63"/>
      <use x="612.109375" xlink:href="#BitstreamVeraSans-Roman-5f"/>
      <use x="662.109375" xlink:href="#BitstreamVeraSans-Roman-6d"/>
      <use x="759.521484375" xlink:href="#BitstreamVeraSans-Roman-65"/>
      <use x="821.044921875" xlink:href="#BitstreamVeraSans-Roman-61"/>
      <use x="882.32421875" xlink:href="#BitstreamVeraSans-Roman-6e"/>
     </g>
    </g>
    <g id="PathCollection_11">
     <path d="M 76.962278 91.994193 
L 81.434414 91.994193 
L 81.434414 87.522057 
L 76.962278 87.522057 
z
" style="fill:#ff0000;stroke:#ff0000;"/>
     <path d="M 85.362278 90.944193 
L 89.834414 90.944193 
L 89.834414 86.472057 
L 85.362278 86.472057 
z
" style="fill:#ff0000;stroke:#ff0000;"/>
     <path d="M 93.762278 92.519193 
L 98.234414 92.519193 
L 98.234414 88.047057 
L 93.762278 88.047057 
z
" style="fill:#ff0000;stroke:#ff0000;"/>
    </g>
    <g id="text_5">
     <!-- Z47_hem_tc_mean -->
     <g transform="translate(109.198346023 92.908125)scale(0.12 -0.12)">
      <use xlink:href="#BitstreamVeraSans-Roman-5a"/>
      <use x="68.505859375" xlink:href="#BitstreamVeraSans-Roman-34"/>
      <use x="132.12890625" xlink:href="#BitstreamVeraSans-Roman-37"/>
      <use x="195.751953125" xlink:href="#BitstreamVeraSans-Roman-5f"/>
      <use x="245.751953125" xlink:href="#BitstreamVeraSans-Roman-68"/>
      <use x="309.130859375" xlink:href="#BitstreamVeraSans-Roman-65"/>
      <use x="370.654296875" xlink:href="#BitstreamVeraSans-Roman-6d"/>
      <use x="468.06640625" xlink:href="#BitstreamVeraSans-Roman-5f"/>
      <use x="518.06640625" xlink:href="#BitstreamVeraSans-Roman-74"/>
      <use x="557.275390625" xlink:href="#BitstreamVeraSans-Roman-63"/>
      <use x="612.255859375" xlink:href="#BitstreamVeraSans-Roman-5f"/>
      <use x="662.255859375" xlink:href="#BitstreamVeraSans-Roman-6d"/>
      <use x="759.66796875" xlink:href="#BitstreamVeraSans-Roman-65"/>
      <use x="821.19140625" xlink:href="#BitstreamVeraSans-Roman-61"/>
      <use x="882.470703125" xlink:href="#BitstreamVeraSans-Roman-6e"/>
     </g>
    </g>
   </g>
  </g>
 </g>
 <defs>
  <clipPath id="pf22768e4bf">
   <rect height="253.4" width="235.43689015" x="35.4828125" y="37.1875"/>
  </clipPath>
 </defs>
</svg>
