<?xml version="1.0" encoding="utf-8" standalone="no"?>
<!DOCTYPE svg PUBLIC "-//W3C//DTD SVG 1.1//EN"
  "http://www.w3.org/Graphics/SVG/1.1/DTD/svg11.dtd">
<!-- Created with matplotlib (http://matplotlib.org/) -->
<svg height="367pt" version="1.1" viewBox="0 0 370 367" width="370pt" xmlns="http://www.w3.org/2000/svg" xmlns:xlink="http://www.w3.org/1999/xlink">
 <defs>
  <style type="text/css">
*{stroke-linecap:butt;stroke-linejoin:round;stroke-miterlimit:100000;}
  </style>
 </defs>
 <g id="figure_1">
  <g id="patch_1">
   <path d="M -0 367.59625 
L 370.270556 367.59625 
L 370.270556 0 
L -0 0 
L -0 367.59625 
z
" style="fill:none;"/>
  </g>
  <g id="axes_1">
   <g id="PathCollection_1">
    <defs>
     <path d="M -2.236068 2.236068 
L 2.236068 2.236068 
L 2.236068 -2.236068 
L -2.236068 -2.236068 
z
" id="me3c3f26f54" style="stroke:#ff0000;"/>
    </defs>
    <g clip-path="url(#p0be8515659)">
     <use style="fill:#ff0000;stroke:#ff0000;" x="177.662347535" xlink:href="#me3c3f26f54" y="322.433458856"/>
    </g>
   </g>
   <g id="PathCollection_2">
    <defs>
     <path d="M -2.236068 2.236068 
L 2.236068 2.236068 
L 2.236068 -2.236068 
L -2.236068 -2.236068 
z
" id="m1fd2666f9e" style="stroke:#ff0000;"/>
    </defs>
    <g clip-path="url(#p0be8515659)">
     <use style="fill:#ffffff;stroke:#ff0000;" x="112.071313028" xlink:href="#m1fd2666f9e" y="223.795946607"/>
    </g>
   </g>
   <g id="PathCollection_3">
    <g clip-path="url(#p0be8515659)">
     <use style="fill:#ffffff;stroke:#ff0000;" x="123.849562412" xlink:href="#m1fd2666f9e" y="306.464841577"/>
    </g>
   </g>
   <g id="PathCollection_4">
    <g clip-path="url(#p0be8515659)">
     <use style="fill:#ff0000;stroke:#ff0000;" x="137.173191003" xlink:href="#me3c3f26f54" y="317.74493183"/>
    </g>
   </g>
   <g id="PathCollection_5">
    <g clip-path="url(#p0be8515659)">
     <use style="fill:#ffffff;stroke:#ff0000;" x="138.520323979" xlink:href="#m1fd2666f9e" y="310.331993253"/>
    </g>
   </g>
   <g id="PathCollection_6">
    <g clip-path="url(#p0be8515659)">
     <use style="fill:#ffffff;stroke:#ff0000;" x="148.27456721" xlink:href="#m1fd2666f9e" y="309.314200773"/>
    </g>
   </g>
   <g id="PathCollection_7">
    <g clip-path="url(#p0be8515659)">
     <use style="fill:#ff0000;stroke:#ff0000;" x="250.78680998" xlink:href="#me3c3f26f54" y="295.040690951"/>
    </g>
   </g>
   <g id="PathCollection_8">
    <g clip-path="url(#p0be8515659)">
     <use style="fill:#ff0000;stroke:#ff0000;" x="204.015396592" xlink:href="#me3c3f26f54" y="311.748485826"/>
    </g>
   </g>
   <g id="PathCollection_9">
    <g clip-path="url(#p0be8515659)">
     <use style="fill:#ff0000;stroke:#ff0000;" x="221.447821364" xlink:href="#me3c3f26f54" y="292.775090703"/>
    </g>
   </g>
   <g id="PathCollection_10">
    <g clip-path="url(#p0be8515659)">
     <use style="fill:#ff0000;stroke:#ff0000;" x="222.287346762" xlink:href="#me3c3f26f54" y="299.235281414"/>
    </g>
   </g>
   <g id="PathCollection_11">
    <g clip-path="url(#p0be8515659)">
     <use style="fill:#ff0000;stroke:#ff0000;" x="189.842032846" xlink:href="#me3c3f26f54" y="285.193143653"/>
    </g>
   </g>
   <g id="PathCollection_12">
    <g clip-path="url(#p0be8515659)">
     <use style="fill:#ff0000;stroke:#ff0000;" x="172.776330544" xlink:href="#me3c3f26f54" y="326.393288909"/>
    </g>
   </g>
   <g id="PathCollection_13">
    <g clip-path="url(#p0be8515659)">
     <use style="fill:#ff0000;stroke:#ff0000;" x="198.689222026" xlink:href="#me3c3f26f54" y="301.546749136"/>
    </g>
   </g>
   <g id="PathCollection_14">
    <g clip-path="url(#p0be8515659)">
     <use style="fill:#ff0000;stroke:#ff0000;" x="154.060029829" xlink:href="#me3c3f26f54" y="305.471649462"/>
    </g>
   </g>
   <g id="PathCollection_15">
    <g clip-path="url(#p0be8515659)">
     <use style="fill:#ff0000;stroke:#ff0000;" x="202.800419468" xlink:href="#me3c3f26f54" y="299.220444424"/>
    </g>
   </g>
   <g id="PathCollection_16">
    <g clip-path="url(#p0be8515659)">
     <use style="fill:#ff0000;stroke:#ff0000;" x="204.201788383" xlink:href="#me3c3f26f54" y="300.114490852"/>
    </g>
   </g>
   <g id="PathCollection_17">
    <g clip-path="url(#p0be8515659)">
     <use style="fill:#ff0000;stroke:#ff0000;" x="206.336037036" xlink:href="#me3c3f26f54" y="302.982186673"/>
    </g>
   </g>
   <g id="PathCollection_18">
    <g clip-path="url(#p0be8515659)">
     <use style="fill:#ffffff;stroke:#ff0000;" x="154.271457367" xlink:href="#m1fd2666f9e" y="309.640451436"/>
    </g>
   </g>
   <g id="PathCollection_19">
    <g clip-path="url(#p0be8515659)">
     <use style="fill:#ffffff;stroke:#ff0000;" x="136.113420829" xlink:href="#m1fd2666f9e" y="275.355811189"/>
    </g>
   </g>
   <g id="PathCollection_20">
    <g clip-path="url(#p0be8515659)">
     <use style="fill:#ffffff;stroke:#ff0000;" x="189.464339597" xlink:href="#m1fd2666f9e" y="300.614608144"/>
    </g>
   </g>
   <g id="PathCollection_21">
    <g clip-path="url(#p0be8515659)">
     <use style="fill:#ffffff;stroke:#ff0000;" x="184.056351718" xlink:href="#m1fd2666f9e" y="305.10402926"/>
    </g>
   </g>
   <g id="line2d_1">
    <path clip-path="url(#p0be8515659)" d="M 190.079306 37.125693 
L 192.648907 37.148065 
L 195.217725 37.215176 
L 200.349884 37.483516 
L 205.469529 37.930385 
L 210.570424 38.55524 
L 215.646353 39.357319 
L 220.691133 40.335645 
L 225.698618 41.489026 
L 230.662705 42.816057 
L 235.577348 44.31512 
L 240.436559 45.984391 
L 245.234417 47.821834 
L 249.965077 49.825211 
L 254.622775 51.992082 
L 259.201837 54.319806 
L 263.696684 56.805547 
L 268.10184 59.446278 
L 272.411937 62.23878 
L 276.621725 65.179651 
L 280.726074 68.265309 
L 284.719983 71.491994 
L 288.598588 74.855774 
L 292.357162 78.352552 
L 295.991126 81.978068 
L 299.496054 85.727903 
L 302.867673 89.59749 
L 306.101878 93.582114 
L 309.194726 97.67692 
L 312.142451 101.876919 
L 314.941461 106.176996 
L 317.588346 110.571909 
L 320.07988 115.056305 
L 322.413029 119.624721 
L 324.584949 124.27159 
L 326.592995 128.991251 
L 328.43472 133.777954 
L 330.107881 138.625867 
L 331.610438 143.529083 
L 332.940561 148.481629 
L 334.09663 153.477471 
L 335.077236 158.510522 
L 335.881184 163.57465 
L 336.507495 168.663685 
L 336.955406 173.771427 
L 337.224371 178.891653 
L 337.314062 184.018125 
L 337.224371 189.144597 
L 336.955406 194.264823 
L 336.507495 199.372565 
L 335.881184 204.4616 
L 335.077236 209.525728 
L 334.09663 214.558779 
L 332.940561 219.554621 
L 331.610438 224.507167 
L 330.107881 229.410383 
L 328.43472 234.258296 
L 326.592995 239.044999 
L 324.584949 243.76466 
L 322.413029 248.411529 
L 320.07988 252.979945 
L 317.588346 257.464341 
L 314.941461 261.859254 
L 312.142451 266.159331 
L 309.194726 270.35933 
L 306.101878 274.454136 
L 302.867673 278.43876 
L 299.496054 282.308347 
L 295.991126 286.058182 
L 292.357162 289.683698 
L 288.598588 293.180476 
L 284.719983 296.544256 
L 280.726074 299.770941 
L 276.621725 302.856599 
L 272.411937 305.79747 
L 268.10184 308.589972 
L 263.696684 311.230703 
L 259.201837 313.716444 
L 254.622775 316.044168 
L 249.965077 318.211039 
L 245.234417 320.214416 
L 240.436559 322.051859 
L 235.577348 323.72113 
L 230.662705 325.220193 
L 225.698618 326.547224 
L 220.691133 327.700605 
L 215.646353 328.678931 
L 210.570424 329.48101 
L 205.469529 330.105865 
L 200.349884 330.552734 
L 195.217725 330.821074 
L 190.079306 330.910557 
L 184.940888 330.821074 
L 179.808729 330.552734 
L 174.689084 330.105865 
L 169.588189 329.48101 
L 164.512259 328.678931 
L 159.467479 327.700605 
L 154.459995 326.547224 
L 149.495908 325.220193 
L 144.581265 323.72113 
L 139.722054 322.051859 
L 134.924196 320.214416 
L 130.193536 318.211039 
L 125.535838 316.044168 
L 120.956775 313.716444 
L 116.461928 311.230703 
L 112.056773 308.589972 
L 107.746676 305.79747 
L 103.536888 302.856599 
L 99.432539 299.770941 
L 95.438629 296.544256 
L 91.560025 293.180476 
L 87.801451 289.683698 
L 84.167486 286.058182 
L 80.662559 282.308347 
L 77.29094 278.43876 
L 74.056735 274.454136 
L 70.963887 270.35933 
L 68.016162 266.159331 
L 65.217152 261.859254 
L 62.570267 257.464341 
L 60.078733 252.979945 
L 57.745584 248.411529 
L 55.573664 243.76466 
L 53.565618 239.044999 
L 51.723893 234.258296 
L 50.050732 229.410383 
L 48.548175 224.507167 
L 47.218052 219.554621 
L 46.061983 214.558779 
L 45.081377 209.525728 
L 44.277429 204.4616 
L 43.651118 199.372565 
L 43.203207 194.264823 
L 42.934242 189.144597 
L 42.84455 184.018125 
L 42.934242 178.891653 
L 43.203207 173.771427 
L 43.651118 168.663685 
L 44.277429 163.57465 
L 45.081377 158.510522 
L 46.061983 153.477471 
L 47.218052 148.481629 
L 48.548175 143.529083 
L 50.050732 138.625867 
L 51.723893 133.777954 
L 53.565618 128.991251 
L 55.573664 124.27159 
L 57.745584 119.624721 
L 60.078733 115.056305 
L 62.570267 110.571909 
L 65.217152 106.176996 
L 68.016162 101.876919 
L 70.963887 97.67692 
L 74.056735 93.582114 
L 77.29094 89.59749 
L 80.662559 85.727903 
L 84.167486 81.978068 
L 87.801451 78.352552 
L 91.560025 74.855774 
L 95.438629 71.491994 
L 99.432539 68.265309 
L 103.536888 65.179651 
L 107.746676 62.23878 
L 112.056773 59.446278 
L 116.461928 56.805547 
L 120.956775 54.319806 
L 125.535838 51.992082 
L 130.193536 49.825211 
L 134.924196 47.821834 
L 139.722054 45.984391 
L 144.581265 44.31512 
L 149.495908 42.816057 
L 154.459995 41.489026 
L 159.467479 40.335645 
L 164.512259 39.357319 
L 169.588189 38.55524 
L 174.689084 37.930385 
L 179.808729 37.483516 
L 184.940888 37.215176 
L 190.079306 37.125693 
L 190.079306 37.125693 
" style="fill:none;stroke:#000000;stroke-linecap:square;"/>
   </g>
   <g id="line2d_2">
    <defs>
     <path d="M -3 0 
L 3 0 
M 0 3 
L 0 -3 
" id="m20fa2681aa" style="stroke:#000000;stroke-width:0.5;"/>
    </defs>
    <g clip-path="url(#p0be8515659)">
     <use style="stroke:#000000;stroke-width:0.5;" x="190.079306402" xlink:href="#m20fa2681aa" y="50.4871820915"/>
     <use style="stroke:#000000;stroke-width:0.5;" x="190.079306402" xlink:href="#m20fa2681aa" y="64.8649222595"/>
     <use style="stroke:#000000;stroke-width:0.5;" x="190.079306402" xlink:href="#m20fa2681aa" y="80.1494902471"/>
     <use style="stroke:#000000;stroke-width:0.5;" x="190.079306402" xlink:href="#m20fa2681aa" y="96.2245612627"/>
     <use style="stroke:#000000;stroke-width:0.5;" x="190.079306402" xlink:href="#m20fa2681aa" y="112.96779431"/>
     <use style="stroke:#000000;stroke-width:0.5;" x="190.079306402" xlink:href="#m20fa2681aa" y="130.251763274"/>
     <use style="stroke:#000000;stroke-width:0.5;" x="190.079306402" xlink:href="#m20fa2681aa" y="147.944926717"/>
     <use style="stroke:#000000;stroke-width:0.5;" x="190.079306402" xlink:href="#m20fa2681aa" y="165.91262898"/>
     <use style="stroke:#000000;stroke-width:0.5;" x="190.079306402" xlink:href="#m20fa2681aa" y="184.018125"/>
    </g>
   </g>
   <g id="line2d_3">
    <g clip-path="url(#p0be8515659)">
     <use style="stroke:#000000;stroke-width:0.5;" x="323.921435276" xlink:href="#m20fa2681aa" y="184.018125"/>
     <use style="stroke:#000000;stroke-width:0.5;" x="309.510188635" xlink:href="#m20fa2681aa" y="184.018125"/>
     <use style="stroke:#000000;stroke-width:0.5;" x="294.190000865" xlink:href="#m20fa2681aa" y="184.018125"/>
     <use style="stroke:#000000;stroke-width:0.5;" x="278.077467848" xlink:href="#m20fa2681aa" y="184.018125"/>
     <use style="stroke:#000000;stroke-width:0.5;" x="261.295215686" xlink:href="#m20fa2681aa" y="184.018125"/>
     <use style="stroke:#000000;stroke-width:0.5;" x="243.970967454" xlink:href="#m20fa2681aa" y="184.018125"/>
     <use style="stroke:#000000;stroke-width:0.5;" x="226.236571141" xlink:href="#m20fa2681aa" y="184.018125"/>
     <use style="stroke:#000000;stroke-width:0.5;" x="208.22699621" xlink:href="#m20fa2681aa" y="184.018125"/>
    </g>
   </g>
   <g id="line2d_4">
    <g clip-path="url(#p0be8515659)">
     <use style="stroke:#000000;stroke-width:0.5;" x="190.079306402" xlink:href="#m20fa2681aa" y="317.549067908"/>
     <use style="stroke:#000000;stroke-width:0.5;" x="190.079306402" xlink:href="#m20fa2681aa" y="303.17132774"/>
     <use style="stroke:#000000;stroke-width:0.5;" x="190.079306402" xlink:href="#m20fa2681aa" y="287.886759753"/>
     <use style="stroke:#000000;stroke-width:0.5;" x="190.079306402" xlink:href="#m20fa2681aa" y="271.811688737"/>
     <use style="stroke:#000000;stroke-width:0.5;" x="190.079306402" xlink:href="#m20fa2681aa" y="255.06845569"/>
     <use style="stroke:#000000;stroke-width:0.5;" x="190.079306402" xlink:href="#m20fa2681aa" y="237.784486726"/>
     <use style="stroke:#000000;stroke-width:0.5;" x="190.079306402" xlink:href="#m20fa2681aa" y="220.091323283"/>
     <use style="stroke:#000000;stroke-width:0.5;" x="190.079306402" xlink:href="#m20fa2681aa" y="202.12362102"/>
    </g>
   </g>
   <g id="line2d_5">
    <g clip-path="url(#p0be8515659)">
     <use style="stroke:#000000;stroke-width:0.5;" x="56.2371775292" xlink:href="#m20fa2681aa" y="184.018125"/>
     <use style="stroke:#000000;stroke-width:0.5;" x="70.6484241703" xlink:href="#m20fa2681aa" y="184.018125"/>
     <use style="stroke:#000000;stroke-width:0.5;" x="85.9686119395" xlink:href="#m20fa2681aa" y="184.018125"/>
     <use style="stroke:#000000;stroke-width:0.5;" x="102.081144957" xlink:href="#m20fa2681aa" y="184.018125"/>
     <use style="stroke:#000000;stroke-width:0.5;" x="118.863397119" xlink:href="#m20fa2681aa" y="184.018125"/>
     <use style="stroke:#000000;stroke-width:0.5;" x="136.187645351" xlink:href="#m20fa2681aa" y="184.018125"/>
     <use style="stroke:#000000;stroke-width:0.5;" x="153.922041664" xlink:href="#m20fa2681aa" y="184.018125"/>
     <use style="stroke:#000000;stroke-width:0.5;" x="171.931616595" xlink:href="#m20fa2681aa" y="184.018125"/>
    </g>
   </g>
   <g id="line2d_6">
    <path clip-path="url(#p0be8515659)" d="M 190.079306 37.125693 
L 190.079306 38.413148 
L 190.079306 39.711692 
L 190.079306 41.021225 
" style="fill:none;stroke:#000000;stroke-linecap:square;"/>
   </g>
   <g id="line2d_7">
    <path clip-path="url(#p0be8515659)" d="M 215.646353 39.357319 
L 215.422268 40.625215 
L 215.196253 41.904031 
L 214.968325 43.193669 
" style="fill:none;stroke:#000000;stroke-linecap:square;"/>
   </g>
   <g id="line2d_8">
    <path clip-path="url(#p0be8515659)" d="M 240.436559 45.984391 
L 239.995197 47.194203 
L 239.550034 48.414435 
L 239.101103 49.644993 
" style="fill:none;stroke:#000000;stroke-linecap:square;"/>
   </g>
   <g id="line2d_9">
    <path clip-path="url(#p0be8515659)" d="M 263.696684 56.805547 
L 263.051457 57.920516 
L 262.400672 59.045088 
L 261.744379 60.179177 
" style="fill:none;stroke:#000000;stroke-linecap:square;"/>
   </g>
   <g id="line2d_10">
    <path clip-path="url(#p0be8515659)" d="M 284.719983 71.491994 
L 283.890494 72.478242 
L 283.053862 73.472984 
L 282.210148 74.476144 
" style="fill:none;stroke:#000000;stroke-linecap:square;"/>
   </g>
   <g id="line2d_11">
    <path clip-path="url(#p0be8515659)" d="M 302.867673 89.59749 
L 301.879127 90.42505 
L 300.882067 91.259738 
L 299.876568 92.101489 
" style="fill:none;stroke:#000000;stroke-linecap:square;"/>
   </g>
   <g id="line2d_12">
    <path clip-path="url(#p0be8515659)" d="M 317.588346 110.571909 
L 316.470778 111.215637 
L 315.343586 111.864908 
L 314.206854 112.519675 
" style="fill:none;stroke:#000000;stroke-linecap:square;"/>
   </g>
   <g id="line2d_13">
    <path clip-path="url(#p0be8515659)" d="M 328.43472 133.777954 
L 327.222089 134.21829 
L 325.999013 134.662418 
L 324.765587 135.110305 
" style="fill:none;stroke:#000000;stroke-linecap:square;"/>
   </g>
   <g id="line2d_14">
    <path clip-path="url(#p0be8515659)" d="M 335.077236 158.510522 
L 333.806385 158.734086 
L 332.524589 158.959576 
L 331.231945 159.186974 
" style="fill:none;stroke:#000000;stroke-linecap:square;"/>
   </g>
   <g id="line2d_15">
    <path clip-path="url(#p0be8515659)" d="M 337.314062 184.018125 
L 336.023607 184.018125 
L 334.722037 184.018125 
L 333.409452 184.018125 
" style="fill:none;stroke:#000000;stroke-linecap:square;"/>
   </g>
   <g id="line2d_16">
    <path clip-path="url(#p0be8515659)" d="M 335.077236 209.525728 
L 333.806385 209.302164 
L 332.524589 209.076674 
L 331.231945 208.849276 
" style="fill:none;stroke:#000000;stroke-linecap:square;"/>
   </g>
   <g id="line2d_17">
    <path clip-path="url(#p0be8515659)" d="M 328.43472 234.258296 
L 327.222089 233.81796 
L 325.999013 233.373832 
L 324.765587 232.925945 
" style="fill:none;stroke:#000000;stroke-linecap:square;"/>
   </g>
   <g id="line2d_18">
    <path clip-path="url(#p0be8515659)" d="M 317.588346 257.464341 
L 316.470778 256.820613 
L 315.343586 256.171342 
L 314.206854 255.516575 
" style="fill:none;stroke:#000000;stroke-linecap:square;"/>
   </g>
   <g id="line2d_19">
    <path clip-path="url(#p0be8515659)" d="M 302.867673 278.43876 
L 301.879127 277.6112 
L 300.882067 276.776512 
L 299.876568 275.934761 
" style="fill:none;stroke:#000000;stroke-linecap:square;"/>
   </g>
   <g id="line2d_20">
    <path clip-path="url(#p0be8515659)" d="M 284.719983 296.544256 
L 283.890494 295.558008 
L 283.053862 294.563266 
L 282.210148 293.560106 
" style="fill:none;stroke:#000000;stroke-linecap:square;"/>
   </g>
   <g id="line2d_21">
    <path clip-path="url(#p0be8515659)" d="M 263.696684 311.230703 
L 263.051457 310.115734 
L 262.400672 308.991162 
L 261.744379 307.857073 
" style="fill:none;stroke:#000000;stroke-linecap:square;"/>
   </g>
   <g id="line2d_22">
    <path clip-path="url(#p0be8515659)" d="M 240.436559 322.051859 
L 239.995197 320.842047 
L 239.550034 319.621815 
L 239.101103 318.391257 
" style="fill:none;stroke:#000000;stroke-linecap:square;"/>
   </g>
   <g id="line2d_23">
    <path clip-path="url(#p0be8515659)" d="M 215.646353 328.678931 
L 215.422268 327.411035 
L 215.196253 326.132219 
L 214.968325 324.842581 
" style="fill:none;stroke:#000000;stroke-linecap:square;"/>
   </g>
   <g id="line2d_24">
    <path clip-path="url(#p0be8515659)" d="M 190.079306 330.910557 
L 190.079306 329.623102 
L 190.079306 328.324558 
L 190.079306 327.015025 
" style="fill:none;stroke:#000000;stroke-linecap:square;"/>
   </g>
   <g id="line2d_25">
    <path clip-path="url(#p0be8515659)" d="M 164.512259 328.678931 
L 164.736345 327.411035 
L 164.96236 326.132219 
L 165.190288 324.842581 
" style="fill:none;stroke:#000000;stroke-linecap:square;"/>
   </g>
   <g id="line2d_26">
    <path clip-path="url(#p0be8515659)" d="M 139.722054 322.051859 
L 140.163416 320.842047 
L 140.608579 319.621815 
L 141.057509 318.391257 
" style="fill:none;stroke:#000000;stroke-linecap:square;"/>
   </g>
   <g id="line2d_27">
    <path clip-path="url(#p0be8515659)" d="M 116.461928 311.230703 
L 117.107156 310.115734 
L 117.757941 308.991162 
L 118.414233 307.857073 
" style="fill:none;stroke:#000000;stroke-linecap:square;"/>
   </g>
   <g id="line2d_28">
    <path clip-path="url(#p0be8515659)" d="M 95.438629 296.544256 
L 96.268118 295.558008 
L 97.104751 294.563266 
L 97.948465 293.560106 
" style="fill:none;stroke:#000000;stroke-linecap:square;"/>
   </g>
   <g id="line2d_29">
    <path clip-path="url(#p0be8515659)" d="M 77.29094 278.43876 
L 78.279486 277.6112 
L 79.276546 276.776512 
L 80.282045 275.934761 
" style="fill:none;stroke:#000000;stroke-linecap:square;"/>
   </g>
   <g id="line2d_30">
    <path clip-path="url(#p0be8515659)" d="M 62.570267 257.464341 
L 63.687835 256.820613 
L 64.815027 256.171342 
L 65.951759 255.516575 
" style="fill:none;stroke:#000000;stroke-linecap:square;"/>
   </g>
   <g id="line2d_31">
    <path clip-path="url(#p0be8515659)" d="M 51.723893 234.258296 
L 52.936524 233.81796 
L 54.1596 233.373832 
L 55.393026 232.925945 
" style="fill:none;stroke:#000000;stroke-linecap:square;"/>
   </g>
   <g id="line2d_32">
    <path clip-path="url(#p0be8515659)" d="M 45.081377 209.525728 
L 46.352228 209.302164 
L 47.634024 209.076674 
L 48.926668 208.849276 
" style="fill:none;stroke:#000000;stroke-linecap:square;"/>
   </g>
   <g id="line2d_33">
    <path clip-path="url(#p0be8515659)" d="M 42.84455 184.018125 
L 44.135006 184.018125 
L 45.436576 184.018125 
L 46.749161 184.018125 
" style="fill:none;stroke:#000000;stroke-linecap:square;"/>
   </g>
   <g id="line2d_34">
    <path clip-path="url(#p0be8515659)" d="M 45.081377 158.510522 
L 46.352228 158.734086 
L 47.634024 158.959576 
L 48.926668 159.186974 
" style="fill:none;stroke:#000000;stroke-linecap:square;"/>
   </g>
   <g id="line2d_35">
    <path clip-path="url(#p0be8515659)" d="M 51.723893 133.777954 
L 52.936524 134.21829 
L 54.1596 134.662418 
L 55.393026 135.110305 
" style="fill:none;stroke:#000000;stroke-linecap:square;"/>
   </g>
   <g id="line2d_36">
    <path clip-path="url(#p0be8515659)" d="M 62.570267 110.571909 
L 63.687835 111.215637 
L 64.815027 111.864908 
L 65.951759 112.519675 
" style="fill:none;stroke:#000000;stroke-linecap:square;"/>
   </g>
   <g id="line2d_37">
    <path clip-path="url(#p0be8515659)" d="M 77.29094 89.59749 
L 78.279486 90.42505 
L 79.276546 91.259738 
L 80.282045 92.101489 
" style="fill:none;stroke:#000000;stroke-linecap:square;"/>
   </g>
   <g id="line2d_38">
    <path clip-path="url(#p0be8515659)" d="M 95.438629 71.491994 
L 96.268118 72.478242 
L 97.104751 73.472984 
L 97.948465 74.476144 
" style="fill:none;stroke:#000000;stroke-linecap:square;"/>
   </g>
   <g id="line2d_39">
    <path clip-path="url(#p0be8515659)" d="M 116.461928 56.805547 
L 117.107156 57.920516 
L 117.757941 59.045088 
L 118.414233 60.179177 
" style="fill:none;stroke:#000000;stroke-linecap:square;"/>
   </g>
   <g id="line2d_40">
    <path clip-path="url(#p0be8515659)" d="M 139.722054 45.984391 
L 140.163416 47.194203 
L 140.608579 48.414435 
L 141.057509 49.644993 
" style="fill:none;stroke:#000000;stroke-linecap:square;"/>
   </g>
   <g id="line2d_41">
    <path clip-path="url(#p0be8515659)" d="M 164.512259 39.357319 
L 164.736345 40.625215 
L 164.96236 41.904031 
L 165.190288 43.193669 
" style="fill:none;stroke:#000000;stroke-linecap:square;"/>
   </g>
   <g id="line2d_42">
    <path clip-path="url(#p0be8515659)" d="M 163.795268 320.531625 
L 163.740119 321.012699 
L 163.739936 321.50063 
L 163.795191 321.99352 
L 163.906138 322.489404 
L 164.072804 322.986258 
L 164.294983 323.482008 
L 164.572227 323.974535 
L 164.90384 324.46169 
L 165.288877 324.941303 
L 165.726135 325.411194 
L 166.214158 325.869187 
L 166.751229 326.313123 
L 167.335381 326.740875 
L 167.964394 327.150362 
L 168.635805 327.539562 
L 169.346914 327.906532 
L 170.094798 328.24942 
L 170.87632 328.566479 
L 171.688145 328.856083 
L 172.526758 329.11674 
L 173.388484 329.347107 
L 174.269505 329.545995 
L 175.165887 329.712388 
L 176.0736 329.845445 
L 176.988546 329.94451 
L 177.906584 330.009115 
L 178.823554 330.038986 
L 179.735306 330.034044 
L 180.637725 329.994401 
L 181.526758 329.920362 
L 182.398438 329.812419 
L 183.248907 329.671243 
L 184.074442 329.497681 
L 184.87147 329.29274 
L 185.636595 329.057585 
L 186.36661 328.79352 
L 187.05851 328.50198 
L 187.709514 328.184516 
L 188.317066 327.842785 
L 188.87885 327.47853 
L 189.392795 327.093573 
L 189.857079 326.689797 
L 190.270131 326.269134 
L 190.630633 325.833552 
L 190.93752 325.385044 
L 191.189972 324.925613 
L 191.387418 324.457266 
L 191.529525 323.981999 
L 191.616192 323.50179 
L 191.647546 323.018592 
L 191.62393 322.534322 
L 191.545897 322.050857 
L 191.414201 321.570029 
L 191.229785 321.093615 
L 190.993774 320.623338 
L 190.707464 320.160862 
L 190.372311 319.707786 
L 189.989923 319.265647 
L 189.562049 318.835914 
L 189.090572 318.419986 
L 188.577495 318.019195 
L 188.024935 317.634802 
L 187.435115 317.268 
L 186.810352 316.919908 
L 186.153053 316.591579 
L 185.465701 316.283992 
L 184.750854 315.998059 
L 184.011134 315.734621 
L 183.24922 315.494451 
L 182.46784 315.278252 
L 181.669768 315.086661 
L 180.857812 314.920243 
L 180.034813 314.779499 
L 179.203636 314.664857 
L 178.367163 314.576681 
L 177.52829 314.515263 
L 176.689918 314.480828 
L 175.854947 314.473531 
L 175.026275 314.493455 
L 174.206785 314.540612 
L 173.399343 314.614942 
L 172.60679 314.716312 
L 171.831937 314.844511 
L 171.077558 314.999256 
L 170.346383 315.180181 
L 169.64109 315.386842 
L 168.964299 315.618717 
L 168.318566 315.875195 
L 167.70637 316.155585 
L 167.13011 316.459107 
L 166.592095 316.784896 
L 166.094534 317.131997 
L 165.639527 317.499364 
L 165.229057 317.885861 
L 164.864981 318.290264 
L 164.549016 318.711254 
L 164.282734 319.147425 
L 164.067548 319.59728 
L 163.904704 320.059236 
L 163.795268 320.531625 
" style="fill:none;stroke:#ff0000;stroke-linecap:square;"/>
   </g>
   <g id="line2d_43">
    <path clip-path="url(#p0be8515659)" d="M 92.841166 127.501738 
L 88.177426 128.690242 
L 83.563603 130.236978 
L 79.01849 132.150674 
L 74.562339 134.439166 
L 70.216942 137.109158 
L 66.005673 140.165944 
L 61.953517 143.613091 
L 58.087045 147.452081 
L 54.434354 151.681916 
L 51.024924 156.298694 
L 47.889418 161.295161 
L 45.059375 166.660259 
L 44.042652 172.49513 
L 45.494765 178.619069 
L 47.090417 184.747904 
L 48.828007 190.875598 
L 50.705796 196.996118 
L 52.721911 203.103432 
L 54.874344 209.191523 
L 57.160956 215.25439 
L 59.579478 221.286055 
L 62.127515 227.280572 
L 64.802543 233.232027 
L 67.601918 239.134551 
L 70.522873 244.982319 
L 73.562525 250.769562 
L 76.717876 256.490566 
L 79.985813 262.139686 
L 83.363118 267.711342 
L 86.846465 273.200032 
L 90.432427 278.600335 
L 94.117475 283.906915 
L 97.897989 289.114527 
L 101.770255 294.218023 
L 105.730472 299.212356 
L 109.774755 304.092586 
L 113.89914 308.853881 
L 119.234815 311.449537 
L 125.251012 312.303762 
L 131.146668 312.695061 
L 136.894322 312.642461 
L 142.470123 312.166505 
L 147.853631 311.288747 
L 153.02758 310.03132 
L 157.977608 308.416579 
L 162.691977 306.466816 
L 167.161298 304.204033 
L 171.378253 301.649777 
L 175.337344 298.825014 
L 179.034654 295.750053 
L 182.467628 292.444491 
L 185.634882 288.927188 
L 188.53603 285.21627 
L 191.17153 281.329131 
L 193.542553 277.282463 
L 195.650867 273.092284 
L 197.498744 268.773971 
L 199.088871 264.342306 
L 200.424281 259.811511 
L 201.508298 255.195293 
L 202.344483 250.506884 
L 202.936596 245.759081 
L 203.288561 240.964284 
L 203.404443 236.134535 
L 203.288422 231.281549 
L 202.944779 226.41675 
L 202.377884 221.5513 
L 201.592182 216.696128 
L 200.592193 211.861954 
L 199.382502 207.059319 
L 197.967761 202.298606 
L 196.352686 197.590057 
L 194.542062 192.943803 
L 192.540744 188.369875 
L 190.353661 183.878226 
L 187.985825 179.478746 
L 185.442336 175.181282 
L 182.728391 170.99565 
L 179.849296 166.931651 
L 176.810477 162.999086 
L 173.617494 159.207771 
L 170.276056 155.567549 
L 166.79204 152.0883 
L 163.171509 148.77996 
L 159.420736 145.652524 
L 155.546229 142.716064 
L 151.554763 139.980734 
L 147.453404 137.456775 
L 143.249556 135.154527 
L 138.950992 133.084428 
L 134.565907 131.257013 
L 130.102964 129.682914 
L 125.571351 128.372845 
L 120.980846 127.337591 
L 116.341882 126.587983 
L 111.665622 126.134864 
L 106.964042 125.989048 
L 102.250016 126.161258 
L 97.537407 126.662053 
L 92.841166 127.501738 
" style="fill:none;stroke:#ff0000;stroke-linecap:square;"/>
   </g>
   <g id="line2d_44">
    <path clip-path="url(#p0be8515659)" d="M 105.49369 294.76318 
L 105.090885 295.396658 
L 104.760563 296.076401 
L 104.505018 296.800304 
L 104.326314 297.565991 
L 104.226255 298.370814 
L 104.206369 299.211855 
L 104.267876 300.085926 
L 104.411669 300.989578 
L 104.638289 301.919106 
L 104.947902 302.870567 
L 105.340276 303.839791 
L 106.141469 304.354027 
L 107.263486 304.51425 
L 108.416116 304.724116 
L 109.595532 304.982214 
L 110.797896 305.287045 
L 112.019364 305.637026 
L 113.256089 306.030507 
L 114.50422 306.465771 
L 115.75991 306.941044 
L 117.019315 307.454499 
L 118.278597 308.004266 
L 119.533924 308.588428 
L 120.781477 309.205033 
L 122.017446 309.852091 
L 123.238037 310.527581 
L 124.439472 311.229447 
L 125.617995 311.955607 
L 126.769872 312.703946 
L 127.891395 313.47232 
L 128.978889 314.258557 
L 130.028714 315.060453 
L 131.037271 315.875773 
L 132.001009 316.70225 
L 132.916433 317.537581 
L 133.780107 318.379429 
L 134.588667 319.225417 
L 135.338831 320.073129 
L 136.209474 320.458965 
L 137.236887 320.254118 
L 138.203986 319.990006 
L 139.107152 319.668725 
L 139.943171 319.292578 
L 140.709236 318.86405 
L 141.402947 318.385779 
L 142.022305 317.860533 
L 142.565701 317.291187 
L 143.031909 316.6807 
L 143.420072 316.032096 
L 143.729684 315.348446 
L 143.960578 314.632849 
L 144.112911 313.888422 
L 144.187139 313.118281 
L 144.184007 312.325535 
L 144.104529 311.513274 
L 143.949968 310.684562 
L 143.721821 309.842429 
L 143.421803 308.989864 
L 143.051829 308.129815 
L 142.614001 307.26518 
L 142.11059 306.398809 
L 141.544025 305.533498 
L 140.91688 304.671989 
L 140.231859 303.81697 
L 139.491789 302.971073 
L 138.699603 302.136872 
L 137.858339 301.316885 
L 136.971124 300.513574 
L 136.041166 299.729343 
L 135.071751 298.966538 
L 134.066233 298.227446 
L 133.028025 297.514298 
L 131.960599 296.829264 
L 130.867474 296.174453 
L 129.752215 295.551913 
L 128.61843 294.963626 
L 127.469757 294.411512 
L 126.309871 293.897419 
L 125.142471 293.423125 
L 123.97128 292.990332 
L 122.80004 292.600665 
L 121.632509 292.255663 
L 120.472456 291.956778 
L 119.323658 291.705366 
L 118.189892 291.502685 
L 117.074935 291.349884 
L 115.982556 291.247997 
L 114.91651 291.197935 
L 113.880534 291.20048 
L 112.878338 291.256272 
L 111.913598 291.3658 
L 110.989949 291.529397 
L 110.110972 291.747221 
L 109.280188 292.019254 
L 108.501043 292.345283 
L 107.776898 292.724893 
L 107.111013 293.157458 
L 106.506533 293.642125 
L 105.966471 294.177809 
L 105.49369 294.76318 
" style="fill:none;stroke:#ff0000;stroke-linecap:square;"/>
   </g>
   <g id="line2d_45">
    <path clip-path="url(#p0be8515659)" d="M 117.561751 308.295635 
L 117.249592 308.932235 
L 117.014751 309.606437 
L 116.85924 310.316057 
L 116.78481 311.058668 
L 117.14817 311.212051 
L 117.884353 310.875506 
L 118.680403 310.58607 
L 119.532879 310.34395 
L 120.438252 310.149184 
L 121.392918 310.001648 
L 122.393209 309.901072 
L 123.435403 309.847052 
L 124.515732 309.839053 
L 125.630389 309.87643 
L 126.775538 309.958426 
L 127.947317 310.084189 
L 129.141843 310.252777 
L 130.355221 310.463165 
L 131.583543 310.714252 
L 132.822897 311.004867 
L 134.069367 311.333774 
L 135.319038 311.699679 
L 136.568001 312.10123 
L 137.812353 312.537024 
L 139.048202 313.005608 
L 140.271672 313.505481 
L 141.478905 314.035098 
L 142.666063 314.592869 
L 143.829334 315.177159 
L 144.964939 315.786291 
L 146.069132 316.418543 
L 147.138206 317.07215 
L 148.168502 317.7453 
L 149.156412 318.436136 
L 150.09839 319.14275 
L 150.990954 319.863186 
L 151.8307 320.595436 
L 152.614308 321.337436 
L 153.338555 322.087065 
L 154.000325 322.842144 
L 154.59662 323.600435 
L 155.124578 324.359634 
L 155.581481 325.117375 
L 155.964777 325.871226 
L 156.272094 326.618692 
L 156.642502 326.75426 
L 157.096529 326.161131 
L 157.468747 325.536849 
L 157.758775 324.884379 
L 157.966588 324.206687 
L 158.092496 323.506726 
L 158.137131 322.787423 
L 158.101421 322.05167 
L 157.986574 321.302315 
L 157.794055 320.542158 
L 157.525573 319.773941 
L 157.183058 319.000349 
L 156.768643 318.224003 
L 156.284651 317.44746 
L 155.733576 316.673212 
L 155.118068 315.903686 
L 154.440923 315.141241 
L 153.705063 314.388174 
L 152.91353 313.646714 
L 152.069473 312.919031 
L 151.176133 312.207228 
L 150.236843 311.513351 
L 149.255008 310.839384 
L 148.234107 310.187254 
L 147.177677 309.558829 
L 146.089313 308.955919 
L 144.972658 308.38028 
L 143.831399 307.833609 
L 142.669258 307.317547 
L 141.489992 306.833678 
L 140.297387 306.383526 
L 139.095251 305.968558 
L 137.887412 305.590175 
L 136.677712 305.249718 
L 135.470008 304.948457 
L 134.26816 304.687593 
L 133.076034 304.468254 
L 131.897494 304.291485 
L 130.736398 304.158249 
L 129.596594 304.069418 
L 128.481913 304.025768 
L 127.396166 304.027972 
L 126.343136 304.076591 
L 125.326572 304.172069 
L 124.350182 304.31472 
L 123.41762 304.504726 
L 122.532486 304.742119 
L 121.698307 305.026781 
L 120.918529 305.358424 
L 120.196506 305.736589 
L 119.535485 306.16063 
L 118.938591 306.629708 
L 118.408811 307.142777 
L 117.948979 307.698579 
L 117.561751 308.295635 
" style="fill:none;stroke:#ff0000;stroke-linecap:square;"/>
   </g>
   <g id="line2d_46">
    <path clip-path="url(#p0be8515659)" d="M 121.635301 302.195129 
L 121.353123 302.799942 
L 121.137912 303.436527 
L 120.991287 304.102689 
L 120.914631 304.796039 
L 120.909068 305.513997 
L 120.975453 306.253799 
L 121.114346 307.012503 
L 121.326006 307.786998 
L 121.610365 308.574015 
L 121.967022 309.370144 
L 122.395225 310.171847 
L 122.893864 310.975479 
L 123.461461 311.777308 
L 124.096166 312.573539 
L 124.795755 313.360338 
L 125.557627 314.133862 
L 126.378817 314.890282 
L 127.255995 315.62582 
L 128.185487 316.336773 
L 129.163287 317.019545 
L 130.185078 317.670677 
L 131.246259 318.286878 
L 132.341972 318.865048 
L 133.467131 319.402311 
L 134.616461 319.896031 
L 135.784532 320.343838 
L 136.965799 320.743643 
L 138.154642 321.093654 
L 139.345407 321.392387 
L 140.53245 321.638672 
L 141.710171 321.831658 
L 142.873061 321.97081 
L 144.015737 322.055909 
L 145.132974 322.087044 
L 146.219747 322.064598 
L 147.271251 321.989243 
L 148.282935 321.861917 
L 149.250523 321.683811 
L 150.170034 321.456353 
L 151.037797 321.181182 
L 151.850465 320.860133 
L 152.605024 320.495213 
L 153.298797 320.088583 
L 153.929448 319.642534 
L 154.494983 319.159472 
L 154.993744 318.641893 
L 155.424405 318.09237 
L 155.785966 317.513534 
L 156.077742 316.908056 
L 156.299354 316.278636 
L 156.450718 315.627988 
L 156.532029 314.958829 
L 156.543751 314.273867 
L 156.486604 313.575793 
L 156.361548 312.867272 
L 156.16977 312.150935 
L 155.912671 311.429375 
L 155.591849 310.705143 
L 155.209092 309.980738 
L 154.766359 309.258611 
L 154.265772 308.541155 
L 153.7096 307.830709 
L 153.100253 307.12955 
L 152.440264 306.439899 
L 151.732285 305.763912 
L 150.979077 305.103684 
L 150.183496 304.461247 
L 149.348489 303.83857 
L 148.477084 303.237557 
L 147.572381 302.660045 
L 146.63755 302.107809 
L 145.675818 301.582554 
L 144.690465 301.085919 
L 143.684821 300.619473 
L 142.662255 300.184716 
L 141.626171 299.783073 
L 140.580007 299.415899 
L 139.527221 299.084468 
L 138.471295 298.789977 
L 137.415724 298.533541 
L 136.364011 298.316189 
L 135.319665 298.138861 
L 134.286192 298.002401 
L 133.267094 297.90756 
L 132.265854 297.854981 
L 131.285942 297.845202 
L 130.330798 297.878648 
L 129.40383 297.955624 
L 128.508407 298.076308 
L 127.647846 298.240748 
L 126.825408 298.448856 
L 126.044289 298.700394 
L 125.307606 298.994977 
L 124.618388 299.332061 
L 123.979564 299.710937 
L 123.393954 300.130725 
L 122.864248 300.590369 
L 122.392999 301.088632 
L 121.982608 301.62409 
L 121.635301 302.195129 
" style="fill:none;stroke:#ff0000;stroke-linecap:square;"/>
   </g>
   <g id="line2d_47">
    <path clip-path="url(#p0be8515659)" d="M 114.161379 292.94222 
L 113.534105 294.192128 
L 113.038666 295.508751 
L 112.67994 296.888387 
L 112.46248 298.326818 
L 112.390449 299.819283 
L 112.467556 301.360468 
L 112.696994 302.944494 
L 113.081359 304.56491 
L 113.622584 306.214703 
L 114.32185 307.886312 
L 115.17952 309.571651 
L 116.356445 310.984208 
L 118.398444 311.119812 
L 120.497545 311.320176 
L 122.647743 311.582807 
L 124.843097 311.905231 
L 127.07772 312.285005 
L 129.345771 312.719723 
L 131.641448 313.207026 
L 133.958978 313.744606 
L 136.29261 314.330213 
L 138.636609 314.961655 
L 140.985247 315.636802 
L 143.332795 316.353585 
L 145.673517 317.110001 
L 148.001664 317.904107 
L 150.311466 318.73402 
L 152.597128 319.597915 
L 154.852823 320.494022 
L 157.072684 321.420621 
L 159.250804 322.376037 
L 161.381227 323.358632 
L 163.457947 324.366804 
L 165.474901 325.39897 
L 167.425968 326.453564 
L 169.304969 327.529022 
L 171.10566 328.623771 
L 172.821738 329.736217 
L 174.612432 329.3092 
L 176.311433 328.472926 
L 177.875383 327.552927 
L 179.299716 326.555891 
L 180.580835 325.488579 
L 181.716074 324.35776 
L 182.703638 323.17015 
L 183.542548 321.932363 
L 184.232583 320.650874 
L 184.774216 319.331981 
L 185.168555 317.981782 
L 185.417283 316.60616 
L 185.5226 315.210766 
L 185.48717 313.801015 
L 185.314069 312.382082 
L 185.006737 310.958906 
L 184.568936 309.536188 
L 184.004708 308.118406 
L 183.318341 306.709818 
L 182.514336 305.314471 
L 181.597376 303.936217 
L 180.572303 302.578719 
L 179.444096 301.245464 
L 178.217846 299.939779 
L 176.898747 298.664833 
L 175.492073 297.423659 
L 174.003173 296.219154 
L 172.437454 295.054097 
L 170.800374 293.931154 
L 169.097439 292.852887 
L 167.334189 291.821763 
L 165.516199 290.840159 
L 163.649074 289.910369 
L 161.738445 289.034609 
L 159.789967 288.215021 
L 157.809318 287.453676 
L 155.802199 286.752579 
L 153.774332 286.113666 
L 151.731462 285.538808 
L 149.679356 285.02981 
L 147.623804 284.58841 
L 145.570619 284.216273 
L 143.525641 283.914993 
L 141.494734 283.686085 
L 139.483788 283.53098 
L 137.498721 283.451015 
L 135.545479 283.447432 
L 133.630033 283.52136 
L 131.75838 283.67381 
L 129.936543 283.905656 
L 128.170565 284.21763 
L 126.466509 284.610295 
L 124.830447 285.084036 
L 123.268461 285.639037 
L 121.786627 286.275261 
L 120.391008 286.992426 
L 119.087638 287.789983 
L 117.882507 288.667086 
L 116.781541 289.62257 
L 115.790575 290.654918 
L 114.915331 291.762236 
L 114.161379 292.94222 
" style="fill:none;stroke:#ff0000;stroke-linecap:square;"/>
   </g>
   <g id="line2d_48">
    <path clip-path="url(#p0be8515659)" d="M 215.954769 308.73507 
L 216.4897 310.095175 
L 217.161742 311.403877 
L 217.971123 312.654918 
L 218.917467 313.841951 
L 219.999739 314.958567 
L 221.216198 315.998335 
L 222.564349 316.954843 
L 224.040896 317.821751 
L 225.641705 318.592849 
L 227.361767 319.262124 
L 229.195172 319.823827 
L 231.135094 320.272561 
L 233.173787 320.603352 
L 235.302592 320.811746 
L 237.511964 320.89389 
L 239.79151 320.846624 
L 242.130047 320.667561 
L 244.515677 320.35517 
L 246.655795 319.239418 
L 248.744549 317.884353 
L 250.877343 316.545769 
L 253.048543 315.226273 
L 255.252584 313.928534 
L 257.483963 312.655285 
L 259.737236 311.40933 
L 262.007011 310.193554 
L 264.287938 309.01092 
L 266.574707 307.864475 
L 268.862035 306.757356 
L 271.144661 305.692787 
L 273.417339 304.674084 
L 275.51613 303.482752 
L 277.070754 301.650607 
L 278.487518 299.785796 
L 279.761274 297.89913 
L 280.887979 296.00128 
L 281.864671 294.102677 
L 282.68943 292.213413 
L 283.361325 290.343163 
L 283.880351 288.501117 
L 284.247366 286.695923 
L 284.464012 284.93565 
L 284.532649 283.227754 
L 284.456271 281.579067 
L 284.238437 279.995783 
L 283.8832 278.483468 
L 283.395039 277.047063 
L 282.778795 275.690905 
L 282.039614 274.418745 
L 281.182892 273.233779 
L 280.21423 272.138671 
L 279.139393 271.135585 
L 277.964267 270.22622 
L 276.694831 269.411837 
L 275.337129 268.693292 
L 273.897245 268.071069 
L 272.381284 267.545309 
L 270.795353 267.115837 
L 269.145551 266.782191 
L 267.437959 266.543646 
L 265.678625 266.399237 
L 263.873564 266.347784 
L 262.028751 266.387908 
L 260.150117 266.518049 
L 258.243547 266.736485 
L 256.314878 267.041347 
L 254.3699 267.430627 
L 252.414355 267.902194 
L 250.453937 268.453802 
L 248.494295 269.0831 
L 246.54103 269.787636 
L 244.599698 270.564868 
L 242.675812 271.412163 
L 240.774841 272.326806 
L 238.902209 273.305999 
L 237.063299 274.346863 
L 235.263451 275.446441 
L 233.507959 276.601697 
L 231.802073 277.809514 
L 230.150993 279.066691 
L 228.559872 280.369944 
L 227.033807 281.715901 
L 225.577838 283.101097 
L 224.196939 284.521971 
L 222.896014 285.97486 
L 221.67989 287.455992 
L 220.553302 288.961484 
L 219.520888 290.487331 
L 218.587171 292.029401 
L 217.756547 293.583428 
L 217.033269 295.145008 
L 216.421423 296.709586 
L 215.924911 298.272456 
L 215.547424 299.828752 
L 215.292415 301.373443 
L 215.163072 302.901332 
L 215.162278 304.407056 
L 215.292583 305.885079 
L 215.556162 307.329703 
L 215.954769 308.73507 
" style="fill:none;stroke:#ff0000;stroke-linecap:square;"/>
   </g>
   <g id="line2d_49">
    <path clip-path="url(#p0be8515659)" d="M 189.643891 312.618614 
L 189.694024 313.173051 
L 189.800954 313.723058 
L 189.964716 314.266397 
L 190.185111 314.800809 
L 190.461699 315.324024 
L 190.793798 315.833772 
L 191.180473 316.327794 
L 191.620539 316.803855 
L 192.112552 317.259758 
L 192.654817 317.693355 
L 193.245384 318.102559 
L 193.882051 318.485367 
L 194.562375 318.839863 
L 195.283673 319.164242 
L 196.043036 319.456819 
L 196.837337 319.716044 
L 197.663248 319.940517 
L 198.517254 320.129 
L 199.395673 320.280426 
L 200.294672 320.393914 
L 201.210292 320.468776 
L 202.138467 320.504522 
L 203.075054 320.500871 
L 204.015852 320.457751 
L 204.95663 320.375302 
L 205.893156 320.253878 
L 206.821219 320.094042 
L 207.736659 319.896565 
L 208.635388 319.662419 
L 209.513419 319.39277 
L 210.366889 319.088965 
L 211.192079 318.752529 
L 211.985438 318.385145 
L 212.743597 317.988643 
L 213.463392 317.564989 
L 214.141874 317.116264 
L 214.776325 316.644653 
L 215.364267 316.152424 
L 215.903469 315.641919 
L 216.391957 315.11553 
L 216.828015 314.575689 
L 217.210187 314.02485 
L 217.537281 313.465476 
L 217.808361 312.900023 
L 218.022753 312.330927 
L 218.180029 311.760595 
L 218.280013 311.191391 
L 218.322766 310.625624 
L 218.308579 310.065545 
L 218.237971 309.513332 
L 218.111669 308.971088 
L 217.930609 308.440833 
L 217.695917 307.924496 
L 217.408906 307.423918 
L 217.071059 306.940839 
L 216.684024 306.476905 
L 216.2496 306.033659 
L 215.769729 305.612542 
L 215.246482 305.214893 
L 214.682054 304.841947 
L 214.078751 304.494836 
L 213.438983 304.174591 
L 212.76525 303.882139 
L 212.06014 303.618307 
L 211.326315 303.383823 
L 210.566504 303.179315 
L 209.783499 303.005316 
L 208.98014 302.86226 
L 208.159314 302.75049 
L 207.323944 302.670255 
L 206.476985 302.621711 
L 205.621413 302.604926 
L 204.760223 302.619878 
L 203.896419 302.666456 
L 203.033008 302.744464 
L 202.172995 302.853618 
L 201.319376 302.99355 
L 200.475131 303.163806 
L 199.643216 303.36385 
L 198.826562 303.59306 
L 198.02806 303.850732 
L 197.250561 304.136078 
L 196.496867 304.448228 
L 195.769724 304.786228 
L 195.071812 305.149043 
L 194.40574 305.535554 
L 193.774041 305.944561 
L 193.179156 306.374784 
L 192.623433 306.824858 
L 192.109116 307.293341 
L 191.638335 307.778709 
L 191.213098 308.279363 
L 190.835282 308.793623 
L 190.506621 309.31974 
L 190.2287 309.855887 
L 190.002945 310.400172 
L 189.830608 310.950635 
L 189.712763 311.505256 
L 189.650296 312.061959 
L 189.643891 312.618614 
" style="fill:none;stroke:#ff0000;stroke-linecap:square;"/>
   </g>
   <g id="line2d_50">
    <path clip-path="url(#p0be8515659)" d="M 217.196876 293.932033 
L 217.256004 294.117163 
L 217.331732 294.297084 
L 217.423796 294.471069 
L 217.531865 294.638413 
L 217.655543 294.798435 
L 217.794368 294.950478 
L 217.947816 295.093915 
L 218.115301 295.22815 
L 218.296178 295.352621 
L 218.489744 295.466806 
L 218.695241 295.570221 
L 218.91186 295.662424 
L 219.138741 295.743019 
L 219.374983 295.811656 
L 219.619638 295.868034 
L 219.871726 295.911901 
L 220.130228 295.943059 
L 220.394099 295.961361 
L 220.66227 295.966715 
L 220.933649 295.959084 
L 221.20713 295.938486 
L 221.4816 295.904994 
L 221.755935 295.858735 
L 222.029016 295.799892 
L 222.299725 295.728703 
L 222.566956 295.645456 
L 222.829619 295.550493 
L 223.08664 295.444206 
L 223.336974 295.327034 
L 223.579602 295.199463 
L 223.81354 295.062023 
L 224.037843 294.915286 
L 224.251607 294.75986 
L 224.453974 294.596392 
L 224.644136 294.425561 
L 224.821338 294.248073 
L 224.984882 294.064662 
L 225.134127 293.876086 
L 225.268495 293.683119 
L 225.387469 293.486552 
L 225.490599 293.287189 
L 225.577501 293.085842 
L 225.647858 292.883325 
L 225.701422 292.680458 
L 225.738015 292.478055 
L 225.757527 292.276925 
L 225.759916 292.077869 
L 225.74521 291.881675 
L 225.713504 291.689116 
L 225.664962 291.500947 
L 225.599811 291.317899 
L 225.518343 291.140683 
L 225.420914 290.969981 
L 225.307937 290.806445 
L 225.179889 290.650699 
L 225.037297 290.503332 
L 224.880747 290.364896 
L 224.710873 290.235909 
L 224.528358 290.116849 
L 224.333931 290.008155 
L 224.128364 289.910222 
L 223.912466 289.823407 
L 223.687086 289.748021 
L 223.453103 289.684332 
L 223.211426 289.632562 
L 222.962992 289.592891 
L 222.708759 289.565451 
L 222.449707 289.550329 
L 222.186828 289.547568 
L 221.921131 289.557163 
L 221.653631 289.579067 
L 221.38535 289.613185 
L 221.117311 289.65938 
L 220.850535 289.71747 
L 220.58604 289.787229 
L 220.324833 289.868392 
L 220.067912 289.960649 
L 219.816258 290.063652 
L 219.570832 290.177013 
L 219.332576 290.300306 
L 219.102404 290.433069 
L 218.881202 290.574804 
L 218.669826 290.72498 
L 218.469095 290.883035 
L 218.279792 291.048375 
L 218.102658 291.22038 
L 217.938391 291.398402 
L 217.787643 291.581771 
L 217.651016 291.769791 
L 217.529061 291.961751 
L 217.422277 292.15692 
L 217.331105 292.354552 
L 217.255929 292.55389 
L 217.197072 292.754166 
L 217.154798 292.954607 
L 217.129306 293.154432 
L 217.120731 293.352863 
L 217.129143 293.549122 
L 217.154546 293.742434 
L 217.196876 293.932033 
" style="fill:none;stroke:#ff0000;stroke-linecap:square;"/>
   </g>
   <g id="line2d_51">
    <path clip-path="url(#p0be8515659)" d="M 212.213509 301.678535 
L 212.332177 302.096422 
L 212.490407 302.503547 
L 212.687782 302.898228 
L 212.923723 303.278808 
L 213.197483 303.643669 
L 213.508151 303.991232 
L 213.854652 304.319973 
L 214.235746 304.628427 
L 214.650035 304.915196 
L 215.09596 305.178961 
L 215.571813 305.418487 
L 216.075736 305.632631 
L 216.605732 305.820352 
L 217.15967 305.980717 
L 217.735297 306.112908 
L 218.330243 306.216229 
L 218.942037 306.290111 
L 219.568115 306.33412 
L 220.205834 306.347957 
L 220.852484 306.331465 
L 221.505305 306.284628 
L 222.161499 306.207577 
L 222.818243 306.100588 
L 223.472709 305.964082 
L 224.122077 305.798623 
L 224.763547 305.604915 
L 225.394362 305.3838 
L 226.011814 305.136251 
L 226.613264 304.86337 
L 227.196156 304.566378 
L 227.758028 304.246607 
L 228.296524 303.905496 
L 228.809407 303.544578 
L 229.294572 303.165473 
L 229.750051 302.769878 
L 230.174022 302.359556 
L 230.564821 301.936324 
L 230.920942 301.502047 
L 231.241047 301.058622 
L 231.523966 300.607973 
L 231.768705 300.152034 
L 231.974439 299.692747 
L 232.140522 299.232045 
L 232.266481 298.771845 
L 232.352015 298.314041 
L 232.396996 297.860493 
L 232.40146 297.413021 
L 232.365612 296.973397 
L 232.289814 296.543335 
L 232.174581 296.124493 
L 232.02058 295.718458 
L 231.828622 295.326747 
L 231.599652 294.950803 
L 231.334748 294.591985 
L 231.035113 294.251574 
L 230.702064 293.930761 
L 230.33703 293.630651 
L 229.941544 293.35226 
L 229.517232 293.096512 
L 229.065812 292.864239 
L 228.589081 292.656179 
L 228.088912 292.47298 
L 227.567244 292.315194 
L 227.026079 292.183283 
L 226.467471 292.077614 
L 225.893521 291.998463 
L 225.306372 291.946017 
L 224.708198 291.920372 
L 224.101204 291.921533 
L 223.487613 291.949422 
L 222.869663 292.003871 
L 222.249604 292.084628 
L 221.629684 292.191359 
L 221.01215 292.323645 
L 220.399239 292.480991 
L 219.793171 292.662819 
L 219.196147 292.868475 
L 218.610338 293.097231 
L 218.037883 293.348283 
L 217.480881 293.620757 
L 216.941386 293.913707 
L 216.421399 294.226121 
L 215.922866 294.556918 
L 215.447669 294.904956 
L 214.997619 295.269027 
L 214.574452 295.647869 
L 214.179823 296.04016 
L 213.8153 296.444522 
L 213.482355 296.85953 
L 213.182361 297.283709 
L 212.916585 297.715537 
L 212.686182 298.153456 
L 212.49219 298.595865 
L 212.335521 299.041135 
L 212.21696 299.487606 
L 212.137157 299.933594 
L 212.09662 300.377398 
L 212.095714 300.817304 
L 212.134656 301.25159 
L 212.213509 301.678535 
" style="fill:none;stroke:#ff0000;stroke-linecap:square;"/>
   </g>
   <g id="line2d_52">
    <path clip-path="url(#p0be8515659)" d="M 104.463714 261.439529 
L 103.477241 265.331193 
L 102.798179 269.329443 
L 102.44151 273.424273 
L 102.422154 277.604191 
L 102.754803 281.85605 
L 103.453722 286.164884 
L 104.532504 290.513744 
L 106.003772 294.883556 
L 107.878831 299.252988 
L 110.167262 303.598372 
L 112.876464 307.893656 
L 117.002961 310.395228 
L 122.289877 311.123609 
L 127.651299 311.807437 
L 133.080998 312.443385 
L 138.572769 313.028494 
L 144.120416 313.560148 
L 149.71775 314.036053 
L 155.358585 314.45422 
L 161.036735 314.812952 
L 166.746013 315.110826 
L 172.480228 315.346692 
L 178.233186 315.519657 
L 183.998692 315.629085 
L 189.770548 315.67459 
L 195.542555 315.656032 
L 201.308511 315.573522 
L 207.062218 315.427416 
L 212.797476 315.218324 
L 218.508088 314.947106 
L 224.187859 314.614888 
L 229.830594 314.223059 
L 235.430098 313.773291 
L 240.980178 313.267542 
L 246.474633 312.708078 
L 251.907256 312.097486 
L 257.271826 311.438695 
L 262.562101 310.735005 
L 266.700286 308.252725 
L 269.429605 303.970136 
L 271.738392 299.635484 
L 273.633924 295.274852 
L 275.125672 290.911958 
L 276.22484 286.568181 
L 276.943961 282.262657 
L 277.296549 278.012398 
L 277.296799 273.832435 
L 276.95934 269.735985 
L 276.299038 265.734609 
L 275.330829 261.838382 
L 274.069597 258.056047 
L 272.530077 254.395168 
L 270.726784 250.862268 
L 268.673965 247.462957 
L 266.385564 244.202051 
L 263.875208 241.083669 
L 261.156192 238.111334 
L 258.241487 235.288051 
L 255.143739 232.616376 
L 251.875287 230.098487 
L 248.448175 227.73623 
L 244.874168 225.531172 
L 241.164775 223.484641 
L 237.331265 221.597758 
L 233.384687 219.871471 
L 229.335894 218.306577 
L 225.19556 216.903747 
L 220.9742 215.66354 
L 216.682191 214.586423 
L 212.329789 213.67278 
L 207.927148 212.922922 
L 203.484339 212.3371 
L 199.011365 211.915505 
L 194.518179 211.658278 
L 190.014703 211.565512 
L 185.510841 211.637253 
L 181.016498 211.8735 
L 176.541595 212.274208 
L 172.096087 212.839282 
L 167.689977 213.568578 
L 163.333337 214.461892 
L 159.036323 215.51896 
L 154.809193 216.739445 
L 150.662324 218.12293 
L 146.606236 219.668905 
L 142.651604 221.376749 
L 138.809286 223.245714 
L 135.090334 225.274905 
L 131.506025 227.463253 
L 128.06787 229.809485 
L 124.787645 232.312088 
L 121.6774 234.969271 
L 118.749484 237.778916 
L 116.016557 240.738524 
L 113.491602 243.845152 
L 111.187931 247.09534 
L 109.119191 250.485029 
L 107.299347 254.009472 
L 105.742673 257.663124 
L 104.463714 261.439529 
" style="fill:none;stroke:#ff0000;stroke-linecap:square;"/>
   </g>
   <g id="line2d_53">
    <path clip-path="url(#p0be8515659)" d="M 137.711893 317.700026 
L 137.37425 318.823634 
L 137.172403 319.984899 
L 137.18072 320.997701 
L 138.061093 320.129505 
L 139.056573 319.312769 
L 140.161537 318.548558 
L 141.370283 317.837685 
L 142.677051 317.180735 
L 144.076044 316.578095 
L 145.561441 316.029973 
L 147.127408 315.536426 
L 148.768108 315.097374 
L 150.477709 314.712625 
L 152.250388 314.381889 
L 154.080334 314.104792 
L 155.961752 313.880893 
L 157.888863 313.709694 
L 159.855905 313.59065 
L 161.857133 313.52318 
L 163.886815 313.506673 
L 165.939235 313.540498 
L 168.008687 313.624005 
L 170.089478 313.756532 
L 172.175919 313.937408 
L 174.262329 314.165955 
L 176.343029 314.441488 
L 178.412339 314.763319 
L 180.464582 315.13075 
L 182.494073 315.543077 
L 184.495123 315.999586 
L 186.462039 316.499546 
L 188.389116 317.042209 
L 190.270645 317.626801 
L 192.100907 318.252516 
L 193.874176 318.918509 
L 195.584721 319.623887 
L 197.226809 320.367695 
L 198.794709 321.148911 
L 200.282697 321.966429 
L 201.685064 322.819045 
L 202.996122 323.705444 
L 204.210221 324.624181 
L 205.321758 325.573664 
L 206.325196 326.552137 
L 207.215083 327.557658 
L 207.986077 328.588078 
L 208.632972 329.641022 
L 208.883655 328.65955 
L 208.965826 327.483809 
L 208.907115 326.312255 
L 208.710869 325.149092 
L 208.380806 323.998219 
L 207.92097 322.863245 
L 207.335684 321.7475 
L 206.629509 320.654055 
L 205.807211 319.585729 
L 204.873725 318.545116 
L 203.834131 317.534594 
L 202.693625 316.556346 
L 201.457503 315.612377 
L 200.131139 314.704529 
L 198.719969 313.834494 
L 197.229483 313.003834 
L 195.665208 312.21399 
L 194.032701 311.466299 
L 192.337544 310.761999 
L 190.585335 310.102247 
L 188.781686 309.488123 
L 186.932214 308.920641 
L 185.042548 308.400757 
L 183.118318 307.929372 
L 181.165156 307.507342 
L 179.188701 307.135479 
L 177.194593 306.814557 
L 175.188472 306.54531 
L 173.175987 306.328441 
L 171.162786 306.164613 
L 169.154526 306.054459 
L 167.156867 305.998573 
L 165.175477 305.997509 
L 163.216034 306.05178 
L 161.284219 306.161853 
L 159.385725 306.328142 
L 157.526251 306.551002 
L 155.711506 306.830722 
L 153.947201 307.167513 
L 152.239053 307.561504 
L 150.592779 308.012721 
L 149.014092 308.521084 
L 147.508694 309.086385 
L 146.082272 309.708275 
L 144.740484 310.386249 
L 143.488953 311.119622 
L 142.333247 311.907513 
L 141.27887 312.748824 
L 140.331233 313.642214 
L 139.495641 314.58608 
L 138.777257 315.578529 
L 138.181078 316.617358 
L 137.711893 317.700026 
" style="fill:none;stroke:#ff0000;stroke-linecap:square;"/>
   </g>
   <g id="line2d_54">
    <path clip-path="url(#p0be8515659)" d="M 187.099363 301.959945 
L 187.135231 302.451511 
L 187.216886 302.940215 
L 187.344275 303.424089 
L 187.517162 303.901154 
L 187.735118 304.369433 
L 187.997522 304.826952 
L 188.303561 305.271759 
L 188.652226 305.701925 
L 189.042312 306.115562 
L 189.472422 306.510827 
L 189.940971 306.885936 
L 190.446184 307.239173 
L 190.986107 307.568902 
L 191.558611 307.873578 
L 192.161402 308.151754 
L 192.792026 308.402096 
L 193.447886 308.623386 
L 194.126246 308.814539 
L 194.824253 308.974604 
L 195.538942 309.102774 
L 196.267259 309.198394 
L 197.006072 309.260964 
L 197.75219 309.290144 
L 198.50238 309.285759 
L 199.253386 309.247797 
L 200.001943 309.176414 
L 200.7448 309.07193 
L 201.478736 308.934827 
L 202.200579 308.765749 
L 202.907221 308.565495 
L 203.595636 308.335014 
L 204.262898 308.075397 
L 204.906191 307.787872 
L 205.52283 307.473794 
L 206.110269 307.134634 
L 206.666113 306.771972 
L 207.188131 306.387487 
L 207.674263 305.98294 
L 208.122627 305.56017 
L 208.531529 305.12108 
L 208.899464 304.667623 
L 209.225122 304.201796 
L 209.50739 303.725623 
L 209.745351 303.241149 
L 209.93829 302.750427 
L 210.085684 302.255508 
L 210.187206 301.758433 
L 210.242724 301.261222 
L 210.252288 300.765866 
L 210.216136 300.274322 
L 210.13468 299.7885 
L 210.008506 299.310261 
L 209.838366 298.84141 
L 209.62517 298.38369 
L 209.36998 297.938777 
L 209.074001 297.508277 
L 208.738578 297.093719 
L 208.365184 296.696557 
L 207.955413 296.318161 
L 207.510974 295.959821 
L 207.033682 295.622739 
L 206.525451 295.308033 
L 205.988286 295.016731 
L 205.424273 294.749773 
L 204.835578 294.50801 
L 204.224433 294.2922 
L 203.59313 294.103013 
L 202.944019 293.941029 
L 202.279493 293.806735 
L 201.601988 293.700528 
L 200.913971 293.622716 
L 200.217938 293.573514 
L 199.516402 293.553051 
L 198.811892 293.561363 
L 198.106942 293.598399 
L 197.404085 293.664017 
L 196.70585 293.75799 
L 196.014752 293.880001 
L 195.333286 294.029647 
L 194.663921 294.206437 
L 194.009093 294.409794 
L 193.371201 294.639058 
L 192.752595 294.893481 
L 192.155573 295.172234 
L 191.582373 295.474404 
L 191.035169 295.798995 
L 190.516056 296.144932 
L 190.027052 296.51106 
L 189.570087 296.896146 
L 189.146993 297.298882 
L 188.7595 297.717884 
L 188.40923 298.151701 
L 188.097685 298.598807 
L 187.826244 299.057616 
L 187.59615 299.526477 
L 187.408512 300.003679 
L 187.264288 300.487461 
L 187.164286 300.97601 
L 187.109151 301.46747 
L 187.099363 301.959945 
" style="fill:none;stroke:#ff0000;stroke-linecap:square;"/>
   </g>
   <g id="line2d_55">
    <path clip-path="url(#p0be8515659)" d="M 129.486902 295.819864 
L 129.120266 296.787877 
L 128.850571 297.793913 
L 128.68033 298.834508 
L 128.611729 299.905919 
L 128.646593 301.00412 
L 128.786354 302.12481 
L 129.032021 303.263426 
L 129.384147 304.415152 
L 129.842797 305.574939 
L 130.407522 306.737527 
L 131.07733 307.897475 
L 131.850663 309.049186 
L 132.72538 310.18695 
L 133.698736 311.304981 
L 134.767381 312.397463 
L 135.927351 313.458595 
L 137.174075 314.482647 
L 138.502386 315.46401 
L 139.906541 316.39725 
L 141.380249 317.277163 
L 142.916705 318.098829 
L 144.508636 318.857663 
L 146.148353 319.549461 
L 147.827806 320.170447 
L 149.538649 320.717309 
L 151.272309 321.187233 
L 153.02006 321.577926 
L 154.773092 321.887637 
L 156.522592 322.115164 
L 158.259817 322.259858 
L 159.976162 322.32162 
L 161.663237 322.300883 
L 163.312923 322.198598 
L 164.91744 322.016207 
L 166.469393 321.75561 
L 167.961822 321.419134 
L 169.388237 321.009494 
L 170.742656 320.52975 
L 172.01962 319.983268 
L 173.214217 319.373676 
L 174.32209 318.704823 
L 175.339437 317.980737 
L 176.263013 317.205587 
L 177.09012 316.383644 
L 177.818594 315.519249 
L 178.446794 314.616779 
L 178.973575 313.680618 
L 179.398273 312.715136 
L 179.72068 311.724661 
L 179.941017 310.713462 
L 180.05991 309.685733 
L 180.078366 308.645579 
L 179.997744 307.597004 
L 179.819733 306.543905 
L 179.546324 305.49006 
L 179.179788 304.439129 
L 178.722653 303.394647 
L 178.177683 302.360024 
L 177.547856 301.338544 
L 176.836348 300.333365 
L 176.04651 299.347521 
L 175.181857 298.383922 
L 174.24605 297.445358 
L 173.24288 296.534501 
L 172.176261 295.653908 
L 171.050212 294.806021 
L 169.86885 293.993175 
L 168.63638 293.217597 
L 167.357084 292.481407 
L 166.035314 291.786623 
L 164.675487 291.135165 
L 163.282074 290.528848 
L 161.859597 289.969392 
L 160.412623 289.458417 
L 158.945758 288.997446 
L 157.46364 288.587904 
L 155.97094 288.231113 
L 154.472352 287.928298 
L 152.972591 287.680576 
L 151.476389 287.488961 
L 149.988488 287.354355 
L 148.51364 287.277546 
L 147.056597 287.259205 
L 145.62211 287.299876 
L 144.214919 287.399973 
L 142.839752 287.559773 
L 141.501314 287.779409 
L 140.204282 288.058859 
L 138.953295 288.39794 
L 137.752946 288.796299 
L 136.607771 289.253402 
L 135.522238 289.768523 
L 134.500731 290.340736 
L 133.547541 290.968903 
L 132.666847 291.651663 
L 131.862698 292.387422 
L 131.138994 293.174344 
L 130.499469 294.010338 
L 129.947664 294.893052 
L 129.486902 295.819864 
" style="fill:none;stroke:#ff0000;stroke-linecap:square;"/>
   </g>
   <g id="line2d_56">
    <path clip-path="url(#p0be8515659)" d="M 194.730178 299.897754 
L 194.773471 300.244764 
L 194.848564 300.588063 
L 194.955292 300.926271 
L 195.093355 301.258011 
L 195.262327 301.58192 
L 195.46165 301.896654 
L 195.690639 302.200894 
L 195.948478 302.493352 
L 196.234223 302.772777 
L 196.546809 303.037963 
L 196.885046 303.287754 
L 197.247627 303.521052 
L 197.633134 303.73682 
L 198.040037 303.934092 
L 198.466708 304.111976 
L 198.911422 304.26966 
L 199.372366 304.406417 
L 199.847647 304.521611 
L 200.335301 304.6147 
L 200.833304 304.685239 
L 201.339575 304.732885 
L 201.851996 304.757398 
L 202.368414 304.758643 
L 202.886656 304.736593 
L 203.404537 304.691327 
L 203.919875 304.62303 
L 204.430499 304.531997 
L 204.93426 304.418622 
L 205.429043 304.283406 
L 205.912777 304.126948 
L 206.383444 303.949941 
L 206.839091 303.753173 
L 207.277838 303.537517 
L 207.697887 303.303929 
L 208.097529 303.053441 
L 208.475153 302.787156 
L 208.829253 302.506241 
L 209.158434 302.211921 
L 209.461414 301.90547 
L 209.737034 301.588209 
L 209.98426 301.261493 
L 210.202182 300.92671 
L 210.390023 300.585267 
L 210.547134 300.23859 
L 210.673003 299.888113 
L 210.767246 299.535274 
L 210.829612 299.181505 
L 210.859982 298.828229 
L 210.858367 298.476853 
L 210.824904 298.128763 
L 210.759854 297.785318 
L 210.663601 297.447845 
L 210.536646 297.117634 
L 210.379606 296.795935 
L 210.193206 296.483953 
L 209.978277 296.182846 
L 209.735754 295.893717 
L 209.466664 295.617618 
L 209.172128 295.35554 
L 208.853353 295.108418 
L 208.511624 294.877123 
L 208.148304 294.662462 
L 207.764826 294.465176 
L 207.362685 294.285941 
L 206.943436 294.125365 
L 206.508688 293.983987 
L 206.060098 293.862274 
L 205.599362 293.760625 
L 205.128216 293.67937 
L 204.648425 293.618764 
L 204.161779 293.578995 
L 203.67009 293.560177 
L 203.175182 293.562355 
L 202.678889 293.585502 
L 202.183047 293.629522 
L 201.689492 293.694248 
L 201.20005 293.779444 
L 200.716536 293.884806 
L 200.240745 294.009961 
L 199.774448 294.154469 
L 199.319387 294.317825 
L 198.877271 294.499459 
L 198.449764 294.698735 
L 198.03849 294.914957 
L 197.645017 295.147366 
L 197.270861 295.395146 
L 196.917473 295.657422 
L 196.586239 295.933262 
L 196.278472 296.221684 
L 195.995408 296.521651 
L 195.738199 296.83208 
L 195.507912 297.151841 
L 195.305521 297.479762 
L 195.131901 297.814629 
L 194.987829 298.155195 
L 194.873974 298.500178 
L 194.790895 298.848269 
L 194.739037 299.198133 
L 194.718729 299.548418 
L 194.730178 299.897754 
" style="fill:none;stroke:#ff0000;stroke-linecap:square;"/>
   </g>
   <g id="line2d_57">
    <path clip-path="url(#p0be8515659)" d="M 180.224198 301.164917 
L 180.29744 302.186329 
L 180.465352 303.202625 
L 180.728436 304.209672 
L 181.08681 305.203249 
L 181.540186 306.179061 
L 182.087856 307.132761 
L 182.728666 308.059969 
L 183.461013 308.956301 
L 184.282821 309.817388 
L 185.191538 310.638912 
L 186.184132 311.416632 
L 187.25708 312.14642 
L 188.40638 312.824293 
L 189.627554 313.44645 
L 190.91566 314.009307 
L 192.265308 314.509533 
L 193.67069 314.944086 
L 195.125601 315.310243 
L 196.623479 315.60564 
L 198.15744 315.828291 
L 199.720327 315.976624 
L 201.304753 316.049495 
L 202.903161 316.046208 
L 204.507871 315.966529 
L 206.111144 315.81069 
L 207.705239 315.579393 
L 209.282468 315.273805 
L 210.835262 314.895546 
L 212.356222 314.446677 
L 213.838175 313.929676 
L 215.274223 313.347417 
L 216.657794 312.703136 
L 217.982681 312.000402 
L 219.243077 311.243079 
L 220.433613 310.435289 
L 221.549376 309.581373 
L 222.585932 308.685851 
L 223.539344 307.753382 
L 224.406172 306.788727 
L 225.183486 305.796707 
L 225.868858 304.782172 
L 226.460356 303.749962 
L 226.956541 302.704881 
L 227.356443 301.651663 
L 227.659557 300.594951 
L 227.865814 299.539271 
L 227.975567 298.489014 
L 227.989567 297.448417 
L 227.908939 296.421553 
L 227.735163 295.412314 
L 227.470046 294.424407 
L 227.115701 293.461346 
L 226.674524 292.526445 
L 226.149169 291.622819 
L 225.542531 290.75338 
L 224.857721 289.920842 
L 224.098049 289.127716 
L 223.267003 288.376317 
L 222.368234 287.668767 
L 221.405536 287.006999 
L 220.382834 286.39276 
L 219.304167 285.827616 
L 218.173677 285.31296 
L 216.995594 284.850014 
L 215.774227 284.439834 
L 214.513952 284.083319 
L 213.2192 283.781209 
L 211.894454 283.534096 
L 210.544235 283.342425 
L 209.173093 283.206498 
L 207.785607 283.126479 
L 206.386369 283.102396 
L 204.979982 283.134142 
L 203.571055 283.221484 
L 202.16419 283.364054 
L 200.763984 283.561362 
L 199.375017 283.812789 
L 198.001846 284.117589 
L 196.649001 284.474894 
L 195.320978 284.883705 
L 194.02223 285.342901 
L 192.757162 285.85123 
L 191.53012 286.407312 
L 190.345388 287.009636 
L 189.207176 287.656559 
L 188.119608 288.346303 
L 187.08672 289.076953 
L 186.11244 289.846453 
L 185.200584 290.652608 
L 184.35484 291.493078 
L 183.578752 292.365378 
L 182.875714 293.266874 
L 182.248947 294.194784 
L 181.701487 295.146177 
L 181.236164 296.117973 
L 180.855591 297.106942 
L 180.562139 298.109709 
L 180.357918 299.122754 
L 180.244761 300.14242 
L 180.224198 301.164917 
" style="fill:none;stroke:#ff0000;stroke-linecap:square;"/>
   </g>
   <g id="line2d_58">
    <path clip-path="url(#p0be8515659)" d="M 177.220696 304.173475 
L 177.294069 305.38061 
L 177.482173 306.58294 
L 177.786036 307.775585 
L 178.20623 308.953514 
L 178.742835 310.111564 
L 179.395415 311.244459 
L 180.162984 312.346835 
L 181.043977 313.413269 
L 182.036228 314.438318 
L 183.136948 315.416546 
L 184.342708 316.342577 
L 185.649428 317.211131 
L 187.05237 318.01708 
L 188.546142 318.755492 
L 190.124709 319.42169 
L 191.781408 320.011301 
L 193.508977 320.520313 
L 195.299592 320.945127 
L 197.144908 321.282604 
L 199.036118 321.530115 
L 200.964013 321.685581 
L 202.919052 321.747508 
L 204.891439 321.715013 
L 206.871203 321.587849 
L 208.848287 321.366413 
L 210.81263 321.051745 
L 212.754261 320.64553 
L 214.663383 320.15007 
L 216.530455 319.568269 
L 218.346275 318.903591 
L 220.102052 318.160024 
L 221.78947 317.342033 
L 223.400749 316.454501 
L 224.928692 315.502682 
L 226.366726 314.492132 
L 227.708929 313.428658 
L 228.950056 312.318251 
L 230.085545 311.167031 
L 231.111526 309.981188 
L 232.024811 308.766929 
L 232.822883 307.530431 
L 233.503883 306.277791 
L 234.06658 305.014989 
L 234.510348 303.74785 
L 234.835136 302.482016 
L 235.041433 301.222918 
L 235.130231 299.975757 
L 235.102997 298.745485 
L 234.96163 297.536799 
L 234.708429 296.354123 
L 234.346059 295.201614 
L 233.877515 294.083152 
L 233.306095 293.002345 
L 232.635363 291.962532 
L 231.869127 290.966786 
L 231.01141 290.017924 
L 230.066425 289.118509 
L 229.038553 288.270864 
L 227.932323 287.477078 
L 226.752393 286.739018 
L 225.503531 286.058336 
L 224.190603 285.436478 
L 222.818559 284.874697 
L 221.392416 284.374059 
L 219.917252 283.935455 
L 218.398194 283.559604 
L 216.840409 283.247065 
L 215.249095 282.998243 
L 213.629478 282.813396 
L 211.986799 282.692639 
L 210.326314 282.635952 
L 208.653285 282.643181 
L 206.972977 282.714043 
L 205.290651 282.848133 
L 203.611561 283.04492 
L 201.940949 283.303752 
L 200.284043 283.623857 
L 198.646045 284.004343 
L 197.032135 284.444196 
L 195.447462 284.942283 
L 193.897135 285.497345 
L 192.386225 286.107999 
L 190.919751 286.772734 
L 189.502678 287.489907 
L 188.139907 288.257738 
L 186.836266 289.074309 
L 185.596502 289.937557 
L 184.425267 290.845269 
L 183.327112 291.795077 
L 182.306467 292.784453 
L 181.367634 293.810702 
L 180.514763 294.87096 
L 179.751843 295.962185 
L 179.082675 297.081153 
L 178.510858 298.224458 
L 178.039763 299.388502 
L 177.67251 300.5695 
L 177.411944 301.763472 
L 177.260603 302.966249 
L 177.220696 304.173475 
" style="fill:none;stroke:#ff0000;stroke-linecap:square;"/>
   </g>
   <g id="line2d_59">
    <path clip-path="url(#p0be8515659)" d="M 141.518361 305.396808 
L 141.371297 305.884393 
L 141.274988 306.387876 
L 141.23021 306.905365 
L 141.237546 307.434868 
L 141.297375 307.974308 
L 141.409861 308.52152 
L 141.57495 309.074267 
L 141.792363 309.630246 
L 142.061587 310.187099 
L 142.381875 310.742426 
L 142.752239 311.293791 
L 143.171453 311.838745 
L 143.638047 312.37483 
L 144.150316 312.899601 
L 144.706318 313.410638 
L 145.303882 313.905561 
L 145.940614 314.382048 
L 146.613908 314.837848 
L 147.320956 315.2708 
L 148.058762 315.678844 
L 148.824156 316.06004 
L 149.613814 316.412579 
L 150.424272 316.734798 
L 151.251948 317.02519 
L 152.093164 317.282414 
L 152.944166 317.505306 
L 153.801149 317.692885 
L 154.660276 317.84436 
L 155.517708 317.959133 
L 156.369622 318.036799 
L 157.212236 318.077151 
L 158.041832 318.080176 
L 158.854776 318.046051 
L 159.64754 317.97514 
L 160.416721 317.867989 
L 161.159059 317.725317 
L 161.871452 317.548007 
L 162.550972 317.337097 
L 163.19488 317.093772 
L 163.80063 316.819349 
L 164.365886 316.515269 
L 164.888525 316.183083 
L 165.366645 315.82444 
L 165.798567 315.441077 
L 166.182838 315.034805 
L 166.518231 314.607498 
L 166.803747 314.161082 
L 167.03861 313.697524 
L 167.222266 313.218823 
L 167.354377 312.726996 
L 167.434817 312.224074 
L 167.463668 311.712089 
L 167.441208 311.193071 
L 167.367909 310.669034 
L 167.244429 310.141975 
L 167.071602 309.613867 
L 166.850431 309.086652 
L 166.582078 308.562234 
L 166.26786 308.042481 
L 165.909237 307.529214 
L 165.507802 307.02421 
L 165.065279 306.529192 
L 164.583508 306.045833 
L 164.064443 305.575748 
L 163.510138 305.120496 
L 162.922744 304.681575 
L 162.3045 304.260423 
L 161.657727 303.858412 
L 160.984816 303.476852 
L 160.288228 303.116986 
L 159.570482 302.779987 
L 158.834152 302.466963 
L 158.081856 302.178947 
L 157.316255 301.916903 
L 156.540043 301.68172 
L 155.755943 301.474212 
L 154.966698 301.295115 
L 154.17507 301.145089 
L 153.383826 301.024711 
L 152.595743 300.934476 
L 151.813589 300.874794 
L 151.040127 300.845989 
L 150.278106 300.848297 
L 149.530248 300.88186 
L 148.799253 300.946727 
L 148.087781 301.042853 
L 147.398452 301.170093 
L 146.733836 301.3282 
L 146.096444 301.516824 
L 145.488726 301.735512 
L 144.913054 301.983701 
L 144.371722 302.260718 
L 143.866931 302.565779 
L 143.400786 302.897989 
L 142.97528 303.256338 
L 142.59229 303.639701 
L 142.253566 304.046839 
L 141.96072 304.4764 
L 141.715216 304.926915 
L 141.518361 305.396808 
" style="fill:none;stroke:#ff0000;stroke-linecap:square;"/>
   </g>
   <g id="line2d_60">
    <path clip-path="url(#p0be8515659)" d="M 66.176602 190.850715 
L 62.586286 193.79112 
L 59.20566 197.04172 
L 56.05625 200.608657 
L 53.161283 204.497197 
L 50.545794 208.711409 
L 48.236723 213.253793 
L 47.411161 217.852518 
L 51.357655 221.510937 
L 55.41657 225.182212 
L 59.58491 228.860018 
L 63.859455 232.538337 
L 68.236776 236.211433 
L 72.713248 239.87382 
L 77.285066 243.52024 
L 81.948247 247.145647 
L 86.698651 250.745188 
L 91.531982 254.314197 
L 96.443798 257.848177 
L 101.429523 261.342802 
L 106.48445 264.793902 
L 111.603749 268.197467 
L 116.782475 271.549638 
L 122.01557 274.846708 
L 127.297875 278.08512 
L 132.624127 281.261468 
L 137.988971 284.3725 
L 143.38696 287.415115 
L 148.81256 290.38637 
L 154.260151 293.283483 
L 159.724036 296.103835 
L 165.198434 298.844977 
L 170.677489 301.504637 
L 176.155266 304.080724 
L 181.625753 306.571339 
L 187.082859 308.974783 
L 192.520409 311.289565 
L 197.932142 313.514421 
L 203.311706 315.64832 
L 208.652645 317.690483 
L 213.948394 319.640406 
L 219.192262 321.497872 
L 224.377413 323.262985 
L 229.496846 324.936193 
L 233.129961 321.988576 
L 235.995255 317.773304 
L 238.42437 313.449486 
L 240.43254 309.039425 
L 242.035461 304.563006 
L 243.248997 300.037951 
L 244.088958 295.480076 
L 244.570947 290.903522 
L 244.710238 286.320969 
L 244.521707 281.743839 
L 244.019781 277.18246 
L 243.218415 272.646232 
L 242.131083 268.143755 
L 240.770785 263.682952 
L 239.150056 259.27117 
L 237.280991 254.915272 
L 235.175268 250.621712 
L 232.84417 246.396603 
L 230.29862 242.245773 
L 227.549203 238.174814 
L 224.606197 234.189126 
L 221.4796 230.293952 
L 218.179155 226.494408 
L 214.714381 222.795512 
L 211.094586 219.202207 
L 207.328903 215.719381 
L 203.426302 212.351883 
L 199.395615 209.104544 
L 195.245554 205.982187 
L 190.984731 202.989639 
L 186.621676 200.13175 
L 182.164856 197.413394 
L 177.622689 194.83949 
L 173.003562 192.415005 
L 168.315853 190.144965 
L 163.567943 188.034471 
L 158.768238 186.088701 
L 153.925186 184.312923 
L 149.0473 182.71251 
L 144.143176 181.292942 
L 139.221524 180.059823 
L 134.291187 179.018886 
L 129.361174 178.176008 
L 124.44069 177.537216 
L 119.539175 177.1087 
L 114.666341 176.896816 
L 109.832219 176.908096 
L 105.047208 177.14925 
L 100.322135 177.627169 
L 95.668314 178.34892 
L 91.09762 179.321736 
L 86.622568 180.553003 
L 82.2564 182.05023 
L 78.013184 183.821014 
L 73.90792 185.872986 
L 69.956653 188.213735 
L 66.176602 190.850715 
" style="fill:none;stroke:#ff0000;stroke-linecap:square;"/>
   </g>
   <g id="line2d_61">
    <path clip-path="url(#p0be8515659)" d="M 170.64829 299.3823 
L 170.620947 300.189942 
L 170.668095 301.001156 
L 170.79027 301.812729 
L 170.987704 302.621369 
L 171.260324 303.423716 
L 171.607731 304.216362 
L 172.029195 304.99586 
L 172.523646 305.758743 
L 173.089662 306.501547 
L 173.725469 307.220823 
L 174.428939 307.913167 
L 175.197584 308.575235 
L 176.028566 309.203772 
L 176.918697 309.79563 
L 177.864452 310.347798 
L 178.861979 310.857424 
L 179.907115 311.321835 
L 180.995408 311.738568 
L 182.122132 312.105385 
L 183.282322 312.420296 
L 184.470795 312.68158 
L 185.682184 312.887798 
L 186.910973 313.037809 
L 188.151528 313.130781 
L 189.398139 313.166199 
L 190.645054 313.143872 
L 191.886521 313.06393 
L 193.116824 312.926829 
L 194.330321 312.733341 
L 195.521484 312.48455 
L 196.684932 312.181837 
L 197.815463 311.82687 
L 198.908091 311.421587 
L 199.958069 310.968174 
L 200.960916 310.469051 
L 201.912443 309.926843 
L 202.808768 309.344363 
L 203.646334 308.724586 
L 204.42192 308.070625 
L 205.132654 307.385705 
L 205.776013 306.673144 
L 206.349833 305.936325 
L 206.852303 305.178675 
L 207.281967 304.403645 
L 207.637716 303.614691 
L 207.918784 302.81525 
L 208.124737 302.008728 
L 208.255465 301.198483 
L 208.311168 300.387809 
L 208.292346 299.579925 
L 208.199781 298.777964 
L 208.034531 297.984963 
L 207.797908 297.203854 
L 207.491466 296.437458 
L 207.116988 295.688482 
L 206.676471 294.959508 
L 206.172109 294.252994 
L 205.606282 293.571273 
L 204.981542 292.916547 
L 204.300598 292.290887 
L 203.566304 291.696235 
L 202.78165 291.1344 
L 201.949745 290.607065 
L 201.073808 290.115777 
L 200.157159 289.661961 
L 199.203207 289.246908 
L 198.215441 288.871788 
L 197.197421 288.537643 
L 196.152766 288.245392 
L 195.085152 287.995831 
L 193.998298 287.789635 
L 192.895958 287.627358 
L 191.781921 287.509436 
L 190.659992 287.436183 
L 189.533996 287.407798 
L 188.407763 287.424359 
L 187.285125 287.485828 
L 186.169905 287.592047 
L 185.065915 287.742741 
L 183.976945 287.937515 
L 182.906758 288.175853 
L 181.859079 288.457119 
L 180.83759 288.780557 
L 179.845922 289.145286 
L 178.887645 289.550299 
L 177.96626 289.994467 
L 177.085189 290.47653 
L 176.247767 290.995102 
L 175.45723 291.548667 
L 174.716705 292.135577 
L 174.029198 292.754053 
L 173.397587 293.402184 
L 172.8246 294.077926 
L 172.312813 294.779105 
L 171.864631 295.503414 
L 171.482274 296.248417 
L 171.167765 297.011552 
L 170.922915 297.790133 
L 170.749309 298.581356 
L 170.64829 299.3823 
" style="fill:none;stroke:#ff0000;stroke-linecap:square;"/>
   </g>
   <g id="line2d_62">
    <path clip-path="url(#p0be8515659)" d="M 167.454263 303.377459 
L 167.403894 304.064581 
L 167.419317 304.757355 
L 167.501056 305.453055 
L 167.649373 306.148886 
L 167.864259 306.841987 
L 168.145422 307.529447 
L 168.492279 308.208317 
L 168.903952 308.875622 
L 169.379256 309.52838 
L 169.916701 310.163619 
L 170.514486 310.77839 
L 171.170503 311.369789 
L 171.882335 311.934975 
L 172.647266 312.471193 
L 173.462285 312.975787 
L 174.324097 313.446228 
L 175.229138 313.88013 
L 176.17359 314.275267 
L 177.153397 314.629597 
L 178.164291 314.941276 
L 179.201811 315.208674 
L 180.261333 315.430392 
L 181.338093 315.60527 
L 182.42722 315.732401 
L 183.523768 315.811139 
L 184.622741 315.841102 
L 185.719133 315.822176 
L 186.807957 315.754516 
L 187.884276 315.638544 
L 188.943235 315.474943 
L 189.980092 315.264649 
L 190.990249 315.008842 
L 191.969272 314.708936 
L 192.912926 314.366564 
L 193.81719 313.983561 
L 194.678279 313.561951 
L 195.492665 313.103926 
L 196.257087 312.611829 
L 196.96857 312.088135 
L 197.624427 311.535433 
L 198.222271 310.956402 
L 198.760018 310.3538 
L 199.23589 309.730437 
L 199.648413 309.089165 
L 199.996417 308.432855 
L 200.279029 307.764385 
L 200.49567 307.086623 
L 200.646047 306.402415 
L 200.730144 305.714569 
L 200.748211 305.025847 
L 200.700758 304.338956 
L 200.588541 303.656532 
L 200.41255 302.981142 
L 200.173997 302.315267 
L 199.874307 301.661304 
L 199.515103 301.021557 
L 199.098195 300.398234 
L 198.625569 299.793444 
L 198.099372 299.209195 
L 197.521903 298.647389 
L 196.895603 298.109826 
L 196.223042 297.598197 
L 195.506907 297.114088 
L 194.749997 296.658979 
L 193.955209 296.234242 
L 193.125528 295.841143 
L 192.264023 295.480841 
L 191.373833 295.15439 
L 190.458161 294.86274 
L 189.520266 294.606735 
L 188.563456 294.387113 
L 187.591077 294.204513 
L 186.606512 294.059465 
L 185.613167 293.952399 
L 184.614467 293.883641 
L 183.613851 293.853413 
L 182.614761 293.861833 
L 181.620639 293.908915 
L 180.634917 293.99457 
L 179.661013 294.118602 
L 178.702321 294.280707 
L 177.762205 294.480477 
L 176.843992 294.717393 
L 175.950964 294.990828 
L 175.08635 295.300042 
L 174.253316 295.644186 
L 173.454961 296.022293 
L 172.694304 296.433286 
L 171.974274 296.875967 
L 171.297704 297.349025 
L 170.66732 297.85103 
L 170.085729 298.380433 
L 169.555406 298.935566 
L 169.07869 299.514646 
L 168.657764 300.115768 
L 168.294648 300.736916 
L 167.991188 301.375956 
L 167.749036 302.030644 
L 167.569648 302.69863 
L 167.454263 303.377459 
" style="fill:none;stroke:#ff0000;stroke-linecap:square;"/>
   </g>
   <g id="text_1">
    <!-- Hematite (tilt-corrected) directions from Teel basalt flows -->
    <defs>
     <path id="BitstreamVeraSans-Roman-20"/>
     <path d="M 48.6875 27.296875 
Q 48.6875 37.203125 44.609375 42.84375 
Q 40.53125 48.484375 33.40625 48.484375 
Q 26.265625 48.484375 22.1875 42.84375 
Q 18.109375 37.203125 18.109375 27.296875 
Q 18.109375 17.390625 22.1875 11.75 
Q 26.265625 6.109375 33.40625 6.109375 
Q 40.53125 6.109375 44.609375 11.75 
Q 48.6875 17.390625 48.6875 27.296875 
M 18.109375 46.390625 
Q 20.953125 51.265625 25.265625 53.625 
Q 29.59375 56 35.59375 56 
Q 45.5625 56 51.78125 48.09375 
Q 58.015625 40.1875 58.015625 27.296875 
Q 58.015625 14.40625 51.78125 6.484375 
Q 45.5625 -1.421875 35.59375 -1.421875 
Q 29.59375 -1.421875 25.265625 0.953125 
Q 20.953125 3.328125 18.109375 8.203125 
L 18.109375 0 
L 9.078125 0 
L 9.078125 75.984375 
L 18.109375 75.984375 
z
" id="BitstreamVeraSans-Roman-62"/>
     <path d="M 54.890625 33.015625 
L 54.890625 0 
L 45.90625 0 
L 45.90625 32.71875 
Q 45.90625 40.484375 42.875 44.328125 
Q 39.84375 48.1875 33.796875 48.1875 
Q 26.515625 48.1875 22.3125 43.546875 
Q 18.109375 38.921875 18.109375 30.90625 
L 18.109375 0 
L 9.078125 0 
L 9.078125 54.6875 
L 18.109375 54.6875 
L 18.109375 46.1875 
Q 21.34375 51.125 25.703125 53.5625 
Q 30.078125 56 35.796875 56 
Q 45.21875 56 50.046875 50.171875 
Q 54.890625 44.34375 54.890625 33.015625 
" id="BitstreamVeraSans-Roman-6e"/>
     <path d="M 41.109375 46.296875 
Q 39.59375 47.171875 37.8125 47.578125 
Q 36.03125 48 33.890625 48 
Q 26.265625 48 22.1875 43.046875 
Q 18.109375 38.09375 18.109375 28.8125 
L 18.109375 0 
L 9.078125 0 
L 9.078125 54.6875 
L 18.109375 54.6875 
L 18.109375 46.1875 
Q 20.953125 51.171875 25.484375 53.578125 
Q 30.03125 56 36.53125 56 
Q 37.453125 56 38.578125 55.875 
Q 39.703125 55.765625 41.0625 55.515625 
z
" id="BitstreamVeraSans-Roman-72"/>
     <path d="M 52 44.1875 
Q 55.375 50.25 60.0625 53.125 
Q 64.75 56 71.09375 56 
Q 79.640625 56 84.28125 50.015625 
Q 88.921875 44.046875 88.921875 33.015625 
L 88.921875 0 
L 79.890625 0 
L 79.890625 32.71875 
Q 79.890625 40.578125 77.09375 44.375 
Q 74.3125 48.1875 68.609375 48.1875 
Q 61.625 48.1875 57.5625 43.546875 
Q 53.515625 38.921875 53.515625 30.90625 
L 53.515625 0 
L 44.484375 0 
L 44.484375 32.71875 
Q 44.484375 40.625 41.703125 44.40625 
Q 38.921875 48.1875 33.109375 48.1875 
Q 26.21875 48.1875 22.15625 43.53125 
Q 18.109375 38.875 18.109375 30.90625 
L 18.109375 0 
L 9.078125 0 
L 9.078125 54.6875 
L 18.109375 54.6875 
L 18.109375 46.1875 
Q 21.1875 51.21875 25.484375 53.609375 
Q 29.78125 56 35.6875 56 
Q 41.65625 56 45.828125 52.96875 
Q 50 49.953125 52 44.1875 
" id="BitstreamVeraSans-Roman-6d"/>
     <path d="M 30.609375 48.390625 
Q 23.390625 48.390625 19.1875 42.75 
Q 14.984375 37.109375 14.984375 27.296875 
Q 14.984375 17.484375 19.15625 11.84375 
Q 23.34375 6.203125 30.609375 6.203125 
Q 37.796875 6.203125 41.984375 11.859375 
Q 46.1875 17.53125 46.1875 27.296875 
Q 46.1875 37.015625 41.984375 42.703125 
Q 37.796875 48.390625 30.609375 48.390625 
M 30.609375 56 
Q 42.328125 56 49.015625 48.375 
Q 55.71875 40.765625 55.71875 27.296875 
Q 55.71875 13.875 49.015625 6.21875 
Q 42.328125 -1.421875 30.609375 -1.421875 
Q 18.84375 -1.421875 12.171875 6.21875 
Q 5.515625 13.875 5.515625 27.296875 
Q 5.515625 40.765625 12.171875 48.375 
Q 18.84375 56 30.609375 56 
" id="BitstreamVeraSans-Roman-6f"/>
     <path d="M 9.421875 75.984375 
L 18.40625 75.984375 
L 18.40625 0 
L 9.421875 0 
z
" id="BitstreamVeraSans-Roman-6c"/>
     <path d="M 8.015625 75.875 
L 15.828125 75.875 
Q 23.140625 64.359375 26.78125 53.3125 
Q 30.421875 42.28125 30.421875 31.390625 
Q 30.421875 20.453125 26.78125 9.375 
Q 23.140625 -1.703125 15.828125 -13.1875 
L 8.015625 -13.1875 
Q 14.5 -2 17.703125 9.0625 
Q 20.90625 20.125 20.90625 31.390625 
Q 20.90625 42.671875 17.703125 53.65625 
Q 14.5 64.65625 8.015625 75.875 
" id="BitstreamVeraSans-Roman-29"/>
     <path d="M -0.296875 72.90625 
L 61.375 72.90625 
L 61.375 64.59375 
L 35.5 64.59375 
L 35.5 0 
L 25.59375 0 
L 25.59375 64.59375 
L -0.296875 64.59375 
z
" id="BitstreamVeraSans-Roman-54"/>
     <path d="M 4.203125 54.6875 
L 13.1875 54.6875 
L 24.421875 12.015625 
L 35.59375 54.6875 
L 46.1875 54.6875 
L 57.421875 12.015625 
L 68.609375 54.6875 
L 77.59375 54.6875 
L 63.28125 0 
L 52.6875 0 
L 40.921875 44.828125 
L 29.109375 0 
L 18.5 0 
z
" id="BitstreamVeraSans-Roman-77"/>
     <path d="M 9.421875 54.6875 
L 18.40625 54.6875 
L 18.40625 0 
L 9.421875 0 
z
M 9.421875 75.984375 
L 18.40625 75.984375 
L 18.40625 64.59375 
L 9.421875 64.59375 
z
" id="BitstreamVeraSans-Roman-69"/>
     <path d="M 4.890625 31.390625 
L 31.203125 31.390625 
L 31.203125 23.390625 
L 4.890625 23.390625 
z
" id="BitstreamVeraSans-Roman-2d"/>
     <path d="M 31 75.875 
Q 24.46875 64.65625 21.28125 53.65625 
Q 18.109375 42.671875 18.109375 31.390625 
Q 18.109375 20.125 21.3125 9.0625 
Q 24.515625 -2 31 -13.1875 
L 23.1875 -13.1875 
Q 15.875 -1.703125 12.234375 9.375 
Q 8.59375 20.453125 8.59375 31.390625 
Q 8.59375 42.28125 12.203125 53.3125 
Q 15.828125 64.359375 23.1875 75.875 
z
" id="BitstreamVeraSans-Roman-28"/>
     <path d="M 56.203125 29.59375 
L 56.203125 25.203125 
L 14.890625 25.203125 
Q 15.484375 15.921875 20.484375 11.0625 
Q 25.484375 6.203125 34.421875 6.203125 
Q 39.59375 6.203125 44.453125 7.46875 
Q 49.3125 8.734375 54.109375 11.28125 
L 54.109375 2.78125 
Q 49.265625 0.734375 44.1875 -0.34375 
Q 39.109375 -1.421875 33.890625 -1.421875 
Q 20.796875 -1.421875 13.15625 6.1875 
Q 5.515625 13.8125 5.515625 26.8125 
Q 5.515625 40.234375 12.765625 48.109375 
Q 20.015625 56 32.328125 56 
Q 43.359375 56 49.78125 48.890625 
Q 56.203125 41.796875 56.203125 29.59375 
M 47.21875 32.234375 
Q 47.125 39.59375 43.09375 43.984375 
Q 39.0625 48.390625 32.421875 48.390625 
Q 24.90625 48.390625 20.390625 44.140625 
Q 15.875 39.890625 15.1875 32.171875 
z
" id="BitstreamVeraSans-Roman-65"/>
     <path d="M 45.40625 46.390625 
L 45.40625 75.984375 
L 54.390625 75.984375 
L 54.390625 0 
L 45.40625 0 
L 45.40625 8.203125 
Q 42.578125 3.328125 38.25 0.953125 
Q 33.9375 -1.421875 27.875 -1.421875 
Q 17.96875 -1.421875 11.734375 6.484375 
Q 5.515625 14.40625 5.515625 27.296875 
Q 5.515625 40.1875 11.734375 48.09375 
Q 17.96875 56 27.875 56 
Q 33.9375 56 38.25 53.625 
Q 42.578125 51.265625 45.40625 46.390625 
M 14.796875 27.296875 
Q 14.796875 17.390625 18.875 11.75 
Q 22.953125 6.109375 30.078125 6.109375 
Q 37.203125 6.109375 41.296875 11.75 
Q 45.40625 17.390625 45.40625 27.296875 
Q 45.40625 37.203125 41.296875 42.84375 
Q 37.203125 48.484375 30.078125 48.484375 
Q 22.953125 48.484375 18.875 42.84375 
Q 14.796875 37.203125 14.796875 27.296875 
" id="BitstreamVeraSans-Roman-64"/>
     <path d="M 18.3125 70.21875 
L 18.3125 54.6875 
L 36.8125 54.6875 
L 36.8125 47.703125 
L 18.3125 47.703125 
L 18.3125 18.015625 
Q 18.3125 11.328125 20.140625 9.421875 
Q 21.96875 7.515625 27.59375 7.515625 
L 36.8125 7.515625 
L 36.8125 0 
L 27.59375 0 
Q 17.1875 0 13.234375 3.875 
Q 9.28125 7.765625 9.28125 18.015625 
L 9.28125 47.703125 
L 2.6875 47.703125 
L 2.6875 54.6875 
L 9.28125 54.6875 
L 9.28125 70.21875 
z
" id="BitstreamVeraSans-Roman-74"/>
     <path d="M 37.109375 75.984375 
L 37.109375 68.5 
L 28.515625 68.5 
Q 23.6875 68.5 21.796875 66.546875 
Q 19.921875 64.59375 19.921875 59.515625 
L 19.921875 54.6875 
L 34.71875 54.6875 
L 34.71875 47.703125 
L 19.921875 47.703125 
L 19.921875 0 
L 10.890625 0 
L 10.890625 47.703125 
L 2.296875 47.703125 
L 2.296875 54.6875 
L 10.890625 54.6875 
L 10.890625 58.5 
Q 10.890625 67.625 15.140625 71.796875 
Q 19.390625 75.984375 28.609375 75.984375 
z
" id="BitstreamVeraSans-Roman-66"/>
     <path d="M 34.28125 27.484375 
Q 23.390625 27.484375 19.1875 25 
Q 14.984375 22.515625 14.984375 16.5 
Q 14.984375 11.71875 18.140625 8.90625 
Q 21.296875 6.109375 26.703125 6.109375 
Q 34.1875 6.109375 38.703125 11.40625 
Q 43.21875 16.703125 43.21875 25.484375 
L 43.21875 27.484375 
z
M 52.203125 31.203125 
L 52.203125 0 
L 43.21875 0 
L 43.21875 8.296875 
Q 40.140625 3.328125 35.546875 0.953125 
Q 30.953125 -1.421875 24.3125 -1.421875 
Q 15.921875 -1.421875 10.953125 3.296875 
Q 6 8.015625 6 15.921875 
Q 6 25.140625 12.171875 29.828125 
Q 18.359375 34.515625 30.609375 34.515625 
L 43.21875 34.515625 
L 43.21875 35.40625 
Q 43.21875 41.609375 39.140625 45 
Q 35.0625 48.390625 27.6875 48.390625 
Q 23 48.390625 18.546875 47.265625 
Q 14.109375 46.140625 10.015625 43.890625 
L 10.015625 52.203125 
Q 14.9375 54.109375 19.578125 55.046875 
Q 24.21875 56 28.609375 56 
Q 40.484375 56 46.34375 49.84375 
Q 52.203125 43.703125 52.203125 31.203125 
" id="BitstreamVeraSans-Roman-61"/>
     <path d="M 44.28125 53.078125 
L 44.28125 44.578125 
Q 40.484375 46.53125 36.375 47.5 
Q 32.28125 48.484375 27.875 48.484375 
Q 21.1875 48.484375 17.84375 46.4375 
Q 14.5 44.390625 14.5 40.28125 
Q 14.5 37.15625 16.890625 35.375 
Q 19.28125 33.59375 26.515625 31.984375 
L 29.59375 31.296875 
Q 39.15625 29.25 43.1875 25.515625 
Q 47.21875 21.78125 47.21875 15.09375 
Q 47.21875 7.46875 41.1875 3.015625 
Q 35.15625 -1.421875 24.609375 -1.421875 
Q 20.21875 -1.421875 15.453125 -0.5625 
Q 10.6875 0.296875 5.421875 2 
L 5.421875 11.28125 
Q 10.40625 8.6875 15.234375 7.390625 
Q 20.0625 6.109375 24.8125 6.109375 
Q 31.15625 6.109375 34.5625 8.28125 
Q 37.984375 10.453125 37.984375 14.40625 
Q 37.984375 18.0625 35.515625 20.015625 
Q 33.0625 21.96875 24.703125 23.78125 
L 21.578125 24.515625 
Q 13.234375 26.265625 9.515625 29.90625 
Q 5.8125 33.546875 5.8125 39.890625 
Q 5.8125 47.609375 11.28125 51.796875 
Q 16.75 56 26.8125 56 
Q 31.78125 56 36.171875 55.265625 
Q 40.578125 54.546875 44.28125 53.078125 
" id="BitstreamVeraSans-Roman-73"/>
     <path d="M 48.78125 52.59375 
L 48.78125 44.1875 
Q 44.96875 46.296875 41.140625 47.34375 
Q 37.3125 48.390625 33.40625 48.390625 
Q 24.65625 48.390625 19.8125 42.84375 
Q 14.984375 37.3125 14.984375 27.296875 
Q 14.984375 17.28125 19.8125 11.734375 
Q 24.65625 6.203125 33.40625 6.203125 
Q 37.3125 6.203125 41.140625 7.25 
Q 44.96875 8.296875 48.78125 10.40625 
L 48.78125 2.09375 
Q 45.015625 0.34375 40.984375 -0.53125 
Q 36.96875 -1.421875 32.421875 -1.421875 
Q 20.0625 -1.421875 12.78125 6.34375 
Q 5.515625 14.109375 5.515625 27.296875 
Q 5.515625 40.671875 12.859375 48.328125 
Q 20.21875 56 33.015625 56 
Q 37.15625 56 41.109375 55.140625 
Q 45.0625 54.296875 48.78125 52.59375 
" id="BitstreamVeraSans-Roman-63"/>
     <path d="M 9.8125 72.90625 
L 19.671875 72.90625 
L 19.671875 43.015625 
L 55.515625 43.015625 
L 55.515625 72.90625 
L 65.375 72.90625 
L 65.375 0 
L 55.515625 0 
L 55.515625 34.71875 
L 19.671875 34.71875 
L 19.671875 0 
L 9.8125 0 
z
" id="BitstreamVeraSans-Roman-48"/>
    </defs>
    <g transform="translate(17.0880564024 16.318125)scale(0.12 -0.12)">
     <use xlink:href="#BitstreamVeraSans-Roman-48"/>
     <use x="75.1953125" xlink:href="#BitstreamVeraSans-Roman-65"/>
     <use x="136.71875" xlink:href="#BitstreamVeraSans-Roman-6d"/>
     <use x="234.130859375" xlink:href="#BitstreamVeraSans-Roman-61"/>
     <use x="295.41015625" xlink:href="#BitstreamVeraSans-Roman-74"/>
     <use x="334.619140625" xlink:href="#BitstreamVeraSans-Roman-69"/>
     <use x="362.40234375" xlink:href="#BitstreamVeraSans-Roman-74"/>
     <use x="401.611328125" xlink:href="#BitstreamVeraSans-Roman-65"/>
     <use x="463.134765625" xlink:href="#BitstreamVeraSans-Roman-20"/>
     <use x="494.921875" xlink:href="#BitstreamVeraSans-Roman-28"/>
     <use x="533.935546875" xlink:href="#BitstreamVeraSans-Roman-74"/>
     <use x="573.14453125" xlink:href="#BitstreamVeraSans-Roman-69"/>
     <use x="600.927734375" xlink:href="#BitstreamVeraSans-Roman-6c"/>
     <use x="628.7109375" xlink:href="#BitstreamVeraSans-Roman-74"/>
     <use x="667.919921875" xlink:href="#BitstreamVeraSans-Roman-2d"/>
     <use x="704.00390625" xlink:href="#BitstreamVeraSans-Roman-63"/>
     <use x="758.984375" xlink:href="#BitstreamVeraSans-Roman-6f"/>
     <use x="820.166015625" xlink:href="#BitstreamVeraSans-Roman-72"/>
     <use x="861.263671875" xlink:href="#BitstreamVeraSans-Roman-72"/>
     <use x="902.345703125" xlink:href="#BitstreamVeraSans-Roman-65"/>
     <use x="963.869140625" xlink:href="#BitstreamVeraSans-Roman-63"/>
     <use x="1018.84960938" xlink:href="#BitstreamVeraSans-Roman-74"/>
     <use x="1058.05859375" xlink:href="#BitstreamVeraSans-Roman-65"/>
     <use x="1119.58203125" xlink:href="#BitstreamVeraSans-Roman-64"/>
     <use x="1183.05859375" xlink:href="#BitstreamVeraSans-Roman-29"/>
     <use x="1222.07226562" xlink:href="#BitstreamVeraSans-Roman-20"/>
     <use x="1253.859375" xlink:href="#BitstreamVeraSans-Roman-64"/>
     <use x="1317.3359375" xlink:href="#BitstreamVeraSans-Roman-69"/>
     <use x="1345.11914062" xlink:href="#BitstreamVeraSans-Roman-72"/>
     <use x="1386.20117188" xlink:href="#BitstreamVeraSans-Roman-65"/>
     <use x="1447.72460938" xlink:href="#BitstreamVeraSans-Roman-63"/>
     <use x="1502.70507812" xlink:href="#BitstreamVeraSans-Roman-74"/>
     <use x="1541.9140625" xlink:href="#BitstreamVeraSans-Roman-69"/>
     <use x="1569.69726562" xlink:href="#BitstreamVeraSans-Roman-6f"/>
     <use x="1630.87890625" xlink:href="#BitstreamVeraSans-Roman-6e"/>
     <use x="1694.2578125" xlink:href="#BitstreamVeraSans-Roman-73"/>
     <use x="1746.35742188" xlink:href="#BitstreamVeraSans-Roman-20"/>
     <use x="1778.14453125" xlink:href="#BitstreamVeraSans-Roman-66"/>
     <use x="1813.34960938" xlink:href="#BitstreamVeraSans-Roman-72"/>
     <use x="1854.43164062" xlink:href="#BitstreamVeraSans-Roman-6f"/>
     <use x="1915.61328125" xlink:href="#BitstreamVeraSans-Roman-6d"/>
     <use x="2013.02539062" xlink:href="#BitstreamVeraSans-Roman-20"/>
     <use x="2044.8125" xlink:href="#BitstreamVeraSans-Roman-54"/>
     <use x="2105.63085938" xlink:href="#BitstreamVeraSans-Roman-65"/>
     <use x="2167.15429688" xlink:href="#BitstreamVeraSans-Roman-65"/>
     <use x="2228.67773438" xlink:href="#BitstreamVeraSans-Roman-6c"/>
     <use x="2256.4609375" xlink:href="#BitstreamVeraSans-Roman-20"/>
     <use x="2288.24804688" xlink:href="#BitstreamVeraSans-Roman-62"/>
     <use x="2351.72460938" xlink:href="#BitstreamVeraSans-Roman-61"/>
     <use x="2413.00390625" xlink:href="#BitstreamVeraSans-Roman-73"/>
     <use x="2465.10351562" xlink:href="#BitstreamVeraSans-Roman-61"/>
     <use x="2526.3828125" xlink:href="#BitstreamVeraSans-Roman-6c"/>
     <use x="2554.16601562" xlink:href="#BitstreamVeraSans-Roman-74"/>
     <use x="2593.375" xlink:href="#BitstreamVeraSans-Roman-20"/>
     <use x="2625.16210938" xlink:href="#BitstreamVeraSans-Roman-66"/>
     <use x="2660.3671875" xlink:href="#BitstreamVeraSans-Roman-6c"/>
     <use x="2688.15039062" xlink:href="#BitstreamVeraSans-Roman-6f"/>
     <use x="2749.33203125" xlink:href="#BitstreamVeraSans-Roman-77"/>
     <use x="2831.11914062" xlink:href="#BitstreamVeraSans-Roman-73"/>
    </g>
   </g>
  </g>
 </g>
 <defs>
  <clipPath id="p0be8515659">
   <rect height="325.4" width="309.192987805" x="35.4828125" y="21.318125"/>
  </clipPath>
 </defs>
</svg>
