<?xml version="1.0" encoding="utf-8" standalone="no"?>
<!DOCTYPE svg PUBLIC "-//W3C//DTD SVG 1.1//EN"
  "http://www.w3.org/Graphics/SVG/1.1/DTD/svg11.dtd">
<!-- Created with matplotlib (http://matplotlib.org/) -->
<svg height="293pt" version="1.1" viewBox="0 0 280 293" width="280pt" xmlns="http://www.w3.org/2000/svg" xmlns:xlink="http://www.w3.org/1999/xlink">
 <defs>
  <style type="text/css">
*{stroke-linecap:butt;stroke-linejoin:round;stroke-miterlimit:100000;}
  </style>
 </defs>
 <g id="figure_1">
  <g id="patch_1">
   <path d="M 0 293.518125 
L 280.465621 293.518125 
L 280.465621 0 
L 0 0 
L 0 293.518125 
z
" style="fill:none;"/>
  </g>
  <g id="axes_1">
   <g id="PathCollection_1">
    <defs>
     <path d="M 0 2.236068 
C 0.593012 2.236068 1.161816 2.000462 1.581139 1.581139 
C 2.000462 1.161816 2.236068 0.593012 2.236068 0 
C 2.236068 -0.593012 2.000462 -1.161816 1.581139 -1.581139 
C 1.161816 -2.000462 0.593012 -2.236068 0 -2.236068 
C -0.593012 -2.236068 -1.161816 -2.000462 -1.581139 -1.581139 
C -2.000462 -1.161816 -2.236068 -0.593012 -2.236068 0 
C -2.236068 0.593012 -2.000462 1.161816 -1.581139 1.581139 
C -1.161816 2.000462 -0.593012 2.236068 0 2.236068 
z
" id="m48fd2baccd" style="stroke:#008000;"/>
    </defs>
    <g clip-path="url(#pc3d3922a68)">
     <use style="fill:#008000;stroke:#008000;" x="164.291163356" xlink:href="#m48fd2baccd" y="103.720097555"/>
     <use style="fill:#008000;stroke:#008000;" x="113.282436319" xlink:href="#m48fd2baccd" y="102.884942676"/>
     <use style="fill:#008000;stroke:#008000;" x="147.052308645" xlink:href="#m48fd2baccd" y="132.210867494"/>
     <use style="fill:#008000;stroke:#008000;" x="137.239868732" xlink:href="#m48fd2baccd" y="130.328797736"/>
     <use style="fill:#008000;stroke:#008000;" x="157.955119278" xlink:href="#m48fd2baccd" y="115.962429239"/>
     <use style="fill:#008000;stroke:#008000;" x="158.135396332" xlink:href="#m48fd2baccd" y="123.33799186"/>
     <use style="fill:#008000;stroke:#008000;" x="145.169730889" xlink:href="#m48fd2baccd" y="113.034132449"/>
    </g>
   </g>
   <g id="PathCollection_2">
    <defs>
     <path d="M 0 2.236068 
C 0.593012 2.236068 1.161816 2.000462 1.581139 1.581139 
C 2.000462 1.161816 2.236068 0.593012 2.236068 0 
C 2.236068 -0.593012 2.000462 -1.161816 1.581139 -1.581139 
C 1.161816 -2.000462 0.593012 -2.236068 0 -2.236068 
C -0.593012 -2.236068 -1.161816 -2.000462 -1.581139 -1.581139 
C -2.000462 -1.161816 -2.236068 -0.593012 -2.236068 0 
C -2.236068 0.593012 -2.000462 1.161816 -1.581139 1.581139 
C -1.161816 2.000462 -0.593012 2.236068 0 2.236068 
z
" id="C0_0_523afcdb93"/>
    </defs>
    <g clip-path="url(#pc3d3922a68)">
     <use style="fill:none;stroke:#0000ff;" x="83.7338427394" xlink:href="#C0_0_523afcdb93" y="167.417145757"/>
    </g>
    <g clip-path="url(#pc3d3922a68)">
     <use style="fill:none;stroke:#0000ff;" x="86.5322608428" xlink:href="#C0_0_523afcdb93" y="159.971974857"/>
    </g>
    <g clip-path="url(#pc3d3922a68)">
     <use style="fill:none;stroke:#0000ff;" x="100.854614649" xlink:href="#C0_0_523afcdb93" y="127.835781861"/>
    </g>
    <g clip-path="url(#pc3d3922a68)">
     <use style="fill:none;stroke:#0000ff;" x="92.9466693455" xlink:href="#C0_0_523afcdb93" y="143.838467327"/>
    </g>
    <g clip-path="url(#pc3d3922a68)">
     <use style="fill:none;stroke:#0000ff;" x="96.1568151991" xlink:href="#C0_0_523afcdb93" y="128.521346449"/>
    </g>
    <g clip-path="url(#pc3d3922a68)">
     <use style="fill:none;stroke:#0000ff;" x="93.1255123557" xlink:href="#C0_0_523afcdb93" y="120.840870591"/>
    </g>
    <g clip-path="url(#pc3d3922a68)">
     <use style="fill:none;stroke:#0000ff;" x="116.456081263" xlink:href="#C0_0_523afcdb93" y="116.432681502"/>
    </g>
   </g>
   <g id="PathCollection_3">
    <defs>
     <path d="M 0 2.236068 
C 0.593012 2.236068 1.161816 2.000462 1.581139 1.581139 
C 2.000462 1.161816 2.236068 0.593012 2.236068 0 
C 2.236068 -0.593012 2.000462 -1.161816 1.581139 -1.581139 
C 1.161816 -2.000462 0.593012 -2.236068 0 -2.236068 
C -0.593012 -2.236068 -1.161816 -2.000462 -1.581139 -1.581139 
C -2.000462 -1.161816 -2.236068 -0.593012 -2.236068 0 
C -2.236068 0.593012 -2.000462 1.161816 -1.581139 1.581139 
C -1.161816 2.000462 -0.593012 2.236068 0 2.236068 
z
" id="C1_0_7d42ef47d9"/>
    </defs>
    <g clip-path="url(#pc3d3922a68)">
     <use style="fill:none;stroke:#ff0000;" x="82.7652905478" xlink:href="#C1_0_7d42ef47d9" y="231.279920176"/>
    </g>
    <g clip-path="url(#pc3d3922a68)">
     <use style="fill:none;stroke:#ff0000;" x="92.6014057884" xlink:href="#C1_0_7d42ef47d9" y="208.834633514"/>
    </g>
    <g clip-path="url(#pc3d3922a68)">
     <use style="fill:none;stroke:#ff0000;" x="87.4559491288" xlink:href="#C1_0_7d42ef47d9" y="146.742276375"/>
    </g>
    <g clip-path="url(#pc3d3922a68)">
     <use style="fill:none;stroke:#ff0000;" x="97.8174179008" xlink:href="#C1_0_7d42ef47d9" y="153.615632285"/>
    </g>
    <g clip-path="url(#pc3d3922a68)">
     <use style="fill:none;stroke:#ff0000;" x="101.948762947" xlink:href="#C1_0_7d42ef47d9" y="155.519773745"/>
    </g>
    <g clip-path="url(#pc3d3922a68)">
     <use style="fill:none;stroke:#ff0000;" x="103.42022601" xlink:href="#C1_0_7d42ef47d9" y="171.932687853"/>
    </g>
   </g>
   <g id="PathCollection_4">
    <defs>
     <path d="M 0 2.236068 
C 0.593012 2.236068 1.161816 2.000462 1.581139 1.581139 
C 2.000462 1.161816 2.236068 0.593012 2.236068 0 
C 2.236068 -0.593012 2.000462 -1.161816 1.581139 -1.581139 
C 1.161816 -2.000462 0.593012 -2.236068 0 -2.236068 
C -0.593012 -2.236068 -1.161816 -2.000462 -1.581139 -1.581139 
C -2.000462 -1.161816 -2.236068 -0.593012 -2.236068 0 
C -2.236068 0.593012 -2.000462 1.161816 -1.581139 1.581139 
C -1.161816 2.000462 -0.593012 2.236068 0 2.236068 
z
" id="mfa3efe24e6" style="stroke:#ff0000;"/>
    </defs>
    <g clip-path="url(#pc3d3922a68)">
     <use style="fill:#ff0000;stroke:#ff0000;" x="228.9300529" xlink:href="#mfa3efe24e6" y="109.863915672"/>
    </g>
   </g>
   <g id="PathCollection_5">
    <defs>
     <path d="M -2.236068 2.236068 
L 2.236068 2.236068 
L 2.236068 -2.236068 
L -2.236068 -2.236068 
z
" id="m4448e003cb" style="stroke:#0000ff;"/>
    </defs>
    <g clip-path="url(#pc3d3922a68)">
     <use style="fill:#ffffff;stroke:#0000ff;" x="94.4539281052" xlink:href="#m4448e003cb" y="137.29727337"/>
    </g>
   </g>
   <g id="line2d_1">
    <path clip-path="url(#pc3d3922a68)" d="M 153.201256 33.965935 
L 159.068786 34.119392 
L 164.920235 34.579341 
L 170.739562 35.344522 
L 176.510818 36.412837 
L 182.218184 37.781359 
L 187.846017 39.446336 
L 193.378891 41.403205 
L 198.801641 43.646602 
L 204.099403 46.170378 
L 209.257657 48.967615 
L 214.262264 52.030648 
L 219.099508 55.351079 
L 223.756129 58.919808 
L 228.219364 62.727053 
L 232.476979 66.76238 
L 236.517305 71.014726 
L 240.329268 75.472438 
L 243.902419 80.123296 
L 247.226964 84.954553 
L 250.293791 89.952968 
L 253.094495 95.104838 
L 255.621398 100.396045 
L 257.867574 105.812084 
L 259.826868 111.338111 
L 261.493908 116.95898 
L 262.864125 122.659283 
L 263.933764 128.423397 
L 264.699893 134.235523 
L 265.160412 140.07973 
L 265.314059 145.94 
L 265.160412 151.80027 
L 264.699893 157.644477 
L 263.933764 163.456603 
L 262.864125 169.220717 
L 261.493908 174.92102 
L 259.826868 180.541889 
L 257.867574 186.067916 
L 255.621398 191.483955 
L 253.094495 196.775162 
L 250.293791 201.927032 
L 247.226964 206.925447 
L 243.902419 211.756704 
L 240.329268 216.407562 
L 236.517305 220.865274 
L 232.476979 225.11762 
L 228.219364 229.152947 
L 223.756129 232.960192 
L 219.099508 236.528921 
L 214.262264 239.849352 
L 209.257657 242.912385 
L 204.099403 245.709622 
L 198.801641 248.233398 
L 193.378891 250.476795 
L 187.846017 252.433664 
L 182.218184 254.098641 
L 176.510818 255.467163 
L 170.739562 256.535478 
L 164.920235 257.300659 
L 159.068786 257.760608 
L 153.201256 257.914065 
L 147.333725 257.760608 
L 141.482277 257.300659 
L 135.662949 256.535478 
L 129.891693 255.467163 
L 124.184327 254.098641 
L 118.556494 252.433664 
L 113.02362 250.476795 
L 107.600871 248.233398 
L 102.303108 245.709622 
L 97.144854 242.912385 
L 92.140247 239.849352 
L 87.303003 236.528921 
L 82.646383 232.960192 
L 78.183148 229.152947 
L 73.925532 225.11762 
L 69.885206 220.865274 
L 66.073244 216.407562 
L 62.500093 211.756704 
L 59.175547 206.925447 
L 56.10872 201.927032 
L 53.308017 196.775162 
L 50.781114 191.483955 
L 48.534937 186.067916 
L 46.575644 180.541889 
L 44.908604 174.92102 
L 43.538386 169.220717 
L 42.468747 163.456603 
L 41.702618 157.644477 
L 41.242099 151.80027 
L 41.088453 145.94 
L 41.242099 140.07973 
L 41.702618 134.235523 
L 42.468747 128.423397 
L 43.538386 122.659283 
L 44.908604 116.95898 
L 46.575644 111.338111 
L 48.534937 105.812084 
L 50.781114 100.396045 
L 53.308017 95.104838 
L 56.10872 89.952968 
L 59.175547 84.954553 
L 62.500093 80.123296 
L 66.073244 75.472438 
L 69.885206 71.014726 
L 73.925532 66.76238 
L 78.183148 62.727053 
L 82.646383 58.919808 
L 87.303003 55.351079 
L 92.140247 52.030648 
L 97.144854 48.967615 
L 102.303108 46.170378 
L 107.600871 43.646602 
L 113.02362 41.403205 
L 118.556494 39.446336 
L 124.184327 37.781359 
L 129.891693 36.412837 
L 135.662949 35.344522 
L 141.482277 34.579341 
L 147.333725 34.119392 
L 153.201256 33.965935 
L 153.201256 33.965935 
" style="fill:none;stroke:#000000;stroke-linecap:square;"/>
   </g>
   <g id="line2d_2">
    <defs>
     <path d="M -3 0 
L 3 0 
M 0 3 
L 0 -3 
" id="m85a80832b0" style="stroke:#000000;stroke-width:0.5;"/>
    </defs>
    <g clip-path="url(#pc3d3922a68)">
     <use style="stroke:#000000;stroke-width:0.5;" x="153.201255656" xlink:href="#m85a80832b0" y="44.1512132669"/>
     <use style="stroke:#000000;stroke-width:0.5;" x="153.201255656" xlink:href="#m85a80832b0" y="55.1111652884"/>
     <use style="stroke:#000000;stroke-width:0.5;" x="153.201255656" xlink:href="#m85a80832b0" y="66.762379586"/>
     <use style="stroke:#000000;stroke-width:0.5;" x="153.201255656" xlink:href="#m85a80832b0" y="79.0161833838"/>
     <use style="stroke:#000000;stroke-width:0.5;" x="153.201255656" xlink:href="#m85a80832b0" y="91.7793178357"/>
     <use style="stroke:#000000;stroke-width:0.5;" x="153.201255656" xlink:href="#m85a80832b0" y="104.954647782"/>
     <use style="stroke:#000000;stroke-width:0.5;" x="153.201255656" xlink:href="#m85a80832b0" y="118.441901006"/>
     <use style="stroke:#000000;stroke-width:0.5;" x="153.201255656" xlink:href="#m85a80832b0" y="132.138431368"/>
     <use style="stroke:#000000;stroke-width:0.5;" x="153.201255656" xlink:href="#m85a80832b0" y="145.94"/>
    </g>
   </g>
   <g id="line2d_3">
    <g clip-path="url(#pc3d3922a68)">
     <use style="stroke:#000000;stroke-width:0.5;" x="255.11616098" xlink:href="#m85a80832b0" y="145.94"/>
     <use style="stroke:#000000;stroke-width:0.5;" x="244.142629332" xlink:href="#m85a80832b0" y="145.94"/>
     <use style="stroke:#000000;stroke-width:0.5;" x="232.476978919" xlink:href="#m85a80832b0" y="145.94"/>
     <use style="stroke:#000000;stroke-width:0.5;" x="220.207992383" xlink:href="#m85a80832b0" y="145.94"/>
     <use style="stroke:#000000;stroke-width:0.5;" x="207.429044121" xlink:href="#m85a80832b0" y="145.94"/>
     <use style="stroke:#000000;stroke-width:0.5;" x="194.237389645" xlink:href="#m85a80832b0" y="145.94"/>
     <use style="stroke:#000000;stroke-width:0.5;" x="180.733425411" xlink:href="#m85a80832b0" y="145.94"/>
     <use style="stroke:#000000;stroke-width:0.5;" x="167.019924741" xlink:href="#m85a80832b0" y="145.94"/>
    </g>
   </g>
   <g id="line2d_4">
    <g clip-path="url(#pc3d3922a68)">
     <use style="stroke:#000000;stroke-width:0.5;" x="153.201255656" xlink:href="#m85a80832b0" y="247.728786733"/>
     <use style="stroke:#000000;stroke-width:0.5;" x="153.201255656" xlink:href="#m85a80832b0" y="236.768834712"/>
     <use style="stroke:#000000;stroke-width:0.5;" x="153.201255656" xlink:href="#m85a80832b0" y="225.117620414"/>
     <use style="stroke:#000000;stroke-width:0.5;" x="153.201255656" xlink:href="#m85a80832b0" y="212.863816616"/>
     <use style="stroke:#000000;stroke-width:0.5;" x="153.201255656" xlink:href="#m85a80832b0" y="200.100682164"/>
     <use style="stroke:#000000;stroke-width:0.5;" x="153.201255656" xlink:href="#m85a80832b0" y="186.925352218"/>
     <use style="stroke:#000000;stroke-width:0.5;" x="153.201255656" xlink:href="#m85a80832b0" y="173.438098994"/>
     <use style="stroke:#000000;stroke-width:0.5;" x="153.201255656" xlink:href="#m85a80832b0" y="159.741568632"/>
    </g>
   </g>
   <g id="line2d_5">
    <g clip-path="url(#pc3d3922a68)">
     <use style="stroke:#000000;stroke-width:0.5;" x="51.2863503309" xlink:href="#m85a80832b0" y="145.94"/>
     <use style="stroke:#000000;stroke-width:0.5;" x="62.259881979" xlink:href="#m85a80832b0" y="145.94"/>
     <use style="stroke:#000000;stroke-width:0.5;" x="73.9255323927" xlink:href="#m85a80832b0" y="145.94"/>
     <use style="stroke:#000000;stroke-width:0.5;" x="86.1945189284" xlink:href="#m85a80832b0" y="145.94"/>
     <use style="stroke:#000000;stroke-width:0.5;" x="98.9734671904" xlink:href="#m85a80832b0" y="145.94"/>
     <use style="stroke:#000000;stroke-width:0.5;" x="112.165121666" xlink:href="#m85a80832b0" y="145.94"/>
     <use style="stroke:#000000;stroke-width:0.5;" x="125.6690859" xlink:href="#m85a80832b0" y="145.94"/>
     <use style="stroke:#000000;stroke-width:0.5;" x="139.38258657" xlink:href="#m85a80832b0" y="145.94"/>
    </g>
   </g>
   <g id="line2d_6">
    <path clip-path="url(#pc3d3922a68)" d="M 153.201256 33.965935 
L 153.201256 34.947345 
L 153.201256 35.937206 
L 153.201256 36.935445 
" style="fill:none;stroke:#000000;stroke-linecap:square;"/>
   </g>
   <g id="line2d_7">
    <path clip-path="url(#pc3d3922a68)" d="M 172.66944 35.667073 
L 172.498809 36.633572 
L 172.326708 37.608396 
L 172.153151 38.59147 
" style="fill:none;stroke:#000000;stroke-linecap:square;"/>
   </g>
   <g id="line2d_8">
    <path clip-path="url(#pc3d3922a68)" d="M 191.546093 40.718798 
L 191.210015 41.641021 
L 190.871043 42.571187 
L 190.529202 43.509224 
" style="fill:none;stroke:#000000;stroke-linecap:square;"/>
   </g>
   <g id="line2d_9">
    <path clip-path="url(#pc3d3922a68)" d="M 209.257657 48.967615 
L 208.766345 49.817541 
L 208.2708 50.674786 
L 207.771063 51.539287 
" style="fill:none;stroke:#000000;stroke-linecap:square;"/>
   </g>
   <g id="line2d_10">
    <path clip-path="url(#pc3d3922a68)" d="M 225.265976 60.16289 
L 224.634357 60.914693 
L 223.997298 61.672971 
L 223.354847 62.437667 
" style="fill:none;stroke:#000000;stroke-linecap:square;"/>
   </g>
   <g id="line2d_11">
    <path clip-path="url(#pc3d3922a68)" d="M 239.084645 73.964459 
L 238.331911 74.595296 
L 237.572693 75.231567 
L 236.80705 75.873223 
" style="fill:none;stroke:#000000;stroke-linecap:square;"/>
   </g>
   <g id="line2d_12">
    <path clip-path="url(#pc3d3922a68)" d="M 250.293791 89.952968 
L 249.442813 90.443672 
L 248.584505 90.938603 
L 247.718934 91.437723 
" style="fill:none;stroke:#000000;stroke-linecap:square;"/>
   </g>
   <g id="line2d_13">
    <path clip-path="url(#pc3d3922a68)" d="M 258.552829 107.642614 
L 257.629464 107.978276 
L 256.698145 108.316829 
L 255.758945 108.658247 
" style="fill:none;stroke:#000000;stroke-linecap:square;"/>
   </g>
   <g id="line2d_14">
    <path clip-path="url(#pc3d3922a68)" d="M 263.610813 126.495908 
L 262.643116 126.666328 
L 261.667085 126.838215 
L 260.682793 127.011558 
" style="fill:none;stroke:#000000;stroke-linecap:square;"/>
   </g>
   <g id="line2d_15">
    <path clip-path="url(#pc3d3922a68)" d="M 265.314059 145.94 
L 264.331433 145.94 
L 263.340345 145.94 
L 262.340869 145.94 
" style="fill:none;stroke:#000000;stroke-linecap:square;"/>
   </g>
   <g id="line2d_16">
    <path clip-path="url(#pc3d3922a68)" d="M 263.610813 165.384092 
L 262.643116 165.213672 
L 261.667085 165.041785 
L 260.682793 164.868442 
" style="fill:none;stroke:#000000;stroke-linecap:square;"/>
   </g>
   <g id="line2d_17">
    <path clip-path="url(#pc3d3922a68)" d="M 258.552829 184.237386 
L 257.629464 183.901724 
L 256.698145 183.563171 
L 255.758945 183.221753 
" style="fill:none;stroke:#000000;stroke-linecap:square;"/>
   </g>
   <g id="line2d_18">
    <path clip-path="url(#pc3d3922a68)" d="M 250.293791 201.927032 
L 249.442813 201.436328 
L 248.584505 200.941397 
L 247.718934 200.442277 
" style="fill:none;stroke:#000000;stroke-linecap:square;"/>
   </g>
   <g id="line2d_19">
    <path clip-path="url(#pc3d3922a68)" d="M 239.084645 217.915541 
L 238.331911 217.284704 
L 237.572693 216.648433 
L 236.80705 216.006777 
" style="fill:none;stroke:#000000;stroke-linecap:square;"/>
   </g>
   <g id="line2d_20">
    <path clip-path="url(#pc3d3922a68)" d="M 225.265976 231.71711 
L 224.634357 230.965307 
L 223.997298 230.207029 
L 223.354847 229.442333 
" style="fill:none;stroke:#000000;stroke-linecap:square;"/>
   </g>
   <g id="line2d_21">
    <path clip-path="url(#pc3d3922a68)" d="M 209.257657 242.912385 
L 208.766345 242.062459 
L 208.2708 241.205214 
L 207.771063 240.340713 
" style="fill:none;stroke:#000000;stroke-linecap:square;"/>
   </g>
   <g id="line2d_22">
    <path clip-path="url(#pc3d3922a68)" d="M 191.546093 251.161202 
L 191.210015 250.238979 
L 190.871043 249.308813 
L 190.529202 248.370776 
" style="fill:none;stroke:#000000;stroke-linecap:square;"/>
   </g>
   <g id="line2d_23">
    <path clip-path="url(#pc3d3922a68)" d="M 172.66944 256.212927 
L 172.498809 255.246428 
L 172.326708 254.271604 
L 172.153151 253.28853 
" style="fill:none;stroke:#000000;stroke-linecap:square;"/>
   </g>
   <g id="line2d_24">
    <path clip-path="url(#pc3d3922a68)" d="M 153.201256 257.914065 
L 153.201256 256.932655 
L 153.201256 255.942794 
L 153.201256 254.944555 
" style="fill:none;stroke:#000000;stroke-linecap:square;"/>
   </g>
   <g id="line2d_25">
    <path clip-path="url(#pc3d3922a68)" d="M 133.733072 256.212927 
L 133.903703 255.246428 
L 134.075803 254.271604 
L 134.249361 253.28853 
" style="fill:none;stroke:#000000;stroke-linecap:square;"/>
   </g>
   <g id="line2d_26">
    <path clip-path="url(#pc3d3922a68)" d="M 114.856419 251.161202 
L 115.192496 250.238979 
L 115.531468 249.308813 
L 115.873309 248.370776 
" style="fill:none;stroke:#000000;stroke-linecap:square;"/>
   </g>
   <g id="line2d_27">
    <path clip-path="url(#pc3d3922a68)" d="M 97.144854 242.912385 
L 97.636167 242.062459 
L 98.131711 241.205214 
L 98.631449 240.340713 
" style="fill:none;stroke:#000000;stroke-linecap:square;"/>
   </g>
   <g id="line2d_28">
    <path clip-path="url(#pc3d3922a68)" d="M 81.136535 231.71711 
L 81.768154 230.965307 
L 82.405214 230.207029 
L 83.047664 229.442333 
" style="fill:none;stroke:#000000;stroke-linecap:square;"/>
   </g>
   <g id="line2d_29">
    <path clip-path="url(#pc3d3922a68)" d="M 67.317866 217.915541 
L 68.070601 217.284704 
L 68.829818 216.648433 
L 69.595461 216.006777 
" style="fill:none;stroke:#000000;stroke-linecap:square;"/>
   </g>
   <g id="line2d_30">
    <path clip-path="url(#pc3d3922a68)" d="M 56.10872 201.927032 
L 56.959699 201.436328 
L 57.818006 200.941397 
L 58.683578 200.442277 
" style="fill:none;stroke:#000000;stroke-linecap:square;"/>
   </g>
   <g id="line2d_31">
    <path clip-path="url(#pc3d3922a68)" d="M 47.849682 184.237386 
L 48.773048 183.901724 
L 49.704366 183.563171 
L 50.643566 183.221753 
" style="fill:none;stroke:#000000;stroke-linecap:square;"/>
   </g>
   <g id="line2d_32">
    <path clip-path="url(#pc3d3922a68)" d="M 42.791698 165.384092 
L 43.759395 165.213672 
L 44.735426 165.041785 
L 45.719718 164.868442 
" style="fill:none;stroke:#000000;stroke-linecap:square;"/>
   </g>
   <g id="line2d_33">
    <path clip-path="url(#pc3d3922a68)" d="M 41.088453 145.94 
L 42.071078 145.94 
L 43.062166 145.94 
L 44.061642 145.94 
" style="fill:none;stroke:#000000;stroke-linecap:square;"/>
   </g>
   <g id="line2d_34">
    <path clip-path="url(#pc3d3922a68)" d="M 42.791698 126.495908 
L 43.759395 126.666328 
L 44.735426 126.838215 
L 45.719718 127.011558 
" style="fill:none;stroke:#000000;stroke-linecap:square;"/>
   </g>
   <g id="line2d_35">
    <path clip-path="url(#pc3d3922a68)" d="M 47.849682 107.642614 
L 48.773048 107.978276 
L 49.704366 108.316829 
L 50.643566 108.658247 
" style="fill:none;stroke:#000000;stroke-linecap:square;"/>
   </g>
   <g id="line2d_36">
    <path clip-path="url(#pc3d3922a68)" d="M 56.10872 89.952968 
L 56.959699 90.443672 
L 57.818006 90.938603 
L 58.683578 91.437723 
" style="fill:none;stroke:#000000;stroke-linecap:square;"/>
   </g>
   <g id="line2d_37">
    <path clip-path="url(#pc3d3922a68)" d="M 67.317866 73.964459 
L 68.070601 74.595296 
L 68.829818 75.231567 
L 69.595461 75.873223 
" style="fill:none;stroke:#000000;stroke-linecap:square;"/>
   </g>
   <g id="line2d_38">
    <path clip-path="url(#pc3d3922a68)" d="M 81.136535 60.16289 
L 81.768154 60.914693 
L 82.405214 61.672971 
L 83.047664 62.437667 
" style="fill:none;stroke:#000000;stroke-linecap:square;"/>
   </g>
   <g id="line2d_39">
    <path clip-path="url(#pc3d3922a68)" d="M 97.144854 48.967615 
L 97.636167 49.817541 
L 98.131711 50.674786 
L 98.631449 51.539287 
" style="fill:none;stroke:#000000;stroke-linecap:square;"/>
   </g>
   <g id="line2d_40">
    <path clip-path="url(#pc3d3922a68)" d="M 114.856419 40.718798 
L 115.192496 41.641021 
L 115.531468 42.571187 
L 115.873309 43.509224 
" style="fill:none;stroke:#000000;stroke-linecap:square;"/>
   </g>
   <g id="line2d_41">
    <path clip-path="url(#pc3d3922a68)" d="M 133.733072 35.667073 
L 133.903703 36.633572 
L 134.075803 37.608396 
L 134.249361 38.59147 
" style="fill:none;stroke:#000000;stroke-linecap:square;"/>
   </g>
   <g id="line2d_42">
    <path clip-path="url(#pc3d3922a68)" d="M 97.966475 120.210621 
L 97.036055 120.062661 
L 96.094001 119.982692 
L 95.143983 119.971567 
L 94.189767 120.029874 
L 93.235198 120.157922 
L 92.284189 120.355731 
L 91.340702 120.623026 
L 90.408731 120.959225 
L 89.492282 121.363437 
L 88.595353 121.834453 
L 87.721914 122.370747 
L 86.875883 122.970473 
L 86.061102 123.631468 
L 85.281319 124.351254 
L 84.540155 125.127047 
L 83.84109 125.955765 
L 83.187431 126.834037 
L 82.582296 127.758221 
L 82.028586 128.724418 
L 81.528969 129.728493 
L 81.085855 130.766095 
L 80.701383 131.832682 
L 80.377403 132.923546 
L 80.115461 134.033842 
L 79.91679 135.158614 
L 79.782301 136.292829 
L 79.712576 137.431403 
L 79.707864 138.569237 
L 79.768083 139.701246 
L 79.892822 140.822388 
L 80.081343 141.9277 
L 80.332595 143.01232 
L 80.645217 144.071522 
L 81.017556 145.100736 
L 81.44768 146.095576 
L 81.933394 147.051864 
L 82.472256 147.965646 
L 83.061601 148.833211 
L 83.698559 149.65111 
L 84.380073 150.416164 
L 85.102925 151.125477 
L 85.863754 151.776445 
L 86.659082 152.366759 
L 87.485329 152.894412 
L 88.338838 153.357696 
L 89.215897 153.755207 
L 90.112752 154.085838 
L 91.025632 154.348777 
L 91.950761 154.543502 
L 92.88438 154.669774 
L 93.822758 154.727629 
L 94.762207 154.71737 
L 95.699097 154.639557 
L 96.629865 154.494998 
L 97.55103 154.284736 
L 98.459199 154.010043 
L 99.351076 153.672405 
L 100.223474 153.27351 
L 101.073316 152.815241 
L 101.897648 152.299663 
L 102.693636 151.729011 
L 103.45858 151.105679 
L 104.189911 150.432211 
L 104.885199 149.71129 
L 105.542153 148.945728 
L 106.158626 148.138455 
L 106.732618 147.29251 
L 107.262274 146.411032 
L 107.745891 145.49725 
L 108.181916 144.554474 
L 108.56895 143.586089 
L 108.905747 142.595541 
L 109.191217 141.586335 
L 109.424426 140.562022 
L 109.6046 139.526194 
L 109.731121 138.482472 
L 109.803536 137.434504 
L 109.821548 136.38595 
L 109.785027 135.340481 
L 109.694004 134.301765 
L 109.548676 133.273463 
L 109.349408 132.259217 
L 109.09673 131.262644 
L 108.791342 130.287327 
L 108.434111 129.336806 
L 108.026076 128.414566 
L 107.568449 127.524032 
L 107.062609 126.668555 
L 106.51011 125.851405 
L 105.912676 125.075756 
L 105.272204 124.344681 
L 104.590758 123.661134 
L 103.870574 123.027943 
L 103.114053 122.447797 
L 102.323761 121.923232 
L 101.502422 121.456619 
L 100.65292 121.050152 
L 99.778287 120.705833 
L 98.881701 120.425463 
L 97.966475 120.210621 
" style="fill:none;stroke:#0000ff;stroke-linecap:square;"/>
   </g>
   <g id="legend_1">
    <g id="patch_2">
     <path d="M 70.798345 82.59 
L 227.48272 82.59 
L 227.48272 7.2 
L 70.798345 7.2 
z
" style="fill:#ffffff;stroke:#000000;stroke-linejoin:miter;"/>
    </g>
    <g id="PathCollection_6">
     <path d="M 79.198345 20.204193 
C 79.791358 20.204193 80.360161 19.968587 80.779484 19.549264 
C 81.198807 19.129941 81.434413 18.561137 81.434413 17.968125 
C 81.434413 17.375113 81.198807 16.806309 80.779484 16.386986 
C 80.360161 15.967663 79.791358 15.732057 79.198345 15.732057 
C 78.605333 15.732057 78.03653 15.967663 77.617207 16.386986 
C 77.197884 16.806309 76.962277 17.375113 76.962277 17.968125 
C 76.962277 18.561137 77.197884 19.129941 77.617207 19.549264 
C 78.03653 19.968587 78.605333 20.204193 79.198345 20.204193 
z
" style="fill:#008000;stroke:#008000;"/>
     <path d="M 87.598345 19.154193 
C 88.191358 19.154193 88.760161 18.918587 89.179484 18.499264 
C 89.598807 18.079941 89.834413 17.511137 89.834413 16.918125 
C 89.834413 16.325113 89.598807 15.756309 89.179484 15.336986 
C 88.760161 14.917663 88.191358 14.682057 87.598345 14.682057 
C 87.005333 14.682057 86.43653 14.917663 86.017207 15.336986 
C 85.597884 15.756309 85.362277 16.325113 85.362277 16.918125 
C 85.362277 17.511137 85.597884 18.079941 86.017207 18.499264 
C 86.43653 18.918587 87.005333 19.154193 87.598345 19.154193 
z
" style="fill:#008000;stroke:#008000;"/>
     <path d="M 95.998345 20.729193 
C 96.591358 20.729193 97.160161 20.493587 97.579484 20.074264 
C 97.998807 19.654941 98.234413 19.086137 98.234413 18.493125 
C 98.234413 17.900113 97.998807 17.331309 97.579484 16.911986 
C 97.160161 16.492663 96.591358 16.257057 95.998345 16.257057 
C 95.405333 16.257057 94.83653 16.492663 94.417207 16.911986 
C 93.997884 17.331309 93.762277 17.900113 93.762277 18.493125 
C 93.762277 19.086137 93.997884 19.654941 94.417207 20.074264 
C 94.83653 20.493587 95.405333 20.729193 95.998345 20.729193 
z
" style="fill:#008000;stroke:#008000;"/>
    </g>
    <g id="text_1">
     <!-- Z30_low_geo -->
     <defs>
      <path d="M 5.609375 72.90625 
L 62.890625 72.90625 
L 62.890625 65.375 
L 16.796875 8.296875 
L 64.015625 8.296875 
L 64.015625 0 
L 4.5 0 
L 4.5 7.515625 
L 50.59375 64.59375 
L 5.609375 64.59375 
z
" id="BitstreamVeraSans-Roman-5a"/>
      <path d="M 31.78125 66.40625 
Q 24.171875 66.40625 20.328125 58.90625 
Q 16.5 51.421875 16.5 36.375 
Q 16.5 21.390625 20.328125 13.890625 
Q 24.171875 6.390625 31.78125 6.390625 
Q 39.453125 6.390625 43.28125 13.890625 
Q 47.125 21.390625 47.125 36.375 
Q 47.125 51.421875 43.28125 58.90625 
Q 39.453125 66.40625 31.78125 66.40625 
M 31.78125 74.21875 
Q 44.046875 74.21875 50.515625 64.515625 
Q 56.984375 54.828125 56.984375 36.375 
Q 56.984375 17.96875 50.515625 8.265625 
Q 44.046875 -1.421875 31.78125 -1.421875 
Q 19.53125 -1.421875 13.0625 8.265625 
Q 6.59375 17.96875 6.59375 36.375 
Q 6.59375 54.828125 13.0625 64.515625 
Q 19.53125 74.21875 31.78125 74.21875 
" id="BitstreamVeraSans-Roman-30"/>
      <path d="M 50.984375 -16.609375 
L 50.984375 -23.578125 
L -0.984375 -23.578125 
L -0.984375 -16.609375 
z
" id="BitstreamVeraSans-Roman-5f"/>
      <path d="M 40.578125 39.3125 
Q 47.65625 37.796875 51.625 33 
Q 55.609375 28.21875 55.609375 21.1875 
Q 55.609375 10.40625 48.1875 4.484375 
Q 40.765625 -1.421875 27.09375 -1.421875 
Q 22.515625 -1.421875 17.65625 -0.515625 
Q 12.796875 0.390625 7.625 2.203125 
L 7.625 11.71875 
Q 11.71875 9.328125 16.59375 8.109375 
Q 21.484375 6.890625 26.8125 6.890625 
Q 36.078125 6.890625 40.9375 10.546875 
Q 45.796875 14.203125 45.796875 21.1875 
Q 45.796875 27.640625 41.28125 31.265625 
Q 36.765625 34.90625 28.71875 34.90625 
L 20.21875 34.90625 
L 20.21875 43.015625 
L 29.109375 43.015625 
Q 36.375 43.015625 40.234375 45.921875 
Q 44.09375 48.828125 44.09375 54.296875 
Q 44.09375 59.90625 40.109375 62.90625 
Q 36.140625 65.921875 28.71875 65.921875 
Q 24.65625 65.921875 20.015625 65.03125 
Q 15.375 64.15625 9.8125 62.3125 
L 9.8125 71.09375 
Q 15.4375 72.65625 20.34375 73.4375 
Q 25.25 74.21875 29.59375 74.21875 
Q 40.828125 74.21875 47.359375 69.109375 
Q 53.90625 64.015625 53.90625 55.328125 
Q 53.90625 49.265625 50.4375 45.09375 
Q 46.96875 40.921875 40.578125 39.3125 
" id="BitstreamVeraSans-Roman-33"/>
      <path d="M 30.609375 48.390625 
Q 23.390625 48.390625 19.1875 42.75 
Q 14.984375 37.109375 14.984375 27.296875 
Q 14.984375 17.484375 19.15625 11.84375 
Q 23.34375 6.203125 30.609375 6.203125 
Q 37.796875 6.203125 41.984375 11.859375 
Q 46.1875 17.53125 46.1875 27.296875 
Q 46.1875 37.015625 41.984375 42.703125 
Q 37.796875 48.390625 30.609375 48.390625 
M 30.609375 56 
Q 42.328125 56 49.015625 48.375 
Q 55.71875 40.765625 55.71875 27.296875 
Q 55.71875 13.875 49.015625 6.21875 
Q 42.328125 -1.421875 30.609375 -1.421875 
Q 18.84375 -1.421875 12.171875 6.21875 
Q 5.515625 13.875 5.515625 27.296875 
Q 5.515625 40.765625 12.171875 48.375 
Q 18.84375 56 30.609375 56 
" id="BitstreamVeraSans-Roman-6f"/>
      <path d="M 9.421875 75.984375 
L 18.40625 75.984375 
L 18.40625 0 
L 9.421875 0 
z
" id="BitstreamVeraSans-Roman-6c"/>
      <path d="M 56.203125 29.59375 
L 56.203125 25.203125 
L 14.890625 25.203125 
Q 15.484375 15.921875 20.484375 11.0625 
Q 25.484375 6.203125 34.421875 6.203125 
Q 39.59375 6.203125 44.453125 7.46875 
Q 49.3125 8.734375 54.109375 11.28125 
L 54.109375 2.78125 
Q 49.265625 0.734375 44.1875 -0.34375 
Q 39.109375 -1.421875 33.890625 -1.421875 
Q 20.796875 -1.421875 13.15625 6.1875 
Q 5.515625 13.8125 5.515625 26.8125 
Q 5.515625 40.234375 12.765625 48.109375 
Q 20.015625 56 32.328125 56 
Q 43.359375 56 49.78125 48.890625 
Q 56.203125 41.796875 56.203125 29.59375 
M 47.21875 32.234375 
Q 47.125 39.59375 43.09375 43.984375 
Q 39.0625 48.390625 32.421875 48.390625 
Q 24.90625 48.390625 20.390625 44.140625 
Q 15.875 39.890625 15.1875 32.171875 
z
" id="BitstreamVeraSans-Roman-65"/>
      <path d="M 4.203125 54.6875 
L 13.1875 54.6875 
L 24.421875 12.015625 
L 35.59375 54.6875 
L 46.1875 54.6875 
L 57.421875 12.015625 
L 68.609375 54.6875 
L 77.59375 54.6875 
L 63.28125 0 
L 52.6875 0 
L 40.921875 44.828125 
L 29.109375 0 
L 18.5 0 
z
" id="BitstreamVeraSans-Roman-77"/>
      <path d="M 45.40625 27.984375 
Q 45.40625 37.75 41.375 43.109375 
Q 37.359375 48.484375 30.078125 48.484375 
Q 22.859375 48.484375 18.828125 43.109375 
Q 14.796875 37.75 14.796875 27.984375 
Q 14.796875 18.265625 18.828125 12.890625 
Q 22.859375 7.515625 30.078125 7.515625 
Q 37.359375 7.515625 41.375 12.890625 
Q 45.40625 18.265625 45.40625 27.984375 
M 54.390625 6.78125 
Q 54.390625 -7.171875 48.1875 -13.984375 
Q 42 -20.796875 29.203125 -20.796875 
Q 24.46875 -20.796875 20.265625 -20.09375 
Q 16.0625 -19.390625 12.109375 -17.921875 
L 12.109375 -9.1875 
Q 16.0625 -11.328125 19.921875 -12.34375 
Q 23.78125 -13.375 27.78125 -13.375 
Q 36.625 -13.375 41.015625 -8.765625 
Q 45.40625 -4.15625 45.40625 5.171875 
L 45.40625 9.625 
Q 42.625 4.78125 38.28125 2.390625 
Q 33.9375 0 27.875 0 
Q 17.828125 0 11.671875 7.65625 
Q 5.515625 15.328125 5.515625 27.984375 
Q 5.515625 40.671875 11.671875 48.328125 
Q 17.828125 56 27.875 56 
Q 33.9375 56 38.28125 53.609375 
Q 42.625 51.21875 45.40625 46.390625 
L 45.40625 54.6875 
L 54.390625 54.6875 
z
" id="BitstreamVeraSans-Roman-67"/>
     </defs>
     <g transform="translate(109.198345447 21.118125)scale(0.12 -0.12)">
      <use xlink:href="#BitstreamVeraSans-Roman-5a"/>
      <use x="68.505859375" xlink:href="#BitstreamVeraSans-Roman-33"/>
      <use x="132.12890625" xlink:href="#BitstreamVeraSans-Roman-30"/>
      <use x="195.751953125" xlink:href="#BitstreamVeraSans-Roman-5f"/>
      <use x="245.751953125" xlink:href="#BitstreamVeraSans-Roman-6c"/>
      <use x="273.53515625" xlink:href="#BitstreamVeraSans-Roman-6f"/>
      <use x="334.716796875" xlink:href="#BitstreamVeraSans-Roman-77"/>
      <use x="416.50390625" xlink:href="#BitstreamVeraSans-Roman-5f"/>
      <use x="466.50390625" xlink:href="#BitstreamVeraSans-Roman-67"/>
      <use x="529.98046875" xlink:href="#BitstreamVeraSans-Roman-65"/>
      <use x="591.50390625" xlink:href="#BitstreamVeraSans-Roman-6f"/>
     </g>
    </g>
    <g id="PathCollection_7">
     <path d="M 79.198345 38.151693 
C 79.791358 38.151693 80.360161 37.916087 80.779484 37.496764 
C 81.198807 37.077441 81.434413 36.508637 81.434413 35.915625 
C 81.434413 35.322613 81.198807 34.753809 80.779484 34.334486 
C 80.360161 33.915163 79.791358 33.679557 79.198345 33.679557 
C 78.605333 33.679557 78.03653 33.915163 77.617207 34.334486 
C 77.197884 34.753809 76.962277 35.322613 76.962277 35.915625 
C 76.962277 36.508637 77.197884 37.077441 77.617207 37.496764 
C 78.03653 37.916087 78.605333 38.151693 79.198345 38.151693 
L 79.198345 38.151693 
z
" style="fill:none;stroke:#ff0000;"/>
     <path d="M 87.598345 37.101693 
C 88.191358 37.101693 88.760161 36.866087 89.179484 36.446764 
C 89.598807 36.027441 89.834413 35.458637 89.834413 34.865625 
C 89.834413 34.272613 89.598807 33.703809 89.179484 33.284486 
C 88.760161 32.865163 88.191358 32.629557 87.598345 32.629557 
C 87.005333 32.629557 86.43653 32.865163 86.017207 33.284486 
C 85.597884 33.703809 85.362277 34.272613 85.362277 34.865625 
C 85.362277 35.458637 85.597884 36.027441 86.017207 36.446764 
C 86.43653 36.866087 87.005333 37.101693 87.598345 37.101693 
L 87.598345 37.101693 
z
" style="fill:none;stroke:#ff0000;"/>
     <path d="M 95.998345 38.676693 
C 96.591358 38.676693 97.160161 38.441087 97.579484 38.021764 
C 97.998807 37.602441 98.234413 37.033637 98.234413 36.440625 
C 98.234413 35.847613 97.998807 35.278809 97.579484 34.859486 
C 97.160161 34.440163 96.591358 34.204557 95.998345 34.204557 
C 95.405333 34.204557 94.83653 34.440163 94.417207 34.859486 
C 93.997884 35.278809 93.762277 35.847613 93.762277 36.440625 
C 93.762277 37.033637 93.997884 37.602441 94.417207 38.021764 
C 94.83653 38.441087 95.405333 38.676693 95.998345 38.676693 
L 95.998345 38.676693 
z
" style="fill:none;stroke:#ff0000;"/>
    </g>
    <g id="text_2">
     <!-- Z30_hem_tc -->
     <defs>
      <path d="M 52 44.1875 
Q 55.375 50.25 60.0625 53.125 
Q 64.75 56 71.09375 56 
Q 79.640625 56 84.28125 50.015625 
Q 88.921875 44.046875 88.921875 33.015625 
L 88.921875 0 
L 79.890625 0 
L 79.890625 32.71875 
Q 79.890625 40.578125 77.09375 44.375 
Q 74.3125 48.1875 68.609375 48.1875 
Q 61.625 48.1875 57.5625 43.546875 
Q 53.515625 38.921875 53.515625 30.90625 
L 53.515625 0 
L 44.484375 0 
L 44.484375 32.71875 
Q 44.484375 40.625 41.703125 44.40625 
Q 38.921875 48.1875 33.109375 48.1875 
Q 26.21875 48.1875 22.15625 43.53125 
Q 18.109375 38.875 18.109375 30.90625 
L 18.109375 0 
L 9.078125 0 
L 9.078125 54.6875 
L 18.109375 54.6875 
L 18.109375 46.1875 
Q 21.1875 51.21875 25.484375 53.609375 
Q 29.78125 56 35.6875 56 
Q 41.65625 56 45.828125 52.96875 
Q 50 49.953125 52 44.1875 
" id="BitstreamVeraSans-Roman-6d"/>
      <path d="M 18.3125 70.21875 
L 18.3125 54.6875 
L 36.8125 54.6875 
L 36.8125 47.703125 
L 18.3125 47.703125 
L 18.3125 18.015625 
Q 18.3125 11.328125 20.140625 9.421875 
Q 21.96875 7.515625 27.59375 7.515625 
L 36.8125 7.515625 
L 36.8125 0 
L 27.59375 0 
Q 17.1875 0 13.234375 3.875 
Q 9.28125 7.765625 9.28125 18.015625 
L 9.28125 47.703125 
L 2.6875 47.703125 
L 2.6875 54.6875 
L 9.28125 54.6875 
L 9.28125 70.21875 
z
" id="BitstreamVeraSans-Roman-74"/>
      <path d="M 54.890625 33.015625 
L 54.890625 0 
L 45.90625 0 
L 45.90625 32.71875 
Q 45.90625 40.484375 42.875 44.328125 
Q 39.84375 48.1875 33.796875 48.1875 
Q 26.515625 48.1875 22.3125 43.546875 
Q 18.109375 38.921875 18.109375 30.90625 
L 18.109375 0 
L 9.078125 0 
L 9.078125 75.984375 
L 18.109375 75.984375 
L 18.109375 46.1875 
Q 21.34375 51.125 25.703125 53.5625 
Q 30.078125 56 35.796875 56 
Q 45.21875 56 50.046875 50.171875 
Q 54.890625 44.34375 54.890625 33.015625 
" id="BitstreamVeraSans-Roman-68"/>
      <path d="M 48.78125 52.59375 
L 48.78125 44.1875 
Q 44.96875 46.296875 41.140625 47.34375 
Q 37.3125 48.390625 33.40625 48.390625 
Q 24.65625 48.390625 19.8125 42.84375 
Q 14.984375 37.3125 14.984375 27.296875 
Q 14.984375 17.28125 19.8125 11.734375 
Q 24.65625 6.203125 33.40625 6.203125 
Q 37.3125 6.203125 41.140625 7.25 
Q 44.96875 8.296875 48.78125 10.40625 
L 48.78125 2.09375 
Q 45.015625 0.34375 40.984375 -0.53125 
Q 36.96875 -1.421875 32.421875 -1.421875 
Q 20.0625 -1.421875 12.78125 6.34375 
Q 5.515625 14.109375 5.515625 27.296875 
Q 5.515625 40.671875 12.859375 48.328125 
Q 20.21875 56 33.015625 56 
Q 37.15625 56 41.109375 55.140625 
Q 45.0625 54.296875 48.78125 52.59375 
" id="BitstreamVeraSans-Roman-63"/>
     </defs>
     <g transform="translate(109.198345447 39.065625)scale(0.12 -0.12)">
      <use xlink:href="#BitstreamVeraSans-Roman-5a"/>
      <use x="68.505859375" xlink:href="#BitstreamVeraSans-Roman-33"/>
      <use x="132.12890625" xlink:href="#BitstreamVeraSans-Roman-30"/>
      <use x="195.751953125" xlink:href="#BitstreamVeraSans-Roman-5f"/>
      <use x="245.751953125" xlink:href="#BitstreamVeraSans-Roman-68"/>
      <use x="309.130859375" xlink:href="#BitstreamVeraSans-Roman-65"/>
      <use x="370.654296875" xlink:href="#BitstreamVeraSans-Roman-6d"/>
      <use x="468.06640625" xlink:href="#BitstreamVeraSans-Roman-5f"/>
      <use x="518.06640625" xlink:href="#BitstreamVeraSans-Roman-74"/>
      <use x="557.275390625" xlink:href="#BitstreamVeraSans-Roman-63"/>
     </g>
    </g>
    <g id="PathCollection_8">
     <path d="M 79.198345 56.099193 
C 79.791358 56.099193 80.360161 55.863587 80.779484 55.444264 
C 81.198807 55.024941 81.434413 54.456137 81.434413 53.863125 
C 81.434413 53.270113 81.198807 52.701309 80.779484 52.281986 
C 80.360161 51.862663 79.791358 51.627057 79.198345 51.627057 
C 78.605333 51.627057 78.03653 51.862663 77.617207 52.281986 
C 77.197884 52.701309 76.962277 53.270113 76.962277 53.863125 
C 76.962277 54.456137 77.197884 55.024941 77.617207 55.444264 
C 78.03653 55.863587 78.605333 56.099193 79.198345 56.099193 
z
" style="fill:#ff0000;stroke:#ff0000;"/>
     <path d="M 87.598345 55.049193 
C 88.191358 55.049193 88.760161 54.813587 89.179484 54.394264 
C 89.598807 53.974941 89.834413 53.406137 89.834413 52.813125 
C 89.834413 52.220113 89.598807 51.651309 89.179484 51.231986 
C 88.760161 50.812663 88.191358 50.577057 87.598345 50.577057 
C 87.005333 50.577057 86.43653 50.812663 86.017207 51.231986 
C 85.597884 51.651309 85.362277 52.220113 85.362277 52.813125 
C 85.362277 53.406137 85.597884 53.974941 86.017207 54.394264 
C 86.43653 54.813587 87.005333 55.049193 87.598345 55.049193 
z
" style="fill:#ff0000;stroke:#ff0000;"/>
     <path d="M 95.998345 56.624193 
C 96.591358 56.624193 97.160161 56.388587 97.579484 55.969264 
C 97.998807 55.549941 98.234413 54.981137 98.234413 54.388125 
C 98.234413 53.795113 97.998807 53.226309 97.579484 52.806986 
C 97.160161 52.387663 96.591358 52.152057 95.998345 52.152057 
C 95.405333 52.152057 94.83653 52.387663 94.417207 52.806986 
C 93.997884 53.226309 93.762277 53.795113 93.762277 54.388125 
C 93.762277 54.981137 93.997884 55.549941 94.417207 55.969264 
C 94.83653 56.388587 95.405333 56.624193 95.998345 56.624193 
z
" style="fill:#ff0000;stroke:#ff0000;"/>
    </g>
    <g id="text_3">
     <!-- Z30_hem_tc -->
     <g transform="translate(109.198345447 57.013125)scale(0.12 -0.12)">
      <use xlink:href="#BitstreamVeraSans-Roman-5a"/>
      <use x="68.505859375" xlink:href="#BitstreamVeraSans-Roman-33"/>
      <use x="132.12890625" xlink:href="#BitstreamVeraSans-Roman-30"/>
      <use x="195.751953125" xlink:href="#BitstreamVeraSans-Roman-5f"/>
      <use x="245.751953125" xlink:href="#BitstreamVeraSans-Roman-68"/>
      <use x="309.130859375" xlink:href="#BitstreamVeraSans-Roman-65"/>
      <use x="370.654296875" xlink:href="#BitstreamVeraSans-Roman-6d"/>
      <use x="468.06640625" xlink:href="#BitstreamVeraSans-Roman-5f"/>
      <use x="518.06640625" xlink:href="#BitstreamVeraSans-Roman-74"/>
      <use x="557.275390625" xlink:href="#BitstreamVeraSans-Roman-63"/>
     </g>
    </g>
    <g id="PathCollection_9">
     <path d="M 76.962277 74.046693 
L 81.434413 74.046693 
L 81.434413 69.574557 
L 76.962277 69.574557 
z
" style="fill:#ffffff;stroke:#0000ff;"/>
     <path d="M 85.362277 72.996693 
L 89.834413 72.996693 
L 89.834413 68.524557 
L 85.362277 68.524557 
z
" style="fill:#ffffff;stroke:#0000ff;"/>
     <path d="M 93.762277 74.571693 
L 98.234413 74.571693 
L 98.234413 70.099557 
L 93.762277 70.099557 
z
" style="fill:#ffffff;stroke:#0000ff;"/>
    </g>
    <g id="text_4">
     <!-- Z30_mag_tc_mean -->
     <defs>
      <path d="M 54.890625 33.015625 
L 54.890625 0 
L 45.90625 0 
L 45.90625 32.71875 
Q 45.90625 40.484375 42.875 44.328125 
Q 39.84375 48.1875 33.796875 48.1875 
Q 26.515625 48.1875 22.3125 43.546875 
Q 18.109375 38.921875 18.109375 30.90625 
L 18.109375 0 
L 9.078125 0 
L 9.078125 54.6875 
L 18.109375 54.6875 
L 18.109375 46.1875 
Q 21.34375 51.125 25.703125 53.5625 
Q 30.078125 56 35.796875 56 
Q 45.21875 56 50.046875 50.171875 
Q 54.890625 44.34375 54.890625 33.015625 
" id="BitstreamVeraSans-Roman-6e"/>
      <path d="M 34.28125 27.484375 
Q 23.390625 27.484375 19.1875 25 
Q 14.984375 22.515625 14.984375 16.5 
Q 14.984375 11.71875 18.140625 8.90625 
Q 21.296875 6.109375 26.703125 6.109375 
Q 34.1875 6.109375 38.703125 11.40625 
Q 43.21875 16.703125 43.21875 25.484375 
L 43.21875 27.484375 
z
M 52.203125 31.203125 
L 52.203125 0 
L 43.21875 0 
L 43.21875 8.296875 
Q 40.140625 3.328125 35.546875 0.953125 
Q 30.953125 -1.421875 24.3125 -1.421875 
Q 15.921875 -1.421875 10.953125 3.296875 
Q 6 8.015625 6 15.921875 
Q 6 25.140625 12.171875 29.828125 
Q 18.359375 34.515625 30.609375 34.515625 
L 43.21875 34.515625 
L 43.21875 35.40625 
Q 43.21875 41.609375 39.140625 45 
Q 35.0625 48.390625 27.6875 48.390625 
Q 23 48.390625 18.546875 47.265625 
Q 14.109375 46.140625 10.015625 43.890625 
L 10.015625 52.203125 
Q 14.9375 54.109375 19.578125 55.046875 
Q 24.21875 56 28.609375 56 
Q 40.484375 56 46.34375 49.84375 
Q 52.203125 43.703125 52.203125 31.203125 
" id="BitstreamVeraSans-Roman-61"/>
     </defs>
     <g transform="translate(109.198345447 74.960625)scale(0.12 -0.12)">
      <use xlink:href="#BitstreamVeraSans-Roman-5a"/>
      <use x="68.505859375" xlink:href="#BitstreamVeraSans-Roman-33"/>
      <use x="132.12890625" xlink:href="#BitstreamVeraSans-Roman-30"/>
      <use x="195.751953125" xlink:href="#BitstreamVeraSans-Roman-5f"/>
      <use x="245.751953125" xlink:href="#BitstreamVeraSans-Roman-6d"/>
      <use x="343.1640625" xlink:href="#BitstreamVeraSans-Roman-61"/>
      <use x="404.443359375" xlink:href="#BitstreamVeraSans-Roman-67"/>
      <use x="467.919921875" xlink:href="#BitstreamVeraSans-Roman-5f"/>
      <use x="517.919921875" xlink:href="#BitstreamVeraSans-Roman-74"/>
      <use x="557.12890625" xlink:href="#BitstreamVeraSans-Roman-63"/>
      <use x="612.109375" xlink:href="#BitstreamVeraSans-Roman-5f"/>
      <use x="662.109375" xlink:href="#BitstreamVeraSans-Roman-6d"/>
      <use x="759.521484375" xlink:href="#BitstreamVeraSans-Roman-65"/>
      <use x="821.044921875" xlink:href="#BitstreamVeraSans-Roman-61"/>
      <use x="882.32421875" xlink:href="#BitstreamVeraSans-Roman-6e"/>
     </g>
    </g>
   </g>
  </g>
 </g>
 <defs>
  <clipPath id="pc3d3922a68">
   <rect height="253.4" width="235.436886311" x="35.4828125" y="19.24"/>
  </clipPath>
 </defs>
</svg>
