<?xml version="1.0" encoding="utf-8" standalone="no"?>
<!DOCTYPE svg PUBLIC "-//W3C//DTD SVG 1.1//EN"
  "http://www.w3.org/Graphics/SVG/1.1/DTD/svg11.dtd">
<!-- Created with matplotlib (http://matplotlib.org/) -->
<svg height="280pt" version="1.1" viewBox="0 0 393 280" width="393pt" xmlns="http://www.w3.org/2000/svg" xmlns:xlink="http://www.w3.org/1999/xlink">
 <defs>
  <style type="text/css">
*{stroke-linecap:butt;stroke-linejoin:round;stroke-miterlimit:100000;}
  </style>
 </defs>
 <g id="figure_1">
  <g id="patch_1">
   <path d="M 0 280.074375 
L 393.603125 280.074375 
L 393.603125 0 
L 0 0 
L 0 280.074375 
z
" style="fill:none;"/>
  </g>
  <g id="axes_1">
   <g id="patch_2">
    <path d="M 42.059375 244.518125 
L 376.859375 244.518125 
L 376.859375 21.318125 
L 42.059375 21.318125 
z
" style="fill:#ffffff;"/>
   </g>
   <g id="line2d_1">
    <path clip-path="url(#p0bf1846e7c)" d="M 42.059375 45.816777 
L 92.279375 45.281572 
L 142.499375 44.97297 
L 192.719375 44.891016 
L 245.330804 45.036872 
L 300.333661 45.41689 
L 362.510804 46.075513 
L 374.467946 46.224267 
L 374.467946 46.224267 
" style="fill:none;stroke:#ff0000;stroke-dasharray:6.000000,6.000000;stroke-dashoffset:0.0;"/>
   </g>
   <g id="line2d_2">
    <path clip-path="url(#p0bf1846e7c)" d="M 42.059375 47.677862 
L 99.453661 46.992775 
L 156.847946 46.538476 
L 214.242232 46.31056 
L 276.419375 46.296142 
L 345.770804 46.510593 
L 374.467946 46.651164 
L 374.467946 46.651164 
" style="fill:none;stroke:#ff0000;stroke-dasharray:6.000000,6.000000;stroke-dashoffset:0.0;"/>
   </g>
   <g id="line2d_3">
    <path clip-path="url(#p0bf1846e7c)" d="M 42.059375 48.269218 
L 94.670804 46.992011 
L 144.890804 45.997525 
L 192.719375 45.272887 
L 240.547946 44.771057 
L 290.767946 44.476338 
L 343.379375 44.398144 
L 374.467946 44.446604 
L 374.467946 44.446604 
" style="fill:none;stroke:#ff0000;stroke-dasharray:6.000000,6.000000;stroke-dashoffset:0.0;"/>
   </g>
   <g id="line2d_4">
    <path clip-path="url(#p0bf1846e7c)" d="M 42.059375 46.889866 
L 104.236518 46.669305 
L 168.805089 46.663569 
L 235.765089 46.88015 
L 312.290804 47.359053 
L 374.467946 47.87622 
L 374.467946 47.87622 
" style="fill:none;stroke:#ff0000;stroke-dasharray:6.000000,6.000000;stroke-dashoffset:0.0;"/>
   </g>
   <g id="line2d_5">
    <path clip-path="url(#p0bf1846e7c)" d="M 42.059375 42.653557 
L 80.322232 42.897757 
L 120.976518 43.389367 
L 164.022232 44.146107 
L 209.459375 45.174798 
L 259.679375 46.537639 
L 321.856518 48.464406 
L 374.467946 50.216235 
L 374.467946 50.216235 
" style="fill:none;stroke:#ff0000;stroke-dasharray:6.000000,6.000000;stroke-dashoffset:0.0;"/>
   </g>
   <g id="line2d_6">
    <path clip-path="url(#p0bf1846e7c)" d="M 42.059375 56.017556 
L 92.279375 54.307268 
L 132.933661 53.140378 
L 168.805089 52.324682 
L 202.285089 51.777864 
L 235.765089 51.462341 
L 266.853661 51.390735 
L 297.942232 51.538818 
L 329.030804 51.905523 
L 362.510804 52.534627 
L 374.467946 52.814513 
L 374.467946 52.814513 
" style="fill:none;stroke:#ff0000;stroke-dasharray:6.000000,6.000000;stroke-dashoffset:0.0;"/>
   </g>
   <g id="line2d_7">
    <path clip-path="url(#p0bf1846e7c)" d="M 42.059375 51.046782 
L 80.322232 50.255421 
L 118.585089 49.684799 
L 156.847946 49.347098 
L 192.719375 49.248087 
L 228.590804 49.359975 
L 266.853661 49.705365 
L 305.116518 50.269586 
L 348.162232 51.136997 
L 374.467946 51.770413 
L 374.467946 51.770413 
" style="fill:none;stroke:#ff0000;stroke-dasharray:6.000000,6.000000;stroke-dashoffset:0.0;"/>
   </g>
   <g id="line2d_8">
    <path clip-path="url(#p0bf1846e7c)" d="M 42.059375 47.756064 
L 77.930804 46.874265 
L 111.410804 46.267071 
L 144.890804 45.885009 
L 175.979375 45.741999 
L 207.067946 45.808091 
L 238.156518 46.083646 
L 271.636518 46.609237 
L 305.116518 47.359791 
L 340.987946 48.391189 
L 374.467946 49.537642 
L 374.467946 49.537642 
" style="fill:none;stroke:#ff0000;stroke-dasharray:6.000000,6.000000;stroke-dashoffset:0.0;"/>
   </g>
   <g id="line2d_9">
    <path clip-path="url(#p0bf1846e7c)" d="M 42.059375 44.661474 
L 242.939375 40.897777 
L 340.987946 39.299246 
L 374.467946 38.809992 
L 374.467946 38.809992 
" style="fill:none;stroke:#ff0000;stroke-dasharray:6.000000,6.000000;stroke-dashoffset:0.0;"/>
   </g>
   <g id="line2d_10">
    <path clip-path="url(#p0bf1846e7c)" d="M 42.059375 47.597253 
L 97.062232 45.772593 
L 142.499375 44.48041 
L 183.153661 43.533235 
L 223.807946 42.811038 
L 262.070804 42.350747 
L 300.333661 42.106087 
L 340.987946 42.073413 
L 374.467946 42.207109 
L 374.467946 42.207109 
" style="fill:none;stroke:#ff0000;stroke-dasharray:6.000000,6.000000;stroke-dashoffset:0.0;"/>
   </g>
   <g id="line2d_11">
    <path clip-path="url(#p0bf1846e7c)" d="M 42.059375 58.264733 
L 240.547946 55.710567 
L 374.467946 53.968463 
L 374.467946 53.968463 
" style="fill:none;stroke:#ff0000;stroke-dasharray:6.000000,6.000000;stroke-dashoffset:0.0;"/>
   </g>
   <g id="line2d_12">
    <path clip-path="url(#p0bf1846e7c)" d="M 42.059375 47.608702 
L 70.756518 47.640796 
L 99.453661 47.88989 
L 128.150804 48.35704 
L 156.847946 49.04301 
L 185.545089 49.947781 
L 214.242232 51.069988 
L 242.939375 52.40631 
L 274.027946 54.088737 
L 305.116518 56.00393 
L 336.205089 58.135418 
L 369.685089 60.647685 
L 374.467946 61.023091 
L 374.467946 61.023091 
" style="fill:none;stroke:#ff0000;stroke-dasharray:6.000000,6.000000;stroke-dashoffset:0.0;"/>
   </g>
   <g id="line2d_13">
    <path clip-path="url(#p0bf1846e7c)" d="M 42.059375 47.993297 
L 77.930804 47.726598 
L 113.802232 47.683737 
L 147.282232 47.856118 
L 180.762232 48.24106 
L 214.242232 48.842597 
L 247.722232 49.660483 
L 281.202232 50.689223 
L 317.073661 52.012172 
L 355.336518 53.649757 
L 374.467946 54.544836 
L 374.467946 54.544836 
" style="fill:none;stroke:#ff0000;stroke-dasharray:6.000000,6.000000;stroke-dashoffset:0.0;"/>
   </g>
   <g id="line2d_14">
    <path clip-path="url(#p0bf1846e7c)" d="M 42.059375 51.983139 
L 75.539375 51.0361 
L 106.627946 50.376145 
L 135.325089 49.983652 
L 164.022232 49.824321 
L 190.327946 49.901955 
L 216.633661 50.208475 
L 242.939375 50.755169 
L 266.853661 51.466976 
L 290.767946 52.386059 
L 314.682232 53.511658 
L 340.987946 54.983112 
L 367.293661 56.688293 
L 374.467946 57.191878 
L 374.467946 57.191878 
" style="fill:none;stroke:#ff0000;stroke-dasharray:6.000000,6.000000;stroke-dashoffset:0.0;"/>
   </g>
   <g id="line2d_15">
    <path clip-path="url(#p0bf1846e7c)" d="M 42.059375 44.760052 
L 70.756518 44.59095 
L 99.453661 44.659839 
L 128.150804 44.966276 
L 156.847946 45.508027 
L 185.545089 46.280795 
L 214.242232 47.277937 
L 242.939375 48.490192 
L 274.027946 50.032098 
L 305.116518 51.792784 
L 338.596518 53.906318 
L 374.467946 56.381943 
L 374.467946 56.381943 
" style="fill:none;stroke:#ff0000;stroke-dasharray:6.000000,6.000000;stroke-dashoffset:0.0;"/>
   </g>
   <g id="line2d_16">
    <path clip-path="url(#p0bf1846e7c)" d="M 42.059375 44.716634 
L 77.930804 43.678885 
L 113.802232 42.868115 
L 147.282232 42.335077 
L 180.762232 42.030896 
L 214.242232 41.962526 
L 247.722232 42.130658 
L 281.202232 42.52919 
L 314.682232 43.144966 
L 350.553661 44.022737 
L 374.467946 44.717466 
L 374.467946 44.717466 
" style="fill:none;stroke:#ff0000;stroke-dasharray:6.000000,6.000000;stroke-dashoffset:0.0;"/>
   </g>
   <g id="line2d_17">
    <path clip-path="url(#p0bf1846e7c)" d="M 42.059375 48.414801 
L 68.365089 47.605139 
L 94.670804 47.008715 
L 120.976518 46.636513 
L 147.282232 46.497502 
L 173.587946 46.598272 
L 197.502232 46.901254 
L 223.807946 47.467915 
L 250.113661 48.276828 
L 276.419375 49.322196 
L 302.725089 50.594496 
L 329.030804 52.080376 
L 357.727946 53.924617 
L 374.467946 55.097633 
L 374.467946 55.097633 
" style="fill:none;stroke:#ff0000;stroke-dasharray:6.000000,6.000000;stroke-dashoffset:0.0;"/>
   </g>
   <g id="line2d_18">
    <path clip-path="url(#p0bf1846e7c)" d="M 42.059375 41.981169 
L 75.539375 41.528817 
L 109.019375 41.287401 
L 142.499375 41.25558 
L 178.370804 41.447842 
L 214.242232 41.862499 
L 252.505089 42.530287 
L 293.159375 43.464534 
L 338.596518 44.733814 
L 374.467946 45.86282 
L 374.467946 45.86282 
" style="fill:none;stroke:#ff0000;stroke-dasharray:6.000000,6.000000;stroke-dashoffset:0.0;"/>
   </g>
   <g id="line2d_19">
    <path clip-path="url(#p0bf1846e7c)" d="M 42.059375 50.449924 
L 149.673661 48.142417 
L 374.467946 43.162455 
L 374.467946 43.162455 
" style="fill:none;stroke:#ff0000;stroke-dasharray:6.000000,6.000000;stroke-dashoffset:0.0;"/>
   </g>
   <g id="line2d_20">
    <path clip-path="url(#p0bf1846e7c)" d="M 42.059375 45.669199 
L 374.467946 39.095905 
L 374.467946 39.095905 
" style="fill:none;stroke:#ff0000;stroke-dasharray:6.000000,6.000000;stroke-dashoffset:0.0;"/>
   </g>
   <g id="line2d_21">
    <path clip-path="url(#p0bf1846e7c)" d="M 42.059375 55.778424 
L 104.236518 53.881561 
L 156.847946 52.496921 
L 204.676518 51.459672 
L 250.113661 50.693852 
L 295.550804 50.15078 
L 340.987946 49.824677 
L 374.467946 49.711955 
L 374.467946 49.711955 
" style="fill:none;stroke:#ff0000;stroke-dasharray:6.000000,6.000000;stroke-dashoffset:0.0;"/>
   </g>
   <g id="line2d_22">
    <path clip-path="url(#p0bf1846e7c)" d="M 42.059375 44.870126 
L 77.930804 44.150649 
L 113.802232 43.661513 
L 147.282232 43.419593 
L 180.762232 43.386961 
L 216.633661 43.581268 
L 252.505089 44.003634 
L 290.767946 44.687715 
L 331.422232 45.64877 
L 374.467946 46.883364 
L 374.467946 46.883364 
" style="fill:none;stroke:#ff0000;stroke-dasharray:6.000000,6.000000;stroke-dashoffset:0.0;"/>
   </g>
   <g id="line2d_23">
    <path clip-path="url(#p0bf1846e7c)" d="M 42.059375 53.74359 
L 101.845089 52.404784 
L 156.847946 51.395406 
L 209.459375 50.657193 
L 259.679375 50.170166 
L 312.290804 49.882254 
L 369.685089 49.79994 
L 374.467946 49.802552 
L 374.467946 49.802552 
" style="fill:none;stroke:#ff0000;stroke-dasharray:6.000000,6.000000;stroke-dashoffset:0.0;"/>
   </g>
   <g id="line2d_24">
    <path clip-path="url(#p0bf1846e7c)" d="M 42.059375 41.828206 
L 77.930804 41.875055 
L 113.802232 42.136143 
L 152.065089 42.638631 
L 192.719375 43.406942 
L 235.765089 44.455745 
L 281.202232 45.786288 
L 333.813661 47.551094 
L 374.467946 49.030218 
L 374.467946 49.030218 
" style="fill:none;stroke:#ff0000;stroke-dasharray:6.000000,6.000000;stroke-dashoffset:0.0;"/>
   </g>
   <g id="line2d_25">
    <path clip-path="url(#p0bf1846e7c)" d="M 42.059375 49.81125 
L 92.279375 48.010177 
L 137.716518 46.600434 
L 178.370804 45.551441 
L 219.025089 44.724548 
L 259.679375 44.130069 
L 300.333661 43.767154 
L 340.987946 43.623479 
L 374.467946 43.653623 
L 374.467946 43.653623 
" style="fill:none;stroke:#ff0000;stroke-dasharray:6.000000,6.000000;stroke-dashoffset:0.0;"/>
   </g>
   <g id="line2d_26">
    <path clip-path="url(#p0bf1846e7c)" d="M 42.059375 45.916707 
L 89.887946 45.42094 
L 137.716518 45.147648 
L 185.545089 45.094578 
L 235.765089 45.261835 
L 290.767946 45.675367 
L 352.945089 46.370424 
L 374.467946 46.65189 
L 374.467946 46.65189 
" style="fill:none;stroke:#000000;stroke-linecap:square;"/>
   </g>
   <g id="line2d_27">
    <path clip-path="url(#p0bf1846e7c)" d="M 42.059375 244.518125 
L 42.059375 234.920525 
L 44.450804 234.697325 
L 44.450804 234.250925 
L 49.233661 233.804525 
L 49.233661 233.581325 
L 51.625089 233.358125 
L 51.625089 231.795725 
L 54.016518 231.572525 
L 54.016518 230.679725 
L 56.407946 230.456525 
L 56.407946 229.786925 
L 58.799375 229.563725 
L 58.799375 229.117325 
L 65.973661 228.447725 
L 65.973661 226.662125 
L 68.365089 226.438925 
L 68.365089 225.546125 
L 70.756518 225.322925 
L 70.756518 225.099725 
L 73.147946 224.876525 
L 73.147946 222.644525 
L 75.539375 222.421325 
L 75.539375 221.528525 
L 77.930804 221.305325 
L 77.930804 219.966125 
L 80.322232 219.742925 
L 80.322232 219.519725 
L 82.713661 219.296525 
L 82.713661 218.850125 
L 85.105089 218.626925 
L 85.105089 217.957325 
L 87.496518 217.734125 
L 87.496518 216.618125 
L 89.887946 216.394925 
L 89.887946 215.278925 
L 92.279375 215.055725 
L 92.279375 213.046925 
L 94.670804 212.823725 
L 94.670804 210.368525 
L 97.062232 210.145325 
L 97.062232 208.806125 
L 99.453661 208.582925 
L 99.453661 207.690125 
L 101.845089 207.466925 
L 101.845089 204.342125 
L 104.236518 204.118925 
L 104.236518 202.333325 
L 106.627946 202.110125 
L 106.627946 201.886925 
L 109.019375 201.663725 
L 109.019375 199.431725 
L 111.410804 199.208525 
L 111.410804 197.199725 
L 113.802232 196.976525 
L 113.802232 195.190925 
L 116.193661 194.967725 
L 116.193661 194.521325 
L 118.585089 194.298125 
L 118.585089 192.512525 
L 120.976518 192.289325 
L 120.976518 190.950125 
L 123.367946 190.726925 
L 123.367946 189.164525 
L 125.759375 188.941325 
L 125.759375 187.155725 
L 128.150804 186.932525 
L 128.150804 185.146925 
L 130.542232 184.923725 
L 130.542232 183.361325 
L 132.933661 183.138125 
L 132.933661 180.459725 
L 135.325089 180.236525 
L 135.325089 178.450925 
L 137.716518 178.227725 
L 137.716518 175.772525 
L 140.107946 175.549325 
L 140.107946 173.763725 
L 142.499375 173.540525 
L 142.499375 172.647725 
L 144.890804 172.424525 
L 144.890804 169.522925 
L 147.282232 169.299725 
L 147.282232 167.737325 
L 149.673661 167.514125 
L 149.673661 165.505325 
L 152.065089 165.282125 
L 152.065089 162.157325 
L 154.456518 161.934125 
L 154.456518 159.925325 
L 156.847946 159.702125 
L 156.847946 158.586125 
L 159.239375 158.362925 
L 159.239375 156.800525 
L 161.630804 156.577325 
L 161.630804 155.461325 
L 164.022232 155.238125 
L 164.022232 153.452525 
L 166.413661 153.229325 
L 166.413661 150.997325 
L 168.805089 150.774125 
L 168.805089 148.765325 
L 171.196518 148.542125 
L 171.196518 147.426125 
L 173.587946 147.202925 
L 173.587946 144.524525 
L 175.979375 144.301325 
L 175.979375 142.069325 
L 178.370804 141.846125 
L 178.370804 139.167725 
L 180.762232 138.944525 
L 180.762232 136.712525 
L 183.153661 136.489325 
L 183.153661 134.480525 
L 185.545089 134.257325 
L 185.545089 131.132525 
L 187.936518 130.909325 
L 187.936518 129.346925 
L 190.327946 129.123725 
L 190.327946 127.561325 
L 192.719375 127.338125 
L 192.719375 124.436525 
L 195.110804 124.213325 
L 195.110804 122.874125 
L 197.502232 122.650925 
L 197.502232 120.418925 
L 199.893661 120.195725 
L 199.893661 118.186925 
L 202.285089 117.963725 
L 202.285089 117.070925 
L 204.676518 116.847725 
L 204.676518 115.731725 
L 207.067946 115.508525 
L 207.067946 113.946125 
L 209.459375 113.722925 
L 209.459375 112.160525 
L 211.850804 111.937325 
L 211.850804 110.821325 
L 214.242232 110.598125 
L 214.242232 107.250125 
L 216.633661 107.026925 
L 216.633661 105.018125 
L 219.025089 104.794925 
L 219.025089 104.125325 
L 221.416518 103.902125 
L 221.416518 102.786125 
L 223.807946 102.562925 
L 223.807946 101.446925 
L 226.199375 101.223725 
L 226.199375 99.661325 
L 228.590804 99.438125 
L 228.590804 98.098925 
L 230.982232 97.875725 
L 230.982232 96.982925 
L 233.373661 96.759725 
L 233.373661 96.313325 
L 235.765089 96.090125 
L 235.765089 95.420525 
L 238.156518 95.197325 
L 238.156518 94.304525 
L 240.547946 94.081325 
L 240.547946 92.518925 
L 242.939375 92.295725 
L 242.939375 91.402925 
L 245.330804 91.179725 
L 245.330804 89.170925 
L 247.722232 88.947725 
L 247.722232 87.162125 
L 252.505089 86.715725 
L 252.505089 86.269325 
L 254.896518 86.046125 
L 254.896518 84.037325 
L 257.287946 83.814125 
L 257.287946 82.698125 
L 259.679375 82.474925 
L 259.679375 82.028525 
L 262.070804 81.805325 
L 262.070804 80.466125 
L 264.462232 80.242925 
L 264.462232 78.903725 
L 266.853661 78.680525 
L 266.853661 78.010925 
L 269.245089 77.787725 
L 269.245089 76.894925 
L 271.636518 76.671725 
L 271.636518 76.225325 
L 276.419375 75.778925 
L 276.419375 75.555725 
L 278.810804 75.332525 
L 278.810804 74.886125 
L 281.202232 74.662925 
L 281.202232 73.993325 
L 283.593661 73.770125 
L 283.593661 72.877325 
L 285.985089 72.654125 
L 285.985089 72.430925 
L 288.376518 72.207725 
L 288.376518 71.091725 
L 290.767946 70.868525 
L 290.767946 70.422125 
L 293.159375 70.198925 
L 293.159375 69.306125 
L 295.550804 69.082925 
L 295.550804 67.966925 
L 300.333661 67.520525 
L 300.333661 67.074125 
L 302.725089 66.850925 
L 302.725089 65.958125 
L 305.116518 65.734925 
L 305.116518 65.511725 
L 307.507946 65.288525 
L 307.507946 64.842125 
L 309.899375 64.618925 
L 309.899375 63.949325 
L 312.290804 63.726125 
L 312.290804 62.163725 
L 314.682232 61.940525 
L 314.682232 61.717325 
L 317.073661 61.494125 
L 317.073661 60.824525 
L 319.465089 60.601325 
L 319.465089 60.154925 
L 321.856518 59.931725 
L 321.856518 59.708525 
L 324.247946 59.485325 
L 324.247946 59.038925 
L 326.639375 58.815725 
L 326.639375 58.146125 
L 329.030804 57.922925 
L 329.030804 57.476525 
L 331.422232 57.253325 
L 331.422232 56.583725 
L 333.813661 56.360525 
L 333.813661 56.137325 
L 336.205089 55.914125 
L 336.205089 55.467725 
L 340.987946 55.244525 
L 340.987946 54.574925 
L 343.379375 54.351725 
L 348.162232 54.128525 
L 348.162232 53.905325 
L 355.336518 53.235725 
L 355.336518 53.012525 
L 362.510804 52.342925 
L 362.510804 52.119725 
L 372.076518 51.896525 
L 372.076518 51.673325 
L 374.467946 51.450125 
L 374.467946 21.541325 
L 374.467946 21.541325 
" style="fill:none;stroke:#008000;stroke-linecap:square;"/>
   </g>
   <g id="line2d_28">
    <path clip-path="url(#p0bf1846e7c)" d="M 42.059375 244.518125 
L 42.059375 21.318125 
" style="fill:none;stroke:#0000ff;stroke-dasharray:6.000000,6.000000;stroke-dashoffset:0.0;"/>
   </g>
   <g id="line2d_29">
    <path clip-path="url(#p0bf1846e7c)" d="M 374.467946 244.518125 
L 374.467946 21.318125 
" style="fill:none;stroke:#0000ff;stroke-dasharray:6.000000,6.000000;stroke-dashoffset:0.0;"/>
   </g>
   <g id="patch_3">
    <path d="M 42.059375 21.318125 
L 376.859375 21.318125 
" style="fill:none;stroke:#000000;stroke-linecap:square;stroke-linejoin:miter;"/>
   </g>
   <g id="patch_4">
    <path d="M 376.859375 244.518125 
L 376.859375 21.318125 
" style="fill:none;stroke:#000000;stroke-linecap:square;stroke-linejoin:miter;"/>
   </g>
   <g id="patch_5">
    <path d="M 42.059375 244.518125 
L 376.859375 244.518125 
" style="fill:none;stroke:#000000;stroke-linecap:square;stroke-linejoin:miter;"/>
   </g>
   <g id="patch_6">
    <path d="M 42.059375 244.518125 
L 42.059375 21.318125 
" style="fill:none;stroke:#000000;stroke-linecap:square;stroke-linejoin:miter;"/>
   </g>
   <g id="matplotlib.axis_1">
    <g id="xtick_1">
     <g id="line2d_30">
      <defs>
       <path d="M 0 0 
L 0 -4 
" id="m56610a4320" style="stroke:#000000;stroke-width:0.5;"/>
      </defs>
      <g>
       <use style="stroke:#000000;stroke-width:0.5;" x="42.059375" xlink:href="#m56610a4320" y="244.518125"/>
      </g>
     </g>
     <g id="line2d_31">
      <defs>
       <path d="M 0 0 
L 0 4 
" id="ma934859ef6" style="stroke:#000000;stroke-width:0.5;"/>
      </defs>
      <g>
       <use style="stroke:#000000;stroke-width:0.5;" x="42.059375" xlink:href="#ma934859ef6" y="21.318125"/>
      </g>
     </g>
     <g id="text_1">
      <!-- −20 -->
      <defs>
       <path d="M 10.59375 35.5 
L 73.1875 35.5 
L 73.1875 27.203125 
L 10.59375 27.203125 
z
" id="BitstreamVeraSans-Roman-2212"/>
       <path d="M 19.1875 8.296875 
L 53.609375 8.296875 
L 53.609375 0 
L 7.328125 0 
L 7.328125 8.296875 
Q 12.9375 14.109375 22.625 23.890625 
Q 32.328125 33.6875 34.8125 36.53125 
Q 39.546875 41.84375 41.421875 45.53125 
Q 43.3125 49.21875 43.3125 52.78125 
Q 43.3125 58.59375 39.234375 62.25 
Q 35.15625 65.921875 28.609375 65.921875 
Q 23.96875 65.921875 18.8125 64.3125 
Q 13.671875 62.703125 7.8125 59.421875 
L 7.8125 69.390625 
Q 13.765625 71.78125 18.9375 73 
Q 24.125 74.21875 28.421875 74.21875 
Q 39.75 74.21875 46.484375 68.546875 
Q 53.21875 62.890625 53.21875 53.421875 
Q 53.21875 48.921875 51.53125 44.890625 
Q 49.859375 40.875 45.40625 35.40625 
Q 44.1875 33.984375 37.640625 27.21875 
Q 31.109375 20.453125 19.1875 8.296875 
" id="BitstreamVeraSans-Roman-32"/>
       <path d="M 31.78125 66.40625 
Q 24.171875 66.40625 20.328125 58.90625 
Q 16.5 51.421875 16.5 36.375 
Q 16.5 21.390625 20.328125 13.890625 
Q 24.171875 6.390625 31.78125 6.390625 
Q 39.453125 6.390625 43.28125 13.890625 
Q 47.125 21.390625 47.125 36.375 
Q 47.125 51.421875 43.28125 58.90625 
Q 39.453125 66.40625 31.78125 66.40625 
M 31.78125 74.21875 
Q 44.046875 74.21875 50.515625 64.515625 
Q 56.984375 54.828125 56.984375 36.375 
Q 56.984375 17.96875 50.515625 8.265625 
Q 44.046875 -1.421875 31.78125 -1.421875 
Q 19.53125 -1.421875 13.0625 8.265625 
Q 6.59375 17.96875 6.59375 36.375 
Q 6.59375 54.828125 13.0625 64.515625 
Q 19.53125 74.21875 31.78125 74.21875 
" id="BitstreamVeraSans-Roman-30"/>
      </defs>
      <g transform="translate(31.50703125 256.1165625)scale(0.1 -0.1)">
       <use xlink:href="#BitstreamVeraSans-Roman-2212"/>
       <use x="83.7890625" xlink:href="#BitstreamVeraSans-Roman-32"/>
       <use x="147.412109375" xlink:href="#BitstreamVeraSans-Roman-30"/>
      </g>
     </g>
    </g>
    <g id="xtick_2">
     <g id="line2d_32">
      <g>
       <use style="stroke:#000000;stroke-width:0.5;" x="89.8879464286" xlink:href="#m56610a4320" y="244.518125"/>
      </g>
     </g>
     <g id="line2d_33">
      <g>
       <use style="stroke:#000000;stroke-width:0.5;" x="89.8879464286" xlink:href="#ma934859ef6" y="21.318125"/>
      </g>
     </g>
     <g id="text_2">
      <!-- 0 -->
      <g transform="translate(86.7066964286 256.1165625)scale(0.1 -0.1)">
       <use xlink:href="#BitstreamVeraSans-Roman-30"/>
      </g>
     </g>
    </g>
    <g id="xtick_3">
     <g id="line2d_34">
      <g>
       <use style="stroke:#000000;stroke-width:0.5;" x="137.716517857" xlink:href="#m56610a4320" y="244.518125"/>
      </g>
     </g>
     <g id="line2d_35">
      <g>
       <use style="stroke:#000000;stroke-width:0.5;" x="137.716517857" xlink:href="#ma934859ef6" y="21.318125"/>
      </g>
     </g>
     <g id="text_3">
      <!-- 20 -->
      <g transform="translate(131.354017857 256.1165625)scale(0.1 -0.1)">
       <use xlink:href="#BitstreamVeraSans-Roman-32"/>
       <use x="63.623046875" xlink:href="#BitstreamVeraSans-Roman-30"/>
      </g>
     </g>
    </g>
    <g id="xtick_4">
     <g id="line2d_36">
      <g>
       <use style="stroke:#000000;stroke-width:0.5;" x="185.545089286" xlink:href="#m56610a4320" y="244.518125"/>
      </g>
     </g>
     <g id="line2d_37">
      <g>
       <use style="stroke:#000000;stroke-width:0.5;" x="185.545089286" xlink:href="#ma934859ef6" y="21.318125"/>
      </g>
     </g>
     <g id="text_4">
      <!-- 40 -->
      <defs>
       <path d="M 37.796875 64.3125 
L 12.890625 25.390625 
L 37.796875 25.390625 
z
M 35.203125 72.90625 
L 47.609375 72.90625 
L 47.609375 25.390625 
L 58.015625 25.390625 
L 58.015625 17.1875 
L 47.609375 17.1875 
L 47.609375 0 
L 37.796875 0 
L 37.796875 17.1875 
L 4.890625 17.1875 
L 4.890625 26.703125 
z
" id="BitstreamVeraSans-Roman-34"/>
      </defs>
      <g transform="translate(179.182589286 256.1165625)scale(0.1 -0.1)">
       <use xlink:href="#BitstreamVeraSans-Roman-34"/>
       <use x="63.623046875" xlink:href="#BitstreamVeraSans-Roman-30"/>
      </g>
     </g>
    </g>
    <g id="xtick_5">
     <g id="line2d_38">
      <g>
       <use style="stroke:#000000;stroke-width:0.5;" x="233.373660714" xlink:href="#m56610a4320" y="244.518125"/>
      </g>
     </g>
     <g id="line2d_39">
      <g>
       <use style="stroke:#000000;stroke-width:0.5;" x="233.373660714" xlink:href="#ma934859ef6" y="21.318125"/>
      </g>
     </g>
     <g id="text_5">
      <!-- 60 -->
      <defs>
       <path d="M 33.015625 40.375 
Q 26.375 40.375 22.484375 35.828125 
Q 18.609375 31.296875 18.609375 23.390625 
Q 18.609375 15.53125 22.484375 10.953125 
Q 26.375 6.390625 33.015625 6.390625 
Q 39.65625 6.390625 43.53125 10.953125 
Q 47.40625 15.53125 47.40625 23.390625 
Q 47.40625 31.296875 43.53125 35.828125 
Q 39.65625 40.375 33.015625 40.375 
M 52.59375 71.296875 
L 52.59375 62.3125 
Q 48.875 64.0625 45.09375 64.984375 
Q 41.3125 65.921875 37.59375 65.921875 
Q 27.828125 65.921875 22.671875 59.328125 
Q 17.53125 52.734375 16.796875 39.40625 
Q 19.671875 43.65625 24.015625 45.921875 
Q 28.375 48.1875 33.59375 48.1875 
Q 44.578125 48.1875 50.953125 41.515625 
Q 57.328125 34.859375 57.328125 23.390625 
Q 57.328125 12.15625 50.6875 5.359375 
Q 44.046875 -1.421875 33.015625 -1.421875 
Q 20.359375 -1.421875 13.671875 8.265625 
Q 6.984375 17.96875 6.984375 36.375 
Q 6.984375 53.65625 15.1875 63.9375 
Q 23.390625 74.21875 37.203125 74.21875 
Q 40.921875 74.21875 44.703125 73.484375 
Q 48.484375 72.75 52.59375 71.296875 
" id="BitstreamVeraSans-Roman-36"/>
      </defs>
      <g transform="translate(227.011160714 256.1165625)scale(0.1 -0.1)">
       <use xlink:href="#BitstreamVeraSans-Roman-36"/>
       <use x="63.623046875" xlink:href="#BitstreamVeraSans-Roman-30"/>
      </g>
     </g>
    </g>
    <g id="xtick_6">
     <g id="line2d_40">
      <g>
       <use style="stroke:#000000;stroke-width:0.5;" x="281.202232143" xlink:href="#m56610a4320" y="244.518125"/>
      </g>
     </g>
     <g id="line2d_41">
      <g>
       <use style="stroke:#000000;stroke-width:0.5;" x="281.202232143" xlink:href="#ma934859ef6" y="21.318125"/>
      </g>
     </g>
     <g id="text_6">
      <!-- 80 -->
      <defs>
       <path d="M 31.78125 34.625 
Q 24.75 34.625 20.71875 30.859375 
Q 16.703125 27.09375 16.703125 20.515625 
Q 16.703125 13.921875 20.71875 10.15625 
Q 24.75 6.390625 31.78125 6.390625 
Q 38.8125 6.390625 42.859375 10.171875 
Q 46.921875 13.96875 46.921875 20.515625 
Q 46.921875 27.09375 42.890625 30.859375 
Q 38.875 34.625 31.78125 34.625 
M 21.921875 38.8125 
Q 15.578125 40.375 12.03125 44.71875 
Q 8.5 49.078125 8.5 55.328125 
Q 8.5 64.0625 14.71875 69.140625 
Q 20.953125 74.21875 31.78125 74.21875 
Q 42.671875 74.21875 48.875 69.140625 
Q 55.078125 64.0625 55.078125 55.328125 
Q 55.078125 49.078125 51.53125 44.71875 
Q 48 40.375 41.703125 38.8125 
Q 48.828125 37.15625 52.796875 32.3125 
Q 56.78125 27.484375 56.78125 20.515625 
Q 56.78125 9.90625 50.3125 4.234375 
Q 43.84375 -1.421875 31.78125 -1.421875 
Q 19.734375 -1.421875 13.25 4.234375 
Q 6.78125 9.90625 6.78125 20.515625 
Q 6.78125 27.484375 10.78125 32.3125 
Q 14.796875 37.15625 21.921875 38.8125 
M 18.3125 54.390625 
Q 18.3125 48.734375 21.84375 45.5625 
Q 25.390625 42.390625 31.78125 42.390625 
Q 38.140625 42.390625 41.71875 45.5625 
Q 45.3125 48.734375 45.3125 54.390625 
Q 45.3125 60.0625 41.71875 63.234375 
Q 38.140625 66.40625 31.78125 66.40625 
Q 25.390625 66.40625 21.84375 63.234375 
Q 18.3125 60.0625 18.3125 54.390625 
" id="BitstreamVeraSans-Roman-38"/>
      </defs>
      <g transform="translate(274.839732143 256.1165625)scale(0.1 -0.1)">
       <use xlink:href="#BitstreamVeraSans-Roman-38"/>
       <use x="63.623046875" xlink:href="#BitstreamVeraSans-Roman-30"/>
      </g>
     </g>
    </g>
    <g id="xtick_7">
     <g id="line2d_42">
      <g>
       <use style="stroke:#000000;stroke-width:0.5;" x="329.030803571" xlink:href="#m56610a4320" y="244.518125"/>
      </g>
     </g>
     <g id="line2d_43">
      <g>
       <use style="stroke:#000000;stroke-width:0.5;" x="329.030803571" xlink:href="#ma934859ef6" y="21.318125"/>
      </g>
     </g>
     <g id="text_7">
      <!-- 100 -->
      <defs>
       <path d="M 12.40625 8.296875 
L 28.515625 8.296875 
L 28.515625 63.921875 
L 10.984375 60.40625 
L 10.984375 69.390625 
L 28.421875 72.90625 
L 38.28125 72.90625 
L 38.28125 8.296875 
L 54.390625 8.296875 
L 54.390625 0 
L 12.40625 0 
z
" id="BitstreamVeraSans-Roman-31"/>
      </defs>
      <g transform="translate(319.487053571 256.1165625)scale(0.1 -0.1)">
       <use xlink:href="#BitstreamVeraSans-Roman-31"/>
       <use x="63.623046875" xlink:href="#BitstreamVeraSans-Roman-30"/>
       <use x="127.24609375" xlink:href="#BitstreamVeraSans-Roman-30"/>
      </g>
     </g>
    </g>
    <g id="xtick_8">
     <g id="line2d_44">
      <g>
       <use style="stroke:#000000;stroke-width:0.5;" x="376.859375" xlink:href="#m56610a4320" y="244.518125"/>
      </g>
     </g>
     <g id="line2d_45">
      <g>
       <use style="stroke:#000000;stroke-width:0.5;" x="376.859375" xlink:href="#ma934859ef6" y="21.318125"/>
      </g>
     </g>
     <g id="text_8">
      <!-- 120 -->
      <g transform="translate(367.315625 256.1165625)scale(0.1 -0.1)">
       <use xlink:href="#BitstreamVeraSans-Roman-31"/>
       <use x="63.623046875" xlink:href="#BitstreamVeraSans-Roman-32"/>
       <use x="127.24609375" xlink:href="#BitstreamVeraSans-Roman-30"/>
      </g>
     </g>
    </g>
    <g id="text_9">
     <!-- % Untilting -->
     <defs>
      <path id="BitstreamVeraSans-Roman-20"/>
      <path d="M 72.703125 32.078125 
Q 68.453125 32.078125 66.03125 28.46875 
Q 63.625 24.859375 63.625 18.40625 
Q 63.625 12.0625 66.03125 8.421875 
Q 68.453125 4.78125 72.703125 4.78125 
Q 76.859375 4.78125 79.265625 8.421875 
Q 81.6875 12.0625 81.6875 18.40625 
Q 81.6875 24.8125 79.265625 28.4375 
Q 76.859375 32.078125 72.703125 32.078125 
M 72.703125 38.28125 
Q 80.421875 38.28125 84.953125 32.90625 
Q 89.5 27.546875 89.5 18.40625 
Q 89.5 9.28125 84.9375 3.921875 
Q 80.375 -1.421875 72.703125 -1.421875 
Q 64.890625 -1.421875 60.34375 3.921875 
Q 55.8125 9.28125 55.8125 18.40625 
Q 55.8125 27.59375 60.375 32.9375 
Q 64.9375 38.28125 72.703125 38.28125 
M 22.3125 68.015625 
Q 18.109375 68.015625 15.6875 64.375 
Q 13.28125 60.75 13.28125 54.390625 
Q 13.28125 47.953125 15.671875 44.328125 
Q 18.0625 40.71875 22.3125 40.71875 
Q 26.5625 40.71875 28.96875 44.328125 
Q 31.390625 47.953125 31.390625 54.390625 
Q 31.390625 60.6875 28.953125 64.34375 
Q 26.515625 68.015625 22.3125 68.015625 
M 66.40625 74.21875 
L 74.21875 74.21875 
L 28.609375 -1.421875 
L 20.796875 -1.421875 
z
M 22.3125 74.21875 
Q 30.03125 74.21875 34.609375 68.875 
Q 39.203125 63.53125 39.203125 54.390625 
Q 39.203125 45.171875 34.640625 39.84375 
Q 30.078125 34.515625 22.3125 34.515625 
Q 14.546875 34.515625 10.03125 39.859375 
Q 5.515625 45.21875 5.515625 54.390625 
Q 5.515625 63.484375 10.046875 68.84375 
Q 14.59375 74.21875 22.3125 74.21875 
" id="BitstreamVeraSans-Roman-25"/>
      <path d="M 54.890625 33.015625 
L 54.890625 0 
L 45.90625 0 
L 45.90625 32.71875 
Q 45.90625 40.484375 42.875 44.328125 
Q 39.84375 48.1875 33.796875 48.1875 
Q 26.515625 48.1875 22.3125 43.546875 
Q 18.109375 38.921875 18.109375 30.90625 
L 18.109375 0 
L 9.078125 0 
L 9.078125 54.6875 
L 18.109375 54.6875 
L 18.109375 46.1875 
Q 21.34375 51.125 25.703125 53.5625 
Q 30.078125 56 35.796875 56 
Q 45.21875 56 50.046875 50.171875 
Q 54.890625 44.34375 54.890625 33.015625 
" id="BitstreamVeraSans-Roman-6e"/>
      <path d="M 9.421875 75.984375 
L 18.40625 75.984375 
L 18.40625 0 
L 9.421875 0 
z
" id="BitstreamVeraSans-Roman-6c"/>
      <path d="M 9.421875 54.6875 
L 18.40625 54.6875 
L 18.40625 0 
L 9.421875 0 
z
M 9.421875 75.984375 
L 18.40625 75.984375 
L 18.40625 64.59375 
L 9.421875 64.59375 
z
" id="BitstreamVeraSans-Roman-69"/>
      <path d="M 8.6875 72.90625 
L 18.609375 72.90625 
L 18.609375 28.609375 
Q 18.609375 16.890625 22.84375 11.734375 
Q 27.09375 6.59375 36.625 6.59375 
Q 46.09375 6.59375 50.34375 11.734375 
Q 54.59375 16.890625 54.59375 28.609375 
L 54.59375 72.90625 
L 64.5 72.90625 
L 64.5 27.390625 
Q 64.5 13.140625 57.4375 5.859375 
Q 50.390625 -1.421875 36.625 -1.421875 
Q 22.796875 -1.421875 15.734375 5.859375 
Q 8.6875 13.140625 8.6875 27.390625 
z
" id="BitstreamVeraSans-Roman-55"/>
      <path d="M 18.3125 70.21875 
L 18.3125 54.6875 
L 36.8125 54.6875 
L 36.8125 47.703125 
L 18.3125 47.703125 
L 18.3125 18.015625 
Q 18.3125 11.328125 20.140625 9.421875 
Q 21.96875 7.515625 27.59375 7.515625 
L 36.8125 7.515625 
L 36.8125 0 
L 27.59375 0 
Q 17.1875 0 13.234375 3.875 
Q 9.28125 7.765625 9.28125 18.015625 
L 9.28125 47.703125 
L 2.6875 47.703125 
L 2.6875 54.6875 
L 9.28125 54.6875 
L 9.28125 70.21875 
z
" id="BitstreamVeraSans-Roman-74"/>
      <path d="M 45.40625 27.984375 
Q 45.40625 37.75 41.375 43.109375 
Q 37.359375 48.484375 30.078125 48.484375 
Q 22.859375 48.484375 18.828125 43.109375 
Q 14.796875 37.75 14.796875 27.984375 
Q 14.796875 18.265625 18.828125 12.890625 
Q 22.859375 7.515625 30.078125 7.515625 
Q 37.359375 7.515625 41.375 12.890625 
Q 45.40625 18.265625 45.40625 27.984375 
M 54.390625 6.78125 
Q 54.390625 -7.171875 48.1875 -13.984375 
Q 42 -20.796875 29.203125 -20.796875 
Q 24.46875 -20.796875 20.265625 -20.09375 
Q 16.0625 -19.390625 12.109375 -17.921875 
L 12.109375 -9.1875 
Q 16.0625 -11.328125 19.921875 -12.34375 
Q 23.78125 -13.375 27.78125 -13.375 
Q 36.625 -13.375 41.015625 -8.765625 
Q 45.40625 -4.15625 45.40625 5.171875 
L 45.40625 9.625 
Q 42.625 4.78125 38.28125 2.390625 
Q 33.9375 0 27.875 0 
Q 17.828125 0 11.671875 7.65625 
Q 5.515625 15.328125 5.515625 27.984375 
Q 5.515625 40.671875 11.671875 48.328125 
Q 17.828125 56 27.875 56 
Q 33.9375 56 38.28125 53.609375 
Q 42.625 51.21875 45.40625 46.390625 
L 45.40625 54.6875 
L 54.390625 54.6875 
z
" id="BitstreamVeraSans-Roman-67"/>
     </defs>
     <g transform="translate(181.8609375 270.7946875)scale(0.1 -0.1)">
      <use xlink:href="#BitstreamVeraSans-Roman-25"/>
      <use x="95.01953125" xlink:href="#BitstreamVeraSans-Roman-20"/>
      <use x="126.806640625" xlink:href="#BitstreamVeraSans-Roman-55"/>
      <use x="200.0" xlink:href="#BitstreamVeraSans-Roman-6e"/>
      <use x="263.37890625" xlink:href="#BitstreamVeraSans-Roman-74"/>
      <use x="302.587890625" xlink:href="#BitstreamVeraSans-Roman-69"/>
      <use x="330.37109375" xlink:href="#BitstreamVeraSans-Roman-6c"/>
      <use x="358.154296875" xlink:href="#BitstreamVeraSans-Roman-74"/>
      <use x="397.36328125" xlink:href="#BitstreamVeraSans-Roman-69"/>
      <use x="425.146484375" xlink:href="#BitstreamVeraSans-Roman-6e"/>
      <use x="488.525390625" xlink:href="#BitstreamVeraSans-Roman-67"/>
     </g>
    </g>
   </g>
   <g id="matplotlib.axis_2">
    <g id="ytick_1">
     <g id="line2d_46">
      <defs>
       <path d="M 0 0 
L 4 0 
" id="m9e37a64762" style="stroke:#000000;stroke-width:0.5;"/>
      </defs>
      <g>
       <use style="stroke:#000000;stroke-width:0.5;" x="42.059375" xlink:href="#m9e37a64762" y="244.518125"/>
      </g>
     </g>
     <g id="line2d_47">
      <defs>
       <path d="M 0 0 
L -4 0 
" id="mfb42a4b8e8" style="stroke:#000000;stroke-width:0.5;"/>
      </defs>
      <g>
       <use style="stroke:#000000;stroke-width:0.5;" x="376.859375" xlink:href="#mfb42a4b8e8" y="244.518125"/>
      </g>
     </g>
     <g id="text_10">
      <!-- 0.0 -->
      <defs>
       <path d="M 10.6875 12.40625 
L 21 12.40625 
L 21 0 
L 10.6875 0 
z
" id="BitstreamVeraSans-Roman-2e"/>
      </defs>
      <g transform="translate(22.15625 247.2775)scale(0.1 -0.1)">
       <use xlink:href="#BitstreamVeraSans-Roman-30"/>
       <use x="63.623046875" xlink:href="#BitstreamVeraSans-Roman-2e"/>
       <use x="95.41015625" xlink:href="#BitstreamVeraSans-Roman-30"/>
      </g>
     </g>
    </g>
    <g id="ytick_2">
     <g id="line2d_48">
      <g>
       <use style="stroke:#000000;stroke-width:0.5;" x="42.059375" xlink:href="#m9e37a64762" y="199.878125"/>
      </g>
     </g>
     <g id="line2d_49">
      <g>
       <use style="stroke:#000000;stroke-width:0.5;" x="376.859375" xlink:href="#mfb42a4b8e8" y="199.878125"/>
      </g>
     </g>
     <g id="text_11">
      <!-- 0.2 -->
      <g transform="translate(22.15625 202.6375)scale(0.1 -0.1)">
       <use xlink:href="#BitstreamVeraSans-Roman-30"/>
       <use x="63.623046875" xlink:href="#BitstreamVeraSans-Roman-2e"/>
       <use x="95.41015625" xlink:href="#BitstreamVeraSans-Roman-32"/>
      </g>
     </g>
    </g>
    <g id="ytick_3">
     <g id="line2d_50">
      <g>
       <use style="stroke:#000000;stroke-width:0.5;" x="42.059375" xlink:href="#m9e37a64762" y="155.238125"/>
      </g>
     </g>
     <g id="line2d_51">
      <g>
       <use style="stroke:#000000;stroke-width:0.5;" x="376.859375" xlink:href="#mfb42a4b8e8" y="155.238125"/>
      </g>
     </g>
     <g id="text_12">
      <!-- 0.4 -->
      <g transform="translate(22.15625 157.9975)scale(0.1 -0.1)">
       <use xlink:href="#BitstreamVeraSans-Roman-30"/>
       <use x="63.623046875" xlink:href="#BitstreamVeraSans-Roman-2e"/>
       <use x="95.41015625" xlink:href="#BitstreamVeraSans-Roman-34"/>
      </g>
     </g>
    </g>
    <g id="ytick_4">
     <g id="line2d_52">
      <g>
       <use style="stroke:#000000;stroke-width:0.5;" x="42.059375" xlink:href="#m9e37a64762" y="110.598125"/>
      </g>
     </g>
     <g id="line2d_53">
      <g>
       <use style="stroke:#000000;stroke-width:0.5;" x="376.859375" xlink:href="#mfb42a4b8e8" y="110.598125"/>
      </g>
     </g>
     <g id="text_13">
      <!-- 0.6 -->
      <g transform="translate(22.15625 113.3575)scale(0.1 -0.1)">
       <use xlink:href="#BitstreamVeraSans-Roman-30"/>
       <use x="63.623046875" xlink:href="#BitstreamVeraSans-Roman-2e"/>
       <use x="95.41015625" xlink:href="#BitstreamVeraSans-Roman-36"/>
      </g>
     </g>
    </g>
    <g id="ytick_5">
     <g id="line2d_54">
      <g>
       <use style="stroke:#000000;stroke-width:0.5;" x="42.059375" xlink:href="#m9e37a64762" y="65.958125"/>
      </g>
     </g>
     <g id="line2d_55">
      <g>
       <use style="stroke:#000000;stroke-width:0.5;" x="376.859375" xlink:href="#mfb42a4b8e8" y="65.958125"/>
      </g>
     </g>
     <g id="text_14">
      <!-- 0.8 -->
      <g transform="translate(22.15625 68.7175)scale(0.1 -0.1)">
       <use xlink:href="#BitstreamVeraSans-Roman-30"/>
       <use x="63.623046875" xlink:href="#BitstreamVeraSans-Roman-2e"/>
       <use x="95.41015625" xlink:href="#BitstreamVeraSans-Roman-38"/>
      </g>
     </g>
    </g>
    <g id="ytick_6">
     <g id="line2d_56">
      <g>
       <use style="stroke:#000000;stroke-width:0.5;" x="42.059375" xlink:href="#m9e37a64762" y="21.318125"/>
      </g>
     </g>
     <g id="line2d_57">
      <g>
       <use style="stroke:#000000;stroke-width:0.5;" x="376.859375" xlink:href="#mfb42a4b8e8" y="21.318125"/>
      </g>
     </g>
     <g id="text_15">
      <!-- 1.0 -->
      <g transform="translate(22.15625 24.0775)scale(0.1 -0.1)">
       <use xlink:href="#BitstreamVeraSans-Roman-31"/>
       <use x="63.623046875" xlink:href="#BitstreamVeraSans-Roman-2e"/>
       <use x="95.41015625" xlink:href="#BitstreamVeraSans-Roman-30"/>
      </g>
     </g>
    </g>
    <g id="text_16">
     <!-- tau_1 (red), CDF (green) -->
     <defs>
      <path d="M 50.984375 -16.609375 
L 50.984375 -23.578125 
L -0.984375 -23.578125 
L -0.984375 -16.609375 
z
" id="BitstreamVeraSans-Roman-5f"/>
      <path d="M 8.015625 75.875 
L 15.828125 75.875 
Q 23.140625 64.359375 26.78125 53.3125 
Q 30.421875 42.28125 30.421875 31.390625 
Q 30.421875 20.453125 26.78125 9.375 
Q 23.140625 -1.703125 15.828125 -13.1875 
L 8.015625 -13.1875 
Q 14.5 -2 17.703125 9.0625 
Q 20.90625 20.125 20.90625 31.390625 
Q 20.90625 42.671875 17.703125 53.65625 
Q 14.5 64.65625 8.015625 75.875 
" id="BitstreamVeraSans-Roman-29"/>
      <path d="M 31 75.875 
Q 24.46875 64.65625 21.28125 53.65625 
Q 18.109375 42.671875 18.109375 31.390625 
Q 18.109375 20.125 21.3125 9.0625 
Q 24.515625 -2 31 -13.1875 
L 23.1875 -13.1875 
Q 15.875 -1.703125 12.234375 9.375 
Q 8.59375 20.453125 8.59375 31.390625 
Q 8.59375 42.28125 12.203125 53.3125 
Q 15.828125 64.359375 23.1875 75.875 
z
" id="BitstreamVeraSans-Roman-28"/>
      <path d="M 9.8125 72.90625 
L 51.703125 72.90625 
L 51.703125 64.59375 
L 19.671875 64.59375 
L 19.671875 43.109375 
L 48.578125 43.109375 
L 48.578125 34.8125 
L 19.671875 34.8125 
L 19.671875 0 
L 9.8125 0 
z
" id="BitstreamVeraSans-Roman-46"/>
      <path d="M 11.71875 12.40625 
L 22.015625 12.40625 
L 22.015625 4 
L 14.015625 -11.625 
L 7.71875 -11.625 
L 11.71875 4 
z
" id="BitstreamVeraSans-Roman-2c"/>
      <path d="M 19.671875 64.796875 
L 19.671875 8.109375 
L 31.59375 8.109375 
Q 46.6875 8.109375 53.6875 14.9375 
Q 60.6875 21.78125 60.6875 36.53125 
Q 60.6875 51.171875 53.6875 57.984375 
Q 46.6875 64.796875 31.59375 64.796875 
z
M 9.8125 72.90625 
L 30.078125 72.90625 
Q 51.265625 72.90625 61.171875 64.09375 
Q 71.09375 55.28125 71.09375 36.53125 
Q 71.09375 17.671875 61.125 8.828125 
Q 51.171875 0 30.078125 0 
L 9.8125 0 
z
" id="BitstreamVeraSans-Roman-44"/>
      <path d="M 64.40625 67.28125 
L 64.40625 56.890625 
Q 59.421875 61.53125 53.78125 63.8125 
Q 48.140625 66.109375 41.796875 66.109375 
Q 29.296875 66.109375 22.65625 58.46875 
Q 16.015625 50.828125 16.015625 36.375 
Q 16.015625 21.96875 22.65625 14.328125 
Q 29.296875 6.6875 41.796875 6.6875 
Q 48.140625 6.6875 53.78125 8.984375 
Q 59.421875 11.28125 64.40625 15.921875 
L 64.40625 5.609375 
Q 59.234375 2.09375 53.4375 0.328125 
Q 47.65625 -1.421875 41.21875 -1.421875 
Q 24.65625 -1.421875 15.125 8.703125 
Q 5.609375 18.84375 5.609375 36.375 
Q 5.609375 53.953125 15.125 64.078125 
Q 24.65625 74.21875 41.21875 74.21875 
Q 47.75 74.21875 53.53125 72.484375 
Q 59.328125 70.75 64.40625 67.28125 
" id="BitstreamVeraSans-Roman-43"/>
      <path d="M 56.203125 29.59375 
L 56.203125 25.203125 
L 14.890625 25.203125 
Q 15.484375 15.921875 20.484375 11.0625 
Q 25.484375 6.203125 34.421875 6.203125 
Q 39.59375 6.203125 44.453125 7.46875 
Q 49.3125 8.734375 54.109375 11.28125 
L 54.109375 2.78125 
Q 49.265625 0.734375 44.1875 -0.34375 
Q 39.109375 -1.421875 33.890625 -1.421875 
Q 20.796875 -1.421875 13.15625 6.1875 
Q 5.515625 13.8125 5.515625 26.8125 
Q 5.515625 40.234375 12.765625 48.109375 
Q 20.015625 56 32.328125 56 
Q 43.359375 56 49.78125 48.890625 
Q 56.203125 41.796875 56.203125 29.59375 
M 47.21875 32.234375 
Q 47.125 39.59375 43.09375 43.984375 
Q 39.0625 48.390625 32.421875 48.390625 
Q 24.90625 48.390625 20.390625 44.140625 
Q 15.875 39.890625 15.1875 32.171875 
z
" id="BitstreamVeraSans-Roman-65"/>
      <path d="M 45.40625 46.390625 
L 45.40625 75.984375 
L 54.390625 75.984375 
L 54.390625 0 
L 45.40625 0 
L 45.40625 8.203125 
Q 42.578125 3.328125 38.25 0.953125 
Q 33.9375 -1.421875 27.875 -1.421875 
Q 17.96875 -1.421875 11.734375 6.484375 
Q 5.515625 14.40625 5.515625 27.296875 
Q 5.515625 40.1875 11.734375 48.09375 
Q 17.96875 56 27.875 56 
Q 33.9375 56 38.25 53.625 
Q 42.578125 51.265625 45.40625 46.390625 
M 14.796875 27.296875 
Q 14.796875 17.390625 18.875 11.75 
Q 22.953125 6.109375 30.078125 6.109375 
Q 37.203125 6.109375 41.296875 11.75 
Q 45.40625 17.390625 45.40625 27.296875 
Q 45.40625 37.203125 41.296875 42.84375 
Q 37.203125 48.484375 30.078125 48.484375 
Q 22.953125 48.484375 18.875 42.84375 
Q 14.796875 37.203125 14.796875 27.296875 
" id="BitstreamVeraSans-Roman-64"/>
      <path d="M 34.28125 27.484375 
Q 23.390625 27.484375 19.1875 25 
Q 14.984375 22.515625 14.984375 16.5 
Q 14.984375 11.71875 18.140625 8.90625 
Q 21.296875 6.109375 26.703125 6.109375 
Q 34.1875 6.109375 38.703125 11.40625 
Q 43.21875 16.703125 43.21875 25.484375 
L 43.21875 27.484375 
z
M 52.203125 31.203125 
L 52.203125 0 
L 43.21875 0 
L 43.21875 8.296875 
Q 40.140625 3.328125 35.546875 0.953125 
Q 30.953125 -1.421875 24.3125 -1.421875 
Q 15.921875 -1.421875 10.953125 3.296875 
Q 6 8.015625 6 15.921875 
Q 6 25.140625 12.171875 29.828125 
Q 18.359375 34.515625 30.609375 34.515625 
L 43.21875 34.515625 
L 43.21875 35.40625 
Q 43.21875 41.609375 39.140625 45 
Q 35.0625 48.390625 27.6875 48.390625 
Q 23 48.390625 18.546875 47.265625 
Q 14.109375 46.140625 10.015625 43.890625 
L 10.015625 52.203125 
Q 14.9375 54.109375 19.578125 55.046875 
Q 24.21875 56 28.609375 56 
Q 40.484375 56 46.34375 49.84375 
Q 52.203125 43.703125 52.203125 31.203125 
" id="BitstreamVeraSans-Roman-61"/>
      <path d="M 8.5 21.578125 
L 8.5 54.6875 
L 17.484375 54.6875 
L 17.484375 21.921875 
Q 17.484375 14.15625 20.5 10.265625 
Q 23.53125 6.390625 29.59375 6.390625 
Q 36.859375 6.390625 41.078125 11.03125 
Q 45.3125 15.671875 45.3125 23.6875 
L 45.3125 54.6875 
L 54.296875 54.6875 
L 54.296875 0 
L 45.3125 0 
L 45.3125 8.40625 
Q 42.046875 3.421875 37.71875 1 
Q 33.40625 -1.421875 27.6875 -1.421875 
Q 18.265625 -1.421875 13.375 4.4375 
Q 8.5 10.296875 8.5 21.578125 
" id="BitstreamVeraSans-Roman-75"/>
      <path d="M 41.109375 46.296875 
Q 39.59375 47.171875 37.8125 47.578125 
Q 36.03125 48 33.890625 48 
Q 26.265625 48 22.1875 43.046875 
Q 18.109375 38.09375 18.109375 28.8125 
L 18.109375 0 
L 9.078125 0 
L 9.078125 54.6875 
L 18.109375 54.6875 
L 18.109375 46.1875 
Q 20.953125 51.171875 25.484375 53.578125 
Q 30.03125 56 36.53125 56 
Q 37.453125 56 38.578125 55.875 
Q 39.703125 55.765625 41.0625 55.515625 
z
" id="BitstreamVeraSans-Roman-72"/>
     </defs>
     <g transform="translate(14.7984375 194.02359375)rotate(-90.0)scale(0.1 -0.1)">
      <use xlink:href="#BitstreamVeraSans-Roman-74"/>
      <use x="39.208984375" xlink:href="#BitstreamVeraSans-Roman-61"/>
      <use x="100.48828125" xlink:href="#BitstreamVeraSans-Roman-75"/>
      <use x="163.8671875" xlink:href="#BitstreamVeraSans-Roman-5f"/>
      <use x="213.8671875" xlink:href="#BitstreamVeraSans-Roman-31"/>
      <use x="277.490234375" xlink:href="#BitstreamVeraSans-Roman-20"/>
      <use x="309.27734375" xlink:href="#BitstreamVeraSans-Roman-28"/>
      <use x="348.291015625" xlink:href="#BitstreamVeraSans-Roman-72"/>
      <use x="389.373046875" xlink:href="#BitstreamVeraSans-Roman-65"/>
      <use x="450.896484375" xlink:href="#BitstreamVeraSans-Roman-64"/>
      <use x="514.373046875" xlink:href="#BitstreamVeraSans-Roman-29"/>
      <use x="553.38671875" xlink:href="#BitstreamVeraSans-Roman-2c"/>
      <use x="585.173828125" xlink:href="#BitstreamVeraSans-Roman-20"/>
      <use x="616.9609375" xlink:href="#BitstreamVeraSans-Roman-43"/>
      <use x="686.78515625" xlink:href="#BitstreamVeraSans-Roman-44"/>
      <use x="763.787109375" xlink:href="#BitstreamVeraSans-Roman-46"/>
      <use x="821.306640625" xlink:href="#BitstreamVeraSans-Roman-20"/>
      <use x="853.09375" xlink:href="#BitstreamVeraSans-Roman-28"/>
      <use x="892.107421875" xlink:href="#BitstreamVeraSans-Roman-67"/>
      <use x="955.583984375" xlink:href="#BitstreamVeraSans-Roman-72"/>
      <use x="996.666015625" xlink:href="#BitstreamVeraSans-Roman-65"/>
      <use x="1058.18945312" xlink:href="#BitstreamVeraSans-Roman-65"/>
      <use x="1119.71289062" xlink:href="#BitstreamVeraSans-Roman-6e"/>
      <use x="1183.09179688" xlink:href="#BitstreamVeraSans-Roman-29"/>
     </g>
    </g>
   </g>
   <g id="text_17">
    <!-- -20 - 119 percent unfolding -->
    <defs>
     <path d="M 10.984375 1.515625 
L 10.984375 10.5 
Q 14.703125 8.734375 18.5 7.8125 
Q 22.3125 6.890625 25.984375 6.890625 
Q 35.75 6.890625 40.890625 13.453125 
Q 46.046875 20.015625 46.78125 33.40625 
Q 43.953125 29.203125 39.59375 26.953125 
Q 35.25 24.703125 29.984375 24.703125 
Q 19.046875 24.703125 12.671875 31.3125 
Q 6.296875 37.9375 6.296875 49.421875 
Q 6.296875 60.640625 12.9375 67.421875 
Q 19.578125 74.21875 30.609375 74.21875 
Q 43.265625 74.21875 49.921875 64.515625 
Q 56.59375 54.828125 56.59375 36.375 
Q 56.59375 19.140625 48.40625 8.859375 
Q 40.234375 -1.421875 26.421875 -1.421875 
Q 22.703125 -1.421875 18.890625 -0.6875 
Q 15.09375 0.046875 10.984375 1.515625 
M 30.609375 32.421875 
Q 37.25 32.421875 41.125 36.953125 
Q 45.015625 41.5 45.015625 49.421875 
Q 45.015625 57.28125 41.125 61.84375 
Q 37.25 66.40625 30.609375 66.40625 
Q 23.96875 66.40625 20.09375 61.84375 
Q 16.21875 57.28125 16.21875 49.421875 
Q 16.21875 41.5 20.09375 36.953125 
Q 23.96875 32.421875 30.609375 32.421875 
" id="BitstreamVeraSans-Roman-39"/>
     <path d="M 18.109375 8.203125 
L 18.109375 -20.796875 
L 9.078125 -20.796875 
L 9.078125 54.6875 
L 18.109375 54.6875 
L 18.109375 46.390625 
Q 20.953125 51.265625 25.265625 53.625 
Q 29.59375 56 35.59375 56 
Q 45.5625 56 51.78125 48.09375 
Q 58.015625 40.1875 58.015625 27.296875 
Q 58.015625 14.40625 51.78125 6.484375 
Q 45.5625 -1.421875 35.59375 -1.421875 
Q 29.59375 -1.421875 25.265625 0.953125 
Q 20.953125 3.328125 18.109375 8.203125 
M 48.6875 27.296875 
Q 48.6875 37.203125 44.609375 42.84375 
Q 40.53125 48.484375 33.40625 48.484375 
Q 26.265625 48.484375 22.1875 42.84375 
Q 18.109375 37.203125 18.109375 27.296875 
Q 18.109375 17.390625 22.1875 11.75 
Q 26.265625 6.109375 33.40625 6.109375 
Q 40.53125 6.109375 44.609375 11.75 
Q 48.6875 17.390625 48.6875 27.296875 
" id="BitstreamVeraSans-Roman-70"/>
     <path d="M 30.609375 48.390625 
Q 23.390625 48.390625 19.1875 42.75 
Q 14.984375 37.109375 14.984375 27.296875 
Q 14.984375 17.484375 19.15625 11.84375 
Q 23.34375 6.203125 30.609375 6.203125 
Q 37.796875 6.203125 41.984375 11.859375 
Q 46.1875 17.53125 46.1875 27.296875 
Q 46.1875 37.015625 41.984375 42.703125 
Q 37.796875 48.390625 30.609375 48.390625 
M 30.609375 56 
Q 42.328125 56 49.015625 48.375 
Q 55.71875 40.765625 55.71875 27.296875 
Q 55.71875 13.875 49.015625 6.21875 
Q 42.328125 -1.421875 30.609375 -1.421875 
Q 18.84375 -1.421875 12.171875 6.21875 
Q 5.515625 13.875 5.515625 27.296875 
Q 5.515625 40.765625 12.171875 48.375 
Q 18.84375 56 30.609375 56 
" id="BitstreamVeraSans-Roman-6f"/>
     <path d="M 4.890625 31.390625 
L 31.203125 31.390625 
L 31.203125 23.390625 
L 4.890625 23.390625 
z
" id="BitstreamVeraSans-Roman-2d"/>
     <path d="M 37.109375 75.984375 
L 37.109375 68.5 
L 28.515625 68.5 
Q 23.6875 68.5 21.796875 66.546875 
Q 19.921875 64.59375 19.921875 59.515625 
L 19.921875 54.6875 
L 34.71875 54.6875 
L 34.71875 47.703125 
L 19.921875 47.703125 
L 19.921875 0 
L 10.890625 0 
L 10.890625 47.703125 
L 2.296875 47.703125 
L 2.296875 54.6875 
L 10.890625 54.6875 
L 10.890625 58.5 
Q 10.890625 67.625 15.140625 71.796875 
Q 19.390625 75.984375 28.609375 75.984375 
z
" id="BitstreamVeraSans-Roman-66"/>
     <path d="M 48.78125 52.59375 
L 48.78125 44.1875 
Q 44.96875 46.296875 41.140625 47.34375 
Q 37.3125 48.390625 33.40625 48.390625 
Q 24.65625 48.390625 19.8125 42.84375 
Q 14.984375 37.3125 14.984375 27.296875 
Q 14.984375 17.28125 19.8125 11.734375 
Q 24.65625 6.203125 33.40625 6.203125 
Q 37.3125 6.203125 41.140625 7.25 
Q 44.96875 8.296875 48.78125 10.40625 
L 48.78125 2.09375 
Q 45.015625 0.34375 40.984375 -0.53125 
Q 36.96875 -1.421875 32.421875 -1.421875 
Q 20.0625 -1.421875 12.78125 6.34375 
Q 5.515625 14.109375 5.515625 27.296875 
Q 5.515625 40.671875 12.859375 48.328125 
Q 20.21875 56 33.015625 56 
Q 37.15625 56 41.109375 55.140625 
Q 45.0625 54.296875 48.78125 52.59375 
" id="BitstreamVeraSans-Roman-63"/>
    </defs>
    <g transform="translate(127.1609375 16.318125)scale(0.12 -0.12)">
     <use xlink:href="#BitstreamVeraSans-Roman-2d"/>
     <use x="36.083984375" xlink:href="#BitstreamVeraSans-Roman-32"/>
     <use x="99.70703125" xlink:href="#BitstreamVeraSans-Roman-30"/>
     <use x="163.330078125" xlink:href="#BitstreamVeraSans-Roman-20"/>
     <use x="195.1171875" xlink:href="#BitstreamVeraSans-Roman-2d"/>
     <use x="231.201171875" xlink:href="#BitstreamVeraSans-Roman-20"/>
     <use x="262.98828125" xlink:href="#BitstreamVeraSans-Roman-31"/>
     <use x="326.611328125" xlink:href="#BitstreamVeraSans-Roman-31"/>
     <use x="390.234375" xlink:href="#BitstreamVeraSans-Roman-39"/>
     <use x="453.857421875" xlink:href="#BitstreamVeraSans-Roman-20"/>
     <use x="485.64453125" xlink:href="#BitstreamVeraSans-Roman-70"/>
     <use x="549.12109375" xlink:href="#BitstreamVeraSans-Roman-65"/>
     <use x="610.64453125" xlink:href="#BitstreamVeraSans-Roman-72"/>
     <use x="651.7265625" xlink:href="#BitstreamVeraSans-Roman-63"/>
     <use x="706.70703125" xlink:href="#BitstreamVeraSans-Roman-65"/>
     <use x="768.23046875" xlink:href="#BitstreamVeraSans-Roman-6e"/>
     <use x="831.609375" xlink:href="#BitstreamVeraSans-Roman-74"/>
     <use x="870.818359375" xlink:href="#BitstreamVeraSans-Roman-20"/>
     <use x="902.60546875" xlink:href="#BitstreamVeraSans-Roman-75"/>
     <use x="965.984375" xlink:href="#BitstreamVeraSans-Roman-6e"/>
     <use x="1029.36328125" xlink:href="#BitstreamVeraSans-Roman-66"/>
     <use x="1064.56835938" xlink:href="#BitstreamVeraSans-Roman-6f"/>
     <use x="1125.75" xlink:href="#BitstreamVeraSans-Roman-6c"/>
     <use x="1153.53320312" xlink:href="#BitstreamVeraSans-Roman-64"/>
     <use x="1217.00976562" xlink:href="#BitstreamVeraSans-Roman-69"/>
     <use x="1244.79296875" xlink:href="#BitstreamVeraSans-Roman-6e"/>
     <use x="1308.171875" xlink:href="#BitstreamVeraSans-Roman-67"/>
    </g>
   </g>
  </g>
 </g>
 <defs>
  <clipPath id="p0bf1846e7c">
   <rect height="223.2" width="334.8" x="42.059375" y="21.318125"/>
  </clipPath>
 </defs>
</svg>
