<?xml version="1.0" encoding="utf-8" standalone="no"?>
<!DOCTYPE svg PUBLIC "-//W3C//DTD SVG 1.1//EN"
  "http://www.w3.org/Graphics/SVG/1.1/DTD/svg11.dtd">
<!-- Created with matplotlib (http://matplotlib.org/) -->
<svg height="367pt" version="1.1" viewBox="0 0 429 367" width="429pt" xmlns="http://www.w3.org/2000/svg" xmlns:xlink="http://www.w3.org/1999/xlink">
 <defs>
  <style type="text/css">
*{stroke-linecap:butt;stroke-linejoin:round;stroke-miterlimit:100000;}
  </style>
 </defs>
 <g id="figure_1">
  <g id="patch_1">
   <path d="M 0 367.59625 
L 429.55875 367.59625 
L 429.55875 0 
L 0 0 
L 0 367.59625 
z
" style="fill:none;"/>
  </g>
  <g id="axes_1">
   <g id="PathCollection_1">
    <defs>
     <path d="M -2.236068 2.236068 
L 2.236068 2.236068 
L 2.236068 -2.236068 
L -2.236068 -2.236068 
z
" id="mbcc2043a5c" style="stroke:#ff0000;"/>
    </defs>
    <g clip-path="url(#p7df959c1b6)">
     <use style="fill:#ffffff;stroke:#ff0000;" x="201.728120957" xlink:href="#mbcc2043a5c" y="323.003431207"/>
    </g>
   </g>
   <g id="PathCollection_2">
    <g clip-path="url(#p7df959c1b6)">
     <use style="fill:#ffffff;stroke:#ff0000;" x="235.166984843" xlink:href="#mbcc2043a5c" y="217.603685664"/>
    </g>
   </g>
   <g id="PathCollection_3">
    <g clip-path="url(#p7df959c1b6)">
     <use style="fill:#ffffff;stroke:#ff0000;" x="185.322319414" xlink:href="#mbcc2043a5c" y="289.524425211"/>
    </g>
   </g>
   <g id="PathCollection_4">
    <g clip-path="url(#p7df959c1b6)">
     <use style="fill:#ffffff;stroke:#ff0000;" x="179.428022867" xlink:href="#mbcc2043a5c" y="304.526998675"/>
    </g>
   </g>
   <g id="PathCollection_5">
    <g clip-path="url(#p7df959c1b6)">
     <use style="fill:#ffffff;stroke:#ff0000;" x="196.581086263" xlink:href="#mbcc2043a5c" y="296.451782063"/>
    </g>
   </g>
   <g id="PathCollection_6">
    <g clip-path="url(#p7df959c1b6)">
     <use style="fill:#ffffff;stroke:#ff0000;" x="217.015725364" xlink:href="#mbcc2043a5c" y="293.73275961"/>
    </g>
   </g>
   <g id="PathCollection_7">
    <defs>
     <path d="M -2.236068 2.236068 
L 2.236068 2.236068 
L 2.236068 -2.236068 
L -2.236068 -2.236068 
z
" id="mf8a512333f" style="stroke:#ff0000;"/>
    </defs>
    <g clip-path="url(#p7df959c1b6)">
     <use style="fill:#ff0000;stroke:#ff0000;" x="242.00595545" xlink:href="#mf8a512333f" y="288.662242219"/>
    </g>
   </g>
   <g id="PathCollection_8">
    <g clip-path="url(#p7df959c1b6)">
     <use style="fill:#ff0000;stroke:#ff0000;" x="208.534663254" xlink:href="#mf8a512333f" y="313.564006663"/>
    </g>
   </g>
   <g id="PathCollection_9">
    <g clip-path="url(#p7df959c1b6)">
     <use style="fill:#ff0000;stroke:#ff0000;" x="210.701095529" xlink:href="#mf8a512333f" y="292.963129068"/>
    </g>
   </g>
   <g id="PathCollection_10">
    <g clip-path="url(#p7df959c1b6)">
     <use style="fill:#ff0000;stroke:#ff0000;" x="215.917779125" xlink:href="#mf8a512333f" y="298.501939692"/>
    </g>
   </g>
   <g id="PathCollection_11">
    <g clip-path="url(#p7df959c1b6)">
     <use style="fill:#ff0000;stroke:#ff0000;" x="176.189840849" xlink:href="#mf8a512333f" y="291.955052905"/>
    </g>
   </g>
   <g id="PathCollection_12">
    <g clip-path="url(#p7df959c1b6)">
     <use style="fill:#ffffff;stroke:#ff0000;" x="198.601744943" xlink:href="#mbcc2043a5c" y="325.014606915"/>
    </g>
   </g>
   <g id="PathCollection_13">
    <g clip-path="url(#p7df959c1b6)">
     <use style="fill:#ff0000;stroke:#ff0000;" x="201.014348795" xlink:href="#mf8a512333f" y="301.259674597"/>
    </g>
   </g>
   <g id="PathCollection_14">
    <g clip-path="url(#p7df959c1b6)">
     <use style="fill:#ff0000;stroke:#ff0000;" x="163.733218171" xlink:href="#mf8a512333f" y="313.259144266"/>
    </g>
   </g>
   <g id="PathCollection_15">
    <g clip-path="url(#p7df959c1b6)">
     <use style="fill:#ff0000;stroke:#ff0000;" x="203.588495208" xlink:href="#mf8a512333f" y="298.360846139"/>
    </g>
   </g>
   <g id="PathCollection_16">
    <g clip-path="url(#p7df959c1b6)">
     <use style="fill:#ff0000;stroke:#ff0000;" x="205.448265559" xlink:href="#mf8a512333f" y="298.959145634"/>
    </g>
   </g>
   <g id="PathCollection_17">
    <g clip-path="url(#p7df959c1b6)">
     <use style="fill:#ff0000;stroke:#ff0000;" x="209.071562972" xlink:href="#mf8a512333f" y="301.394152406"/>
    </g>
   </g>
   <g id="PathCollection_18">
    <g clip-path="url(#p7df959c1b6)">
     <use style="fill:#ffffff;stroke:#ff0000;" x="221.154291972" xlink:href="#mbcc2043a5c" y="300.82892658"/>
    </g>
   </g>
   <g id="PathCollection_19">
    <g clip-path="url(#p7df959c1b6)">
     <use style="fill:#ffffff;stroke:#ff0000;" x="235.686239026" xlink:href="#mbcc2043a5c" y="267.880855724"/>
    </g>
   </g>
   <g id="PathCollection_20">
    <g clip-path="url(#p7df959c1b6)">
     <use style="fill:#ff0000;stroke:#ff0000;" x="216.822339308" xlink:href="#mf8a512333f" y="328.945829169"/>
    </g>
   </g>
   <g id="PathCollection_21">
    <g clip-path="url(#p7df959c1b6)">
     <use style="fill:#ff0000;stroke:#ff0000;" x="209.967413028" xlink:href="#mf8a512333f" y="325.171954913"/>
    </g>
   </g>
   <g id="line2d_1">
    <path clip-path="url(#p7df959c1b6)" d="M 214.779375 37.125693 
L 217.348976 37.148065 
L 219.917794 37.215176 
L 225.049952 37.483516 
L 230.169598 37.930385 
L 235.270493 38.55524 
L 240.346422 39.357319 
L 245.391202 40.335645 
L 250.398686 41.489026 
L 255.362774 42.816057 
L 260.277417 44.31512 
L 265.136627 45.984391 
L 269.934485 47.821834 
L 274.665145 49.825211 
L 279.322844 51.992082 
L 283.901906 54.319806 
L 288.396753 56.805547 
L 292.801909 59.446278 
L 297.112006 62.23878 
L 301.321793 65.179651 
L 305.426142 68.265309 
L 309.420052 71.491994 
L 313.298657 74.855774 
L 317.057231 78.352552 
L 320.691195 81.978068 
L 324.196122 85.727903 
L 327.567742 89.59749 
L 330.801946 93.582114 
L 333.894795 97.67692 
L 336.84252 101.876919 
L 339.64153 106.176996 
L 342.288414 110.571909 
L 344.779948 115.056305 
L 347.113097 119.624721 
L 349.285018 124.27159 
L 351.293064 128.991251 
L 353.134789 133.777954 
L 354.807949 138.625867 
L 356.310506 143.529083 
L 357.64063 148.481629 
L 358.796698 153.477471 
L 359.777304 158.510522 
L 360.581253 163.57465 
L 361.207564 168.663685 
L 361.655475 173.771427 
L 361.92444 178.891653 
L 362.014131 184.018125 
L 361.92444 189.144597 
L 361.655475 194.264823 
L 361.207564 199.372565 
L 360.581253 204.4616 
L 359.777304 209.525728 
L 358.796698 214.558779 
L 357.64063 219.554621 
L 356.310506 224.507167 
L 354.807949 229.410383 
L 353.134789 234.258296 
L 351.293064 239.044999 
L 349.285018 243.76466 
L 347.113097 248.411529 
L 344.779948 252.979945 
L 342.288414 257.464341 
L 339.64153 261.859254 
L 336.84252 266.159331 
L 333.894795 270.35933 
L 330.801946 274.454136 
L 327.567742 278.43876 
L 324.196122 282.308347 
L 320.691195 286.058182 
L 317.057231 289.683698 
L 313.298657 293.180476 
L 309.420052 296.544256 
L 305.426142 299.770941 
L 301.321793 302.856599 
L 297.112006 305.79747 
L 292.801909 308.589972 
L 288.396753 311.230703 
L 283.901906 313.716444 
L 279.322844 316.044168 
L 274.665145 318.211039 
L 269.934485 320.214416 
L 265.136627 322.051859 
L 260.277417 323.72113 
L 255.362774 325.220193 
L 250.398686 326.547224 
L 245.391202 327.700605 
L 240.346422 328.678931 
L 235.270493 329.48101 
L 230.169598 330.105865 
L 225.049952 330.552734 
L 219.917794 330.821074 
L 214.779375 330.910557 
L 209.640956 330.821074 
L 204.508798 330.552734 
L 199.389152 330.105865 
L 194.288257 329.48101 
L 189.212328 328.678931 
L 184.167548 327.700605 
L 179.160064 326.547224 
L 174.195976 325.220193 
L 169.281333 323.72113 
L 164.422123 322.051859 
L 159.624265 320.214416 
L 154.893605 318.211039 
L 150.235906 316.044168 
L 145.656844 313.716444 
L 141.161997 311.230703 
L 136.756841 308.589972 
L 132.446744 305.79747 
L 128.236957 302.856599 
L 124.132608 299.770941 
L 120.138698 296.544256 
L 116.260093 293.180476 
L 112.501519 289.683698 
L 108.867555 286.058182 
L 105.362628 282.308347 
L 101.991008 278.43876 
L 98.756804 274.454136 
L 95.663955 270.35933 
L 92.71623 266.159331 
L 89.91722 261.859254 
L 87.270336 257.464341 
L 84.778802 252.979945 
L 82.445653 248.411529 
L 80.273732 243.76466 
L 78.265686 239.044999 
L 76.423961 234.258296 
L 74.750801 229.410383 
L 73.248244 224.507167 
L 71.91812 219.554621 
L 70.762052 214.558779 
L 69.781446 209.525728 
L 68.977497 204.4616 
L 68.351186 199.372565 
L 67.903275 194.264823 
L 67.63431 189.144597 
L 67.544619 184.018125 
L 67.63431 178.891653 
L 67.903275 173.771427 
L 68.351186 168.663685 
L 68.977497 163.57465 
L 69.781446 158.510522 
L 70.762052 153.477471 
L 71.91812 148.481629 
L 73.248244 143.529083 
L 74.750801 138.625867 
L 76.423961 133.777954 
L 78.265686 128.991251 
L 80.273732 124.27159 
L 82.445653 119.624721 
L 84.778802 115.056305 
L 87.270336 110.571909 
L 89.91722 106.176996 
L 92.71623 101.876919 
L 95.663955 97.67692 
L 98.756804 93.582114 
L 101.991008 89.59749 
L 105.362628 85.727903 
L 108.867555 81.978068 
L 112.501519 78.352552 
L 116.260093 74.855774 
L 120.138698 71.491994 
L 124.132608 68.265309 
L 128.236957 65.179651 
L 132.446744 62.23878 
L 136.756841 59.446278 
L 141.161997 56.805547 
L 145.656844 54.319806 
L 150.235906 51.992082 
L 154.893605 49.825211 
L 159.624265 47.821834 
L 164.422123 45.984391 
L 169.281333 44.31512 
L 174.195976 42.816057 
L 179.160064 41.489026 
L 184.167548 40.335645 
L 189.212328 39.357319 
L 194.288257 38.55524 
L 199.389152 37.930385 
L 204.508798 37.483516 
L 209.640956 37.215176 
L 214.779375 37.125693 
L 214.779375 37.125693 
" style="fill:none;stroke:#000000;stroke-linecap:square;"/>
   </g>
   <g id="line2d_2">
    <defs>
     <path d="M -3 0 
L 3 0 
M 0 3 
L 0 -3 
" id="m2a79a252fe" style="stroke:#000000;stroke-width:0.5;"/>
    </defs>
    <g clip-path="url(#p7df959c1b6)">
     <use style="stroke:#000000;stroke-width:0.5;" x="214.779375" xlink:href="#m2a79a252fe" y="50.4871820915"/>
     <use style="stroke:#000000;stroke-width:0.5;" x="214.779375" xlink:href="#m2a79a252fe" y="64.8649222595"/>
     <use style="stroke:#000000;stroke-width:0.5;" x="214.779375" xlink:href="#m2a79a252fe" y="80.1494902471"/>
     <use style="stroke:#000000;stroke-width:0.5;" x="214.779375" xlink:href="#m2a79a252fe" y="96.2245612627"/>
     <use style="stroke:#000000;stroke-width:0.5;" x="214.779375" xlink:href="#m2a79a252fe" y="112.96779431"/>
     <use style="stroke:#000000;stroke-width:0.5;" x="214.779375" xlink:href="#m2a79a252fe" y="130.251763274"/>
     <use style="stroke:#000000;stroke-width:0.5;" x="214.779375" xlink:href="#m2a79a252fe" y="147.944926717"/>
     <use style="stroke:#000000;stroke-width:0.5;" x="214.779375" xlink:href="#m2a79a252fe" y="165.91262898"/>
     <use style="stroke:#000000;stroke-width:0.5;" x="214.779375" xlink:href="#m2a79a252fe" y="184.018125"/>
    </g>
   </g>
   <g id="line2d_3">
    <g clip-path="url(#p7df959c1b6)">
     <use style="stroke:#000000;stroke-width:0.5;" x="348.621503873" xlink:href="#m2a79a252fe" y="184.018125"/>
     <use style="stroke:#000000;stroke-width:0.5;" x="334.210257232" xlink:href="#m2a79a252fe" y="184.018125"/>
     <use style="stroke:#000000;stroke-width:0.5;" x="318.890069463" xlink:href="#m2a79a252fe" y="184.018125"/>
     <use style="stroke:#000000;stroke-width:0.5;" x="302.777536445" xlink:href="#m2a79a252fe" y="184.018125"/>
     <use style="stroke:#000000;stroke-width:0.5;" x="285.995284284" xlink:href="#m2a79a252fe" y="184.018125"/>
     <use style="stroke:#000000;stroke-width:0.5;" x="268.671036052" xlink:href="#m2a79a252fe" y="184.018125"/>
     <use style="stroke:#000000;stroke-width:0.5;" x="250.936639738" xlink:href="#m2a79a252fe" y="184.018125"/>
     <use style="stroke:#000000;stroke-width:0.5;" x="232.927064808" xlink:href="#m2a79a252fe" y="184.018125"/>
    </g>
   </g>
   <g id="line2d_4">
    <g clip-path="url(#p7df959c1b6)">
     <use style="stroke:#000000;stroke-width:0.5;" x="214.779375" xlink:href="#m2a79a252fe" y="317.549067908"/>
     <use style="stroke:#000000;stroke-width:0.5;" x="214.779375" xlink:href="#m2a79a252fe" y="303.17132774"/>
     <use style="stroke:#000000;stroke-width:0.5;" x="214.779375" xlink:href="#m2a79a252fe" y="287.886759753"/>
     <use style="stroke:#000000;stroke-width:0.5;" x="214.779375" xlink:href="#m2a79a252fe" y="271.811688737"/>
     <use style="stroke:#000000;stroke-width:0.5;" x="214.779375" xlink:href="#m2a79a252fe" y="255.06845569"/>
     <use style="stroke:#000000;stroke-width:0.5;" x="214.779375" xlink:href="#m2a79a252fe" y="237.784486726"/>
     <use style="stroke:#000000;stroke-width:0.5;" x="214.779375" xlink:href="#m2a79a252fe" y="220.091323283"/>
     <use style="stroke:#000000;stroke-width:0.5;" x="214.779375" xlink:href="#m2a79a252fe" y="202.12362102"/>
    </g>
   </g>
   <g id="line2d_5">
    <g clip-path="url(#p7df959c1b6)">
     <use style="stroke:#000000;stroke-width:0.5;" x="80.9372461267" xlink:href="#m2a79a252fe" y="184.018125"/>
     <use style="stroke:#000000;stroke-width:0.5;" x="95.3484927678" xlink:href="#m2a79a252fe" y="184.018125"/>
     <use style="stroke:#000000;stroke-width:0.5;" x="110.668680537" xlink:href="#m2a79a252fe" y="184.018125"/>
     <use style="stroke:#000000;stroke-width:0.5;" x="126.781213555" xlink:href="#m2a79a252fe" y="184.018125"/>
     <use style="stroke:#000000;stroke-width:0.5;" x="143.563465716" xlink:href="#m2a79a252fe" y="184.018125"/>
     <use style="stroke:#000000;stroke-width:0.5;" x="160.887713948" xlink:href="#m2a79a252fe" y="184.018125"/>
     <use style="stroke:#000000;stroke-width:0.5;" x="178.622110262" xlink:href="#m2a79a252fe" y="184.018125"/>
     <use style="stroke:#000000;stroke-width:0.5;" x="196.631685192" xlink:href="#m2a79a252fe" y="184.018125"/>
    </g>
   </g>
   <g id="line2d_6">
    <path clip-path="url(#p7df959c1b6)" d="M 214.779375 37.125693 
L 214.779375 38.413148 
L 214.779375 39.711692 
L 214.779375 41.021225 
" style="fill:none;stroke:#000000;stroke-linecap:square;"/>
   </g>
   <g id="line2d_7">
    <path clip-path="url(#p7df959c1b6)" d="M 240.346422 39.357319 
L 240.122337 40.625215 
L 239.896322 41.904031 
L 239.668394 43.193669 
" style="fill:none;stroke:#000000;stroke-linecap:square;"/>
   </g>
   <g id="line2d_8">
    <path clip-path="url(#p7df959c1b6)" d="M 265.136627 45.984391 
L 264.695266 47.194203 
L 264.250102 48.414435 
L 263.801172 49.644993 
" style="fill:none;stroke:#000000;stroke-linecap:square;"/>
   </g>
   <g id="line2d_9">
    <path clip-path="url(#p7df959c1b6)" d="M 288.396753 56.805547 
L 287.751525 57.920516 
L 287.10074 59.045088 
L 286.444448 60.179177 
" style="fill:none;stroke:#000000;stroke-linecap:square;"/>
   </g>
   <g id="line2d_10">
    <path clip-path="url(#p7df959c1b6)" d="M 309.420052 71.491994 
L 308.590563 72.478242 
L 307.75393 73.472984 
L 306.910217 74.476144 
" style="fill:none;stroke:#000000;stroke-linecap:square;"/>
   </g>
   <g id="line2d_11">
    <path clip-path="url(#p7df959c1b6)" d="M 327.567742 89.59749 
L 326.579195 90.42505 
L 325.582135 91.259738 
L 324.576637 92.101489 
" style="fill:none;stroke:#000000;stroke-linecap:square;"/>
   </g>
   <g id="line2d_12">
    <path clip-path="url(#p7df959c1b6)" d="M 342.288414 110.571909 
L 341.170847 111.215637 
L 340.043654 111.864908 
L 338.906922 112.519675 
" style="fill:none;stroke:#000000;stroke-linecap:square;"/>
   </g>
   <g id="line2d_13">
    <path clip-path="url(#p7df959c1b6)" d="M 353.134789 133.777954 
L 351.922157 134.21829 
L 350.699082 134.662418 
L 349.465655 135.110305 
" style="fill:none;stroke:#000000;stroke-linecap:square;"/>
   </g>
   <g id="line2d_14">
    <path clip-path="url(#p7df959c1b6)" d="M 359.777304 158.510522 
L 358.506454 158.734086 
L 357.224658 158.959576 
L 355.932014 159.186974 
" style="fill:none;stroke:#000000;stroke-linecap:square;"/>
   </g>
   <g id="line2d_15">
    <path clip-path="url(#p7df959c1b6)" d="M 362.014131 184.018125 
L 360.723676 184.018125 
L 359.422106 184.018125 
L 358.109521 184.018125 
" style="fill:none;stroke:#000000;stroke-linecap:square;"/>
   </g>
   <g id="line2d_16">
    <path clip-path="url(#p7df959c1b6)" d="M 359.777304 209.525728 
L 358.506454 209.302164 
L 357.224658 209.076674 
L 355.932014 208.849276 
" style="fill:none;stroke:#000000;stroke-linecap:square;"/>
   </g>
   <g id="line2d_17">
    <path clip-path="url(#p7df959c1b6)" d="M 353.134789 234.258296 
L 351.922157 233.81796 
L 350.699082 233.373832 
L 349.465655 232.925945 
" style="fill:none;stroke:#000000;stroke-linecap:square;"/>
   </g>
   <g id="line2d_18">
    <path clip-path="url(#p7df959c1b6)" d="M 342.288414 257.464341 
L 341.170847 256.820613 
L 340.043654 256.171342 
L 338.906922 255.516575 
" style="fill:none;stroke:#000000;stroke-linecap:square;"/>
   </g>
   <g id="line2d_19">
    <path clip-path="url(#p7df959c1b6)" d="M 327.567742 278.43876 
L 326.579195 277.6112 
L 325.582135 276.776512 
L 324.576637 275.934761 
" style="fill:none;stroke:#000000;stroke-linecap:square;"/>
   </g>
   <g id="line2d_20">
    <path clip-path="url(#p7df959c1b6)" d="M 309.420052 296.544256 
L 308.590563 295.558008 
L 307.75393 294.563266 
L 306.910217 293.560106 
" style="fill:none;stroke:#000000;stroke-linecap:square;"/>
   </g>
   <g id="line2d_21">
    <path clip-path="url(#p7df959c1b6)" d="M 288.396753 311.230703 
L 287.751525 310.115734 
L 287.10074 308.991162 
L 286.444448 307.857073 
" style="fill:none;stroke:#000000;stroke-linecap:square;"/>
   </g>
   <g id="line2d_22">
    <path clip-path="url(#p7df959c1b6)" d="M 265.136627 322.051859 
L 264.695266 320.842047 
L 264.250102 319.621815 
L 263.801172 318.391257 
" style="fill:none;stroke:#000000;stroke-linecap:square;"/>
   </g>
   <g id="line2d_23">
    <path clip-path="url(#p7df959c1b6)" d="M 240.346422 328.678931 
L 240.122337 327.411035 
L 239.896322 326.132219 
L 239.668394 324.842581 
" style="fill:none;stroke:#000000;stroke-linecap:square;"/>
   </g>
   <g id="line2d_24">
    <path clip-path="url(#p7df959c1b6)" d="M 214.779375 330.910557 
L 214.779375 329.623102 
L 214.779375 328.324558 
L 214.779375 327.015025 
" style="fill:none;stroke:#000000;stroke-linecap:square;"/>
   </g>
   <g id="line2d_25">
    <path clip-path="url(#p7df959c1b6)" d="M 189.212328 328.678931 
L 189.436413 327.411035 
L 189.662428 326.132219 
L 189.890356 324.842581 
" style="fill:none;stroke:#000000;stroke-linecap:square;"/>
   </g>
   <g id="line2d_26">
    <path clip-path="url(#p7df959c1b6)" d="M 164.422123 322.051859 
L 164.863484 320.842047 
L 165.308648 319.621815 
L 165.757578 318.391257 
" style="fill:none;stroke:#000000;stroke-linecap:square;"/>
   </g>
   <g id="line2d_27">
    <path clip-path="url(#p7df959c1b6)" d="M 141.161997 311.230703 
L 141.807225 310.115734 
L 142.45801 308.991162 
L 143.114302 307.857073 
" style="fill:none;stroke:#000000;stroke-linecap:square;"/>
   </g>
   <g id="line2d_28">
    <path clip-path="url(#p7df959c1b6)" d="M 120.138698 296.544256 
L 120.968187 295.558008 
L 121.80482 294.563266 
L 122.648533 293.560106 
" style="fill:none;stroke:#000000;stroke-linecap:square;"/>
   </g>
   <g id="line2d_29">
    <path clip-path="url(#p7df959c1b6)" d="M 101.991008 278.43876 
L 102.979555 277.6112 
L 103.976615 276.776512 
L 104.982113 275.934761 
" style="fill:none;stroke:#000000;stroke-linecap:square;"/>
   </g>
   <g id="line2d_30">
    <path clip-path="url(#p7df959c1b6)" d="M 87.270336 257.464341 
L 88.387903 256.820613 
L 89.515096 256.171342 
L 90.651828 255.516575 
" style="fill:none;stroke:#000000;stroke-linecap:square;"/>
   </g>
   <g id="line2d_31">
    <path clip-path="url(#p7df959c1b6)" d="M 76.423961 234.258296 
L 77.636593 233.81796 
L 78.859668 233.373832 
L 80.093095 232.925945 
" style="fill:none;stroke:#000000;stroke-linecap:square;"/>
   </g>
   <g id="line2d_32">
    <path clip-path="url(#p7df959c1b6)" d="M 69.781446 209.525728 
L 71.052296 209.302164 
L 72.334092 209.076674 
L 73.626736 208.849276 
" style="fill:none;stroke:#000000;stroke-linecap:square;"/>
   </g>
   <g id="line2d_33">
    <path clip-path="url(#p7df959c1b6)" d="M 67.544619 184.018125 
L 68.835074 184.018125 
L 70.136644 184.018125 
L 71.449229 184.018125 
" style="fill:none;stroke:#000000;stroke-linecap:square;"/>
   </g>
   <g id="line2d_34">
    <path clip-path="url(#p7df959c1b6)" d="M 69.781446 158.510522 
L 71.052296 158.734086 
L 72.334092 158.959576 
L 73.626736 159.186974 
" style="fill:none;stroke:#000000;stroke-linecap:square;"/>
   </g>
   <g id="line2d_35">
    <path clip-path="url(#p7df959c1b6)" d="M 76.423961 133.777954 
L 77.636593 134.21829 
L 78.859668 134.662418 
L 80.093095 135.110305 
" style="fill:none;stroke:#000000;stroke-linecap:square;"/>
   </g>
   <g id="line2d_36">
    <path clip-path="url(#p7df959c1b6)" d="M 87.270336 110.571909 
L 88.387903 111.215637 
L 89.515096 111.864908 
L 90.651828 112.519675 
" style="fill:none;stroke:#000000;stroke-linecap:square;"/>
   </g>
   <g id="line2d_37">
    <path clip-path="url(#p7df959c1b6)" d="M 101.991008 89.59749 
L 102.979555 90.42505 
L 103.976615 91.259738 
L 104.982113 92.101489 
" style="fill:none;stroke:#000000;stroke-linecap:square;"/>
   </g>
   <g id="line2d_38">
    <path clip-path="url(#p7df959c1b6)" d="M 120.138698 71.491994 
L 120.968187 72.478242 
L 121.80482 73.472984 
L 122.648533 74.476144 
" style="fill:none;stroke:#000000;stroke-linecap:square;"/>
   </g>
   <g id="line2d_39">
    <path clip-path="url(#p7df959c1b6)" d="M 141.161997 56.805547 
L 141.807225 57.920516 
L 142.45801 59.045088 
L 143.114302 60.179177 
" style="fill:none;stroke:#000000;stroke-linecap:square;"/>
   </g>
   <g id="line2d_40">
    <path clip-path="url(#p7df959c1b6)" d="M 164.422123 45.984391 
L 164.863484 47.194203 
L 165.308648 48.414435 
L 165.757578 49.644993 
" style="fill:none;stroke:#000000;stroke-linecap:square;"/>
   </g>
   <g id="line2d_41">
    <path clip-path="url(#p7df959c1b6)" d="M 189.212328 39.357319 
L 189.436413 40.625215 
L 189.662428 41.904031 
L 189.890356 43.193669 
" style="fill:none;stroke:#000000;stroke-linecap:square;"/>
   </g>
   <g id="line2d_42">
    <path clip-path="url(#p7df959c1b6)" d="M 187.769977 321.024886 
L 187.712285 321.505569 
L 187.70992 321.993437 
L 187.763371 322.486595 
L 187.872908 322.983081 
L 188.038574 323.480868 
L 188.260175 323.97788 
L 188.537275 324.471994 
L 188.869188 324.961052 
L 189.254977 325.442875 
L 189.693444 325.915271 
L 190.183133 326.376051 
L 190.72233 326.823038 
L 191.309062 327.254089 
L 191.941105 327.667103 
L 192.615985 328.060037 
L 193.330992 328.430926 
L 194.083184 328.777893 
L 194.869407 329.099169 
L 195.686304 329.393103 
L 196.530336 329.658177 
L 197.400066 329.873992 
L 198.309511 329.877989 
L 199.226069 329.905677 
L 200.146653 329.956886 
L 201.068168 330.031398 
L 201.98752 330.128948 
L 202.901618 330.249222 
L 203.807381 330.391863 
L 204.701745 330.556463 
L 205.59652 330.505573 
L 206.475214 330.401517 
L 207.332619 330.264077 
L 208.164974 330.094086 
L 208.968673 329.892544 
L 209.740288 329.660606 
L 210.476578 329.39957 
L 211.174515 329.110867 
L 211.831288 328.796044 
L 212.44432 328.456752 
L 213.011272 328.094735 
L 213.530057 327.711811 
L 213.998835 327.309862 
L 214.416023 326.89082 
L 214.780292 326.456654 
L 215.090567 326.009356 
L 215.346025 325.55093 
L 215.546088 325.083382 
L 215.690423 324.60871 
L 215.778927 324.128893 
L 215.811729 323.645884 
L 215.789177 323.161601 
L 215.711827 322.677923 
L 215.580438 322.19668 
L 215.395962 321.719653 
L 215.15953 321.248566 
L 214.872448 320.785082 
L 214.53618 320.330803 
L 214.152346 319.887268 
L 213.722706 319.455946 
L 213.249152 319.038241 
L 212.733699 318.635487 
L 212.178478 318.248948 
L 211.585721 317.879819 
L 210.957759 317.529226 
L 210.297011 317.198224 
L 209.605973 316.8878 
L 208.887215 316.59887 
L 208.143373 316.332284 
L 207.377137 316.088821 
L 206.591249 315.869193 
L 205.788496 315.674046 
L 204.971699 315.503955 
L 204.143713 315.35943 
L 203.307416 315.240913 
L 202.465703 315.148778 
L 201.621484 315.083333 
L 200.777675 315.044814 
L 199.93719 315.033391 
L 199.10294 315.049162 
L 198.277824 315.092157 
L 197.464723 315.16233 
L 196.666494 315.259566 
L 195.885964 315.383673 
L 195.125923 315.534383 
L 194.389117 315.71135 
L 193.678242 315.914149 
L 192.995937 316.142275 
L 192.344773 316.395137 
L 191.727249 316.672062 
L 191.145784 316.972291 
L 190.602704 317.294973 
L 190.10024 317.639173 
L 189.64051 318.003863 
L 189.22552 318.387923 
L 188.857144 318.790142 
L 188.537123 319.20922 
L 188.267047 319.643761 
L 188.04835 320.092281 
L 187.882298 320.55321 
L 187.769977 321.024886 
" style="fill:none;stroke:#ff0000;stroke-linecap:square;"/>
   </g>
   <g id="line2d_43">
    <path clip-path="url(#p7df959c1b6)" d="M 152.907008 253.852392 
L 155.41869 258.616632 
L 158.251407 263.234289 
L 161.399359 267.68445 
L 164.855216 271.946169 
L 168.610047 275.99857 
L 172.653257 279.82097 
L 176.972535 283.39302 
L 181.553815 286.694847 
L 186.381243 289.70722 
L 191.437173 292.411721 
L 196.702173 294.790927 
L 202.155056 296.828604 
L 207.772937 298.509895 
L 213.531315 299.82152 
L 219.404182 300.751968 
L 225.364163 301.29168 
L 231.382679 301.433229 
L 237.430148 301.171472 
L 243.476199 300.503691 
L 249.489921 299.4297 
L 255.440122 297.951934 
L 261.295613 296.075487 
L 267.025492 293.808132 
L 272.599442 291.160292 
L 277.988015 288.144976 
L 283.162921 284.777674 
L 288.097292 281.076224 
L 292.76593 277.060632 
L 297.145532 272.752877 
L 301.214877 268.176679 
L 304.954988 263.357253 
L 308.349254 258.321049 
L 311.383517 253.095482 
L 314.046122 247.708665 
L 316.327931 242.189136 
L 318.222302 236.565602 
L 319.725043 230.866696 
L 320.834329 225.120746 
L 321.550606 219.355567 
L 321.876466 213.598276 
L 321.816518 207.875126 
L 321.377232 202.211369 
L 320.566794 196.631142 
L 319.394941 191.157369 
L 317.872808 185.811694 
L 316.01277 180.61443 
L 313.828287 175.584527 
L 311.333767 170.739552 
L 308.544419 166.095691 
L 305.476132 161.667761 
L 302.145351 157.469225 
L 298.568973 153.512226 
L 294.76424 149.807622 
L 290.748658 146.365025 
L 286.53991 143.192847 
L 282.15579 140.298346 
L 277.614137 137.687673 
L 272.932782 135.365921 
L 268.129502 133.337174 
L 263.221976 131.60455 
L 258.227751 130.17025 
L 253.164213 129.035597 
L 248.048564 128.20108 
L 242.897796 127.666389 
L 237.728675 127.430455 
L 232.557731 127.491475 
L 227.401237 127.846952 
L 222.275205 128.493712 
L 217.195376 129.427939 
L 212.177211 130.645185 
L 207.235885 132.140402 
L 202.386278 133.907947 
L 197.642974 135.941605 
L 193.020251 138.234597 
L 188.532073 140.779591 
L 184.192088 143.56871 
L 180.013614 146.593538 
L 176.009635 149.845124 
L 172.192786 153.313985 
L 168.575347 156.990109 
L 165.16922 160.862949 
L 161.985924 164.921431 
L 159.036569 169.153944 
L 156.331841 173.54834 
L 153.881974 178.091932 
L 151.696729 182.771489 
L 149.785361 187.573231 
L 148.156592 192.482831 
L 146.818567 197.485407 
L 145.778822 202.565525 
L 145.044236 207.707201 
L 144.620984 212.8939 
L 144.514486 218.108546 
L 144.729352 223.333531 
L 145.269318 228.55073 
L 146.137184 233.741521 
L 147.334748 238.886808 
L 148.86273 243.96706 
L 150.720702 248.962347 
L 152.907008 253.852392 
" style="fill:none;stroke:#ff0000;stroke-linecap:square;"/>
   </g>
   <g id="line2d_44">
    <path clip-path="url(#p7df959c1b6)" d="M 167.46095 283.417734 
L 167.212731 284.234139 
L 167.035657 285.073185 
L 166.931083 285.931722 
L 166.900099 286.806449 
L 166.943506 287.693926 
L 167.06181 288.590587 
L 167.255203 289.49275 
L 167.523554 290.396635 
L 167.866398 291.298378 
L 168.282924 292.194055 
L 168.77197 293.079694 
L 169.332018 293.951306 
L 169.961192 294.804903 
L 170.657255 295.636523 
L 171.417613 296.442257 
L 172.239325 297.218274 
L 173.119104 297.960851 
L 174.053339 298.666394 
L 175.0381 299.33147 
L 176.069168 299.952831 
L 177.142047 300.527436 
L 178.251994 301.052481 
L 179.394048 301.525412 
L 180.563056 301.943953 
L 181.753708 302.306117 
L 182.960569 302.610222 
L 184.178118 302.854906 
L 185.400778 303.03913 
L 186.62296 303.162185 
L 187.839093 303.223697 
L 189.043664 303.223621 
L 190.23125 303.162241 
L 191.396554 303.04016 
L 192.534436 302.858293 
L 193.63994 302.617849 
L 194.708326 302.320324 
L 195.735088 301.967478 
L 196.715982 301.56132 
L 197.64704 301.104086 
L 198.52459 300.598224 
L 199.345263 300.046366 
L 200.106009 299.45131 
L 200.804099 298.816 
L 201.437133 298.143501 
L 202.00304 297.436983 
L 202.500077 296.699695 
L 202.926827 295.934952 
L 203.282197 295.146112 
L 203.565406 294.33656 
L 203.775984 293.509695 
L 203.913756 292.668908 
L 203.97884 291.817577 
L 203.97163 290.959047 
L 203.892788 290.096623 
L 203.743229 289.233559 
L 203.524115 288.373046 
L 203.236834 287.518209 
L 202.882997 286.672096 
L 202.464417 285.837672 
L 201.983105 285.017817 
L 201.441251 284.215315 
L 200.841217 283.432857 
L 200.185525 282.673032 
L 199.476844 281.938328 
L 198.71798 281.231124 
L 197.911869 280.553696 
L 197.061561 279.908205 
L 196.170218 279.296706 
L 195.241098 278.721135 
L 194.277551 278.183317 
L 193.283007 277.68496 
L 192.260969 277.227652 
L 191.215009 276.812865 
L 190.148753 276.441947 
L 189.065878 276.116124 
L 187.970106 275.8365 
L 186.86519 275.604048 
L 185.754915 275.419617 
L 184.643084 275.283922 
L 183.533516 275.197546 
L 182.430033 275.160935 
L 181.336457 275.174398 
L 180.256599 275.238101 
L 179.194255 275.352064 
L 178.153191 275.516162 
L 177.137143 275.730117 
L 176.1498 275.993496 
L 175.194798 276.305708 
L 174.275711 276.666002 
L 173.39604 277.073461 
L 172.559199 277.527002 
L 171.768508 278.025369 
L 171.027179 278.567134 
L 170.338301 279.150697 
L 169.704832 279.774276 
L 169.129581 280.435916 
L 168.615194 281.133481 
L 168.164142 281.86466 
L 167.778703 282.626964 
L 167.46095 283.417734 
" style="fill:none;stroke:#ff0000;stroke-linecap:square;"/>
   </g>
   <g id="line2d_45">
    <path clip-path="url(#p7df959c1b6)" d="M 160.873796 297.773513 
L 160.62237 298.516086 
L 160.444601 299.284551 
L 160.342007 300.07611 
L 160.315837 300.887791 
L 160.367047 301.716452 
L 160.496289 302.558791 
L 160.703891 303.411355 
L 160.989841 304.270557 
L 161.353771 305.132688 
L 161.794948 305.993935 
L 162.312259 306.850403 
L 162.904204 307.698136 
L 163.568889 308.533138 
L 164.304026 309.351407 
L 165.106929 310.148955 
L 165.974521 310.921841 
L 166.903344 311.666199 
L 167.889565 312.378273 
L 168.928999 313.054439 
L 170.017123 313.691245 
L 171.149108 314.285434 
L 172.319838 314.833974 
L 173.52395 315.334083 
L 174.755863 315.783255 
L 176.00982 316.179277 
L 177.279925 316.520251 
L 178.560188 316.804605 
L 179.844563 317.031104 
L 181.126997 317.198859 
L 182.401468 317.307326 
L 183.662031 317.356309 
L 184.902857 317.345951 
L 186.118272 317.27673 
L 187.302792 317.149442 
L 188.451161 316.965193 
L 189.558375 316.725376 
L 190.619714 316.431657 
L 191.630762 316.085949 
L 192.587426 315.690392 
L 193.485954 315.247332 
L 194.322945 314.759295 
L 195.095356 314.228962 
L 195.800507 313.65915 
L 196.436087 313.052784 
L 197.000146 312.412881 
L 197.491094 311.742524 
L 197.907695 311.044844 
L 198.249059 310.323003 
L 198.514628 309.580175 
L 198.704171 308.819533 
L 198.817766 308.044233 
L 198.855788 307.257402 
L 198.818895 306.462129 
L 198.708016 305.661453 
L 198.524329 304.858355 
L 198.269257 304.055752 
L 197.944444 303.256493 
L 197.551745 302.463348 
L 197.093211 301.679009 
L 196.571078 300.906087 
L 195.987747 300.147107 
L 195.345781 299.404505 
L 194.647885 298.680632 
L 193.896898 297.977746 
L 193.095784 297.298018 
L 192.247616 296.643525 
L 191.355573 296.016256 
L 190.422927 295.418105 
L 189.453033 294.850878 
L 188.449326 294.316285 
L 187.415308 293.815948 
L 186.354542 293.351391 
L 185.270648 292.924049 
L 184.167293 292.535261 
L 183.048183 292.186269 
L 181.917063 291.878221 
L 180.777705 291.612163 
L 179.633902 291.389044 
L 178.489467 291.209708 
L 177.348222 291.074895 
L 176.213993 290.985236 
L 175.090606 290.94125 
L 173.981878 290.943343 
L 172.89161 290.991802 
L 171.823582 291.086788 
L 170.781545 291.228338 
L 169.769212 291.416355 
L 168.790249 291.650606 
L 167.84827 291.930714 
L 166.946824 292.256157 
L 166.089383 292.62626 
L 165.279337 293.040188 
L 164.519978 293.496946 
L 163.814489 293.99537 
L 163.165929 294.534122 
L 162.577224 295.111691 
L 162.051145 295.726383 
L 161.590298 296.376322 
L 161.197107 297.059448 
L 160.873796 297.773513 
" style="fill:none;stroke:#ff0000;stroke-linecap:square;"/>
   </g>
   <g id="line2d_46">
    <path clip-path="url(#p7df959c1b6)" d="M 180.035658 292.871102 
L 179.903349 293.600546 
L 179.836783 294.34274 
L 179.836784 295.094824 
L 179.903918 295.853836 
L 180.038486 296.616725 
L 180.24051 297.380363 
L 180.509721 298.141556 
L 180.845557 298.897058 
L 181.247152 299.643589 
L 181.713329 300.377853 
L 182.242604 301.096549 
L 182.833175 301.7964 
L 183.482931 302.474164 
L 184.189451 303.12666 
L 184.950009 303.750789 
L 185.761586 304.343553 
L 186.620879 304.902077 
L 187.524316 305.423632 
L 188.468068 305.905655 
L 189.448074 306.345768 
L 190.460061 306.741795 
L 191.499565 307.091782 
L 192.561958 307.394012 
L 193.64248 307.647016 
L 194.73626 307.849587 
L 195.838356 308.000786 
L 196.943777 308.099951 
L 198.047522 308.146699 
L 199.144608 308.14093 
L 200.230101 308.08282 
L 201.299147 307.972822 
L 202.347004 307.81166 
L 203.369066 307.600314 
L 204.360892 307.340017 
L 205.31823 307.032237 
L 206.237037 306.678664 
L 207.113501 306.281196 
L 207.944059 305.84192 
L 208.725408 305.363095 
L 209.454522 304.847132 
L 210.128658 304.29658 
L 210.745363 303.714103 
L 211.302482 303.102462 
L 211.798158 302.464497 
L 212.230833 301.803113 
L 212.599245 301.121257 
L 212.902427 300.421905 
L 213.139702 299.708048 
L 213.310673 298.982674 
L 213.415221 298.248758 
L 213.453491 297.509249 
L 213.425887 296.767058 
L 213.333059 296.025049 
L 213.175892 295.286027 
L 212.9555 294.552736 
L 212.673209 293.827846 
L 212.330547 293.11395 
L 211.929236 292.413555 
L 211.471175 291.729085 
L 210.958435 291.062866 
L 210.393244 290.417134 
L 209.777977 289.794022 
L 209.115145 289.195565 
L 208.407388 288.623697 
L 207.65746 288.080243 
L 206.868223 287.566927 
L 206.042638 287.085364 
L 205.183753 286.637062 
L 204.294698 286.22342 
L 203.378674 285.845728 
L 202.438946 285.505167 
L 201.478835 285.202805 
L 200.501709 284.939601 
L 199.510978 284.7164 
L 198.510086 284.533934 
L 197.502499 284.392821 
L 196.491707 284.293565 
L 195.481208 284.23655 
L 194.474505 284.222045 
L 193.475097 284.2502 
L 192.486475 284.321041 
L 191.512108 284.434475 
L 190.555444 284.59028 
L 189.619893 284.788113 
L 188.708825 285.0275 
L 187.82556 285.307836 
L 186.973358 285.628385 
L 186.155409 285.988279 
L 185.374829 286.386511 
L 184.634644 286.821939 
L 183.93778 287.293283 
L 183.287059 287.799122 
L 182.685178 288.337896 
L 182.134706 288.907903 
L 181.638068 289.507302 
L 181.197532 290.134114 
L 180.815201 290.786219 
L 180.492995 291.461364 
L 180.23264 292.157163 
L 180.035658 292.871102 
" style="fill:none;stroke:#ff0000;stroke-linecap:square;"/>
   </g>
   <g id="line2d_47">
    <path clip-path="url(#p7df959c1b6)" d="M 182.767892 290.768517 
L 182.67828 292.307985 
L 182.723411 293.858977 
L 182.905364 295.415501 
L 183.225715 296.971292 
L 183.685493 298.519838 
L 184.285138 300.054391 
L 185.024455 301.567998 
L 185.902579 303.053533 
L 186.917928 304.503733 
L 188.068176 305.911245 
L 189.350214 307.26867 
L 190.760133 308.568629 
L 192.2932 309.803816 
L 193.943853 310.967069 
L 195.705698 312.051441 
L 197.571525 313.050271 
L 199.533322 313.957263 
L 201.582317 314.766558 
L 203.709021 315.472811 
L 205.903287 316.071262 
L 208.154381 316.557796 
L 210.451066 316.92901 
L 212.781689 317.182258 
L 215.134284 317.315691 
L 217.496681 317.328291 
L 219.856611 317.219882 
L 222.201825 316.991136 
L 224.520201 316.643566 
L 226.79986 316.179504 
L 229.029267 315.602066 
L 231.197332 314.91511 
L 233.293498 314.12318 
L 235.30782 313.231446 
L 237.231035 312.245632 
L 239.054617 311.171949 
L 240.770818 310.017012 
L 242.372704 308.78777 
L 243.85417 307.491422 
L 245.20995 306.135351 
L 246.435614 304.727047 
L 247.527554 303.274045 
L 248.482969 301.783861 
L 249.299831 300.263936 
L 249.976858 298.721593 
L 250.513474 297.163988 
L 250.909769 295.598073 
L 251.166457 294.030574 
L 251.284831 292.467958 
L 251.266722 290.916417 
L 251.114452 289.381856 
L 250.830791 287.869882 
L 250.41892 286.385799 
L 249.882389 284.934604 
L 249.22508 283.520991 
L 248.451171 282.149355 
L 247.565106 280.823792 
L 246.571565 279.548113 
L 245.475436 278.325849 
L 244.281788 277.160258 
L 242.995851 276.054339 
L 241.622997 275.010841 
L 240.168717 274.032269 
L 238.638607 273.120901 
L 237.038355 272.278791 
L 235.373727 271.507784 
L 233.650552 270.809522 
L 231.874717 270.18545 
L 230.052155 269.63683 
L 228.188839 269.164743 
L 226.290772 268.770096 
L 224.363984 268.453628 
L 222.414522 268.215916 
L 220.448449 268.057376 
L 218.47184 267.978268 
L 216.490772 267.9787 
L 214.511324 268.058622 
L 212.539572 268.217836 
L 210.581586 268.45599 
L 208.643422 268.772577 
L 206.731122 269.166935 
L 204.850707 269.638242 
L 203.008169 270.185517 
L 201.20947 270.807607 
L 199.460534 271.503191 
L 197.767238 272.27077 
L 196.135404 273.108657 
L 194.570791 274.014978 
L 193.079085 274.987655 
L 191.665883 276.024404 
L 190.336686 277.122723 
L 189.096879 278.279886 
L 187.951715 279.492928 
L 186.906299 280.758642 
L 185.965564 282.073564 
L 185.134248 283.43397 
L 184.416872 284.835863 
L 183.817711 286.274968 
L 183.340759 287.746725 
L 182.989706 289.246287 
L 182.767892 290.768517 
" style="fill:none;stroke:#ff0000;stroke-linecap:square;"/>
   </g>
   <g id="line2d_48">
    <path clip-path="url(#p7df959c1b6)" d="M 207.55763 293.736353 
L 207.836006 295.2915 
L 208.249867 296.826469 
L 208.79983 298.3348 
L 209.485952 299.809885 
L 210.307692 301.244995 
L 211.263873 302.633311 
L 212.352648 303.967958 
L 213.571462 305.242051 
L 214.917029 306.448736 
L 216.385304 307.581248 
L 217.971468 308.632961 
L 219.66991 309.597458 
L 221.474233 310.468589 
L 223.377257 311.240544 
L 225.371032 311.907919 
L 227.446875 312.465792 
L 229.595401 312.909786 
L 231.806581 313.23614 
L 234.069802 313.441769 
L 236.373941 313.524323 
L 238.707454 313.482231 
L 241.058467 313.314745 
L 243.414879 313.021964 
L 245.764468 312.604851 
L 248.095009 312.06524 
L 250.394378 311.405824 
L 252.650671 310.630132 
L 254.852312 309.742496 
L 256.988152 308.748003 
L 259.04757 307.652439 
L 261.020556 306.46222 
L 262.897788 305.18432 
L 264.670695 303.826191 
L 266.331507 302.395677 
L 267.873294 300.900932 
L 269.289991 299.350332 
L 270.57641 297.752394 
L 271.728239 296.115696 
L 272.742039 294.448798 
L 273.615215 292.760179 
L 274.345997 291.058169 
L 274.933403 289.350894 
L 275.377196 287.646229 
L 275.677845 285.951756 
L 275.836479 284.274733 
L 275.854831 282.62206 
L 275.7352 281.000269 
L 275.480392 279.4155 
L 275.093679 277.8735 
L 274.57875 276.379615 
L 273.939668 274.93879 
L 273.180825 273.555577 
L 272.306908 272.234138 
L 271.322858 270.978255 
L 270.23384 269.791345 
L 269.045208 268.676468 
L 267.762484 267.636343 
L 266.391326 266.673363 
L 264.937509 265.789607 
L 263.406905 264.986859 
L 261.805464 264.266619 
L 260.139199 263.630119 
L 258.414173 263.078336 
L 256.636484 262.612004 
L 254.812257 262.23163 
L 252.947634 261.9375 
L 251.048766 261.729693 
L 249.121805 261.608092 
L 247.172899 261.572387 
L 245.208185 261.62209 
L 243.233785 261.756536 
L 241.255803 261.974892 
L 239.280316 262.276161 
L 237.313374 262.659186 
L 235.360998 263.122653 
L 233.42917 263.665094 
L 231.523832 264.28489 
L 229.650885 264.980266 
L 227.816179 265.749298 
L 226.02551 266.589907 
L 224.284619 267.49986 
L 222.599176 268.476767 
L 220.974785 269.518077 
L 219.416966 270.621076 
L 217.931152 271.782883 
L 216.52268 273.000443 
L 215.196775 274.270525 
L 213.958544 275.589716 
L 212.812956 276.954413 
L 211.764832 278.360821 
L 210.818826 279.804948 
L 209.979404 281.282593 
L 209.250829 282.78935 
L 208.637132 284.320599 
L 208.14209 285.871504 
L 207.769203 287.43701 
L 207.521656 289.011844 
L 207.402297 290.590516 
L 207.4136 292.167323 
L 207.55763 293.736353 
" style="fill:none;stroke:#ff0000;stroke-linecap:square;"/>
   </g>
   <g id="line2d_49">
    <path clip-path="url(#p7df959c1b6)" d="M 194.136791 312.17746 
L 194.099302 312.728883 
L 194.118869 313.284846 
L 194.195883 313.84316 
L 194.330509 314.401578 
L 194.522676 314.957802 
L 194.772068 315.509499 
L 195.078122 316.054304 
L 195.440016 316.589834 
L 195.856671 317.113704 
L 196.326746 317.623535 
L 196.848636 318.116971 
L 197.420478 318.591693 
L 198.040146 319.045435 
L 198.705264 319.475997 
L 199.413207 319.881265 
L 200.161117 320.259222 
L 200.945906 320.607967 
L 201.764276 320.925729 
L 202.612735 321.210882 
L 203.487611 321.461957 
L 204.385074 321.677656 
L 205.30116 321.856861 
L 206.231789 321.998649 
L 207.172794 322.102292 
L 208.119946 322.16727 
L 209.068977 322.193272 
L 210.015608 322.180199 
L 210.955581 322.128165 
L 211.884676 322.037492 
L 212.798745 321.908712 
L 213.693733 321.742557 
L 214.565704 321.539951 
L 215.410862 321.302006 
L 216.225574 321.030006 
L 217.006386 320.725399 
L 217.750044 320.38978 
L 218.453506 320.024883 
L 219.113959 319.632563 
L 219.728823 319.214779 
L 220.295767 318.773586 
L 220.812711 318.311113 
L 221.277833 317.829552 
L 221.689567 317.331141 
L 222.046611 316.818152 
L 222.347919 316.292878 
L 222.592701 315.757619 
L 222.780418 315.214667 
L 222.910779 314.666303 
L 222.983731 314.114779 
L 222.999455 313.562312 
L 222.958355 313.011075 
L 222.861051 312.463192 
L 222.708366 311.920726 
L 222.501324 311.38568 
L 222.241131 310.859987 
L 221.929171 310.345508 
L 221.566994 309.844027 
L 221.156306 309.35725 
L 220.698957 308.886804 
L 220.196935 308.43423 
L 219.652354 308.000987 
L 219.067445 307.58845 
L 218.444545 307.197906 
L 217.786091 306.830559 
L 217.09461 306.487524 
L 216.372712 306.169834 
L 215.623079 305.878434 
L 214.848458 305.614184 
L 214.051657 305.377859 
L 213.235534 305.170151 
L 212.402989 304.991665 
L 211.556961 304.842924 
L 210.700419 304.724368 
L 209.836354 304.636349 
L 208.967775 304.57914 
L 208.097703 304.552927 
L 207.22916 304.557814 
L 206.365167 304.593818 
L 205.508736 304.660874 
L 204.662866 304.758828 
L 203.83053 304.887442 
L 203.014675 305.04639 
L 202.218212 305.235259 
L 201.44401 305.453544 
L 200.694886 305.700654 
L 199.973601 305.975902 
L 199.282852 306.278514 
L 198.625261 306.607619 
L 198.00337 306.962253 
L 197.419631 307.341358 
L 196.876394 307.743779 
L 196.375905 308.168268 
L 195.920291 308.613479 
L 195.511549 309.077971 
L 195.151543 309.560209 
L 194.841986 310.058565 
L 194.584435 310.571319 
L 194.380278 311.096663 
L 194.230723 311.632702 
L 194.136791 312.17746 
" style="fill:none;stroke:#ff0000;stroke-linecap:square;"/>
   </g>
   <g id="line2d_50">
    <path clip-path="url(#p7df959c1b6)" d="M 206.386533 292.744856 
L 206.384763 292.941131 
L 206.400053 293.137586 
L 206.432377 293.333441 
L 206.481643 293.527917 
L 206.547687 293.720235 
L 206.630281 293.909621 
L 206.729127 294.095312 
L 206.84386 294.276554 
L 206.974051 294.452607 
L 207.119205 294.622752 
L 207.278763 294.786289 
L 207.452107 294.942545 
L 207.638559 295.090871 
L 207.837386 295.230652 
L 208.0478 295.361306 
L 208.268964 295.482287 
L 208.499993 295.593087 
L 208.73996 295.693242 
L 208.987897 295.78233 
L 209.242804 295.859975 
L 209.503648 295.925851 
L 209.769369 295.979679 
L 210.038886 296.021232 
L 210.311103 296.050335 
L 210.584909 296.066866 
L 210.859189 296.070757 
L 211.132823 296.061992 
L 211.404697 296.040612 
L 211.673702 296.006708 
L 211.938743 295.960427 
L 212.198745 295.901967 
L 212.452653 295.831578 
L 212.69944 295.74956 
L 212.938109 295.656261 
L 213.167701 295.552076 
L 213.387297 295.437444 
L 213.596021 295.312849 
L 213.793043 295.178811 
L 213.977587 295.03589 
L 214.148928 294.884682 
L 214.306398 294.725813 
L 214.449388 294.559939 
L 214.577353 294.38774 
L 214.689806 294.209923 
L 214.786329 294.02721 
L 214.866568 293.840343 
L 214.930236 293.650075 
L 214.977113 293.457171 
L 215.007048 293.262401 
L 215.019958 293.066541 
L 215.015825 292.870364 
L 214.994701 292.674645 
L 214.956704 292.480149 
L 214.902017 292.287637 
L 214.830887 292.097853 
L 214.743623 291.911533 
L 214.640597 291.729393 
L 214.52224 291.55213 
L 214.389038 291.380421 
L 214.241534 291.214916 
L 214.080322 291.056243 
L 213.906049 290.904998 
L 213.719406 290.76175 
L 213.521129 290.627035 
L 213.311998 290.501355 
L 213.092831 290.385178 
L 212.864479 290.278935 
L 212.627828 290.183019 
L 212.383792 290.097784 
L 212.133313 290.023546 
L 211.877353 289.960578 
L 211.616893 289.909112 
L 211.352932 289.869338 
L 211.086479 289.841403 
L 210.818554 289.82541 
L 210.550179 289.82142 
L 210.28238 289.829449 
L 210.016181 289.849469 
L 209.752599 289.881409 
L 209.492644 289.925154 
L 209.237312 289.980545 
L 208.987584 290.047382 
L 208.744421 290.12542 
L 208.508762 290.214374 
L 208.281519 290.313917 
L 208.063574 290.423684 
L 207.855778 290.543269 
L 207.658945 290.672228 
L 207.473849 290.810083 
L 207.301224 290.956317 
L 207.141757 291.110384 
L 206.996088 291.271703 
L 206.864808 291.439664 
L 206.748451 291.61363 
L 206.647501 291.792937 
L 206.56238 291.976898 
L 206.493451 292.164805 
L 206.441019 292.355931 
L 206.405321 292.549533 
L 206.386533 292.744856 
" style="fill:none;stroke:#ff0000;stroke-linecap:square;"/>
   </g>
   <g id="line2d_51">
    <path clip-path="url(#p7df959c1b6)" d="M 205.779928 298.277404 
L 205.787238 298.719867 
L 205.83465 299.162002 
L 205.922179 299.602047 
L 206.049679 300.038221 
L 206.216836 300.468743 
L 206.423175 300.891828 
L 206.668047 301.305706 
L 206.950641 301.708622 
L 207.269973 302.09885 
L 207.624897 302.474699 
L 208.014101 302.834523 
L 208.436114 303.17673 
L 208.889307 303.499793 
L 209.371903 303.802254 
L 209.88198 304.082738 
L 210.41748 304.33996 
L 210.976219 304.572731 
L 211.555892 304.779969 
L 212.154091 304.960702 
L 212.768308 305.11408 
L 213.395954 305.239378 
L 214.03437 305.335998 
L 214.680838 305.40348 
L 215.3326 305.441498 
L 215.986868 305.449869 
L 216.640841 305.42855 
L 217.291718 305.377638 
L 217.936718 305.297374 
L 218.573086 305.188137 
L 219.198117 305.050441 
L 219.809164 304.884935 
L 220.40365 304.692397 
L 220.979088 304.473727 
L 221.533088 304.229942 
L 222.063368 303.962172 
L 222.567767 303.671646 
L 223.044254 303.359692 
L 223.490933 303.027723 
L 223.906058 302.67723 
L 224.28803 302.309773 
L 224.63541 301.926973 
L 224.94692 301.530502 
L 225.221445 301.122072 
L 225.458039 300.703428 
L 225.655924 300.276342 
L 225.814487 299.842597 
L 225.933288 299.403985 
L 226.012049 298.962294 
L 226.05066 298.519307 
L 226.04917 298.076787 
L 226.007787 297.636474 
L 225.926875 297.200079 
L 225.806944 296.769277 
L 225.648652 296.345702 
L 225.452795 295.930938 
L 225.220303 295.526521 
L 224.952234 295.133931 
L 224.649768 294.754585 
L 224.3142 294.389842 
L 223.946935 294.04099 
L 223.54948 293.709251 
L 223.123439 293.395774 
L 222.670502 293.101634 
L 222.192447 292.827833 
L 221.691124 292.575292 
L 221.168454 292.344857 
L 220.626422 292.137292 
L 220.067067 291.953282 
L 219.492481 291.793429 
L 218.904796 291.658253 
L 218.306183 291.548193 
L 217.698844 291.463603 
L 217.085005 291.404754 
L 216.466908 291.371833 
L 215.84681 291.364943 
L 215.226971 291.384105 
L 214.609651 291.429254 
L 213.997103 291.500242 
L 213.391566 291.596836 
L 212.795259 291.718723 
L 212.210378 291.865504 
L 211.639083 292.036699 
L 211.083498 292.231744 
L 210.5457 292.449997 
L 210.027716 292.690732 
L 209.531513 292.953146 
L 209.058997 293.236356 
L 208.611998 293.539402 
L 208.192274 293.861251 
L 207.801494 294.200792 
L 207.441239 294.556844 
L 207.11299 294.928158 
L 206.818128 295.313415 
L 206.557918 295.711234 
L 206.333514 296.120173 
L 206.145944 296.538732 
L 205.996106 296.965357 
L 205.884765 297.398448 
L 205.812546 297.836359 
L 205.779928 298.277404 
" style="fill:none;stroke:#ff0000;stroke-linecap:square;"/>
   </g>
   <g id="line2d_52">
    <path clip-path="url(#p7df959c1b6)" d="M 101.935303 236.308476 
L 99.586613 239.26931 
L 97.48311 242.448221 
L 95.643405 245.845105 
L 94.087022 249.458634 
L 92.83437 253.285997 
L 91.906679 257.322596 
L 91.325872 261.561712 
L 93.187081 264.620181 
L 97.426444 266.308264 
L 101.761245 268.048025 
L 106.186339 269.831644 
L 110.696585 271.651912 
L 115.286838 273.502172 
L 119.951921 275.376264 
L 124.686623 277.268482 
L 129.485682 279.173535 
L 134.343783 281.086517 
L 139.255546 283.002876 
L 144.215528 284.918393 
L 149.218214 286.829164 
L 154.258015 288.731579 
L 159.329268 290.622313 
L 164.42623 292.498314 
L 169.543075 294.356795 
L 174.673897 296.195226 
L 179.812701 298.011331 
L 184.953402 299.803088 
L 190.089821 301.568724 
L 195.21568 303.306722 
L 200.324597 305.015817 
L 205.410077 306.695008 
L 210.465504 308.343562 
L 215.48413 309.961019 
L 220.459065 311.547209 
L 225.383257 313.10226 
L 230.249477 314.626614 
L 235.050296 316.121046 
L 239.778059 317.586683 
L 244.424851 319.025027 
L 248.982463 320.437983 
L 253.442345 321.827887 
L 257.795551 323.197544 
L 261.176715 322.00462 
L 263.416034 318.3557 
L 265.258307 314.644563 
L 266.71625 310.890255 
L 267.80338 307.109737 
L 268.533719 303.318076 
L 268.92154 299.528625 
L 268.981187 295.753215 
L 268.726923 292.002328 
L 268.172827 288.285266 
L 267.332715 284.610301 
L 266.220089 280.984814 
L 264.848106 277.415421 
L 263.229558 273.908082 
L 261.376868 270.468195 
L 259.302093 267.100687 
L 257.016938 263.810087 
L 254.532762 260.600588 
L 251.860606 257.476104 
L 249.011204 254.440322 
L 245.995011 251.496739 
L 242.822221 248.648699 
L 239.502789 245.899428 
L 236.046455 243.252054 
L 232.462761 240.709634 
L 228.761075 238.275174 
L 224.950609 235.951643 
L 221.040441 233.74199 
L 217.039529 231.649157 
L 212.956731 229.676089 
L 208.800823 227.825744 
L 204.580517 226.101102 
L 200.304474 224.505173 
L 195.981325 223.041004 
L 191.619683 221.711685 
L 187.228165 220.520354 
L 182.815406 219.470204 
L 178.390078 218.564485 
L 173.960906 217.806511 
L 169.536695 217.19966 
L 165.126341 216.74738 
L 160.738862 216.453188 
L 156.383417 216.320672 
L 152.069334 216.353491 
L 147.80614 216.55537 
L 143.603586 216.930099 
L 139.471688 217.481525 
L 135.420759 218.21354 
L 131.461449 219.130069 
L 127.604788 220.23505 
L 123.862234 221.53241 
L 120.245719 223.026032 
L 116.767704 224.719716 
L 113.441235 226.617123 
L 110.279995 228.721717 
L 107.298367 231.036683 
L 104.511488 233.56483 
L 101.935303 236.308476 
" style="fill:none;stroke:#ff0000;stroke-linecap:square;"/>
   </g>
   <g id="line2d_53">
    <path clip-path="url(#p7df959c1b6)" d="M 163.81888 316.686076 
L 163.494718 317.824518 
L 163.305473 318.998949 
L 163.25493 320.205569 
L 163.346472 321.440169 
L 164.204797 321.013857 
L 165.315563 320.259847 
L 166.530962 319.558415 
L 167.845183 318.910071 
L 169.252386 318.315131 
L 170.746708 317.773741 
L 172.322282 317.285895 
L 173.973239 316.851461 
L 175.693719 316.470201 
L 177.477877 316.14178 
L 179.31988 315.865791 
L 181.213915 315.641764 
L 183.154188 315.469177 
L 185.134922 315.347469 
L 187.15036 315.276049 
L 189.194761 315.254304 
L 191.262398 315.281603 
L 193.347556 315.357307 
L 195.444533 315.48077 
L 197.547633 315.65134 
L 199.651164 315.86837 
L 201.74944 316.131208 
L 203.836772 316.439204 
L 205.907469 316.791711 
L 207.955835 317.188076 
L 209.976169 317.627643 
L 211.962759 318.109747 
L 213.909884 318.633711 
L 215.811813 319.198838 
L 217.662802 319.804406 
L 219.457098 320.449659 
L 221.188938 321.133798 
L 222.852552 321.855971 
L 224.442169 322.615261 
L 225.952016 323.410674 
L 227.376331 324.241122 
L 228.709369 325.105411 
L 229.945411 326.002222 
L 231.078781 326.930093 
L 232.10386 327.887398 
L 233.015103 328.872332 
L 233.754662 329.48113 
L 234.123482 328.299105 
L 234.347555 327.112304 
L 234.429223 325.925587 
L 234.371312 324.74351 
L 234.177075 323.570325 
L 233.850141 322.409983 
L 233.394465 321.266151 
L 232.814288 320.142216 
L 232.114093 319.041304 
L 231.298571 317.966296 
L 230.372589 316.919839 
L 229.341163 315.904366 
L 228.209434 314.922114 
L 226.982643 313.975134 
L 225.666118 313.065315 
L 224.265253 312.194392 
L 222.785498 311.363962 
L 221.232347 310.5755 
L 219.61133 309.830369 
L 217.928002 309.129831 
L 216.187939 308.475059 
L 214.396733 307.867146 
L 212.559988 307.307111 
L 210.683318 306.795909 
L 208.772342 306.334439 
L 206.832685 305.923543 
L 204.869976 305.564017 
L 202.88985 305.25661 
L 200.897945 305.002029 
L 198.899902 304.800938 
L 196.901368 304.653963 
L 194.907996 304.561685 
L 192.925444 304.524645 
L 190.959374 304.543338 
L 189.015459 304.61821 
L 187.099376 304.749654 
L 185.216809 304.938004 
L 183.373447 305.183532 
L 181.574987 305.486432 
L 179.827125 305.846821 
L 178.135559 306.26472 
L 176.505984 306.740049 
L 174.944086 307.27261 
L 173.455536 307.862076 
L 172.045982 308.507972 
L 170.721041 309.20966 
L 169.486285 309.966324 
L 168.347226 310.776943 
L 167.309302 311.640279 
L 166.377855 312.554849 
L 165.558106 313.518905 
L 164.855132 314.530414 
L 164.273828 315.58703 
L 163.81888 316.686076 
" style="fill:none;stroke:#ff0000;stroke-linecap:square;"/>
   </g>
   <g id="line2d_54">
    <path clip-path="url(#p7df959c1b6)" d="M 189.562999 299.488083 
L 189.505502 299.976408 
L 189.493475 300.470531 
L 189.527239 300.968511 
L 189.606936 301.468367 
L 189.732517 301.968079 
L 189.903747 302.465598 
L 190.120195 302.958858 
L 190.381235 303.44578 
L 190.686041 303.924287 
L 191.033591 304.39231 
L 191.422663 304.847804 
L 191.851842 305.288755 
L 192.319518 305.713191 
L 192.823893 306.119199 
L 193.362988 306.50493 
L 193.934648 306.868616 
L 194.536552 307.208575 
L 195.166222 307.52323 
L 195.821034 307.811112 
L 196.498234 308.070875 
L 197.194946 308.301303 
L 197.908191 308.501317 
L 198.634902 308.669987 
L 199.371938 308.806531 
L 200.116105 308.910328 
L 200.864172 308.980916 
L 201.612885 309.018 
L 202.358994 309.021448 
L 203.099263 308.991294 
L 203.830491 308.927738 
L 204.54953 308.831142 
L 205.253301 308.702027 
L 205.938811 308.541067 
L 206.603169 308.349085 
L 207.243597 308.127047 
L 207.857449 307.876052 
L 208.442217 307.597324 
L 208.995548 307.292204 
L 209.515249 306.962142 
L 209.999299 306.608683 
L 210.445852 306.23346 
L 210.853247 305.838182 
L 211.220009 305.424626 
L 211.544855 304.994623 
L 211.826694 304.550051 
L 212.064628 304.09282 
L 212.257952 303.62487 
L 212.406153 303.148154 
L 212.508908 302.664635 
L 212.566081 302.176271 
L 212.577717 301.685013 
L 212.54404 301.192795 
L 212.465448 300.701525 
L 212.342506 300.213082 
L 212.175939 299.729306 
L 211.96663 299.251997 
L 211.715609 298.782905 
L 211.424047 298.323731 
L 211.093251 297.876116 
L 210.724656 297.441643 
L 210.319815 297.021832 
L 209.880396 296.618135 
L 209.408173 296.231936 
L 208.905018 295.864548 
L 208.372892 295.517208 
L 207.813845 295.19108 
L 207.23 294.887249 
L 206.623552 294.606724 
L 205.996759 294.350431 
L 205.351936 294.119216 
L 204.691445 293.913842 
L 204.017696 293.734992 
L 203.333129 293.583259 
L 202.64022 293.459156 
L 201.941464 293.363107 
L 201.239375 293.29545 
L 200.536476 293.256436 
L 199.835294 293.246227 
L 199.138353 293.264897 
L 198.448171 293.312427 
L 197.767244 293.388712 
L 197.098051 293.493554 
L 196.44304 293.626663 
L 195.804621 293.787657 
L 195.185163 293.976062 
L 194.586986 294.191313 
L 194.01235 294.432748 
L 193.463452 294.699617 
L 192.942417 294.991073 
L 192.451292 295.30618 
L 191.992034 295.643908 
L 191.566509 296.003137 
L 191.176478 296.38266 
L 190.823593 296.781177 
L 190.509387 297.197307 
L 190.235269 297.629584 
L 190.002513 298.076459 
L 189.812252 298.536311 
L 189.665472 299.00744 
L 189.562999 299.488083 
" style="fill:none;stroke:#ff0000;stroke-linecap:square;"/>
   </g>
   <g id="line2d_55">
    <path clip-path="url(#p7df959c1b6)" d="M 138.639485 300.519444 
L 138.188218 301.378154 
L 137.835155 302.288064 
L 137.583406 303.246435 
L 137.435785 304.250173 
L 137.394775 305.295827 
L 137.462487 306.379581 
L 137.640622 307.497261 
L 137.930431 308.644332 
L 138.561384 309.439551 
L 139.85297 309.325348 
L 141.201997 309.271131 
L 142.60367 309.275735 
L 144.05319 309.337885 
L 145.545758 309.456205 
L 147.076575 309.629235 
L 148.64085 309.855446 
L 150.233797 310.133242 
L 151.850635 310.46098 
L 153.486593 310.836972 
L 155.136906 311.259493 
L 156.796817 311.726788 
L 158.461575 312.237078 
L 160.126436 312.78856 
L 161.786662 313.379416 
L 163.437519 314.00781 
L 165.07428 314.671891 
L 166.692225 315.369796 
L 168.286636 316.099645 
L 169.852806 316.859544 
L 171.386035 317.647581 
L 172.88163 318.461824 
L 174.334914 319.300319 
L 175.741223 320.161084 
L 177.095915 321.042105 
L 178.394369 321.941332 
L 179.631998 322.856672 
L 180.804249 323.785983 
L 181.906617 324.727068 
L 182.934653 325.677665 
L 183.883974 326.635442 
L 184.750279 327.597986 
L 185.755367 327.445951 
L 186.751599 326.804466 
L 187.64608 326.108469 
L 188.436625 325.362124 
L 189.12162 324.569643 
L 189.700002 323.735252 
L 190.171227 322.863165 
L 190.535237 321.957558 
L 190.792431 321.022551 
L 190.943634 320.062194 
L 190.990061 319.080449 
L 190.933289 318.081184 
L 190.775227 317.068164 
L 190.518085 316.045046 
L 190.164347 315.015378 
L 189.716745 313.982593 
L 189.178236 312.950014 
L 188.551979 311.920853 
L 187.841311 310.898214 
L 187.049734 309.885097 
L 186.180894 308.884397 
L 185.238563 307.898915 
L 184.226629 306.931356 
L 183.149083 305.984336 
L 182.010004 305.060386 
L 180.813552 304.161955 
L 179.563957 303.291415 
L 178.265514 302.451064 
L 176.922571 301.643127 
L 175.539527 300.869761 
L 174.120826 300.133059 
L 172.670949 299.435047 
L 171.194415 298.777686 
L 169.695771 298.162878 
L 168.179595 297.592458 
L 166.65049 297.068198 
L 165.11308 296.591806 
L 163.57201 296.164921 
L 162.031945 295.789112 
L 160.497561 295.465874 
L 158.973551 295.196622 
L 157.464617 294.98269 
L 155.975469 294.82532 
L 154.510823 294.725656 
L 153.075394 294.68474 
L 151.673897 294.703497 
L 150.311036 294.782729 
L 148.991506 294.923105 
L 147.71998 295.125147 
L 146.501104 295.389215 
L 145.339487 295.715502 
L 144.239694 296.104008 
L 143.20623 296.554536 
L 142.243529 297.066667 
L 141.355937 297.63975 
L 140.547696 298.272883 
L 139.822923 298.964896 
L 139.185587 299.714335 
L 138.639485 300.519444 
" style="fill:none;stroke:#ff0000;stroke-linecap:square;"/>
   </g>
   <g id="line2d_56">
    <path clip-path="url(#p7df959c1b6)" d="M 195.590574 297.375224 
L 195.561462 297.724715 
L 195.564081 298.077061 
L 195.598549 298.430871 
L 195.664856 298.784733 
L 195.762865 299.137224 
L 195.892309 299.48691 
L 196.052787 299.832356 
L 196.243768 300.172135 
L 196.464592 300.504826 
L 196.714464 300.829029 
L 196.992464 301.143368 
L 197.297545 301.446501 
L 197.628537 301.737121 
L 197.98415 302.01397 
L 198.362982 302.275841 
L 198.763519 302.521587 
L 199.184148 302.750125 
L 199.623156 302.960446 
L 200.078745 303.151618 
L 200.549035 303.322792 
L 201.032074 303.473207 
L 201.52585 303.602194 
L 202.028297 303.709182 
L 202.537306 303.7937 
L 203.050738 303.855379 
L 203.56643 303.893954 
L 204.082213 303.909268 
L 204.595913 303.90127 
L 205.105372 303.870014 
L 205.608452 303.815664 
L 206.103049 303.738487 
L 206.587099 303.638851 
L 207.058595 303.517229 
L 207.515591 303.374186 
L 207.956212 303.210383 
L 208.378663 303.026571 
L 208.781239 302.823582 
L 209.162328 302.60233 
L 209.520422 302.363802 
L 209.85412 302.109052 
L 210.162134 301.839196 
L 210.443293 301.555407 
L 210.696548 301.258905 
L 210.920975 300.950954 
L 211.115775 300.632855 
L 211.280279 300.305938 
L 211.413946 299.971556 
L 211.516364 299.631082 
L 211.587251 299.285896 
L 211.626454 298.937388 
L 211.633945 298.586944 
L 211.609823 298.235946 
L 211.554307 297.885763 
L 211.467738 297.53775 
L 211.350573 297.19324 
L 211.203381 296.853539 
L 211.026843 296.519925 
L 210.821741 296.193642 
L 210.588961 295.875896 
L 210.329485 295.567852 
L 210.044384 295.270631 
L 209.73482 294.985309 
L 209.402032 294.712908 
L 209.04734 294.454401 
L 208.672132 294.210705 
L 208.277865 293.982681 
L 207.866054 293.77113 
L 207.438273 293.576795 
L 206.996143 293.400355 
L 206.541333 293.242426 
L 206.075549 293.103559 
L 205.600531 292.98424 
L 205.118051 292.884887 
L 204.6299 292.805852 
L 204.137889 292.747417 
L 203.643842 292.709793 
L 203.149587 292.693126 
L 202.656956 292.697486 
L 202.167776 292.722876 
L 201.683864 292.769227 
L 201.207023 292.836397 
L 200.739033 292.924177 
L 200.281652 293.032282 
L 199.836601 293.16036 
L 199.405568 293.307986 
L 198.990197 293.474666 
L 198.592081 293.659837 
L 198.212763 293.862867 
L 197.853723 294.083056 
L 197.516378 294.31964 
L 197.202075 294.571788 
L 196.912083 294.838607 
L 196.647591 295.119144 
L 196.409701 295.412386 
L 196.199424 295.717263 
L 196.017673 296.032654 
L 195.865262 296.357387 
L 195.742896 296.690241 
L 195.651173 297.029954 
L 195.590574 297.375224 
" style="fill:none;stroke:#ff0000;stroke-linecap:square;"/>
   </g>
   <g id="line2d_57">
    <path clip-path="url(#p7df959c1b6)" d="M 181.886507 295.244404 
L 181.75494 296.267003 
L 181.71662 297.303216 
L 181.772835 298.349058 
L 181.924512 299.400385 
L 182.172202 300.452907 
L 182.516051 301.5022 
L 182.955784 302.543726 
L 183.490685 303.572855 
L 184.119579 304.584887 
L 184.840821 305.575077 
L 185.652282 306.538667 
L 186.551339 307.470917 
L 187.534878 308.367135 
L 188.599286 309.222719 
L 189.740462 310.033189 
L 190.953828 310.794225 
L 192.234338 311.50171 
L 193.576509 312.151764 
L 194.97444 312.740782 
L 196.421847 313.265471 
L 197.912103 313.722883 
L 199.438277 314.110444 
L 200.993184 314.425982 
L 202.569433 314.667751 
L 204.159481 314.834446 
L 205.755694 314.925216 
L 207.350396 314.939675 
L 208.935934 314.877899 
L 210.504731 314.740426 
L 212.049346 314.528246 
L 213.562522 314.242786 
L 215.037244 313.885892 
L 216.466777 313.459804 
L 217.844719 312.967135 
L 219.165028 312.410831 
L 220.422063 311.794148 
L 221.610608 311.120613 
L 222.725891 310.393989 
L 223.763607 309.61824 
L 224.719923 308.797494 
L 225.591488 307.93601 
L 226.375431 307.038142 
L 227.069363 306.108309 
L 227.671368 305.15096 
L 228.179992 304.17055 
L 228.594231 303.171516 
L 228.913516 302.158244 
L 229.137698 301.13506 
L 229.267024 300.106201 
L 229.302122 299.075807 
L 229.243979 298.047902 
L 229.093919 297.026384 
L 228.853583 296.015019 
L 228.524906 295.017427 
L 228.1101 294.037081 
L 227.611632 293.077303 
L 227.032202 292.141257 
L 226.374729 291.231954 
L 225.64233 290.352243 
L 224.838304 289.50482 
L 223.966118 288.692223 
L 223.029386 287.916835 
L 222.031864 287.180888 
L 220.977428 286.486461 
L 219.870066 285.835486 
L 218.713868 285.229751 
L 217.513011 284.670899 
L 216.271752 284.160432 
L 214.994418 283.699714 
L 213.685396 283.289974 
L 212.349127 282.932305 
L 210.990098 282.627667 
L 209.612831 282.37689 
L 208.221881 282.18067 
L 206.821825 282.039576 
L 205.417259 281.954044 
L 204.012787 281.92438 
L 202.61302 281.95076 
L 201.222565 282.033227 
L 199.84602 282.171688 
L 198.487967 282.365916 
L 197.152966 282.615545 
L 195.845544 282.920067 
L 194.570194 283.27883 
L 193.331357 283.691035 
L 192.133424 284.155731 
L 190.980717 284.671811 
L 189.877484 285.238007 
L 188.827888 285.852891 
L 187.835994 286.514861 
L 186.905754 287.222147 
L 186.041 287.9728 
L 185.245421 288.764691 
L 184.522554 289.595505 
L 183.875765 290.462741 
L 183.308231 291.363709 
L 182.822922 292.295527 
L 182.422579 293.255123 
L 182.109699 294.239232 
L 181.886507 295.244404 
" style="fill:none;stroke:#ff0000;stroke-linecap:square;"/>
   </g>
   <g id="line2d_58">
    <path clip-path="url(#p7df959c1b6)" d="M 180.475113 297.33643 
L 180.330278 298.552262 
L 180.298226 299.783744 
L 180.38078 301.026191 
L 180.579344 302.274689 
L 180.894868 303.524115 
L 181.327813 304.769151 
L 181.878123 306.004302 
L 182.545189 307.223922 
L 183.327826 308.422243 
L 184.224241 309.593406 
L 185.232015 310.731502 
L 186.348083 311.830613 
L 187.568725 312.884855 
L 188.889557 313.888432 
L 190.305531 314.835687 
L 191.810948 315.721155 
L 193.399475 316.53962 
L 195.064166 317.286173 
L 196.797502 317.956265 
L 198.591432 318.545762 
L 200.437427 319.050991 
L 202.326541 319.468793 
L 204.249475 319.796556 
L 206.196654 320.03225 
L 208.158306 320.174453 
L 210.124544 320.22237 
L 212.085447 320.175837 
L 214.031152 320.035327 
L 215.951933 319.801933 
L 217.83828 319.477358 
L 219.680984 319.063885 
L 221.471197 318.564341 
L 223.200506 317.982066 
L 224.860987 317.320861 
L 226.44525 316.584942 
L 227.946485 315.778888 
L 229.358489 314.907587 
L 230.675689 313.976183 
L 231.893162 312.990021 
L 233.00663 311.954599 
L 234.012471 310.87551 
L 234.907704 309.758403 
L 235.689975 308.608934 
L 236.357545 307.432732 
L 236.909261 306.235356 
L 237.344533 305.02227 
L 237.663305 303.798812 
L 237.866024 302.570174 
L 237.953611 301.341379 
L 237.927427 300.11727 
L 237.789243 298.902495 
L 237.541207 297.701498 
L 237.185816 296.518518 
L 236.725881 295.357577 
L 236.164507 294.222487 
L 235.50506 293.116847 
L 234.751143 292.044043 
L 233.906578 291.007256 
L 232.975374 290.009462 
L 231.961717 289.05344 
L 230.869946 288.141776 
L 229.704538 287.276869 
L 228.47009 286.46094 
L 227.171309 285.696034 
L 225.812995 284.984026 
L 224.400034 284.326632 
L 222.937383 283.725408 
L 221.430063 283.181763 
L 219.88315 282.696953 
L 218.301768 282.272097 
L 216.691079 281.908172 
L 215.056281 281.60602 
L 213.402597 281.366351 
L 211.735273 281.189744 
L 210.059571 281.076645 
L 208.380766 281.027377 
L 206.704137 281.042129 
L 205.034964 281.120963 
L 203.378526 281.26381 
L 201.740091 281.470469 
L 200.124912 281.740604 
L 198.538224 282.073739 
L 196.985234 282.469258 
L 195.471116 282.926398 
L 194.001005 283.444244 
L 192.579986 284.021725 
L 191.213087 284.657606 
L 189.905268 285.350483 
L 188.661412 286.098774 
L 187.486311 286.900716 
L 186.384654 287.754351 
L 185.361009 288.657526 
L 184.419812 289.607877 
L 183.565344 290.602831 
L 182.801715 291.639591 
L 182.132841 292.715134 
L 181.562422 293.826202 
L 181.093917 294.969304 
L 180.730515 296.140706 
L 180.475113 297.33643 
" style="fill:none;stroke:#ff0000;stroke-linecap:square;"/>
   </g>
   <g id="line2d_59">
    <path clip-path="url(#p7df959c1b6)" d="M 208.513579 301.004665 
L 208.540834 301.544854 
L 208.618062 302.083061 
L 208.745278 302.617121 
L 208.922296 303.144854 
L 209.14872 303.66407 
L 209.423945 304.172582 
L 209.747149 304.668214 
L 210.117299 305.148811 
L 210.533143 305.612254 
L 210.993216 306.056469 
L 211.49584 306.47944 
L 212.039128 306.879221 
L 212.62099 307.253946 
L 213.239141 307.601846 
L 213.891104 307.921259 
L 214.574228 308.210637 
L 215.285691 308.468565 
L 216.022519 308.693766 
L 216.781599 308.885114 
L 217.559691 309.041639 
L 218.353449 309.162539 
L 219.15944 309.247185 
L 219.974156 309.295126 
L 220.794041 309.306093 
L 221.615507 309.280003 
L 222.434957 309.216957 
L 223.248801 309.117243 
L 224.053484 308.981335 
L 224.845498 308.809883 
L 225.621407 308.603716 
L 226.377865 308.363833 
L 227.111633 308.091392 
L 227.819598 307.787708 
L 228.498785 307.454238 
L 229.146379 307.092573 
L 229.759727 306.704428 
L 230.336363 306.291625 
L 230.874005 305.856087 
L 231.370575 305.39982 
L 231.824196 304.924905 
L 232.233207 304.43348 
L 232.596158 303.927731 
L 232.911817 303.40988 
L 233.179173 302.882169 
L 233.397431 302.34685 
L 233.566012 301.806177 
L 233.684552 301.262389 
L 233.752896 300.717705 
L 233.771096 300.174315 
L 233.739404 299.634367 
L 233.658263 299.099961 
L 233.528306 298.573144 
L 233.350346 298.055902 
L 233.125368 297.550151 
L 232.854519 297.057738 
L 232.539107 296.58043 
L 232.180583 296.119915 
L 231.780541 295.677797 
L 231.340703 295.255592 
L 230.862917 294.854725 
L 230.349142 294.476532 
L 229.801444 294.122255 
L 229.221986 293.79304 
L 228.61302 293.48994 
L 227.97688 293.213911 
L 227.315972 292.965812 
L 226.63277 292.746406 
L 225.929803 292.55636 
L 225.209654 292.396242 
L 224.474946 292.266524 
L 223.72834 292.167585 
L 222.972527 292.099702 
L 222.210217 292.063062 
L 221.444139 292.057751 
L 220.677027 292.083764 
L 219.911619 292.140999 
L 219.150648 292.229261 
L 218.396832 292.34826 
L 217.652874 292.497612 
L 216.921449 292.67684 
L 216.205201 292.885375 
L 215.506734 293.122554 
L 214.828606 293.387623 
L 214.173319 293.679737 
L 213.543319 293.99796 
L 212.940979 294.341265 
L 212.368598 294.708537 
L 211.828393 295.098573 
L 211.322487 295.510084 
L 210.852907 295.941694 
L 210.42157 296.391945 
L 210.030281 296.859299 
L 209.680717 297.342136 
L 209.374429 297.838764 
L 209.112825 298.347416 
L 208.897166 298.866257 
L 208.728557 299.393388 
L 208.607939 299.92685 
L 208.536082 300.464629 
L 208.513579 301.004665 
" style="fill:none;stroke:#ff0000;stroke-linecap:square;"/>
   </g>
   <g id="line2d_60">
    <path clip-path="url(#p7df959c1b6)" d="M 132.19048 263.125735 
L 132.237574 268.174341 
L 132.660617 273.264387 
L 133.473847 278.379341 
L 134.691088 283.500912 
L 136.325518 288.608889 
L 138.389401 293.680993 
L 140.893759 298.692752 
L 143.847991 303.617392 
L 147.259428 308.425776 
L 151.132835 313.086408 
L 155.469861 317.565493 
L 161.199193 319.474069 
L 167.643421 319.726225 
L 174.129569 319.823861 
L 180.651352 319.767613 
L 187.202433 319.558173 
L 193.776434 319.196306 
L 200.366936 318.682854 
L 206.967494 318.018736 
L 213.571639 317.204961 
L 220.172886 316.242622 
L 226.76474 315.132906 
L 233.340706 313.877089 
L 239.894291 312.476544 
L 246.419013 310.932733 
L 252.908407 309.247212 
L 259.356031 307.421628 
L 265.75547 305.457717 
L 272.100345 303.357304 
L 278.384316 301.122296 
L 284.601091 298.754679 
L 290.744424 296.256518 
L 296.808129 293.629946 
L 302.786077 290.877163 
L 308.672205 288.000425 
L 314.460517 285.002038 
L 320.145088 281.88435 
L 325.72007 278.649739 
L 329.885679 274.285825 
L 331.614222 268.301625 
L 332.84792 262.373712 
L 333.604096 256.531173 
L 333.901751 250.799609 
L 333.761042 245.201332 
L 333.202844 239.755606 
L 332.248387 234.4789 
L 330.918966 229.385165 
L 329.235715 224.486098 
L 327.219434 219.7914 
L 324.890466 215.30902 
L 322.268613 211.045376 
L 319.373076 207.005564 
L 316.222432 203.193534 
L 312.834618 199.612259 
L 309.226945 196.26387 
L 305.416105 193.149788 
L 301.418203 190.270824 
L 297.248784 187.62728 
L 292.922866 185.219019 
L 288.454979 183.045542 
L 283.859197 181.106035 
L 279.149179 179.399425 
L 274.338202 177.924416 
L 269.439197 176.67952 
L 264.464781 175.66309 
L 259.42729 174.873338 
L 254.33881 174.308352 
L 249.211204 173.966115 
L 244.056141 173.844511 
L 238.885118 173.941337 
L 233.709489 174.254307 
L 228.540483 174.781057 
L 223.389231 175.519145 
L 218.266783 176.466056 
L 213.184131 177.619195 
L 208.152224 178.97589 
L 203.181994 180.533384 
L 198.284368 182.288831 
L 193.470291 184.239291 
L 188.750743 186.381718 
L 184.136755 188.712951 
L 179.639431 191.229706 
L 175.269963 193.928553 
L 171.039655 196.80591 
L 166.959933 199.858014 
L 163.042374 203.080905 
L 159.298715 206.470398 
L 155.740878 210.022051 
L 152.380985 213.731134 
L 149.231375 217.592588 
L 146.304619 221.600978 
L 143.613533 225.750443 
L 141.171189 230.034635 
L 138.990919 234.446655 
L 137.086316 238.978971 
L 135.471226 243.62334 
L 134.159732 248.370706 
L 133.166123 253.211093 
L 132.504853 258.133494 
L 132.19048 263.125735 
" style="fill:none;stroke:#ff0000;stroke-linecap:square;"/>
   </g>
   <g id="line2d_61">
    <path clip-path="url(#p7df959c1b6)" d="M 195.082798 327.644135 
L 195.035714 328.340543 
L 195.074462 329.042472 
L 195.237379 329.469597 
L 195.626392 328.840472 
L 196.093408 328.228607 
L 196.635731 327.635799 
L 197.250482 327.063709 
L 197.934619 326.513869 
L 198.684954 325.987686 
L 199.498164 325.486451 
L 200.370812 325.01134 
L 201.299356 324.563425 
L 202.28016 324.143675 
L 203.30951 323.75297 
L 204.383617 323.392095 
L 205.498631 323.061758 
L 206.650651 322.762584 
L 207.835724 322.49513 
L 209.049861 322.259879 
L 210.289038 322.057254 
L 211.549203 321.887612 
L 212.826281 321.751254 
L 214.116179 321.648425 
L 215.41479 321.579313 
L 216.718001 321.544056 
L 218.021689 321.542736 
L 219.321736 321.575386 
L 220.614022 321.641985 
L 221.894438 321.742458 
L 223.158886 321.876677 
L 224.403285 322.044456 
L 225.623573 322.245549 
L 226.815716 322.479649 
L 227.975713 322.746382 
L 229.099598 323.045306 
L 230.183452 323.375902 
L 231.223407 323.737574 
L 232.215655 324.129639 
L 233.156457 324.551326 
L 234.042152 325.001766 
L 234.86917 325.479987 
L 235.634039 325.98491 
L 236.333404 326.515338 
L 236.964038 327.069954 
L 237.522856 327.647312 
L 238.006934 328.245832 
L 238.413526 328.863794 
L 238.564339 328.432267 
L 238.583286 327.729529 
L 238.516591 327.034717 
L 238.365679 326.350399 
L 238.132259 325.678996 
L 237.818301 325.022787 
L 237.426016 324.383903 
L 236.957837 323.764331 
L 236.416392 323.165917 
L 235.804496 322.590368 
L 235.125124 322.039257 
L 234.381404 321.514029 
L 233.576591 321.016003 
L 232.714063 320.546382 
L 231.797304 320.106252 
L 230.82989 319.696594 
L 229.815482 319.318288 
L 228.757813 318.972114 
L 227.660682 318.658763 
L 226.527941 318.378839 
L 225.363494 318.132862 
L 224.171282 317.921277 
L 222.955284 317.744451 
L 221.719507 317.602683 
L 220.46798 317.496201 
L 219.204751 317.425168 
L 217.933882 317.389683 
L 216.65944 317.389783 
L 215.3855 317.42544 
L 214.116133 317.496566 
L 212.855406 317.603013 
L 211.607376 317.744566 
L 210.376083 317.92095 
L 209.165551 318.131822 
L 207.979775 318.376773 
L 206.822721 318.655322 
L 205.698319 318.966916 
L 204.610454 319.310924 
L 203.562961 319.686636 
L 202.559618 320.093253 
L 201.604133 320.529891 
L 200.700143 320.995568 
L 199.851194 321.489203 
L 199.060737 322.009612 
L 198.332115 322.555498 
L 197.668547 323.125452 
L 197.073116 323.717941 
L 196.548753 324.331309 
L 196.098222 324.963772 
L 195.724102 325.613409 
L 195.428765 326.278167 
L 195.214362 326.955853 
L 195.082798 327.644135 
" style="fill:none;stroke:#ff0000;stroke-linecap:square;"/>
   </g>
   <g id="line2d_62">
    <path clip-path="url(#p7df959c1b6)" d="M 191.546071 323.388202 
L 191.491134 324.00811 
L 191.50907 324.634821 
L 191.600647 325.265896 
L 191.76635 325.898799 
L 192.006359 326.5309 
L 192.320539 327.159491 
L 192.708426 327.781792 
L 193.169212 328.394966 
L 193.701736 328.996139 
L 194.331832 329.387921 
L 195.128918 329.019073 
L 195.975618 328.675676 
L 196.868635 328.358439 
L 197.804591 328.067984 
L 198.780041 327.804852 
L 199.791476 327.56951 
L 200.835334 327.36235 
L 201.908009 327.183701 
L 203.005852 327.033827 
L 204.125185 326.912931 
L 205.262299 326.821161 
L 206.413464 326.758611 
L 207.574933 326.725323 
L 208.742947 326.721289 
L 209.913738 326.746453 
L 211.083538 326.80071 
L 212.248578 326.883908 
L 213.405096 326.99585 
L 214.549341 327.136288 
L 215.677577 327.304925 
L 216.78609 327.501416 
L 217.871191 327.725362 
L 218.92922 327.97631 
L 219.956558 328.253748 
L 220.949629 328.557108 
L 221.904904 328.885752 
L 222.818917 329.238981 
L 223.688266 329.616018 
L 224.509624 330.016015 
L 225.279749 330.438041 
L 225.93507 330.089876 
L 226.507304 329.52619 
L 227.008784 328.945667 
L 227.438154 328.351097 
L 227.794416 327.745256 
L 228.076918 327.130884 
L 228.285339 326.510676 
L 228.419682 325.887266 
L 228.480257 325.26322 
L 228.467663 324.64102 
L 228.382778 324.023064 
L 228.22674 323.411655 
L 228.000928 322.808999 
L 227.706953 322.217199 
L 227.346636 321.638254 
L 226.921995 321.074061 
L 226.43523 320.526407 
L 225.88871 319.996979 
L 225.284956 319.487356 
L 224.626628 318.999018 
L 223.916518 318.533344 
L 223.157531 318.091615 
L 222.352679 317.675016 
L 221.505068 317.28464 
L 220.617888 316.921491 
L 219.694408 316.586486 
L 218.737961 316.280457 
L 217.751941 316.004154 
L 216.739793 315.758246 
L 215.705006 315.543329 
L 214.651107 315.359919 
L 213.581656 315.208459 
L 212.500235 315.089323 
L 211.410448 315.002808 
L 210.315911 314.949145 
L 209.220248 314.928491 
L 208.127088 314.940934 
L 207.040052 314.986491 
L 205.962758 315.065107 
L 204.898804 315.176654 
L 203.851772 315.320932 
L 202.825215 315.497662 
L 201.822657 315.706489 
L 200.847579 315.946979 
L 199.903419 316.218611 
L 198.993559 316.520783 
L 198.121321 316.8528 
L 197.289958 317.21388 
L 196.502642 317.603141 
L 195.76246 318.019604 
L 195.072397 318.462188 
L 194.435331 318.929707 
L 193.854019 319.420866 
L 193.331083 319.934259 
L 192.869001 320.468364 
L 192.47009 321.021547 
L 192.136491 321.592052 
L 191.87016 322.178009 
L 191.672844 322.777428 
L 191.546071 323.388202 
" style="fill:none;stroke:#ff0000;stroke-linecap:square;"/>
   </g>
   <g id="text_1">
    <!-- Hematite directions from Teel basalt flows in geographic coordinates -->
    <defs>
     <path id="BitstreamVeraSans-Roman-20"/>
     <path d="M 48.6875 27.296875 
Q 48.6875 37.203125 44.609375 42.84375 
Q 40.53125 48.484375 33.40625 48.484375 
Q 26.265625 48.484375 22.1875 42.84375 
Q 18.109375 37.203125 18.109375 27.296875 
Q 18.109375 17.390625 22.1875 11.75 
Q 26.265625 6.109375 33.40625 6.109375 
Q 40.53125 6.109375 44.609375 11.75 
Q 48.6875 17.390625 48.6875 27.296875 
M 18.109375 46.390625 
Q 20.953125 51.265625 25.265625 53.625 
Q 29.59375 56 35.59375 56 
Q 45.5625 56 51.78125 48.09375 
Q 58.015625 40.1875 58.015625 27.296875 
Q 58.015625 14.40625 51.78125 6.484375 
Q 45.5625 -1.421875 35.59375 -1.421875 
Q 29.59375 -1.421875 25.265625 0.953125 
Q 20.953125 3.328125 18.109375 8.203125 
L 18.109375 0 
L 9.078125 0 
L 9.078125 75.984375 
L 18.109375 75.984375 
z
" id="BitstreamVeraSans-Roman-62"/>
     <path d="M 18.109375 8.203125 
L 18.109375 -20.796875 
L 9.078125 -20.796875 
L 9.078125 54.6875 
L 18.109375 54.6875 
L 18.109375 46.390625 
Q 20.953125 51.265625 25.265625 53.625 
Q 29.59375 56 35.59375 56 
Q 45.5625 56 51.78125 48.09375 
Q 58.015625 40.1875 58.015625 27.296875 
Q 58.015625 14.40625 51.78125 6.484375 
Q 45.5625 -1.421875 35.59375 -1.421875 
Q 29.59375 -1.421875 25.265625 0.953125 
Q 20.953125 3.328125 18.109375 8.203125 
M 48.6875 27.296875 
Q 48.6875 37.203125 44.609375 42.84375 
Q 40.53125 48.484375 33.40625 48.484375 
Q 26.265625 48.484375 22.1875 42.84375 
Q 18.109375 37.203125 18.109375 27.296875 
Q 18.109375 17.390625 22.1875 11.75 
Q 26.265625 6.109375 33.40625 6.109375 
Q 40.53125 6.109375 44.609375 11.75 
Q 48.6875 17.390625 48.6875 27.296875 
" id="BitstreamVeraSans-Roman-70"/>
     <path d="M 54.890625 33.015625 
L 54.890625 0 
L 45.90625 0 
L 45.90625 32.71875 
Q 45.90625 40.484375 42.875 44.328125 
Q 39.84375 48.1875 33.796875 48.1875 
Q 26.515625 48.1875 22.3125 43.546875 
Q 18.109375 38.921875 18.109375 30.90625 
L 18.109375 0 
L 9.078125 0 
L 9.078125 75.984375 
L 18.109375 75.984375 
L 18.109375 46.1875 
Q 21.34375 51.125 25.703125 53.5625 
Q 30.078125 56 35.796875 56 
Q 45.21875 56 50.046875 50.171875 
Q 54.890625 44.34375 54.890625 33.015625 
" id="BitstreamVeraSans-Roman-68"/>
     <path d="M 41.109375 46.296875 
Q 39.59375 47.171875 37.8125 47.578125 
Q 36.03125 48 33.890625 48 
Q 26.265625 48 22.1875 43.046875 
Q 18.109375 38.09375 18.109375 28.8125 
L 18.109375 0 
L 9.078125 0 
L 9.078125 54.6875 
L 18.109375 54.6875 
L 18.109375 46.1875 
Q 20.953125 51.171875 25.484375 53.578125 
Q 30.03125 56 36.53125 56 
Q 37.453125 56 38.578125 55.875 
Q 39.703125 55.765625 41.0625 55.515625 
z
" id="BitstreamVeraSans-Roman-72"/>
     <path d="M 52 44.1875 
Q 55.375 50.25 60.0625 53.125 
Q 64.75 56 71.09375 56 
Q 79.640625 56 84.28125 50.015625 
Q 88.921875 44.046875 88.921875 33.015625 
L 88.921875 0 
L 79.890625 0 
L 79.890625 32.71875 
Q 79.890625 40.578125 77.09375 44.375 
Q 74.3125 48.1875 68.609375 48.1875 
Q 61.625 48.1875 57.5625 43.546875 
Q 53.515625 38.921875 53.515625 30.90625 
L 53.515625 0 
L 44.484375 0 
L 44.484375 32.71875 
Q 44.484375 40.625 41.703125 44.40625 
Q 38.921875 48.1875 33.109375 48.1875 
Q 26.21875 48.1875 22.15625 43.53125 
Q 18.109375 38.875 18.109375 30.90625 
L 18.109375 0 
L 9.078125 0 
L 9.078125 54.6875 
L 18.109375 54.6875 
L 18.109375 46.1875 
Q 21.1875 51.21875 25.484375 53.609375 
Q 29.78125 56 35.6875 56 
Q 41.65625 56 45.828125 52.96875 
Q 50 49.953125 52 44.1875 
" id="BitstreamVeraSans-Roman-6d"/>
     <path d="M 30.609375 48.390625 
Q 23.390625 48.390625 19.1875 42.75 
Q 14.984375 37.109375 14.984375 27.296875 
Q 14.984375 17.484375 19.15625 11.84375 
Q 23.34375 6.203125 30.609375 6.203125 
Q 37.796875 6.203125 41.984375 11.859375 
Q 46.1875 17.53125 46.1875 27.296875 
Q 46.1875 37.015625 41.984375 42.703125 
Q 37.796875 48.390625 30.609375 48.390625 
M 30.609375 56 
Q 42.328125 56 49.015625 48.375 
Q 55.71875 40.765625 55.71875 27.296875 
Q 55.71875 13.875 49.015625 6.21875 
Q 42.328125 -1.421875 30.609375 -1.421875 
Q 18.84375 -1.421875 12.171875 6.21875 
Q 5.515625 13.875 5.515625 27.296875 
Q 5.515625 40.765625 12.171875 48.375 
Q 18.84375 56 30.609375 56 
" id="BitstreamVeraSans-Roman-6f"/>
     <path d="M 9.421875 75.984375 
L 18.40625 75.984375 
L 18.40625 0 
L 9.421875 0 
z
" id="BitstreamVeraSans-Roman-6c"/>
     <path d="M 54.890625 33.015625 
L 54.890625 0 
L 45.90625 0 
L 45.90625 32.71875 
Q 45.90625 40.484375 42.875 44.328125 
Q 39.84375 48.1875 33.796875 48.1875 
Q 26.515625 48.1875 22.3125 43.546875 
Q 18.109375 38.921875 18.109375 30.90625 
L 18.109375 0 
L 9.078125 0 
L 9.078125 54.6875 
L 18.109375 54.6875 
L 18.109375 46.1875 
Q 21.34375 51.125 25.703125 53.5625 
Q 30.078125 56 35.796875 56 
Q 45.21875 56 50.046875 50.171875 
Q 54.890625 44.34375 54.890625 33.015625 
" id="BitstreamVeraSans-Roman-6e"/>
     <path d="M -0.296875 72.90625 
L 61.375 72.90625 
L 61.375 64.59375 
L 35.5 64.59375 
L 35.5 0 
L 25.59375 0 
L 25.59375 64.59375 
L -0.296875 64.59375 
z
" id="BitstreamVeraSans-Roman-54"/>
     <path d="M 9.421875 54.6875 
L 18.40625 54.6875 
L 18.40625 0 
L 9.421875 0 
z
M 9.421875 75.984375 
L 18.40625 75.984375 
L 18.40625 64.59375 
L 9.421875 64.59375 
z
" id="BitstreamVeraSans-Roman-69"/>
     <path d="M 45.40625 27.984375 
Q 45.40625 37.75 41.375 43.109375 
Q 37.359375 48.484375 30.078125 48.484375 
Q 22.859375 48.484375 18.828125 43.109375 
Q 14.796875 37.75 14.796875 27.984375 
Q 14.796875 18.265625 18.828125 12.890625 
Q 22.859375 7.515625 30.078125 7.515625 
Q 37.359375 7.515625 41.375 12.890625 
Q 45.40625 18.265625 45.40625 27.984375 
M 54.390625 6.78125 
Q 54.390625 -7.171875 48.1875 -13.984375 
Q 42 -20.796875 29.203125 -20.796875 
Q 24.46875 -20.796875 20.265625 -20.09375 
Q 16.0625 -19.390625 12.109375 -17.921875 
L 12.109375 -9.1875 
Q 16.0625 -11.328125 19.921875 -12.34375 
Q 23.78125 -13.375 27.78125 -13.375 
Q 36.625 -13.375 41.015625 -8.765625 
Q 45.40625 -4.15625 45.40625 5.171875 
L 45.40625 9.625 
Q 42.625 4.78125 38.28125 2.390625 
Q 33.9375 0 27.875 0 
Q 17.828125 0 11.671875 7.65625 
Q 5.515625 15.328125 5.515625 27.984375 
Q 5.515625 40.671875 11.671875 48.328125 
Q 17.828125 56 27.875 56 
Q 33.9375 56 38.28125 53.609375 
Q 42.625 51.21875 45.40625 46.390625 
L 45.40625 54.6875 
L 54.390625 54.6875 
z
" id="BitstreamVeraSans-Roman-67"/>
     <path d="M 4.203125 54.6875 
L 13.1875 54.6875 
L 24.421875 12.015625 
L 35.59375 54.6875 
L 46.1875 54.6875 
L 57.421875 12.015625 
L 68.609375 54.6875 
L 77.59375 54.6875 
L 63.28125 0 
L 52.6875 0 
L 40.921875 44.828125 
L 29.109375 0 
L 18.5 0 
z
" id="BitstreamVeraSans-Roman-77"/>
     <path d="M 56.203125 29.59375 
L 56.203125 25.203125 
L 14.890625 25.203125 
Q 15.484375 15.921875 20.484375 11.0625 
Q 25.484375 6.203125 34.421875 6.203125 
Q 39.59375 6.203125 44.453125 7.46875 
Q 49.3125 8.734375 54.109375 11.28125 
L 54.109375 2.78125 
Q 49.265625 0.734375 44.1875 -0.34375 
Q 39.109375 -1.421875 33.890625 -1.421875 
Q 20.796875 -1.421875 13.15625 6.1875 
Q 5.515625 13.8125 5.515625 26.8125 
Q 5.515625 40.234375 12.765625 48.109375 
Q 20.015625 56 32.328125 56 
Q 43.359375 56 49.78125 48.890625 
Q 56.203125 41.796875 56.203125 29.59375 
M 47.21875 32.234375 
Q 47.125 39.59375 43.09375 43.984375 
Q 39.0625 48.390625 32.421875 48.390625 
Q 24.90625 48.390625 20.390625 44.140625 
Q 15.875 39.890625 15.1875 32.171875 
z
" id="BitstreamVeraSans-Roman-65"/>
     <path d="M 45.40625 46.390625 
L 45.40625 75.984375 
L 54.390625 75.984375 
L 54.390625 0 
L 45.40625 0 
L 45.40625 8.203125 
Q 42.578125 3.328125 38.25 0.953125 
Q 33.9375 -1.421875 27.875 -1.421875 
Q 17.96875 -1.421875 11.734375 6.484375 
Q 5.515625 14.40625 5.515625 27.296875 
Q 5.515625 40.1875 11.734375 48.09375 
Q 17.96875 56 27.875 56 
Q 33.9375 56 38.25 53.625 
Q 42.578125 51.265625 45.40625 46.390625 
M 14.796875 27.296875 
Q 14.796875 17.390625 18.875 11.75 
Q 22.953125 6.109375 30.078125 6.109375 
Q 37.203125 6.109375 41.296875 11.75 
Q 45.40625 17.390625 45.40625 27.296875 
Q 45.40625 37.203125 41.296875 42.84375 
Q 37.203125 48.484375 30.078125 48.484375 
Q 22.953125 48.484375 18.875 42.84375 
Q 14.796875 37.203125 14.796875 27.296875 
" id="BitstreamVeraSans-Roman-64"/>
     <path d="M 18.3125 70.21875 
L 18.3125 54.6875 
L 36.8125 54.6875 
L 36.8125 47.703125 
L 18.3125 47.703125 
L 18.3125 18.015625 
Q 18.3125 11.328125 20.140625 9.421875 
Q 21.96875 7.515625 27.59375 7.515625 
L 36.8125 7.515625 
L 36.8125 0 
L 27.59375 0 
Q 17.1875 0 13.234375 3.875 
Q 9.28125 7.765625 9.28125 18.015625 
L 9.28125 47.703125 
L 2.6875 47.703125 
L 2.6875 54.6875 
L 9.28125 54.6875 
L 9.28125 70.21875 
z
" id="BitstreamVeraSans-Roman-74"/>
     <path d="M 37.109375 75.984375 
L 37.109375 68.5 
L 28.515625 68.5 
Q 23.6875 68.5 21.796875 66.546875 
Q 19.921875 64.59375 19.921875 59.515625 
L 19.921875 54.6875 
L 34.71875 54.6875 
L 34.71875 47.703125 
L 19.921875 47.703125 
L 19.921875 0 
L 10.890625 0 
L 10.890625 47.703125 
L 2.296875 47.703125 
L 2.296875 54.6875 
L 10.890625 54.6875 
L 10.890625 58.5 
Q 10.890625 67.625 15.140625 71.796875 
Q 19.390625 75.984375 28.609375 75.984375 
z
" id="BitstreamVeraSans-Roman-66"/>
     <path d="M 34.28125 27.484375 
Q 23.390625 27.484375 19.1875 25 
Q 14.984375 22.515625 14.984375 16.5 
Q 14.984375 11.71875 18.140625 8.90625 
Q 21.296875 6.109375 26.703125 6.109375 
Q 34.1875 6.109375 38.703125 11.40625 
Q 43.21875 16.703125 43.21875 25.484375 
L 43.21875 27.484375 
z
M 52.203125 31.203125 
L 52.203125 0 
L 43.21875 0 
L 43.21875 8.296875 
Q 40.140625 3.328125 35.546875 0.953125 
Q 30.953125 -1.421875 24.3125 -1.421875 
Q 15.921875 -1.421875 10.953125 3.296875 
Q 6 8.015625 6 15.921875 
Q 6 25.140625 12.171875 29.828125 
Q 18.359375 34.515625 30.609375 34.515625 
L 43.21875 34.515625 
L 43.21875 35.40625 
Q 43.21875 41.609375 39.140625 45 
Q 35.0625 48.390625 27.6875 48.390625 
Q 23 48.390625 18.546875 47.265625 
Q 14.109375 46.140625 10.015625 43.890625 
L 10.015625 52.203125 
Q 14.9375 54.109375 19.578125 55.046875 
Q 24.21875 56 28.609375 56 
Q 40.484375 56 46.34375 49.84375 
Q 52.203125 43.703125 52.203125 31.203125 
" id="BitstreamVeraSans-Roman-61"/>
     <path d="M 44.28125 53.078125 
L 44.28125 44.578125 
Q 40.484375 46.53125 36.375 47.5 
Q 32.28125 48.484375 27.875 48.484375 
Q 21.1875 48.484375 17.84375 46.4375 
Q 14.5 44.390625 14.5 40.28125 
Q 14.5 37.15625 16.890625 35.375 
Q 19.28125 33.59375 26.515625 31.984375 
L 29.59375 31.296875 
Q 39.15625 29.25 43.1875 25.515625 
Q 47.21875 21.78125 47.21875 15.09375 
Q 47.21875 7.46875 41.1875 3.015625 
Q 35.15625 -1.421875 24.609375 -1.421875 
Q 20.21875 -1.421875 15.453125 -0.5625 
Q 10.6875 0.296875 5.421875 2 
L 5.421875 11.28125 
Q 10.40625 8.6875 15.234375 7.390625 
Q 20.0625 6.109375 24.8125 6.109375 
Q 31.15625 6.109375 34.5625 8.28125 
Q 37.984375 10.453125 37.984375 14.40625 
Q 37.984375 18.0625 35.515625 20.015625 
Q 33.0625 21.96875 24.703125 23.78125 
L 21.578125 24.515625 
Q 13.234375 26.265625 9.515625 29.90625 
Q 5.8125 33.546875 5.8125 39.890625 
Q 5.8125 47.609375 11.28125 51.796875 
Q 16.75 56 26.8125 56 
Q 31.78125 56 36.171875 55.265625 
Q 40.578125 54.546875 44.28125 53.078125 
" id="BitstreamVeraSans-Roman-73"/>
     <path d="M 48.78125 52.59375 
L 48.78125 44.1875 
Q 44.96875 46.296875 41.140625 47.34375 
Q 37.3125 48.390625 33.40625 48.390625 
Q 24.65625 48.390625 19.8125 42.84375 
Q 14.984375 37.3125 14.984375 27.296875 
Q 14.984375 17.28125 19.8125 11.734375 
Q 24.65625 6.203125 33.40625 6.203125 
Q 37.3125 6.203125 41.140625 7.25 
Q 44.96875 8.296875 48.78125 10.40625 
L 48.78125 2.09375 
Q 45.015625 0.34375 40.984375 -0.53125 
Q 36.96875 -1.421875 32.421875 -1.421875 
Q 20.0625 -1.421875 12.78125 6.34375 
Q 5.515625 14.109375 5.515625 27.296875 
Q 5.515625 40.671875 12.859375 48.328125 
Q 20.21875 56 33.015625 56 
Q 37.15625 56 41.109375 55.140625 
Q 45.0625 54.296875 48.78125 52.59375 
" id="BitstreamVeraSans-Roman-63"/>
     <path d="M 9.8125 72.90625 
L 19.671875 72.90625 
L 19.671875 43.015625 
L 55.515625 43.015625 
L 55.515625 72.90625 
L 65.375 72.90625 
L 65.375 0 
L 55.515625 0 
L 55.515625 34.71875 
L 19.671875 34.71875 
L 19.671875 0 
L 9.8125 0 
z
" id="BitstreamVeraSans-Roman-48"/>
    </defs>
    <g transform="translate(7.2 16.318125)scale(0.12 -0.12)">
     <use xlink:href="#BitstreamVeraSans-Roman-48"/>
     <use x="75.1953125" xlink:href="#BitstreamVeraSans-Roman-65"/>
     <use x="136.71875" xlink:href="#BitstreamVeraSans-Roman-6d"/>
     <use x="234.130859375" xlink:href="#BitstreamVeraSans-Roman-61"/>
     <use x="295.41015625" xlink:href="#BitstreamVeraSans-Roman-74"/>
     <use x="334.619140625" xlink:href="#BitstreamVeraSans-Roman-69"/>
     <use x="362.40234375" xlink:href="#BitstreamVeraSans-Roman-74"/>
     <use x="401.611328125" xlink:href="#BitstreamVeraSans-Roman-65"/>
     <use x="463.134765625" xlink:href="#BitstreamVeraSans-Roman-20"/>
     <use x="494.921875" xlink:href="#BitstreamVeraSans-Roman-64"/>
     <use x="558.3984375" xlink:href="#BitstreamVeraSans-Roman-69"/>
     <use x="586.181640625" xlink:href="#BitstreamVeraSans-Roman-72"/>
     <use x="627.263671875" xlink:href="#BitstreamVeraSans-Roman-65"/>
     <use x="688.787109375" xlink:href="#BitstreamVeraSans-Roman-63"/>
     <use x="743.767578125" xlink:href="#BitstreamVeraSans-Roman-74"/>
     <use x="782.9765625" xlink:href="#BitstreamVeraSans-Roman-69"/>
     <use x="810.759765625" xlink:href="#BitstreamVeraSans-Roman-6f"/>
     <use x="871.94140625" xlink:href="#BitstreamVeraSans-Roman-6e"/>
     <use x="935.3203125" xlink:href="#BitstreamVeraSans-Roman-73"/>
     <use x="987.419921875" xlink:href="#BitstreamVeraSans-Roman-20"/>
     <use x="1019.20703125" xlink:href="#BitstreamVeraSans-Roman-66"/>
     <use x="1054.41210938" xlink:href="#BitstreamVeraSans-Roman-72"/>
     <use x="1095.49414062" xlink:href="#BitstreamVeraSans-Roman-6f"/>
     <use x="1156.67578125" xlink:href="#BitstreamVeraSans-Roman-6d"/>
     <use x="1254.08789062" xlink:href="#BitstreamVeraSans-Roman-20"/>
     <use x="1285.875" xlink:href="#BitstreamVeraSans-Roman-54"/>
     <use x="1346.69335938" xlink:href="#BitstreamVeraSans-Roman-65"/>
     <use x="1408.21679688" xlink:href="#BitstreamVeraSans-Roman-65"/>
     <use x="1469.74023438" xlink:href="#BitstreamVeraSans-Roman-6c"/>
     <use x="1497.5234375" xlink:href="#BitstreamVeraSans-Roman-20"/>
     <use x="1529.31054688" xlink:href="#BitstreamVeraSans-Roman-62"/>
     <use x="1592.78710938" xlink:href="#BitstreamVeraSans-Roman-61"/>
     <use x="1654.06640625" xlink:href="#BitstreamVeraSans-Roman-73"/>
     <use x="1706.16601562" xlink:href="#BitstreamVeraSans-Roman-61"/>
     <use x="1767.4453125" xlink:href="#BitstreamVeraSans-Roman-6c"/>
     <use x="1795.22851562" xlink:href="#BitstreamVeraSans-Roman-74"/>
     <use x="1834.4375" xlink:href="#BitstreamVeraSans-Roman-20"/>
     <use x="1866.22460938" xlink:href="#BitstreamVeraSans-Roman-66"/>
     <use x="1901.4296875" xlink:href="#BitstreamVeraSans-Roman-6c"/>
     <use x="1929.21289062" xlink:href="#BitstreamVeraSans-Roman-6f"/>
     <use x="1990.39453125" xlink:href="#BitstreamVeraSans-Roman-77"/>
     <use x="2072.18164062" xlink:href="#BitstreamVeraSans-Roman-73"/>
     <use x="2124.28125" xlink:href="#BitstreamVeraSans-Roman-20"/>
     <use x="2156.06835938" xlink:href="#BitstreamVeraSans-Roman-69"/>
     <use x="2183.8515625" xlink:href="#BitstreamVeraSans-Roman-6e"/>
     <use x="2247.23046875" xlink:href="#BitstreamVeraSans-Roman-20"/>
     <use x="2279.01757812" xlink:href="#BitstreamVeraSans-Roman-67"/>
     <use x="2342.49414062" xlink:href="#BitstreamVeraSans-Roman-65"/>
     <use x="2404.01757812" xlink:href="#BitstreamVeraSans-Roman-6f"/>
     <use x="2465.19921875" xlink:href="#BitstreamVeraSans-Roman-67"/>
     <use x="2528.67578125" xlink:href="#BitstreamVeraSans-Roman-72"/>
     <use x="2569.7890625" xlink:href="#BitstreamVeraSans-Roman-61"/>
     <use x="2631.06835938" xlink:href="#BitstreamVeraSans-Roman-70"/>
     <use x="2694.54492188" xlink:href="#BitstreamVeraSans-Roman-68"/>
     <use x="2757.92382812" xlink:href="#BitstreamVeraSans-Roman-69"/>
     <use x="2785.70703125" xlink:href="#BitstreamVeraSans-Roman-63"/>
     <use x="2840.6875" xlink:href="#BitstreamVeraSans-Roman-20"/>
     <use x="2872.47460938" xlink:href="#BitstreamVeraSans-Roman-63"/>
     <use x="2927.45507812" xlink:href="#BitstreamVeraSans-Roman-6f"/>
     <use x="2988.63671875" xlink:href="#BitstreamVeraSans-Roman-6f"/>
     <use x="3049.81835938" xlink:href="#BitstreamVeraSans-Roman-72"/>
     <use x="3090.91601562" xlink:href="#BitstreamVeraSans-Roman-64"/>
     <use x="3154.39257812" xlink:href="#BitstreamVeraSans-Roman-69"/>
     <use x="3182.17578125" xlink:href="#BitstreamVeraSans-Roman-6e"/>
     <use x="3245.5546875" xlink:href="#BitstreamVeraSans-Roman-61"/>
     <use x="3306.83398438" xlink:href="#BitstreamVeraSans-Roman-74"/>
     <use x="3346.04296875" xlink:href="#BitstreamVeraSans-Roman-65"/>
     <use x="3407.56640625" xlink:href="#BitstreamVeraSans-Roman-73"/>
    </g>
   </g>
  </g>
 </g>
 <defs>
  <clipPath id="p7df959c1b6">
   <rect height="325.4" width="309.192987805" x="60.1828810976" y="21.318125"/>
  </clipPath>
 </defs>
</svg>
