<?xml version="1.0" encoding="utf-8" standalone="no"?>
<!DOCTYPE svg PUBLIC "-//W3C//DTD SVG 1.1//EN"
  "http://www.w3.org/Graphics/SVG/1.1/DTD/svg11.dtd">
<!-- Created with matplotlib (http://matplotlib.org/) -->
<svg height="329pt" version="1.1" viewBox="0 0 280 329" width="280pt" xmlns="http://www.w3.org/2000/svg" xmlns:xlink="http://www.w3.org/1999/xlink">
 <defs>
  <style type="text/css">
*{stroke-linecap:butt;stroke-linejoin:round;stroke-miterlimit:100000;}
  </style>
 </defs>
 <g id="figure_1">
  <g id="patch_1">
   <path d="M 0 329.413125 
L 280.465625 329.413125 
L 280.465625 0 
L 0 0 
L 0 329.413125 
z
" style="fill:none;"/>
  </g>
  <g id="axes_1">
   <g id="PathCollection_1">
    <defs>
     <path d="M 0 2.236068 
C 0.593012 2.236068 1.161816 2.000462 1.581139 1.581139 
C 2.000462 1.161816 2.236068 0.593012 2.236068 0 
C 2.236068 -0.593012 2.000462 -1.161816 1.581139 -1.581139 
C 1.161816 -2.000462 0.593012 -2.236068 0 -2.236068 
C -0.593012 -2.236068 -1.161816 -2.000462 -1.581139 -1.581139 
C -2.000462 -1.161816 -2.236068 -0.593012 -2.236068 0 
C -2.236068 0.593012 -2.000462 1.161816 -1.581139 1.581139 
C -1.161816 2.000462 -0.593012 2.236068 0 2.236068 
z
" id="m1223d632f2" style="stroke:#008000;"/>
    </defs>
    <g clip-path="url(#p78b1e91972)">
     <use style="fill:#008000;stroke:#008000;" x="157.465894031" xlink:href="#m1223d632f2" y="138.394697542"/>
     <use style="fill:#008000;stroke:#008000;" x="153.685301427" xlink:href="#m1223d632f2" y="135.671109961"/>
     <use style="fill:#008000;stroke:#008000;" x="157.387962504" xlink:href="#m1223d632f2" y="130.97414065"/>
     <use style="fill:#008000;stroke:#008000;" x="162.444211841" xlink:href="#m1223d632f2" y="148.547228663"/>
     <use style="fill:#008000;stroke:#008000;" x="145.125878712" xlink:href="#m1223d632f2" y="150.193231793"/>
     <use style="fill:#008000;stroke:#008000;" x="142.383625993" xlink:href="#m1223d632f2" y="149.165981896"/>
     <use style="fill:#008000;stroke:#008000;" x="156.421224038" xlink:href="#m1223d632f2" y="140.039587936"/>
     <use style="fill:#008000;stroke:#008000;" x="156.954741202" xlink:href="#m1223d632f2" y="141.423746717"/>
    </g>
   </g>
   <g id="PathCollection_2">
    <defs>
     <path d="M 0 2.236068 
C 0.593012 2.236068 1.161816 2.000462 1.581139 1.581139 
C 2.000462 1.161816 2.236068 0.593012 2.236068 0 
C 2.236068 -0.593012 2.000462 -1.161816 1.581139 -1.581139 
C 1.161816 -2.000462 0.593012 -2.236068 0 -2.236068 
C -0.593012 -2.236068 -1.161816 -2.000462 -1.581139 -1.581139 
C -2.000462 -1.161816 -2.236068 -0.593012 -2.236068 0 
C -2.236068 0.593012 -2.000462 1.161816 -1.581139 1.581139 
C -1.161816 2.000462 -0.593012 2.236068 0 2.236068 
z
" id="C0_0_f8a603794f"/>
    </defs>
    <g clip-path="url(#p78b1e91972)">
     <use style="fill:none;stroke:#bf00bf;" x="99.3856341155" xlink:href="#C0_0_f8a603794f" y="247.037782847"/>
    </g>
    <g clip-path="url(#p78b1e91972)">
     <use style="fill:none;stroke:#bf00bf;" x="78.3015853121" xlink:href="#C0_0_f8a603794f" y="194.085113347"/>
    </g>
    <g clip-path="url(#p78b1e91972)">
     <use style="fill:none;stroke:#bf00bf;" x="105.751469942" xlink:href="#C0_0_f8a603794f" y="243.151877291"/>
    </g>
    <g clip-path="url(#p78b1e91972)">
     <use style="fill:none;stroke:#bf00bf;" x="75.5115269015" xlink:href="#C0_0_f8a603794f" y="183.731346474"/>
    </g>
   </g>
   <g id="PathCollection_3">
    <defs>
     <path d="M 0 2.236068 
C 0.593012 2.236068 1.161816 2.000462 1.581139 1.581139 
C 2.000462 1.161816 2.236068 0.593012 2.236068 0 
C 2.236068 -0.593012 2.000462 -1.161816 1.581139 -1.581139 
C 1.161816 -2.000462 0.593012 -2.236068 0 -2.236068 
C -0.593012 -2.236068 -1.161816 -2.000462 -1.581139 -1.581139 
C -2.000462 -1.161816 -2.236068 -0.593012 -2.236068 0 
C -2.236068 0.593012 -2.000462 1.161816 -1.581139 1.581139 
C -1.161816 2.000462 -0.593012 2.236068 0 2.236068 
z
" id="C1_0_2bf8429937"/>
    </defs>
    <g clip-path="url(#p78b1e91972)">
     <use style="fill:none;stroke:#0000ff;" x="121.580349319" xlink:href="#C1_0_2bf8429937" y="271.516317333"/>
    </g>
    <g clip-path="url(#p78b1e91972)">
     <use style="fill:none;stroke:#0000ff;" x="123.397296032" xlink:href="#C1_0_2bf8429937" y="271.318140787"/>
    </g>
    <g clip-path="url(#p78b1e91972)">
     <use style="fill:none;stroke:#0000ff;" x="136.437724507" xlink:href="#C1_0_2bf8429937" y="269.603769111"/>
    </g>
    <g clip-path="url(#p78b1e91972)">
     <use style="fill:none;stroke:#0000ff;" x="91.9248474106" xlink:href="#C1_0_2bf8429937" y="246.77947823"/>
    </g>
    <g clip-path="url(#p78b1e91972)">
     <use style="fill:none;stroke:#0000ff;" x="90.7345523192" xlink:href="#C1_0_2bf8429937" y="270.606140357"/>
    </g>
    <g clip-path="url(#p78b1e91972)">
     <use style="fill:none;stroke:#0000ff;" x="119.957112337" xlink:href="#C1_0_2bf8429937" y="250.518715676"/>
    </g>
    <g clip-path="url(#p78b1e91972)">
     <use style="fill:none;stroke:#0000ff;" x="110.068786388" xlink:href="#C1_0_2bf8429937" y="237.372234044"/>
    </g>
    <g clip-path="url(#p78b1e91972)">
     <use style="fill:none;stroke:#0000ff;" x="98.0407213928" xlink:href="#C1_0_2bf8429937" y="241.329244799"/>
    </g>
   </g>
   <g id="PathCollection_4">
    <path clip-path="url(#p78b1e91972)" d="M 165.698538 290.323692 
C 166.29155 290.323692 166.860354 290.088086 167.279677 289.668763 
C 167.698999 289.24944 167.934606 288.680636 167.934606 288.087624 
C 167.934606 287.494612 167.698999 286.925808 167.279677 286.506485 
C 166.860354 286.087162 166.29155 285.851556 165.698538 285.851556 
C 165.105526 285.851556 164.536722 286.087162 164.117399 286.506485 
C 163.698076 286.925808 163.46247 287.494612 163.46247 288.087624 
C 163.46247 288.680636 163.698076 289.24944 164.117399 289.668763 
C 164.536722 290.088086 165.105526 290.323692 165.698538 290.323692 
L 165.698538 290.323692 
z
" style="fill:none;stroke:#ff0000;"/>
   </g>
   <g id="PathCollection_5">
    <defs>
     <path d="M 0 2.236068 
C 0.593012 2.236068 1.161816 2.000462 1.581139 1.581139 
C 2.000462 1.161816 2.236068 0.593012 2.236068 0 
C 2.236068 -0.593012 2.000462 -1.161816 1.581139 -1.581139 
C 1.161816 -2.000462 0.593012 -2.236068 0 -2.236068 
C -0.593012 -2.236068 -1.161816 -2.000462 -1.581139 -1.581139 
C -2.000462 -1.161816 -2.236068 -0.593012 -2.236068 0 
C -2.236068 0.593012 -2.000462 1.161816 -1.581139 1.581139 
C -1.161816 2.000462 -0.593012 2.236068 0 2.236068 
z
" id="m37d22acb32" style="stroke:#ff0000;"/>
    </defs>
    <g clip-path="url(#p78b1e91972)">
     <use style="fill:#ff0000;stroke:#ff0000;" x="158.486002159" xlink:href="#m37d22acb32" y="279.294256045"/>
     <use style="fill:#ff0000;stroke:#ff0000;" x="167.236964535" xlink:href="#m37d22acb32" y="276.766996696"/>
     <use style="fill:#ff0000;stroke:#ff0000;" x="161.010661748" xlink:href="#m37d22acb32" y="276.705074703"/>
     <use style="fill:#ff0000;stroke:#ff0000;" x="167.621997164" xlink:href="#m37d22acb32" y="272.771292499"/>
     <use style="fill:#ff0000;stroke:#ff0000;" x="177.235942081" xlink:href="#m37d22acb32" y="278.113561263"/>
     <use style="fill:#ff0000;stroke:#ff0000;" x="161.884982939" xlink:href="#m37d22acb32" y="271.907332409"/>
     <use style="fill:#ff0000;stroke:#ff0000;" x="150.207557643" xlink:href="#m37d22acb32" y="276.978191799"/>
    </g>
   </g>
   <g id="PathCollection_6">
    <defs>
     <path d="M -2.236068 2.236068 
L 2.236068 2.236068 
L 2.236068 -2.236068 
L -2.236068 -2.236068 
z
" id="m56df794ce3" style="stroke:#bf00bf;"/>
    </defs>
    <g clip-path="url(#p78b1e91972)">
     <use style="fill:#ffffff;stroke:#bf00bf;" x="86.2631925533" xlink:href="#m56df794ce3" y="218.596435393"/>
    </g>
   </g>
   <g id="PathCollection_7">
    <defs>
     <path d="M -2.236068 2.236068 
L 2.236068 2.236068 
L 2.236068 -2.236068 
L -2.236068 -2.236068 
z
" id="m6ea0871dd6" style="stroke:#0000ff;"/>
    </defs>
    <g clip-path="url(#p78b1e91972)">
     <use style="fill:#ffffff;stroke:#0000ff;" x="110.623725297" xlink:href="#m6ea0871dd6" y="258.72237068"/>
    </g>
   </g>
   <g id="PathCollection_8">
    <defs>
     <path d="M -2.236068 2.236068 
L 2.236068 2.236068 
L 2.236068 -2.236068 
L -2.236068 -2.236068 
z
" id="me01db99ac5" style="stroke:#ff0000;"/>
    </defs>
    <g clip-path="url(#p78b1e91972)">
     <use style="fill:#ff0000;stroke:#ff0000;" x="163.812978669" xlink:href="#me01db99ac5" y="279.202083421"/>
    </g>
   </g>
   <g id="line2d_1">
    <path clip-path="url(#p78b1e91972)" d="M 153.201258 69.860935 
L 159.068788 70.014392 
L 164.920237 70.474341 
L 170.739564 71.239522 
L 176.51082 72.307837 
L 182.218187 73.676359 
L 187.84602 75.341336 
L 193.378894 77.298205 
L 198.801644 79.541602 
L 204.099406 82.065378 
L 209.25766 84.862615 
L 214.262267 87.925648 
L 219.099511 91.246079 
L 223.756132 94.814808 
L 228.219367 98.622053 
L 232.476982 102.65738 
L 236.517308 106.909726 
L 240.329271 111.367438 
L 243.902422 116.018296 
L 247.226967 120.849553 
L 250.293795 125.847968 
L 253.094498 130.999838 
L 255.621401 136.291045 
L 257.867578 141.707084 
L 259.826871 147.233111 
L 261.493911 152.85398 
L 262.864129 158.554283 
L 263.933768 164.318397 
L 264.699897 170.130523 
L 265.160416 175.97473 
L 265.314062 181.835 
L 265.160416 187.69527 
L 264.699897 193.539477 
L 263.933768 199.351603 
L 262.864129 205.115717 
L 261.493911 210.81602 
L 259.826871 216.436889 
L 257.867578 221.962916 
L 255.621401 227.378955 
L 253.094498 232.670162 
L 250.293795 237.822032 
L 247.226967 242.820447 
L 243.902422 247.651704 
L 240.329271 252.302562 
L 236.517308 256.760274 
L 232.476982 261.01262 
L 228.219367 265.047947 
L 223.756132 268.855192 
L 219.099511 272.423921 
L 214.262267 275.744352 
L 209.25766 278.807385 
L 204.099406 281.604622 
L 198.801644 284.128398 
L 193.378894 286.371795 
L 187.84602 288.328664 
L 182.218187 289.993641 
L 176.51082 291.362163 
L 170.739564 292.430478 
L 164.920237 293.195659 
L 159.068788 293.655608 
L 153.201258 293.809065 
L 147.333727 293.655608 
L 141.482278 293.195659 
L 135.662951 292.430478 
L 129.891695 291.362163 
L 124.184329 289.993641 
L 118.556496 288.328664 
L 113.023622 286.371795 
L 107.600872 284.128398 
L 102.303109 281.604622 
L 97.144855 278.807385 
L 92.140248 275.744352 
L 87.303004 272.423921 
L 82.646383 268.855192 
L 78.183149 265.047947 
L 73.925533 261.01262 
L 69.885207 256.760274 
L 66.073244 252.302562 
L 62.500093 247.651704 
L 59.175548 242.820447 
L 56.108721 237.822032 
L 53.308017 232.670162 
L 50.781114 227.378955 
L 48.534937 221.962916 
L 46.575644 216.436889 
L 44.908604 210.81602 
L 43.538387 205.115717 
L 42.468747 199.351603 
L 41.702618 193.539477 
L 41.242099 187.69527 
L 41.088453 181.835 
L 41.242099 175.97473 
L 41.702618 170.130523 
L 42.468747 164.318397 
L 43.538387 158.554283 
L 44.908604 152.85398 
L 46.575644 147.233111 
L 48.534937 141.707084 
L 50.781114 136.291045 
L 53.308017 130.999838 
L 56.108721 125.847968 
L 59.175548 120.849553 
L 62.500093 116.018296 
L 66.073244 111.367438 
L 69.885207 106.909726 
L 73.925533 102.65738 
L 78.183149 98.622053 
L 82.646383 94.814808 
L 87.303004 91.246079 
L 92.140248 87.925648 
L 97.144855 84.862615 
L 102.303109 82.065378 
L 107.600872 79.541602 
L 113.023622 77.298205 
L 118.556496 75.341336 
L 124.184329 73.676359 
L 129.891695 72.307837 
L 135.662951 71.239522 
L 141.482278 70.474341 
L 147.333727 70.014392 
L 153.201258 69.860935 
L 153.201258 69.860935 
" style="fill:none;stroke:#000000;stroke-linecap:square;"/>
   </g>
   <g id="line2d_2">
    <defs>
     <path d="M -3 0 
L 3 0 
M 0 3 
L 0 -3 
" id="m2275f5da64" style="stroke:#000000;stroke-width:0.5;"/>
    </defs>
    <g clip-path="url(#p78b1e91972)">
     <use style="stroke:#000000;stroke-width:0.5;" x="153.201257622" xlink:href="#m2275f5da64" y="80.0462132669"/>
     <use style="stroke:#000000;stroke-width:0.5;" x="153.201257622" xlink:href="#m2275f5da64" y="91.0061652884"/>
     <use style="stroke:#000000;stroke-width:0.5;" x="153.201257622" xlink:href="#m2275f5da64" y="102.657379586"/>
     <use style="stroke:#000000;stroke-width:0.5;" x="153.201257622" xlink:href="#m2275f5da64" y="114.911183384"/>
     <use style="stroke:#000000;stroke-width:0.5;" x="153.201257622" xlink:href="#m2275f5da64" y="127.674317836"/>
     <use style="stroke:#000000;stroke-width:0.5;" x="153.201257622" xlink:href="#m2275f5da64" y="140.849647782"/>
     <use style="stroke:#000000;stroke-width:0.5;" x="153.201257622" xlink:href="#m2275f5da64" y="154.336901006"/>
     <use style="stroke:#000000;stroke-width:0.5;" x="153.201257622" xlink:href="#m2275f5da64" y="168.033431368"/>
     <use style="stroke:#000000;stroke-width:0.5;" x="153.201257622" xlink:href="#m2275f5da64" y="181.835"/>
    </g>
   </g>
   <g id="line2d_3">
    <g clip-path="url(#p78b1e91972)">
     <use style="stroke:#000000;stroke-width:0.5;" x="255.116164649" xlink:href="#m2275f5da64" y="181.835"/>
     <use style="stroke:#000000;stroke-width:0.5;" x="244.142632818" xlink:href="#m2275f5da64" y="181.835"/>
     <use style="stroke:#000000;stroke-width:0.5;" x="232.476982209" xlink:href="#m2275f5da64" y="181.835"/>
     <use style="stroke:#000000;stroke-width:0.5;" x="220.207995468" xlink:href="#m2275f5da64" y="181.835"/>
     <use style="stroke:#000000;stroke-width:0.5;" x="207.429046993" xlink:href="#m2275f5da64" y="181.835"/>
     <use style="stroke:#000000;stroke-width:0.5;" x="194.237392297" xlink:href="#m2275f5da64" y="181.835"/>
     <use style="stroke:#000000;stroke-width:0.5;" x="180.733427837" xlink:href="#m2275f5da64" y="181.835"/>
     <use style="stroke:#000000;stroke-width:0.5;" x="167.019926938" xlink:href="#m2275f5da64" y="181.835"/>
    </g>
   </g>
   <g id="line2d_4">
    <g clip-path="url(#p78b1e91972)">
     <use style="stroke:#000000;stroke-width:0.5;" x="153.201257622" xlink:href="#m2275f5da64" y="283.623786733"/>
     <use style="stroke:#000000;stroke-width:0.5;" x="153.201257622" xlink:href="#m2275f5da64" y="272.663834712"/>
     <use style="stroke:#000000;stroke-width:0.5;" x="153.201257622" xlink:href="#m2275f5da64" y="261.012620414"/>
     <use style="stroke:#000000;stroke-width:0.5;" x="153.201257622" xlink:href="#m2275f5da64" y="248.758816616"/>
     <use style="stroke:#000000;stroke-width:0.5;" x="153.201257622" xlink:href="#m2275f5da64" y="235.995682164"/>
     <use style="stroke:#000000;stroke-width:0.5;" x="153.201257622" xlink:href="#m2275f5da64" y="222.820352218"/>
     <use style="stroke:#000000;stroke-width:0.5;" x="153.201257622" xlink:href="#m2275f5da64" y="209.333098994"/>
     <use style="stroke:#000000;stroke-width:0.5;" x="153.201257622" xlink:href="#m2275f5da64" y="195.636568632"/>
    </g>
   </g>
   <g id="line2d_5">
    <g clip-path="url(#p78b1e91972)">
     <use style="stroke:#000000;stroke-width:0.5;" x="51.2863505949" xlink:href="#m2275f5da64" y="181.835"/>
     <use style="stroke:#000000;stroke-width:0.5;" x="62.2598824263" xlink:href="#m2275f5da64" y="181.835"/>
     <use style="stroke:#000000;stroke-width:0.5;" x="73.9255330348" xlink:href="#m2275f5da64" y="181.835"/>
     <use style="stroke:#000000;stroke-width:0.5;" x="86.1945197755" xlink:href="#m2275f5da64" y="181.835"/>
     <use style="stroke:#000000;stroke-width:0.5;" x="98.9734682509" xlink:href="#m2275f5da64" y="181.835"/>
     <use style="stroke:#000000;stroke-width:0.5;" x="112.165122947" xlink:href="#m2275f5da64" y="181.835"/>
     <use style="stroke:#000000;stroke-width:0.5;" x="125.669087406" xlink:href="#m2275f5da64" y="181.835"/>
     <use style="stroke:#000000;stroke-width:0.5;" x="139.382588305" xlink:href="#m2275f5da64" y="181.835"/>
    </g>
   </g>
   <g id="line2d_6">
    <path clip-path="url(#p78b1e91972)" d="M 153.201258 69.860935 
L 153.201258 70.842345 
L 153.201258 71.832206 
L 153.201258 72.830445 
" style="fill:none;stroke:#000000;stroke-linecap:square;"/>
   </g>
   <g id="line2d_7">
    <path clip-path="url(#p78b1e91972)" d="M 172.669442 71.562073 
L 172.498811 72.528572 
L 172.32671 73.503396 
L 172.153153 74.48647 
" style="fill:none;stroke:#000000;stroke-linecap:square;"/>
   </g>
   <g id="line2d_8">
    <path clip-path="url(#p78b1e91972)" d="M 191.546095 76.613798 
L 191.210018 77.536021 
L 190.871045 78.466187 
L 190.529205 79.404224 
" style="fill:none;stroke:#000000;stroke-linecap:square;"/>
   </g>
   <g id="line2d_9">
    <path clip-path="url(#p78b1e91972)" d="M 209.25766 84.862615 
L 208.766347 85.712541 
L 208.270803 86.569786 
L 207.771065 87.434287 
" style="fill:none;stroke:#000000;stroke-linecap:square;"/>
   </g>
   <g id="line2d_10">
    <path clip-path="url(#p78b1e91972)" d="M 225.265979 96.05789 
L 224.63436 96.809693 
L 223.997301 97.567971 
L 223.35485 98.332667 
" style="fill:none;stroke:#000000;stroke-linecap:square;"/>
   </g>
   <g id="line2d_11">
    <path clip-path="url(#p78b1e91972)" d="M 239.084649 109.859459 
L 238.331914 110.490296 
L 237.572696 111.126567 
L 236.807054 111.768223 
" style="fill:none;stroke:#000000;stroke-linecap:square;"/>
   </g>
   <g id="line2d_12">
    <path clip-path="url(#p78b1e91972)" d="M 250.293795 125.847968 
L 249.442816 126.338672 
L 248.584509 126.833603 
L 247.718937 127.332723 
" style="fill:none;stroke:#000000;stroke-linecap:square;"/>
   </g>
   <g id="line2d_13">
    <path clip-path="url(#p78b1e91972)" d="M 258.552833 143.537614 
L 257.629467 143.873276 
L 256.698149 144.211829 
L 255.758949 144.553247 
" style="fill:none;stroke:#000000;stroke-linecap:square;"/>
   </g>
   <g id="line2d_14">
    <path clip-path="url(#p78b1e91972)" d="M 263.610817 162.390908 
L 262.64312 162.561328 
L 261.667089 162.733215 
L 260.682797 162.906558 
" style="fill:none;stroke:#000000;stroke-linecap:square;"/>
   </g>
   <g id="line2d_15">
    <path clip-path="url(#p78b1e91972)" d="M 265.314062 181.835 
L 264.331437 181.835 
L 263.340349 181.835 
L 262.340873 181.835 
" style="fill:none;stroke:#000000;stroke-linecap:square;"/>
   </g>
   <g id="line2d_16">
    <path clip-path="url(#p78b1e91972)" d="M 263.610817 201.279092 
L 262.64312 201.108672 
L 261.667089 200.936785 
L 260.682797 200.763442 
" style="fill:none;stroke:#000000;stroke-linecap:square;"/>
   </g>
   <g id="line2d_17">
    <path clip-path="url(#p78b1e91972)" d="M 258.552833 220.132386 
L 257.629467 219.796724 
L 256.698149 219.458171 
L 255.758949 219.116753 
" style="fill:none;stroke:#000000;stroke-linecap:square;"/>
   </g>
   <g id="line2d_18">
    <path clip-path="url(#p78b1e91972)" d="M 250.293795 237.822032 
L 249.442816 237.331328 
L 248.584509 236.836397 
L 247.718937 236.337277 
" style="fill:none;stroke:#000000;stroke-linecap:square;"/>
   </g>
   <g id="line2d_19">
    <path clip-path="url(#p78b1e91972)" d="M 239.084649 253.810541 
L 238.331914 253.179704 
L 237.572696 252.543433 
L 236.807054 251.901777 
" style="fill:none;stroke:#000000;stroke-linecap:square;"/>
   </g>
   <g id="line2d_20">
    <path clip-path="url(#p78b1e91972)" d="M 225.265979 267.61211 
L 224.63436 266.860307 
L 223.997301 266.102029 
L 223.35485 265.337333 
" style="fill:none;stroke:#000000;stroke-linecap:square;"/>
   </g>
   <g id="line2d_21">
    <path clip-path="url(#p78b1e91972)" d="M 209.25766 278.807385 
L 208.766347 277.957459 
L 208.270803 277.100214 
L 207.771065 276.235713 
" style="fill:none;stroke:#000000;stroke-linecap:square;"/>
   </g>
   <g id="line2d_22">
    <path clip-path="url(#p78b1e91972)" d="M 191.546095 287.056202 
L 191.210018 286.133979 
L 190.871045 285.203813 
L 190.529205 284.265776 
" style="fill:none;stroke:#000000;stroke-linecap:square;"/>
   </g>
   <g id="line2d_23">
    <path clip-path="url(#p78b1e91972)" d="M 172.669442 292.107927 
L 172.498811 291.141428 
L 172.32671 290.166604 
L 172.153153 289.18353 
" style="fill:none;stroke:#000000;stroke-linecap:square;"/>
   </g>
   <g id="line2d_24">
    <path clip-path="url(#p78b1e91972)" d="M 153.201258 293.809065 
L 153.201258 292.827655 
L 153.201258 291.837794 
L 153.201258 290.839555 
" style="fill:none;stroke:#000000;stroke-linecap:square;"/>
   </g>
   <g id="line2d_25">
    <path clip-path="url(#p78b1e91972)" d="M 133.733073 292.107927 
L 133.903704 291.141428 
L 134.075805 290.166604 
L 134.249362 289.18353 
" style="fill:none;stroke:#000000;stroke-linecap:square;"/>
   </g>
   <g id="line2d_26">
    <path clip-path="url(#p78b1e91972)" d="M 114.85642 287.056202 
L 115.192498 286.133979 
L 115.53147 285.203813 
L 115.873311 284.265776 
" style="fill:none;stroke:#000000;stroke-linecap:square;"/>
   </g>
   <g id="line2d_27">
    <path clip-path="url(#p78b1e91972)" d="M 97.144855 278.807385 
L 97.636168 277.957459 
L 98.131712 277.100214 
L 98.63145 276.235713 
" style="fill:none;stroke:#000000;stroke-linecap:square;"/>
   </g>
   <g id="line2d_28">
    <path clip-path="url(#p78b1e91972)" d="M 81.136536 267.61211 
L 81.768155 266.860307 
L 82.405214 266.102029 
L 83.047665 265.337333 
" style="fill:none;stroke:#000000;stroke-linecap:square;"/>
   </g>
   <g id="line2d_29">
    <path clip-path="url(#p78b1e91972)" d="M 67.317866 253.810541 
L 68.070601 253.179704 
L 68.829819 252.543433 
L 69.595462 251.901777 
" style="fill:none;stroke:#000000;stroke-linecap:square;"/>
   </g>
   <g id="line2d_30">
    <path clip-path="url(#p78b1e91972)" d="M 56.108721 237.822032 
L 56.959699 237.331328 
L 57.818007 236.836397 
L 58.683578 236.337277 
" style="fill:none;stroke:#000000;stroke-linecap:square;"/>
   </g>
   <g id="line2d_31">
    <path clip-path="url(#p78b1e91972)" d="M 47.849682 220.132386 
L 48.773048 219.796724 
L 49.704366 219.458171 
L 50.643566 219.116753 
" style="fill:none;stroke:#000000;stroke-linecap:square;"/>
   </g>
   <g id="line2d_32">
    <path clip-path="url(#p78b1e91972)" d="M 42.791698 201.279092 
L 43.759395 201.108672 
L 44.735427 200.936785 
L 45.719718 200.763442 
" style="fill:none;stroke:#000000;stroke-linecap:square;"/>
   </g>
   <g id="line2d_33">
    <path clip-path="url(#p78b1e91972)" d="M 41.088453 181.835 
L 42.071078 181.835 
L 43.062166 181.835 
L 44.061642 181.835 
" style="fill:none;stroke:#000000;stroke-linecap:square;"/>
   </g>
   <g id="line2d_34">
    <path clip-path="url(#p78b1e91972)" d="M 42.791698 162.390908 
L 43.759395 162.561328 
L 44.735427 162.733215 
L 45.719718 162.906558 
" style="fill:none;stroke:#000000;stroke-linecap:square;"/>
   </g>
   <g id="line2d_35">
    <path clip-path="url(#p78b1e91972)" d="M 47.849682 143.537614 
L 48.773048 143.873276 
L 49.704366 144.211829 
L 50.643566 144.553247 
" style="fill:none;stroke:#000000;stroke-linecap:square;"/>
   </g>
   <g id="line2d_36">
    <path clip-path="url(#p78b1e91972)" d="M 56.108721 125.847968 
L 56.959699 126.338672 
L 57.818007 126.833603 
L 58.683578 127.332723 
" style="fill:none;stroke:#000000;stroke-linecap:square;"/>
   </g>
   <g id="line2d_37">
    <path clip-path="url(#p78b1e91972)" d="M 67.317866 109.859459 
L 68.070601 110.490296 
L 68.829819 111.126567 
L 69.595462 111.768223 
" style="fill:none;stroke:#000000;stroke-linecap:square;"/>
   </g>
   <g id="line2d_38">
    <path clip-path="url(#p78b1e91972)" d="M 81.136536 96.05789 
L 81.768155 96.809693 
L 82.405214 97.567971 
L 83.047665 98.332667 
" style="fill:none;stroke:#000000;stroke-linecap:square;"/>
   </g>
   <g id="line2d_39">
    <path clip-path="url(#p78b1e91972)" d="M 97.144855 84.862615 
L 97.636168 85.712541 
L 98.131712 86.569786 
L 98.63145 87.434287 
" style="fill:none;stroke:#000000;stroke-linecap:square;"/>
   </g>
   <g id="line2d_40">
    <path clip-path="url(#p78b1e91972)" d="M 114.85642 76.613798 
L 115.192498 77.536021 
L 115.53147 78.466187 
L 115.873311 79.404224 
" style="fill:none;stroke:#000000;stroke-linecap:square;"/>
   </g>
   <g id="line2d_41">
    <path clip-path="url(#p78b1e91972)" d="M 133.733073 71.562073 
L 133.903704 72.528572 
L 134.075805 73.503396 
L 134.249362 74.48647 
" style="fill:none;stroke:#000000;stroke-linecap:square;"/>
   </g>
   <g id="line2d_42">
    <path clip-path="url(#p78b1e91972)" d="M 72.15154 178.208795 
L 70.262287 178.941539 
L 68.424692 179.831791 
L 66.647258 180.880058 
L 64.938731 182.08617 
L 63.308072 183.449211 
L 61.764416 184.967442 
L 60.317015 186.63823 
L 58.975183 188.457978 
L 57.748208 190.422052 
L 56.645275 192.524725 
L 55.675354 194.759116 
L 54.847089 197.117159 
L 54.168673 199.589566 
L 53.64771 202.16583 
L 53.29107 204.834234 
L 53.10475 207.581896 
L 53.093721 210.394828 
L 53.261791 213.25804 
L 53.611473 216.155656 
L 54.143873 219.071073 
L 54.858595 221.98713 
L 55.753676 224.886316 
L 56.825545 227.750981 
L 58.069024 230.563566 
L 59.477357 233.306836 
L 61.04228 235.964109 
L 62.754115 238.51948 
L 64.601911 240.958016 
L 66.573596 243.265947 
L 68.65616 245.430805 
L 70.835848 247.441554 
L 73.098366 249.288668 
L 75.429083 250.964185 
L 77.813229 252.461721 
L 80.236092 253.776456 
L 82.683183 254.905092 
L 85.140397 255.845783 
L 87.594149 256.598048 
L 90.03148 257.162671 
L 92.440152 257.541588 
L 94.808711 257.737766 
L 97.126538 257.755086 
L 99.383868 257.598224 
L 101.571809 257.272535 
L 103.682331 256.783943 
L 105.70825 256.138843 
L 107.643204 255.344007 
L 109.481618 254.406501 
L 111.218663 253.333612 
L 112.850211 252.132782 
L 114.372796 250.811554 
L 115.783561 249.377525 
L 117.080213 247.838305 
L 118.26098 246.201486 
L 119.324568 244.474613 
L 120.270116 242.665169 
L 121.09716 240.780552 
L 121.805596 238.828068 
L 122.395648 236.81492 
L 122.867835 234.748204 
L 123.222946 232.634907 
L 123.462014 230.481901 
L 123.586293 228.29595 
L 123.597239 226.083708 
L 123.496494 223.851723 
L 123.285865 221.606441 
L 122.967319 219.354206 
L 122.542966 217.101272 
L 122.015049 214.853799 
L 121.38594 212.617865 
L 120.65813 210.399466 
L 119.834226 208.204521 
L 118.916945 206.038878 
L 117.909116 203.908315 
L 116.813671 201.818546 
L 115.633653 199.775224 
L 114.37221 197.783942 
L 113.032603 195.850234 
L 111.618202 193.979582 
L 110.132496 192.177409 
L 108.579092 190.449084 
L 106.961726 188.799922 
L 105.284265 187.235176 
L 103.550717 185.760041 
L 101.765236 184.379644 
L 99.932137 183.099044 
L 98.055898 181.923218 
L 96.141176 180.857057 
L 94.192819 179.905354 
L 92.21587 179.07279 
L 90.21559 178.363918 
L 88.197462 177.783146 
L 86.167206 177.334712 
L 84.130794 177.022665 
L 82.094458 176.850829 
L 80.064701 176.822778 
L 78.04831 176.941793 
L 76.052358 177.210824 
L 74.084214 177.632443 
L 72.15154 178.208795 
" style="fill:none;stroke:#bf00bf;stroke-linecap:square;"/>
   </g>
   <g id="line2d_43">
    <path clip-path="url(#p78b1e91972)" d="M 95.667858 248.937865 
L 95.262447 249.597504 
L 94.916587 250.295094 
L 94.632377 251.028294 
L 94.411716 251.794547 
L 94.25629 252.591079 
L 94.16755 253.414903 
L 94.146693 254.262826 
L 94.194642 255.131459 
L 94.312031 256.017226 
L 94.499185 256.916379 
L 94.756102 257.825011 
L 95.082443 258.739083 
L 95.477514 259.654435 
L 95.940259 260.566821 
L 96.469252 261.471928 
L 97.062693 262.365409 
L 97.718405 263.242912 
L 98.433839 264.100113 
L 99.206082 264.93275 
L 100.031865 265.736656 
L 100.907582 266.507793 
L 101.829305 267.242286 
L 102.792812 267.936455 
L 103.793612 268.586845 
L 104.826978 269.190254 
L 105.887978 269.743762 
L 106.971512 270.244749 
L 108.072354 270.690917 
L 109.185185 271.080302 
L 110.304641 271.411289 
L 111.425349 271.682615 
L 112.541966 271.893375 
L 113.64922 272.043019 
L 114.74195 272.131346 
L 115.815132 272.1585 
L 116.86392 272.124952 
L 117.883669 272.031489 
L 118.869964 271.879196 
L 119.818642 271.669439 
L 120.725807 271.40384 
L 121.587852 271.08426 
L 122.401464 270.712774 
L 123.163637 270.291648 
L 123.871674 269.823319 
L 124.523191 269.310371 
L 125.116118 268.755513 
L 125.648692 268.161559 
L 126.119457 267.53141 
L 126.527252 266.868034 
L 126.87121 266.174448 
L 127.150739 265.453704 
L 127.365521 264.708876 
L 127.515493 263.943042 
L 127.600842 263.159279 
L 127.621985 262.360646 
L 127.579567 261.550179 
L 127.474437 260.730884 
L 127.307646 259.905724 
L 127.080431 259.07762 
L 126.7942 258.249442 
L 126.450528 257.424005 
L 126.051141 256.604064 
L 125.597907 255.792315 
L 125.092829 254.991388 
L 124.53803 254.203846 
L 123.935752 253.432184 
L 123.288339 252.678827 
L 122.598239 251.946127 
L 121.867988 251.236363 
L 121.100209 250.551738 
L 120.297605 249.894381 
L 119.462949 249.266341 
L 118.599084 248.66959 
L 117.708915 248.106017 
L 116.795403 247.577429 
L 115.861565 247.085549 
L 114.910461 246.632012 
L 113.945201 246.218363 
L 112.96893 245.846055 
L 111.98483 245.516446 
L 110.996115 245.230792 
L 110.006026 244.990249 
L 109.017826 244.795864 
L 108.034796 244.648572 
L 107.060231 244.549193 
L 106.097434 244.498422 
L 105.149712 244.496829 
L 104.220369 244.544849 
L 103.312698 244.642778 
L 102.429979 244.790762 
L 101.575466 244.988799 
L 100.752384 245.236723 
L 99.963915 245.534202 
L 99.213193 245.88073 
L 98.503291 246.275618 
L 97.83721 246.71799 
L 97.217865 247.206777 
L 96.648075 247.740705 
L 96.130546 248.318297 
L 95.667858 248.937865 
" style="fill:none;stroke:#0000ff;stroke-linecap:square;"/>
   </g>
   <g id="line2d_44">
    <path clip-path="url(#p78b1e91972)" d="M 152.869708 279.86537 
L 152.907882 280.28801 
L 152.989304 280.707273 
L 153.114002 281.121453 
L 153.281823 281.528827 
L 153.492433 281.927667 
L 153.745312 282.31624 
L 154.039748 282.692826 
L 154.374838 283.055721 
L 154.749485 283.40325 
L 155.162396 283.733774 
L 155.612086 284.045706 
L 156.096881 284.337514 
L 156.614918 284.607742 
L 157.164155 284.855012 
L 157.742376 285.078039 
L 158.347201 285.275643 
L 158.976096 285.446755 
L 159.626385 285.590433 
L 160.295262 285.705863 
L 160.97981 285.792374 
L 161.677014 285.84944 
L 162.383779 285.876689 
L 163.096949 285.873906 
L 163.813325 285.841036 
L 164.529687 285.778186 
L 165.24281 285.685626 
L 165.94949 285.563785 
L 166.646557 285.413252 
L 167.330899 285.234765 
L 167.999481 285.029215 
L 168.649361 284.797629 
L 169.277708 284.541168 
L 169.881815 284.261116 
L 170.45912 283.958869 
L 171.007212 283.635923 
L 171.523847 283.293867 
L 172.006954 282.934364 
L 172.454645 282.559145 
L 172.865224 282.169993 
L 173.237187 281.768734 
L 173.569225 281.357221 
L 173.860233 280.937325 
L 174.1093 280.510921 
L 174.315716 280.079884 
L 174.478965 279.64607 
L 174.598725 279.211314 
L 174.674858 278.777417 
L 174.707412 278.346141 
L 174.69661 277.919201 
L 174.642845 277.498257 
L 174.546672 277.084912 
L 174.408802 276.680705 
L 174.230095 276.287109 
L 174.011548 275.905525 
L 173.754293 275.537281 
L 173.459583 275.183631 
L 173.128788 274.84575 
L 172.763387 274.524739 
L 172.364957 274.221616 
L 171.93517 273.937325 
L 171.475782 273.672727 
L 170.988626 273.428608 
L 170.475608 273.205676 
L 169.938698 273.004561 
L 169.379922 272.825817 
L 168.80136 272.669924 
L 168.205135 272.537286 
L 167.593413 272.428237 
L 166.96839 272.343036 
L 166.332292 272.281874 
L 165.68737 272.24487 
L 165.03589 272.232075 
L 164.380131 272.243472 
L 163.722382 272.278978 
L 163.064933 272.338442 
L 162.410071 272.421649 
L 161.760078 272.528317 
L 161.117222 272.658101 
L 160.483755 272.810592 
L 159.861909 272.985316 
L 159.253884 273.181735 
L 158.661853 273.399251 
L 158.087949 273.637198 
L 157.534261 273.894851 
L 157.002831 274.171419 
L 156.495647 274.466051 
L 156.014636 274.777832 
L 155.561657 275.105785 
L 155.138499 275.44887 
L 154.746869 275.805988 
L 154.38839 276.175978 
L 154.06459 276.557619 
L 153.7769 276.949633 
L 153.526639 277.350684 
L 153.315014 277.759381 
L 153.143111 278.174282 
L 153.011884 278.593893 
L 152.922151 279.016673 
L 152.874585 279.44104 
L 152.869708 279.86537 
" style="fill:none;stroke:#ff0000;stroke-linecap:square;"/>
   </g>
   <g id="legend_1">
    <g id="patch_2">
     <path d="M 70.798346 118.485 
L 227.499596 118.485 
L 227.499596 7.2 
L 70.798346 7.2 
z
" style="fill:#ffffff;stroke:#000000;stroke-linejoin:miter;"/>
    </g>
    <g id="PathCollection_9">
     <path d="M 79.198346 20.204193 
C 79.791358 20.204193 80.360162 19.968587 80.779485 19.549264 
C 81.198808 19.129941 81.434414 18.561137 81.434414 17.968125 
C 81.434414 17.375113 81.198808 16.806309 80.779485 16.386986 
C 80.360162 15.967663 79.791358 15.732057 79.198346 15.732057 
C 78.605334 15.732057 78.03653 15.967663 77.617207 16.386986 
C 77.197884 16.806309 76.962278 17.375113 76.962278 17.968125 
C 76.962278 18.561137 77.197884 19.129941 77.617207 19.549264 
C 78.03653 19.968587 78.605334 20.204193 79.198346 20.204193 
z
" style="fill:#008000;stroke:#008000;"/>
     <path d="M 87.598346 19.154193 
C 88.191358 19.154193 88.760162 18.918587 89.179485 18.499264 
C 89.598808 18.079941 89.834414 17.511137 89.834414 16.918125 
C 89.834414 16.325113 89.598808 15.756309 89.179485 15.336986 
C 88.760162 14.917663 88.191358 14.682057 87.598346 14.682057 
C 87.005334 14.682057 86.43653 14.917663 86.017207 15.336986 
C 85.597884 15.756309 85.362278 16.325113 85.362278 16.918125 
C 85.362278 17.511137 85.597884 18.079941 86.017207 18.499264 
C 86.43653 18.918587 87.005334 19.154193 87.598346 19.154193 
z
" style="fill:#008000;stroke:#008000;"/>
     <path d="M 95.998346 20.729193 
C 96.591358 20.729193 97.160162 20.493587 97.579485 20.074264 
C 97.998808 19.654941 98.234414 19.086137 98.234414 18.493125 
C 98.234414 17.900113 97.998808 17.331309 97.579485 16.911986 
C 97.160162 16.492663 96.591358 16.257057 95.998346 16.257057 
C 95.405334 16.257057 94.83653 16.492663 94.417207 16.911986 
C 93.997884 17.331309 93.762278 17.900113 93.762278 18.493125 
C 93.762278 19.086137 93.997884 19.654941 94.417207 20.074264 
C 94.83653 20.493587 95.405334 20.729193 95.998346 20.729193 
z
" style="fill:#008000;stroke:#008000;"/>
    </g>
    <g id="text_1">
     <!-- Z43_low -->
     <defs>
      <path d="M 5.609375 72.90625 
L 62.890625 72.90625 
L 62.890625 65.375 
L 16.796875 8.296875 
L 64.015625 8.296875 
L 64.015625 0 
L 4.5 0 
L 4.5 7.515625 
L 50.59375 64.59375 
L 5.609375 64.59375 
z
" id="BitstreamVeraSans-Roman-5a"/>
      <path d="M 37.796875 64.3125 
L 12.890625 25.390625 
L 37.796875 25.390625 
z
M 35.203125 72.90625 
L 47.609375 72.90625 
L 47.609375 25.390625 
L 58.015625 25.390625 
L 58.015625 17.1875 
L 47.609375 17.1875 
L 47.609375 0 
L 37.796875 0 
L 37.796875 17.1875 
L 4.890625 17.1875 
L 4.890625 26.703125 
z
" id="BitstreamVeraSans-Roman-34"/>
      <path d="M 50.984375 -16.609375 
L 50.984375 -23.578125 
L -0.984375 -23.578125 
L -0.984375 -16.609375 
z
" id="BitstreamVeraSans-Roman-5f"/>
      <path d="M 40.578125 39.3125 
Q 47.65625 37.796875 51.625 33 
Q 55.609375 28.21875 55.609375 21.1875 
Q 55.609375 10.40625 48.1875 4.484375 
Q 40.765625 -1.421875 27.09375 -1.421875 
Q 22.515625 -1.421875 17.65625 -0.515625 
Q 12.796875 0.390625 7.625 2.203125 
L 7.625 11.71875 
Q 11.71875 9.328125 16.59375 8.109375 
Q 21.484375 6.890625 26.8125 6.890625 
Q 36.078125 6.890625 40.9375 10.546875 
Q 45.796875 14.203125 45.796875 21.1875 
Q 45.796875 27.640625 41.28125 31.265625 
Q 36.765625 34.90625 28.71875 34.90625 
L 20.21875 34.90625 
L 20.21875 43.015625 
L 29.109375 43.015625 
Q 36.375 43.015625 40.234375 45.921875 
Q 44.09375 48.828125 44.09375 54.296875 
Q 44.09375 59.90625 40.109375 62.90625 
Q 36.140625 65.921875 28.71875 65.921875 
Q 24.65625 65.921875 20.015625 65.03125 
Q 15.375 64.15625 9.8125 62.3125 
L 9.8125 71.09375 
Q 15.4375 72.65625 20.34375 73.4375 
Q 25.25 74.21875 29.59375 74.21875 
Q 40.828125 74.21875 47.359375 69.109375 
Q 53.90625 64.015625 53.90625 55.328125 
Q 53.90625 49.265625 50.4375 45.09375 
Q 46.96875 40.921875 40.578125 39.3125 
" id="BitstreamVeraSans-Roman-33"/>
      <path d="M 30.609375 48.390625 
Q 23.390625 48.390625 19.1875 42.75 
Q 14.984375 37.109375 14.984375 27.296875 
Q 14.984375 17.484375 19.15625 11.84375 
Q 23.34375 6.203125 30.609375 6.203125 
Q 37.796875 6.203125 41.984375 11.859375 
Q 46.1875 17.53125 46.1875 27.296875 
Q 46.1875 37.015625 41.984375 42.703125 
Q 37.796875 48.390625 30.609375 48.390625 
M 30.609375 56 
Q 42.328125 56 49.015625 48.375 
Q 55.71875 40.765625 55.71875 27.296875 
Q 55.71875 13.875 49.015625 6.21875 
Q 42.328125 -1.421875 30.609375 -1.421875 
Q 18.84375 -1.421875 12.171875 6.21875 
Q 5.515625 13.875 5.515625 27.296875 
Q 5.515625 40.765625 12.171875 48.375 
Q 18.84375 56 30.609375 56 
" id="BitstreamVeraSans-Roman-6f"/>
      <path d="M 9.421875 75.984375 
L 18.40625 75.984375 
L 18.40625 0 
L 9.421875 0 
z
" id="BitstreamVeraSans-Roman-6c"/>
      <path d="M 4.203125 54.6875 
L 13.1875 54.6875 
L 24.421875 12.015625 
L 35.59375 54.6875 
L 46.1875 54.6875 
L 57.421875 12.015625 
L 68.609375 54.6875 
L 77.59375 54.6875 
L 63.28125 0 
L 52.6875 0 
L 40.921875 44.828125 
L 29.109375 0 
L 18.5 0 
z
" id="BitstreamVeraSans-Roman-77"/>
     </defs>
     <g transform="translate(109.198346037 21.118125)scale(0.12 -0.12)">
      <use xlink:href="#BitstreamVeraSans-Roman-5a"/>
      <use x="68.505859375" xlink:href="#BitstreamVeraSans-Roman-34"/>
      <use x="132.12890625" xlink:href="#BitstreamVeraSans-Roman-33"/>
      <use x="195.751953125" xlink:href="#BitstreamVeraSans-Roman-5f"/>
      <use x="245.751953125" xlink:href="#BitstreamVeraSans-Roman-6c"/>
      <use x="273.53515625" xlink:href="#BitstreamVeraSans-Roman-6f"/>
      <use x="334.716796875" xlink:href="#BitstreamVeraSans-Roman-77"/>
     </g>
    </g>
    <g id="PathCollection_10">
     <path d="M 79.198346 38.151693 
C 79.791358 38.151693 80.360162 37.916087 80.779485 37.496764 
C 81.198808 37.077441 81.434414 36.508637 81.434414 35.915625 
C 81.434414 35.322613 81.198808 34.753809 80.779485 34.334486 
C 80.360162 33.915163 79.791358 33.679557 79.198346 33.679557 
C 78.605334 33.679557 78.03653 33.915163 77.617207 34.334486 
C 77.197884 34.753809 76.962278 35.322613 76.962278 35.915625 
C 76.962278 36.508637 77.197884 37.077441 77.617207 37.496764 
C 78.03653 37.916087 78.605334 38.151693 79.198346 38.151693 
L 79.198346 38.151693 
z
" style="fill:none;stroke:#ff0000;"/>
     <path d="M 87.598346 37.101693 
C 88.191358 37.101693 88.760162 36.866087 89.179485 36.446764 
C 89.598808 36.027441 89.834414 35.458637 89.834414 34.865625 
C 89.834414 34.272613 89.598808 33.703809 89.179485 33.284486 
C 88.760162 32.865163 88.191358 32.629557 87.598346 32.629557 
C 87.005334 32.629557 86.43653 32.865163 86.017207 33.284486 
C 85.597884 33.703809 85.362278 34.272613 85.362278 34.865625 
C 85.362278 35.458637 85.597884 36.027441 86.017207 36.446764 
C 86.43653 36.866087 87.005334 37.101693 87.598346 37.101693 
L 87.598346 37.101693 
z
" style="fill:none;stroke:#ff0000;"/>
     <path d="M 95.998346 38.676693 
C 96.591358 38.676693 97.160162 38.441087 97.579485 38.021764 
C 97.998808 37.602441 98.234414 37.033637 98.234414 36.440625 
C 98.234414 35.847613 97.998808 35.278809 97.579485 34.859486 
C 97.160162 34.440163 96.591358 34.204557 95.998346 34.204557 
C 95.405334 34.204557 94.83653 34.440163 94.417207 34.859486 
C 93.997884 35.278809 93.762278 35.847613 93.762278 36.440625 
C 93.762278 37.033637 93.997884 37.602441 94.417207 38.021764 
C 94.83653 38.441087 95.405334 38.676693 95.998346 38.676693 
L 95.998346 38.676693 
z
" style="fill:none;stroke:#ff0000;"/>
    </g>
    <g id="text_2">
     <!-- Z43_hematite -->
     <defs>
      <path d="M 52 44.1875 
Q 55.375 50.25 60.0625 53.125 
Q 64.75 56 71.09375 56 
Q 79.640625 56 84.28125 50.015625 
Q 88.921875 44.046875 88.921875 33.015625 
L 88.921875 0 
L 79.890625 0 
L 79.890625 32.71875 
Q 79.890625 40.578125 77.09375 44.375 
Q 74.3125 48.1875 68.609375 48.1875 
Q 61.625 48.1875 57.5625 43.546875 
Q 53.515625 38.921875 53.515625 30.90625 
L 53.515625 0 
L 44.484375 0 
L 44.484375 32.71875 
Q 44.484375 40.625 41.703125 44.40625 
Q 38.921875 48.1875 33.109375 48.1875 
Q 26.21875 48.1875 22.15625 43.53125 
Q 18.109375 38.875 18.109375 30.90625 
L 18.109375 0 
L 9.078125 0 
L 9.078125 54.6875 
L 18.109375 54.6875 
L 18.109375 46.1875 
Q 21.1875 51.21875 25.484375 53.609375 
Q 29.78125 56 35.6875 56 
Q 41.65625 56 45.828125 52.96875 
Q 50 49.953125 52 44.1875 
" id="BitstreamVeraSans-Roman-6d"/>
      <path d="M 9.421875 54.6875 
L 18.40625 54.6875 
L 18.40625 0 
L 9.421875 0 
z
M 9.421875 75.984375 
L 18.40625 75.984375 
L 18.40625 64.59375 
L 9.421875 64.59375 
z
" id="BitstreamVeraSans-Roman-69"/>
      <path d="M 54.890625 33.015625 
L 54.890625 0 
L 45.90625 0 
L 45.90625 32.71875 
Q 45.90625 40.484375 42.875 44.328125 
Q 39.84375 48.1875 33.796875 48.1875 
Q 26.515625 48.1875 22.3125 43.546875 
Q 18.109375 38.921875 18.109375 30.90625 
L 18.109375 0 
L 9.078125 0 
L 9.078125 75.984375 
L 18.109375 75.984375 
L 18.109375 46.1875 
Q 21.34375 51.125 25.703125 53.5625 
Q 30.078125 56 35.796875 56 
Q 45.21875 56 50.046875 50.171875 
Q 54.890625 44.34375 54.890625 33.015625 
" id="BitstreamVeraSans-Roman-68"/>
      <path d="M 56.203125 29.59375 
L 56.203125 25.203125 
L 14.890625 25.203125 
Q 15.484375 15.921875 20.484375 11.0625 
Q 25.484375 6.203125 34.421875 6.203125 
Q 39.59375 6.203125 44.453125 7.46875 
Q 49.3125 8.734375 54.109375 11.28125 
L 54.109375 2.78125 
Q 49.265625 0.734375 44.1875 -0.34375 
Q 39.109375 -1.421875 33.890625 -1.421875 
Q 20.796875 -1.421875 13.15625 6.1875 
Q 5.515625 13.8125 5.515625 26.8125 
Q 5.515625 40.234375 12.765625 48.109375 
Q 20.015625 56 32.328125 56 
Q 43.359375 56 49.78125 48.890625 
Q 56.203125 41.796875 56.203125 29.59375 
M 47.21875 32.234375 
Q 47.125 39.59375 43.09375 43.984375 
Q 39.0625 48.390625 32.421875 48.390625 
Q 24.90625 48.390625 20.390625 44.140625 
Q 15.875 39.890625 15.1875 32.171875 
z
" id="BitstreamVeraSans-Roman-65"/>
      <path d="M 18.3125 70.21875 
L 18.3125 54.6875 
L 36.8125 54.6875 
L 36.8125 47.703125 
L 18.3125 47.703125 
L 18.3125 18.015625 
Q 18.3125 11.328125 20.140625 9.421875 
Q 21.96875 7.515625 27.59375 7.515625 
L 36.8125 7.515625 
L 36.8125 0 
L 27.59375 0 
Q 17.1875 0 13.234375 3.875 
Q 9.28125 7.765625 9.28125 18.015625 
L 9.28125 47.703125 
L 2.6875 47.703125 
L 2.6875 54.6875 
L 9.28125 54.6875 
L 9.28125 70.21875 
z
" id="BitstreamVeraSans-Roman-74"/>
      <path d="M 34.28125 27.484375 
Q 23.390625 27.484375 19.1875 25 
Q 14.984375 22.515625 14.984375 16.5 
Q 14.984375 11.71875 18.140625 8.90625 
Q 21.296875 6.109375 26.703125 6.109375 
Q 34.1875 6.109375 38.703125 11.40625 
Q 43.21875 16.703125 43.21875 25.484375 
L 43.21875 27.484375 
z
M 52.203125 31.203125 
L 52.203125 0 
L 43.21875 0 
L 43.21875 8.296875 
Q 40.140625 3.328125 35.546875 0.953125 
Q 30.953125 -1.421875 24.3125 -1.421875 
Q 15.921875 -1.421875 10.953125 3.296875 
Q 6 8.015625 6 15.921875 
Q 6 25.140625 12.171875 29.828125 
Q 18.359375 34.515625 30.609375 34.515625 
L 43.21875 34.515625 
L 43.21875 35.40625 
Q 43.21875 41.609375 39.140625 45 
Q 35.0625 48.390625 27.6875 48.390625 
Q 23 48.390625 18.546875 47.265625 
Q 14.109375 46.140625 10.015625 43.890625 
L 10.015625 52.203125 
Q 14.9375 54.109375 19.578125 55.046875 
Q 24.21875 56 28.609375 56 
Q 40.484375 56 46.34375 49.84375 
Q 52.203125 43.703125 52.203125 31.203125 
" id="BitstreamVeraSans-Roman-61"/>
     </defs>
     <g transform="translate(109.198346037 39.065625)scale(0.12 -0.12)">
      <use xlink:href="#BitstreamVeraSans-Roman-5a"/>
      <use x="68.505859375" xlink:href="#BitstreamVeraSans-Roman-34"/>
      <use x="132.12890625" xlink:href="#BitstreamVeraSans-Roman-33"/>
      <use x="195.751953125" xlink:href="#BitstreamVeraSans-Roman-5f"/>
      <use x="245.751953125" xlink:href="#BitstreamVeraSans-Roman-68"/>
      <use x="309.130859375" xlink:href="#BitstreamVeraSans-Roman-65"/>
      <use x="370.654296875" xlink:href="#BitstreamVeraSans-Roman-6d"/>
      <use x="468.06640625" xlink:href="#BitstreamVeraSans-Roman-61"/>
      <use x="529.345703125" xlink:href="#BitstreamVeraSans-Roman-74"/>
      <use x="568.5546875" xlink:href="#BitstreamVeraSans-Roman-69"/>
      <use x="596.337890625" xlink:href="#BitstreamVeraSans-Roman-74"/>
      <use x="635.546875" xlink:href="#BitstreamVeraSans-Roman-65"/>
     </g>
    </g>
    <g id="PathCollection_11">
     <path d="M 79.198346 56.099193 
C 79.791358 56.099193 80.360162 55.863587 80.779485 55.444264 
C 81.198808 55.024941 81.434414 54.456137 81.434414 53.863125 
C 81.434414 53.270113 81.198808 52.701309 80.779485 52.281986 
C 80.360162 51.862663 79.791358 51.627057 79.198346 51.627057 
C 78.605334 51.627057 78.03653 51.862663 77.617207 52.281986 
C 77.197884 52.701309 76.962278 53.270113 76.962278 53.863125 
C 76.962278 54.456137 77.197884 55.024941 77.617207 55.444264 
C 78.03653 55.863587 78.605334 56.099193 79.198346 56.099193 
z
" style="fill:#ff0000;stroke:#ff0000;"/>
     <path d="M 87.598346 55.049193 
C 88.191358 55.049193 88.760162 54.813587 89.179485 54.394264 
C 89.598808 53.974941 89.834414 53.406137 89.834414 52.813125 
C 89.834414 52.220113 89.598808 51.651309 89.179485 51.231986 
C 88.760162 50.812663 88.191358 50.577057 87.598346 50.577057 
C 87.005334 50.577057 86.43653 50.812663 86.017207 51.231986 
C 85.597884 51.651309 85.362278 52.220113 85.362278 52.813125 
C 85.362278 53.406137 85.597884 53.974941 86.017207 54.394264 
C 86.43653 54.813587 87.005334 55.049193 87.598346 55.049193 
z
" style="fill:#ff0000;stroke:#ff0000;"/>
     <path d="M 95.998346 56.624193 
C 96.591358 56.624193 97.160162 56.388587 97.579485 55.969264 
C 97.998808 55.549941 98.234414 54.981137 98.234414 54.388125 
C 98.234414 53.795113 97.998808 53.226309 97.579485 52.806986 
C 97.160162 52.387663 96.591358 52.152057 95.998346 52.152057 
C 95.405334 52.152057 94.83653 52.387663 94.417207 52.806986 
C 93.997884 53.226309 93.762278 53.795113 93.762278 54.388125 
C 93.762278 54.981137 93.997884 55.549941 94.417207 55.969264 
C 94.83653 56.388587 95.405334 56.624193 95.998346 56.624193 
z
" style="fill:#ff0000;stroke:#ff0000;"/>
    </g>
    <g id="text_3">
     <!-- Z43_hematite -->
     <g transform="translate(109.198346037 57.013125)scale(0.12 -0.12)">
      <use xlink:href="#BitstreamVeraSans-Roman-5a"/>
      <use x="68.505859375" xlink:href="#BitstreamVeraSans-Roman-34"/>
      <use x="132.12890625" xlink:href="#BitstreamVeraSans-Roman-33"/>
      <use x="195.751953125" xlink:href="#BitstreamVeraSans-Roman-5f"/>
      <use x="245.751953125" xlink:href="#BitstreamVeraSans-Roman-68"/>
      <use x="309.130859375" xlink:href="#BitstreamVeraSans-Roman-65"/>
      <use x="370.654296875" xlink:href="#BitstreamVeraSans-Roman-6d"/>
      <use x="468.06640625" xlink:href="#BitstreamVeraSans-Roman-61"/>
      <use x="529.345703125" xlink:href="#BitstreamVeraSans-Roman-74"/>
      <use x="568.5546875" xlink:href="#BitstreamVeraSans-Roman-69"/>
      <use x="596.337890625" xlink:href="#BitstreamVeraSans-Roman-74"/>
      <use x="635.546875" xlink:href="#BitstreamVeraSans-Roman-65"/>
     </g>
    </g>
    <g id="PathCollection_12">
     <path d="M 76.962278 74.046693 
L 81.434414 74.046693 
L 81.434414 69.574557 
L 76.962278 69.574557 
z
" style="fill:#ffffff;stroke:#bf00bf;"/>
     <path d="M 85.362278 72.996693 
L 89.834414 72.996693 
L 89.834414 68.524557 
L 85.362278 68.524557 
z
" style="fill:#ffffff;stroke:#bf00bf;"/>
     <path d="M 93.762278 74.571693 
L 98.234414 74.571693 
L 98.234414 70.099557 
L 93.762278 70.099557 
z
" style="fill:#ffffff;stroke:#bf00bf;"/>
    </g>
    <g id="text_4">
     <!-- Z43_mid_tc_mean -->
     <defs>
      <path d="M 54.890625 33.015625 
L 54.890625 0 
L 45.90625 0 
L 45.90625 32.71875 
Q 45.90625 40.484375 42.875 44.328125 
Q 39.84375 48.1875 33.796875 48.1875 
Q 26.515625 48.1875 22.3125 43.546875 
Q 18.109375 38.921875 18.109375 30.90625 
L 18.109375 0 
L 9.078125 0 
L 9.078125 54.6875 
L 18.109375 54.6875 
L 18.109375 46.1875 
Q 21.34375 51.125 25.703125 53.5625 
Q 30.078125 56 35.796875 56 
Q 45.21875 56 50.046875 50.171875 
Q 54.890625 44.34375 54.890625 33.015625 
" id="BitstreamVeraSans-Roman-6e"/>
      <path d="M 45.40625 46.390625 
L 45.40625 75.984375 
L 54.390625 75.984375 
L 54.390625 0 
L 45.40625 0 
L 45.40625 8.203125 
Q 42.578125 3.328125 38.25 0.953125 
Q 33.9375 -1.421875 27.875 -1.421875 
Q 17.96875 -1.421875 11.734375 6.484375 
Q 5.515625 14.40625 5.515625 27.296875 
Q 5.515625 40.1875 11.734375 48.09375 
Q 17.96875 56 27.875 56 
Q 33.9375 56 38.25 53.625 
Q 42.578125 51.265625 45.40625 46.390625 
M 14.796875 27.296875 
Q 14.796875 17.390625 18.875 11.75 
Q 22.953125 6.109375 30.078125 6.109375 
Q 37.203125 6.109375 41.296875 11.75 
Q 45.40625 17.390625 45.40625 27.296875 
Q 45.40625 37.203125 41.296875 42.84375 
Q 37.203125 48.484375 30.078125 48.484375 
Q 22.953125 48.484375 18.875 42.84375 
Q 14.796875 37.203125 14.796875 27.296875 
" id="BitstreamVeraSans-Roman-64"/>
      <path d="M 48.78125 52.59375 
L 48.78125 44.1875 
Q 44.96875 46.296875 41.140625 47.34375 
Q 37.3125 48.390625 33.40625 48.390625 
Q 24.65625 48.390625 19.8125 42.84375 
Q 14.984375 37.3125 14.984375 27.296875 
Q 14.984375 17.28125 19.8125 11.734375 
Q 24.65625 6.203125 33.40625 6.203125 
Q 37.3125 6.203125 41.140625 7.25 
Q 44.96875 8.296875 48.78125 10.40625 
L 48.78125 2.09375 
Q 45.015625 0.34375 40.984375 -0.53125 
Q 36.96875 -1.421875 32.421875 -1.421875 
Q 20.0625 -1.421875 12.78125 6.34375 
Q 5.515625 14.109375 5.515625 27.296875 
Q 5.515625 40.671875 12.859375 48.328125 
Q 20.21875 56 33.015625 56 
Q 37.15625 56 41.109375 55.140625 
Q 45.0625 54.296875 48.78125 52.59375 
" id="BitstreamVeraSans-Roman-63"/>
     </defs>
     <g transform="translate(109.198346037 74.960625)scale(0.12 -0.12)">
      <use xlink:href="#BitstreamVeraSans-Roman-5a"/>
      <use x="68.505859375" xlink:href="#BitstreamVeraSans-Roman-34"/>
      <use x="132.12890625" xlink:href="#BitstreamVeraSans-Roman-33"/>
      <use x="195.751953125" xlink:href="#BitstreamVeraSans-Roman-5f"/>
      <use x="245.751953125" xlink:href="#BitstreamVeraSans-Roman-6d"/>
      <use x="343.1640625" xlink:href="#BitstreamVeraSans-Roman-69"/>
      <use x="370.947265625" xlink:href="#BitstreamVeraSans-Roman-64"/>
      <use x="434.423828125" xlink:href="#BitstreamVeraSans-Roman-5f"/>
      <use x="484.423828125" xlink:href="#BitstreamVeraSans-Roman-74"/>
      <use x="523.6328125" xlink:href="#BitstreamVeraSans-Roman-63"/>
      <use x="578.61328125" xlink:href="#BitstreamVeraSans-Roman-5f"/>
      <use x="628.61328125" xlink:href="#BitstreamVeraSans-Roman-6d"/>
      <use x="726.025390625" xlink:href="#BitstreamVeraSans-Roman-65"/>
      <use x="787.548828125" xlink:href="#BitstreamVeraSans-Roman-61"/>
      <use x="848.828125" xlink:href="#BitstreamVeraSans-Roman-6e"/>
     </g>
    </g>
    <g id="PathCollection_13">
     <path d="M 76.962278 91.994193 
L 81.434414 91.994193 
L 81.434414 87.522057 
L 76.962278 87.522057 
z
" style="fill:#ffffff;stroke:#0000ff;"/>
     <path d="M 85.362278 90.944193 
L 89.834414 90.944193 
L 89.834414 86.472057 
L 85.362278 86.472057 
z
" style="fill:#ffffff;stroke:#0000ff;"/>
     <path d="M 93.762278 92.519193 
L 98.234414 92.519193 
L 98.234414 88.047057 
L 93.762278 88.047057 
z
" style="fill:#ffffff;stroke:#0000ff;"/>
    </g>
    <g id="text_5">
     <!-- Z43_mag_tc_mean -->
     <defs>
      <path d="M 45.40625 27.984375 
Q 45.40625 37.75 41.375 43.109375 
Q 37.359375 48.484375 30.078125 48.484375 
Q 22.859375 48.484375 18.828125 43.109375 
Q 14.796875 37.75 14.796875 27.984375 
Q 14.796875 18.265625 18.828125 12.890625 
Q 22.859375 7.515625 30.078125 7.515625 
Q 37.359375 7.515625 41.375 12.890625 
Q 45.40625 18.265625 45.40625 27.984375 
M 54.390625 6.78125 
Q 54.390625 -7.171875 48.1875 -13.984375 
Q 42 -20.796875 29.203125 -20.796875 
Q 24.46875 -20.796875 20.265625 -20.09375 
Q 16.0625 -19.390625 12.109375 -17.921875 
L 12.109375 -9.1875 
Q 16.0625 -11.328125 19.921875 -12.34375 
Q 23.78125 -13.375 27.78125 -13.375 
Q 36.625 -13.375 41.015625 -8.765625 
Q 45.40625 -4.15625 45.40625 5.171875 
L 45.40625 9.625 
Q 42.625 4.78125 38.28125 2.390625 
Q 33.9375 0 27.875 0 
Q 17.828125 0 11.671875 7.65625 
Q 5.515625 15.328125 5.515625 27.984375 
Q 5.515625 40.671875 11.671875 48.328125 
Q 17.828125 56 27.875 56 
Q 33.9375 56 38.28125 53.609375 
Q 42.625 51.21875 45.40625 46.390625 
L 45.40625 54.6875 
L 54.390625 54.6875 
z
" id="BitstreamVeraSans-Roman-67"/>
     </defs>
     <g transform="translate(109.198346037 92.908125)scale(0.12 -0.12)">
      <use xlink:href="#BitstreamVeraSans-Roman-5a"/>
      <use x="68.505859375" xlink:href="#BitstreamVeraSans-Roman-34"/>
      <use x="132.12890625" xlink:href="#BitstreamVeraSans-Roman-33"/>
      <use x="195.751953125" xlink:href="#BitstreamVeraSans-Roman-5f"/>
      <use x="245.751953125" xlink:href="#BitstreamVeraSans-Roman-6d"/>
      <use x="343.1640625" xlink:href="#BitstreamVeraSans-Roman-61"/>
      <use x="404.443359375" xlink:href="#BitstreamVeraSans-Roman-67"/>
      <use x="467.919921875" xlink:href="#BitstreamVeraSans-Roman-5f"/>
      <use x="517.919921875" xlink:href="#BitstreamVeraSans-Roman-74"/>
      <use x="557.12890625" xlink:href="#BitstreamVeraSans-Roman-63"/>
      <use x="612.109375" xlink:href="#BitstreamVeraSans-Roman-5f"/>
      <use x="662.109375" xlink:href="#BitstreamVeraSans-Roman-6d"/>
      <use x="759.521484375" xlink:href="#BitstreamVeraSans-Roman-65"/>
      <use x="821.044921875" xlink:href="#BitstreamVeraSans-Roman-61"/>
      <use x="882.32421875" xlink:href="#BitstreamVeraSans-Roman-6e"/>
     </g>
    </g>
    <g id="PathCollection_14">
     <path d="M 76.962278 109.941693 
L 81.434414 109.941693 
L 81.434414 105.469557 
L 76.962278 105.469557 
z
" style="fill:#ff0000;stroke:#ff0000;"/>
     <path d="M 85.362278 108.891693 
L 89.834414 108.891693 
L 89.834414 104.419557 
L 85.362278 104.419557 
z
" style="fill:#ff0000;stroke:#ff0000;"/>
     <path d="M 93.762278 110.466693 
L 98.234414 110.466693 
L 98.234414 105.994557 
L 93.762278 105.994557 
z
" style="fill:#ff0000;stroke:#ff0000;"/>
    </g>
    <g id="text_6">
     <!-- Z43_hem_tc_mean -->
     <g transform="translate(109.198346037 110.855625)scale(0.12 -0.12)">
      <use xlink:href="#BitstreamVeraSans-Roman-5a"/>
      <use x="68.505859375" xlink:href="#BitstreamVeraSans-Roman-34"/>
      <use x="132.12890625" xlink:href="#BitstreamVeraSans-Roman-33"/>
      <use x="195.751953125" xlink:href="#BitstreamVeraSans-Roman-5f"/>
      <use x="245.751953125" xlink:href="#BitstreamVeraSans-Roman-68"/>
      <use x="309.130859375" xlink:href="#BitstreamVeraSans-Roman-65"/>
      <use x="370.654296875" xlink:href="#BitstreamVeraSans-Roman-6d"/>
      <use x="468.06640625" xlink:href="#BitstreamVeraSans-Roman-5f"/>
      <use x="518.06640625" xlink:href="#BitstreamVeraSans-Roman-74"/>
      <use x="557.275390625" xlink:href="#BitstreamVeraSans-Roman-63"/>
      <use x="612.255859375" xlink:href="#BitstreamVeraSans-Roman-5f"/>
      <use x="662.255859375" xlink:href="#BitstreamVeraSans-Roman-6d"/>
      <use x="759.66796875" xlink:href="#BitstreamVeraSans-Roman-65"/>
      <use x="821.19140625" xlink:href="#BitstreamVeraSans-Roman-61"/>
      <use x="882.470703125" xlink:href="#BitstreamVeraSans-Roman-6e"/>
     </g>
    </g>
   </g>
  </g>
 </g>
 <defs>
  <clipPath id="p78b1e91972">
   <rect height="253.4" width="235.436890244" x="35.4828125" y="55.135"/>
  </clipPath>
 </defs>
</svg>
