<?xml version="1.0" encoding="utf-8" standalone="no"?>
<!DOCTYPE svg PUBLIC "-//W3C//DTD SVG 1.1//EN"
  "http://www.w3.org/Graphics/SVG/1.1/DTD/svg11.dtd">
<!-- Created with matplotlib (http://matplotlib.org/) -->
<svg height="439pt" version="1.1" viewBox="0 0 424 439" width="424pt" xmlns="http://www.w3.org/2000/svg" xmlns:xlink="http://www.w3.org/1999/xlink">
 <defs>
  <style type="text/css">
*{stroke-linecap:butt;stroke-linejoin:round;stroke-miterlimit:100000;}
  </style>
 </defs>
 <g id="figure_1">
  <g id="patch_1">
   <path d="M 0 439.59625 
L 424.557812 439.59625 
L 424.557812 -0 
L 0 -0 
L 0 439.59625 
z
" style="fill:none;"/>
  </g>
  <g id="axes_1">
   <g id="PathCollection_1">
    <defs>
     <path d="M 0 1.118034 
C 0.296506 1.118034 0.580908 1.000231 0.790569 0.790569 
C 1.000231 0.580908 1.118034 0.296506 1.118034 0 
C 1.118034 -0.296506 1.000231 -0.580908 0.790569 -0.790569 
C 0.580908 -1.000231 0.296506 -1.118034 0 -1.118034 
C -0.296506 -1.118034 -0.580908 -1.000231 -0.790569 -0.790569 
C -1.000231 -0.580908 -1.118034 -0.296506 -1.118034 0 
C -1.118034 0.296506 -1.000231 0.580908 -0.790569 0.790569 
C -0.580908 1.000231 -0.296506 1.118034 0 1.118034 
z
" id="m0ef7e81387" style="stroke:#00008b;"/>
    </defs>
    <g clip-path="url(#pd8e2f0889e)">
     <use style="fill:#ffffff;stroke:#00008b;" x="173.454503628" xlink:href="#m0ef7e81387" y="217.42815537"/>
    </g>
   </g>
   <g id="PathCollection_2">
    <defs>
     <path d="M -2.236068 2.236068 
L 2.236068 2.236068 
L 2.236068 -2.236068 
L -2.236068 -2.236068 
z
" id="m07a1cdc499" style="stroke:#00008b;"/>
    </defs>
    <g clip-path="url(#pd8e2f0889e)">
     <use style="fill:#ffffff;stroke:#00008b;" x="104.286011409" xlink:href="#m07a1cdc499" y="111.221040544"/>
    </g>
   </g>
   <g id="PathCollection_3">
    <defs>
     <path d="M 0 -2.236068 
L -2.236068 2.236068 
L 2.236068 2.236068 
z
" id="mbfb11775b6" style="stroke:#0000ff;"/>
    </defs>
    <g clip-path="url(#pd8e2f0889e)">
     <use style="fill:#ffffff;stroke:#0000ff;" x="200.335318031" xlink:href="#mbfb11775b6" y="266.682887706"/>
    </g>
   </g>
   <g id="PathCollection_4">
    <defs>
     <path d="M -2.236068 -0 
L 2.236068 2.236068 
L 2.236068 -2.236068 
z
" id="m2b34311953" style="stroke:#0000ff;"/>
    </defs>
    <g clip-path="url(#pd8e2f0889e)">
     <use style="fill:#0000ff;stroke:#0000ff;" x="378.669407054" xlink:href="#m2b34311953" y="302.666983227"/>
    </g>
   </g>
   <g id="PathCollection_5">
    <defs>
     <path d="M 2.236068 0 
L -2.236068 -2.236068 
L -2.236068 2.236068 
z
" id="md01080b804" style="stroke:#ff0000;"/>
    </defs>
    <g clip-path="url(#pd8e2f0889e)">
     <use style="fill:#ffffff;stroke:#ff0000;" x="219.997575846" xlink:href="#md01080b804" y="275.517703127"/>
    </g>
   </g>
   <g id="PathCollection_6">
    <defs>
     <path d="M 0 0 
L 0 2.236068 
M 0 0 
L 1.788854 -1.118034 
M 0 0 
L -1.788854 -1.118034 
" id="mc3232c432b" style="stroke:#ff0000;"/>
    </defs>
    <g clip-path="url(#pd8e2f0889e)">
     <use style="fill:#ff0000;stroke:#ff0000;" x="212.328066189" xlink:href="#mc3232c432b" y="395.135102269"/>
    </g>
   </g>
   <g id="line2d_1">
    <path clip-path="url(#pd8e2f0889e)" d="M 226.420312 38.207326 
L 229.59395 38.235016 
L 232.76662 38.31808 
L 239.105195 38.650208 
L 245.428316 39.203304 
L 251.728278 39.976696 
L 257.997407 40.96944 
L 264.228063 42.180328 
L 270.412657 43.607883 
L 276.543653 45.250368 
L 282.613581 47.10578 
L 288.615047 49.171859 
L 294.540738 51.446087 
L 300.383434 53.925695 
L 306.136018 56.607661 
L 311.791481 59.488717 
L 317.342932 62.565354 
L 322.783607 65.833823 
L 328.106879 69.290141 
L 333.306262 72.930099 
L 338.37542 76.74926 
L 343.308178 80.742972 
L 348.098527 84.90637 
L 352.740629 89.234381 
L 357.22883 93.721731 
L 361.55766 98.362955 
L 365.721847 103.152396 
L 369.716316 108.08422 
L 373.5362 113.152418 
L 377.176847 118.350816 
L 380.63382 123.67308 
L 383.902908 129.112725 
L 386.980128 134.663125 
L 389.86173 140.317516 
L 392.544204 146.069011 
L 395.024281 151.910601 
L 397.298941 157.835169 
L 399.365411 163.835498 
L 401.221174 169.904277 
L 402.86397 176.034112 
L 404.291796 182.217534 
L 405.502913 188.447011 
L 406.495845 194.714952 
L 407.269383 201.013722 
L 407.822585 207.335645 
L 408.154775 213.67302 
L 408.265551 220.018125 
L 408.154775 226.36323 
L 407.822585 232.700605 
L 407.269383 239.022528 
L 406.495845 245.321298 
L 405.502913 251.589239 
L 404.291796 257.818716 
L 402.86397 264.002138 
L 401.221174 270.131973 
L 399.365411 276.200752 
L 397.298941 282.201081 
L 395.024281 288.125649 
L 392.544204 293.967239 
L 389.86173 299.718734 
L 386.980128 305.373125 
L 383.902908 310.923525 
L 380.63382 316.36317 
L 377.176847 321.685434 
L 373.5362 326.883832 
L 369.716316 331.95203 
L 365.721847 336.883854 
L 361.55766 341.673295 
L 357.22883 346.314519 
L 352.740629 350.801869 
L 348.098527 355.12988 
L 343.308178 359.293278 
L 338.37542 363.28699 
L 333.306262 367.106151 
L 328.106879 370.746109 
L 322.783607 374.202427 
L 317.342932 377.470896 
L 311.791481 380.547533 
L 306.136018 383.428589 
L 300.383434 386.110555 
L 294.540738 388.590163 
L 288.615047 390.864391 
L 282.613581 392.93047 
L 276.543653 394.785882 
L 270.412657 396.428367 
L 264.228063 397.855922 
L 257.997407 399.06681 
L 251.728278 400.059554 
L 245.428316 400.832946 
L 239.105195 401.386042 
L 232.76662 401.71817 
L 226.420312 401.828924 
L 220.074005 401.71817 
L 213.73543 401.386042 
L 207.412309 400.832946 
L 201.112347 400.059554 
L 194.843218 399.06681 
L 188.612562 397.855922 
L 182.427968 396.428367 
L 176.296972 394.785882 
L 170.227044 392.93047 
L 164.225578 390.864391 
L 158.299887 388.590163 
L 152.457191 386.110555 
L 146.704607 383.428589 
L 141.049144 380.547533 
L 135.497693 377.470896 
L 130.057018 374.202427 
L 124.733746 370.746109 
L 119.534363 367.106151 
L 114.465205 363.28699 
L 109.532447 359.293278 
L 104.742098 355.12988 
L 100.099996 350.801869 
L 95.611795 346.314519 
L 91.282965 341.673295 
L 87.118778 336.883854 
L 83.124309 331.95203 
L 79.304425 326.883832 
L 75.663778 321.685434 
L 72.206805 316.36317 
L 68.937717 310.923525 
L 65.860497 305.373125 
L 62.978895 299.718734 
L 60.296421 293.967239 
L 57.816344 288.125649 
L 55.541684 282.201081 
L 53.475214 276.200752 
L 51.619451 270.131973 
L 49.976655 264.002138 
L 48.548829 257.818716 
L 47.337712 251.589239 
L 46.34478 245.321298 
L 45.571242 239.022528 
L 45.01804 232.700605 
L 44.68585 226.36323 
L 44.575074 220.018125 
L 44.68585 213.67302 
L 45.01804 207.335645 
L 45.571242 201.013722 
L 46.34478 194.714952 
L 47.337712 188.447011 
L 48.548829 182.217534 
L 49.976655 176.034112 
L 51.619451 169.904277 
L 53.475214 163.835498 
L 55.541684 157.835169 
L 57.816344 151.910601 
L 60.296421 146.069011 
L 62.978895 140.317516 
L 65.860497 134.663125 
L 68.937717 129.112725 
L 72.206805 123.67308 
L 75.663778 118.350816 
L 79.304425 113.152418 
L 83.124309 108.08422 
L 87.118778 103.152396 
L 91.282965 98.362955 
L 95.611795 93.721731 
L 100.099996 89.234381 
L 104.742098 84.90637 
L 109.532447 80.742972 
L 114.465205 76.74926 
L 119.534363 72.930099 
L 124.733746 69.290141 
L 130.057018 65.833823 
L 135.497693 62.565354 
L 141.049144 59.488717 
L 146.704607 56.607661 
L 152.457191 53.925695 
L 158.299887 51.446087 
L 164.225578 49.171859 
L 170.227044 47.10578 
L 176.296972 45.250368 
L 182.427968 43.607883 
L 188.612562 42.180328 
L 194.843218 40.96944 
L 201.112347 39.976696 
L 207.412309 39.203304 
L 213.73543 38.650208 
L 220.074005 38.31808 
L 226.420312 38.207326 
L 226.420312 38.207326 
" style="fill:none;stroke:#000000;stroke-linecap:square;"/>
   </g>
   <g id="line2d_2">
    <defs>
     <path d="M -3 0 
L 3 0 
M 0 3 
L 0 -3 
" id="m7e2716abb4" style="stroke:#000000;stroke-width:0.5;"/>
    </defs>
    <g clip-path="url(#pd8e2f0889e)">
     <use style="stroke:#000000;stroke-width:0.5;" x="226.4203125" xlink:href="#m7e2716abb4" y="54.7450259161"/>
     <use style="stroke:#000000;stroke-width:0.5;" x="226.4203125" xlink:href="#m7e2716abb4" y="72.5405542306"/>
     <use style="stroke:#000000;stroke-width:0.5;" x="226.4203125" xlink:href="#m7e2716abb4" y="91.4584759081"/>
     <use style="stroke:#000000;stroke-width:0.5;" x="226.4203125" xlink:href="#m7e2716abb4" y="111.354814142"/>
     <use style="stroke:#000000;stroke-width:0.5;" x="226.4203125" xlink:href="#m7e2716abb4" y="132.078145783"/>
     <use style="stroke:#000000;stroke-width:0.5;" x="226.4203125" xlink:href="#m7e2716abb4" y="153.470753767"/>
     <use style="stroke:#000000;stroke-width:0.5;" x="226.4203125" xlink:href="#m7e2716abb4" y="175.369827427"/>
     <use style="stroke:#000000;stroke-width:0.5;" x="226.4203125" xlink:href="#m7e2716abb4" y="197.608701592"/>
     <use style="stroke:#000000;stroke-width:0.5;" x="226.4203125" xlink:href="#m7e2716abb4" y="220.018125"/>
    </g>
   </g>
   <g id="line2d_3">
    <g clip-path="url(#pd8e2f0889e)">
     <use style="stroke:#000000;stroke-width:0.5;" x="391.724717772" xlink:href="#m7e2716abb4" y="220.018125"/>
     <use style="stroke:#000000;stroke-width:0.5;" x="373.925818612" xlink:href="#m7e2716abb4" y="220.018125"/>
     <use style="stroke:#000000;stroke-width:0.5;" x="355.004313484" xlink:href="#m7e2716abb4" y="220.018125"/>
     <use style="stroke:#000000;stroke-width:0.5;" x="335.104206467" xlink:href="#m7e2716abb4" y="220.018125"/>
     <use style="stroke:#000000;stroke-width:0.5;" x="314.376949392" xlink:href="#m7e2716abb4" y="220.018125"/>
     <use style="stroke:#000000;stroke-width:0.5;" x="292.9802892" xlink:href="#m7e2716abb4" y="220.018125"/>
     <use style="stroke:#000000;stroke-width:0.5;" x="271.077067396" xlink:href="#m7e2716abb4" y="220.018125"/>
     <use style="stroke:#000000;stroke-width:0.5;" x="248.833980722" xlink:href="#m7e2716abb4" y="220.018125"/>
    </g>
   </g>
   <g id="line2d_4">
    <g clip-path="url(#pd8e2f0889e)">
     <use style="stroke:#000000;stroke-width:0.5;" x="226.4203125" xlink:href="#m7e2716abb4" y="385.291224084"/>
     <use style="stroke:#000000;stroke-width:0.5;" x="226.4203125" xlink:href="#m7e2716abb4" y="367.495695769"/>
     <use style="stroke:#000000;stroke-width:0.5;" x="226.4203125" xlink:href="#m7e2716abb4" y="348.577774092"/>
     <use style="stroke:#000000;stroke-width:0.5;" x="226.4203125" xlink:href="#m7e2716abb4" y="328.681435858"/>
     <use style="stroke:#000000;stroke-width:0.5;" x="226.4203125" xlink:href="#m7e2716abb4" y="307.958104217"/>
     <use style="stroke:#000000;stroke-width:0.5;" x="226.4203125" xlink:href="#m7e2716abb4" y="286.565496233"/>
     <use style="stroke:#000000;stroke-width:0.5;" x="226.4203125" xlink:href="#m7e2716abb4" y="264.666422573"/>
     <use style="stroke:#000000;stroke-width:0.5;" x="226.4203125" xlink:href="#m7e2716abb4" y="242.427548408"/>
    </g>
   </g>
   <g id="line2d_5">
    <g clip-path="url(#pd8e2f0889e)">
     <use style="stroke:#000000;stroke-width:0.5;" x="61.1159072276" xlink:href="#m7e2716abb4" y="220.018125"/>
     <use style="stroke:#000000;stroke-width:0.5;" x="78.9148063881" xlink:href="#m7e2716abb4" y="220.018125"/>
     <use style="stroke:#000000;stroke-width:0.5;" x="97.8363115164" xlink:href="#m7e2716abb4" y="220.018125"/>
     <use style="stroke:#000000;stroke-width:0.5;" x="117.736418533" xlink:href="#m7e2716abb4" y="220.018125"/>
     <use style="stroke:#000000;stroke-width:0.5;" x="138.463675608" xlink:href="#m7e2716abb4" y="220.018125"/>
     <use style="stroke:#000000;stroke-width:0.5;" x="159.8603358" xlink:href="#m7e2716abb4" y="220.018125"/>
     <use style="stroke:#000000;stroke-width:0.5;" x="181.763557604" xlink:href="#m7e2716abb4" y="220.018125"/>
     <use style="stroke:#000000;stroke-width:0.5;" x="204.006644278" xlink:href="#m7e2716abb4" y="220.018125"/>
    </g>
   </g>
   <g id="line2d_6">
    <path clip-path="url(#pd8e2f0889e)" d="M 226.420312 38.207326 
L 226.420312 39.800827 
L 226.420312 41.408052 
L 226.420312 43.02888 
" style="fill:none;stroke:#000000;stroke-linecap:square;"/>
   </g>
   <g id="line2d_7">
    <path clip-path="url(#pd8e2f0889e)" d="M 257.997407 40.96944 
L 257.720646 42.538733 
L 257.441501 44.121541 
L 257.159994 45.717744 
" style="fill:none;stroke:#000000;stroke-linecap:square;"/>
   </g>
   <g id="line2d_8">
    <path clip-path="url(#pd8e2f0889e)" d="M 288.615047 49.171859 
L 288.069934 50.66926 
L 287.520127 52.179558 
L 286.965666 53.702637 
" style="fill:none;stroke:#000000;stroke-linecap:square;"/>
   </g>
   <g id="line2d_9">
    <path clip-path="url(#pd8e2f0889e)" d="M 317.342932 62.565354 
L 316.54603 63.945367 
L 315.742265 65.337265 
L 314.931698 66.740942 
" style="fill:none;stroke:#000000;stroke-linecap:square;"/>
   </g>
   <g id="line2d_10">
    <path clip-path="url(#pd8e2f0889e)" d="M 343.308178 80.742972 
L 342.283702 81.963665 
L 341.250401 83.194871 
L 340.208356 84.436497 
" style="fill:none;stroke:#000000;stroke-linecap:square;"/>
   </g>
   <g id="line2d_11">
    <path clip-path="url(#pd8e2f0889e)" d="M 365.721847 103.152396 
L 364.500923 104.176679 
L 363.269483 105.209783 
L 362.027622 106.251631 
" style="fill:none;stroke:#000000;stroke-linecap:square;"/>
   </g>
   <g id="line2d_12">
    <path clip-path="url(#pd8e2f0889e)" d="M 383.902908 129.112725 
L 382.522634 129.909476 
L 381.130473 130.713089 
L 379.726529 131.523502 
" style="fill:none;stroke:#000000;stroke-linecap:square;"/>
   </g>
   <g id="line2d_13">
    <path clip-path="url(#pd8e2f0889e)" d="M 397.298941 157.835169 
L 395.801256 158.380179 
L 394.290672 158.929882 
L 392.767304 159.484238 
" style="fill:none;stroke:#000000;stroke-linecap:square;"/>
   </g>
   <g id="line2d_14">
    <path clip-path="url(#pd8e2f0889e)" d="M 405.502913 188.447011 
L 403.933323 188.72372 
L 402.350215 189.002811 
L 400.75371 189.284265 
" style="fill:none;stroke:#000000;stroke-linecap:square;"/>
   </g>
   <g id="line2d_15">
    <path clip-path="url(#pd8e2f0889e)" d="M 408.265551 220.018125 
L 406.671748 220.018125 
L 405.064218 220.018125 
L 403.443083 220.018125 
" style="fill:none;stroke:#000000;stroke-linecap:square;"/>
   </g>
   <g id="line2d_16">
    <path clip-path="url(#pd8e2f0889e)" d="M 405.502913 251.589239 
L 403.933323 251.31253 
L 402.350215 251.033439 
L 400.75371 250.751985 
" style="fill:none;stroke:#000000;stroke-linecap:square;"/>
   </g>
   <g id="line2d_17">
    <path clip-path="url(#pd8e2f0889e)" d="M 397.298941 282.201081 
L 395.801256 281.656071 
L 394.290672 281.106368 
L 392.767304 280.552012 
" style="fill:none;stroke:#000000;stroke-linecap:square;"/>
   </g>
   <g id="line2d_18">
    <path clip-path="url(#pd8e2f0889e)" d="M 383.902908 310.923525 
L 382.522634 310.126774 
L 381.130473 309.323161 
L 379.726529 308.512748 
" style="fill:none;stroke:#000000;stroke-linecap:square;"/>
   </g>
   <g id="line2d_19">
    <path clip-path="url(#pd8e2f0889e)" d="M 365.721847 336.883854 
L 364.500923 335.859571 
L 363.269483 334.826467 
L 362.027622 333.784619 
" style="fill:none;stroke:#000000;stroke-linecap:square;"/>
   </g>
   <g id="line2d_20">
    <path clip-path="url(#pd8e2f0889e)" d="M 343.308178 359.293278 
L 342.283702 358.072585 
L 341.250401 356.841379 
L 340.208356 355.599753 
" style="fill:none;stroke:#000000;stroke-linecap:square;"/>
   </g>
   <g id="line2d_21">
    <path clip-path="url(#pd8e2f0889e)" d="M 317.342932 377.470896 
L 316.54603 376.090883 
L 315.742265 374.698985 
L 314.931698 373.295308 
" style="fill:none;stroke:#000000;stroke-linecap:square;"/>
   </g>
   <g id="line2d_22">
    <path clip-path="url(#pd8e2f0889e)" d="M 288.615047 390.864391 
L 288.069934 389.36699 
L 287.520127 387.856692 
L 286.965666 386.333613 
" style="fill:none;stroke:#000000;stroke-linecap:square;"/>
   </g>
   <g id="line2d_23">
    <path clip-path="url(#pd8e2f0889e)" d="M 257.997407 399.06681 
L 257.720646 397.497517 
L 257.441501 395.914709 
L 257.159994 394.318506 
" style="fill:none;stroke:#000000;stroke-linecap:square;"/>
   </g>
   <g id="line2d_24">
    <path clip-path="url(#pd8e2f0889e)" d="M 226.420312 401.828924 
L 226.420312 400.235423 
L 226.420312 398.628198 
L 226.420312 397.00737 
" style="fill:none;stroke:#000000;stroke-linecap:square;"/>
   </g>
   <g id="line2d_25">
    <path clip-path="url(#pd8e2f0889e)" d="M 194.843218 399.06681 
L 195.119979 397.497517 
L 195.399124 395.914709 
L 195.680631 394.318506 
" style="fill:none;stroke:#000000;stroke-linecap:square;"/>
   </g>
   <g id="line2d_26">
    <path clip-path="url(#pd8e2f0889e)" d="M 164.225578 390.864391 
L 164.770691 389.36699 
L 165.320498 387.856692 
L 165.874959 386.333613 
" style="fill:none;stroke:#000000;stroke-linecap:square;"/>
   </g>
   <g id="line2d_27">
    <path clip-path="url(#pd8e2f0889e)" d="M 135.497693 377.470896 
L 136.294595 376.090883 
L 137.09836 374.698985 
L 137.908927 373.295308 
" style="fill:none;stroke:#000000;stroke-linecap:square;"/>
   </g>
   <g id="line2d_28">
    <path clip-path="url(#pd8e2f0889e)" d="M 109.532447 359.293278 
L 110.556923 358.072585 
L 111.590224 356.841379 
L 112.632269 355.599753 
" style="fill:none;stroke:#000000;stroke-linecap:square;"/>
   </g>
   <g id="line2d_29">
    <path clip-path="url(#pd8e2f0889e)" d="M 87.118778 336.883854 
L 88.339702 335.859571 
L 89.571142 334.826467 
L 90.813003 333.784619 
" style="fill:none;stroke:#000000;stroke-linecap:square;"/>
   </g>
   <g id="line2d_30">
    <path clip-path="url(#pd8e2f0889e)" d="M 68.937717 310.923525 
L 70.317991 310.126774 
L 71.710152 309.323161 
L 73.114096 308.512748 
" style="fill:none;stroke:#000000;stroke-linecap:square;"/>
   </g>
   <g id="line2d_31">
    <path clip-path="url(#pd8e2f0889e)" d="M 55.541684 282.201081 
L 57.039369 281.656071 
L 58.549953 281.106368 
L 60.073321 280.552012 
" style="fill:none;stroke:#000000;stroke-linecap:square;"/>
   </g>
   <g id="line2d_32">
    <path clip-path="url(#pd8e2f0889e)" d="M 47.337712 251.589239 
L 48.907302 251.31253 
L 50.49041 251.033439 
L 52.086915 250.751985 
" style="fill:none;stroke:#000000;stroke-linecap:square;"/>
   </g>
   <g id="line2d_33">
    <path clip-path="url(#pd8e2f0889e)" d="M 44.575074 220.018125 
L 46.168877 220.018125 
L 47.776407 220.018125 
L 49.397542 220.018125 
" style="fill:none;stroke:#000000;stroke-linecap:square;"/>
   </g>
   <g id="line2d_34">
    <path clip-path="url(#pd8e2f0889e)" d="M 47.337712 188.447011 
L 48.907302 188.72372 
L 50.49041 189.002811 
L 52.086915 189.284265 
" style="fill:none;stroke:#000000;stroke-linecap:square;"/>
   </g>
   <g id="line2d_35">
    <path clip-path="url(#pd8e2f0889e)" d="M 55.541684 157.835169 
L 57.039369 158.380179 
L 58.549953 158.929882 
L 60.073321 159.484238 
" style="fill:none;stroke:#000000;stroke-linecap:square;"/>
   </g>
   <g id="line2d_36">
    <path clip-path="url(#pd8e2f0889e)" d="M 68.937717 129.112725 
L 70.317991 129.909476 
L 71.710152 130.713089 
L 73.114096 131.523502 
" style="fill:none;stroke:#000000;stroke-linecap:square;"/>
   </g>
   <g id="line2d_37">
    <path clip-path="url(#pd8e2f0889e)" d="M 87.118778 103.152396 
L 88.339702 104.176679 
L 89.571142 105.209783 
L 90.813003 106.251631 
" style="fill:none;stroke:#000000;stroke-linecap:square;"/>
   </g>
   <g id="line2d_38">
    <path clip-path="url(#pd8e2f0889e)" d="M 109.532447 80.742972 
L 110.556923 81.963665 
L 111.590224 83.194871 
L 112.632269 84.436497 
" style="fill:none;stroke:#000000;stroke-linecap:square;"/>
   </g>
   <g id="line2d_39">
    <path clip-path="url(#pd8e2f0889e)" d="M 135.497693 62.565354 
L 136.294595 63.945367 
L 137.09836 65.337265 
L 137.908927 66.740942 
" style="fill:none;stroke:#000000;stroke-linecap:square;"/>
   </g>
   <g id="line2d_40">
    <path clip-path="url(#pd8e2f0889e)" d="M 164.225578 49.171859 
L 164.770691 50.66926 
L 165.320498 52.179558 
L 165.874959 53.702637 
" style="fill:none;stroke:#000000;stroke-linecap:square;"/>
   </g>
   <g id="line2d_41">
    <path clip-path="url(#pd8e2f0889e)" d="M 194.843218 40.96944 
L 195.119979 42.538733 
L 195.399124 44.121541 
L 195.680631 45.717744 
" style="fill:none;stroke:#000000;stroke-linecap:square;"/>
   </g>
   <g id="line2d_42">
    <path clip-path="url(#pd8e2f0889e)" d="M 174.785316 198.685793 
L 173.655318 198.649825 
L 172.523966 198.688099 
L 171.395745 198.800676 
L 170.275153 198.987317 
L 169.166682 199.247486 
L 168.074803 199.580346 
L 167.003941 199.98476 
L 165.958463 200.459291 
L 164.942653 201.00221 
L 163.960694 201.611491 
L 163.016652 202.284829 
L 162.114452 203.019635 
L 161.257862 203.813056 
L 160.450476 204.661977 
L 159.695693 205.563038 
L 158.996703 206.512645 
L 158.356468 207.506984 
L 157.77771 208.54204 
L 157.262896 209.613611 
L 156.814224 210.717329 
L 156.433612 211.848678 
L 156.12269 213.003014 
L 155.882788 214.175589 
L 155.71493 215.361569 
L 155.619832 216.55606 
L 155.597892 217.754128 
L 155.649195 218.950824 
L 155.773508 220.141209 
L 155.970282 221.320371 
L 156.238655 222.483455 
L 156.577462 223.625679 
L 156.985232 224.742364 
L 157.460205 225.828946 
L 158.000335 226.881004 
L 158.603307 227.894275 
L 159.266543 228.864675 
L 159.98722 229.788317 
L 160.762282 230.661524 
L 161.588458 231.480846 
L 162.462276 232.243075 
L 163.380081 232.945253 
L 164.338054 233.584687 
L 165.332228 234.158955 
L 166.358507 234.665917 
L 167.412688 235.103717 
L 168.490476 235.470792 
L 169.587503 235.765872 
L 170.699352 235.987985 
L 171.821568 236.136457 
L 172.949684 236.210908 
L 174.079233 236.211255 
L 175.205769 236.137708 
L 176.324885 235.990761 
L 177.432225 235.771195 
L 178.523505 235.480065 
L 179.594527 235.118696 
L 180.641192 234.688674 
L 181.659516 234.19184 
L 182.645642 233.630276 
L 183.595853 233.0063 
L 184.506586 232.322452 
L 185.37444 231.581484 
L 186.196188 230.78635 
L 186.968787 229.940189 
L 187.689386 229.046321 
L 188.355334 228.108225 
L 188.964189 227.129535 
L 189.513727 226.114019 
L 190.00194 225.065571 
L 190.427052 223.988194 
L 190.787515 222.885989 
L 191.082019 221.76314 
L 191.309492 220.623898 
L 191.469106 219.472572 
L 191.560278 218.313508 
L 191.582668 217.151081 
L 191.536186 215.989676 
L 191.42099 214.833679 
L 191.237483 213.687455 
L 190.986317 212.555342 
L 190.668388 211.441631 
L 190.284835 210.350555 
L 189.837036 209.28627 
L 189.326607 208.252848 
L 188.755397 207.254257 
L 188.125481 206.29435 
L 187.439156 205.37685 
L 186.698936 204.505336 
L 185.907543 203.683233 
L 185.067901 202.913794 
L 184.183125 202.200089 
L 183.256515 201.544995 
L 182.291543 200.951179 
L 181.291844 200.421093 
L 180.261204 199.956954 
L 179.203547 199.560743 
L 178.122921 199.234188 
L 177.023489 198.978757 
L 175.909508 198.795651 
L 174.785316 198.685793 
" style="fill:none;stroke:#00008b;stroke-linecap:square;"/>
   </g>
   <g id="line2d_43">
    <path clip-path="url(#pd8e2f0889e)" d="M 175.800451 61.787079 
L 174.236829 59.089054 
L 172.398721 56.553213 
L 170.281134 54.195039 
L 167.880093 52.03086 
L 165.192874 50.077839 
L 163.246742 51.103914 
L 161.897035 54.42371 
L 160.35822 57.815254 
L 158.642312 61.272189 
L 156.760762 64.788433 
L 154.724488 68.358112 
L 152.543902 71.975512 
L 150.228944 75.635033 
L 147.789109 79.331148 
L 145.233474 83.058371 
L 142.570726 86.811228 
L 139.809187 90.58423 
L 136.956835 94.371851 
L 134.021327 98.168509 
L 131.010022 101.968545 
L 127.929992 105.766212 
L 124.788047 109.555653 
L 121.590746 113.330892 
L 118.344414 117.08582 
L 115.055153 120.814179 
L 111.72886 124.509549 
L 108.371235 128.165337 
L 104.987793 131.774762 
L 101.583878 135.330841 
L 98.164675 138.826373 
L 94.735218 142.25392 
L 91.300407 145.605798 
L 87.865015 148.874049 
L 84.433712 152.050425 
L 81.011068 155.126368 
L 77.601582 158.092982 
L 74.209695 160.94101 
L 70.839812 163.660805 
L 67.496335 166.242303 
L 64.183685 168.674988 
L 60.906342 170.947862 
L 57.668888 173.049405 
L 54.47605 174.967547 
L 51.332762 176.689624 
L 50.536976 178.740426 
L 52.786283 181.184856 
L 55.212496 183.320788 
L 57.798875 185.152901 
L 60.529654 186.68702 
L 63.390025 187.929882 
L 66.366093 188.888944 
L 69.444831 189.572211 
L 72.614024 189.988094 
L 75.862199 190.145292 
L 79.178568 190.052697 
L 82.552964 189.719312 
L 85.975775 189.154186 
L 89.437885 188.366368 
L 92.930624 187.364864 
L 96.445709 186.158609 
L 99.975197 184.756444 
L 103.511445 183.167103 
L 107.047064 181.399197 
L 110.574883 179.461215 
L 114.087917 177.361516 
L 117.579334 175.108331 
L 121.042431 172.709766 
L 124.470605 170.173807 
L 127.85733 167.508321 
L 131.19614 164.72107 
L 134.480609 161.819713 
L 137.70433 158.811816 
L 140.860904 155.704864 
L 143.943926 152.506265 
L 146.946967 149.223367 
L 149.863565 145.863466 
L 152.687214 142.433819 
L 155.411353 138.941653 
L 158.029357 135.394183 
L 160.534524 131.798626 
L 162.920075 128.162212 
L 165.179136 124.492205 
L 167.304742 120.79592 
L 169.289823 117.080742 
L 171.127206 113.354145 
L 172.809608 109.62372 
L 174.329633 105.897198 
L 175.679781 102.182478 
L 176.852443 98.487656 
L 177.839909 94.821062 
L 178.634383 91.19129 
L 179.227993 87.607246 
L 179.612813 84.078181 
L 179.780892 80.613745 
L 179.724288 77.224028 
L 179.435112 73.919618 
L 178.90559 70.711648 
L 178.128127 67.611856 
L 177.095399 64.632632 
L 175.800451 61.787079 
" style="fill:none;stroke:#00008b;stroke-linecap:square;"/>
   </g>
   <g id="line2d_44">
    <path clip-path="url(#pd8e2f0889e)" d="M 181.99431 255.819945 
L 181.385743 256.947442 
L 180.851782 258.114087 
L 180.394792 259.315375 
L 180.016842 260.546635 
L 179.719698 261.803041 
L 179.504807 263.079638 
L 179.373291 264.371353 
L 179.325939 265.673021 
L 179.363193 266.979403 
L 179.485149 268.28521 
L 179.691547 269.585125 
L 179.981775 270.873827 
L 180.35486 272.146014 
L 180.809474 273.396429 
L 181.343937 274.619882 
L 181.956217 275.811277 
L 182.643941 276.965635 
L 183.404403 278.078119 
L 184.234571 279.144059 
L 185.131103 280.158971 
L 186.090361 281.118583 
L 187.108424 282.018858 
L 188.181107 282.856007 
L 189.303983 283.626517 
L 190.472399 284.32716 
L 191.681503 284.955016 
L 192.926262 285.507483 
L 194.201491 285.982288 
L 195.501875 286.377504 
L 196.821995 286.691552 
L 198.156357 286.923209 
L 199.499415 287.071614 
L 200.845599 287.136271 
L 202.189341 287.117046 
L 203.525102 287.014168 
L 204.847398 286.828226 
L 206.150823 286.56016 
L 207.430076 286.211258 
L 208.679981 285.783145 
L 209.895514 285.27777 
L 211.071818 284.697398 
L 212.20423 284.044597 
L 213.288294 283.322218 
L 214.319778 282.533383 
L 215.294696 281.681471 
L 216.209315 280.770093 
L 217.06017 279.803081 
L 217.844077 278.784466 
L 218.55814 277.718459 
L 219.199762 276.609431 
L 219.766646 275.461895 
L 220.256809 274.280485 
L 220.668577 273.069939 
L 221.000592 271.835073 
L 221.251813 270.580769 
L 221.421516 269.311953 
L 221.509289 268.033572 
L 221.515036 266.750584 
L 221.43897 265.467934 
L 221.281606 264.190536 
L 221.043762 262.92326 
L 220.726549 261.670914 
L 220.331364 260.438227 
L 219.859885 259.229833 
L 219.31406 258.05026 
L 218.696099 256.903911 
L 218.008465 255.795056 
L 217.253866 254.727812 
L 216.43524 253.706137 
L 215.555747 252.733816 
L 214.618758 251.814446 
L 213.627843 250.951432 
L 212.586758 250.147972 
L 211.499431 249.407049 
L 210.369953 248.731422 
L 209.202565 248.123617 
L 208.001637 247.58592 
L 206.771665 247.120369 
L 205.517248 246.728747 
L 204.243079 246.412577 
L 202.953927 246.173114 
L 201.654626 246.011343 
L 200.350054 245.927973 
L 199.045123 245.923432 
L 197.744759 245.997868 
L 196.45389 246.151142 
L 195.177425 246.382828 
L 193.920242 246.692213 
L 192.687168 247.078297 
L 191.482964 247.539792 
L 190.312307 248.075125 
L 189.179774 248.68244 
L 188.089823 249.359601 
L 187.046778 250.1042 
L 186.05481 250.913554 
L 185.11792 251.784723 
L 184.239923 252.714508 
L 183.424433 253.699465 
L 182.674843 254.735912 
L 181.99431 255.819945 
" style="fill:none;stroke:#0000ff;stroke-linecap:square;"/>
   </g>
   <g id="line2d_45">
    <path clip-path="url(#pd8e2f0889e)" d="M 346.028161 345.911018 
L 347.425222 347.093709 
L 348.954519 348.114189 
L 350.613784 348.964107 
L 352.399917 349.635286 
L 353.458337 349.254503 
L 353.157622 347.220238 
L 352.988315 345.078093 
L 352.946627 342.836241 
L 353.028602 340.502678 
L 353.230152 338.08524 
L 353.547099 335.591608 
L 353.9752 333.029323 
L 354.510175 330.405797 
L 355.147729 327.728328 
L 355.883569 325.004113 
L 356.71342 322.24026 
L 357.633033 319.443802 
L 358.638204 316.62171 
L 359.72477 313.780903 
L 360.888624 310.928264 
L 362.125712 308.070647 
L 363.432042 305.214889 
L 364.803678 302.36782 
L 366.236746 299.536276 
L 367.727429 296.727099 
L 369.271965 293.947157 
L 370.866643 291.203342 
L 372.507801 288.502585 
L 374.191817 285.851855 
L 375.915104 283.258172 
L 377.674101 280.728608 
L 379.465267 278.270296 
L 381.285066 275.890427 
L 383.12996 273.596259 
L 384.996392 271.395118 
L 386.880777 269.294393 
L 388.779479 267.301543 
L 390.688802 265.424085 
L 392.604962 263.669597 
L 394.524072 262.045704 
L 396.442118 260.560071 
L 398.354933 259.220385 
L 400.258169 258.03434 
L 402.147274 257.009611 
L 404.017457 256.153823 
L 403.760412 255.058936 
L 402.22461 253.926793 
L 400.607973 252.998378 
L 398.919049 252.271839 
L 397.166079 251.744526 
L 395.356979 251.413097 
L 393.499336 251.273601 
L 391.600409 251.321566 
L 389.667133 251.552068 
L 387.706132 251.959805 
L 385.723733 252.53915 
L 383.72598 253.28421 
L 381.718654 254.188868 
L 379.707295 255.246824 
L 377.697215 256.451631 
L 375.693522 257.796726 
L 373.701138 259.27545 
L 371.724815 260.881076 
L 369.769157 262.606819 
L 367.838633 264.445858 
L 365.937594 266.391341 
L 364.070287 268.436398 
L 362.240868 270.574149 
L 360.453415 272.797704 
L 358.711938 275.100169 
L 357.020391 277.474652 
L 355.382675 279.914256 
L 353.802653 282.412083 
L 352.28415 284.961235 
L 350.830964 287.554804 
L 349.446864 290.185877 
L 348.135596 292.847527 
L 346.900886 295.532809 
L 345.746439 298.234756 
L 344.675936 300.946374 
L 343.693036 303.660636 
L 342.80137 306.37047 
L 342.004534 309.068762 
L 341.306088 311.748339 
L 340.70954 314.401969 
L 340.218339 317.022348 
L 339.835862 319.602098 
L 339.565399 322.133754 
L 339.410132 324.609763 
L 339.373116 327.022474 
L 339.457256 329.364135 
L 339.665276 331.626887 
L 339.999691 333.802764 
L 340.462767 335.883693 
L 341.056487 337.861492 
L 341.782503 339.727884 
L 342.642088 341.474499 
L 343.636084 343.092895 
L 344.764842 344.574575 
L 346.028161 345.911018 
" style="fill:none;stroke:#0000ff;stroke-linecap:square;"/>
   </g>
   <g id="line2d_46">
    <path clip-path="url(#pd8e2f0889e)" d="M 207.009683 273.803016 
L 206.936191 274.583709 
L 206.914302 275.368378 
L 206.94421 276.153923 
L 207.025905 276.937227 
L 207.159167 277.715167 
L 207.34357 278.484631 
L 207.578479 279.242527 
L 207.863053 279.985798 
L 208.196244 280.711435 
L 208.576803 281.416488 
L 209.003284 282.098082 
L 209.474043 282.753428 
L 209.987253 283.379836 
L 210.540903 283.974727 
L 211.132808 284.535646 
L 211.76062 285.060271 
L 212.421834 285.546426 
L 213.1138 285.992092 
L 213.833735 286.395416 
L 214.578731 286.754716 
L 215.345772 287.068495 
L 216.131745 287.335446 
L 216.933453 287.554457 
L 217.747633 287.724618 
L 218.570963 287.845223 
L 219.400086 287.915777 
L 220.231617 287.935996 
L 221.062165 287.905807 
L 221.888341 287.825353 
L 222.706782 287.694985 
L 223.514156 287.515267 
L 224.307185 287.286966 
L 225.082657 287.011056 
L 225.837436 286.688705 
L 226.568482 286.321276 
L 227.272859 285.910314 
L 227.94775 285.457543 
L 228.590468 284.964855 
L 229.198467 284.434302 
L 229.769351 283.868085 
L 230.300886 283.268545 
L 230.791005 282.63815 
L 231.237818 281.979488 
L 231.63962 281.295247 
L 231.994892 280.588214 
L 232.30231 279.861253 
L 232.560748 279.117296 
L 232.76928 278.359335 
L 232.927183 277.5904 
L 233.033939 276.813555 
L 233.089231 276.031881 
L 233.092951 275.248466 
L 233.045189 274.46639 
L 232.946239 273.688716 
L 232.796592 272.918477 
L 232.596932 272.158665 
L 232.348135 271.412218 
L 232.051261 270.682015 
L 231.707551 269.970858 
L 231.318421 269.281469 
L 230.885453 268.616475 
L 230.410391 267.978404 
L 229.895133 267.369674 
L 229.341721 266.792585 
L 228.752335 266.249311 
L 228.129285 265.741896 
L 227.475001 265.272244 
L 226.792023 264.842113 
L 226.082994 264.453114 
L 225.350648 264.106699 
L 224.597802 263.804164 
L 223.827346 263.546638 
L 223.04223 263.335084 
L 222.245459 263.170295 
L 221.440077 263.052892 
L 220.629159 262.983319 
L 219.815803 262.961844 
L 219.003114 262.988561 
L 218.194196 263.063382 
L 217.392144 263.186043 
L 216.600029 263.356105 
L 215.820887 263.57295 
L 215.057715 263.835787 
L 214.313452 264.143653 
L 213.590973 264.495414 
L 212.893079 264.889773 
L 212.222485 265.325266 
L 211.58181 265.800275 
L 210.973568 266.313028 
L 210.400159 266.861602 
L 209.863858 267.443935 
L 209.366805 268.057831 
L 208.911001 268.700963 
L 208.498293 269.370885 
L 208.130372 270.065038 
L 207.80876 270.780761 
L 207.534809 271.515297 
L 207.309687 272.265805 
L 207.134381 273.029371 
L 207.009683 273.803016 
" style="fill:none;stroke:#ff0000;stroke-linecap:square;"/>
   </g>
   <g id="line2d_47">
    <path clip-path="url(#pd8e2f0889e)" d="M 184.12872 390.621072 
L 183.973041 391.560709 
L 183.928584 392.518682 
L 183.997143 393.49142 
L 184.180094 394.475134 
L 184.47837 395.46583 
L 184.892425 396.459317 
L 185.555375 396.874877 
L 186.559618 396.259435 
L 187.648873 395.683723 
L 188.818449 395.148789 
L 190.063535 394.655521 
L 191.379215 394.204664 
L 192.760486 393.796829 
L 194.202266 393.432504 
L 195.699409 393.112062 
L 197.24671 392.835774 
L 198.838921 392.603819 
L 200.470749 392.416285 
L 202.136873 392.273184 
L 203.831943 392.174454 
L 205.550588 392.119966 
L 207.28742 392.109529 
L 209.037041 392.142891 
L 210.794044 392.219749 
L 212.553018 392.339744 
L 214.308554 392.502466 
L 216.055245 392.707456 
L 217.787695 392.954201 
L 219.500516 393.242138 
L 221.188339 393.570652 
L 222.845816 393.939071 
L 224.467624 394.346662 
L 226.048472 394.792633 
L 227.583108 395.276121 
L 229.066324 395.796191 
L 230.492966 396.351831 
L 231.857939 396.94194 
L 233.156224 397.565326 
L 234.382883 398.220696 
L 235.533073 398.906646 
L 236.602062 399.621658 
L 237.585242 400.364082 
L 238.478151 401.132136 
L 239.199025 400.827895 
L 239.766624 399.913375 
L 240.219486 398.983103 
L 240.557392 398.041287 
L 240.78062 397.092022 
L 240.889927 396.139266 
L 240.886509 395.186831 
L 240.771978 394.238374 
L 240.54833 393.297389 
L 240.217913 392.367203 
L 239.783401 391.450973 
L 239.247768 390.551685 
L 238.614257 389.67216 
L 237.886359 388.815049 
L 237.067787 387.982846 
L 236.16246 387.177883 
L 235.174473 386.402344 
L 234.108088 385.658264 
L 232.967709 384.947541 
L 231.757872 384.271937 
L 230.483228 383.633087 
L 229.148528 383.032504 
L 227.758613 382.471586 
L 226.318405 381.951621 
L 224.832891 381.473791 
L 223.307119 381.039179 
L 221.746189 380.648771 
L 220.155243 380.30346 
L 218.539461 380.00405 
L 216.90405 379.75126 
L 215.254243 379.545721 
L 213.595289 379.387981 
L 211.932452 379.278507 
L 210.271 379.217679 
L 208.616202 379.205795 
L 206.973326 379.243069 
L 205.347626 379.329624 
L 203.744345 379.465494 
L 202.168701 379.650619 
L 200.625886 379.884841 
L 199.121055 380.167899 
L 197.659323 380.499422 
L 196.245752 380.878926 
L 194.885345 381.305806 
L 193.583034 381.779326 
L 192.343672 382.298616 
L 191.172018 382.862661 
L 190.072723 383.470293 
L 189.050318 384.120184 
L 188.109198 384.810833 
L 187.253601 385.540562 
L 186.487593 386.307506 
L 185.815044 387.109604 
L 185.239606 387.944591 
L 184.764692 388.809994 
L 184.393446 389.703124 
L 184.12872 390.621072 
" style="fill:none;stroke:#ff0000;stroke-linecap:square;"/>
   </g>
   <g id="text_1">
    <!-- Overprint Directions - GEOGRAPHIC COORDS. -->
    <defs>
     <path id="BitstreamVeraSans-Roman-20"/>
     <path d="M 59.515625 10.40625 
L 59.515625 29.984375 
L 43.40625 29.984375 
L 43.40625 38.09375 
L 69.28125 38.09375 
L 69.28125 6.78125 
Q 63.578125 2.734375 56.6875 0.65625 
Q 49.8125 -1.421875 42 -1.421875 
Q 24.90625 -1.421875 15.25 8.5625 
Q 5.609375 18.5625 5.609375 36.375 
Q 5.609375 54.25 15.25 64.234375 
Q 24.90625 74.21875 42 74.21875 
Q 49.125 74.21875 55.546875 72.453125 
Q 61.96875 70.703125 67.390625 67.28125 
L 67.390625 56.78125 
Q 61.921875 61.421875 55.765625 63.765625 
Q 49.609375 66.109375 42.828125 66.109375 
Q 29.4375 66.109375 22.71875 58.640625 
Q 16.015625 51.171875 16.015625 36.375 
Q 16.015625 21.625 22.71875 14.15625 
Q 29.4375 6.6875 42.828125 6.6875 
Q 48.046875 6.6875 52.140625 7.59375 
Q 56.25 8.5 59.515625 10.40625 
" id="BitstreamVeraSans-Roman-47"/>
     <path d="M 9.8125 72.90625 
L 55.90625 72.90625 
L 55.90625 64.59375 
L 19.671875 64.59375 
L 19.671875 43.015625 
L 54.390625 43.015625 
L 54.390625 34.71875 
L 19.671875 34.71875 
L 19.671875 8.296875 
L 56.78125 8.296875 
L 56.78125 0 
L 9.8125 0 
z
" id="BitstreamVeraSans-Roman-45"/>
     <path d="M 19.671875 64.796875 
L 19.671875 8.109375 
L 31.59375 8.109375 
Q 46.6875 8.109375 53.6875 14.9375 
Q 60.6875 21.78125 60.6875 36.53125 
Q 60.6875 51.171875 53.6875 57.984375 
Q 46.6875 64.796875 31.59375 64.796875 
z
M 9.8125 72.90625 
L 30.078125 72.90625 
Q 51.265625 72.90625 61.171875 64.09375 
Q 71.09375 55.28125 71.09375 36.53125 
Q 71.09375 17.671875 61.125 8.828125 
Q 51.171875 0 30.078125 0 
L 9.8125 0 
z
" id="BitstreamVeraSans-Roman-44"/>
     <path d="M 9.421875 54.6875 
L 18.40625 54.6875 
L 18.40625 0 
L 9.421875 0 
z
M 9.421875 75.984375 
L 18.40625 75.984375 
L 18.40625 64.59375 
L 9.421875 64.59375 
z
" id="BitstreamVeraSans-Roman-69"/>
     <path d="M 34.1875 63.1875 
L 20.796875 26.90625 
L 47.609375 26.90625 
z
M 28.609375 72.90625 
L 39.796875 72.90625 
L 67.578125 0 
L 57.328125 0 
L 50.6875 18.703125 
L 17.828125 18.703125 
L 11.1875 0 
L 0.78125 0 
z
" id="BitstreamVeraSans-Roman-41"/>
     <path d="M 56.203125 29.59375 
L 56.203125 25.203125 
L 14.890625 25.203125 
Q 15.484375 15.921875 20.484375 11.0625 
Q 25.484375 6.203125 34.421875 6.203125 
Q 39.59375 6.203125 44.453125 7.46875 
Q 49.3125 8.734375 54.109375 11.28125 
L 54.109375 2.78125 
Q 49.265625 0.734375 44.1875 -0.34375 
Q 39.109375 -1.421875 33.890625 -1.421875 
Q 20.796875 -1.421875 13.15625 6.1875 
Q 5.515625 13.8125 5.515625 26.8125 
Q 5.515625 40.234375 12.765625 48.109375 
Q 20.015625 56 32.328125 56 
Q 43.359375 56 49.78125 48.890625 
Q 56.203125 41.796875 56.203125 29.59375 
M 47.21875 32.234375 
Q 47.125 39.59375 43.09375 43.984375 
Q 39.0625 48.390625 32.421875 48.390625 
Q 24.90625 48.390625 20.390625 44.140625 
Q 15.875 39.890625 15.1875 32.171875 
z
" id="BitstreamVeraSans-Roman-65"/>
     <path d="M 9.8125 72.90625 
L 19.671875 72.90625 
L 19.671875 0 
L 9.8125 0 
z
" id="BitstreamVeraSans-Roman-49"/>
     <path d="M 9.8125 72.90625 
L 19.671875 72.90625 
L 19.671875 43.015625 
L 55.515625 43.015625 
L 55.515625 72.90625 
L 65.375 72.90625 
L 65.375 0 
L 55.515625 0 
L 55.515625 34.71875 
L 19.671875 34.71875 
L 19.671875 0 
L 9.8125 0 
z
" id="BitstreamVeraSans-Roman-48"/>
     <path d="M 48.78125 52.59375 
L 48.78125 44.1875 
Q 44.96875 46.296875 41.140625 47.34375 
Q 37.3125 48.390625 33.40625 48.390625 
Q 24.65625 48.390625 19.8125 42.84375 
Q 14.984375 37.3125 14.984375 27.296875 
Q 14.984375 17.28125 19.8125 11.734375 
Q 24.65625 6.203125 33.40625 6.203125 
Q 37.3125 6.203125 41.140625 7.25 
Q 44.96875 8.296875 48.78125 10.40625 
L 48.78125 2.09375 
Q 45.015625 0.34375 40.984375 -0.53125 
Q 36.96875 -1.421875 32.421875 -1.421875 
Q 20.0625 -1.421875 12.78125 6.34375 
Q 5.515625 14.109375 5.515625 27.296875 
Q 5.515625 40.671875 12.859375 48.328125 
Q 20.21875 56 33.015625 56 
Q 37.15625 56 41.109375 55.140625 
Q 45.0625 54.296875 48.78125 52.59375 
" id="BitstreamVeraSans-Roman-63"/>
     <path d="M 39.40625 66.21875 
Q 28.65625 66.21875 22.328125 58.203125 
Q 16.015625 50.203125 16.015625 36.375 
Q 16.015625 22.609375 22.328125 14.59375 
Q 28.65625 6.59375 39.40625 6.59375 
Q 50.140625 6.59375 56.421875 14.59375 
Q 62.703125 22.609375 62.703125 36.375 
Q 62.703125 50.203125 56.421875 58.203125 
Q 50.140625 66.21875 39.40625 66.21875 
M 39.40625 74.21875 
Q 54.734375 74.21875 63.90625 63.9375 
Q 73.09375 53.65625 73.09375 36.375 
Q 73.09375 19.140625 63.90625 8.859375 
Q 54.734375 -1.421875 39.40625 -1.421875 
Q 24.03125 -1.421875 14.8125 8.828125 
Q 5.609375 19.09375 5.609375 36.375 
Q 5.609375 53.65625 14.8125 63.9375 
Q 24.03125 74.21875 39.40625 74.21875 
" id="BitstreamVeraSans-Roman-4f"/>
     <path d="M 54.890625 33.015625 
L 54.890625 0 
L 45.90625 0 
L 45.90625 32.71875 
Q 45.90625 40.484375 42.875 44.328125 
Q 39.84375 48.1875 33.796875 48.1875 
Q 26.515625 48.1875 22.3125 43.546875 
Q 18.109375 38.921875 18.109375 30.90625 
L 18.109375 0 
L 9.078125 0 
L 9.078125 54.6875 
L 18.109375 54.6875 
L 18.109375 46.1875 
Q 21.34375 51.125 25.703125 53.5625 
Q 30.078125 56 35.796875 56 
Q 45.21875 56 50.046875 50.171875 
Q 54.890625 44.34375 54.890625 33.015625 
" id="BitstreamVeraSans-Roman-6e"/>
     <path d="M 30.609375 48.390625 
Q 23.390625 48.390625 19.1875 42.75 
Q 14.984375 37.109375 14.984375 27.296875 
Q 14.984375 17.484375 19.15625 11.84375 
Q 23.34375 6.203125 30.609375 6.203125 
Q 37.796875 6.203125 41.984375 11.859375 
Q 46.1875 17.53125 46.1875 27.296875 
Q 46.1875 37.015625 41.984375 42.703125 
Q 37.796875 48.390625 30.609375 48.390625 
M 30.609375 56 
Q 42.328125 56 49.015625 48.375 
Q 55.71875 40.765625 55.71875 27.296875 
Q 55.71875 13.875 49.015625 6.21875 
Q 42.328125 -1.421875 30.609375 -1.421875 
Q 18.84375 -1.421875 12.171875 6.21875 
Q 5.515625 13.875 5.515625 27.296875 
Q 5.515625 40.765625 12.171875 48.375 
Q 18.84375 56 30.609375 56 
" id="BitstreamVeraSans-Roman-6f"/>
     <path d="M 19.671875 64.796875 
L 19.671875 37.40625 
L 32.078125 37.40625 
Q 38.96875 37.40625 42.71875 40.96875 
Q 46.484375 44.53125 46.484375 51.125 
Q 46.484375 57.671875 42.71875 61.234375 
Q 38.96875 64.796875 32.078125 64.796875 
z
M 9.8125 72.90625 
L 32.078125 72.90625 
Q 44.34375 72.90625 50.609375 67.359375 
Q 56.890625 61.8125 56.890625 51.125 
Q 56.890625 40.328125 50.609375 34.8125 
Q 44.34375 29.296875 32.078125 29.296875 
L 19.671875 29.296875 
L 19.671875 0 
L 9.8125 0 
z
" id="BitstreamVeraSans-Roman-50"/>
     <path d="M 44.390625 34.1875 
Q 47.5625 33.109375 50.5625 29.59375 
Q 53.5625 26.078125 56.59375 19.921875 
L 66.609375 0 
L 56 0 
L 46.6875 18.703125 
Q 43.0625 26.03125 39.671875 28.421875 
Q 36.28125 30.8125 30.421875 30.8125 
L 19.671875 30.8125 
L 19.671875 0 
L 9.8125 0 
L 9.8125 72.90625 
L 32.078125 72.90625 
Q 44.578125 72.90625 50.734375 67.671875 
Q 56.890625 62.453125 56.890625 51.90625 
Q 56.890625 45.015625 53.6875 40.46875 
Q 50.484375 35.9375 44.390625 34.1875 
M 19.671875 64.796875 
L 19.671875 38.921875 
L 32.078125 38.921875 
Q 39.203125 38.921875 42.84375 42.21875 
Q 46.484375 45.515625 46.484375 51.90625 
Q 46.484375 58.296875 42.84375 61.546875 
Q 39.203125 64.796875 32.078125 64.796875 
z
" id="BitstreamVeraSans-Roman-52"/>
     <path d="M 53.515625 70.515625 
L 53.515625 60.890625 
Q 47.90625 63.578125 42.921875 64.890625 
Q 37.9375 66.21875 33.296875 66.21875 
Q 25.25 66.21875 20.875 63.09375 
Q 16.5 59.96875 16.5 54.203125 
Q 16.5 49.359375 19.40625 46.890625 
Q 22.3125 44.4375 30.421875 42.921875 
L 36.375 41.703125 
Q 47.40625 39.59375 52.65625 34.296875 
Q 57.90625 29 57.90625 20.125 
Q 57.90625 9.515625 50.796875 4.046875 
Q 43.703125 -1.421875 29.984375 -1.421875 
Q 24.8125 -1.421875 18.96875 -0.25 
Q 13.140625 0.921875 6.890625 3.21875 
L 6.890625 13.375 
Q 12.890625 10.015625 18.65625 8.296875 
Q 24.421875 6.59375 29.984375 6.59375 
Q 38.421875 6.59375 43.015625 9.90625 
Q 47.609375 13.234375 47.609375 19.390625 
Q 47.609375 24.75 44.3125 27.78125 
Q 41.015625 30.8125 33.5 32.328125 
L 27.484375 33.5 
Q 16.453125 35.6875 11.515625 40.375 
Q 6.59375 45.0625 6.59375 53.421875 
Q 6.59375 63.09375 13.40625 68.65625 
Q 20.21875 74.21875 32.171875 74.21875 
Q 37.3125 74.21875 42.625 73.28125 
Q 47.953125 72.359375 53.515625 70.515625 
" id="BitstreamVeraSans-Roman-53"/>
     <path d="M 10.6875 12.40625 
L 21 12.40625 
L 21 0 
L 10.6875 0 
z
" id="BitstreamVeraSans-Roman-2e"/>
     <path d="M 4.890625 31.390625 
L 31.203125 31.390625 
L 31.203125 23.390625 
L 4.890625 23.390625 
z
" id="BitstreamVeraSans-Roman-2d"/>
     <path d="M 2.984375 54.6875 
L 12.5 54.6875 
L 29.59375 8.796875 
L 46.6875 54.6875 
L 56.203125 54.6875 
L 35.6875 0 
L 23.484375 0 
z
" id="BitstreamVeraSans-Roman-76"/>
     <path d="M 18.3125 70.21875 
L 18.3125 54.6875 
L 36.8125 54.6875 
L 36.8125 47.703125 
L 18.3125 47.703125 
L 18.3125 18.015625 
Q 18.3125 11.328125 20.140625 9.421875 
Q 21.96875 7.515625 27.59375 7.515625 
L 36.8125 7.515625 
L 36.8125 0 
L 27.59375 0 
Q 17.1875 0 13.234375 3.875 
Q 9.28125 7.765625 9.28125 18.015625 
L 9.28125 47.703125 
L 2.6875 47.703125 
L 2.6875 54.6875 
L 9.28125 54.6875 
L 9.28125 70.21875 
z
" id="BitstreamVeraSans-Roman-74"/>
     <path d="M 41.109375 46.296875 
Q 39.59375 47.171875 37.8125 47.578125 
Q 36.03125 48 33.890625 48 
Q 26.265625 48 22.1875 43.046875 
Q 18.109375 38.09375 18.109375 28.8125 
L 18.109375 0 
L 9.078125 0 
L 9.078125 54.6875 
L 18.109375 54.6875 
L 18.109375 46.1875 
Q 20.953125 51.171875 25.484375 53.578125 
Q 30.03125 56 36.53125 56 
Q 37.453125 56 38.578125 55.875 
Q 39.703125 55.765625 41.0625 55.515625 
z
" id="BitstreamVeraSans-Roman-72"/>
     <path d="M 44.28125 53.078125 
L 44.28125 44.578125 
Q 40.484375 46.53125 36.375 47.5 
Q 32.28125 48.484375 27.875 48.484375 
Q 21.1875 48.484375 17.84375 46.4375 
Q 14.5 44.390625 14.5 40.28125 
Q 14.5 37.15625 16.890625 35.375 
Q 19.28125 33.59375 26.515625 31.984375 
L 29.59375 31.296875 
Q 39.15625 29.25 43.1875 25.515625 
Q 47.21875 21.78125 47.21875 15.09375 
Q 47.21875 7.46875 41.1875 3.015625 
Q 35.15625 -1.421875 24.609375 -1.421875 
Q 20.21875 -1.421875 15.453125 -0.5625 
Q 10.6875 0.296875 5.421875 2 
L 5.421875 11.28125 
Q 10.40625 8.6875 15.234375 7.390625 
Q 20.0625 6.109375 24.8125 6.109375 
Q 31.15625 6.109375 34.5625 8.28125 
Q 37.984375 10.453125 37.984375 14.40625 
Q 37.984375 18.0625 35.515625 20.015625 
Q 33.0625 21.96875 24.703125 23.78125 
L 21.578125 24.515625 
Q 13.234375 26.265625 9.515625 29.90625 
Q 5.8125 33.546875 5.8125 39.890625 
Q 5.8125 47.609375 11.28125 51.796875 
Q 16.75 56 26.8125 56 
Q 31.78125 56 36.171875 55.265625 
Q 40.578125 54.546875 44.28125 53.078125 
" id="BitstreamVeraSans-Roman-73"/>
     <path d="M 18.109375 8.203125 
L 18.109375 -20.796875 
L 9.078125 -20.796875 
L 9.078125 54.6875 
L 18.109375 54.6875 
L 18.109375 46.390625 
Q 20.953125 51.265625 25.265625 53.625 
Q 29.59375 56 35.59375 56 
Q 45.5625 56 51.78125 48.09375 
Q 58.015625 40.1875 58.015625 27.296875 
Q 58.015625 14.40625 51.78125 6.484375 
Q 45.5625 -1.421875 35.59375 -1.421875 
Q 29.59375 -1.421875 25.265625 0.953125 
Q 20.953125 3.328125 18.109375 8.203125 
M 48.6875 27.296875 
Q 48.6875 37.203125 44.609375 42.84375 
Q 40.53125 48.484375 33.40625 48.484375 
Q 26.265625 48.484375 22.1875 42.84375 
Q 18.109375 37.203125 18.109375 27.296875 
Q 18.109375 17.390625 22.1875 11.75 
Q 26.265625 6.109375 33.40625 6.109375 
Q 40.53125 6.109375 44.609375 11.75 
Q 48.6875 17.390625 48.6875 27.296875 
" id="BitstreamVeraSans-Roman-70"/>
     <path d="M 64.40625 67.28125 
L 64.40625 56.890625 
Q 59.421875 61.53125 53.78125 63.8125 
Q 48.140625 66.109375 41.796875 66.109375 
Q 29.296875 66.109375 22.65625 58.46875 
Q 16.015625 50.828125 16.015625 36.375 
Q 16.015625 21.96875 22.65625 14.328125 
Q 29.296875 6.6875 41.796875 6.6875 
Q 48.140625 6.6875 53.78125 8.984375 
Q 59.421875 11.28125 64.40625 15.921875 
L 64.40625 5.609375 
Q 59.234375 2.09375 53.4375 0.328125 
Q 47.65625 -1.421875 41.21875 -1.421875 
Q 24.65625 -1.421875 15.125 8.703125 
Q 5.609375 18.84375 5.609375 36.375 
Q 5.609375 53.953125 15.125 64.078125 
Q 24.65625 74.21875 41.21875 74.21875 
Q 47.75 74.21875 53.53125 72.484375 
Q 59.328125 70.75 64.40625 67.28125 
" id="BitstreamVeraSans-Roman-43"/>
    </defs>
    <g transform="translate(89.424375 16.318125)scale(0.12 -0.12)">
     <use xlink:href="#BitstreamVeraSans-Roman-4f"/>
     <use x="78.7109375" xlink:href="#BitstreamVeraSans-Roman-76"/>
     <use x="137.890625" xlink:href="#BitstreamVeraSans-Roman-65"/>
     <use x="199.4140625" xlink:href="#BitstreamVeraSans-Roman-72"/>
     <use x="240.52734375" xlink:href="#BitstreamVeraSans-Roman-70"/>
     <use x="304.00390625" xlink:href="#BitstreamVeraSans-Roman-72"/>
     <use x="345.1171875" xlink:href="#BitstreamVeraSans-Roman-69"/>
     <use x="372.900390625" xlink:href="#BitstreamVeraSans-Roman-6e"/>
     <use x="436.279296875" xlink:href="#BitstreamVeraSans-Roman-74"/>
     <use x="475.48828125" xlink:href="#BitstreamVeraSans-Roman-20"/>
     <use x="507.275390625" xlink:href="#BitstreamVeraSans-Roman-44"/>
     <use x="584.27734375" xlink:href="#BitstreamVeraSans-Roman-69"/>
     <use x="612.060546875" xlink:href="#BitstreamVeraSans-Roman-72"/>
     <use x="653.142578125" xlink:href="#BitstreamVeraSans-Roman-65"/>
     <use x="714.666015625" xlink:href="#BitstreamVeraSans-Roman-63"/>
     <use x="769.646484375" xlink:href="#BitstreamVeraSans-Roman-74"/>
     <use x="808.85546875" xlink:href="#BitstreamVeraSans-Roman-69"/>
     <use x="836.638671875" xlink:href="#BitstreamVeraSans-Roman-6f"/>
     <use x="897.8203125" xlink:href="#BitstreamVeraSans-Roman-6e"/>
     <use x="961.19921875" xlink:href="#BitstreamVeraSans-Roman-73"/>
     <use x="1013.29882812" xlink:href="#BitstreamVeraSans-Roman-20"/>
     <use x="1045.0859375" xlink:href="#BitstreamVeraSans-Roman-2d"/>
     <use x="1081.16992188" xlink:href="#BitstreamVeraSans-Roman-20"/>
     <use x="1112.95703125" xlink:href="#BitstreamVeraSans-Roman-47"/>
     <use x="1190.44726562" xlink:href="#BitstreamVeraSans-Roman-45"/>
     <use x="1253.63085938" xlink:href="#BitstreamVeraSans-Roman-4f"/>
     <use x="1332.34179688" xlink:href="#BitstreamVeraSans-Roman-47"/>
     <use x="1409.83203125" xlink:href="#BitstreamVeraSans-Roman-52"/>
     <use x="1479.25195312" xlink:href="#BitstreamVeraSans-Roman-41"/>
     <use x="1547.66015625" xlink:href="#BitstreamVeraSans-Roman-50"/>
     <use x="1607.96289062" xlink:href="#BitstreamVeraSans-Roman-48"/>
     <use x="1683.15820312" xlink:href="#BitstreamVeraSans-Roman-49"/>
     <use x="1712.65039062" xlink:href="#BitstreamVeraSans-Roman-43"/>
     <use x="1782.47460938" xlink:href="#BitstreamVeraSans-Roman-20"/>
     <use x="1814.26171875" xlink:href="#BitstreamVeraSans-Roman-43"/>
     <use x="1884.0859375" xlink:href="#BitstreamVeraSans-Roman-4f"/>
     <use x="1962.796875" xlink:href="#BitstreamVeraSans-Roman-4f"/>
     <use x="2041.5078125" xlink:href="#BitstreamVeraSans-Roman-52"/>
     <use x="2110.99023438" xlink:href="#BitstreamVeraSans-Roman-44"/>
     <use x="2187.9921875" xlink:href="#BitstreamVeraSans-Roman-53"/>
     <use x="2251.46875" xlink:href="#BitstreamVeraSans-Roman-2e"/>
    </g>
   </g>
   <g id="legend_1">
    <g id="patch_2">
     <path d="M 264.607812 200.148125 
L 376.183437 200.148125 
L 376.183437 88.863125 
L 264.607812 88.863125 
z
" style="fill:#ffffff;stroke:#000000;stroke-linejoin:miter;"/>
    </g>
    <g id="PathCollection_7">
     <path d="M 273.007812 100.749284 
C 273.304319 100.749284 273.58872 100.631481 273.798382 100.421819 
C 274.008043 100.212158 274.125846 99.927756 274.125846 99.63125 
C 274.125846 99.334744 274.008043 99.050342 273.798382 98.840681 
C 273.58872 98.631019 273.304319 98.513216 273.007812 98.513216 
C 272.711306 98.513216 272.426905 98.631019 272.217243 98.840681 
C 272.007582 99.050342 271.889779 99.334744 271.889779 99.63125 
C 271.889779 99.927756 272.007582 100.212158 272.217243 100.421819 
C 272.426905 100.631481 272.711306 100.749284 273.007812 100.749284 
z
" style="fill:#ffffff;stroke:#00008b;"/>
     <path d="M 281.407812 99.699284 
C 281.704319 99.699284 281.98872 99.581481 282.198382 99.371819 
C 282.408043 99.162158 282.525846 98.877756 282.525846 98.58125 
C 282.525846 98.284744 282.408043 98.000342 282.198382 97.790681 
C 281.98872 97.581019 281.704319 97.463216 281.407812 97.463216 
C 281.111306 97.463216 280.826905 97.581019 280.617243 97.790681 
C 280.407582 98.000342 280.289779 98.284744 280.289779 98.58125 
C 280.289779 98.877756 280.407582 99.162158 280.617243 99.371819 
C 280.826905 99.581481 281.111306 99.699284 281.407812 99.699284 
z
" style="fill:#ffffff;stroke:#00008b;"/>
     <path d="M 289.807812 101.274284 
C 290.104319 101.274284 290.38872 101.156481 290.598382 100.946819 
C 290.808043 100.737158 290.925846 100.452756 290.925846 100.15625 
C 290.925846 99.859744 290.808043 99.575342 290.598382 99.365681 
C 290.38872 99.156019 290.104319 99.038216 289.807812 99.038216 
C 289.511306 99.038216 289.226905 99.156019 289.017243 99.365681 
C 288.807582 99.575342 288.689779 99.859744 288.689779 100.15625 
C 288.689779 100.452756 288.807582 100.737158 289.017243 100.946819 
C 289.226905 101.156481 289.511306 101.274284 289.807812 101.274284 
z
" style="fill:#ffffff;stroke:#00008b;"/>
    </g>
    <g id="text_2">
     <!-- Lev10_INT -->
     <defs>
      <path d="M 31.78125 66.40625 
Q 24.171875 66.40625 20.328125 58.90625 
Q 16.5 51.421875 16.5 36.375 
Q 16.5 21.390625 20.328125 13.890625 
Q 24.171875 6.390625 31.78125 6.390625 
Q 39.453125 6.390625 43.28125 13.890625 
Q 47.125 21.390625 47.125 36.375 
Q 47.125 51.421875 43.28125 58.90625 
Q 39.453125 66.40625 31.78125 66.40625 
M 31.78125 74.21875 
Q 44.046875 74.21875 50.515625 64.515625 
Q 56.984375 54.828125 56.984375 36.375 
Q 56.984375 17.96875 50.515625 8.265625 
Q 44.046875 -1.421875 31.78125 -1.421875 
Q 19.53125 -1.421875 13.0625 8.265625 
Q 6.59375 17.96875 6.59375 36.375 
Q 6.59375 54.828125 13.0625 64.515625 
Q 19.53125 74.21875 31.78125 74.21875 
" id="BitstreamVeraSans-Roman-30"/>
      <path d="M 12.40625 8.296875 
L 28.515625 8.296875 
L 28.515625 63.921875 
L 10.984375 60.40625 
L 10.984375 69.390625 
L 28.421875 72.90625 
L 38.28125 72.90625 
L 38.28125 8.296875 
L 54.390625 8.296875 
L 54.390625 0 
L 12.40625 0 
z
" id="BitstreamVeraSans-Roman-31"/>
      <path d="M 9.8125 72.90625 
L 19.671875 72.90625 
L 19.671875 8.296875 
L 55.171875 8.296875 
L 55.171875 0 
L 9.8125 0 
z
" id="BitstreamVeraSans-Roman-4c"/>
      <path d="M 50.984375 -16.609375 
L 50.984375 -23.578125 
L -0.984375 -23.578125 
L -0.984375 -16.609375 
z
" id="BitstreamVeraSans-Roman-5f"/>
      <path d="M 9.8125 72.90625 
L 23.09375 72.90625 
L 55.421875 11.921875 
L 55.421875 72.90625 
L 64.984375 72.90625 
L 64.984375 0 
L 51.703125 0 
L 19.390625 60.984375 
L 19.390625 0 
L 9.8125 0 
z
" id="BitstreamVeraSans-Roman-4e"/>
      <path d="M -0.296875 72.90625 
L 61.375 72.90625 
L 61.375 64.59375 
L 35.5 64.59375 
L 35.5 0 
L 25.59375 0 
L 25.59375 64.59375 
L -0.296875 64.59375 
z
" id="BitstreamVeraSans-Roman-54"/>
     </defs>
     <g transform="translate(303.0078125 102.78125)scale(0.12 -0.12)">
      <use xlink:href="#BitstreamVeraSans-Roman-4c"/>
      <use x="55.697265625" xlink:href="#BitstreamVeraSans-Roman-65"/>
      <use x="117.220703125" xlink:href="#BitstreamVeraSans-Roman-76"/>
      <use x="176.400390625" xlink:href="#BitstreamVeraSans-Roman-31"/>
      <use x="240.0234375" xlink:href="#BitstreamVeraSans-Roman-30"/>
      <use x="303.646484375" xlink:href="#BitstreamVeraSans-Roman-5f"/>
      <use x="353.646484375" xlink:href="#BitstreamVeraSans-Roman-49"/>
      <use x="383.138671875" xlink:href="#BitstreamVeraSans-Roman-4e"/>
      <use x="457.943359375" xlink:href="#BitstreamVeraSans-Roman-54"/>
     </g>
    </g>
    <g id="PathCollection_8">
     <path d="M 270.771745 119.814818 
L 275.24388 119.814818 
L 275.24388 115.342682 
L 270.771745 115.342682 
z
" style="fill:#ffffff;stroke:#00008b;"/>
     <path d="M 279.171745 118.764818 
L 283.64388 118.764818 
L 283.64388 114.292682 
L 279.171745 114.292682 
z
" style="fill:#ffffff;stroke:#00008b;"/>
     <path d="M 287.571745 120.339818 
L 292.04388 120.339818 
L 292.04388 115.867682 
L 287.571745 115.867682 
z
" style="fill:#ffffff;stroke:#00008b;"/>
    </g>
    <g id="text_3">
     <!-- Lev10_HT -->
     <g transform="translate(303.0078125 120.72875)scale(0.12 -0.12)">
      <use xlink:href="#BitstreamVeraSans-Roman-4c"/>
      <use x="55.697265625" xlink:href="#BitstreamVeraSans-Roman-65"/>
      <use x="117.220703125" xlink:href="#BitstreamVeraSans-Roman-76"/>
      <use x="176.400390625" xlink:href="#BitstreamVeraSans-Roman-31"/>
      <use x="240.0234375" xlink:href="#BitstreamVeraSans-Roman-30"/>
      <use x="303.646484375" xlink:href="#BitstreamVeraSans-Roman-5f"/>
      <use x="353.646484375" xlink:href="#BitstreamVeraSans-Roman-48"/>
      <use x="428.841796875" xlink:href="#BitstreamVeraSans-Roman-54"/>
     </g>
    </g>
    <g id="PathCollection_9">
     <path d="M 273.007812 133.290182 
L 270.771745 137.762318 
L 275.24388 137.762318 
z
" style="fill:#ffffff;stroke:#0000ff;"/>
     <path d="M 281.407812 132.240182 
L 279.171745 136.712318 
L 283.64388 136.712318 
z
" style="fill:#ffffff;stroke:#0000ff;"/>
     <path d="M 289.807812 133.815182 
L 287.571745 138.287318 
L 292.04388 138.287318 
z
" style="fill:#ffffff;stroke:#0000ff;"/>
    </g>
    <g id="text_4">
     <!-- Krav01_INT -->
     <defs>
      <path d="M 34.28125 27.484375 
Q 23.390625 27.484375 19.1875 25 
Q 14.984375 22.515625 14.984375 16.5 
Q 14.984375 11.71875 18.140625 8.90625 
Q 21.296875 6.109375 26.703125 6.109375 
Q 34.1875 6.109375 38.703125 11.40625 
Q 43.21875 16.703125 43.21875 25.484375 
L 43.21875 27.484375 
z
M 52.203125 31.203125 
L 52.203125 0 
L 43.21875 0 
L 43.21875 8.296875 
Q 40.140625 3.328125 35.546875 0.953125 
Q 30.953125 -1.421875 24.3125 -1.421875 
Q 15.921875 -1.421875 10.953125 3.296875 
Q 6 8.015625 6 15.921875 
Q 6 25.140625 12.171875 29.828125 
Q 18.359375 34.515625 30.609375 34.515625 
L 43.21875 34.515625 
L 43.21875 35.40625 
Q 43.21875 41.609375 39.140625 45 
Q 35.0625 48.390625 27.6875 48.390625 
Q 23 48.390625 18.546875 47.265625 
Q 14.109375 46.140625 10.015625 43.890625 
L 10.015625 52.203125 
Q 14.9375 54.109375 19.578125 55.046875 
Q 24.21875 56 28.609375 56 
Q 40.484375 56 46.34375 49.84375 
Q 52.203125 43.703125 52.203125 31.203125 
" id="BitstreamVeraSans-Roman-61"/>
      <path d="M 9.8125 72.90625 
L 19.671875 72.90625 
L 19.671875 42.09375 
L 52.390625 72.90625 
L 65.09375 72.90625 
L 28.90625 38.921875 
L 67.671875 0 
L 54.6875 0 
L 19.671875 35.109375 
L 19.671875 0 
L 9.8125 0 
z
" id="BitstreamVeraSans-Roman-4b"/>
     </defs>
     <g transform="translate(303.0078125 138.67625)scale(0.12 -0.12)">
      <use xlink:href="#BitstreamVeraSans-Roman-4b"/>
      <use x="65.576171875" xlink:href="#BitstreamVeraSans-Roman-72"/>
      <use x="106.689453125" xlink:href="#BitstreamVeraSans-Roman-61"/>
      <use x="167.96875" xlink:href="#BitstreamVeraSans-Roman-76"/>
      <use x="227.1484375" xlink:href="#BitstreamVeraSans-Roman-30"/>
      <use x="290.771484375" xlink:href="#BitstreamVeraSans-Roman-31"/>
      <use x="354.39453125" xlink:href="#BitstreamVeraSans-Roman-5f"/>
      <use x="404.39453125" xlink:href="#BitstreamVeraSans-Roman-49"/>
      <use x="433.88671875" xlink:href="#BitstreamVeraSans-Roman-4e"/>
      <use x="508.69140625" xlink:href="#BitstreamVeraSans-Roman-54"/>
     </g>
    </g>
    <g id="PathCollection_10">
     <path d="M 270.771745 153.47375 
L 275.24388 155.709818 
L 275.24388 151.237682 
z
" style="fill:#0000ff;stroke:#0000ff;"/>
     <path d="M 279.171745 152.42375 
L 283.64388 154.659818 
L 283.64388 150.187682 
z
" style="fill:#0000ff;stroke:#0000ff;"/>
     <path d="M 287.571745 153.99875 
L 292.04388 156.234818 
L 292.04388 151.762682 
z
" style="fill:#0000ff;stroke:#0000ff;"/>
    </g>
    <g id="text_5">
     <!-- Krav01_HT -->
     <g transform="translate(303.0078125 156.62375)scale(0.12 -0.12)">
      <use xlink:href="#BitstreamVeraSans-Roman-4b"/>
      <use x="65.576171875" xlink:href="#BitstreamVeraSans-Roman-72"/>
      <use x="106.689453125" xlink:href="#BitstreamVeraSans-Roman-61"/>
      <use x="167.96875" xlink:href="#BitstreamVeraSans-Roman-76"/>
      <use x="227.1484375" xlink:href="#BitstreamVeraSans-Roman-30"/>
      <use x="290.771484375" xlink:href="#BitstreamVeraSans-Roman-31"/>
      <use x="354.39453125" xlink:href="#BitstreamVeraSans-Roman-5f"/>
      <use x="404.39453125" xlink:href="#BitstreamVeraSans-Roman-48"/>
      <use x="479.58984375" xlink:href="#BitstreamVeraSans-Roman-54"/>
     </g>
    </g>
    <g id="PathCollection_11">
     <path d="M 275.24388 171.42125 
L 270.771745 169.185182 
L 270.771745 173.657318 
z
" style="fill:#ffffff;stroke:#ff0000;"/>
     <path d="M 283.64388 170.37125 
L 279.171745 168.135182 
L 279.171745 172.607318 
z
" style="fill:#ffffff;stroke:#ff0000;"/>
     <path d="M 292.04388 171.94625 
L 287.571745 169.710182 
L 287.571745 174.182318 
z
" style="fill:#ffffff;stroke:#ff0000;"/>
    </g>
    <g id="text_6">
     <!-- Teel_Mag -->
     <defs>
      <path d="M 45.40625 27.984375 
Q 45.40625 37.75 41.375 43.109375 
Q 37.359375 48.484375 30.078125 48.484375 
Q 22.859375 48.484375 18.828125 43.109375 
Q 14.796875 37.75 14.796875 27.984375 
Q 14.796875 18.265625 18.828125 12.890625 
Q 22.859375 7.515625 30.078125 7.515625 
Q 37.359375 7.515625 41.375 12.890625 
Q 45.40625 18.265625 45.40625 27.984375 
M 54.390625 6.78125 
Q 54.390625 -7.171875 48.1875 -13.984375 
Q 42 -20.796875 29.203125 -20.796875 
Q 24.46875 -20.796875 20.265625 -20.09375 
Q 16.0625 -19.390625 12.109375 -17.921875 
L 12.109375 -9.1875 
Q 16.0625 -11.328125 19.921875 -12.34375 
Q 23.78125 -13.375 27.78125 -13.375 
Q 36.625 -13.375 41.015625 -8.765625 
Q 45.40625 -4.15625 45.40625 5.171875 
L 45.40625 9.625 
Q 42.625 4.78125 38.28125 2.390625 
Q 33.9375 0 27.875 0 
Q 17.828125 0 11.671875 7.65625 
Q 5.515625 15.328125 5.515625 27.984375 
Q 5.515625 40.671875 11.671875 48.328125 
Q 17.828125 56 27.875 56 
Q 33.9375 56 38.28125 53.609375 
Q 42.625 51.21875 45.40625 46.390625 
L 45.40625 54.6875 
L 54.390625 54.6875 
z
" id="BitstreamVeraSans-Roman-67"/>
      <path d="M 9.8125 72.90625 
L 24.515625 72.90625 
L 43.109375 23.296875 
L 61.8125 72.90625 
L 76.515625 72.90625 
L 76.515625 0 
L 66.890625 0 
L 66.890625 64.015625 
L 48.09375 14.015625 
L 38.1875 14.015625 
L 19.390625 64.015625 
L 19.390625 0 
L 9.8125 0 
z
" id="BitstreamVeraSans-Roman-4d"/>
      <path d="M 9.421875 75.984375 
L 18.40625 75.984375 
L 18.40625 0 
L 9.421875 0 
z
" id="BitstreamVeraSans-Roman-6c"/>
     </defs>
     <g transform="translate(303.0078125 174.57125)scale(0.12 -0.12)">
      <use xlink:href="#BitstreamVeraSans-Roman-54"/>
      <use x="60.818359375" xlink:href="#BitstreamVeraSans-Roman-65"/>
      <use x="122.341796875" xlink:href="#BitstreamVeraSans-Roman-65"/>
      <use x="183.865234375" xlink:href="#BitstreamVeraSans-Roman-6c"/>
      <use x="211.6484375" xlink:href="#BitstreamVeraSans-Roman-5f"/>
      <use x="261.6484375" xlink:href="#BitstreamVeraSans-Roman-4d"/>
      <use x="347.927734375" xlink:href="#BitstreamVeraSans-Roman-61"/>
      <use x="409.20703125" xlink:href="#BitstreamVeraSans-Roman-67"/>
     </g>
    </g>
    <g id="PathCollection_12">
     <path d="M 273.007812 189.36875 
L 273.007812 191.604818 
M 273.007812 189.36875 
L 274.796667 188.250716 
M 273.007812 189.36875 
L 271.218958 188.250716 
" style="fill:#ff0000;stroke:#ff0000;"/>
     <path d="M 281.407812 188.31875 
L 281.407812 190.554818 
M 281.407812 188.31875 
L 283.196667 187.200716 
M 281.407812 188.31875 
L 279.618958 187.200716 
" style="fill:#ff0000;stroke:#ff0000;"/>
     <path d="M 289.807812 189.89375 
L 289.807812 192.129818 
M 289.807812 189.89375 
L 291.596667 188.775716 
M 289.807812 189.89375 
L 288.018958 188.775716 
" style="fill:#ff0000;stroke:#ff0000;"/>
    </g>
    <g id="text_7">
     <!-- Teel_Hem -->
     <defs>
      <path d="M 52 44.1875 
Q 55.375 50.25 60.0625 53.125 
Q 64.75 56 71.09375 56 
Q 79.640625 56 84.28125 50.015625 
Q 88.921875 44.046875 88.921875 33.015625 
L 88.921875 0 
L 79.890625 0 
L 79.890625 32.71875 
Q 79.890625 40.578125 77.09375 44.375 
Q 74.3125 48.1875 68.609375 48.1875 
Q 61.625 48.1875 57.5625 43.546875 
Q 53.515625 38.921875 53.515625 30.90625 
L 53.515625 0 
L 44.484375 0 
L 44.484375 32.71875 
Q 44.484375 40.625 41.703125 44.40625 
Q 38.921875 48.1875 33.109375 48.1875 
Q 26.21875 48.1875 22.15625 43.53125 
Q 18.109375 38.875 18.109375 30.90625 
L 18.109375 0 
L 9.078125 0 
L 9.078125 54.6875 
L 18.109375 54.6875 
L 18.109375 46.1875 
Q 21.1875 51.21875 25.484375 53.609375 
Q 29.78125 56 35.6875 56 
Q 41.65625 56 45.828125 52.96875 
Q 50 49.953125 52 44.1875 
" id="BitstreamVeraSans-Roman-6d"/>
     </defs>
     <g transform="translate(303.0078125 192.51875)scale(0.12 -0.12)">
      <use xlink:href="#BitstreamVeraSans-Roman-54"/>
      <use x="60.818359375" xlink:href="#BitstreamVeraSans-Roman-65"/>
      <use x="122.341796875" xlink:href="#BitstreamVeraSans-Roman-65"/>
      <use x="183.865234375" xlink:href="#BitstreamVeraSans-Roman-6c"/>
      <use x="211.6484375" xlink:href="#BitstreamVeraSans-Roman-5f"/>
      <use x="261.6484375" xlink:href="#BitstreamVeraSans-Roman-48"/>
      <use x="336.84375" xlink:href="#BitstreamVeraSans-Roman-65"/>
      <use x="398.3671875" xlink:href="#BitstreamVeraSans-Roman-6d"/>
     </g>
    </g>
   </g>
  </g>
 </g>
 <defs>
  <clipPath id="pd8e2f0889e">
   <rect height="397.4" width="381.875" x="35.4828125" y="21.318125"/>
  </clipPath>
 </defs>
</svg>
