<?xml version="1.0" encoding="utf-8" standalone="no"?>
<!DOCTYPE svg PUBLIC "-//W3C//DTD SVG 1.1//EN"
  "http://www.w3.org/Graphics/SVG/1.1/DTD/svg11.dtd">
<!-- Created with matplotlib (http://matplotlib.org/) -->
<svg height="293pt" version="1.1" viewBox="0 0 280 293" width="280pt" xmlns="http://www.w3.org/2000/svg" xmlns:xlink="http://www.w3.org/1999/xlink">
 <defs>
  <style type="text/css">
*{stroke-linecap:butt;stroke-linejoin:round;stroke-miterlimit:100000;}
  </style>
 </defs>
 <g id="figure_1">
  <g id="patch_1">
   <path d="M 0 293.518125 
L 280.465625 293.518125 
L 280.465625 0 
L 0 0 
L 0 293.518125 
z
" style="fill:none;"/>
  </g>
  <g id="axes_1">
   <g id="PathCollection_1">
    <defs>
     <path d="M 0 2.236068 
C 0.593012 2.236068 1.161816 2.000462 1.581139 1.581139 
C 2.000462 1.161816 2.236068 0.593012 2.236068 0 
C 2.236068 -0.593012 2.000462 -1.161816 1.581139 -1.581139 
C 1.161816 -2.000462 0.593012 -2.236068 0 -2.236068 
C -0.593012 -2.236068 -1.161816 -2.000462 -1.581139 -1.581139 
C -2.000462 -1.161816 -2.236068 -0.593012 -2.236068 0 
C -2.236068 0.593012 -2.000462 1.161816 -1.581139 1.581139 
C -1.161816 2.000462 -0.593012 2.236068 0 2.236068 
z
" id="m8ed1341b7b" style="stroke:#008000;"/>
    </defs>
    <g clip-path="url(#p597394a23d)">
     <use style="fill:#008000;stroke:#008000;" x="161.690173987" xlink:href="#m8ed1341b7b" y="122.518647395"/>
     <use style="fill:#008000;stroke:#008000;" x="157.034270794" xlink:href="#m8ed1341b7b" y="110.117977825"/>
     <use style="fill:#008000;stroke:#008000;" x="157.284593893" xlink:href="#m8ed1341b7b" y="112.725049446"/>
     <use style="fill:#008000;stroke:#008000;" x="172.494910041" xlink:href="#m8ed1341b7b" y="95.7405161894"/>
     <use style="fill:#008000;stroke:#008000;" x="169.172485407" xlink:href="#m8ed1341b7b" y="94.7257476201"/>
     <use style="fill:#008000;stroke:#008000;" x="167.729263" xlink:href="#m8ed1341b7b" y="112.085570802"/>
     <use style="fill:#008000;stroke:#008000;" x="166.902572498" xlink:href="#m8ed1341b7b" y="104.07264971"/>
    </g>
   </g>
   <g id="PathCollection_2">
    <defs>
     <path d="M 0 2.236068 
C 0.593012 2.236068 1.161816 2.000462 1.581139 1.581139 
C 2.000462 1.161816 2.236068 0.593012 2.236068 0 
C 2.236068 -0.593012 2.000462 -1.161816 1.581139 -1.581139 
C 1.161816 -2.000462 0.593012 -2.236068 0 -2.236068 
C -0.593012 -2.236068 -1.161816 -2.000462 -1.581139 -1.581139 
C -2.000462 -1.161816 -2.236068 -0.593012 -2.236068 0 
C -2.236068 0.593012 -2.000462 1.161816 -1.581139 1.581139 
C -1.161816 2.000462 -0.593012 2.236068 0 2.236068 
z
" id="C0_0_96abc39908"/>
    </defs>
    <g clip-path="url(#p597394a23d)">
     <use style="fill:none;stroke:#0000ff;" x="101.524971971" xlink:href="#C0_0_96abc39908" y="180.752960169"/>
    </g>
    <g clip-path="url(#p597394a23d)">
     <use style="fill:none;stroke:#0000ff;" x="106.751869387" xlink:href="#C0_0_96abc39908" y="166.886749127"/>
    </g>
    <g clip-path="url(#p597394a23d)">
     <use style="fill:none;stroke:#0000ff;" x="107.074482586" xlink:href="#C0_0_96abc39908" y="183.513524672"/>
    </g>
    <g clip-path="url(#p597394a23d)">
     <use style="fill:none;stroke:#0000ff;" x="79.2966022734" xlink:href="#C0_0_96abc39908" y="201.159327019"/>
    </g>
    <g clip-path="url(#p597394a23d)">
     <use style="fill:none;stroke:#0000ff;" x="92.3510348341" xlink:href="#C0_0_96abc39908" y="185.25705917"/>
    </g>
    <g clip-path="url(#p597394a23d)">
     <use style="fill:none;stroke:#0000ff;" x="91.0835442705" xlink:href="#C0_0_96abc39908" y="201.216374175"/>
    </g>
    <g clip-path="url(#p597394a23d)">
     <use style="fill:none;stroke:#0000ff;" x="91.7390099721" xlink:href="#C0_0_96abc39908" y="175.880044257"/>
    </g>
   </g>
   <g id="PathCollection_3">
    <defs>
     <path d="M 0 2.236068 
C 0.593012 2.236068 1.161816 2.000462 1.581139 1.581139 
C 2.000462 1.161816 2.236068 0.593012 2.236068 0 
C 2.236068 -0.593012 2.000462 -1.161816 1.581139 -1.581139 
C 1.161816 -2.000462 0.593012 -2.236068 0 -2.236068 
C -0.593012 -2.236068 -1.161816 -2.000462 -1.581139 -1.581139 
C -2.000462 -1.161816 -2.236068 -0.593012 -2.236068 0 
C -2.236068 0.593012 -2.000462 1.161816 -1.581139 1.581139 
C -1.161816 2.000462 -0.593012 2.236068 0 2.236068 
z
" id="ma80e8337ea" style="stroke:#ff0000;"/>
    </defs>
    <g clip-path="url(#p597394a23d)">
     <use style="fill:#ff0000;stroke:#ff0000;" x="105.740904609" xlink:href="#ma80e8337ea" y="244.874814056"/>
     <use style="fill:#ff0000;stroke:#ff0000;" x="131.581721514" xlink:href="#ma80e8337ea" y="243.338744502"/>
     <use style="fill:#ff0000;stroke:#ff0000;" x="123.783165402" xlink:href="#ma80e8337ea" y="223.287837352"/>
     <use style="fill:#ff0000;stroke:#ff0000;" x="124.359848505" xlink:href="#ma80e8337ea" y="244.447872193"/>
     <use style="fill:#ff0000;stroke:#ff0000;" x="157.726711945" xlink:href="#ma80e8337ea" y="232.183952894"/>
     <use style="fill:#ff0000;stroke:#ff0000;" x="111.191017363" xlink:href="#ma80e8337ea" y="234.303874195"/>
    </g>
   </g>
   <g id="PathCollection_4">
    <path clip-path="url(#p597394a23d)" d="M 164.283796 224.508314 
L 162.047728 228.98045 
L 166.519864 228.98045 
L 164.283796 224.508314 
z
" style="fill:none;stroke:#ff0000;"/>
   </g>
   <g id="PathCollection_5">
    <defs>
     <path d="M -2.236068 2.236068 
L 2.236068 2.236068 
L 2.236068 -2.236068 
L -2.236068 -2.236068 
z
" id="m698b81c6bf" style="stroke:#0000ff;"/>
    </defs>
    <g clip-path="url(#p597394a23d)">
     <use style="fill:#ffffff;stroke:#0000ff;" x="95.1990492342" xlink:href="#m698b81c6bf" y="185.053780333"/>
    </g>
   </g>
   <g id="PathCollection_6">
    <defs>
     <path d="M -2.236068 2.236068 
L 2.236068 2.236068 
L 2.236068 -2.236068 
L -2.236068 -2.236068 
z
" id="m9e93ad0e47" style="stroke:#ff0000;"/>
    </defs>
    <g clip-path="url(#p597394a23d)">
     <use style="fill:#ff0000;stroke:#ff0000;" x="125.774159337" xlink:href="#m9e93ad0e47" y="238.522338072"/>
    </g>
   </g>
   <g id="line2d_1">
    <path clip-path="url(#p597394a23d)" d="M 153.201258 33.965935 
L 159.068788 34.119392 
L 164.920237 34.579341 
L 170.739564 35.344522 
L 176.51082 36.412837 
L 182.218187 37.781359 
L 187.84602 39.446336 
L 193.378894 41.403205 
L 198.801644 43.646602 
L 204.099406 46.170378 
L 209.25766 48.967615 
L 214.262267 52.030648 
L 219.099511 55.351079 
L 223.756132 58.919808 
L 228.219367 62.727053 
L 232.476982 66.76238 
L 236.517308 71.014726 
L 240.329271 75.472438 
L 243.902422 80.123296 
L 247.226967 84.954553 
L 250.293795 89.952968 
L 253.094498 95.104838 
L 255.621401 100.396045 
L 257.867578 105.812084 
L 259.826871 111.338111 
L 261.493911 116.95898 
L 262.864129 122.659283 
L 263.933768 128.423397 
L 264.699897 134.235523 
L 265.160416 140.07973 
L 265.314062 145.94 
L 265.160416 151.80027 
L 264.699897 157.644477 
L 263.933768 163.456603 
L 262.864129 169.220717 
L 261.493911 174.92102 
L 259.826871 180.541889 
L 257.867578 186.067916 
L 255.621401 191.483955 
L 253.094498 196.775162 
L 250.293795 201.927032 
L 247.226967 206.925447 
L 243.902422 211.756704 
L 240.329271 216.407562 
L 236.517308 220.865274 
L 232.476982 225.11762 
L 228.219367 229.152947 
L 223.756132 232.960192 
L 219.099511 236.528921 
L 214.262267 239.849352 
L 209.25766 242.912385 
L 204.099406 245.709622 
L 198.801644 248.233398 
L 193.378894 250.476795 
L 187.84602 252.433664 
L 182.218187 254.098641 
L 176.51082 255.467163 
L 170.739564 256.535478 
L 164.920237 257.300659 
L 159.068788 257.760608 
L 153.201258 257.914065 
L 147.333727 257.760608 
L 141.482278 257.300659 
L 135.662951 256.535478 
L 129.891695 255.467163 
L 124.184329 254.098641 
L 118.556496 252.433664 
L 113.023622 250.476795 
L 107.600872 248.233398 
L 102.303109 245.709622 
L 97.144855 242.912385 
L 92.140248 239.849352 
L 87.303004 236.528921 
L 82.646383 232.960192 
L 78.183149 229.152947 
L 73.925533 225.11762 
L 69.885207 220.865274 
L 66.073244 216.407562 
L 62.500093 211.756704 
L 59.175548 206.925447 
L 56.108721 201.927032 
L 53.308017 196.775162 
L 50.781114 191.483955 
L 48.534937 186.067916 
L 46.575644 180.541889 
L 44.908604 174.92102 
L 43.538387 169.220717 
L 42.468747 163.456603 
L 41.702618 157.644477 
L 41.242099 151.80027 
L 41.088453 145.94 
L 41.242099 140.07973 
L 41.702618 134.235523 
L 42.468747 128.423397 
L 43.538387 122.659283 
L 44.908604 116.95898 
L 46.575644 111.338111 
L 48.534937 105.812084 
L 50.781114 100.396045 
L 53.308017 95.104838 
L 56.108721 89.952968 
L 59.175548 84.954553 
L 62.500093 80.123296 
L 66.073244 75.472438 
L 69.885207 71.014726 
L 73.925533 66.76238 
L 78.183149 62.727053 
L 82.646383 58.919808 
L 87.303004 55.351079 
L 92.140248 52.030648 
L 97.144855 48.967615 
L 102.303109 46.170378 
L 107.600872 43.646602 
L 113.023622 41.403205 
L 118.556496 39.446336 
L 124.184329 37.781359 
L 129.891695 36.412837 
L 135.662951 35.344522 
L 141.482278 34.579341 
L 147.333727 34.119392 
L 153.201258 33.965935 
L 153.201258 33.965935 
" style="fill:none;stroke:#000000;stroke-linecap:square;"/>
   </g>
   <g id="line2d_2">
    <defs>
     <path d="M -3 0 
L 3 0 
M 0 3 
L 0 -3 
" id="m2741d613d2" style="stroke:#000000;stroke-width:0.5;"/>
    </defs>
    <g clip-path="url(#p597394a23d)">
     <use style="stroke:#000000;stroke-width:0.5;" x="153.201257621" xlink:href="#m2741d613d2" y="44.1512132669"/>
     <use style="stroke:#000000;stroke-width:0.5;" x="153.201257621" xlink:href="#m2741d613d2" y="55.1111652884"/>
     <use style="stroke:#000000;stroke-width:0.5;" x="153.201257621" xlink:href="#m2741d613d2" y="66.762379586"/>
     <use style="stroke:#000000;stroke-width:0.5;" x="153.201257621" xlink:href="#m2741d613d2" y="79.0161833838"/>
     <use style="stroke:#000000;stroke-width:0.5;" x="153.201257621" xlink:href="#m2741d613d2" y="91.7793178357"/>
     <use style="stroke:#000000;stroke-width:0.5;" x="153.201257621" xlink:href="#m2741d613d2" y="104.954647782"/>
     <use style="stroke:#000000;stroke-width:0.5;" x="153.201257621" xlink:href="#m2741d613d2" y="118.441901006"/>
     <use style="stroke:#000000;stroke-width:0.5;" x="153.201257621" xlink:href="#m2741d613d2" y="132.138431368"/>
     <use style="stroke:#000000;stroke-width:0.5;" x="153.201257621" xlink:href="#m2741d613d2" y="145.94"/>
    </g>
   </g>
   <g id="line2d_3">
    <g clip-path="url(#p597394a23d)">
     <use style="stroke:#000000;stroke-width:0.5;" x="255.116164647" xlink:href="#m2741d613d2" y="145.94"/>
     <use style="stroke:#000000;stroke-width:0.5;" x="244.142632816" xlink:href="#m2741d613d2" y="145.94"/>
     <use style="stroke:#000000;stroke-width:0.5;" x="232.476982207" xlink:href="#m2741d613d2" y="145.94"/>
     <use style="stroke:#000000;stroke-width:0.5;" x="220.207995467" xlink:href="#m2741d613d2" y="145.94"/>
     <use style="stroke:#000000;stroke-width:0.5;" x="207.429046991" xlink:href="#m2741d613d2" y="145.94"/>
     <use style="stroke:#000000;stroke-width:0.5;" x="194.237392295" xlink:href="#m2741d613d2" y="145.94"/>
     <use style="stroke:#000000;stroke-width:0.5;" x="180.733427836" xlink:href="#m2741d613d2" y="145.94"/>
     <use style="stroke:#000000;stroke-width:0.5;" x="167.019926937" xlink:href="#m2741d613d2" y="145.94"/>
    </g>
   </g>
   <g id="line2d_4">
    <g clip-path="url(#p597394a23d)">
     <use style="stroke:#000000;stroke-width:0.5;" x="153.201257621" xlink:href="#m2741d613d2" y="247.728786733"/>
     <use style="stroke:#000000;stroke-width:0.5;" x="153.201257621" xlink:href="#m2741d613d2" y="236.768834712"/>
     <use style="stroke:#000000;stroke-width:0.5;" x="153.201257621" xlink:href="#m2741d613d2" y="225.117620414"/>
     <use style="stroke:#000000;stroke-width:0.5;" x="153.201257621" xlink:href="#m2741d613d2" y="212.863816616"/>
     <use style="stroke:#000000;stroke-width:0.5;" x="153.201257621" xlink:href="#m2741d613d2" y="200.100682164"/>
     <use style="stroke:#000000;stroke-width:0.5;" x="153.201257621" xlink:href="#m2741d613d2" y="186.925352218"/>
     <use style="stroke:#000000;stroke-width:0.5;" x="153.201257621" xlink:href="#m2741d613d2" y="173.438098994"/>
     <use style="stroke:#000000;stroke-width:0.5;" x="153.201257621" xlink:href="#m2741d613d2" y="159.741568632"/>
    </g>
   </g>
   <g id="line2d_5">
    <g clip-path="url(#p597394a23d)">
     <use style="stroke:#000000;stroke-width:0.5;" x="51.2863505948" xlink:href="#m2741d613d2" y="145.94"/>
     <use style="stroke:#000000;stroke-width:0.5;" x="62.2598824261" xlink:href="#m2741d613d2" y="145.94"/>
     <use style="stroke:#000000;stroke-width:0.5;" x="73.9255330345" xlink:href="#m2741d613d2" y="145.94"/>
     <use style="stroke:#000000;stroke-width:0.5;" x="86.194519775" xlink:href="#m2741d613d2" y="145.94"/>
     <use style="stroke:#000000;stroke-width:0.5;" x="98.9734682503" xlink:href="#m2741d613d2" y="145.94"/>
     <use style="stroke:#000000;stroke-width:0.5;" x="112.165122946" xlink:href="#m2741d613d2" y="145.94"/>
     <use style="stroke:#000000;stroke-width:0.5;" x="125.669087406" xlink:href="#m2741d613d2" y="145.94"/>
     <use style="stroke:#000000;stroke-width:0.5;" x="139.382588304" xlink:href="#m2741d613d2" y="145.94"/>
    </g>
   </g>
   <g id="line2d_6">
    <path clip-path="url(#p597394a23d)" d="M 153.201258 33.965935 
L 153.201258 34.947345 
L 153.201258 35.937206 
L 153.201258 36.935445 
" style="fill:none;stroke:#000000;stroke-linecap:square;"/>
   </g>
   <g id="line2d_7">
    <path clip-path="url(#p597394a23d)" d="M 172.669442 35.667073 
L 172.498811 36.633572 
L 172.32671 37.608396 
L 172.153153 38.59147 
" style="fill:none;stroke:#000000;stroke-linecap:square;"/>
   </g>
   <g id="line2d_8">
    <path clip-path="url(#p597394a23d)" d="M 191.546095 40.718798 
L 191.210018 41.641021 
L 190.871045 42.571187 
L 190.529205 43.509224 
" style="fill:none;stroke:#000000;stroke-linecap:square;"/>
   </g>
   <g id="line2d_9">
    <path clip-path="url(#p597394a23d)" d="M 209.25766 48.967615 
L 208.766347 49.817541 
L 208.270803 50.674786 
L 207.771065 51.539287 
" style="fill:none;stroke:#000000;stroke-linecap:square;"/>
   </g>
   <g id="line2d_10">
    <path clip-path="url(#p597394a23d)" d="M 225.265979 60.16289 
L 224.63436 60.914693 
L 223.997301 61.672971 
L 223.35485 62.437667 
" style="fill:none;stroke:#000000;stroke-linecap:square;"/>
   </g>
   <g id="line2d_11">
    <path clip-path="url(#p597394a23d)" d="M 239.084649 73.964459 
L 238.331914 74.595296 
L 237.572696 75.231567 
L 236.807054 75.873223 
" style="fill:none;stroke:#000000;stroke-linecap:square;"/>
   </g>
   <g id="line2d_12">
    <path clip-path="url(#p597394a23d)" d="M 250.293795 89.952968 
L 249.442816 90.443672 
L 248.584509 90.938603 
L 247.718937 91.437723 
" style="fill:none;stroke:#000000;stroke-linecap:square;"/>
   </g>
   <g id="line2d_13">
    <path clip-path="url(#p597394a23d)" d="M 258.552833 107.642614 
L 257.629467 107.978276 
L 256.698149 108.316829 
L 255.758949 108.658247 
" style="fill:none;stroke:#000000;stroke-linecap:square;"/>
   </g>
   <g id="line2d_14">
    <path clip-path="url(#p597394a23d)" d="M 263.610817 126.495908 
L 262.64312 126.666328 
L 261.667089 126.838215 
L 260.682797 127.011558 
" style="fill:none;stroke:#000000;stroke-linecap:square;"/>
   </g>
   <g id="line2d_15">
    <path clip-path="url(#p597394a23d)" d="M 265.314062 145.94 
L 264.331437 145.94 
L 263.340349 145.94 
L 262.340873 145.94 
" style="fill:none;stroke:#000000;stroke-linecap:square;"/>
   </g>
   <g id="line2d_16">
    <path clip-path="url(#p597394a23d)" d="M 263.610817 165.384092 
L 262.64312 165.213672 
L 261.667089 165.041785 
L 260.682797 164.868442 
" style="fill:none;stroke:#000000;stroke-linecap:square;"/>
   </g>
   <g id="line2d_17">
    <path clip-path="url(#p597394a23d)" d="M 258.552833 184.237386 
L 257.629467 183.901724 
L 256.698149 183.563171 
L 255.758949 183.221753 
" style="fill:none;stroke:#000000;stroke-linecap:square;"/>
   </g>
   <g id="line2d_18">
    <path clip-path="url(#p597394a23d)" d="M 250.293795 201.927032 
L 249.442816 201.436328 
L 248.584509 200.941397 
L 247.718937 200.442277 
" style="fill:none;stroke:#000000;stroke-linecap:square;"/>
   </g>
   <g id="line2d_19">
    <path clip-path="url(#p597394a23d)" d="M 239.084649 217.915541 
L 238.331914 217.284704 
L 237.572696 216.648433 
L 236.807054 216.006777 
" style="fill:none;stroke:#000000;stroke-linecap:square;"/>
   </g>
   <g id="line2d_20">
    <path clip-path="url(#p597394a23d)" d="M 225.265979 231.71711 
L 224.63436 230.965307 
L 223.997301 230.207029 
L 223.35485 229.442333 
" style="fill:none;stroke:#000000;stroke-linecap:square;"/>
   </g>
   <g id="line2d_21">
    <path clip-path="url(#p597394a23d)" d="M 209.25766 242.912385 
L 208.766347 242.062459 
L 208.270803 241.205214 
L 207.771065 240.340713 
" style="fill:none;stroke:#000000;stroke-linecap:square;"/>
   </g>
   <g id="line2d_22">
    <path clip-path="url(#p597394a23d)" d="M 191.546095 251.161202 
L 191.210018 250.238979 
L 190.871045 249.308813 
L 190.529205 248.370776 
" style="fill:none;stroke:#000000;stroke-linecap:square;"/>
   </g>
   <g id="line2d_23">
    <path clip-path="url(#p597394a23d)" d="M 172.669442 256.212927 
L 172.498811 255.246428 
L 172.32671 254.271604 
L 172.153153 253.28853 
" style="fill:none;stroke:#000000;stroke-linecap:square;"/>
   </g>
   <g id="line2d_24">
    <path clip-path="url(#p597394a23d)" d="M 153.201258 257.914065 
L 153.201258 256.932655 
L 153.201258 255.942794 
L 153.201258 254.944555 
" style="fill:none;stroke:#000000;stroke-linecap:square;"/>
   </g>
   <g id="line2d_25">
    <path clip-path="url(#p597394a23d)" d="M 133.733073 256.212927 
L 133.903704 255.246428 
L 134.075805 254.271604 
L 134.249362 253.28853 
" style="fill:none;stroke:#000000;stroke-linecap:square;"/>
   </g>
   <g id="line2d_26">
    <path clip-path="url(#p597394a23d)" d="M 114.85642 251.161202 
L 115.192498 250.238979 
L 115.53147 249.308813 
L 115.873311 248.370776 
" style="fill:none;stroke:#000000;stroke-linecap:square;"/>
   </g>
   <g id="line2d_27">
    <path clip-path="url(#p597394a23d)" d="M 97.144855 242.912385 
L 97.636168 242.062459 
L 98.131712 241.205214 
L 98.63145 240.340713 
" style="fill:none;stroke:#000000;stroke-linecap:square;"/>
   </g>
   <g id="line2d_28">
    <path clip-path="url(#p597394a23d)" d="M 81.136536 231.71711 
L 81.768155 230.965307 
L 82.405214 230.207029 
L 83.047665 229.442333 
" style="fill:none;stroke:#000000;stroke-linecap:square;"/>
   </g>
   <g id="line2d_29">
    <path clip-path="url(#p597394a23d)" d="M 67.317866 217.915541 
L 68.070601 217.284704 
L 68.829819 216.648433 
L 69.595462 216.006777 
" style="fill:none;stroke:#000000;stroke-linecap:square;"/>
   </g>
   <g id="line2d_30">
    <path clip-path="url(#p597394a23d)" d="M 56.108721 201.927032 
L 56.959699 201.436328 
L 57.818007 200.941397 
L 58.683578 200.442277 
" style="fill:none;stroke:#000000;stroke-linecap:square;"/>
   </g>
   <g id="line2d_31">
    <path clip-path="url(#p597394a23d)" d="M 47.849682 184.237386 
L 48.773048 183.901724 
L 49.704366 183.563171 
L 50.643566 183.221753 
" style="fill:none;stroke:#000000;stroke-linecap:square;"/>
   </g>
   <g id="line2d_32">
    <path clip-path="url(#p597394a23d)" d="M 42.791698 165.384092 
L 43.759395 165.213672 
L 44.735427 165.041785 
L 45.719718 164.868442 
" style="fill:none;stroke:#000000;stroke-linecap:square;"/>
   </g>
   <g id="line2d_33">
    <path clip-path="url(#p597394a23d)" d="M 41.088453 145.94 
L 42.071078 145.94 
L 43.062166 145.94 
L 44.061642 145.94 
" style="fill:none;stroke:#000000;stroke-linecap:square;"/>
   </g>
   <g id="line2d_34">
    <path clip-path="url(#p597394a23d)" d="M 42.791698 126.495908 
L 43.759395 126.666328 
L 44.735427 126.838215 
L 45.719718 127.011558 
" style="fill:none;stroke:#000000;stroke-linecap:square;"/>
   </g>
   <g id="line2d_35">
    <path clip-path="url(#p597394a23d)" d="M 47.849682 107.642614 
L 48.773048 107.978276 
L 49.704366 108.316829 
L 50.643566 108.658247 
" style="fill:none;stroke:#000000;stroke-linecap:square;"/>
   </g>
   <g id="line2d_36">
    <path clip-path="url(#p597394a23d)" d="M 56.108721 89.952968 
L 56.959699 90.443672 
L 57.818007 90.938603 
L 58.683578 91.437723 
" style="fill:none;stroke:#000000;stroke-linecap:square;"/>
   </g>
   <g id="line2d_37">
    <path clip-path="url(#p597394a23d)" d="M 67.317866 73.964459 
L 68.070601 74.595296 
L 68.829819 75.231567 
L 69.595462 75.873223 
" style="fill:none;stroke:#000000;stroke-linecap:square;"/>
   </g>
   <g id="line2d_38">
    <path clip-path="url(#p597394a23d)" d="M 81.136536 60.16289 
L 81.768155 60.914693 
L 82.405214 61.672971 
L 83.047665 62.437667 
" style="fill:none;stroke:#000000;stroke-linecap:square;"/>
   </g>
   <g id="line2d_39">
    <path clip-path="url(#p597394a23d)" d="M 97.144855 48.967615 
L 97.636168 49.817541 
L 98.131712 50.674786 
L 98.63145 51.539287 
" style="fill:none;stroke:#000000;stroke-linecap:square;"/>
   </g>
   <g id="line2d_40">
    <path clip-path="url(#p597394a23d)" d="M 114.85642 40.718798 
L 115.192498 41.641021 
L 115.53147 42.571187 
L 115.873311 43.509224 
" style="fill:none;stroke:#000000;stroke-linecap:square;"/>
   </g>
   <g id="line2d_41">
    <path clip-path="url(#p597394a23d)" d="M 133.733073 35.667073 
L 133.903704 36.633572 
L 134.075805 37.608396 
L 134.249362 38.59147 
" style="fill:none;stroke:#000000;stroke-linecap:square;"/>
   </g>
   <g id="line2d_42">
    <path clip-path="url(#p597394a23d)" d="M 87.678843 172.543778 
L 87.062265 172.949222 
L 86.476911 173.403225 
L 85.925359 173.904349 
L 85.410098 174.450939 
L 84.933505 175.041122 
L 84.497838 175.672812 
L 84.105217 176.343709 
L 83.757615 177.051308 
L 83.456834 177.792903 
L 83.204501 178.565595 
L 83.002047 179.366306 
L 82.850697 180.191784 
L 82.751458 181.038622 
L 82.705105 181.903271 
L 82.712173 182.782056 
L 82.772946 183.671198 
L 82.887453 184.566828 
L 83.055461 185.465014 
L 83.276468 186.361781 
L 83.549709 187.253131 
L 83.874147 188.135074 
L 84.248486 189.003645 
L 84.671167 189.854934 
L 85.140382 190.685106 
L 85.654079 191.49043 
L 86.209976 192.267295 
L 86.805576 193.012241 
L 87.438177 193.72197 
L 88.104896 194.393374 
L 88.802683 195.02355 
L 89.528341 195.609812 
L 90.278551 196.149711 
L 91.049887 196.641042 
L 91.838846 197.081856 
L 92.641861 197.470467 
L 93.455331 197.805455 
L 94.275639 198.085672 
L 95.099171 198.310239 
L 95.922343 198.478548 
L 96.741613 198.590259 
L 97.553507 198.645291 
L 98.354627 198.643819 
L 99.141675 198.586266 
L 99.911464 198.473293 
L 100.66093 198.305788 
L 101.387146 198.084858 
L 102.08733 197.811812 
L 102.758853 197.488156 
L 103.39925 197.115574 
L 104.00622 196.695918 
L 104.577638 196.231197 
L 105.11155 195.723559 
L 105.606183 195.175285 
L 106.059942 194.58877 
L 106.471409 193.966515 
L 106.839348 193.311115 
L 107.162699 192.625244 
L 107.44058 191.911649 
L 107.67228 191.173136 
L 107.857262 190.41256 
L 107.995153 189.632818 
L 108.085749 188.836837 
L 108.129004 188.027565 
L 108.125029 187.207965 
L 108.074089 186.381007 
L 107.976596 185.549656 
L 107.833109 184.71687 
L 107.644326 183.885592 
L 107.41108 183.05874 
L 107.134339 182.239204 
L 106.815197 181.429838 
L 106.454872 180.633455 
L 106.054702 179.852821 
L 105.616142 179.090649 
L 105.140758 178.349591 
L 104.630223 177.632236 
L 104.086317 176.941104 
L 103.510918 176.278636 
L 102.906002 175.647193 
L 102.273637 175.049049 
L 101.615979 174.486384 
L 100.935271 173.961278 
L 100.233835 173.475707 
L 99.514071 173.031534 
L 98.778448 172.630506 
L 98.029506 172.274245 
L 97.269845 171.964242 
L 96.502123 171.701852 
L 95.72905 171.488285 
L 94.953383 171.324602 
L 94.177915 171.211705 
L 93.405475 171.150334 
L 92.638917 171.141056 
L 91.881111 171.184264 
L 91.134937 171.280165 
L 90.403278 171.428777 
L 89.689003 171.629925 
L 88.994965 171.883231 
L 88.323985 172.188113 
L 87.678843 172.543778 
" style="fill:none;stroke:#0000ff;stroke-linecap:square;"/>
   </g>
   <g id="line2d_43">
    <path clip-path="url(#p597394a23d)" d="M 107.062801 231.164916 
L 106.783624 231.902819 
L 106.578263 232.669706 
L 106.448632 233.462937 
L 106.396395 234.279659 
L 106.422942 235.116802 
L 106.529364 235.971089 
L 106.716429 236.83904 
L 106.984557 237.716985 
L 107.333799 238.601074 
L 107.763812 239.487299 
L 108.273842 240.371511 
L 108.862701 241.249445 
L 109.528759 242.116747 
L 110.269928 242.969006 
L 111.083654 243.80179 
L 111.96692 244.610676 
L 112.916246 245.391297 
L 113.927696 246.139376 
L 114.996899 246.850772 
L 116.119062 247.521517 
L 117.289006 248.147862 
L 118.501192 248.72631 
L 119.749765 249.253658 
L 121.028595 249.727027 
L 122.331326 250.143893 
L 123.651433 250.502109 
L 124.982268 250.79993 
L 126.317125 251.036018 
L 127.649293 251.209458 
L 128.972113 251.319757 
L 130.279034 251.366837 
L 131.563668 251.35103 
L 132.819832 251.273059 
L 134.041601 251.134025 
L 135.223345 250.935375 
L 136.359764 250.678884 
L 137.445917 250.366621 
L 138.477247 250.000919 
L 139.449599 249.584344 
L 140.359232 249.11966 
L 141.202829 248.609803 
L 141.977494 248.057842 
L 142.680756 247.466956 
L 143.310562 246.8404 
L 143.865264 246.181484 
L 144.34361 245.493543 
L 144.744731 244.779921 
L 145.06812 244.043948 
L 145.313618 243.288922 
L 145.481395 242.518099 
L 145.571927 241.734676 
L 145.58598 240.941781 
L 145.524591 240.142467 
L 145.389043 239.339703 
L 145.180854 238.536372 
L 144.901752 237.735262 
L 144.553664 236.939068 
L 144.138694 236.150389 
L 143.659108 235.371729 
L 143.117326 234.605495 
L 142.515899 233.854 
L 141.857504 233.119462 
L 141.144928 232.404008 
L 140.381058 231.709674 
L 139.568874 231.038409 
L 138.711437 230.392077 
L 137.811882 229.772456 
L 136.87341 229.181243 
L 135.899282 228.620056 
L 134.892813 228.090432 
L 133.857364 227.593834 
L 132.796341 227.131647 
L 131.713188 226.705182 
L 130.611381 226.315673 
L 129.494427 225.964281 
L 128.365859 225.652093 
L 127.229234 225.380116 
L 126.088125 225.149284 
L 124.946123 224.960449 
L 123.80683 224.814384 
L 122.673859 224.711775 
L 121.550827 224.653225 
L 120.441353 224.639244 
L 119.349054 224.670247 
L 118.277539 224.746549 
L 117.23041 224.868363 
L 116.211248 225.035788 
L 115.223615 225.248809 
L 114.271044 225.507286 
L 113.357031 225.81095 
L 112.48503 226.159393 
L 111.658444 226.552062 
L 110.880612 226.988253 
L 110.1548 227.467095 
L 109.48419 227.987554 
L 108.871865 228.548413 
L 108.320797 229.148273 
L 107.833827 229.785539 
L 107.413651 230.45842 
L 107.062801 231.164916 
" style="fill:none;stroke:#ff0000;stroke-linecap:square;"/>
   </g>
   <g id="legend_1">
    <g id="patch_2">
     <path d="M 70.798346 82.59 
L 227.499596 82.59 
L 227.499596 7.2 
L 70.798346 7.2 
z
" style="fill:#ffffff;stroke:#000000;stroke-linejoin:miter;"/>
    </g>
    <g id="PathCollection_7">
     <path d="M 79.198346 20.204193 
C 79.791358 20.204193 80.360162 19.968587 80.779485 19.549264 
C 81.198808 19.129941 81.434414 18.561137 81.434414 17.968125 
C 81.434414 17.375113 81.198808 16.806309 80.779485 16.386986 
C 80.360162 15.967663 79.791358 15.732057 79.198346 15.732057 
C 78.605334 15.732057 78.03653 15.967663 77.617207 16.386986 
C 77.197884 16.806309 76.962278 17.375113 76.962278 17.968125 
C 76.962278 18.561137 77.197884 19.129941 77.617207 19.549264 
C 78.03653 19.968587 78.605334 20.204193 79.198346 20.204193 
z
" style="fill:#008000;stroke:#008000;"/>
     <path d="M 87.598346 19.154193 
C 88.191358 19.154193 88.760162 18.918587 89.179485 18.499264 
C 89.598808 18.079941 89.834414 17.511137 89.834414 16.918125 
C 89.834414 16.325113 89.598808 15.756309 89.179485 15.336986 
C 88.760162 14.917663 88.191358 14.682057 87.598346 14.682057 
C 87.005334 14.682057 86.43653 14.917663 86.017207 15.336986 
C 85.597884 15.756309 85.362278 16.325113 85.362278 16.918125 
C 85.362278 17.511137 85.597884 18.079941 86.017207 18.499264 
C 86.43653 18.918587 87.005334 19.154193 87.598346 19.154193 
z
" style="fill:#008000;stroke:#008000;"/>
     <path d="M 95.998346 20.729193 
C 96.591358 20.729193 97.160162 20.493587 97.579485 20.074264 
C 97.998808 19.654941 98.234414 19.086137 98.234414 18.493125 
C 98.234414 17.900113 97.998808 17.331309 97.579485 16.911986 
C 97.160162 16.492663 96.591358 16.257057 95.998346 16.257057 
C 95.405334 16.257057 94.83653 16.492663 94.417207 16.911986 
C 93.997884 17.331309 93.762278 17.900113 93.762278 18.493125 
C 93.762278 19.086137 93.997884 19.654941 94.417207 20.074264 
C 94.83653 20.493587 95.405334 20.729193 95.998346 20.729193 
z
" style="fill:#008000;stroke:#008000;"/>
    </g>
    <g id="text_1">
     <!-- Z49_low_geo -->
     <defs>
      <path d="M 5.609375 72.90625 
L 62.890625 72.90625 
L 62.890625 65.375 
L 16.796875 8.296875 
L 64.015625 8.296875 
L 64.015625 0 
L 4.5 0 
L 4.5 7.515625 
L 50.59375 64.59375 
L 5.609375 64.59375 
z
" id="BitstreamVeraSans-Roman-5a"/>
      <path d="M 10.984375 1.515625 
L 10.984375 10.5 
Q 14.703125 8.734375 18.5 7.8125 
Q 22.3125 6.890625 25.984375 6.890625 
Q 35.75 6.890625 40.890625 13.453125 
Q 46.046875 20.015625 46.78125 33.40625 
Q 43.953125 29.203125 39.59375 26.953125 
Q 35.25 24.703125 29.984375 24.703125 
Q 19.046875 24.703125 12.671875 31.3125 
Q 6.296875 37.9375 6.296875 49.421875 
Q 6.296875 60.640625 12.9375 67.421875 
Q 19.578125 74.21875 30.609375 74.21875 
Q 43.265625 74.21875 49.921875 64.515625 
Q 56.59375 54.828125 56.59375 36.375 
Q 56.59375 19.140625 48.40625 8.859375 
Q 40.234375 -1.421875 26.421875 -1.421875 
Q 22.703125 -1.421875 18.890625 -0.6875 
Q 15.09375 0.046875 10.984375 1.515625 
M 30.609375 32.421875 
Q 37.25 32.421875 41.125 36.953125 
Q 45.015625 41.5 45.015625 49.421875 
Q 45.015625 57.28125 41.125 61.84375 
Q 37.25 66.40625 30.609375 66.40625 
Q 23.96875 66.40625 20.09375 61.84375 
Q 16.21875 57.28125 16.21875 49.421875 
Q 16.21875 41.5 20.09375 36.953125 
Q 23.96875 32.421875 30.609375 32.421875 
" id="BitstreamVeraSans-Roman-39"/>
      <path d="M 37.796875 64.3125 
L 12.890625 25.390625 
L 37.796875 25.390625 
z
M 35.203125 72.90625 
L 47.609375 72.90625 
L 47.609375 25.390625 
L 58.015625 25.390625 
L 58.015625 17.1875 
L 47.609375 17.1875 
L 47.609375 0 
L 37.796875 0 
L 37.796875 17.1875 
L 4.890625 17.1875 
L 4.890625 26.703125 
z
" id="BitstreamVeraSans-Roman-34"/>
      <path d="M 50.984375 -16.609375 
L 50.984375 -23.578125 
L -0.984375 -23.578125 
L -0.984375 -16.609375 
z
" id="BitstreamVeraSans-Roman-5f"/>
      <path d="M 30.609375 48.390625 
Q 23.390625 48.390625 19.1875 42.75 
Q 14.984375 37.109375 14.984375 27.296875 
Q 14.984375 17.484375 19.15625 11.84375 
Q 23.34375 6.203125 30.609375 6.203125 
Q 37.796875 6.203125 41.984375 11.859375 
Q 46.1875 17.53125 46.1875 27.296875 
Q 46.1875 37.015625 41.984375 42.703125 
Q 37.796875 48.390625 30.609375 48.390625 
M 30.609375 56 
Q 42.328125 56 49.015625 48.375 
Q 55.71875 40.765625 55.71875 27.296875 
Q 55.71875 13.875 49.015625 6.21875 
Q 42.328125 -1.421875 30.609375 -1.421875 
Q 18.84375 -1.421875 12.171875 6.21875 
Q 5.515625 13.875 5.515625 27.296875 
Q 5.515625 40.765625 12.171875 48.375 
Q 18.84375 56 30.609375 56 
" id="BitstreamVeraSans-Roman-6f"/>
      <path d="M 9.421875 75.984375 
L 18.40625 75.984375 
L 18.40625 0 
L 9.421875 0 
z
" id="BitstreamVeraSans-Roman-6c"/>
      <path d="M 56.203125 29.59375 
L 56.203125 25.203125 
L 14.890625 25.203125 
Q 15.484375 15.921875 20.484375 11.0625 
Q 25.484375 6.203125 34.421875 6.203125 
Q 39.59375 6.203125 44.453125 7.46875 
Q 49.3125 8.734375 54.109375 11.28125 
L 54.109375 2.78125 
Q 49.265625 0.734375 44.1875 -0.34375 
Q 39.109375 -1.421875 33.890625 -1.421875 
Q 20.796875 -1.421875 13.15625 6.1875 
Q 5.515625 13.8125 5.515625 26.8125 
Q 5.515625 40.234375 12.765625 48.109375 
Q 20.015625 56 32.328125 56 
Q 43.359375 56 49.78125 48.890625 
Q 56.203125 41.796875 56.203125 29.59375 
M 47.21875 32.234375 
Q 47.125 39.59375 43.09375 43.984375 
Q 39.0625 48.390625 32.421875 48.390625 
Q 24.90625 48.390625 20.390625 44.140625 
Q 15.875 39.890625 15.1875 32.171875 
z
" id="BitstreamVeraSans-Roman-65"/>
      <path d="M 4.203125 54.6875 
L 13.1875 54.6875 
L 24.421875 12.015625 
L 35.59375 54.6875 
L 46.1875 54.6875 
L 57.421875 12.015625 
L 68.609375 54.6875 
L 77.59375 54.6875 
L 63.28125 0 
L 52.6875 0 
L 40.921875 44.828125 
L 29.109375 0 
L 18.5 0 
z
" id="BitstreamVeraSans-Roman-77"/>
      <path d="M 45.40625 27.984375 
Q 45.40625 37.75 41.375 43.109375 
Q 37.359375 48.484375 30.078125 48.484375 
Q 22.859375 48.484375 18.828125 43.109375 
Q 14.796875 37.75 14.796875 27.984375 
Q 14.796875 18.265625 18.828125 12.890625 
Q 22.859375 7.515625 30.078125 7.515625 
Q 37.359375 7.515625 41.375 12.890625 
Q 45.40625 18.265625 45.40625 27.984375 
M 54.390625 6.78125 
Q 54.390625 -7.171875 48.1875 -13.984375 
Q 42 -20.796875 29.203125 -20.796875 
Q 24.46875 -20.796875 20.265625 -20.09375 
Q 16.0625 -19.390625 12.109375 -17.921875 
L 12.109375 -9.1875 
Q 16.0625 -11.328125 19.921875 -12.34375 
Q 23.78125 -13.375 27.78125 -13.375 
Q 36.625 -13.375 41.015625 -8.765625 
Q 45.40625 -4.15625 45.40625 5.171875 
L 45.40625 9.625 
Q 42.625 4.78125 38.28125 2.390625 
Q 33.9375 0 27.875 0 
Q 17.828125 0 11.671875 7.65625 
Q 5.515625 15.328125 5.515625 27.984375 
Q 5.515625 40.671875 11.671875 48.328125 
Q 17.828125 56 27.875 56 
Q 33.9375 56 38.28125 53.609375 
Q 42.625 51.21875 45.40625 46.390625 
L 45.40625 54.6875 
L 54.390625 54.6875 
z
" id="BitstreamVeraSans-Roman-67"/>
     </defs>
     <g transform="translate(109.198346036 21.118125)scale(0.12 -0.12)">
      <use xlink:href="#BitstreamVeraSans-Roman-5a"/>
      <use x="68.505859375" xlink:href="#BitstreamVeraSans-Roman-34"/>
      <use x="132.12890625" xlink:href="#BitstreamVeraSans-Roman-39"/>
      <use x="195.751953125" xlink:href="#BitstreamVeraSans-Roman-5f"/>
      <use x="245.751953125" xlink:href="#BitstreamVeraSans-Roman-6c"/>
      <use x="273.53515625" xlink:href="#BitstreamVeraSans-Roman-6f"/>
      <use x="334.716796875" xlink:href="#BitstreamVeraSans-Roman-77"/>
      <use x="416.50390625" xlink:href="#BitstreamVeraSans-Roman-5f"/>
      <use x="466.50390625" xlink:href="#BitstreamVeraSans-Roman-67"/>
      <use x="529.98046875" xlink:href="#BitstreamVeraSans-Roman-65"/>
      <use x="591.50390625" xlink:href="#BitstreamVeraSans-Roman-6f"/>
     </g>
    </g>
    <g id="PathCollection_8">
     <path d="M 79.198346 38.151693 
C 79.791358 38.151693 80.360162 37.916087 80.779485 37.496764 
C 81.198808 37.077441 81.434414 36.508637 81.434414 35.915625 
C 81.434414 35.322613 81.198808 34.753809 80.779485 34.334486 
C 80.360162 33.915163 79.791358 33.679557 79.198346 33.679557 
C 78.605334 33.679557 78.03653 33.915163 77.617207 34.334486 
C 77.197884 34.753809 76.962278 35.322613 76.962278 35.915625 
C 76.962278 36.508637 77.197884 37.077441 77.617207 37.496764 
C 78.03653 37.916087 78.605334 38.151693 79.198346 38.151693 
z
" style="fill:#ff0000;stroke:#ff0000;"/>
     <path d="M 87.598346 37.101693 
C 88.191358 37.101693 88.760162 36.866087 89.179485 36.446764 
C 89.598808 36.027441 89.834414 35.458637 89.834414 34.865625 
C 89.834414 34.272613 89.598808 33.703809 89.179485 33.284486 
C 88.760162 32.865163 88.191358 32.629557 87.598346 32.629557 
C 87.005334 32.629557 86.43653 32.865163 86.017207 33.284486 
C 85.597884 33.703809 85.362278 34.272613 85.362278 34.865625 
C 85.362278 35.458637 85.597884 36.027441 86.017207 36.446764 
C 86.43653 36.866087 87.005334 37.101693 87.598346 37.101693 
z
" style="fill:#ff0000;stroke:#ff0000;"/>
     <path d="M 95.998346 38.676693 
C 96.591358 38.676693 97.160162 38.441087 97.579485 38.021764 
C 97.998808 37.602441 98.234414 37.033637 98.234414 36.440625 
C 98.234414 35.847613 97.998808 35.278809 97.579485 34.859486 
C 97.160162 34.440163 96.591358 34.204557 95.998346 34.204557 
C 95.405334 34.204557 94.83653 34.440163 94.417207 34.859486 
C 93.997884 35.278809 93.762278 35.847613 93.762278 36.440625 
C 93.762278 37.033637 93.997884 37.602441 94.417207 38.021764 
C 94.83653 38.441087 95.405334 38.676693 95.998346 38.676693 
z
" style="fill:#ff0000;stroke:#ff0000;"/>
    </g>
    <g id="text_2">
     <!-- Z49_hem_tc -->
     <defs>
      <path d="M 52 44.1875 
Q 55.375 50.25 60.0625 53.125 
Q 64.75 56 71.09375 56 
Q 79.640625 56 84.28125 50.015625 
Q 88.921875 44.046875 88.921875 33.015625 
L 88.921875 0 
L 79.890625 0 
L 79.890625 32.71875 
Q 79.890625 40.578125 77.09375 44.375 
Q 74.3125 48.1875 68.609375 48.1875 
Q 61.625 48.1875 57.5625 43.546875 
Q 53.515625 38.921875 53.515625 30.90625 
L 53.515625 0 
L 44.484375 0 
L 44.484375 32.71875 
Q 44.484375 40.625 41.703125 44.40625 
Q 38.921875 48.1875 33.109375 48.1875 
Q 26.21875 48.1875 22.15625 43.53125 
Q 18.109375 38.875 18.109375 30.90625 
L 18.109375 0 
L 9.078125 0 
L 9.078125 54.6875 
L 18.109375 54.6875 
L 18.109375 46.1875 
Q 21.1875 51.21875 25.484375 53.609375 
Q 29.78125 56 35.6875 56 
Q 41.65625 56 45.828125 52.96875 
Q 50 49.953125 52 44.1875 
" id="BitstreamVeraSans-Roman-6d"/>
      <path d="M 18.3125 70.21875 
L 18.3125 54.6875 
L 36.8125 54.6875 
L 36.8125 47.703125 
L 18.3125 47.703125 
L 18.3125 18.015625 
Q 18.3125 11.328125 20.140625 9.421875 
Q 21.96875 7.515625 27.59375 7.515625 
L 36.8125 7.515625 
L 36.8125 0 
L 27.59375 0 
Q 17.1875 0 13.234375 3.875 
Q 9.28125 7.765625 9.28125 18.015625 
L 9.28125 47.703125 
L 2.6875 47.703125 
L 2.6875 54.6875 
L 9.28125 54.6875 
L 9.28125 70.21875 
z
" id="BitstreamVeraSans-Roman-74"/>
      <path d="M 54.890625 33.015625 
L 54.890625 0 
L 45.90625 0 
L 45.90625 32.71875 
Q 45.90625 40.484375 42.875 44.328125 
Q 39.84375 48.1875 33.796875 48.1875 
Q 26.515625 48.1875 22.3125 43.546875 
Q 18.109375 38.921875 18.109375 30.90625 
L 18.109375 0 
L 9.078125 0 
L 9.078125 75.984375 
L 18.109375 75.984375 
L 18.109375 46.1875 
Q 21.34375 51.125 25.703125 53.5625 
Q 30.078125 56 35.796875 56 
Q 45.21875 56 50.046875 50.171875 
Q 54.890625 44.34375 54.890625 33.015625 
" id="BitstreamVeraSans-Roman-68"/>
      <path d="M 48.78125 52.59375 
L 48.78125 44.1875 
Q 44.96875 46.296875 41.140625 47.34375 
Q 37.3125 48.390625 33.40625 48.390625 
Q 24.65625 48.390625 19.8125 42.84375 
Q 14.984375 37.3125 14.984375 27.296875 
Q 14.984375 17.28125 19.8125 11.734375 
Q 24.65625 6.203125 33.40625 6.203125 
Q 37.3125 6.203125 41.140625 7.25 
Q 44.96875 8.296875 48.78125 10.40625 
L 48.78125 2.09375 
Q 45.015625 0.34375 40.984375 -0.53125 
Q 36.96875 -1.421875 32.421875 -1.421875 
Q 20.0625 -1.421875 12.78125 6.34375 
Q 5.515625 14.109375 5.515625 27.296875 
Q 5.515625 40.671875 12.859375 48.328125 
Q 20.21875 56 33.015625 56 
Q 37.15625 56 41.109375 55.140625 
Q 45.0625 54.296875 48.78125 52.59375 
" id="BitstreamVeraSans-Roman-63"/>
     </defs>
     <g transform="translate(109.198346036 39.065625)scale(0.12 -0.12)">
      <use xlink:href="#BitstreamVeraSans-Roman-5a"/>
      <use x="68.505859375" xlink:href="#BitstreamVeraSans-Roman-34"/>
      <use x="132.12890625" xlink:href="#BitstreamVeraSans-Roman-39"/>
      <use x="195.751953125" xlink:href="#BitstreamVeraSans-Roman-5f"/>
      <use x="245.751953125" xlink:href="#BitstreamVeraSans-Roman-68"/>
      <use x="309.130859375" xlink:href="#BitstreamVeraSans-Roman-65"/>
      <use x="370.654296875" xlink:href="#BitstreamVeraSans-Roman-6d"/>
      <use x="468.06640625" xlink:href="#BitstreamVeraSans-Roman-5f"/>
      <use x="518.06640625" xlink:href="#BitstreamVeraSans-Roman-74"/>
      <use x="557.275390625" xlink:href="#BitstreamVeraSans-Roman-63"/>
     </g>
    </g>
    <g id="PathCollection_9">
     <path d="M 76.962278 56.099193 
L 81.434414 56.099193 
L 81.434414 51.627057 
L 76.962278 51.627057 
z
" style="fill:#ffffff;stroke:#0000ff;"/>
     <path d="M 85.362278 55.049193 
L 89.834414 55.049193 
L 89.834414 50.577057 
L 85.362278 50.577057 
z
" style="fill:#ffffff;stroke:#0000ff;"/>
     <path d="M 93.762278 56.624193 
L 98.234414 56.624193 
L 98.234414 52.152057 
L 93.762278 52.152057 
z
" style="fill:#ffffff;stroke:#0000ff;"/>
    </g>
    <g id="text_3">
     <!-- Z49_mag_tc_mean -->
     <defs>
      <path d="M 54.890625 33.015625 
L 54.890625 0 
L 45.90625 0 
L 45.90625 32.71875 
Q 45.90625 40.484375 42.875 44.328125 
Q 39.84375 48.1875 33.796875 48.1875 
Q 26.515625 48.1875 22.3125 43.546875 
Q 18.109375 38.921875 18.109375 30.90625 
L 18.109375 0 
L 9.078125 0 
L 9.078125 54.6875 
L 18.109375 54.6875 
L 18.109375 46.1875 
Q 21.34375 51.125 25.703125 53.5625 
Q 30.078125 56 35.796875 56 
Q 45.21875 56 50.046875 50.171875 
Q 54.890625 44.34375 54.890625 33.015625 
" id="BitstreamVeraSans-Roman-6e"/>
      <path d="M 34.28125 27.484375 
Q 23.390625 27.484375 19.1875 25 
Q 14.984375 22.515625 14.984375 16.5 
Q 14.984375 11.71875 18.140625 8.90625 
Q 21.296875 6.109375 26.703125 6.109375 
Q 34.1875 6.109375 38.703125 11.40625 
Q 43.21875 16.703125 43.21875 25.484375 
L 43.21875 27.484375 
z
M 52.203125 31.203125 
L 52.203125 0 
L 43.21875 0 
L 43.21875 8.296875 
Q 40.140625 3.328125 35.546875 0.953125 
Q 30.953125 -1.421875 24.3125 -1.421875 
Q 15.921875 -1.421875 10.953125 3.296875 
Q 6 8.015625 6 15.921875 
Q 6 25.140625 12.171875 29.828125 
Q 18.359375 34.515625 30.609375 34.515625 
L 43.21875 34.515625 
L 43.21875 35.40625 
Q 43.21875 41.609375 39.140625 45 
Q 35.0625 48.390625 27.6875 48.390625 
Q 23 48.390625 18.546875 47.265625 
Q 14.109375 46.140625 10.015625 43.890625 
L 10.015625 52.203125 
Q 14.9375 54.109375 19.578125 55.046875 
Q 24.21875 56 28.609375 56 
Q 40.484375 56 46.34375 49.84375 
Q 52.203125 43.703125 52.203125 31.203125 
" id="BitstreamVeraSans-Roman-61"/>
     </defs>
     <g transform="translate(109.198346036 57.013125)scale(0.12 -0.12)">
      <use xlink:href="#BitstreamVeraSans-Roman-5a"/>
      <use x="68.505859375" xlink:href="#BitstreamVeraSans-Roman-34"/>
      <use x="132.12890625" xlink:href="#BitstreamVeraSans-Roman-39"/>
      <use x="195.751953125" xlink:href="#BitstreamVeraSans-Roman-5f"/>
      <use x="245.751953125" xlink:href="#BitstreamVeraSans-Roman-6d"/>
      <use x="343.1640625" xlink:href="#BitstreamVeraSans-Roman-61"/>
      <use x="404.443359375" xlink:href="#BitstreamVeraSans-Roman-67"/>
      <use x="467.919921875" xlink:href="#BitstreamVeraSans-Roman-5f"/>
      <use x="517.919921875" xlink:href="#BitstreamVeraSans-Roman-74"/>
      <use x="557.12890625" xlink:href="#BitstreamVeraSans-Roman-63"/>
      <use x="612.109375" xlink:href="#BitstreamVeraSans-Roman-5f"/>
      <use x="662.109375" xlink:href="#BitstreamVeraSans-Roman-6d"/>
      <use x="759.521484375" xlink:href="#BitstreamVeraSans-Roman-65"/>
      <use x="821.044921875" xlink:href="#BitstreamVeraSans-Roman-61"/>
      <use x="882.32421875" xlink:href="#BitstreamVeraSans-Roman-6e"/>
     </g>
    </g>
    <g id="PathCollection_10">
     <path d="M 76.962278 74.046693 
L 81.434414 74.046693 
L 81.434414 69.574557 
L 76.962278 69.574557 
z
" style="fill:#ff0000;stroke:#ff0000;"/>
     <path d="M 85.362278 72.996693 
L 89.834414 72.996693 
L 89.834414 68.524557 
L 85.362278 68.524557 
z
" style="fill:#ff0000;stroke:#ff0000;"/>
     <path d="M 93.762278 74.571693 
L 98.234414 74.571693 
L 98.234414 70.099557 
L 93.762278 70.099557 
z
" style="fill:#ff0000;stroke:#ff0000;"/>
    </g>
    <g id="text_4">
     <!-- Z49_hem_tc_mean -->
     <g transform="translate(109.198346036 74.960625)scale(0.12 -0.12)">
      <use xlink:href="#BitstreamVeraSans-Roman-5a"/>
      <use x="68.505859375" xlink:href="#BitstreamVeraSans-Roman-34"/>
      <use x="132.12890625" xlink:href="#BitstreamVeraSans-Roman-39"/>
      <use x="195.751953125" xlink:href="#BitstreamVeraSans-Roman-5f"/>
      <use x="245.751953125" xlink:href="#BitstreamVeraSans-Roman-68"/>
      <use x="309.130859375" xlink:href="#BitstreamVeraSans-Roman-65"/>
      <use x="370.654296875" xlink:href="#BitstreamVeraSans-Roman-6d"/>
      <use x="468.06640625" xlink:href="#BitstreamVeraSans-Roman-5f"/>
      <use x="518.06640625" xlink:href="#BitstreamVeraSans-Roman-74"/>
      <use x="557.275390625" xlink:href="#BitstreamVeraSans-Roman-63"/>
      <use x="612.255859375" xlink:href="#BitstreamVeraSans-Roman-5f"/>
      <use x="662.255859375" xlink:href="#BitstreamVeraSans-Roman-6d"/>
      <use x="759.66796875" xlink:href="#BitstreamVeraSans-Roman-65"/>
      <use x="821.19140625" xlink:href="#BitstreamVeraSans-Roman-61"/>
      <use x="882.470703125" xlink:href="#BitstreamVeraSans-Roman-6e"/>
     </g>
    </g>
   </g>
  </g>
 </g>
 <defs>
  <clipPath id="p597394a23d">
   <rect height="253.4" width="235.436890242" x="35.4828125" y="19.24"/>
  </clipPath>
 </defs>
</svg>
