<?xml version="1.0" encoding="utf-8" standalone="no"?>
<!DOCTYPE svg PUBLIC "-//W3C//DTD SVG 1.1//EN"
  "http://www.w3.org/Graphics/SVG/1.1/DTD/svg11.dtd">
<!-- Created with matplotlib (http://matplotlib.org/) -->
<svg height="306pt" version="1.1" viewBox="0 0 280 306" width="280pt" xmlns="http://www.w3.org/2000/svg" xmlns:xlink="http://www.w3.org/1999/xlink">
 <defs>
  <style type="text/css">
*{stroke-linecap:butt;stroke-linejoin:round;stroke-miterlimit:100000;}
  </style>
 </defs>
 <g id="figure_1">
  <g id="patch_1">
   <path d="M 0 306.188125 
L 280.465621 306.188125 
L 280.465621 0 
L 0 0 
L 0 306.188125 
z
" style="fill:none;"/>
  </g>
  <g id="axes_1">
   <g id="PathCollection_1">
    <defs>
     <path d="M 0 2.236068 
C 0.593012 2.236068 1.161816 2.000462 1.581139 1.581139 
C 2.000462 1.161816 2.236068 0.593012 2.236068 0 
C 2.236068 -0.593012 2.000462 -1.161816 1.581139 -1.581139 
C 1.161816 -2.000462 0.593012 -2.236068 0 -2.236068 
C -0.593012 -2.236068 -1.161816 -2.000462 -1.581139 -1.581139 
C -2.000462 -1.161816 -2.236068 -0.593012 -2.236068 0 
C -2.236068 0.593012 -2.000462 1.161816 -1.581139 1.581139 
C -1.161816 2.000462 -0.593012 2.236068 0 2.236068 
z
" id="mc731e33a7d" style="stroke:#008000;"/>
    </defs>
    <g clip-path="url(#p5d2944c90d)">
     <use style="fill:#008000;stroke:#008000;" x="150.007743933" xlink:href="#mc731e33a7d" y="127.745267951"/>
     <use style="fill:#008000;stroke:#008000;" x="155.089600092" xlink:href="#mc731e33a7d" y="127.774047819"/>
     <use style="fill:#008000;stroke:#008000;" x="156.543689087" xlink:href="#mc731e33a7d" y="132.550513549"/>
     <use style="fill:#008000;stroke:#008000;" x="164.165150435" xlink:href="#mc731e33a7d" y="131.91034372"/>
     <use style="fill:#008000;stroke:#008000;" x="150.520917313" xlink:href="#mc731e33a7d" y="131.789703791"/>
     <use style="fill:#008000;stroke:#008000;" x="154.702087621" xlink:href="#mc731e33a7d" y="136.622245773"/>
     <use style="fill:#008000;stroke:#008000;" x="156.047334381" xlink:href="#mc731e33a7d" y="129.619363791"/>
    </g>
   </g>
   <g id="PathCollection_2">
    <defs>
     <path d="M 0 2.236068 
C 0.593012 2.236068 1.161816 2.000462 1.581139 1.581139 
C 2.000462 1.161816 2.236068 0.593012 2.236068 0 
C 2.236068 -0.593012 2.000462 -1.161816 1.581139 -1.581139 
C 1.161816 -2.000462 0.593012 -2.236068 0 -2.236068 
C -0.593012 -2.236068 -1.161816 -2.000462 -1.581139 -1.581139 
C -2.000462 -1.161816 -2.236068 -0.593012 -2.236068 0 
C -2.236068 0.593012 -2.000462 1.161816 -1.581139 1.581139 
C -1.161816 2.000462 -0.593012 2.236068 0 2.236068 
z
" id="C0_0_6057d3ed1b"/>
    </defs>
    <g clip-path="url(#p5d2944c90d)">
     <use style="fill:none;stroke:#0000ff;" x="82.2312327295" xlink:href="#C0_0_6057d3ed1b" y="198.713218251"/>
    </g>
    <g clip-path="url(#p5d2944c90d)">
     <use style="fill:none;stroke:#0000ff;" x="86.149405099" xlink:href="#C0_0_6057d3ed1b" y="187.036600745"/>
    </g>
    <g clip-path="url(#p5d2944c90d)">
     <use style="fill:none;stroke:#0000ff;" x="89.2327522001" xlink:href="#C0_0_6057d3ed1b" y="191.30382864"/>
    </g>
    <g clip-path="url(#p5d2944c90d)">
     <use style="fill:none;stroke:#0000ff;" x="79.0288987997" xlink:href="#C0_0_6057d3ed1b" y="191.283424163"/>
    </g>
    <g clip-path="url(#p5d2944c90d)">
     <use style="fill:none;stroke:#0000ff;" x="119.300158947" xlink:href="#C0_0_6057d3ed1b" y="211.758210725"/>
    </g>
    <g clip-path="url(#p5d2944c90d)">
     <use style="fill:none;stroke:#0000ff;" x="75.0844516538" xlink:href="#C0_0_6057d3ed1b" y="190.449427447"/>
    </g>
    <g clip-path="url(#p5d2944c90d)">
     <use style="fill:none;stroke:#0000ff;" x="75.6888694332" xlink:href="#C0_0_6057d3ed1b" y="182.722543882"/>
    </g>
    <g clip-path="url(#p5d2944c90d)">
     <use style="fill:none;stroke:#0000ff;" x="77.1509464878" xlink:href="#C0_0_6057d3ed1b" y="180.965124697"/>
    </g>
   </g>
   <g id="PathCollection_3">
    <defs>
     <path d="M 0 2.236068 
C 0.593012 2.236068 1.161816 2.000462 1.581139 1.581139 
C 2.000462 1.161816 2.236068 0.593012 2.236068 0 
C 2.236068 -0.593012 2.000462 -1.161816 1.581139 -1.581139 
C 1.161816 -2.000462 0.593012 -2.236068 0 -2.236068 
C -0.593012 -2.236068 -1.161816 -2.000462 -1.581139 -1.581139 
C -2.000462 -1.161816 -2.236068 -0.593012 -2.236068 0 
C -2.236068 0.593012 -2.000462 1.161816 -1.581139 1.581139 
C -1.161816 2.000462 -0.593012 2.236068 0 2.236068 
z
" id="C1_0_b8f8fedf50"/>
    </defs>
    <g clip-path="url(#p5d2944c90d)">
     <use style="fill:none;stroke:#ff0000;" x="185.235729665" xlink:href="#C1_0_b8f8fedf50" y="264.58199521"/>
    </g>
    <g clip-path="url(#p5d2944c90d)">
     <use style="fill:none;stroke:#ff0000;" x="99.6703851611" xlink:href="#C1_0_b8f8fedf50" y="210.966430593"/>
    </g>
    <g clip-path="url(#p5d2944c90d)">
     <use style="fill:none;stroke:#ff0000;" x="147.4230218" xlink:href="#C1_0_b8f8fedf50" y="205.611702096"/>
    </g>
    <g clip-path="url(#p5d2944c90d)">
     <use style="fill:none;stroke:#ff0000;" x="84.7557536623" xlink:href="#C1_0_b8f8fedf50" y="100.017706824"/>
    </g>
    <g clip-path="url(#p5d2944c90d)">
     <use style="fill:none;stroke:#ff0000;" x="125.068757099" xlink:href="#C1_0_b8f8fedf50" y="74.6348716671"/>
    </g>
    <g clip-path="url(#p5d2944c90d)">
     <use style="fill:none;stroke:#ff0000;" x="149.737792193" xlink:href="#C1_0_b8f8fedf50" y="257.66788201"/>
    </g>
   </g>
   <g id="PathCollection_4">
    <defs>
     <path d="M 0 2.236068 
C 0.593012 2.236068 1.161816 2.000462 1.581139 1.581139 
C 2.000462 1.161816 2.236068 0.593012 2.236068 0 
C 2.236068 -0.593012 2.000462 -1.161816 1.581139 -1.581139 
C 1.161816 -2.000462 0.593012 -2.236068 0 -2.236068 
C -0.593012 -2.236068 -1.161816 -2.000462 -1.581139 -1.581139 
C -2.000462 -1.161816 -2.236068 -0.593012 -2.236068 0 
C -2.236068 0.593012 -2.000462 1.161816 -1.581139 1.581139 
C -1.161816 2.000462 -0.593012 2.236068 0 2.236068 
z
" id="mc2521d5fb9" style="stroke:#ff0000;"/>
    </defs>
    <g clip-path="url(#p5d2944c90d)">
     <use style="fill:#ff0000;stroke:#ff0000;" x="110.269453225" xlink:href="#mc2521d5fb9" y="256.29034764"/>
     <use style="fill:#ff0000;stroke:#ff0000;" x="127.467224588" xlink:href="#mc2521d5fb9" y="264.850101313"/>
    </g>
   </g>
   <g id="PathCollection_5">
    <defs>
     <path d="M -2.236068 2.236068 
L 2.236068 2.236068 
L 2.236068 -2.236068 
L -2.236068 -2.236068 
z
" id="m6f6fe8ed8e" style="stroke:#0000ff;"/>
    </defs>
    <g clip-path="url(#p5d2944c90d)">
     <use style="fill:#ffffff;stroke:#0000ff;" x="84.7538009099" xlink:href="#m6f6fe8ed8e" y="192.42940752"/>
    </g>
   </g>
   <g id="line2d_1">
    <path clip-path="url(#p5d2944c90d)" d="M 153.201256 46.635935 
L 159.068786 46.789392 
L 164.920235 47.249341 
L 170.739562 48.014522 
L 176.510818 49.082837 
L 182.218184 50.451359 
L 187.846017 52.116336 
L 193.378891 54.073205 
L 198.801641 56.316602 
L 204.099403 58.840378 
L 209.257657 61.637615 
L 214.262264 64.700648 
L 219.099508 68.021079 
L 223.756129 71.589808 
L 228.219364 75.397053 
L 232.476979 79.43238 
L 236.517305 83.684726 
L 240.329268 88.142438 
L 243.902419 92.793296 
L 247.226964 97.624553 
L 250.293791 102.622968 
L 253.094495 107.774838 
L 255.621398 113.066045 
L 257.867574 118.482084 
L 259.826868 124.008111 
L 261.493908 129.62898 
L 262.864125 135.329283 
L 263.933764 141.093397 
L 264.699893 146.905523 
L 265.160412 152.74973 
L 265.314059 158.61 
L 265.160412 164.47027 
L 264.699893 170.314477 
L 263.933764 176.126603 
L 262.864125 181.890717 
L 261.493908 187.59102 
L 259.826868 193.211889 
L 257.867574 198.737916 
L 255.621398 204.153955 
L 253.094495 209.445162 
L 250.293791 214.597032 
L 247.226964 219.595447 
L 243.902419 224.426704 
L 240.329268 229.077562 
L 236.517305 233.535274 
L 232.476979 237.78762 
L 228.219364 241.822947 
L 223.756129 245.630192 
L 219.099508 249.198921 
L 214.262264 252.519352 
L 209.257657 255.582385 
L 204.099403 258.379622 
L 198.801641 260.903398 
L 193.378891 263.146795 
L 187.846017 265.103664 
L 182.218184 266.768641 
L 176.510818 268.137163 
L 170.739562 269.205478 
L 164.920235 269.970659 
L 159.068786 270.430608 
L 153.201256 270.584065 
L 147.333725 270.430608 
L 141.482277 269.970659 
L 135.662949 269.205478 
L 129.891693 268.137163 
L 124.184327 266.768641 
L 118.556494 265.103664 
L 113.02362 263.146795 
L 107.600871 260.903398 
L 102.303108 258.379622 
L 97.144854 255.582385 
L 92.140247 252.519352 
L 87.303003 249.198921 
L 82.646383 245.630192 
L 78.183148 241.822947 
L 73.925532 237.78762 
L 69.885206 233.535274 
L 66.073244 229.077562 
L 62.500093 224.426704 
L 59.175547 219.595447 
L 56.10872 214.597032 
L 53.308017 209.445162 
L 50.781114 204.153955 
L 48.534937 198.737916 
L 46.575644 193.211889 
L 44.908604 187.59102 
L 43.538386 181.890717 
L 42.468747 176.126603 
L 41.702618 170.314477 
L 41.242099 164.47027 
L 41.088453 158.61 
L 41.242099 152.74973 
L 41.702618 146.905523 
L 42.468747 141.093397 
L 43.538386 135.329283 
L 44.908604 129.62898 
L 46.575644 124.008111 
L 48.534937 118.482084 
L 50.781114 113.066045 
L 53.308017 107.774838 
L 56.10872 102.622968 
L 59.175547 97.624553 
L 62.500093 92.793296 
L 66.073244 88.142438 
L 69.885206 83.684726 
L 73.925532 79.43238 
L 78.183148 75.397053 
L 82.646383 71.589808 
L 87.303003 68.021079 
L 92.140247 64.700648 
L 97.144854 61.637615 
L 102.303108 58.840378 
L 107.600871 56.316602 
L 113.02362 54.073205 
L 118.556494 52.116336 
L 124.184327 50.451359 
L 129.891693 49.082837 
L 135.662949 48.014522 
L 141.482277 47.249341 
L 147.333725 46.789392 
L 153.201256 46.635935 
L 153.201256 46.635935 
" style="fill:none;stroke:#000000;stroke-linecap:square;"/>
   </g>
   <g id="line2d_2">
    <defs>
     <path d="M -3 0 
L 3 0 
M 0 3 
L 0 -3 
" id="m59c0ea9c3d" style="stroke:#000000;stroke-width:0.5;"/>
    </defs>
    <g clip-path="url(#p5d2944c90d)">
     <use style="stroke:#000000;stroke-width:0.5;" x="153.201255656" xlink:href="#m59c0ea9c3d" y="56.8212132669"/>
     <use style="stroke:#000000;stroke-width:0.5;" x="153.201255656" xlink:href="#m59c0ea9c3d" y="67.7811652884"/>
     <use style="stroke:#000000;stroke-width:0.5;" x="153.201255656" xlink:href="#m59c0ea9c3d" y="79.432379586"/>
     <use style="stroke:#000000;stroke-width:0.5;" x="153.201255656" xlink:href="#m59c0ea9c3d" y="91.6861833838"/>
     <use style="stroke:#000000;stroke-width:0.5;" x="153.201255656" xlink:href="#m59c0ea9c3d" y="104.449317836"/>
     <use style="stroke:#000000;stroke-width:0.5;" x="153.201255656" xlink:href="#m59c0ea9c3d" y="117.624647782"/>
     <use style="stroke:#000000;stroke-width:0.5;" x="153.201255656" xlink:href="#m59c0ea9c3d" y="131.111901006"/>
     <use style="stroke:#000000;stroke-width:0.5;" x="153.201255656" xlink:href="#m59c0ea9c3d" y="144.808431368"/>
     <use style="stroke:#000000;stroke-width:0.5;" x="153.201255656" xlink:href="#m59c0ea9c3d" y="158.61"/>
    </g>
   </g>
   <g id="line2d_3">
    <g clip-path="url(#p5d2944c90d)">
     <use style="stroke:#000000;stroke-width:0.5;" x="255.11616098" xlink:href="#m59c0ea9c3d" y="158.61"/>
     <use style="stroke:#000000;stroke-width:0.5;" x="244.142629332" xlink:href="#m59c0ea9c3d" y="158.61"/>
     <use style="stroke:#000000;stroke-width:0.5;" x="232.476978919" xlink:href="#m59c0ea9c3d" y="158.61"/>
     <use style="stroke:#000000;stroke-width:0.5;" x="220.207992383" xlink:href="#m59c0ea9c3d" y="158.61"/>
     <use style="stroke:#000000;stroke-width:0.5;" x="207.429044121" xlink:href="#m59c0ea9c3d" y="158.61"/>
     <use style="stroke:#000000;stroke-width:0.5;" x="194.237389645" xlink:href="#m59c0ea9c3d" y="158.61"/>
     <use style="stroke:#000000;stroke-width:0.5;" x="180.733425411" xlink:href="#m59c0ea9c3d" y="158.61"/>
     <use style="stroke:#000000;stroke-width:0.5;" x="167.019924741" xlink:href="#m59c0ea9c3d" y="158.61"/>
    </g>
   </g>
   <g id="line2d_4">
    <g clip-path="url(#p5d2944c90d)">
     <use style="stroke:#000000;stroke-width:0.5;" x="153.201255656" xlink:href="#m59c0ea9c3d" y="260.398786733"/>
     <use style="stroke:#000000;stroke-width:0.5;" x="153.201255656" xlink:href="#m59c0ea9c3d" y="249.438834712"/>
     <use style="stroke:#000000;stroke-width:0.5;" x="153.201255656" xlink:href="#m59c0ea9c3d" y="237.787620414"/>
     <use style="stroke:#000000;stroke-width:0.5;" x="153.201255656" xlink:href="#m59c0ea9c3d" y="225.533816616"/>
     <use style="stroke:#000000;stroke-width:0.5;" x="153.201255656" xlink:href="#m59c0ea9c3d" y="212.770682164"/>
     <use style="stroke:#000000;stroke-width:0.5;" x="153.201255656" xlink:href="#m59c0ea9c3d" y="199.595352218"/>
     <use style="stroke:#000000;stroke-width:0.5;" x="153.201255656" xlink:href="#m59c0ea9c3d" y="186.108098994"/>
     <use style="stroke:#000000;stroke-width:0.5;" x="153.201255656" xlink:href="#m59c0ea9c3d" y="172.411568632"/>
    </g>
   </g>
   <g id="line2d_5">
    <g clip-path="url(#p5d2944c90d)">
     <use style="stroke:#000000;stroke-width:0.5;" x="51.2863503309" xlink:href="#m59c0ea9c3d" y="158.61"/>
     <use style="stroke:#000000;stroke-width:0.5;" x="62.259881979" xlink:href="#m59c0ea9c3d" y="158.61"/>
     <use style="stroke:#000000;stroke-width:0.5;" x="73.9255323927" xlink:href="#m59c0ea9c3d" y="158.61"/>
     <use style="stroke:#000000;stroke-width:0.5;" x="86.1945189284" xlink:href="#m59c0ea9c3d" y="158.61"/>
     <use style="stroke:#000000;stroke-width:0.5;" x="98.9734671904" xlink:href="#m59c0ea9c3d" y="158.61"/>
     <use style="stroke:#000000;stroke-width:0.5;" x="112.165121666" xlink:href="#m59c0ea9c3d" y="158.61"/>
     <use style="stroke:#000000;stroke-width:0.5;" x="125.6690859" xlink:href="#m59c0ea9c3d" y="158.61"/>
     <use style="stroke:#000000;stroke-width:0.5;" x="139.38258657" xlink:href="#m59c0ea9c3d" y="158.61"/>
    </g>
   </g>
   <g id="line2d_6">
    <path clip-path="url(#p5d2944c90d)" d="M 153.201256 46.635935 
L 153.201256 47.617345 
L 153.201256 48.607206 
L 153.201256 49.605445 
" style="fill:none;stroke:#000000;stroke-linecap:square;"/>
   </g>
   <g id="line2d_7">
    <path clip-path="url(#p5d2944c90d)" d="M 172.66944 48.337073 
L 172.498809 49.303572 
L 172.326708 50.278396 
L 172.153151 51.26147 
" style="fill:none;stroke:#000000;stroke-linecap:square;"/>
   </g>
   <g id="line2d_8">
    <path clip-path="url(#p5d2944c90d)" d="M 191.546093 53.388798 
L 191.210015 54.311021 
L 190.871043 55.241187 
L 190.529202 56.179224 
" style="fill:none;stroke:#000000;stroke-linecap:square;"/>
   </g>
   <g id="line2d_9">
    <path clip-path="url(#p5d2944c90d)" d="M 209.257657 61.637615 
L 208.766345 62.487541 
L 208.2708 63.344786 
L 207.771063 64.209287 
" style="fill:none;stroke:#000000;stroke-linecap:square;"/>
   </g>
   <g id="line2d_10">
    <path clip-path="url(#p5d2944c90d)" d="M 225.265976 72.83289 
L 224.634357 73.584693 
L 223.997298 74.342971 
L 223.354847 75.107667 
" style="fill:none;stroke:#000000;stroke-linecap:square;"/>
   </g>
   <g id="line2d_11">
    <path clip-path="url(#p5d2944c90d)" d="M 239.084645 86.634459 
L 238.331911 87.265296 
L 237.572693 87.901567 
L 236.80705 88.543223 
" style="fill:none;stroke:#000000;stroke-linecap:square;"/>
   </g>
   <g id="line2d_12">
    <path clip-path="url(#p5d2944c90d)" d="M 250.293791 102.622968 
L 249.442813 103.113672 
L 248.584505 103.608603 
L 247.718934 104.107723 
" style="fill:none;stroke:#000000;stroke-linecap:square;"/>
   </g>
   <g id="line2d_13">
    <path clip-path="url(#p5d2944c90d)" d="M 258.552829 120.312614 
L 257.629464 120.648276 
L 256.698145 120.986829 
L 255.758945 121.328247 
" style="fill:none;stroke:#000000;stroke-linecap:square;"/>
   </g>
   <g id="line2d_14">
    <path clip-path="url(#p5d2944c90d)" d="M 263.610813 139.165908 
L 262.643116 139.336328 
L 261.667085 139.508215 
L 260.682793 139.681558 
" style="fill:none;stroke:#000000;stroke-linecap:square;"/>
   </g>
   <g id="line2d_15">
    <path clip-path="url(#p5d2944c90d)" d="M 265.314059 158.61 
L 264.331433 158.61 
L 263.340345 158.61 
L 262.340869 158.61 
" style="fill:none;stroke:#000000;stroke-linecap:square;"/>
   </g>
   <g id="line2d_16">
    <path clip-path="url(#p5d2944c90d)" d="M 263.610813 178.054092 
L 262.643116 177.883672 
L 261.667085 177.711785 
L 260.682793 177.538442 
" style="fill:none;stroke:#000000;stroke-linecap:square;"/>
   </g>
   <g id="line2d_17">
    <path clip-path="url(#p5d2944c90d)" d="M 258.552829 196.907386 
L 257.629464 196.571724 
L 256.698145 196.233171 
L 255.758945 195.891753 
" style="fill:none;stroke:#000000;stroke-linecap:square;"/>
   </g>
   <g id="line2d_18">
    <path clip-path="url(#p5d2944c90d)" d="M 250.293791 214.597032 
L 249.442813 214.106328 
L 248.584505 213.611397 
L 247.718934 213.112277 
" style="fill:none;stroke:#000000;stroke-linecap:square;"/>
   </g>
   <g id="line2d_19">
    <path clip-path="url(#p5d2944c90d)" d="M 239.084645 230.585541 
L 238.331911 229.954704 
L 237.572693 229.318433 
L 236.80705 228.676777 
" style="fill:none;stroke:#000000;stroke-linecap:square;"/>
   </g>
   <g id="line2d_20">
    <path clip-path="url(#p5d2944c90d)" d="M 225.265976 244.38711 
L 224.634357 243.635307 
L 223.997298 242.877029 
L 223.354847 242.112333 
" style="fill:none;stroke:#000000;stroke-linecap:square;"/>
   </g>
   <g id="line2d_21">
    <path clip-path="url(#p5d2944c90d)" d="M 209.257657 255.582385 
L 208.766345 254.732459 
L 208.2708 253.875214 
L 207.771063 253.010713 
" style="fill:none;stroke:#000000;stroke-linecap:square;"/>
   </g>
   <g id="line2d_22">
    <path clip-path="url(#p5d2944c90d)" d="M 191.546093 263.831202 
L 191.210015 262.908979 
L 190.871043 261.978813 
L 190.529202 261.040776 
" style="fill:none;stroke:#000000;stroke-linecap:square;"/>
   </g>
   <g id="line2d_23">
    <path clip-path="url(#p5d2944c90d)" d="M 172.66944 268.882927 
L 172.498809 267.916428 
L 172.326708 266.941604 
L 172.153151 265.95853 
" style="fill:none;stroke:#000000;stroke-linecap:square;"/>
   </g>
   <g id="line2d_24">
    <path clip-path="url(#p5d2944c90d)" d="M 153.201256 270.584065 
L 153.201256 269.602655 
L 153.201256 268.612794 
L 153.201256 267.614555 
" style="fill:none;stroke:#000000;stroke-linecap:square;"/>
   </g>
   <g id="line2d_25">
    <path clip-path="url(#p5d2944c90d)" d="M 133.733072 268.882927 
L 133.903703 267.916428 
L 134.075803 266.941604 
L 134.249361 265.95853 
" style="fill:none;stroke:#000000;stroke-linecap:square;"/>
   </g>
   <g id="line2d_26">
    <path clip-path="url(#p5d2944c90d)" d="M 114.856419 263.831202 
L 115.192496 262.908979 
L 115.531468 261.978813 
L 115.873309 261.040776 
" style="fill:none;stroke:#000000;stroke-linecap:square;"/>
   </g>
   <g id="line2d_27">
    <path clip-path="url(#p5d2944c90d)" d="M 97.144854 255.582385 
L 97.636167 254.732459 
L 98.131711 253.875214 
L 98.631449 253.010713 
" style="fill:none;stroke:#000000;stroke-linecap:square;"/>
   </g>
   <g id="line2d_28">
    <path clip-path="url(#p5d2944c90d)" d="M 81.136535 244.38711 
L 81.768154 243.635307 
L 82.405214 242.877029 
L 83.047664 242.112333 
" style="fill:none;stroke:#000000;stroke-linecap:square;"/>
   </g>
   <g id="line2d_29">
    <path clip-path="url(#p5d2944c90d)" d="M 67.317866 230.585541 
L 68.070601 229.954704 
L 68.829818 229.318433 
L 69.595461 228.676777 
" style="fill:none;stroke:#000000;stroke-linecap:square;"/>
   </g>
   <g id="line2d_30">
    <path clip-path="url(#p5d2944c90d)" d="M 56.10872 214.597032 
L 56.959699 214.106328 
L 57.818006 213.611397 
L 58.683578 213.112277 
" style="fill:none;stroke:#000000;stroke-linecap:square;"/>
   </g>
   <g id="line2d_31">
    <path clip-path="url(#p5d2944c90d)" d="M 47.849682 196.907386 
L 48.773048 196.571724 
L 49.704366 196.233171 
L 50.643566 195.891753 
" style="fill:none;stroke:#000000;stroke-linecap:square;"/>
   </g>
   <g id="line2d_32">
    <path clip-path="url(#p5d2944c90d)" d="M 42.791698 178.054092 
L 43.759395 177.883672 
L 44.735426 177.711785 
L 45.719718 177.538442 
" style="fill:none;stroke:#000000;stroke-linecap:square;"/>
   </g>
   <g id="line2d_33">
    <path clip-path="url(#p5d2944c90d)" d="M 41.088453 158.61 
L 42.071078 158.61 
L 43.062166 158.61 
L 44.061642 158.61 
" style="fill:none;stroke:#000000;stroke-linecap:square;"/>
   </g>
   <g id="line2d_34">
    <path clip-path="url(#p5d2944c90d)" d="M 42.791698 139.165908 
L 43.759395 139.336328 
L 44.735426 139.508215 
L 45.719718 139.681558 
" style="fill:none;stroke:#000000;stroke-linecap:square;"/>
   </g>
   <g id="line2d_35">
    <path clip-path="url(#p5d2944c90d)" d="M 47.849682 120.312614 
L 48.773048 120.648276 
L 49.704366 120.986829 
L 50.643566 121.328247 
" style="fill:none;stroke:#000000;stroke-linecap:square;"/>
   </g>
   <g id="line2d_36">
    <path clip-path="url(#p5d2944c90d)" d="M 56.10872 102.622968 
L 56.959699 103.113672 
L 57.818006 103.608603 
L 58.683578 104.107723 
" style="fill:none;stroke:#000000;stroke-linecap:square;"/>
   </g>
   <g id="line2d_37">
    <path clip-path="url(#p5d2944c90d)" d="M 67.317866 86.634459 
L 68.070601 87.265296 
L 68.829818 87.901567 
L 69.595461 88.543223 
" style="fill:none;stroke:#000000;stroke-linecap:square;"/>
   </g>
   <g id="line2d_38">
    <path clip-path="url(#p5d2944c90d)" d="M 81.136535 72.83289 
L 81.768154 73.584693 
L 82.405214 74.342971 
L 83.047664 75.107667 
" style="fill:none;stroke:#000000;stroke-linecap:square;"/>
   </g>
   <g id="line2d_39">
    <path clip-path="url(#p5d2944c90d)" d="M 97.144854 61.637615 
L 97.636167 62.487541 
L 98.131711 63.344786 
L 98.631449 64.209287 
" style="fill:none;stroke:#000000;stroke-linecap:square;"/>
   </g>
   <g id="line2d_40">
    <path clip-path="url(#p5d2944c90d)" d="M 114.856419 53.388798 
L 115.192496 54.311021 
L 115.531468 55.241187 
L 115.873309 56.179224 
" style="fill:none;stroke:#000000;stroke-linecap:square;"/>
   </g>
   <g id="line2d_41">
    <path clip-path="url(#p5d2944c90d)" d="M 133.733072 48.337073 
L 133.903703 49.303572 
L 134.075803 50.278396 
L 134.249361 51.26147 
" style="fill:none;stroke:#000000;stroke-linecap:square;"/>
   </g>
   <g id="line2d_42">
    <path clip-path="url(#p5d2944c90d)" d="M 79.601275 180.572949 
L 79.039267 180.843421 
L 78.498971 181.160191 
L 77.982709 181.522339 
L 77.492744 181.928744 
L 77.031267 182.378085 
L 76.600389 182.868835 
L 76.202126 183.399268 
L 75.838385 183.967462 
L 75.510954 184.571296 
L 75.221487 185.208464 
L 74.971493 185.876476 
L 74.762323 186.572671 
L 74.595158 187.294222 
L 74.470999 188.038154 
L 74.390657 188.801351 
L 74.35474 189.580574 
L 74.363652 190.37248 
L 74.417581 191.173634 
L 74.516493 191.980531 
L 74.660134 192.789614 
L 74.848023 193.597297 
L 75.079454 194.399985 
L 75.353499 195.194095 
L 75.669008 195.976076 
L 76.024618 196.742435 
L 76.418761 197.489757 
L 76.849669 198.21472 
L 77.315389 198.914124 
L 77.813793 199.584903 
L 78.342592 200.224145 
L 78.899354 200.829108 
L 79.481515 201.397234 
L 80.086401 201.926164 
L 80.711242 202.413744 
L 81.35319 202.85804 
L 82.009339 203.257341 
L 82.676741 203.610167 
L 83.352428 203.915272 
L 84.033421 204.171643 
L 84.716756 204.378505 
L 85.399494 204.535313 
L 86.078738 204.641756 
L 86.751649 204.697747 
L 87.415455 204.703419 
L 88.067468 204.659121 
L 88.705091 204.565403 
L 89.325831 204.423017 
L 89.927303 204.232901 
L 90.507243 203.99617 
L 91.063511 203.714109 
L 91.594098 203.388161 
L 92.097128 203.019916 
L 92.570864 202.611101 
L 93.013709 202.163571 
L 93.424209 201.679294 
L 93.801051 201.160347 
L 94.143067 200.608903 
L 94.449232 200.027219 
L 94.718662 199.41763 
L 94.950614 198.78254 
L 95.144486 198.12441 
L 95.299811 197.445753 
L 95.416259 196.749122 
L 95.49363 196.037108 
L 95.531857 195.312325 
L 95.530999 194.577411 
L 95.491237 193.835012 
L 95.412878 193.087783 
L 95.296342 192.338378 
L 95.14217 191.589446 
L 94.951012 190.843619 
L 94.723628 190.103513 
L 94.460887 189.371721 
L 94.163759 188.650803 
L 93.833316 187.943283 
L 93.47073 187.251645 
L 93.077267 186.578325 
L 92.654285 185.925706 
L 92.203232 185.296114 
L 91.725646 184.691809 
L 91.223145 184.114983 
L 90.697433 183.56775 
L 90.150288 183.052145 
L 89.583567 182.570113 
L 88.999197 182.123507 
L 88.399174 181.714079 
L 87.785562 181.343475 
L 87.160483 181.013228 
L 86.526119 180.72475 
L 85.884703 180.47933 
L 85.238517 180.278122 
L 84.589886 180.122141 
L 83.941174 180.012255 
L 83.294775 179.949179 
L 82.653108 179.933471 
L 82.018612 179.965519 
L 81.393734 180.045543 
L 80.780925 180.173583 
L 80.182629 180.349495 
L 79.601275 180.572949 
" style="fill:none;stroke:#0000ff;stroke-linecap:square;"/>
   </g>
   <g id="legend_1">
    <g id="patch_2">
     <path d="M 70.798345 82.59 
L 227.48272 82.59 
L 227.48272 7.2 
L 70.798345 7.2 
z
" style="fill:#ffffff;stroke:#000000;stroke-linejoin:miter;"/>
    </g>
    <g id="PathCollection_6">
     <path d="M 79.198345 20.204193 
C 79.791358 20.204193 80.360161 19.968587 80.779484 19.549264 
C 81.198807 19.129941 81.434413 18.561137 81.434413 17.968125 
C 81.434413 17.375113 81.198807 16.806309 80.779484 16.386986 
C 80.360161 15.967663 79.791358 15.732057 79.198345 15.732057 
C 78.605333 15.732057 78.03653 15.967663 77.617207 16.386986 
C 77.197884 16.806309 76.962277 17.375113 76.962277 17.968125 
C 76.962277 18.561137 77.197884 19.129941 77.617207 19.549264 
C 78.03653 19.968587 78.605333 20.204193 79.198345 20.204193 
z
" style="fill:#008000;stroke:#008000;"/>
     <path d="M 87.598345 19.154193 
C 88.191358 19.154193 88.760161 18.918587 89.179484 18.499264 
C 89.598807 18.079941 89.834413 17.511137 89.834413 16.918125 
C 89.834413 16.325113 89.598807 15.756309 89.179484 15.336986 
C 88.760161 14.917663 88.191358 14.682057 87.598345 14.682057 
C 87.005333 14.682057 86.43653 14.917663 86.017207 15.336986 
C 85.597884 15.756309 85.362277 16.325113 85.362277 16.918125 
C 85.362277 17.511137 85.597884 18.079941 86.017207 18.499264 
C 86.43653 18.918587 87.005333 19.154193 87.598345 19.154193 
z
" style="fill:#008000;stroke:#008000;"/>
     <path d="M 95.998345 20.729193 
C 96.591358 20.729193 97.160161 20.493587 97.579484 20.074264 
C 97.998807 19.654941 98.234413 19.086137 98.234413 18.493125 
C 98.234413 17.900113 97.998807 17.331309 97.579484 16.911986 
C 97.160161 16.492663 96.591358 16.257057 95.998345 16.257057 
C 95.405333 16.257057 94.83653 16.492663 94.417207 16.911986 
C 93.997884 17.331309 93.762277 17.900113 93.762277 18.493125 
C 93.762277 19.086137 93.997884 19.654941 94.417207 20.074264 
C 94.83653 20.493587 95.405333 20.729193 95.998345 20.729193 
z
" style="fill:#008000;stroke:#008000;"/>
    </g>
    <g id="text_1">
     <!-- Z54_low_geo -->
     <defs>
      <path d="M 5.609375 72.90625 
L 62.890625 72.90625 
L 62.890625 65.375 
L 16.796875 8.296875 
L 64.015625 8.296875 
L 64.015625 0 
L 4.5 0 
L 4.5 7.515625 
L 50.59375 64.59375 
L 5.609375 64.59375 
z
" id="BitstreamVeraSans-Roman-5a"/>
      <path d="M 37.796875 64.3125 
L 12.890625 25.390625 
L 37.796875 25.390625 
z
M 35.203125 72.90625 
L 47.609375 72.90625 
L 47.609375 25.390625 
L 58.015625 25.390625 
L 58.015625 17.1875 
L 47.609375 17.1875 
L 47.609375 0 
L 37.796875 0 
L 37.796875 17.1875 
L 4.890625 17.1875 
L 4.890625 26.703125 
z
" id="BitstreamVeraSans-Roman-34"/>
      <path d="M 50.984375 -16.609375 
L 50.984375 -23.578125 
L -0.984375 -23.578125 
L -0.984375 -16.609375 
z
" id="BitstreamVeraSans-Roman-5f"/>
      <path d="M 10.796875 72.90625 
L 49.515625 72.90625 
L 49.515625 64.59375 
L 19.828125 64.59375 
L 19.828125 46.734375 
Q 21.96875 47.46875 24.109375 47.828125 
Q 26.265625 48.1875 28.421875 48.1875 
Q 40.625 48.1875 47.75 41.5 
Q 54.890625 34.8125 54.890625 23.390625 
Q 54.890625 11.625 47.5625 5.09375 
Q 40.234375 -1.421875 26.90625 -1.421875 
Q 22.3125 -1.421875 17.546875 -0.640625 
Q 12.796875 0.140625 7.71875 1.703125 
L 7.71875 11.625 
Q 12.109375 9.234375 16.796875 8.0625 
Q 21.484375 6.890625 26.703125 6.890625 
Q 35.15625 6.890625 40.078125 11.328125 
Q 45.015625 15.765625 45.015625 23.390625 
Q 45.015625 31 40.078125 35.4375 
Q 35.15625 39.890625 26.703125 39.890625 
Q 22.75 39.890625 18.8125 39.015625 
Q 14.890625 38.140625 10.796875 36.28125 
z
" id="BitstreamVeraSans-Roman-35"/>
      <path d="M 30.609375 48.390625 
Q 23.390625 48.390625 19.1875 42.75 
Q 14.984375 37.109375 14.984375 27.296875 
Q 14.984375 17.484375 19.15625 11.84375 
Q 23.34375 6.203125 30.609375 6.203125 
Q 37.796875 6.203125 41.984375 11.859375 
Q 46.1875 17.53125 46.1875 27.296875 
Q 46.1875 37.015625 41.984375 42.703125 
Q 37.796875 48.390625 30.609375 48.390625 
M 30.609375 56 
Q 42.328125 56 49.015625 48.375 
Q 55.71875 40.765625 55.71875 27.296875 
Q 55.71875 13.875 49.015625 6.21875 
Q 42.328125 -1.421875 30.609375 -1.421875 
Q 18.84375 -1.421875 12.171875 6.21875 
Q 5.515625 13.875 5.515625 27.296875 
Q 5.515625 40.765625 12.171875 48.375 
Q 18.84375 56 30.609375 56 
" id="BitstreamVeraSans-Roman-6f"/>
      <path d="M 9.421875 75.984375 
L 18.40625 75.984375 
L 18.40625 0 
L 9.421875 0 
z
" id="BitstreamVeraSans-Roman-6c"/>
      <path d="M 56.203125 29.59375 
L 56.203125 25.203125 
L 14.890625 25.203125 
Q 15.484375 15.921875 20.484375 11.0625 
Q 25.484375 6.203125 34.421875 6.203125 
Q 39.59375 6.203125 44.453125 7.46875 
Q 49.3125 8.734375 54.109375 11.28125 
L 54.109375 2.78125 
Q 49.265625 0.734375 44.1875 -0.34375 
Q 39.109375 -1.421875 33.890625 -1.421875 
Q 20.796875 -1.421875 13.15625 6.1875 
Q 5.515625 13.8125 5.515625 26.8125 
Q 5.515625 40.234375 12.765625 48.109375 
Q 20.015625 56 32.328125 56 
Q 43.359375 56 49.78125 48.890625 
Q 56.203125 41.796875 56.203125 29.59375 
M 47.21875 32.234375 
Q 47.125 39.59375 43.09375 43.984375 
Q 39.0625 48.390625 32.421875 48.390625 
Q 24.90625 48.390625 20.390625 44.140625 
Q 15.875 39.890625 15.1875 32.171875 
z
" id="BitstreamVeraSans-Roman-65"/>
      <path d="M 4.203125 54.6875 
L 13.1875 54.6875 
L 24.421875 12.015625 
L 35.59375 54.6875 
L 46.1875 54.6875 
L 57.421875 12.015625 
L 68.609375 54.6875 
L 77.59375 54.6875 
L 63.28125 0 
L 52.6875 0 
L 40.921875 44.828125 
L 29.109375 0 
L 18.5 0 
z
" id="BitstreamVeraSans-Roman-77"/>
      <path d="M 45.40625 27.984375 
Q 45.40625 37.75 41.375 43.109375 
Q 37.359375 48.484375 30.078125 48.484375 
Q 22.859375 48.484375 18.828125 43.109375 
Q 14.796875 37.75 14.796875 27.984375 
Q 14.796875 18.265625 18.828125 12.890625 
Q 22.859375 7.515625 30.078125 7.515625 
Q 37.359375 7.515625 41.375 12.890625 
Q 45.40625 18.265625 45.40625 27.984375 
M 54.390625 6.78125 
Q 54.390625 -7.171875 48.1875 -13.984375 
Q 42 -20.796875 29.203125 -20.796875 
Q 24.46875 -20.796875 20.265625 -20.09375 
Q 16.0625 -19.390625 12.109375 -17.921875 
L 12.109375 -9.1875 
Q 16.0625 -11.328125 19.921875 -12.34375 
Q 23.78125 -13.375 27.78125 -13.375 
Q 36.625 -13.375 41.015625 -8.765625 
Q 45.40625 -4.15625 45.40625 5.171875 
L 45.40625 9.625 
Q 42.625 4.78125 38.28125 2.390625 
Q 33.9375 0 27.875 0 
Q 17.828125 0 11.671875 7.65625 
Q 5.515625 15.328125 5.515625 27.984375 
Q 5.515625 40.671875 11.671875 48.328125 
Q 17.828125 56 27.875 56 
Q 33.9375 56 38.28125 53.609375 
Q 42.625 51.21875 45.40625 46.390625 
L 45.40625 54.6875 
L 54.390625 54.6875 
z
" id="BitstreamVeraSans-Roman-67"/>
     </defs>
     <g transform="translate(109.198345447 21.118125)scale(0.12 -0.12)">
      <use xlink:href="#BitstreamVeraSans-Roman-5a"/>
      <use x="68.505859375" xlink:href="#BitstreamVeraSans-Roman-35"/>
      <use x="132.12890625" xlink:href="#BitstreamVeraSans-Roman-34"/>
      <use x="195.751953125" xlink:href="#BitstreamVeraSans-Roman-5f"/>
      <use x="245.751953125" xlink:href="#BitstreamVeraSans-Roman-6c"/>
      <use x="273.53515625" xlink:href="#BitstreamVeraSans-Roman-6f"/>
      <use x="334.716796875" xlink:href="#BitstreamVeraSans-Roman-77"/>
      <use x="416.50390625" xlink:href="#BitstreamVeraSans-Roman-5f"/>
      <use x="466.50390625" xlink:href="#BitstreamVeraSans-Roman-67"/>
      <use x="529.98046875" xlink:href="#BitstreamVeraSans-Roman-65"/>
      <use x="591.50390625" xlink:href="#BitstreamVeraSans-Roman-6f"/>
     </g>
    </g>
    <g id="PathCollection_7">
     <path d="M 79.198345 38.151693 
C 79.791358 38.151693 80.360161 37.916087 80.779484 37.496764 
C 81.198807 37.077441 81.434413 36.508637 81.434413 35.915625 
C 81.434413 35.322613 81.198807 34.753809 80.779484 34.334486 
C 80.360161 33.915163 79.791358 33.679557 79.198345 33.679557 
C 78.605333 33.679557 78.03653 33.915163 77.617207 34.334486 
C 77.197884 34.753809 76.962277 35.322613 76.962277 35.915625 
C 76.962277 36.508637 77.197884 37.077441 77.617207 37.496764 
C 78.03653 37.916087 78.605333 38.151693 79.198345 38.151693 
L 79.198345 38.151693 
z
" style="fill:none;stroke:#ff0000;"/>
     <path d="M 87.598345 37.101693 
C 88.191358 37.101693 88.760161 36.866087 89.179484 36.446764 
C 89.598807 36.027441 89.834413 35.458637 89.834413 34.865625 
C 89.834413 34.272613 89.598807 33.703809 89.179484 33.284486 
C 88.760161 32.865163 88.191358 32.629557 87.598345 32.629557 
C 87.005333 32.629557 86.43653 32.865163 86.017207 33.284486 
C 85.597884 33.703809 85.362277 34.272613 85.362277 34.865625 
C 85.362277 35.458637 85.597884 36.027441 86.017207 36.446764 
C 86.43653 36.866087 87.005333 37.101693 87.598345 37.101693 
L 87.598345 37.101693 
z
" style="fill:none;stroke:#ff0000;"/>
     <path d="M 95.998345 38.676693 
C 96.591358 38.676693 97.160161 38.441087 97.579484 38.021764 
C 97.998807 37.602441 98.234413 37.033637 98.234413 36.440625 
C 98.234413 35.847613 97.998807 35.278809 97.579484 34.859486 
C 97.160161 34.440163 96.591358 34.204557 95.998345 34.204557 
C 95.405333 34.204557 94.83653 34.440163 94.417207 34.859486 
C 93.997884 35.278809 93.762277 35.847613 93.762277 36.440625 
C 93.762277 37.033637 93.997884 37.602441 94.417207 38.021764 
C 94.83653 38.441087 95.405333 38.676693 95.998345 38.676693 
L 95.998345 38.676693 
z
" style="fill:none;stroke:#ff0000;"/>
    </g>
    <g id="text_2">
     <!-- Z54_hem_tc -->
     <defs>
      <path d="M 52 44.1875 
Q 55.375 50.25 60.0625 53.125 
Q 64.75 56 71.09375 56 
Q 79.640625 56 84.28125 50.015625 
Q 88.921875 44.046875 88.921875 33.015625 
L 88.921875 0 
L 79.890625 0 
L 79.890625 32.71875 
Q 79.890625 40.578125 77.09375 44.375 
Q 74.3125 48.1875 68.609375 48.1875 
Q 61.625 48.1875 57.5625 43.546875 
Q 53.515625 38.921875 53.515625 30.90625 
L 53.515625 0 
L 44.484375 0 
L 44.484375 32.71875 
Q 44.484375 40.625 41.703125 44.40625 
Q 38.921875 48.1875 33.109375 48.1875 
Q 26.21875 48.1875 22.15625 43.53125 
Q 18.109375 38.875 18.109375 30.90625 
L 18.109375 0 
L 9.078125 0 
L 9.078125 54.6875 
L 18.109375 54.6875 
L 18.109375 46.1875 
Q 21.1875 51.21875 25.484375 53.609375 
Q 29.78125 56 35.6875 56 
Q 41.65625 56 45.828125 52.96875 
Q 50 49.953125 52 44.1875 
" id="BitstreamVeraSans-Roman-6d"/>
      <path d="M 18.3125 70.21875 
L 18.3125 54.6875 
L 36.8125 54.6875 
L 36.8125 47.703125 
L 18.3125 47.703125 
L 18.3125 18.015625 
Q 18.3125 11.328125 20.140625 9.421875 
Q 21.96875 7.515625 27.59375 7.515625 
L 36.8125 7.515625 
L 36.8125 0 
L 27.59375 0 
Q 17.1875 0 13.234375 3.875 
Q 9.28125 7.765625 9.28125 18.015625 
L 9.28125 47.703125 
L 2.6875 47.703125 
L 2.6875 54.6875 
L 9.28125 54.6875 
L 9.28125 70.21875 
z
" id="BitstreamVeraSans-Roman-74"/>
      <path d="M 54.890625 33.015625 
L 54.890625 0 
L 45.90625 0 
L 45.90625 32.71875 
Q 45.90625 40.484375 42.875 44.328125 
Q 39.84375 48.1875 33.796875 48.1875 
Q 26.515625 48.1875 22.3125 43.546875 
Q 18.109375 38.921875 18.109375 30.90625 
L 18.109375 0 
L 9.078125 0 
L 9.078125 75.984375 
L 18.109375 75.984375 
L 18.109375 46.1875 
Q 21.34375 51.125 25.703125 53.5625 
Q 30.078125 56 35.796875 56 
Q 45.21875 56 50.046875 50.171875 
Q 54.890625 44.34375 54.890625 33.015625 
" id="BitstreamVeraSans-Roman-68"/>
      <path d="M 48.78125 52.59375 
L 48.78125 44.1875 
Q 44.96875 46.296875 41.140625 47.34375 
Q 37.3125 48.390625 33.40625 48.390625 
Q 24.65625 48.390625 19.8125 42.84375 
Q 14.984375 37.3125 14.984375 27.296875 
Q 14.984375 17.28125 19.8125 11.734375 
Q 24.65625 6.203125 33.40625 6.203125 
Q 37.3125 6.203125 41.140625 7.25 
Q 44.96875 8.296875 48.78125 10.40625 
L 48.78125 2.09375 
Q 45.015625 0.34375 40.984375 -0.53125 
Q 36.96875 -1.421875 32.421875 -1.421875 
Q 20.0625 -1.421875 12.78125 6.34375 
Q 5.515625 14.109375 5.515625 27.296875 
Q 5.515625 40.671875 12.859375 48.328125 
Q 20.21875 56 33.015625 56 
Q 37.15625 56 41.109375 55.140625 
Q 45.0625 54.296875 48.78125 52.59375 
" id="BitstreamVeraSans-Roman-63"/>
     </defs>
     <g transform="translate(109.198345447 39.065625)scale(0.12 -0.12)">
      <use xlink:href="#BitstreamVeraSans-Roman-5a"/>
      <use x="68.505859375" xlink:href="#BitstreamVeraSans-Roman-35"/>
      <use x="132.12890625" xlink:href="#BitstreamVeraSans-Roman-34"/>
      <use x="195.751953125" xlink:href="#BitstreamVeraSans-Roman-5f"/>
      <use x="245.751953125" xlink:href="#BitstreamVeraSans-Roman-68"/>
      <use x="309.130859375" xlink:href="#BitstreamVeraSans-Roman-65"/>
      <use x="370.654296875" xlink:href="#BitstreamVeraSans-Roman-6d"/>
      <use x="468.06640625" xlink:href="#BitstreamVeraSans-Roman-5f"/>
      <use x="518.06640625" xlink:href="#BitstreamVeraSans-Roman-74"/>
      <use x="557.275390625" xlink:href="#BitstreamVeraSans-Roman-63"/>
     </g>
    </g>
    <g id="PathCollection_8">
     <path d="M 79.198345 56.099193 
C 79.791358 56.099193 80.360161 55.863587 80.779484 55.444264 
C 81.198807 55.024941 81.434413 54.456137 81.434413 53.863125 
C 81.434413 53.270113 81.198807 52.701309 80.779484 52.281986 
C 80.360161 51.862663 79.791358 51.627057 79.198345 51.627057 
C 78.605333 51.627057 78.03653 51.862663 77.617207 52.281986 
C 77.197884 52.701309 76.962277 53.270113 76.962277 53.863125 
C 76.962277 54.456137 77.197884 55.024941 77.617207 55.444264 
C 78.03653 55.863587 78.605333 56.099193 79.198345 56.099193 
z
" style="fill:#ff0000;stroke:#ff0000;"/>
     <path d="M 87.598345 55.049193 
C 88.191358 55.049193 88.760161 54.813587 89.179484 54.394264 
C 89.598807 53.974941 89.834413 53.406137 89.834413 52.813125 
C 89.834413 52.220113 89.598807 51.651309 89.179484 51.231986 
C 88.760161 50.812663 88.191358 50.577057 87.598345 50.577057 
C 87.005333 50.577057 86.43653 50.812663 86.017207 51.231986 
C 85.597884 51.651309 85.362277 52.220113 85.362277 52.813125 
C 85.362277 53.406137 85.597884 53.974941 86.017207 54.394264 
C 86.43653 54.813587 87.005333 55.049193 87.598345 55.049193 
z
" style="fill:#ff0000;stroke:#ff0000;"/>
     <path d="M 95.998345 56.624193 
C 96.591358 56.624193 97.160161 56.388587 97.579484 55.969264 
C 97.998807 55.549941 98.234413 54.981137 98.234413 54.388125 
C 98.234413 53.795113 97.998807 53.226309 97.579484 52.806986 
C 97.160161 52.387663 96.591358 52.152057 95.998345 52.152057 
C 95.405333 52.152057 94.83653 52.387663 94.417207 52.806986 
C 93.997884 53.226309 93.762277 53.795113 93.762277 54.388125 
C 93.762277 54.981137 93.997884 55.549941 94.417207 55.969264 
C 94.83653 56.388587 95.405333 56.624193 95.998345 56.624193 
z
" style="fill:#ff0000;stroke:#ff0000;"/>
    </g>
    <g id="text_3">
     <!-- Z54_hem_tc -->
     <g transform="translate(109.198345447 57.013125)scale(0.12 -0.12)">
      <use xlink:href="#BitstreamVeraSans-Roman-5a"/>
      <use x="68.505859375" xlink:href="#BitstreamVeraSans-Roman-35"/>
      <use x="132.12890625" xlink:href="#BitstreamVeraSans-Roman-34"/>
      <use x="195.751953125" xlink:href="#BitstreamVeraSans-Roman-5f"/>
      <use x="245.751953125" xlink:href="#BitstreamVeraSans-Roman-68"/>
      <use x="309.130859375" xlink:href="#BitstreamVeraSans-Roman-65"/>
      <use x="370.654296875" xlink:href="#BitstreamVeraSans-Roman-6d"/>
      <use x="468.06640625" xlink:href="#BitstreamVeraSans-Roman-5f"/>
      <use x="518.06640625" xlink:href="#BitstreamVeraSans-Roman-74"/>
      <use x="557.275390625" xlink:href="#BitstreamVeraSans-Roman-63"/>
     </g>
    </g>
    <g id="PathCollection_9">
     <path d="M 76.962277 74.046693 
L 81.434413 74.046693 
L 81.434413 69.574557 
L 76.962277 69.574557 
z
" style="fill:#ffffff;stroke:#0000ff;"/>
     <path d="M 85.362277 72.996693 
L 89.834413 72.996693 
L 89.834413 68.524557 
L 85.362277 68.524557 
z
" style="fill:#ffffff;stroke:#0000ff;"/>
     <path d="M 93.762277 74.571693 
L 98.234413 74.571693 
L 98.234413 70.099557 
L 93.762277 70.099557 
z
" style="fill:#ffffff;stroke:#0000ff;"/>
    </g>
    <g id="text_4">
     <!-- Z54_mag_tc_mean -->
     <defs>
      <path d="M 54.890625 33.015625 
L 54.890625 0 
L 45.90625 0 
L 45.90625 32.71875 
Q 45.90625 40.484375 42.875 44.328125 
Q 39.84375 48.1875 33.796875 48.1875 
Q 26.515625 48.1875 22.3125 43.546875 
Q 18.109375 38.921875 18.109375 30.90625 
L 18.109375 0 
L 9.078125 0 
L 9.078125 54.6875 
L 18.109375 54.6875 
L 18.109375 46.1875 
Q 21.34375 51.125 25.703125 53.5625 
Q 30.078125 56 35.796875 56 
Q 45.21875 56 50.046875 50.171875 
Q 54.890625 44.34375 54.890625 33.015625 
" id="BitstreamVeraSans-Roman-6e"/>
      <path d="M 34.28125 27.484375 
Q 23.390625 27.484375 19.1875 25 
Q 14.984375 22.515625 14.984375 16.5 
Q 14.984375 11.71875 18.140625 8.90625 
Q 21.296875 6.109375 26.703125 6.109375 
Q 34.1875 6.109375 38.703125 11.40625 
Q 43.21875 16.703125 43.21875 25.484375 
L 43.21875 27.484375 
z
M 52.203125 31.203125 
L 52.203125 0 
L 43.21875 0 
L 43.21875 8.296875 
Q 40.140625 3.328125 35.546875 0.953125 
Q 30.953125 -1.421875 24.3125 -1.421875 
Q 15.921875 -1.421875 10.953125 3.296875 
Q 6 8.015625 6 15.921875 
Q 6 25.140625 12.171875 29.828125 
Q 18.359375 34.515625 30.609375 34.515625 
L 43.21875 34.515625 
L 43.21875 35.40625 
Q 43.21875 41.609375 39.140625 45 
Q 35.0625 48.390625 27.6875 48.390625 
Q 23 48.390625 18.546875 47.265625 
Q 14.109375 46.140625 10.015625 43.890625 
L 10.015625 52.203125 
Q 14.9375 54.109375 19.578125 55.046875 
Q 24.21875 56 28.609375 56 
Q 40.484375 56 46.34375 49.84375 
Q 52.203125 43.703125 52.203125 31.203125 
" id="BitstreamVeraSans-Roman-61"/>
     </defs>
     <g transform="translate(109.198345447 74.960625)scale(0.12 -0.12)">
      <use xlink:href="#BitstreamVeraSans-Roman-5a"/>
      <use x="68.505859375" xlink:href="#BitstreamVeraSans-Roman-35"/>
      <use x="132.12890625" xlink:href="#BitstreamVeraSans-Roman-34"/>
      <use x="195.751953125" xlink:href="#BitstreamVeraSans-Roman-5f"/>
      <use x="245.751953125" xlink:href="#BitstreamVeraSans-Roman-6d"/>
      <use x="343.1640625" xlink:href="#BitstreamVeraSans-Roman-61"/>
      <use x="404.443359375" xlink:href="#BitstreamVeraSans-Roman-67"/>
      <use x="467.919921875" xlink:href="#BitstreamVeraSans-Roman-5f"/>
      <use x="517.919921875" xlink:href="#BitstreamVeraSans-Roman-74"/>
      <use x="557.12890625" xlink:href="#BitstreamVeraSans-Roman-63"/>
      <use x="612.109375" xlink:href="#BitstreamVeraSans-Roman-5f"/>
      <use x="662.109375" xlink:href="#BitstreamVeraSans-Roman-6d"/>
      <use x="759.521484375" xlink:href="#BitstreamVeraSans-Roman-65"/>
      <use x="821.044921875" xlink:href="#BitstreamVeraSans-Roman-61"/>
      <use x="882.32421875" xlink:href="#BitstreamVeraSans-Roman-6e"/>
     </g>
    </g>
   </g>
  </g>
 </g>
 <defs>
  <clipPath id="p5d2944c90d">
   <rect height="253.4" width="235.436886311" x="35.4828125" y="31.91"/>
  </clipPath>
 </defs>
</svg>
