<?xml version="1.0" encoding="utf-8" standalone="no"?>
<!DOCTYPE svg PUBLIC "-//W3C//DTD SVG 1.1//EN"
  "http://www.w3.org/Graphics/SVG/1.1/DTD/svg11.dtd">
<!-- Created with matplotlib (http://matplotlib.org/) -->
<svg height="281pt" version="1.1" viewBox="0 0 351 281" width="351pt" xmlns="http://www.w3.org/2000/svg" xmlns:xlink="http://www.w3.org/1999/xlink">
 <defs>
  <style type="text/css">
*{stroke-linecap:butt;stroke-linejoin:round;stroke-miterlimit:100000;}
  </style>
 </defs>
 <g id="figure_1">
  <g id="patch_1">
   <path d="M 0 281.478125 
L 351.671197 281.478125 
L 351.671197 0 
L 0 0 
L 0 281.478125 
z
" style="fill:none;"/>
  </g>
  <g id="axes_1">
   <g id="PathCollection_1">
    <defs>
     <path d="M 0 2.236068 
C 0.593012 2.236068 1.161816 2.000462 1.581139 1.581139 
C 2.000462 1.161816 2.236068 0.593012 2.236068 0 
C 2.236068 -0.593012 2.000462 -1.161816 1.581139 -1.581139 
C 1.161816 -2.000462 0.593012 -2.236068 0 -2.236068 
C -0.593012 -2.236068 -1.161816 -2.000462 -1.581139 -1.581139 
C -2.000462 -1.161816 -2.236068 -0.593012 -2.236068 0 
C -2.236068 0.593012 -2.000462 1.161816 -1.581139 1.581139 
C -1.161816 2.000462 -0.593012 2.236068 0 2.236068 
z
" id="ma95d9a589d" style="stroke:#008000;"/>
    </defs>
    <g clip-path="url(#p78ad91cd0f)">
     <use style="fill:#008000;stroke:#008000;" x="150.375072476" xlink:href="#ma95d9a589d" y="107.916717929"/>
     <use style="fill:#008000;stroke:#008000;" x="145.752734844" xlink:href="#ma95d9a589d" y="109.414363442"/>
     <use style="fill:#008000;stroke:#008000;" x="160.222338991" xlink:href="#ma95d9a589d" y="107.170348724"/>
     <use style="fill:#008000;stroke:#008000;" x="158.55821315" xlink:href="#ma95d9a589d" y="109.153760949"/>
     <use style="fill:#008000;stroke:#008000;" x="154.639157635" xlink:href="#ma95d9a589d" y="101.007430393"/>
     <use style="fill:#008000;stroke:#008000;" x="160.539106775" xlink:href="#ma95d9a589d" y="93.1684170424"/>
    </g>
   </g>
   <g id="PathCollection_2">
    <defs>
     <path d="M 0 2.236068 
C 0.593012 2.236068 1.161816 2.000462 1.581139 1.581139 
C 2.000462 1.161816 2.236068 0.593012 2.236068 0 
C 2.236068 -0.593012 2.000462 -1.161816 1.581139 -1.581139 
C 1.161816 -2.000462 0.593012 -2.236068 0 -2.236068 
C -0.593012 -2.236068 -1.161816 -2.000462 -1.581139 -1.581139 
C -2.000462 -1.161816 -2.236068 -0.593012 -2.236068 0 
C -2.236068 0.593012 -2.000462 1.161816 -1.581139 1.581139 
C -1.161816 2.000462 -0.593012 2.236068 0 2.236068 
z
" id="C0_0_99ebafbe20"/>
    </defs>
    <g clip-path="url(#p78ad91cd0f)">
     <use style="fill:none;stroke:#bf00bf;" x="158.568927448" xlink:href="#C0_0_99ebafbe20" y="170.204805833"/>
    </g>
    <g clip-path="url(#p78ad91cd0f)">
     <use style="fill:none;stroke:#bf00bf;" x="168.357635383" xlink:href="#C0_0_99ebafbe20" y="171.556016698"/>
    </g>
    <g clip-path="url(#p78ad91cd0f)">
     <use style="fill:none;stroke:#bf00bf;" x="159.137528507" xlink:href="#C0_0_99ebafbe20" y="173.103187752"/>
    </g>
    <g clip-path="url(#p78ad91cd0f)">
     <use style="fill:none;stroke:#bf00bf;" x="159.314627194" xlink:href="#C0_0_99ebafbe20" y="179.660874303"/>
    </g>
    <g clip-path="url(#p78ad91cd0f)">
     <use style="fill:none;stroke:#bf00bf;" x="164.067189738" xlink:href="#C0_0_99ebafbe20" y="168.11136886"/>
    </g>
    <g clip-path="url(#p78ad91cd0f)">
     <use style="fill:none;stroke:#bf00bf;" x="152.158576044" xlink:href="#C0_0_99ebafbe20" y="173.669127475"/>
    </g>
   </g>
   <g id="PathCollection_3">
    <defs>
     <path d="M 0 2.236068 
C 0.593012 2.236068 1.161816 2.000462 1.581139 1.581139 
C 2.000462 1.161816 2.236068 0.593012 2.236068 0 
C 2.236068 -0.593012 2.000462 -1.161816 1.581139 -1.581139 
C 1.161816 -2.000462 0.593012 -2.236068 0 -2.236068 
C -0.593012 -2.236068 -1.161816 -2.000462 -1.581139 -1.581139 
C -2.000462 -1.161816 -2.236068 -0.593012 -2.236068 0 
C -2.236068 0.593012 -2.000462 1.161816 -1.581139 1.581139 
C -1.161816 2.000462 -0.593012 2.236068 0 2.236068 
z
" id="C1_0_3f690a4a9b"/>
    </defs>
    <g clip-path="url(#p78ad91cd0f)">
     <use style="fill:none;stroke:#0000ff;" x="211.757171158" xlink:href="#C1_0_3f690a4a9b" y="165.390093502"/>
    </g>
    <g clip-path="url(#p78ad91cd0f)">
     <use style="fill:none;stroke:#0000ff;" x="219.304448901" xlink:href="#C1_0_3f690a4a9b" y="196.771318297"/>
    </g>
    <g clip-path="url(#p78ad91cd0f)">
     <use style="fill:none;stroke:#0000ff;" x="223.566353862" xlink:href="#C1_0_3f690a4a9b" y="211.678224777"/>
    </g>
    <g clip-path="url(#p78ad91cd0f)">
     <use style="fill:none;stroke:#0000ff;" x="242.000849853" xlink:href="#C1_0_3f690a4a9b" y="187.40104885"/>
    </g>
    <g clip-path="url(#p78ad91cd0f)">
     <use style="fill:none;stroke:#0000ff;" x="194.053947597" xlink:href="#C1_0_3f690a4a9b" y="183.573331544"/>
    </g>
   </g>
   <g id="PathCollection_4">
    <defs>
     <path d="M 0 2.236068 
C 0.593012 2.236068 1.161816 2.000462 1.581139 1.581139 
C 2.000462 1.161816 2.236068 0.593012 2.236068 0 
C 2.236068 -0.593012 2.000462 -1.161816 1.581139 -1.581139 
C 1.161816 -2.000462 0.593012 -2.236068 0 -2.236068 
C -0.593012 -2.236068 -1.161816 -2.000462 -1.581139 -1.581139 
C -2.000462 -1.161816 -2.236068 -0.593012 -2.236068 0 
C -2.236068 0.593012 -2.000462 1.161816 -1.581139 1.581139 
C -1.161816 2.000462 -0.593012 2.236068 0 2.236068 
z
" id="m0b668dc235" style="stroke:#0000ff;"/>
    </defs>
    <g clip-path="url(#p78ad91cd0f)">
     <use style="fill:#0000ff;stroke:#0000ff;" x="249.459543624" xlink:href="#m0b668dc235" y="186.534655838"/>
    </g>
   </g>
   <g id="PathCollection_5">
    <defs>
     <path d="M -2.236068 2.236068 
L 2.236068 2.236068 
L 2.236068 -2.236068 
L -2.236068 -2.236068 
z
" id="mc19526386a" style="stroke:#bf00bf;"/>
    </defs>
    <g clip-path="url(#p78ad91cd0f)">
     <use style="fill:#ffffff;stroke:#bf00bf;" x="160.285928579" xlink:href="#mc19526386a" y="172.785187538"/>
    </g>
   </g>
   <g id="PathCollection_6">
    <defs>
     <path d="M 0 -2.236068 
L -0.502029 -0.690983 
L -2.126627 -0.690983 
L -0.812299 0.263932 
L -1.314328 1.809017 
L -0 0.854102 
L 1.314328 1.809017 
L 0.812299 0.263932 
L 2.126627 -0.690983 
L 0.502029 -0.690983 
z
" id="mfb210ef2d7" style="stroke:#1a1a1a;"/>
    </defs>
    <g clip-path="url(#p78ad91cd0f)">
     <use style="fill:#ffffff;stroke:#1a1a1a;" x="151.895675385" xlink:href="#mfb210ef2d7" y="141.148517855"/>
    </g>
   </g>
   <g id="PathCollection_7">
    <defs>
     <path d="M 0 -2.236068 
L -2.236068 2.236068 
L 2.236068 2.236068 
z
" id="mc3db560d9c" style="stroke:#1a1a1a;"/>
    </defs>
    <g clip-path="url(#p78ad91cd0f)">
     <use style="fill:#ffffff;stroke:#1a1a1a;" x="214.1576244" xlink:href="#mc3db560d9c" y="168.266843991"/>
    </g>
   </g>
   <g id="PathCollection_8">
    <defs>
     <path d="M -2.236068 2.236068 
L 2.236068 2.236068 
L 2.236068 -2.236068 
L -2.236068 -2.236068 
z
" id="m2d7e4bcf26" style="stroke:#0000ff;"/>
    </defs>
    <g clip-path="url(#p78ad91cd0f)">
     <use style="fill:#ffffff;stroke:#0000ff;" x="225.275758891" xlink:href="#m2d7e4bcf26" y="190.481302646"/>
    </g>
   </g>
   <g id="line2d_1">
    <path clip-path="url(#p78ad91cd0f)" d="M 153.201258 21.925935 
L 159.068788 22.079392 
L 164.920237 22.539341 
L 170.739564 23.304522 
L 176.51082 24.372837 
L 182.218187 25.741359 
L 187.84602 27.406336 
L 193.378894 29.363205 
L 198.801644 31.606602 
L 204.099406 34.130378 
L 209.25766 36.927615 
L 214.262267 39.990648 
L 219.099511 43.311079 
L 223.756132 46.879808 
L 228.219367 50.687053 
L 232.476982 54.72238 
L 236.517308 58.974726 
L 240.329271 63.432438 
L 243.902422 68.083296 
L 247.226967 72.914553 
L 250.293795 77.912968 
L 253.094498 83.064838 
L 255.621401 88.356045 
L 257.867578 93.772084 
L 259.826871 99.298111 
L 261.493911 104.91898 
L 262.864129 110.619283 
L 263.933768 116.383397 
L 264.699897 122.195523 
L 265.160416 128.03973 
L 265.314062 133.9 
L 265.160416 139.76027 
L 264.699897 145.604477 
L 263.933768 151.416603 
L 262.864129 157.180717 
L 261.493911 162.88102 
L 259.826871 168.501889 
L 257.867578 174.027916 
L 255.621401 179.443955 
L 253.094498 184.735162 
L 250.293795 189.887032 
L 247.226967 194.885447 
L 243.902422 199.716704 
L 240.329271 204.367562 
L 236.517308 208.825274 
L 232.476982 213.07762 
L 228.219367 217.112947 
L 223.756132 220.920192 
L 219.099511 224.488921 
L 214.262267 227.809352 
L 209.25766 230.872385 
L 204.099406 233.669622 
L 198.801644 236.193398 
L 193.378894 238.436795 
L 187.84602 240.393664 
L 182.218187 242.058641 
L 176.51082 243.427163 
L 170.739564 244.495478 
L 164.920237 245.260659 
L 159.068788 245.720608 
L 153.201258 245.874065 
L 147.333727 245.720608 
L 141.482278 245.260659 
L 135.662951 244.495478 
L 129.891695 243.427163 
L 124.184329 242.058641 
L 118.556496 240.393664 
L 113.023622 238.436795 
L 107.600872 236.193398 
L 102.303109 233.669622 
L 97.144855 230.872385 
L 92.140248 227.809352 
L 87.303004 224.488921 
L 82.646383 220.920192 
L 78.183149 217.112947 
L 73.925533 213.07762 
L 69.885207 208.825274 
L 66.073244 204.367562 
L 62.500093 199.716704 
L 59.175548 194.885447 
L 56.108721 189.887032 
L 53.308017 184.735162 
L 50.781114 179.443955 
L 48.534937 174.027916 
L 46.575644 168.501889 
L 44.908604 162.88102 
L 43.538387 157.180717 
L 42.468747 151.416603 
L 41.702618 145.604477 
L 41.242099 139.76027 
L 41.088453 133.9 
L 41.242099 128.03973 
L 41.702618 122.195523 
L 42.468747 116.383397 
L 43.538387 110.619283 
L 44.908604 104.91898 
L 46.575644 99.298111 
L 48.534937 93.772084 
L 50.781114 88.356045 
L 53.308017 83.064838 
L 56.108721 77.912968 
L 59.175548 72.914553 
L 62.500093 68.083296 
L 66.073244 63.432438 
L 69.885207 58.974726 
L 73.925533 54.72238 
L 78.183149 50.687053 
L 82.646383 46.879808 
L 87.303004 43.311079 
L 92.140248 39.990648 
L 97.144855 36.927615 
L 102.303109 34.130378 
L 107.600872 31.606602 
L 113.023622 29.363205 
L 118.556496 27.406336 
L 124.184329 25.741359 
L 129.891695 24.372837 
L 135.662951 23.304522 
L 141.482278 22.539341 
L 147.333727 22.079392 
L 153.201258 21.925935 
L 153.201258 21.925935 
" style="fill:none;stroke:#000000;stroke-linecap:square;"/>
   </g>
   <g id="line2d_2">
    <defs>
     <path d="M -3 0 
L 3 0 
M 0 3 
L 0 -3 
" id="mb344c6f044" style="stroke:#000000;stroke-width:0.5;"/>
    </defs>
    <g clip-path="url(#p78ad91cd0f)">
     <use style="stroke:#000000;stroke-width:0.5;" x="153.201257622" xlink:href="#mb344c6f044" y="32.1112132669"/>
     <use style="stroke:#000000;stroke-width:0.5;" x="153.201257622" xlink:href="#mb344c6f044" y="43.0711652884"/>
     <use style="stroke:#000000;stroke-width:0.5;" x="153.201257622" xlink:href="#mb344c6f044" y="54.722379586"/>
     <use style="stroke:#000000;stroke-width:0.5;" x="153.201257622" xlink:href="#mb344c6f044" y="66.9761833838"/>
     <use style="stroke:#000000;stroke-width:0.5;" x="153.201257622" xlink:href="#mb344c6f044" y="79.7393178357"/>
     <use style="stroke:#000000;stroke-width:0.5;" x="153.201257622" xlink:href="#mb344c6f044" y="92.9146477819"/>
     <use style="stroke:#000000;stroke-width:0.5;" x="153.201257622" xlink:href="#mb344c6f044" y="106.401901006"/>
     <use style="stroke:#000000;stroke-width:0.5;" x="153.201257622" xlink:href="#mb344c6f044" y="120.098431368"/>
     <use style="stroke:#000000;stroke-width:0.5;" x="153.201257622" xlink:href="#mb344c6f044" y="133.9"/>
    </g>
   </g>
   <g id="line2d_3">
    <g clip-path="url(#p78ad91cd0f)">
     <use style="stroke:#000000;stroke-width:0.5;" x="255.116164649" xlink:href="#mb344c6f044" y="133.9"/>
     <use style="stroke:#000000;stroke-width:0.5;" x="244.142632818" xlink:href="#mb344c6f044" y="133.9"/>
     <use style="stroke:#000000;stroke-width:0.5;" x="232.476982209" xlink:href="#mb344c6f044" y="133.9"/>
     <use style="stroke:#000000;stroke-width:0.5;" x="220.207995468" xlink:href="#mb344c6f044" y="133.9"/>
     <use style="stroke:#000000;stroke-width:0.5;" x="207.429046993" xlink:href="#mb344c6f044" y="133.9"/>
     <use style="stroke:#000000;stroke-width:0.5;" x="194.237392297" xlink:href="#mb344c6f044" y="133.9"/>
     <use style="stroke:#000000;stroke-width:0.5;" x="180.733427837" xlink:href="#mb344c6f044" y="133.9"/>
     <use style="stroke:#000000;stroke-width:0.5;" x="167.019926938" xlink:href="#mb344c6f044" y="133.9"/>
    </g>
   </g>
   <g id="line2d_4">
    <g clip-path="url(#p78ad91cd0f)">
     <use style="stroke:#000000;stroke-width:0.5;" x="153.201257622" xlink:href="#mb344c6f044" y="235.688786733"/>
     <use style="stroke:#000000;stroke-width:0.5;" x="153.201257622" xlink:href="#mb344c6f044" y="224.728834712"/>
     <use style="stroke:#000000;stroke-width:0.5;" x="153.201257622" xlink:href="#mb344c6f044" y="213.077620414"/>
     <use style="stroke:#000000;stroke-width:0.5;" x="153.201257622" xlink:href="#mb344c6f044" y="200.823816616"/>
     <use style="stroke:#000000;stroke-width:0.5;" x="153.201257622" xlink:href="#mb344c6f044" y="188.060682164"/>
     <use style="stroke:#000000;stroke-width:0.5;" x="153.201257622" xlink:href="#mb344c6f044" y="174.885352218"/>
     <use style="stroke:#000000;stroke-width:0.5;" x="153.201257622" xlink:href="#mb344c6f044" y="161.398098994"/>
     <use style="stroke:#000000;stroke-width:0.5;" x="153.201257622" xlink:href="#mb344c6f044" y="147.701568632"/>
    </g>
   </g>
   <g id="line2d_5">
    <g clip-path="url(#p78ad91cd0f)">
     <use style="stroke:#000000;stroke-width:0.5;" x="51.2863505949" xlink:href="#mb344c6f044" y="133.9"/>
     <use style="stroke:#000000;stroke-width:0.5;" x="62.2598824263" xlink:href="#mb344c6f044" y="133.9"/>
     <use style="stroke:#000000;stroke-width:0.5;" x="73.9255330348" xlink:href="#mb344c6f044" y="133.9"/>
     <use style="stroke:#000000;stroke-width:0.5;" x="86.1945197755" xlink:href="#mb344c6f044" y="133.9"/>
     <use style="stroke:#000000;stroke-width:0.5;" x="98.9734682509" xlink:href="#mb344c6f044" y="133.9"/>
     <use style="stroke:#000000;stroke-width:0.5;" x="112.165122947" xlink:href="#mb344c6f044" y="133.9"/>
     <use style="stroke:#000000;stroke-width:0.5;" x="125.669087406" xlink:href="#mb344c6f044" y="133.9"/>
     <use style="stroke:#000000;stroke-width:0.5;" x="139.382588305" xlink:href="#mb344c6f044" y="133.9"/>
    </g>
   </g>
   <g id="line2d_6">
    <path clip-path="url(#p78ad91cd0f)" d="M 153.201258 21.925935 
L 153.201258 22.907345 
L 153.201258 23.897206 
L 153.201258 24.895445 
" style="fill:none;stroke:#000000;stroke-linecap:square;"/>
   </g>
   <g id="line2d_7">
    <path clip-path="url(#p78ad91cd0f)" d="M 172.669442 23.627073 
L 172.498811 24.593572 
L 172.32671 25.568396 
L 172.153153 26.55147 
" style="fill:none;stroke:#000000;stroke-linecap:square;"/>
   </g>
   <g id="line2d_8">
    <path clip-path="url(#p78ad91cd0f)" d="M 191.546095 28.678798 
L 191.210018 29.601021 
L 190.871045 30.531187 
L 190.529205 31.469224 
" style="fill:none;stroke:#000000;stroke-linecap:square;"/>
   </g>
   <g id="line2d_9">
    <path clip-path="url(#p78ad91cd0f)" d="M 209.25766 36.927615 
L 208.766347 37.777541 
L 208.270803 38.634786 
L 207.771065 39.499287 
" style="fill:none;stroke:#000000;stroke-linecap:square;"/>
   </g>
   <g id="line2d_10">
    <path clip-path="url(#p78ad91cd0f)" d="M 225.265979 48.12289 
L 224.63436 48.874693 
L 223.997301 49.632971 
L 223.35485 50.397667 
" style="fill:none;stroke:#000000;stroke-linecap:square;"/>
   </g>
   <g id="line2d_11">
    <path clip-path="url(#p78ad91cd0f)" d="M 239.084649 61.924459 
L 238.331914 62.555296 
L 237.572696 63.191567 
L 236.807054 63.833223 
" style="fill:none;stroke:#000000;stroke-linecap:square;"/>
   </g>
   <g id="line2d_12">
    <path clip-path="url(#p78ad91cd0f)" d="M 250.293795 77.912968 
L 249.442816 78.403672 
L 248.584509 78.898603 
L 247.718937 79.397723 
" style="fill:none;stroke:#000000;stroke-linecap:square;"/>
   </g>
   <g id="line2d_13">
    <path clip-path="url(#p78ad91cd0f)" d="M 258.552833 95.602614 
L 257.629467 95.938276 
L 256.698149 96.276829 
L 255.758949 96.618247 
" style="fill:none;stroke:#000000;stroke-linecap:square;"/>
   </g>
   <g id="line2d_14">
    <path clip-path="url(#p78ad91cd0f)" d="M 263.610817 114.455908 
L 262.64312 114.626328 
L 261.667089 114.798215 
L 260.682797 114.971558 
" style="fill:none;stroke:#000000;stroke-linecap:square;"/>
   </g>
   <g id="line2d_15">
    <path clip-path="url(#p78ad91cd0f)" d="M 265.314062 133.9 
L 264.331437 133.9 
L 263.340349 133.9 
L 262.340873 133.9 
" style="fill:none;stroke:#000000;stroke-linecap:square;"/>
   </g>
   <g id="line2d_16">
    <path clip-path="url(#p78ad91cd0f)" d="M 263.610817 153.344092 
L 262.64312 153.173672 
L 261.667089 153.001785 
L 260.682797 152.828442 
" style="fill:none;stroke:#000000;stroke-linecap:square;"/>
   </g>
   <g id="line2d_17">
    <path clip-path="url(#p78ad91cd0f)" d="M 258.552833 172.197386 
L 257.629467 171.861724 
L 256.698149 171.523171 
L 255.758949 171.181753 
" style="fill:none;stroke:#000000;stroke-linecap:square;"/>
   </g>
   <g id="line2d_18">
    <path clip-path="url(#p78ad91cd0f)" d="M 250.293795 189.887032 
L 249.442816 189.396328 
L 248.584509 188.901397 
L 247.718937 188.402277 
" style="fill:none;stroke:#000000;stroke-linecap:square;"/>
   </g>
   <g id="line2d_19">
    <path clip-path="url(#p78ad91cd0f)" d="M 239.084649 205.875541 
L 238.331914 205.244704 
L 237.572696 204.608433 
L 236.807054 203.966777 
" style="fill:none;stroke:#000000;stroke-linecap:square;"/>
   </g>
   <g id="line2d_20">
    <path clip-path="url(#p78ad91cd0f)" d="M 225.265979 219.67711 
L 224.63436 218.925307 
L 223.997301 218.167029 
L 223.35485 217.402333 
" style="fill:none;stroke:#000000;stroke-linecap:square;"/>
   </g>
   <g id="line2d_21">
    <path clip-path="url(#p78ad91cd0f)" d="M 209.25766 230.872385 
L 208.766347 230.022459 
L 208.270803 229.165214 
L 207.771065 228.300713 
" style="fill:none;stroke:#000000;stroke-linecap:square;"/>
   </g>
   <g id="line2d_22">
    <path clip-path="url(#p78ad91cd0f)" d="M 191.546095 239.121202 
L 191.210018 238.198979 
L 190.871045 237.268813 
L 190.529205 236.330776 
" style="fill:none;stroke:#000000;stroke-linecap:square;"/>
   </g>
   <g id="line2d_23">
    <path clip-path="url(#p78ad91cd0f)" d="M 172.669442 244.172927 
L 172.498811 243.206428 
L 172.32671 242.231604 
L 172.153153 241.24853 
" style="fill:none;stroke:#000000;stroke-linecap:square;"/>
   </g>
   <g id="line2d_24">
    <path clip-path="url(#p78ad91cd0f)" d="M 153.201258 245.874065 
L 153.201258 244.892655 
L 153.201258 243.902794 
L 153.201258 242.904555 
" style="fill:none;stroke:#000000;stroke-linecap:square;"/>
   </g>
   <g id="line2d_25">
    <path clip-path="url(#p78ad91cd0f)" d="M 133.733073 244.172927 
L 133.903704 243.206428 
L 134.075805 242.231604 
L 134.249362 241.24853 
" style="fill:none;stroke:#000000;stroke-linecap:square;"/>
   </g>
   <g id="line2d_26">
    <path clip-path="url(#p78ad91cd0f)" d="M 114.85642 239.121202 
L 115.192498 238.198979 
L 115.53147 237.268813 
L 115.873311 236.330776 
" style="fill:none;stroke:#000000;stroke-linecap:square;"/>
   </g>
   <g id="line2d_27">
    <path clip-path="url(#p78ad91cd0f)" d="M 97.144855 230.872385 
L 97.636168 230.022459 
L 98.131712 229.165214 
L 98.63145 228.300713 
" style="fill:none;stroke:#000000;stroke-linecap:square;"/>
   </g>
   <g id="line2d_28">
    <path clip-path="url(#p78ad91cd0f)" d="M 81.136536 219.67711 
L 81.768155 218.925307 
L 82.405214 218.167029 
L 83.047665 217.402333 
" style="fill:none;stroke:#000000;stroke-linecap:square;"/>
   </g>
   <g id="line2d_29">
    <path clip-path="url(#p78ad91cd0f)" d="M 67.317866 205.875541 
L 68.070601 205.244704 
L 68.829819 204.608433 
L 69.595462 203.966777 
" style="fill:none;stroke:#000000;stroke-linecap:square;"/>
   </g>
   <g id="line2d_30">
    <path clip-path="url(#p78ad91cd0f)" d="M 56.108721 189.887032 
L 56.959699 189.396328 
L 57.818007 188.901397 
L 58.683578 188.402277 
" style="fill:none;stroke:#000000;stroke-linecap:square;"/>
   </g>
   <g id="line2d_31">
    <path clip-path="url(#p78ad91cd0f)" d="M 47.849682 172.197386 
L 48.773048 171.861724 
L 49.704366 171.523171 
L 50.643566 171.181753 
" style="fill:none;stroke:#000000;stroke-linecap:square;"/>
   </g>
   <g id="line2d_32">
    <path clip-path="url(#p78ad91cd0f)" d="M 42.791698 153.344092 
L 43.759395 153.173672 
L 44.735427 153.001785 
L 45.719718 152.828442 
" style="fill:none;stroke:#000000;stroke-linecap:square;"/>
   </g>
   <g id="line2d_33">
    <path clip-path="url(#p78ad91cd0f)" d="M 41.088453 133.9 
L 42.071078 133.9 
L 43.062166 133.9 
L 44.061642 133.9 
" style="fill:none;stroke:#000000;stroke-linecap:square;"/>
   </g>
   <g id="line2d_34">
    <path clip-path="url(#p78ad91cd0f)" d="M 42.791698 114.455908 
L 43.759395 114.626328 
L 44.735427 114.798215 
L 45.719718 114.971558 
" style="fill:none;stroke:#000000;stroke-linecap:square;"/>
   </g>
   <g id="line2d_35">
    <path clip-path="url(#p78ad91cd0f)" d="M 47.849682 95.602614 
L 48.773048 95.938276 
L 49.704366 96.276829 
L 50.643566 96.618247 
" style="fill:none;stroke:#000000;stroke-linecap:square;"/>
   </g>
   <g id="line2d_36">
    <path clip-path="url(#p78ad91cd0f)" d="M 56.108721 77.912968 
L 56.959699 78.403672 
L 57.818007 78.898603 
L 58.683578 79.397723 
" style="fill:none;stroke:#000000;stroke-linecap:square;"/>
   </g>
   <g id="line2d_37">
    <path clip-path="url(#p78ad91cd0f)" d="M 67.317866 61.924459 
L 68.070601 62.555296 
L 68.829819 63.191567 
L 69.595462 63.833223 
" style="fill:none;stroke:#000000;stroke-linecap:square;"/>
   </g>
   <g id="line2d_38">
    <path clip-path="url(#p78ad91cd0f)" d="M 81.136536 48.12289 
L 81.768155 48.874693 
L 82.405214 49.632971 
L 83.047665 50.397667 
" style="fill:none;stroke:#000000;stroke-linecap:square;"/>
   </g>
   <g id="line2d_39">
    <path clip-path="url(#p78ad91cd0f)" d="M 97.144855 36.927615 
L 97.636168 37.777541 
L 98.131712 38.634786 
L 98.63145 39.499287 
" style="fill:none;stroke:#000000;stroke-linecap:square;"/>
   </g>
   <g id="line2d_40">
    <path clip-path="url(#p78ad91cd0f)" d="M 114.85642 28.678798 
L 115.192498 29.601021 
L 115.53147 30.531187 
L 115.873311 31.469224 
" style="fill:none;stroke:#000000;stroke-linecap:square;"/>
   </g>
   <g id="line2d_41">
    <path clip-path="url(#p78ad91cd0f)" d="M 133.733073 23.627073 
L 133.903704 24.593572 
L 134.075805 25.568396 
L 134.249362 26.55147 
" style="fill:none;stroke:#000000;stroke-linecap:square;"/>
   </g>
   <g id="line2d_42">
    <path clip-path="url(#p78ad91cd0f)" d="M 154.644297 173.735285 
L 154.712555 174.064992 
L 154.80286 174.389741 
L 154.91489 174.708236 
L 155.048237 175.019205 
L 155.202409 175.3214 
L 155.376824 175.613602 
L 155.570821 175.89463 
L 155.783656 176.163344 
L 156.014506 176.418651 
L 156.262475 176.659507 
L 156.526591 176.884925 
L 156.805818 177.093978 
L 157.09905 177.285802 
L 157.405126 177.459605 
L 157.722827 177.614662 
L 158.050882 177.750329 
L 158.387977 177.866037 
L 158.732759 177.9613 
L 159.083838 178.035715 
L 159.439797 178.088966 
L 159.799199 178.120824 
L 160.160588 178.13115 
L 160.5225 178.119892 
L 160.883468 178.08709 
L 161.242028 178.032872 
L 161.596727 177.957459 
L 161.946126 177.861156 
L 162.288809 177.744358 
L 162.62339 177.607545 
L 162.948516 177.451278 
L 163.262875 177.2762 
L 163.565202 177.083032 
L 163.854282 176.872569 
L 164.128957 176.645676 
L 164.388132 176.403283 
L 164.630777 176.146386 
L 164.85593 175.876036 
L 165.062708 175.593338 
L 165.2503 175.299444 
L 165.417979 174.99555 
L 165.565099 174.682889 
L 165.691103 174.362726 
L 165.795516 174.036354 
L 165.877955 173.705085 
L 165.938128 173.370248 
L 165.975829 173.033182 
L 165.990947 172.69523 
L 165.983459 172.357734 
L 165.953432 172.022031 
L 165.901024 171.689443 
L 165.82648 171.361278 
L 165.73013 171.038822 
L 165.612389 170.723331 
L 165.473757 170.416033 
L 165.31481 170.118118 
L 165.136202 169.830736 
L 164.938663 169.554993 
L 164.722993 169.291944 
L 164.490057 169.042596 
L 164.240787 168.807896 
L 163.976174 168.588735 
L 163.697263 168.385943 
L 163.405152 168.200282 
L 163.100988 168.032449 
L 162.785959 167.883074 
L 162.461292 167.752712 
L 162.128249 167.641848 
L 161.78812 167.550892 
L 161.44222 167.480178 
L 161.091884 167.429964 
L 160.738463 167.400431 
L 160.383316 167.391683 
L 160.027809 167.403745 
L 159.673309 167.436565 
L 159.321177 167.490014 
L 158.972765 167.563885 
L 158.629413 167.657895 
L 158.292441 167.771687 
L 157.963146 167.904828 
L 157.642796 168.056815 
L 157.332629 168.227071 
L 157.033844 168.414953 
L 156.747599 168.619749 
L 156.475008 168.840683 
L 156.217133 169.076918 
L 155.974984 169.327557 
L 155.749514 169.591647 
L 155.541613 169.868183 
L 155.352108 170.156107 
L 155.181757 170.45432 
L 155.031247 170.761677 
L 154.901191 171.076997 
L 154.792125 171.399064 
L 154.704507 171.726633 
L 154.638711 172.058434 
L 154.595031 172.393176 
L 154.573672 172.729551 
L 154.574756 173.066243 
L 154.598316 173.401929 
L 154.644297 173.735285 
" style="fill:none;stroke:#bf00bf;stroke-linecap:square;"/>
   </g>
   <g id="line2d_43">
    <path clip-path="url(#p78ad91cd0f)" d="M 146.437261 140.154063 
L 146.385924 140.497655 
L 146.356333 140.843833 
L 146.348615 141.191233 
L 146.362804 141.538481 
L 146.398853 141.884206 
L 146.456625 142.227041 
L 146.535897 142.565629 
L 146.636362 142.89863 
L 146.75763 143.224726 
L 146.899224 143.542624 
L 147.060591 143.851063 
L 147.241096 144.148822 
L 147.440029 144.434717 
L 147.656605 144.707614 
L 147.889971 144.96643 
L 148.139205 145.210137 
L 148.403322 145.437765 
L 148.681278 145.64841 
L 148.971973 145.841235 
L 149.274255 146.015474 
L 149.586928 146.170433 
L 149.908753 146.305496 
L 150.238454 146.420126 
L 150.574724 146.513868 
L 150.916229 146.58635 
L 151.261615 146.637283 
L 151.609513 146.666466 
L 151.958542 146.673785 
L 152.307319 146.65921 
L 152.654461 146.622801 
L 152.998591 146.564704 
L 153.338345 146.485153 
L 153.672378 146.384465 
L 153.999365 146.263041 
L 154.318013 146.121367 
L 154.62706 145.960007 
L 154.925283 145.779605 
L 155.211505 145.580878 
L 155.484593 145.364617 
L 155.743471 145.131684 
L 155.987116 144.883002 
L 156.214569 144.619562 
L 156.424934 144.342408 
L 156.617383 144.052641 
L 156.791162 143.751409 
L 156.945589 143.439907 
L 157.080058 143.119369 
L 157.194046 142.791063 
L 157.287107 142.456288 
L 157.358881 142.116368 
L 157.409092 141.772645 
L 157.437548 141.426478 
L 157.444142 141.079232 
L 157.428856 140.732277 
L 157.391757 140.386979 
L 157.332997 140.0447 
L 157.252814 139.706787 
L 157.15153 139.374569 
L 157.029549 139.049353 
L 156.887356 138.732418 
L 156.725518 138.425007 
L 156.544674 138.128329 
L 156.34554 137.843548 
L 156.128905 137.571781 
L 155.895622 137.314094 
L 155.646612 137.071498 
L 155.382857 136.844943 
L 155.105396 136.635317 
L 154.815319 136.443441 
L 154.513769 136.270068 
L 154.201932 136.115876 
L 153.881032 135.981468 
L 153.552331 135.867373 
L 153.217121 135.774037 
L 152.876718 135.701826 
L 152.532459 135.651023 
L 152.185696 135.621828 
L 151.83779 135.614356 
L 151.490109 135.628638 
L 151.144018 135.664619 
L 150.800877 135.72216 
L 150.462033 135.801037 
L 150.128819 135.900942 
L 149.802546 136.021485 
L 149.484496 136.162197 
L 149.175921 136.322528 
L 148.878037 136.50185 
L 148.592016 136.699463 
L 148.318987 136.914592 
L 148.060026 137.146397 
L 147.816156 137.393968 
L 147.588341 137.656336 
L 147.377482 137.93247 
L 147.184414 138.221288 
L 147.009903 138.521655 
L 146.854641 138.83239 
L 146.719246 139.152273 
L 146.604259 139.480044 
L 146.510138 139.814413 
L 146.437261 140.154063 
" style="fill:none;stroke:#1a1a1a;stroke-linecap:square;"/>
   </g>
   <g id="line2d_44">
    <path clip-path="url(#p78ad91cd0f)" d="M 198.623622 190.341948 
L 199.768037 191.073299 
L 200.972604 191.716903 
L 202.23338 192.268917 
L 203.546057 192.725758 
L 204.905959 193.084137 
L 206.308047 193.341091 
L 207.746928 193.494024 
L 209.216866 193.54074 
L 210.711799 193.47948 
L 212.225358 193.308958 
L 213.750897 193.028397 
L 215.281523 192.637562 
L 216.810134 192.136787 
L 218.329461 191.527004 
L 219.832118 190.809763 
L 221.31065 189.987248 
L 222.757597 189.062289 
L 224.165546 188.038361 
L 225.527199 186.919582 
L 226.835432 185.710699 
L 228.083367 184.417068 
L 229.264427 183.044624 
L 230.372402 181.599842 
L 231.401509 180.089693 
L 232.34644 178.521592 
L 233.202412 176.903337 
L 233.965213 175.243047 
L 234.631228 173.549089 
L 235.197471 171.830015 
L 235.661598 170.094478 
L 236.02192 168.351168 
L 236.277402 166.608737 
L 236.427653 164.875726 
L 236.472915 163.160505 
L 236.414039 161.471208 
L 236.252454 159.815677 
L 235.99014 158.201415 
L 235.629584 156.635539 
L 235.173744 155.124746 
L 234.626001 153.675282 
L 233.990121 152.292918 
L 233.270203 150.982937 
L 232.470639 149.750121 
L 231.59607 148.598744 
L 230.651343 147.532578 
L 229.641469 146.554891 
L 228.571592 145.668462 
L 227.446947 144.87559 
L 226.272832 144.178107 
L 225.054579 143.577399 
L 223.797524 143.074424 
L 222.50699 142.669727 
L 221.188261 142.363469 
L 219.846568 142.15544 
L 218.487071 142.045083 
L 217.114848 142.031518 
L 215.734881 142.113556 
L 214.352052 142.289726 
L 212.971129 142.558287 
L 211.596765 142.91725 
L 210.233492 143.364394 
L 208.885717 143.897284 
L 207.557718 144.513282 
L 206.253644 145.209564 
L 204.977512 145.983133 
L 203.733207 146.83083 
L 202.524481 147.749345 
L 201.354951 148.735229 
L 200.228102 149.784899 
L 199.147284 150.894651 
L 198.11571 152.060667 
L 197.136459 153.279018 
L 196.212475 154.545676 
L 195.346563 155.856516 
L 194.541387 157.207324 
L 193.799473 158.593798 
L 193.123202 160.011557 
L 192.514812 161.456145 
L 191.976387 162.923031 
L 191.509861 164.407617 
L 191.117011 165.905242 
L 190.799448 167.411183 
L 190.558618 168.920662 
L 190.395791 170.428849 
L 190.312055 171.930869 
L 190.308309 173.421801 
L 190.385252 174.896693 
L 190.54338 176.35056 
L 190.782968 177.778396 
L 191.104067 179.175179 
L 191.506489 180.535883 
L 191.989795 181.855486 
L 192.553286 183.12898 
L 193.195989 184.351388 
L 193.916646 185.517776 
L 194.713699 186.62327 
L 195.585281 187.663072 
L 196.529201 188.632482 
L 197.542937 189.52692 
L 198.623622 190.341948 
" style="fill:none;stroke:#1a1a1a;stroke-linecap:square;"/>
   </g>
   <g id="line2d_45">
    <path clip-path="url(#p78ad91cd0f)" d="M 204.134049 211.286164 
L 205.00406 212.151078 
L 205.957857 212.935683 
L 206.993411 213.635199 
L 208.108219 214.244972 
L 209.299279 214.760508 
L 210.563067 215.177516 
L 211.895516 215.491962 
L 213.292004 215.700112 
L 214.747339 215.798593 
L 216.255763 215.784452 
L 217.810954 215.655213 
L 219.406043 215.408942 
L 221.033632 215.044311 
L 222.68584 214.560653 
L 224.354339 213.958024 
L 226.03042 213.23725 
L 227.705059 212.399973 
L 229.368997 211.448686 
L 231.012831 210.386752 
L 232.627109 209.218416 
L 234.202441 207.948799 
L 235.729597 206.583877 
L 237.199623 205.130442 
L 238.603945 203.596054 
L 239.934472 201.988966 
L 241.18369 200.318047 
L 242.344745 198.592684 
L 243.411518 196.822681 
L 244.378683 195.018143 
L 245.241743 193.189366 
L 245.997067 191.346716 
L 246.64189 189.50052 
L 247.174316 187.660952 
L 247.593293 185.837931 
L 247.898583 184.041033 
L 248.090722 182.279403 
L 248.170962 180.561689 
L 248.141218 178.895986 
L 248.003998 177.289785 
L 247.762343 175.749951 
L 247.419757 174.282695 
L 246.980143 172.893567 
L 246.447734 171.587458 
L 245.827038 170.368608 
L 245.122778 169.240622 
L 244.339843 168.206494 
L 243.483238 167.26863 
L 242.558043 166.428883 
L 241.569381 165.688581 
L 240.522378 165.048565 
L 239.422147 164.50922 
L 238.273756 164.070512 
L 237.082217 163.732022 
L 235.852469 163.492977 
L 234.589364 163.352281 
L 233.297666 163.308546 
L 231.98204 163.36012 
L 230.647047 163.505112 
L 229.297148 163.741413 
L 227.936699 164.066723 
L 226.569953 164.478567 
L 225.201061 164.974313 
L 223.834077 165.55119 
L 222.472957 166.206298 
L 221.121566 166.936627 
L 219.783678 167.739063 
L 218.462981 168.610398 
L 217.163082 169.547341 
L 215.887507 170.546524 
L 214.639706 171.604506 
L 213.423055 172.717783 
L 212.240859 173.882786 
L 211.096355 175.09589 
L 209.99271 176.353413 
L 208.933026 177.651618 
L 207.920337 178.986716 
L 206.957614 180.354868 
L 206.047759 181.75218 
L 205.193604 183.174708 
L 204.397913 184.618456 
L 203.663377 186.079372 
L 202.992609 187.553352 
L 202.38814 189.036234 
L 201.852414 190.523802 
L 201.387781 192.011777 
L 200.996491 193.495823 
L 200.680681 194.971541 
L 200.442369 196.434469 
L 200.283438 197.880082 
L 200.20563 199.303792 
L 200.210522 200.700949 
L 200.299519 202.06684 
L 200.473829 203.396693 
L 200.734451 204.685683 
L 201.082145 205.928936 
L 201.517419 207.121533 
L 202.040496 208.258525 
L 202.651297 209.334942 
L 203.349406 210.345809 
L 204.134049 211.286164 
" style="fill:none;stroke:#0000ff;stroke-linecap:square;"/>
   </g>
   <g id="legend_1">
    <g id="patch_2">
     <path d="M 176.744947 121.23 
L 344.471197 121.23 
L 344.471197 27.8925 
L 176.744947 27.8925 
z
" style="fill:#ffffff;stroke:#000000;stroke-linejoin:miter;"/>
    </g>
    <g id="PathCollection_9">
     <path d="M 185.144947 40.896693 
C 185.737959 40.896693 186.306763 40.661087 186.726085 40.241764 
C 187.145408 39.822441 187.381015 39.253637 187.381015 38.660625 
C 187.381015 38.067613 187.145408 37.498809 186.726085 37.079486 
C 186.306763 36.660163 185.737959 36.424557 185.144947 36.424557 
C 184.551934 36.424557 183.983131 36.660163 183.563808 37.079486 
C 183.144485 37.498809 182.908879 38.067613 182.908879 38.660625 
C 182.908879 39.253637 183.144485 39.822441 183.563808 40.241764 
C 183.983131 40.661087 184.551934 40.896693 185.144947 40.896693 
z
" style="fill:#008000;stroke:#008000;"/>
     <path d="M 193.544947 39.846693 
C 194.137959 39.846693 194.706763 39.611087 195.126085 39.191764 
C 195.545408 38.772441 195.781015 38.203637 195.781015 37.610625 
C 195.781015 37.017613 195.545408 36.448809 195.126085 36.029486 
C 194.706763 35.610163 194.137959 35.374557 193.544947 35.374557 
C 192.951934 35.374557 192.383131 35.610163 191.963808 36.029486 
C 191.544485 36.448809 191.308879 37.017613 191.308879 37.610625 
C 191.308879 38.203637 191.544485 38.772441 191.963808 39.191764 
C 192.383131 39.611087 192.951934 39.846693 193.544947 39.846693 
z
" style="fill:#008000;stroke:#008000;"/>
     <path d="M 201.944947 41.421693 
C 202.537959 41.421693 203.106763 41.186087 203.526085 40.766764 
C 203.945408 40.347441 204.181015 39.778637 204.181015 39.185625 
C 204.181015 38.592613 203.945408 38.023809 203.526085 37.604486 
C 203.106763 37.185163 202.537959 36.949557 201.944947 36.949557 
C 201.351934 36.949557 200.783131 37.185163 200.363808 37.604486 
C 199.944485 38.023809 199.708879 38.592613 199.708879 39.185625 
C 199.708879 39.778637 199.944485 40.347441 200.363808 40.766764 
C 200.783131 41.186087 201.351934 41.421693 201.944947 41.421693 
z
" style="fill:#008000;stroke:#008000;"/>
    </g>
    <g id="text_1">
     <!-- Z58_low -->
     <defs>
      <path d="M 5.609375 72.90625 
L 62.890625 72.90625 
L 62.890625 65.375 
L 16.796875 8.296875 
L 64.015625 8.296875 
L 64.015625 0 
L 4.5 0 
L 4.5 7.515625 
L 50.59375 64.59375 
L 5.609375 64.59375 
z
" id="BitstreamVeraSans-Roman-5a"/>
      <path d="M 50.984375 -16.609375 
L 50.984375 -23.578125 
L -0.984375 -23.578125 
L -0.984375 -16.609375 
z
" id="BitstreamVeraSans-Roman-5f"/>
      <path d="M 10.796875 72.90625 
L 49.515625 72.90625 
L 49.515625 64.59375 
L 19.828125 64.59375 
L 19.828125 46.734375 
Q 21.96875 47.46875 24.109375 47.828125 
Q 26.265625 48.1875 28.421875 48.1875 
Q 40.625 48.1875 47.75 41.5 
Q 54.890625 34.8125 54.890625 23.390625 
Q 54.890625 11.625 47.5625 5.09375 
Q 40.234375 -1.421875 26.90625 -1.421875 
Q 22.3125 -1.421875 17.546875 -0.640625 
Q 12.796875 0.140625 7.71875 1.703125 
L 7.71875 11.625 
Q 12.109375 9.234375 16.796875 8.0625 
Q 21.484375 6.890625 26.703125 6.890625 
Q 35.15625 6.890625 40.078125 11.328125 
Q 45.015625 15.765625 45.015625 23.390625 
Q 45.015625 31 40.078125 35.4375 
Q 35.15625 39.890625 26.703125 39.890625 
Q 22.75 39.890625 18.8125 39.015625 
Q 14.890625 38.140625 10.796875 36.28125 
z
" id="BitstreamVeraSans-Roman-35"/>
      <path d="M 31.78125 34.625 
Q 24.75 34.625 20.71875 30.859375 
Q 16.703125 27.09375 16.703125 20.515625 
Q 16.703125 13.921875 20.71875 10.15625 
Q 24.75 6.390625 31.78125 6.390625 
Q 38.8125 6.390625 42.859375 10.171875 
Q 46.921875 13.96875 46.921875 20.515625 
Q 46.921875 27.09375 42.890625 30.859375 
Q 38.875 34.625 31.78125 34.625 
M 21.921875 38.8125 
Q 15.578125 40.375 12.03125 44.71875 
Q 8.5 49.078125 8.5 55.328125 
Q 8.5 64.0625 14.71875 69.140625 
Q 20.953125 74.21875 31.78125 74.21875 
Q 42.671875 74.21875 48.875 69.140625 
Q 55.078125 64.0625 55.078125 55.328125 
Q 55.078125 49.078125 51.53125 44.71875 
Q 48 40.375 41.703125 38.8125 
Q 48.828125 37.15625 52.796875 32.3125 
Q 56.78125 27.484375 56.78125 20.515625 
Q 56.78125 9.90625 50.3125 4.234375 
Q 43.84375 -1.421875 31.78125 -1.421875 
Q 19.734375 -1.421875 13.25 4.234375 
Q 6.78125 9.90625 6.78125 20.515625 
Q 6.78125 27.484375 10.78125 32.3125 
Q 14.796875 37.15625 21.921875 38.8125 
M 18.3125 54.390625 
Q 18.3125 48.734375 21.84375 45.5625 
Q 25.390625 42.390625 31.78125 42.390625 
Q 38.140625 42.390625 41.71875 45.5625 
Q 45.3125 48.734375 45.3125 54.390625 
Q 45.3125 60.0625 41.71875 63.234375 
Q 38.140625 66.40625 31.78125 66.40625 
Q 25.390625 66.40625 21.84375 63.234375 
Q 18.3125 60.0625 18.3125 54.390625 
" id="BitstreamVeraSans-Roman-38"/>
      <path d="M 30.609375 48.390625 
Q 23.390625 48.390625 19.1875 42.75 
Q 14.984375 37.109375 14.984375 27.296875 
Q 14.984375 17.484375 19.15625 11.84375 
Q 23.34375 6.203125 30.609375 6.203125 
Q 37.796875 6.203125 41.984375 11.859375 
Q 46.1875 17.53125 46.1875 27.296875 
Q 46.1875 37.015625 41.984375 42.703125 
Q 37.796875 48.390625 30.609375 48.390625 
M 30.609375 56 
Q 42.328125 56 49.015625 48.375 
Q 55.71875 40.765625 55.71875 27.296875 
Q 55.71875 13.875 49.015625 6.21875 
Q 42.328125 -1.421875 30.609375 -1.421875 
Q 18.84375 -1.421875 12.171875 6.21875 
Q 5.515625 13.875 5.515625 27.296875 
Q 5.515625 40.765625 12.171875 48.375 
Q 18.84375 56 30.609375 56 
" id="BitstreamVeraSans-Roman-6f"/>
      <path d="M 9.421875 75.984375 
L 18.40625 75.984375 
L 18.40625 0 
L 9.421875 0 
z
" id="BitstreamVeraSans-Roman-6c"/>
      <path d="M 4.203125 54.6875 
L 13.1875 54.6875 
L 24.421875 12.015625 
L 35.59375 54.6875 
L 46.1875 54.6875 
L 57.421875 12.015625 
L 68.609375 54.6875 
L 77.59375 54.6875 
L 63.28125 0 
L 52.6875 0 
L 40.921875 44.828125 
L 29.109375 0 
L 18.5 0 
z
" id="BitstreamVeraSans-Roman-77"/>
     </defs>
     <g transform="translate(215.144946646 41.810625)scale(0.12 -0.12)">
      <use xlink:href="#BitstreamVeraSans-Roman-5a"/>
      <use x="68.505859375" xlink:href="#BitstreamVeraSans-Roman-35"/>
      <use x="132.12890625" xlink:href="#BitstreamVeraSans-Roman-38"/>
      <use x="195.751953125" xlink:href="#BitstreamVeraSans-Roman-5f"/>
      <use x="245.751953125" xlink:href="#BitstreamVeraSans-Roman-6c"/>
      <use x="273.53515625" xlink:href="#BitstreamVeraSans-Roman-6f"/>
      <use x="334.716796875" xlink:href="#BitstreamVeraSans-Roman-77"/>
     </g>
    </g>
    <g id="PathCollection_10">
     <path d="M 182.908879 58.844193 
L 187.381015 58.844193 
L 187.381015 54.372057 
L 182.908879 54.372057 
z
" style="fill:#ffffff;stroke:#bf00bf;"/>
     <path d="M 191.308879 57.794193 
L 195.781015 57.794193 
L 195.781015 53.322057 
L 191.308879 53.322057 
z
" style="fill:#ffffff;stroke:#bf00bf;"/>
     <path d="M 199.708879 59.369193 
L 204.181015 59.369193 
L 204.181015 54.897057 
L 199.708879 54.897057 
z
" style="fill:#ffffff;stroke:#bf00bf;"/>
    </g>
    <g id="text_2">
     <!-- Z58_mid_geo_mean -->
     <defs>
      <path d="M 54.890625 33.015625 
L 54.890625 0 
L 45.90625 0 
L 45.90625 32.71875 
Q 45.90625 40.484375 42.875 44.328125 
Q 39.84375 48.1875 33.796875 48.1875 
Q 26.515625 48.1875 22.3125 43.546875 
Q 18.109375 38.921875 18.109375 30.90625 
L 18.109375 0 
L 9.078125 0 
L 9.078125 54.6875 
L 18.109375 54.6875 
L 18.109375 46.1875 
Q 21.34375 51.125 25.703125 53.5625 
Q 30.078125 56 35.796875 56 
Q 45.21875 56 50.046875 50.171875 
Q 54.890625 44.34375 54.890625 33.015625 
" id="BitstreamVeraSans-Roman-6e"/>
      <path d="M 52 44.1875 
Q 55.375 50.25 60.0625 53.125 
Q 64.75 56 71.09375 56 
Q 79.640625 56 84.28125 50.015625 
Q 88.921875 44.046875 88.921875 33.015625 
L 88.921875 0 
L 79.890625 0 
L 79.890625 32.71875 
Q 79.890625 40.578125 77.09375 44.375 
Q 74.3125 48.1875 68.609375 48.1875 
Q 61.625 48.1875 57.5625 43.546875 
Q 53.515625 38.921875 53.515625 30.90625 
L 53.515625 0 
L 44.484375 0 
L 44.484375 32.71875 
Q 44.484375 40.625 41.703125 44.40625 
Q 38.921875 48.1875 33.109375 48.1875 
Q 26.21875 48.1875 22.15625 43.53125 
Q 18.109375 38.875 18.109375 30.90625 
L 18.109375 0 
L 9.078125 0 
L 9.078125 54.6875 
L 18.109375 54.6875 
L 18.109375 46.1875 
Q 21.1875 51.21875 25.484375 53.609375 
Q 29.78125 56 35.6875 56 
Q 41.65625 56 45.828125 52.96875 
Q 50 49.953125 52 44.1875 
" id="BitstreamVeraSans-Roman-6d"/>
      <path d="M 9.421875 54.6875 
L 18.40625 54.6875 
L 18.40625 0 
L 9.421875 0 
z
M 9.421875 75.984375 
L 18.40625 75.984375 
L 18.40625 64.59375 
L 9.421875 64.59375 
z
" id="BitstreamVeraSans-Roman-69"/>
      <path d="M 56.203125 29.59375 
L 56.203125 25.203125 
L 14.890625 25.203125 
Q 15.484375 15.921875 20.484375 11.0625 
Q 25.484375 6.203125 34.421875 6.203125 
Q 39.59375 6.203125 44.453125 7.46875 
Q 49.3125 8.734375 54.109375 11.28125 
L 54.109375 2.78125 
Q 49.265625 0.734375 44.1875 -0.34375 
Q 39.109375 -1.421875 33.890625 -1.421875 
Q 20.796875 -1.421875 13.15625 6.1875 
Q 5.515625 13.8125 5.515625 26.8125 
Q 5.515625 40.234375 12.765625 48.109375 
Q 20.015625 56 32.328125 56 
Q 43.359375 56 49.78125 48.890625 
Q 56.203125 41.796875 56.203125 29.59375 
M 47.21875 32.234375 
Q 47.125 39.59375 43.09375 43.984375 
Q 39.0625 48.390625 32.421875 48.390625 
Q 24.90625 48.390625 20.390625 44.140625 
Q 15.875 39.890625 15.1875 32.171875 
z
" id="BitstreamVeraSans-Roman-65"/>
      <path d="M 45.40625 46.390625 
L 45.40625 75.984375 
L 54.390625 75.984375 
L 54.390625 0 
L 45.40625 0 
L 45.40625 8.203125 
Q 42.578125 3.328125 38.25 0.953125 
Q 33.9375 -1.421875 27.875 -1.421875 
Q 17.96875 -1.421875 11.734375 6.484375 
Q 5.515625 14.40625 5.515625 27.296875 
Q 5.515625 40.1875 11.734375 48.09375 
Q 17.96875 56 27.875 56 
Q 33.9375 56 38.25 53.625 
Q 42.578125 51.265625 45.40625 46.390625 
M 14.796875 27.296875 
Q 14.796875 17.390625 18.875 11.75 
Q 22.953125 6.109375 30.078125 6.109375 
Q 37.203125 6.109375 41.296875 11.75 
Q 45.40625 17.390625 45.40625 27.296875 
Q 45.40625 37.203125 41.296875 42.84375 
Q 37.203125 48.484375 30.078125 48.484375 
Q 22.953125 48.484375 18.875 42.84375 
Q 14.796875 37.203125 14.796875 27.296875 
" id="BitstreamVeraSans-Roman-64"/>
      <path d="M 45.40625 27.984375 
Q 45.40625 37.75 41.375 43.109375 
Q 37.359375 48.484375 30.078125 48.484375 
Q 22.859375 48.484375 18.828125 43.109375 
Q 14.796875 37.75 14.796875 27.984375 
Q 14.796875 18.265625 18.828125 12.890625 
Q 22.859375 7.515625 30.078125 7.515625 
Q 37.359375 7.515625 41.375 12.890625 
Q 45.40625 18.265625 45.40625 27.984375 
M 54.390625 6.78125 
Q 54.390625 -7.171875 48.1875 -13.984375 
Q 42 -20.796875 29.203125 -20.796875 
Q 24.46875 -20.796875 20.265625 -20.09375 
Q 16.0625 -19.390625 12.109375 -17.921875 
L 12.109375 -9.1875 
Q 16.0625 -11.328125 19.921875 -12.34375 
Q 23.78125 -13.375 27.78125 -13.375 
Q 36.625 -13.375 41.015625 -8.765625 
Q 45.40625 -4.15625 45.40625 5.171875 
L 45.40625 9.625 
Q 42.625 4.78125 38.28125 2.390625 
Q 33.9375 0 27.875 0 
Q 17.828125 0 11.671875 7.65625 
Q 5.515625 15.328125 5.515625 27.984375 
Q 5.515625 40.671875 11.671875 48.328125 
Q 17.828125 56 27.875 56 
Q 33.9375 56 38.28125 53.609375 
Q 42.625 51.21875 45.40625 46.390625 
L 45.40625 54.6875 
L 54.390625 54.6875 
z
" id="BitstreamVeraSans-Roman-67"/>
      <path d="M 34.28125 27.484375 
Q 23.390625 27.484375 19.1875 25 
Q 14.984375 22.515625 14.984375 16.5 
Q 14.984375 11.71875 18.140625 8.90625 
Q 21.296875 6.109375 26.703125 6.109375 
Q 34.1875 6.109375 38.703125 11.40625 
Q 43.21875 16.703125 43.21875 25.484375 
L 43.21875 27.484375 
z
M 52.203125 31.203125 
L 52.203125 0 
L 43.21875 0 
L 43.21875 8.296875 
Q 40.140625 3.328125 35.546875 0.953125 
Q 30.953125 -1.421875 24.3125 -1.421875 
Q 15.921875 -1.421875 10.953125 3.296875 
Q 6 8.015625 6 15.921875 
Q 6 25.140625 12.171875 29.828125 
Q 18.359375 34.515625 30.609375 34.515625 
L 43.21875 34.515625 
L 43.21875 35.40625 
Q 43.21875 41.609375 39.140625 45 
Q 35.0625 48.390625 27.6875 48.390625 
Q 23 48.390625 18.546875 47.265625 
Q 14.109375 46.140625 10.015625 43.890625 
L 10.015625 52.203125 
Q 14.9375 54.109375 19.578125 55.046875 
Q 24.21875 56 28.609375 56 
Q 40.484375 56 46.34375 49.84375 
Q 52.203125 43.703125 52.203125 31.203125 
" id="BitstreamVeraSans-Roman-61"/>
     </defs>
     <g transform="translate(215.144946646 59.758125)scale(0.12 -0.12)">
      <use xlink:href="#BitstreamVeraSans-Roman-5a"/>
      <use x="68.505859375" xlink:href="#BitstreamVeraSans-Roman-35"/>
      <use x="132.12890625" xlink:href="#BitstreamVeraSans-Roman-38"/>
      <use x="195.751953125" xlink:href="#BitstreamVeraSans-Roman-5f"/>
      <use x="245.751953125" xlink:href="#BitstreamVeraSans-Roman-6d"/>
      <use x="343.1640625" xlink:href="#BitstreamVeraSans-Roman-69"/>
      <use x="370.947265625" xlink:href="#BitstreamVeraSans-Roman-64"/>
      <use x="434.423828125" xlink:href="#BitstreamVeraSans-Roman-5f"/>
      <use x="484.423828125" xlink:href="#BitstreamVeraSans-Roman-67"/>
      <use x="547.900390625" xlink:href="#BitstreamVeraSans-Roman-65"/>
      <use x="609.423828125" xlink:href="#BitstreamVeraSans-Roman-6f"/>
      <use x="670.60546875" xlink:href="#BitstreamVeraSans-Roman-5f"/>
      <use x="720.60546875" xlink:href="#BitstreamVeraSans-Roman-6d"/>
      <use x="818.017578125" xlink:href="#BitstreamVeraSans-Roman-65"/>
      <use x="879.541015625" xlink:href="#BitstreamVeraSans-Roman-61"/>
      <use x="940.8203125" xlink:href="#BitstreamVeraSans-Roman-6e"/>
     </g>
    </g>
    <g id="PathCollection_11">
     <path d="M 185.144947 72.319557 
L 184.642918 73.864642 
L 183.01832 73.864642 
L 184.332647 74.819557 
L 183.830619 76.364642 
L 185.144947 75.409727 
L 186.459274 76.364642 
L 185.957246 74.819557 
L 187.271574 73.864642 
L 185.646975 73.864642 
z
" style="fill:#ffffff;stroke:#1a1a1a;"/>
     <path d="M 193.544947 71.269557 
L 193.042918 72.814642 
L 191.41832 72.814642 
L 192.732647 73.769557 
L 192.230619 75.314642 
L 193.544947 74.359727 
L 194.859274 75.314642 
L 194.357246 73.769557 
L 195.671574 72.814642 
L 194.046975 72.814642 
z
" style="fill:#ffffff;stroke:#1a1a1a;"/>
     <path d="M 201.944947 72.844557 
L 201.442918 74.389642 
L 199.81832 74.389642 
L 201.132647 75.344557 
L 200.630619 76.889642 
L 201.944947 75.934727 
L 203.259274 76.889642 
L 202.757246 75.344557 
L 204.071574 74.389642 
L 202.446975 74.389642 
z
" style="fill:#ffffff;stroke:#1a1a1a;"/>
    </g>
    <g id="text_3">
     <!-- Z58_mid_tc_mean -->
     <defs>
      <path d="M 18.3125 70.21875 
L 18.3125 54.6875 
L 36.8125 54.6875 
L 36.8125 47.703125 
L 18.3125 47.703125 
L 18.3125 18.015625 
Q 18.3125 11.328125 20.140625 9.421875 
Q 21.96875 7.515625 27.59375 7.515625 
L 36.8125 7.515625 
L 36.8125 0 
L 27.59375 0 
Q 17.1875 0 13.234375 3.875 
Q 9.28125 7.765625 9.28125 18.015625 
L 9.28125 47.703125 
L 2.6875 47.703125 
L 2.6875 54.6875 
L 9.28125 54.6875 
L 9.28125 70.21875 
z
" id="BitstreamVeraSans-Roman-74"/>
      <path d="M 48.78125 52.59375 
L 48.78125 44.1875 
Q 44.96875 46.296875 41.140625 47.34375 
Q 37.3125 48.390625 33.40625 48.390625 
Q 24.65625 48.390625 19.8125 42.84375 
Q 14.984375 37.3125 14.984375 27.296875 
Q 14.984375 17.28125 19.8125 11.734375 
Q 24.65625 6.203125 33.40625 6.203125 
Q 37.3125 6.203125 41.140625 7.25 
Q 44.96875 8.296875 48.78125 10.40625 
L 48.78125 2.09375 
Q 45.015625 0.34375 40.984375 -0.53125 
Q 36.96875 -1.421875 32.421875 -1.421875 
Q 20.0625 -1.421875 12.78125 6.34375 
Q 5.515625 14.109375 5.515625 27.296875 
Q 5.515625 40.671875 12.859375 48.328125 
Q 20.21875 56 33.015625 56 
Q 37.15625 56 41.109375 55.140625 
Q 45.0625 54.296875 48.78125 52.59375 
" id="BitstreamVeraSans-Roman-63"/>
     </defs>
     <g transform="translate(215.144946646 77.705625)scale(0.12 -0.12)">
      <use xlink:href="#BitstreamVeraSans-Roman-5a"/>
      <use x="68.505859375" xlink:href="#BitstreamVeraSans-Roman-35"/>
      <use x="132.12890625" xlink:href="#BitstreamVeraSans-Roman-38"/>
      <use x="195.751953125" xlink:href="#BitstreamVeraSans-Roman-5f"/>
      <use x="245.751953125" xlink:href="#BitstreamVeraSans-Roman-6d"/>
      <use x="343.1640625" xlink:href="#BitstreamVeraSans-Roman-69"/>
      <use x="370.947265625" xlink:href="#BitstreamVeraSans-Roman-64"/>
      <use x="434.423828125" xlink:href="#BitstreamVeraSans-Roman-5f"/>
      <use x="484.423828125" xlink:href="#BitstreamVeraSans-Roman-74"/>
      <use x="523.6328125" xlink:href="#BitstreamVeraSans-Roman-63"/>
      <use x="578.61328125" xlink:href="#BitstreamVeraSans-Roman-5f"/>
      <use x="628.61328125" xlink:href="#BitstreamVeraSans-Roman-6d"/>
      <use x="726.025390625" xlink:href="#BitstreamVeraSans-Roman-65"/>
      <use x="787.548828125" xlink:href="#BitstreamVeraSans-Roman-61"/>
      <use x="848.828125" xlink:href="#BitstreamVeraSans-Roman-6e"/>
     </g>
    </g>
    <g id="PathCollection_12">
     <path d="M 185.144947 90.267057 
L 182.908879 94.739193 
L 187.381015 94.739193 
z
" style="fill:#ffffff;stroke:#1a1a1a;"/>
     <path d="M 193.544947 89.217057 
L 191.308879 93.689193 
L 195.781015 93.689193 
z
" style="fill:#ffffff;stroke:#1a1a1a;"/>
     <path d="M 201.944947 90.792057 
L 199.708879 95.264193 
L 204.181015 95.264193 
z
" style="fill:#ffffff;stroke:#1a1a1a;"/>
    </g>
    <g id="text_4">
     <!-- Z58_mag_tc_mean -->
     <g transform="translate(215.144946646 95.653125)scale(0.12 -0.12)">
      <use xlink:href="#BitstreamVeraSans-Roman-5a"/>
      <use x="68.505859375" xlink:href="#BitstreamVeraSans-Roman-35"/>
      <use x="132.12890625" xlink:href="#BitstreamVeraSans-Roman-38"/>
      <use x="195.751953125" xlink:href="#BitstreamVeraSans-Roman-5f"/>
      <use x="245.751953125" xlink:href="#BitstreamVeraSans-Roman-6d"/>
      <use x="343.1640625" xlink:href="#BitstreamVeraSans-Roman-61"/>
      <use x="404.443359375" xlink:href="#BitstreamVeraSans-Roman-67"/>
      <use x="467.919921875" xlink:href="#BitstreamVeraSans-Roman-5f"/>
      <use x="517.919921875" xlink:href="#BitstreamVeraSans-Roman-74"/>
      <use x="557.12890625" xlink:href="#BitstreamVeraSans-Roman-63"/>
      <use x="612.109375" xlink:href="#BitstreamVeraSans-Roman-5f"/>
      <use x="662.109375" xlink:href="#BitstreamVeraSans-Roman-6d"/>
      <use x="759.521484375" xlink:href="#BitstreamVeraSans-Roman-65"/>
      <use x="821.044921875" xlink:href="#BitstreamVeraSans-Roman-61"/>
      <use x="882.32421875" xlink:href="#BitstreamVeraSans-Roman-6e"/>
     </g>
    </g>
    <g id="PathCollection_13">
     <path d="M 182.908879 112.686693 
L 187.381015 112.686693 
L 187.381015 108.214557 
L 182.908879 108.214557 
z
" style="fill:#ffffff;stroke:#0000ff;"/>
     <path d="M 191.308879 111.636693 
L 195.781015 111.636693 
L 195.781015 107.164557 
L 191.308879 107.164557 
z
" style="fill:#ffffff;stroke:#0000ff;"/>
     <path d="M 199.708879 113.211693 
L 204.181015 113.211693 
L 204.181015 108.739557 
L 199.708879 108.739557 
z
" style="fill:#ffffff;stroke:#0000ff;"/>
    </g>
    <g id="text_5">
     <!-- Z58_mag_geo_mean -->
     <g transform="translate(215.144946646 113.600625)scale(0.12 -0.12)">
      <use xlink:href="#BitstreamVeraSans-Roman-5a"/>
      <use x="68.505859375" xlink:href="#BitstreamVeraSans-Roman-35"/>
      <use x="132.12890625" xlink:href="#BitstreamVeraSans-Roman-38"/>
      <use x="195.751953125" xlink:href="#BitstreamVeraSans-Roman-5f"/>
      <use x="245.751953125" xlink:href="#BitstreamVeraSans-Roman-6d"/>
      <use x="343.1640625" xlink:href="#BitstreamVeraSans-Roman-61"/>
      <use x="404.443359375" xlink:href="#BitstreamVeraSans-Roman-67"/>
      <use x="467.919921875" xlink:href="#BitstreamVeraSans-Roman-5f"/>
      <use x="517.919921875" xlink:href="#BitstreamVeraSans-Roman-67"/>
      <use x="581.396484375" xlink:href="#BitstreamVeraSans-Roman-65"/>
      <use x="642.919921875" xlink:href="#BitstreamVeraSans-Roman-6f"/>
      <use x="704.1015625" xlink:href="#BitstreamVeraSans-Roman-5f"/>
      <use x="754.1015625" xlink:href="#BitstreamVeraSans-Roman-6d"/>
      <use x="851.513671875" xlink:href="#BitstreamVeraSans-Roman-65"/>
      <use x="913.037109375" xlink:href="#BitstreamVeraSans-Roman-61"/>
      <use x="974.31640625" xlink:href="#BitstreamVeraSans-Roman-6e"/>
     </g>
    </g>
   </g>
  </g>
 </g>
 <defs>
  <clipPath id="p78ad91cd0f">
   <rect height="253.4" width="235.436890244" x="35.4828125" y="7.2"/>
  </clipPath>
 </defs>
</svg>
