<?xml version="1.0" encoding="utf-8" standalone="no"?>
<!DOCTYPE svg PUBLIC "-//W3C//DTD SVG 1.1//EN"
  "http://www.w3.org/Graphics/SVG/1.1/DTD/svg11.dtd">
<!-- Created with matplotlib (http://matplotlib.org/) -->
<svg height="281pt" version="1.1" viewBox="0 0 328 281" width="328pt" xmlns="http://www.w3.org/2000/svg" xmlns:xlink="http://www.w3.org/1999/xlink">
 <defs>
  <style type="text/css">
*{stroke-linecap:butt;stroke-linejoin:round;stroke-miterlimit:100000;}
  </style>
 </defs>
 <g id="figure_1">
  <g id="patch_1">
   <path d="M 0 281.478125 
L 328.874352 281.478125 
L 328.874352 0 
L 0 0 
L 0 281.478125 
z
" style="fill:none;"/>
  </g>
  <g id="axes_1">
   <g id="PathCollection_1">
    <defs>
     <path d="M 0 2.236068 
C 0.593012 2.236068 1.161816 2.000462 1.581139 1.581139 
C 2.000462 1.161816 2.236068 0.593012 2.236068 0 
C 2.236068 -0.593012 2.000462 -1.161816 1.581139 -1.581139 
C 1.161816 -2.000462 0.593012 -2.236068 0 -2.236068 
C -0.593012 -2.236068 -1.161816 -2.000462 -1.581139 -1.581139 
C -2.000462 -1.161816 -2.236068 -0.593012 -2.236068 0 
C -2.236068 0.593012 -2.000462 1.161816 -1.581139 1.581139 
C -1.161816 2.000462 -0.593012 2.236068 0 2.236068 
z
" id="m194b4f15a5" style="stroke:#008000;"/>
    </defs>
    <g clip-path="url(#pdb2b67eaff)">
     <use style="fill:#008000;stroke:#008000;" x="143.384958242" xlink:href="#m194b4f15a5" y="50.4412350717"/>
     <use style="fill:#008000;stroke:#008000;" x="144.203760185" xlink:href="#m194b4f15a5" y="93.3651362778"/>
     <use style="fill:#008000;stroke:#008000;" x="142.569961937" xlink:href="#m194b4f15a5" y="72.4275296884"/>
     <use style="fill:#008000;stroke:#008000;" x="150.90323221" xlink:href="#m194b4f15a5" y="79.1386272716"/>
     <use style="fill:#008000;stroke:#008000;" x="138.13412377" xlink:href="#m194b4f15a5" y="67.6638320484"/>
     <use style="fill:#008000;stroke:#008000;" x="147.771713078" xlink:href="#m194b4f15a5" y="74.3131802695"/>
    </g>
   </g>
   <g id="PathCollection_2">
    <defs>
     <path d="M 0 2.236068 
C 0.593012 2.236068 1.161816 2.000462 1.581139 1.581139 
C 2.000462 1.161816 2.236068 0.593012 2.236068 0 
C 2.236068 -0.593012 2.000462 -1.161816 1.581139 -1.581139 
C 1.161816 -2.000462 0.593012 -2.236068 0 -2.236068 
C -0.593012 -2.236068 -1.161816 -2.000462 -1.581139 -1.581139 
C -2.000462 -1.161816 -2.236068 -0.593012 -2.236068 0 
C -2.236068 0.593012 -2.000462 1.161816 -1.581139 1.581139 
C -1.161816 2.000462 -0.593012 2.236068 0 2.236068 
z
" id="C0_0_64eaa92bc2"/>
    </defs>
    <g clip-path="url(#pdb2b67eaff)">
     <use style="fill:none;stroke:#0000ff;" x="155.563577725" xlink:href="#C0_0_64eaa92bc2" y="218.367709643"/>
    </g>
    <g clip-path="url(#pdb2b67eaff)">
     <use style="fill:none;stroke:#0000ff;" x="141.134792048" xlink:href="#C0_0_64eaa92bc2" y="219.651114515"/>
    </g>
    <g clip-path="url(#pdb2b67eaff)">
     <use style="fill:none;stroke:#0000ff;" x="146.56855494" xlink:href="#C0_0_64eaa92bc2" y="214.475289038"/>
    </g>
    <g clip-path="url(#pdb2b67eaff)">
     <use style="fill:none;stroke:#0000ff;" x="148.821990725" xlink:href="#C0_0_64eaa92bc2" y="205.411774225"/>
    </g>
    <g clip-path="url(#pdb2b67eaff)">
     <use style="fill:none;stroke:#0000ff;" x="160.688127913" xlink:href="#C0_0_64eaa92bc2" y="216.065049654"/>
    </g>
    <g clip-path="url(#pdb2b67eaff)">
     <use style="fill:none;stroke:#0000ff;" x="152.759493063" xlink:href="#C0_0_64eaa92bc2" y="218.16562751"/>
    </g>
   </g>
   <g id="PathCollection_3">
    <defs>
     <path d="M 0 2.236068 
C 0.593012 2.236068 1.161816 2.000462 1.581139 1.581139 
C 2.000462 1.161816 2.236068 0.593012 2.236068 0 
C 2.236068 -0.593012 2.000462 -1.161816 1.581139 -1.581139 
C 1.161816 -2.000462 0.593012 -2.236068 0 -2.236068 
C -0.593012 -2.236068 -1.161816 -2.000462 -1.581139 -1.581139 
C -2.000462 -1.161816 -2.236068 -0.593012 -2.236068 0 
C -2.236068 0.593012 -2.000462 1.161816 -1.581139 1.581139 
C -1.161816 2.000462 -0.593012 2.236068 0 2.236068 
z
" id="C1_0_7416769949"/>
    </defs>
    <g clip-path="url(#pdb2b67eaff)">
     <use style="fill:none;stroke:#ff0000;" x="171.506551901" xlink:href="#C1_0_7416769949" y="230.658145676"/>
    </g>
    <g clip-path="url(#pdb2b67eaff)">
     <use style="fill:none;stroke:#ff0000;" x="154.420265764" xlink:href="#C1_0_7416769949" y="233.548744708"/>
    </g>
    <g clip-path="url(#pdb2b67eaff)">
     <use style="fill:none;stroke:#ff0000;" x="140.718757083" xlink:href="#C1_0_7416769949" y="222.607693787"/>
    </g>
    <g clip-path="url(#pdb2b67eaff)">
     <use style="fill:none;stroke:#ff0000;" x="148.060109199" xlink:href="#C1_0_7416769949" y="207.330863413"/>
    </g>
    <g clip-path="url(#pdb2b67eaff)">
     <use style="fill:none;stroke:#ff0000;" x="152.893376968" xlink:href="#C1_0_7416769949" y="221.991789475"/>
    </g>
    <g clip-path="url(#pdb2b67eaff)">
     <use style="fill:none;stroke:#ff0000;" x="150.289523459" xlink:href="#C1_0_7416769949" y="217.177970994"/>
    </g>
   </g>
   <g id="PathCollection_4">
    <defs>
     <path d="M -2.236068 2.236068 
L 2.236068 2.236068 
L 2.236068 -2.236068 
L -2.236068 -2.236068 
z
" id="ma92bcd8a03" style="stroke:#0000ff;"/>
    </defs>
    <g clip-path="url(#pdb2b67eaff)">
     <use style="fill:#ffffff;stroke:#0000ff;" x="150.914667469" xlink:href="#ma92bcd8a03" y="215.567871367"/>
    </g>
   </g>
   <g id="PathCollection_5">
    <defs>
     <path d="M -2.236068 2.236068 
L 2.236068 2.236068 
L 2.236068 -2.236068 
L -2.236068 -2.236068 
z
" id="m669e02ea22" style="stroke:#ff0000;"/>
    </defs>
    <g clip-path="url(#pdb2b67eaff)">
     <use style="fill:#ffffff;stroke:#ff0000;" x="152.732987343" xlink:href="#m669e02ea22" y="222.779882805"/>
    </g>
   </g>
   <g id="line2d_1">
    <path clip-path="url(#pdb2b67eaff)" d="M 153.201258 21.925935 
L 159.068788 22.079392 
L 164.920237 22.539341 
L 170.739564 23.304522 
L 176.51082 24.372837 
L 182.218187 25.741359 
L 187.84602 27.406336 
L 193.378894 29.363205 
L 198.801643 31.606602 
L 204.099406 34.130378 
L 209.25766 36.927615 
L 214.262267 39.990648 
L 219.099511 43.311079 
L 223.756132 46.879808 
L 228.219367 50.687053 
L 232.476982 54.72238 
L 236.517308 58.974726 
L 240.329271 63.432438 
L 243.902422 68.083296 
L 247.226967 72.914553 
L 250.293795 77.912968 
L 253.094498 83.064838 
L 255.621401 88.356045 
L 257.867578 93.772084 
L 259.826871 99.298111 
L 261.493911 104.91898 
L 262.864129 110.619283 
L 263.933768 116.383397 
L 264.699897 122.195523 
L 265.160416 128.03973 
L 265.314062 133.9 
L 265.160416 139.76027 
L 264.699897 145.604477 
L 263.933768 151.416603 
L 262.864129 157.180717 
L 261.493911 162.88102 
L 259.826871 168.501889 
L 257.867578 174.027916 
L 255.621401 179.443955 
L 253.094498 184.735162 
L 250.293795 189.887032 
L 247.226967 194.885447 
L 243.902422 199.716704 
L 240.329271 204.367562 
L 236.517308 208.825274 
L 232.476982 213.07762 
L 228.219367 217.112947 
L 223.756132 220.920192 
L 219.099511 224.488921 
L 214.262267 227.809352 
L 209.25766 230.872385 
L 204.099406 233.669622 
L 198.801643 236.193398 
L 193.378894 238.436795 
L 187.84602 240.393664 
L 182.218187 242.058641 
L 176.51082 243.427163 
L 170.739564 244.495478 
L 164.920237 245.260659 
L 159.068788 245.720608 
L 153.201258 245.874065 
L 147.333727 245.720608 
L 141.482278 245.260659 
L 135.662951 244.495478 
L 129.891695 243.427163 
L 124.184328 242.058641 
L 118.556496 240.393664 
L 113.023622 238.436795 
L 107.600872 236.193398 
L 102.303109 233.669622 
L 97.144855 230.872385 
L 92.140248 227.809352 
L 87.303004 224.488921 
L 82.646383 220.920192 
L 78.183148 217.112947 
L 73.925533 213.07762 
L 69.885207 208.825274 
L 66.073244 204.367562 
L 62.500093 199.716704 
L 59.175548 194.885447 
L 56.10872 189.887032 
L 53.308017 184.735162 
L 50.781114 179.443955 
L 48.534937 174.027916 
L 46.575644 168.501889 
L 44.908604 162.88102 
L 43.538387 157.180717 
L 42.468747 151.416603 
L 41.702618 145.604477 
L 41.242099 139.76027 
L 41.088453 133.9 
L 41.242099 128.03973 
L 41.702618 122.195523 
L 42.468747 116.383397 
L 43.538387 110.619283 
L 44.908604 104.91898 
L 46.575644 99.298111 
L 48.534937 93.772084 
L 50.781114 88.356045 
L 53.308017 83.064838 
L 56.10872 77.912968 
L 59.175548 72.914553 
L 62.500093 68.083296 
L 66.073244 63.432438 
L 69.885207 58.974726 
L 73.925533 54.72238 
L 78.183148 50.687053 
L 82.646383 46.879808 
L 87.303004 43.311079 
L 92.140248 39.990648 
L 97.144855 36.927615 
L 102.303109 34.130378 
L 107.600872 31.606602 
L 113.023622 29.363205 
L 118.556496 27.406336 
L 124.184328 25.741359 
L 129.891695 24.372837 
L 135.662951 23.304522 
L 141.482278 22.539341 
L 147.333727 22.079392 
L 153.201258 21.925935 
L 153.201258 21.925935 
" style="fill:none;stroke:#000000;stroke-linecap:square;"/>
   </g>
   <g id="line2d_2">
    <defs>
     <path d="M -3 0 
L 3 0 
M 0 3 
L 0 -3 
" id="mf38a52f45f" style="stroke:#000000;stroke-width:0.5;"/>
    </defs>
    <g clip-path="url(#pdb2b67eaff)">
     <use style="stroke:#000000;stroke-width:0.5;" x="153.201257575" xlink:href="#mf38a52f45f" y="32.1112132669"/>
     <use style="stroke:#000000;stroke-width:0.5;" x="153.201257575" xlink:href="#mf38a52f45f" y="43.0711652884"/>
     <use style="stroke:#000000;stroke-width:0.5;" x="153.201257575" xlink:href="#mf38a52f45f" y="54.722379586"/>
     <use style="stroke:#000000;stroke-width:0.5;" x="153.201257575" xlink:href="#mf38a52f45f" y="66.9761833838"/>
     <use style="stroke:#000000;stroke-width:0.5;" x="153.201257575" xlink:href="#mf38a52f45f" y="79.7393178357"/>
     <use style="stroke:#000000;stroke-width:0.5;" x="153.201257575" xlink:href="#mf38a52f45f" y="92.9146477819"/>
     <use style="stroke:#000000;stroke-width:0.5;" x="153.201257575" xlink:href="#mf38a52f45f" y="106.401901006"/>
     <use style="stroke:#000000;stroke-width:0.5;" x="153.201257575" xlink:href="#mf38a52f45f" y="120.098431368"/>
     <use style="stroke:#000000;stroke-width:0.5;" x="153.201257575" xlink:href="#mf38a52f45f" y="133.9"/>
    </g>
   </g>
   <g id="line2d_3">
    <g clip-path="url(#pdb2b67eaff)">
     <use style="stroke:#000000;stroke-width:0.5;" x="255.116164562" xlink:href="#mf38a52f45f" y="133.9"/>
     <use style="stroke:#000000;stroke-width:0.5;" x="244.142632735" xlink:href="#mf38a52f45f" y="133.9"/>
     <use style="stroke:#000000;stroke-width:0.5;" x="232.476982131" xlink:href="#mf38a52f45f" y="133.9"/>
     <use style="stroke:#000000;stroke-width:0.5;" x="220.207995395" xlink:href="#mf38a52f45f" y="133.9"/>
     <use style="stroke:#000000;stroke-width:0.5;" x="207.429046925" xlink:href="#mf38a52f45f" y="133.9"/>
     <use style="stroke:#000000;stroke-width:0.5;" x="194.237392234" xlink:href="#mf38a52f45f" y="133.9"/>
     <use style="stroke:#000000;stroke-width:0.5;" x="180.73342778" xlink:href="#mf38a52f45f" y="133.9"/>
     <use style="stroke:#000000;stroke-width:0.5;" x="167.019926886" xlink:href="#mf38a52f45f" y="133.9"/>
    </g>
   </g>
   <g id="line2d_4">
    <g clip-path="url(#pdb2b67eaff)">
     <use style="stroke:#000000;stroke-width:0.5;" x="153.201257575" xlink:href="#mf38a52f45f" y="235.688786733"/>
     <use style="stroke:#000000;stroke-width:0.5;" x="153.201257575" xlink:href="#mf38a52f45f" y="224.728834712"/>
     <use style="stroke:#000000;stroke-width:0.5;" x="153.201257575" xlink:href="#mf38a52f45f" y="213.077620414"/>
     <use style="stroke:#000000;stroke-width:0.5;" x="153.201257575" xlink:href="#mf38a52f45f" y="200.823816616"/>
     <use style="stroke:#000000;stroke-width:0.5;" x="153.201257575" xlink:href="#mf38a52f45f" y="188.060682164"/>
     <use style="stroke:#000000;stroke-width:0.5;" x="153.201257575" xlink:href="#mf38a52f45f" y="174.885352218"/>
     <use style="stroke:#000000;stroke-width:0.5;" x="153.201257575" xlink:href="#mf38a52f45f" y="161.398098994"/>
     <use style="stroke:#000000;stroke-width:0.5;" x="153.201257575" xlink:href="#mf38a52f45f" y="147.701568632"/>
    </g>
   </g>
   <g id="line2d_5">
    <g clip-path="url(#pdb2b67eaff)">
     <use style="stroke:#000000;stroke-width:0.5;" x="51.2863505886" xlink:href="#mf38a52f45f" y="133.9"/>
     <use style="stroke:#000000;stroke-width:0.5;" x="62.2598824157" xlink:href="#mf38a52f45f" y="133.9"/>
     <use style="stroke:#000000;stroke-width:0.5;" x="73.9255330196" xlink:href="#mf38a52f45f" y="133.9"/>
     <use style="stroke:#000000;stroke-width:0.5;" x="86.1945197553" xlink:href="#mf38a52f45f" y="133.9"/>
     <use style="stroke:#000000;stroke-width:0.5;" x="98.9734682256" xlink:href="#mf38a52f45f" y="133.9"/>
     <use style="stroke:#000000;stroke-width:0.5;" x="112.165122917" xlink:href="#mf38a52f45f" y="133.9"/>
     <use style="stroke:#000000;stroke-width:0.5;" x="125.669087371" xlink:href="#mf38a52f45f" y="133.9"/>
     <use style="stroke:#000000;stroke-width:0.5;" x="139.382588264" xlink:href="#mf38a52f45f" y="133.9"/>
    </g>
   </g>
   <g id="line2d_6">
    <path clip-path="url(#pdb2b67eaff)" d="M 153.201258 21.925935 
L 153.201258 22.907345 
L 153.201258 23.897206 
L 153.201258 24.895445 
" style="fill:none;stroke:#000000;stroke-linecap:square;"/>
   </g>
   <g id="line2d_7">
    <path clip-path="url(#pdb2b67eaff)" d="M 172.669442 23.627073 
L 172.498811 24.593572 
L 172.32671 25.568396 
L 172.153153 26.55147 
" style="fill:none;stroke:#000000;stroke-linecap:square;"/>
   </g>
   <g id="line2d_8">
    <path clip-path="url(#pdb2b67eaff)" d="M 191.546095 28.678798 
L 191.210018 29.601021 
L 190.871045 30.531187 
L 190.529205 31.469224 
" style="fill:none;stroke:#000000;stroke-linecap:square;"/>
   </g>
   <g id="line2d_9">
    <path clip-path="url(#pdb2b67eaff)" d="M 209.25766 36.927615 
L 208.766347 37.777541 
L 208.270803 38.634786 
L 207.771065 39.499287 
" style="fill:none;stroke:#000000;stroke-linecap:square;"/>
   </g>
   <g id="line2d_10">
    <path clip-path="url(#pdb2b67eaff)" d="M 225.265979 48.12289 
L 224.63436 48.874693 
L 223.997301 49.632971 
L 223.35485 50.397667 
" style="fill:none;stroke:#000000;stroke-linecap:square;"/>
   </g>
   <g id="line2d_11">
    <path clip-path="url(#pdb2b67eaff)" d="M 239.084649 61.924459 
L 238.331914 62.555296 
L 237.572696 63.191567 
L 236.807054 63.833223 
" style="fill:none;stroke:#000000;stroke-linecap:square;"/>
   </g>
   <g id="line2d_12">
    <path clip-path="url(#pdb2b67eaff)" d="M 250.293795 77.912968 
L 249.442816 78.403672 
L 248.584509 78.898603 
L 247.718937 79.397723 
" style="fill:none;stroke:#000000;stroke-linecap:square;"/>
   </g>
   <g id="line2d_13">
    <path clip-path="url(#pdb2b67eaff)" d="M 258.552833 95.602614 
L 257.629467 95.938276 
L 256.698149 96.276829 
L 255.758949 96.618247 
" style="fill:none;stroke:#000000;stroke-linecap:square;"/>
   </g>
   <g id="line2d_14">
    <path clip-path="url(#pdb2b67eaff)" d="M 263.610817 114.455908 
L 262.64312 114.626328 
L 261.667089 114.798215 
L 260.682797 114.971558 
" style="fill:none;stroke:#000000;stroke-linecap:square;"/>
   </g>
   <g id="line2d_15">
    <path clip-path="url(#pdb2b67eaff)" d="M 265.314062 133.9 
L 264.331437 133.9 
L 263.340349 133.9 
L 262.340873 133.9 
" style="fill:none;stroke:#000000;stroke-linecap:square;"/>
   </g>
   <g id="line2d_16">
    <path clip-path="url(#pdb2b67eaff)" d="M 263.610817 153.344092 
L 262.64312 153.173672 
L 261.667089 153.001785 
L 260.682797 152.828442 
" style="fill:none;stroke:#000000;stroke-linecap:square;"/>
   </g>
   <g id="line2d_17">
    <path clip-path="url(#pdb2b67eaff)" d="M 258.552833 172.197386 
L 257.629467 171.861724 
L 256.698149 171.523171 
L 255.758949 171.181753 
" style="fill:none;stroke:#000000;stroke-linecap:square;"/>
   </g>
   <g id="line2d_18">
    <path clip-path="url(#pdb2b67eaff)" d="M 250.293795 189.887032 
L 249.442816 189.396328 
L 248.584509 188.901397 
L 247.718937 188.402277 
" style="fill:none;stroke:#000000;stroke-linecap:square;"/>
   </g>
   <g id="line2d_19">
    <path clip-path="url(#pdb2b67eaff)" d="M 239.084649 205.875541 
L 238.331914 205.244704 
L 237.572696 204.608433 
L 236.807054 203.966777 
" style="fill:none;stroke:#000000;stroke-linecap:square;"/>
   </g>
   <g id="line2d_20">
    <path clip-path="url(#pdb2b67eaff)" d="M 225.265979 219.67711 
L 224.63436 218.925307 
L 223.997301 218.167029 
L 223.35485 217.402333 
" style="fill:none;stroke:#000000;stroke-linecap:square;"/>
   </g>
   <g id="line2d_21">
    <path clip-path="url(#pdb2b67eaff)" d="M 209.25766 230.872385 
L 208.766347 230.022459 
L 208.270803 229.165214 
L 207.771065 228.300713 
" style="fill:none;stroke:#000000;stroke-linecap:square;"/>
   </g>
   <g id="line2d_22">
    <path clip-path="url(#pdb2b67eaff)" d="M 191.546095 239.121202 
L 191.210018 238.198979 
L 190.871045 237.268813 
L 190.529205 236.330776 
" style="fill:none;stroke:#000000;stroke-linecap:square;"/>
   </g>
   <g id="line2d_23">
    <path clip-path="url(#pdb2b67eaff)" d="M 172.669442 244.172927 
L 172.498811 243.206428 
L 172.32671 242.231604 
L 172.153153 241.24853 
" style="fill:none;stroke:#000000;stroke-linecap:square;"/>
   </g>
   <g id="line2d_24">
    <path clip-path="url(#pdb2b67eaff)" d="M 153.201258 245.874065 
L 153.201258 244.892655 
L 153.201258 243.902794 
L 153.201258 242.904555 
" style="fill:none;stroke:#000000;stroke-linecap:square;"/>
   </g>
   <g id="line2d_25">
    <path clip-path="url(#pdb2b67eaff)" d="M 133.733073 244.172927 
L 133.903704 243.206428 
L 134.075805 242.231604 
L 134.249362 241.24853 
" style="fill:none;stroke:#000000;stroke-linecap:square;"/>
   </g>
   <g id="line2d_26">
    <path clip-path="url(#pdb2b67eaff)" d="M 114.85642 239.121202 
L 115.192498 238.198979 
L 115.53147 237.268813 
L 115.873311 236.330776 
" style="fill:none;stroke:#000000;stroke-linecap:square;"/>
   </g>
   <g id="line2d_27">
    <path clip-path="url(#pdb2b67eaff)" d="M 97.144855 230.872385 
L 97.636168 230.022459 
L 98.131712 229.165214 
L 98.63145 228.300713 
" style="fill:none;stroke:#000000;stroke-linecap:square;"/>
   </g>
   <g id="line2d_28">
    <path clip-path="url(#pdb2b67eaff)" d="M 81.136536 219.67711 
L 81.768155 218.925307 
L 82.405214 218.167029 
L 83.047665 217.402333 
" style="fill:none;stroke:#000000;stroke-linecap:square;"/>
   </g>
   <g id="line2d_29">
    <path clip-path="url(#pdb2b67eaff)" d="M 67.317866 205.875541 
L 68.070601 205.244704 
L 68.829819 204.608433 
L 69.595462 203.966777 
" style="fill:none;stroke:#000000;stroke-linecap:square;"/>
   </g>
   <g id="line2d_30">
    <path clip-path="url(#pdb2b67eaff)" d="M 56.10872 189.887032 
L 56.959699 189.396328 
L 57.818007 188.901397 
L 58.683578 188.402277 
" style="fill:none;stroke:#000000;stroke-linecap:square;"/>
   </g>
   <g id="line2d_31">
    <path clip-path="url(#pdb2b67eaff)" d="M 47.849682 172.197386 
L 48.773048 171.861724 
L 49.704366 171.523171 
L 50.643566 171.181753 
" style="fill:none;stroke:#000000;stroke-linecap:square;"/>
   </g>
   <g id="line2d_32">
    <path clip-path="url(#pdb2b67eaff)" d="M 42.791698 153.344092 
L 43.759395 153.173672 
L 44.735427 153.001785 
L 45.719718 152.828442 
" style="fill:none;stroke:#000000;stroke-linecap:square;"/>
   </g>
   <g id="line2d_33">
    <path clip-path="url(#pdb2b67eaff)" d="M 41.088453 133.9 
L 42.071078 133.9 
L 43.062166 133.9 
L 44.061642 133.9 
" style="fill:none;stroke:#000000;stroke-linecap:square;"/>
   </g>
   <g id="line2d_34">
    <path clip-path="url(#pdb2b67eaff)" d="M 42.791698 114.455908 
L 43.759395 114.626328 
L 44.735427 114.798215 
L 45.719718 114.971558 
" style="fill:none;stroke:#000000;stroke-linecap:square;"/>
   </g>
   <g id="line2d_35">
    <path clip-path="url(#pdb2b67eaff)" d="M 47.849682 95.602614 
L 48.773048 95.938276 
L 49.704366 96.276829 
L 50.643566 96.618247 
" style="fill:none;stroke:#000000;stroke-linecap:square;"/>
   </g>
   <g id="line2d_36">
    <path clip-path="url(#pdb2b67eaff)" d="M 56.10872 77.912968 
L 56.959699 78.403672 
L 57.818007 78.898603 
L 58.683578 79.397723 
" style="fill:none;stroke:#000000;stroke-linecap:square;"/>
   </g>
   <g id="line2d_37">
    <path clip-path="url(#pdb2b67eaff)" d="M 67.317866 61.924459 
L 68.070601 62.555296 
L 68.829819 63.191567 
L 69.595462 63.833223 
" style="fill:none;stroke:#000000;stroke-linecap:square;"/>
   </g>
   <g id="line2d_38">
    <path clip-path="url(#pdb2b67eaff)" d="M 81.136536 48.12289 
L 81.768155 48.874693 
L 82.405214 49.632971 
L 83.047665 50.397667 
" style="fill:none;stroke:#000000;stroke-linecap:square;"/>
   </g>
   <g id="line2d_39">
    <path clip-path="url(#pdb2b67eaff)" d="M 97.144855 36.927615 
L 97.636168 37.777541 
L 98.131712 38.634786 
L 98.63145 39.499287 
" style="fill:none;stroke:#000000;stroke-linecap:square;"/>
   </g>
   <g id="line2d_40">
    <path clip-path="url(#pdb2b67eaff)" d="M 114.85642 28.678798 
L 115.192498 29.601021 
L 115.53147 30.531187 
L 115.873311 31.469224 
" style="fill:none;stroke:#000000;stroke-linecap:square;"/>
   </g>
   <g id="line2d_41">
    <path clip-path="url(#pdb2b67eaff)" d="M 133.733073 23.627073 
L 133.903704 24.593572 
L 134.075805 25.568396 
L 134.249362 26.55147 
" style="fill:none;stroke:#000000;stroke-linecap:square;"/>
   </g>
   <g id="line2d_42">
    <path clip-path="url(#pdb2b67eaff)" d="M 142.742119 215.070644 
L 142.734017 215.447538 
L 142.758282 215.825339 
L 142.81498 216.202545 
L 142.904048 216.577639 
L 143.02529 216.949095 
L 143.178376 217.315384 
L 143.362839 217.674983 
L 143.578076 218.026377 
L 143.823351 218.368072 
L 144.097789 218.6986 
L 144.400385 219.016526 
L 144.73 219.320455 
L 145.085369 219.609045 
L 145.465104 219.881008 
L 145.867699 220.135121 
L 146.291533 220.370234 
L 146.734883 220.585274 
L 147.195924 220.779257 
L 147.672745 220.951287 
L 148.16335 221.10057 
L 148.665676 221.22641 
L 149.177596 221.328225 
L 149.696936 221.405539 
L 150.221479 221.457994 
L 150.748986 221.485349 
L 151.277199 221.48748 
L 151.803858 221.464384 
L 152.326712 221.416178 
L 152.843529 221.343095 
L 153.352111 221.245488 
L 153.850303 221.123823 
L 154.336004 220.978675 
L 154.807179 220.810729 
L 155.261868 220.62077 
L 155.698195 220.409681 
L 156.114379 220.178436 
L 156.508738 219.928093 
L 156.8797 219.659789 
L 157.225805 219.374732 
L 157.545717 219.074193 
L 157.838221 218.759499 
L 158.102231 218.432028 
L 158.336794 218.093196 
L 158.54109 217.744455 
L 158.714431 217.387283 
L 158.856268 217.023174 
L 158.966185 216.653638 
L 159.043901 216.280187 
L 159.089267 215.904331 
L 159.102266 215.527573 
L 159.083009 215.151401 
L 159.031732 214.777285 
L 158.948794 214.406667 
L 158.83467 214.040962 
L 158.689952 213.681547 
L 158.51534 213.329762 
L 158.311639 212.986905 
L 158.079754 212.654225 
L 157.820687 212.332924 
L 157.535529 212.024148 
L 157.225456 211.728991 
L 156.891726 211.448488 
L 156.535668 211.183613 
L 156.158684 210.935279 
L 155.762238 210.704337 
L 155.347853 210.491571 
L 154.917106 210.2977 
L 154.471622 210.123374 
L 154.013069 209.969178 
L 153.543153 209.835625 
L 153.063612 209.723158 
L 152.576212 209.632151 
L 152.082742 209.562907 
L 151.585007 209.515656 
L 151.084824 209.490558 
L 150.584019 209.487699 
L 150.084417 209.507095 
L 149.587844 209.548688 
L 149.096114 209.612348 
L 148.611029 209.697873 
L 148.134375 209.80499 
L 147.667911 209.933351 
L 147.213369 210.082539 
L 146.772447 210.252065 
L 146.346805 210.44137 
L 145.938056 210.649823 
L 145.547766 210.876727 
L 145.177444 211.121315 
L 144.82854 211.382753 
L 144.502437 211.660142 
L 144.200447 211.952519 
L 143.923807 212.258858 
L 143.67367 212.578075 
L 143.451103 212.909027 
L 143.25708 213.250516 
L 143.092478 213.601292 
L 142.95807 213.960056 
L 142.854524 214.325465 
L 142.782394 214.696135 
L 142.742119 215.070644 
" style="fill:none;stroke:#0000ff;stroke-linecap:square;"/>
   </g>
   <g id="line2d_43">
    <path clip-path="url(#pdb2b67eaff)" d="M 138.405392 221.840512 
L 138.384571 222.456166 
L 138.420472 223.074543 
L 138.513503 223.693194 
L 138.66384 224.309608 
L 138.871428 224.921227 
L 139.135963 225.52545 
L 139.45689 226.11965 
L 139.833392 226.701186 
L 140.264389 227.267414 
L 140.748528 227.815709 
L 141.284189 228.343473 
L 141.869479 228.848159 
L 142.502235 229.327283 
L 143.180031 229.778448 
L 143.900182 230.199359 
L 144.659755 230.587839 
L 145.455581 230.941854 
L 146.284267 231.259523 
L 147.142219 231.539143 
L 148.025652 231.779195 
L 148.930622 231.978368 
L 149.853042 232.135565 
L 150.788711 232.249917 
L 151.733339 232.320788 
L 152.682578 232.347787 
L 153.632049 232.330767 
L 154.577372 232.269828 
L 155.514194 232.165318 
L 156.438219 232.017825 
L 157.345237 231.828175 
L 158.231151 231.597421 
L 159.092001 231.326835 
L 159.92399 231.017893 
L 160.723501 230.672263 
L 161.487126 230.291788 
L 162.211672 229.87847 
L 162.894184 229.434454 
L 163.531953 228.962007 
L 164.122529 228.463501 
L 164.663721 227.941396 
L 165.153611 227.398221 
L 165.59055 226.836554 
L 165.973159 226.259007 
L 166.300329 225.668213 
L 166.571216 225.066804 
L 166.785237 224.457402 
L 166.942061 223.842601 
L 167.041605 223.224963 
L 167.08402 222.606997 
L 167.069688 221.991158 
L 166.999204 221.379834 
L 166.873373 220.77534 
L 166.693195 220.179912 
L 166.459853 219.5957 
L 166.174704 219.024765 
L 165.83927 218.469078 
L 165.45522 217.930513 
L 165.024368 217.410846 
L 164.548656 216.911757 
L 164.030147 216.434825 
L 163.471015 215.98153 
L 162.873535 215.553252 
L 162.240075 215.151271 
L 161.573088 214.77677 
L 160.8751 214.430831 
L 160.148707 214.114443 
L 159.396567 213.828494 
L 158.621389 213.57378 
L 157.825931 213.351001 
L 157.01299 213.160764 
L 156.185397 213.003583 
L 155.346014 212.879882 
L 154.497724 212.789991 
L 153.643425 212.734152 
L 152.786028 212.712515 
L 151.928451 212.725139 
L 151.073611 212.771996 
L 150.22442 212.852965 
L 149.38378 212.967837 
L 148.554577 213.11631 
L 147.739677 213.297992 
L 146.941915 213.512398 
L 146.164096 213.75895 
L 145.408984 214.036977 
L 144.679299 214.345714 
L 143.977704 214.684296 
L 143.306808 215.051766 
L 142.669147 215.447067 
L 142.067188 215.869042 
L 141.503311 216.316435 
L 140.979805 216.78789 
L 140.49886 217.281951 
L 140.062556 217.797061 
L 139.672853 218.331559 
L 139.331582 218.88369 
L 139.040433 219.451596 
L 138.800948 220.033323 
L 138.614506 220.626825 
L 138.482313 221.229963 
L 138.405392 221.840512 
" style="fill:none;stroke:#ff0000;stroke-linecap:square;"/>
   </g>
   <g id="legend_1">
    <g id="patch_2">
     <path d="M 164.973102 159.24 
L 321.674352 159.24 
L 321.674352 83.85 
L 164.973102 83.85 
z
" style="fill:#ffffff;stroke:#000000;stroke-linejoin:miter;"/>
    </g>
    <g id="PathCollection_6">
     <path d="M 173.373102 96.854193 
C 173.966114 96.854193 174.534918 96.618587 174.954241 96.199264 
C 175.373564 95.779941 175.60917 95.211137 175.60917 94.618125 
C 175.60917 94.025113 175.373564 93.456309 174.954241 93.036986 
C 174.534918 92.617663 173.966114 92.382057 173.373102 92.382057 
C 172.78009 92.382057 172.211286 92.617663 171.791963 93.036986 
C 171.37264 93.456309 171.137034 94.025113 171.137034 94.618125 
C 171.137034 95.211137 171.37264 95.779941 171.791963 96.199264 
C 172.211286 96.618587 172.78009 96.854193 173.373102 96.854193 
z
" style="fill:#008000;stroke:#008000;"/>
     <path d="M 181.773102 95.804193 
C 182.366114 95.804193 182.934918 95.568587 183.354241 95.149264 
C 183.773564 94.729941 184.00917 94.161137 184.00917 93.568125 
C 184.00917 92.975113 183.773564 92.406309 183.354241 91.986986 
C 182.934918 91.567663 182.366114 91.332057 181.773102 91.332057 
C 181.18009 91.332057 180.611286 91.567663 180.191963 91.986986 
C 179.77264 92.406309 179.537034 92.975113 179.537034 93.568125 
C 179.537034 94.161137 179.77264 94.729941 180.191963 95.149264 
C 180.611286 95.568587 181.18009 95.804193 181.773102 95.804193 
z
" style="fill:#008000;stroke:#008000;"/>
     <path d="M 190.173102 97.379193 
C 190.766114 97.379193 191.334918 97.143587 191.754241 96.724264 
C 192.173564 96.304941 192.40917 95.736137 192.40917 95.143125 
C 192.40917 94.550113 192.173564 93.981309 191.754241 93.561986 
C 191.334918 93.142663 190.766114 92.907057 190.173102 92.907057 
C 189.58009 92.907057 189.011286 93.142663 188.591963 93.561986 
C 188.17264 93.981309 187.937034 94.550113 187.937034 95.143125 
C 187.937034 95.736137 188.17264 96.304941 188.591963 96.724264 
C 189.011286 97.143587 189.58009 97.379193 190.173102 97.379193 
z
" style="fill:#008000;stroke:#008000;"/>
    </g>
    <g id="text_1">
     <!-- Z56_low_geo -->
     <defs>
      <path d="M 5.609375 72.90625 
L 62.890625 72.90625 
L 62.890625 65.375 
L 16.796875 8.296875 
L 64.015625 8.296875 
L 64.015625 0 
L 4.5 0 
L 4.5 7.515625 
L 50.59375 64.59375 
L 5.609375 64.59375 
z
" id="BitstreamVeraSans-Roman-5a"/>
      <path d="M 33.015625 40.375 
Q 26.375 40.375 22.484375 35.828125 
Q 18.609375 31.296875 18.609375 23.390625 
Q 18.609375 15.53125 22.484375 10.953125 
Q 26.375 6.390625 33.015625 6.390625 
Q 39.65625 6.390625 43.53125 10.953125 
Q 47.40625 15.53125 47.40625 23.390625 
Q 47.40625 31.296875 43.53125 35.828125 
Q 39.65625 40.375 33.015625 40.375 
M 52.59375 71.296875 
L 52.59375 62.3125 
Q 48.875 64.0625 45.09375 64.984375 
Q 41.3125 65.921875 37.59375 65.921875 
Q 27.828125 65.921875 22.671875 59.328125 
Q 17.53125 52.734375 16.796875 39.40625 
Q 19.671875 43.65625 24.015625 45.921875 
Q 28.375 48.1875 33.59375 48.1875 
Q 44.578125 48.1875 50.953125 41.515625 
Q 57.328125 34.859375 57.328125 23.390625 
Q 57.328125 12.15625 50.6875 5.359375 
Q 44.046875 -1.421875 33.015625 -1.421875 
Q 20.359375 -1.421875 13.671875 8.265625 
Q 6.984375 17.96875 6.984375 36.375 
Q 6.984375 53.65625 15.1875 63.9375 
Q 23.390625 74.21875 37.203125 74.21875 
Q 40.921875 74.21875 44.703125 73.484375 
Q 48.484375 72.75 52.59375 71.296875 
" id="BitstreamVeraSans-Roman-36"/>
      <path d="M 50.984375 -16.609375 
L 50.984375 -23.578125 
L -0.984375 -23.578125 
L -0.984375 -16.609375 
z
" id="BitstreamVeraSans-Roman-5f"/>
      <path d="M 10.796875 72.90625 
L 49.515625 72.90625 
L 49.515625 64.59375 
L 19.828125 64.59375 
L 19.828125 46.734375 
Q 21.96875 47.46875 24.109375 47.828125 
Q 26.265625 48.1875 28.421875 48.1875 
Q 40.625 48.1875 47.75 41.5 
Q 54.890625 34.8125 54.890625 23.390625 
Q 54.890625 11.625 47.5625 5.09375 
Q 40.234375 -1.421875 26.90625 -1.421875 
Q 22.3125 -1.421875 17.546875 -0.640625 
Q 12.796875 0.140625 7.71875 1.703125 
L 7.71875 11.625 
Q 12.109375 9.234375 16.796875 8.0625 
Q 21.484375 6.890625 26.703125 6.890625 
Q 35.15625 6.890625 40.078125 11.328125 
Q 45.015625 15.765625 45.015625 23.390625 
Q 45.015625 31 40.078125 35.4375 
Q 35.15625 39.890625 26.703125 39.890625 
Q 22.75 39.890625 18.8125 39.015625 
Q 14.890625 38.140625 10.796875 36.28125 
z
" id="BitstreamVeraSans-Roman-35"/>
      <path d="M 30.609375 48.390625 
Q 23.390625 48.390625 19.1875 42.75 
Q 14.984375 37.109375 14.984375 27.296875 
Q 14.984375 17.484375 19.15625 11.84375 
Q 23.34375 6.203125 30.609375 6.203125 
Q 37.796875 6.203125 41.984375 11.859375 
Q 46.1875 17.53125 46.1875 27.296875 
Q 46.1875 37.015625 41.984375 42.703125 
Q 37.796875 48.390625 30.609375 48.390625 
M 30.609375 56 
Q 42.328125 56 49.015625 48.375 
Q 55.71875 40.765625 55.71875 27.296875 
Q 55.71875 13.875 49.015625 6.21875 
Q 42.328125 -1.421875 30.609375 -1.421875 
Q 18.84375 -1.421875 12.171875 6.21875 
Q 5.515625 13.875 5.515625 27.296875 
Q 5.515625 40.765625 12.171875 48.375 
Q 18.84375 56 30.609375 56 
" id="BitstreamVeraSans-Roman-6f"/>
      <path d="M 9.421875 75.984375 
L 18.40625 75.984375 
L 18.40625 0 
L 9.421875 0 
z
" id="BitstreamVeraSans-Roman-6c"/>
      <path d="M 56.203125 29.59375 
L 56.203125 25.203125 
L 14.890625 25.203125 
Q 15.484375 15.921875 20.484375 11.0625 
Q 25.484375 6.203125 34.421875 6.203125 
Q 39.59375 6.203125 44.453125 7.46875 
Q 49.3125 8.734375 54.109375 11.28125 
L 54.109375 2.78125 
Q 49.265625 0.734375 44.1875 -0.34375 
Q 39.109375 -1.421875 33.890625 -1.421875 
Q 20.796875 -1.421875 13.15625 6.1875 
Q 5.515625 13.8125 5.515625 26.8125 
Q 5.515625 40.234375 12.765625 48.109375 
Q 20.015625 56 32.328125 56 
Q 43.359375 56 49.78125 48.890625 
Q 56.203125 41.796875 56.203125 29.59375 
M 47.21875 32.234375 
Q 47.125 39.59375 43.09375 43.984375 
Q 39.0625 48.390625 32.421875 48.390625 
Q 24.90625 48.390625 20.390625 44.140625 
Q 15.875 39.890625 15.1875 32.171875 
z
" id="BitstreamVeraSans-Roman-65"/>
      <path d="M 4.203125 54.6875 
L 13.1875 54.6875 
L 24.421875 12.015625 
L 35.59375 54.6875 
L 46.1875 54.6875 
L 57.421875 12.015625 
L 68.609375 54.6875 
L 77.59375 54.6875 
L 63.28125 0 
L 52.6875 0 
L 40.921875 44.828125 
L 29.109375 0 
L 18.5 0 
z
" id="BitstreamVeraSans-Roman-77"/>
      <path d="M 45.40625 27.984375 
Q 45.40625 37.75 41.375 43.109375 
Q 37.359375 48.484375 30.078125 48.484375 
Q 22.859375 48.484375 18.828125 43.109375 
Q 14.796875 37.75 14.796875 27.984375 
Q 14.796875 18.265625 18.828125 12.890625 
Q 22.859375 7.515625 30.078125 7.515625 
Q 37.359375 7.515625 41.375 12.890625 
Q 45.40625 18.265625 45.40625 27.984375 
M 54.390625 6.78125 
Q 54.390625 -7.171875 48.1875 -13.984375 
Q 42 -20.796875 29.203125 -20.796875 
Q 24.46875 -20.796875 20.265625 -20.09375 
Q 16.0625 -19.390625 12.109375 -17.921875 
L 12.109375 -9.1875 
Q 16.0625 -11.328125 19.921875 -12.34375 
Q 23.78125 -13.375 27.78125 -13.375 
Q 36.625 -13.375 41.015625 -8.765625 
Q 45.40625 -4.15625 45.40625 5.171875 
L 45.40625 9.625 
Q 42.625 4.78125 38.28125 2.390625 
Q 33.9375 0 27.875 0 
Q 17.828125 0 11.671875 7.65625 
Q 5.515625 15.328125 5.515625 27.984375 
Q 5.515625 40.671875 11.671875 48.328125 
Q 17.828125 56 27.875 56 
Q 33.9375 56 38.28125 53.609375 
Q 42.625 51.21875 45.40625 46.390625 
L 45.40625 54.6875 
L 54.390625 54.6875 
z
" id="BitstreamVeraSans-Roman-67"/>
     </defs>
     <g transform="translate(203.373102083 97.768125)scale(0.12 -0.12)">
      <use xlink:href="#BitstreamVeraSans-Roman-5a"/>
      <use x="68.505859375" xlink:href="#BitstreamVeraSans-Roman-35"/>
      <use x="132.12890625" xlink:href="#BitstreamVeraSans-Roman-36"/>
      <use x="195.751953125" xlink:href="#BitstreamVeraSans-Roman-5f"/>
      <use x="245.751953125" xlink:href="#BitstreamVeraSans-Roman-6c"/>
      <use x="273.53515625" xlink:href="#BitstreamVeraSans-Roman-6f"/>
      <use x="334.716796875" xlink:href="#BitstreamVeraSans-Roman-77"/>
      <use x="416.50390625" xlink:href="#BitstreamVeraSans-Roman-5f"/>
      <use x="466.50390625" xlink:href="#BitstreamVeraSans-Roman-67"/>
      <use x="529.98046875" xlink:href="#BitstreamVeraSans-Roman-65"/>
      <use x="591.50390625" xlink:href="#BitstreamVeraSans-Roman-6f"/>
     </g>
    </g>
    <g id="PathCollection_7">
     <path d="M 173.373102 114.801693 
C 173.966114 114.801693 174.534918 114.566087 174.954241 114.146764 
C 175.373564 113.727441 175.60917 113.158637 175.60917 112.565625 
C 175.60917 111.972613 175.373564 111.403809 174.954241 110.984486 
C 174.534918 110.565163 173.966114 110.329557 173.373102 110.329557 
C 172.78009 110.329557 172.211286 110.565163 171.791963 110.984486 
C 171.37264 111.403809 171.137034 111.972613 171.137034 112.565625 
C 171.137034 113.158637 171.37264 113.727441 171.791963 114.146764 
C 172.211286 114.566087 172.78009 114.801693 173.373102 114.801693 
L 173.373102 114.801693 
z
" style="fill:none;stroke:#ff0000;"/>
     <path d="M 181.773102 113.751693 
C 182.366114 113.751693 182.934918 113.516087 183.354241 113.096764 
C 183.773564 112.677441 184.00917 112.108637 184.00917 111.515625 
C 184.00917 110.922613 183.773564 110.353809 183.354241 109.934486 
C 182.934918 109.515163 182.366114 109.279557 181.773102 109.279557 
C 181.18009 109.279557 180.611286 109.515163 180.191963 109.934486 
C 179.77264 110.353809 179.537034 110.922613 179.537034 111.515625 
C 179.537034 112.108637 179.77264 112.677441 180.191963 113.096764 
C 180.611286 113.516087 181.18009 113.751693 181.773102 113.751693 
L 181.773102 113.751693 
z
" style="fill:none;stroke:#ff0000;"/>
     <path d="M 190.173102 115.326693 
C 190.766114 115.326693 191.334918 115.091087 191.754241 114.671764 
C 192.173564 114.252441 192.40917 113.683637 192.40917 113.090625 
C 192.40917 112.497613 192.173564 111.928809 191.754241 111.509486 
C 191.334918 111.090163 190.766114 110.854557 190.173102 110.854557 
C 189.58009 110.854557 189.011286 111.090163 188.591963 111.509486 
C 188.17264 111.928809 187.937034 112.497613 187.937034 113.090625 
C 187.937034 113.683637 188.17264 114.252441 188.591963 114.671764 
C 189.011286 115.091087 189.58009 115.326693 190.173102 115.326693 
L 190.173102 115.326693 
z
" style="fill:none;stroke:#ff0000;"/>
    </g>
    <g id="text_2">
     <!-- Z56_hem_tc -->
     <defs>
      <path d="M 52 44.1875 
Q 55.375 50.25 60.0625 53.125 
Q 64.75 56 71.09375 56 
Q 79.640625 56 84.28125 50.015625 
Q 88.921875 44.046875 88.921875 33.015625 
L 88.921875 0 
L 79.890625 0 
L 79.890625 32.71875 
Q 79.890625 40.578125 77.09375 44.375 
Q 74.3125 48.1875 68.609375 48.1875 
Q 61.625 48.1875 57.5625 43.546875 
Q 53.515625 38.921875 53.515625 30.90625 
L 53.515625 0 
L 44.484375 0 
L 44.484375 32.71875 
Q 44.484375 40.625 41.703125 44.40625 
Q 38.921875 48.1875 33.109375 48.1875 
Q 26.21875 48.1875 22.15625 43.53125 
Q 18.109375 38.875 18.109375 30.90625 
L 18.109375 0 
L 9.078125 0 
L 9.078125 54.6875 
L 18.109375 54.6875 
L 18.109375 46.1875 
Q 21.1875 51.21875 25.484375 53.609375 
Q 29.78125 56 35.6875 56 
Q 41.65625 56 45.828125 52.96875 
Q 50 49.953125 52 44.1875 
" id="BitstreamVeraSans-Roman-6d"/>
      <path d="M 18.3125 70.21875 
L 18.3125 54.6875 
L 36.8125 54.6875 
L 36.8125 47.703125 
L 18.3125 47.703125 
L 18.3125 18.015625 
Q 18.3125 11.328125 20.140625 9.421875 
Q 21.96875 7.515625 27.59375 7.515625 
L 36.8125 7.515625 
L 36.8125 0 
L 27.59375 0 
Q 17.1875 0 13.234375 3.875 
Q 9.28125 7.765625 9.28125 18.015625 
L 9.28125 47.703125 
L 2.6875 47.703125 
L 2.6875 54.6875 
L 9.28125 54.6875 
L 9.28125 70.21875 
z
" id="BitstreamVeraSans-Roman-74"/>
      <path d="M 54.890625 33.015625 
L 54.890625 0 
L 45.90625 0 
L 45.90625 32.71875 
Q 45.90625 40.484375 42.875 44.328125 
Q 39.84375 48.1875 33.796875 48.1875 
Q 26.515625 48.1875 22.3125 43.546875 
Q 18.109375 38.921875 18.109375 30.90625 
L 18.109375 0 
L 9.078125 0 
L 9.078125 75.984375 
L 18.109375 75.984375 
L 18.109375 46.1875 
Q 21.34375 51.125 25.703125 53.5625 
Q 30.078125 56 35.796875 56 
Q 45.21875 56 50.046875 50.171875 
Q 54.890625 44.34375 54.890625 33.015625 
" id="BitstreamVeraSans-Roman-68"/>
      <path d="M 48.78125 52.59375 
L 48.78125 44.1875 
Q 44.96875 46.296875 41.140625 47.34375 
Q 37.3125 48.390625 33.40625 48.390625 
Q 24.65625 48.390625 19.8125 42.84375 
Q 14.984375 37.3125 14.984375 27.296875 
Q 14.984375 17.28125 19.8125 11.734375 
Q 24.65625 6.203125 33.40625 6.203125 
Q 37.3125 6.203125 41.140625 7.25 
Q 44.96875 8.296875 48.78125 10.40625 
L 48.78125 2.09375 
Q 45.015625 0.34375 40.984375 -0.53125 
Q 36.96875 -1.421875 32.421875 -1.421875 
Q 20.0625 -1.421875 12.78125 6.34375 
Q 5.515625 14.109375 5.515625 27.296875 
Q 5.515625 40.671875 12.859375 48.328125 
Q 20.21875 56 33.015625 56 
Q 37.15625 56 41.109375 55.140625 
Q 45.0625 54.296875 48.78125 52.59375 
" id="BitstreamVeraSans-Roman-63"/>
     </defs>
     <g transform="translate(203.373102083 115.715625)scale(0.12 -0.12)">
      <use xlink:href="#BitstreamVeraSans-Roman-5a"/>
      <use x="68.505859375" xlink:href="#BitstreamVeraSans-Roman-35"/>
      <use x="132.12890625" xlink:href="#BitstreamVeraSans-Roman-36"/>
      <use x="195.751953125" xlink:href="#BitstreamVeraSans-Roman-5f"/>
      <use x="245.751953125" xlink:href="#BitstreamVeraSans-Roman-68"/>
      <use x="309.130859375" xlink:href="#BitstreamVeraSans-Roman-65"/>
      <use x="370.654296875" xlink:href="#BitstreamVeraSans-Roman-6d"/>
      <use x="468.06640625" xlink:href="#BitstreamVeraSans-Roman-5f"/>
      <use x="518.06640625" xlink:href="#BitstreamVeraSans-Roman-74"/>
      <use x="557.275390625" xlink:href="#BitstreamVeraSans-Roman-63"/>
     </g>
    </g>
    <g id="PathCollection_8">
     <path d="M 171.137034 132.749193 
L 175.60917 132.749193 
L 175.60917 128.277057 
L 171.137034 128.277057 
z
" style="fill:#ffffff;stroke:#0000ff;"/>
     <path d="M 179.537034 131.699193 
L 184.00917 131.699193 
L 184.00917 127.227057 
L 179.537034 127.227057 
z
" style="fill:#ffffff;stroke:#0000ff;"/>
     <path d="M 187.937034 133.274193 
L 192.40917 133.274193 
L 192.40917 128.802057 
L 187.937034 128.802057 
z
" style="fill:#ffffff;stroke:#0000ff;"/>
    </g>
    <g id="text_3">
     <!-- Z56_mag_tc_mean -->
     <defs>
      <path d="M 54.890625 33.015625 
L 54.890625 0 
L 45.90625 0 
L 45.90625 32.71875 
Q 45.90625 40.484375 42.875 44.328125 
Q 39.84375 48.1875 33.796875 48.1875 
Q 26.515625 48.1875 22.3125 43.546875 
Q 18.109375 38.921875 18.109375 30.90625 
L 18.109375 0 
L 9.078125 0 
L 9.078125 54.6875 
L 18.109375 54.6875 
L 18.109375 46.1875 
Q 21.34375 51.125 25.703125 53.5625 
Q 30.078125 56 35.796875 56 
Q 45.21875 56 50.046875 50.171875 
Q 54.890625 44.34375 54.890625 33.015625 
" id="BitstreamVeraSans-Roman-6e"/>
      <path d="M 34.28125 27.484375 
Q 23.390625 27.484375 19.1875 25 
Q 14.984375 22.515625 14.984375 16.5 
Q 14.984375 11.71875 18.140625 8.90625 
Q 21.296875 6.109375 26.703125 6.109375 
Q 34.1875 6.109375 38.703125 11.40625 
Q 43.21875 16.703125 43.21875 25.484375 
L 43.21875 27.484375 
z
M 52.203125 31.203125 
L 52.203125 0 
L 43.21875 0 
L 43.21875 8.296875 
Q 40.140625 3.328125 35.546875 0.953125 
Q 30.953125 -1.421875 24.3125 -1.421875 
Q 15.921875 -1.421875 10.953125 3.296875 
Q 6 8.015625 6 15.921875 
Q 6 25.140625 12.171875 29.828125 
Q 18.359375 34.515625 30.609375 34.515625 
L 43.21875 34.515625 
L 43.21875 35.40625 
Q 43.21875 41.609375 39.140625 45 
Q 35.0625 48.390625 27.6875 48.390625 
Q 23 48.390625 18.546875 47.265625 
Q 14.109375 46.140625 10.015625 43.890625 
L 10.015625 52.203125 
Q 14.9375 54.109375 19.578125 55.046875 
Q 24.21875 56 28.609375 56 
Q 40.484375 56 46.34375 49.84375 
Q 52.203125 43.703125 52.203125 31.203125 
" id="BitstreamVeraSans-Roman-61"/>
     </defs>
     <g transform="translate(203.373102083 133.663125)scale(0.12 -0.12)">
      <use xlink:href="#BitstreamVeraSans-Roman-5a"/>
      <use x="68.505859375" xlink:href="#BitstreamVeraSans-Roman-35"/>
      <use x="132.12890625" xlink:href="#BitstreamVeraSans-Roman-36"/>
      <use x="195.751953125" xlink:href="#BitstreamVeraSans-Roman-5f"/>
      <use x="245.751953125" xlink:href="#BitstreamVeraSans-Roman-6d"/>
      <use x="343.1640625" xlink:href="#BitstreamVeraSans-Roman-61"/>
      <use x="404.443359375" xlink:href="#BitstreamVeraSans-Roman-67"/>
      <use x="467.919921875" xlink:href="#BitstreamVeraSans-Roman-5f"/>
      <use x="517.919921875" xlink:href="#BitstreamVeraSans-Roman-74"/>
      <use x="557.12890625" xlink:href="#BitstreamVeraSans-Roman-63"/>
      <use x="612.109375" xlink:href="#BitstreamVeraSans-Roman-5f"/>
      <use x="662.109375" xlink:href="#BitstreamVeraSans-Roman-6d"/>
      <use x="759.521484375" xlink:href="#BitstreamVeraSans-Roman-65"/>
      <use x="821.044921875" xlink:href="#BitstreamVeraSans-Roman-61"/>
      <use x="882.32421875" xlink:href="#BitstreamVeraSans-Roman-6e"/>
     </g>
    </g>
    <g id="PathCollection_9">
     <path d="M 171.137034 150.696693 
L 175.60917 150.696693 
L 175.60917 146.224557 
L 171.137034 146.224557 
z
" style="fill:#ffffff;stroke:#ff0000;"/>
     <path d="M 179.537034 149.646693 
L 184.00917 149.646693 
L 184.00917 145.174557 
L 179.537034 145.174557 
z
" style="fill:#ffffff;stroke:#ff0000;"/>
     <path d="M 187.937034 151.221693 
L 192.40917 151.221693 
L 192.40917 146.749557 
L 187.937034 146.749557 
z
" style="fill:#ffffff;stroke:#ff0000;"/>
    </g>
    <g id="text_4">
     <!-- Z56_hem_tc_mean -->
     <g transform="translate(203.373102083 151.610625)scale(0.12 -0.12)">
      <use xlink:href="#BitstreamVeraSans-Roman-5a"/>
      <use x="68.505859375" xlink:href="#BitstreamVeraSans-Roman-35"/>
      <use x="132.12890625" xlink:href="#BitstreamVeraSans-Roman-36"/>
      <use x="195.751953125" xlink:href="#BitstreamVeraSans-Roman-5f"/>
      <use x="245.751953125" xlink:href="#BitstreamVeraSans-Roman-68"/>
      <use x="309.130859375" xlink:href="#BitstreamVeraSans-Roman-65"/>
      <use x="370.654296875" xlink:href="#BitstreamVeraSans-Roman-6d"/>
      <use x="468.06640625" xlink:href="#BitstreamVeraSans-Roman-5f"/>
      <use x="518.06640625" xlink:href="#BitstreamVeraSans-Roman-74"/>
      <use x="557.275390625" xlink:href="#BitstreamVeraSans-Roman-63"/>
      <use x="612.255859375" xlink:href="#BitstreamVeraSans-Roman-5f"/>
      <use x="662.255859375" xlink:href="#BitstreamVeraSans-Roman-6d"/>
      <use x="759.66796875" xlink:href="#BitstreamVeraSans-Roman-65"/>
      <use x="821.19140625" xlink:href="#BitstreamVeraSans-Roman-61"/>
      <use x="882.470703125" xlink:href="#BitstreamVeraSans-Roman-6e"/>
     </g>
    </g>
   </g>
  </g>
 </g>
 <defs>
  <clipPath id="pdb2b67eaff">
   <rect height="253.4" width="235.43689015" x="35.4828125" y="7.2"/>
  </clipPath>
 </defs>
</svg>
