<?xml version="1.0" encoding="utf-8" standalone="no"?>
<!DOCTYPE svg PUBLIC "-//W3C//DTD SVG 1.1//EN"
  "http://www.w3.org/Graphics/SVG/1.1/DTD/svg11.dtd">
<!-- Created with matplotlib (http://matplotlib.org/) -->
<svg height="281pt" version="1.1" viewBox="0 0 280 281" width="280pt" xmlns="http://www.w3.org/2000/svg" xmlns:xlink="http://www.w3.org/1999/xlink">
 <defs>
  <style type="text/css">
*{stroke-linecap:butt;stroke-linejoin:round;stroke-miterlimit:100000;}
  </style>
 </defs>
 <g id="figure_1">
  <g id="patch_1">
   <path d="M 0 281.478125 
L 280.465464 281.478125 
L 280.465464 0 
L 0 0 
L 0 281.478125 
z
" style="fill:none;"/>
  </g>
  <g id="axes_1">
   <g id="PathCollection_1">
    <defs>
     <path d="M 0 2.236068 
C 0.593012 2.236068 1.161816 2.000462 1.581139 1.581139 
C 2.000462 1.161816 2.236068 0.593012 2.236068 0 
C 2.236068 -0.593012 2.000462 -1.161816 1.581139 -1.581139 
C 1.161816 -2.000462 0.593012 -2.236068 0 -2.236068 
C -0.593012 -2.236068 -1.161816 -2.000462 -1.581139 -1.581139 
C -2.000462 -1.161816 -2.236068 -0.593012 -2.236068 0 
C -2.236068 0.593012 -2.000462 1.161816 -1.581139 1.581139 
C -1.161816 2.000462 -0.593012 2.236068 0 2.236068 
z
" id="m1ec7a1bff9" style="stroke:#008000;"/>
    </defs>
    <g clip-path="url(#pfeda93401e)">
     <use style="fill:#008000;stroke:#008000;" x="165.934565495" xlink:href="#m1ec7a1bff9" y="120.498401901"/>
     <use style="fill:#008000;stroke:#008000;" x="151.89830636" xlink:href="#m1ec7a1bff9" y="94.6740951372"/>
     <use style="fill:#008000;stroke:#008000;" x="145.125801794" xlink:href="#m1ec7a1bff9" y="95.6270025616"/>
     <use style="fill:#008000;stroke:#008000;" x="147.23448166" xlink:href="#m1ec7a1bff9" y="94.0253006858"/>
     <use style="fill:#008000;stroke:#008000;" x="148.72744452" xlink:href="#m1ec7a1bff9" y="93.427574396"/>
     <use style="fill:#008000;stroke:#008000;" x="159.006510491" xlink:href="#m1ec7a1bff9" y="92.1149460104"/>
     <use style="fill:#008000;stroke:#008000;" x="157.537676728" xlink:href="#m1ec7a1bff9" y="107.158744641"/>
     <use style="fill:#008000;stroke:#008000;" x="154.309610616" xlink:href="#m1ec7a1bff9" y="94.2664727027"/>
    </g>
   </g>
   <g id="PathCollection_2">
    <defs>
     <path d="M 0 2.236068 
C 0.593012 2.236068 1.161816 2.000462 1.581139 1.581139 
C 2.000462 1.161816 2.236068 0.593012 2.236068 0 
C 2.236068 -0.593012 2.000462 -1.161816 1.581139 -1.581139 
C 1.161816 -2.000462 0.593012 -2.236068 0 -2.236068 
C -0.593012 -2.236068 -1.161816 -2.000462 -1.581139 -1.581139 
C -2.000462 -1.161816 -2.236068 -0.593012 -2.236068 0 
C -2.236068 0.593012 -2.000462 1.161816 -1.581139 1.581139 
C -1.161816 2.000462 -0.593012 2.236068 0 2.236068 
z
" id="C0_0_eaa5e14082"/>
    </defs>
    <g clip-path="url(#pfeda93401e)">
     <use style="fill:none;stroke:#0000ff;" x="93.6649238615" xlink:href="#C0_0_eaa5e14082" y="156.606565215"/>
    </g>
    <g clip-path="url(#pfeda93401e)">
     <use style="fill:none;stroke:#0000ff;" x="82.1975430798" xlink:href="#C0_0_eaa5e14082" y="161.691603725"/>
    </g>
    <g clip-path="url(#pfeda93401e)">
     <use style="fill:none;stroke:#0000ff;" x="76.7789078322" xlink:href="#C0_0_eaa5e14082" y="166.14210298"/>
    </g>
    <g clip-path="url(#pfeda93401e)">
     <use style="fill:none;stroke:#0000ff;" x="72.1960530789" xlink:href="#C0_0_eaa5e14082" y="155.729826667"/>
    </g>
    <g clip-path="url(#pfeda93401e)">
     <use style="fill:none;stroke:#0000ff;" x="83.539581894" xlink:href="#C0_0_eaa5e14082" y="158.674698111"/>
    </g>
    <g clip-path="url(#pfeda93401e)">
     <use style="fill:none;stroke:#0000ff;" x="80.2493606016" xlink:href="#C0_0_eaa5e14082" y="158.846097103"/>
    </g>
    <g clip-path="url(#pfeda93401e)">
     <use style="fill:none;stroke:#0000ff;" x="78.0921130743" xlink:href="#C0_0_eaa5e14082" y="168.245082636"/>
    </g>
    <g clip-path="url(#pfeda93401e)">
     <use style="fill:none;stroke:#0000ff;" x="81.7697368068" xlink:href="#C0_0_eaa5e14082" y="147.509422554"/>
    </g>
   </g>
   <g id="PathCollection_3">
    <defs>
     <path d="M -2.236068 2.236068 
L 2.236068 2.236068 
L 2.236068 -2.236068 
L -2.236068 -2.236068 
z
" id="mc53cffec20" style="stroke:#0000ff;"/>
    </defs>
    <g clip-path="url(#pfeda93401e)">
     <use style="fill:#ffffff;stroke:#0000ff;" x="80.8616226385" xlink:href="#mc53cffec20" y="159.222634501"/>
    </g>
   </g>
   <g id="line2d_1">
    <path clip-path="url(#pfeda93401e)" d="M 153.201175 21.925935 
L 159.068702 22.079392 
L 164.920146 22.539341 
L 170.739469 23.304522 
L 176.510722 24.372837 
L 182.218084 25.741359 
L 187.845913 27.406336 
L 193.378783 29.363205 
L 198.801529 31.606602 
L 204.099288 34.130378 
L 209.257538 36.927615 
L 214.262142 39.990648 
L 219.099382 43.311079 
L 223.756 46.879808 
L 228.219232 50.687053 
L 232.476844 54.72238 
L 236.517167 58.974726 
L 240.329127 63.432438 
L 243.902276 68.083296 
L 247.226819 72.914553 
L 250.293644 77.912968 
L 253.094346 83.064838 
L 255.621247 88.356045 
L 257.867422 93.772084 
L 259.826714 99.298111 
L 261.493753 104.91898 
L 262.863969 110.619283 
L 263.933608 116.383397 
L 264.699736 122.195523 
L 265.160255 128.03973 
L 265.313901 133.9 
L 265.160255 139.76027 
L 264.699736 145.604477 
L 263.933608 151.416603 
L 262.863969 157.180717 
L 261.493753 162.88102 
L 259.826714 168.501889 
L 257.867422 174.027916 
L 255.621247 179.443955 
L 253.094346 184.735162 
L 250.293644 189.887032 
L 247.226819 194.885447 
L 243.902276 199.716704 
L 240.329127 204.367562 
L 236.517167 208.825274 
L 232.476844 213.07762 
L 228.219232 217.112947 
L 223.756 220.920192 
L 219.099382 224.488921 
L 214.262142 227.809352 
L 209.257538 230.872385 
L 204.099288 233.669622 
L 198.801529 236.193398 
L 193.378783 238.436795 
L 187.845913 240.393664 
L 182.218084 242.058641 
L 176.510722 243.427163 
L 170.739469 244.495478 
L 164.920146 245.260659 
L 159.068702 245.720608 
L 153.201175 245.874065 
L 147.333648 245.720608 
L 141.482204 245.260659 
L 135.662881 244.495478 
L 129.891629 243.427163 
L 124.184266 242.058641 
L 118.556437 240.393664 
L 113.023567 238.436795 
L 107.600821 236.193398 
L 102.303062 233.669622 
L 97.144812 230.872385 
L 92.140208 227.809352 
L 87.302968 224.488921 
L 82.64635 220.920192 
L 78.183119 217.112947 
L 73.925506 213.07762 
L 69.885183 208.825274 
L 66.073223 204.367562 
L 62.500074 199.716704 
L 59.175531 194.885447 
L 56.108706 189.887032 
L 53.308005 184.735162 
L 50.781103 179.443955 
L 48.534928 174.027916 
L 46.575636 168.501889 
L 44.908597 162.88102 
L 43.538381 157.180717 
L 42.468743 151.416603 
L 41.702614 145.604477 
L 41.242095 139.76027 
L 41.088449 133.9 
L 41.242095 128.03973 
L 41.702614 122.195523 
L 42.468743 116.383397 
L 43.538381 110.619283 
L 44.908597 104.91898 
L 46.575636 99.298111 
L 48.534928 93.772084 
L 50.781103 88.356045 
L 53.308005 83.064838 
L 56.108706 77.912968 
L 59.175531 72.914553 
L 62.500074 68.083296 
L 66.073223 63.432438 
L 69.885183 58.974726 
L 73.925506 54.72238 
L 78.183119 50.687053 
L 82.64635 46.879808 
L 87.302968 43.311079 
L 92.140208 39.990648 
L 97.144812 36.927615 
L 102.303062 34.130378 
L 107.600821 31.606602 
L 113.023567 29.363205 
L 118.556437 27.406336 
L 124.184266 25.741359 
L 129.891629 24.372837 
L 135.662881 23.304522 
L 141.482204 22.539341 
L 147.333648 22.079392 
L 153.201175 21.925935 
L 153.201175 21.925935 
" style="fill:none;stroke:#000000;stroke-linecap:square;"/>
   </g>
   <g id="line2d_2">
    <defs>
     <path d="M -3 0 
L 3 0 
M 0 3 
L 0 -3 
" id="mabd9a5203b" style="stroke:#000000;stroke-width:0.5;"/>
    </defs>
    <g clip-path="url(#pfeda93401e)">
     <use style="stroke:#000000;stroke-width:0.5;" x="153.201175038" xlink:href="#mabd9a5203b" y="32.1112132669"/>
     <use style="stroke:#000000;stroke-width:0.5;" x="153.201175038" xlink:href="#mabd9a5203b" y="43.0711652884"/>
     <use style="stroke:#000000;stroke-width:0.5;" x="153.201175038" xlink:href="#mabd9a5203b" y="54.722379586"/>
     <use style="stroke:#000000;stroke-width:0.5;" x="153.201175038" xlink:href="#mabd9a5203b" y="66.9761833838"/>
     <use style="stroke:#000000;stroke-width:0.5;" x="153.201175038" xlink:href="#mabd9a5203b" y="79.7393178357"/>
     <use style="stroke:#000000;stroke-width:0.5;" x="153.201175038" xlink:href="#mabd9a5203b" y="92.9146477819"/>
     <use style="stroke:#000000;stroke-width:0.5;" x="153.201175038" xlink:href="#mabd9a5203b" y="106.401901006"/>
     <use style="stroke:#000000;stroke-width:0.5;" x="153.201175038" xlink:href="#mabd9a5203b" y="120.098431368"/>
     <use style="stroke:#000000;stroke-width:0.5;" x="153.201175038" xlink:href="#mabd9a5203b" y="133.9"/>
    </g>
   </g>
   <g id="line2d_3">
    <g clip-path="url(#pfeda93401e)">
     <use style="stroke:#000000;stroke-width:0.5;" x="255.116010569" xlink:href="#mabd9a5203b" y="133.9"/>
     <use style="stroke:#000000;stroke-width:0.5;" x="244.142486436" xlink:href="#mabd9a5203b" y="133.9"/>
     <use style="stroke:#000000;stroke-width:0.5;" x="232.476844011" xlink:href="#mabd9a5203b" y="133.9"/>
     <use style="stroke:#000000;stroke-width:0.5;" x="220.207865877" xlink:href="#mabd9a5203b" y="133.9"/>
     <use style="stroke:#000000;stroke-width:0.5;" x="207.428926367" xlink:href="#mabd9a5203b" y="133.9"/>
     <use style="stroke:#000000;stroke-width:0.5;" x="194.237280925" xlink:href="#mabd9a5203b" y="133.9"/>
     <use style="stroke:#000000;stroke-width:0.5;" x="180.733325939" xlink:href="#mabd9a5203b" y="133.9"/>
     <use style="stroke:#000000;stroke-width:0.5;" x="167.019834661" xlink:href="#mabd9a5203b" y="133.9"/>
    </g>
   </g>
   <g id="line2d_4">
    <g clip-path="url(#pfeda93401e)">
     <use style="stroke:#000000;stroke-width:0.5;" x="153.201175038" xlink:href="#mabd9a5203b" y="235.688786733"/>
     <use style="stroke:#000000;stroke-width:0.5;" x="153.201175038" xlink:href="#mabd9a5203b" y="224.728834712"/>
     <use style="stroke:#000000;stroke-width:0.5;" x="153.201175038" xlink:href="#mabd9a5203b" y="213.077620414"/>
     <use style="stroke:#000000;stroke-width:0.5;" x="153.201175038" xlink:href="#mabd9a5203b" y="200.823816616"/>
     <use style="stroke:#000000;stroke-width:0.5;" x="153.201175038" xlink:href="#mabd9a5203b" y="188.060682164"/>
     <use style="stroke:#000000;stroke-width:0.5;" x="153.201175038" xlink:href="#mabd9a5203b" y="174.885352218"/>
     <use style="stroke:#000000;stroke-width:0.5;" x="153.201175038" xlink:href="#mabd9a5203b" y="161.398098994"/>
     <use style="stroke:#000000;stroke-width:0.5;" x="153.201175038" xlink:href="#mabd9a5203b" y="147.701568632"/>
    </g>
   </g>
   <g id="line2d_5">
    <g clip-path="url(#pfeda93401e)">
     <use style="stroke:#000000;stroke-width:0.5;" x="51.2863395082" xlink:href="#mabd9a5203b" y="133.9"/>
     <use style="stroke:#000000;stroke-width:0.5;" x="62.2598636413" xlink:href="#mabd9a5203b" y="133.9"/>
     <use style="stroke:#000000;stroke-width:0.5;" x="73.925506066" xlink:href="#mabd9a5203b" y="133.9"/>
     <use style="stroke:#000000;stroke-width:0.5;" x="86.1944841995" xlink:href="#mabd9a5203b" y="133.9"/>
     <use style="stroke:#000000;stroke-width:0.5;" x="98.97342371" xlink:href="#mabd9a5203b" y="133.9"/>
     <use style="stroke:#000000;stroke-width:0.5;" x="112.165069152" xlink:href="#mabd9a5203b" y="133.9"/>
     <use style="stroke:#000000;stroke-width:0.5;" x="125.669024138" xlink:href="#mabd9a5203b" y="133.9"/>
     <use style="stroke:#000000;stroke-width:0.5;" x="139.382515416" xlink:href="#mabd9a5203b" y="133.9"/>
    </g>
   </g>
   <g id="line2d_6">
    <path clip-path="url(#pfeda93401e)" d="M 153.201175 21.925935 
L 153.201175 22.907345 
L 153.201175 23.897206 
L 153.201175 24.895445 
" style="fill:none;stroke:#000000;stroke-linecap:square;"/>
   </g>
   <g id="line2d_7">
    <path clip-path="url(#pfeda93401e)" d="M 172.669346 23.627073 
L 172.498715 24.593572 
L 172.326614 25.568396 
L 172.153057 26.55147 
" style="fill:none;stroke:#000000;stroke-linecap:square;"/>
   </g>
   <g id="line2d_8">
    <path clip-path="url(#pfeda93401e)" d="M 191.545986 28.678798 
L 191.209908 29.601021 
L 190.870936 30.531187 
L 190.529096 31.469224 
" style="fill:none;stroke:#000000;stroke-linecap:square;"/>
   </g>
   <g id="line2d_9">
    <path clip-path="url(#pfeda93401e)" d="M 209.257538 36.927615 
L 208.766226 37.777541 
L 208.270682 38.634786 
L 207.770945 39.499287 
" style="fill:none;stroke:#000000;stroke-linecap:square;"/>
   </g>
   <g id="line2d_10">
    <path clip-path="url(#pfeda93401e)" d="M 225.265846 48.12289 
L 224.634227 48.874693 
L 223.997169 49.632971 
L 223.354718 50.397667 
" style="fill:none;stroke:#000000;stroke-linecap:square;"/>
   </g>
   <g id="line2d_11">
    <path clip-path="url(#pfeda93401e)" d="M 239.084506 61.924459 
L 238.331772 62.555296 
L 237.572555 63.191567 
L 236.806912 63.833223 
" style="fill:none;stroke:#000000;stroke-linecap:square;"/>
   </g>
   <g id="line2d_12">
    <path clip-path="url(#pfeda93401e)" d="M 250.293644 77.912968 
L 249.442666 78.403672 
L 248.584359 78.898603 
L 247.718788 79.397723 
" style="fill:none;stroke:#000000;stroke-linecap:square;"/>
   </g>
   <g id="line2d_13">
    <path clip-path="url(#pfeda93401e)" d="M 258.552677 95.602614 
L 257.629311 95.938276 
L 256.697994 96.276829 
L 255.758794 96.618247 
" style="fill:none;stroke:#000000;stroke-linecap:square;"/>
   </g>
   <g id="line2d_14">
    <path clip-path="url(#pfeda93401e)" d="M 263.610657 114.455908 
L 262.642961 114.626328 
L 261.66693 114.798215 
L 260.682639 114.971558 
" style="fill:none;stroke:#000000;stroke-linecap:square;"/>
   </g>
   <g id="line2d_15">
    <path clip-path="url(#pfeda93401e)" d="M 265.313901 133.9 
L 264.331277 133.9 
L 263.340189 133.9 
L 262.340714 133.9 
" style="fill:none;stroke:#000000;stroke-linecap:square;"/>
   </g>
   <g id="line2d_16">
    <path clip-path="url(#pfeda93401e)" d="M 263.610657 153.344092 
L 262.642961 153.173672 
L 261.66693 153.001785 
L 260.682639 152.828442 
" style="fill:none;stroke:#000000;stroke-linecap:square;"/>
   </g>
   <g id="line2d_17">
    <path clip-path="url(#pfeda93401e)" d="M 258.552677 172.197386 
L 257.629311 171.861724 
L 256.697994 171.523171 
L 255.758794 171.181753 
" style="fill:none;stroke:#000000;stroke-linecap:square;"/>
   </g>
   <g id="line2d_18">
    <path clip-path="url(#pfeda93401e)" d="M 250.293644 189.887032 
L 249.442666 189.396328 
L 248.584359 188.901397 
L 247.718788 188.402277 
" style="fill:none;stroke:#000000;stroke-linecap:square;"/>
   </g>
   <g id="line2d_19">
    <path clip-path="url(#pfeda93401e)" d="M 239.084506 205.875541 
L 238.331772 205.244704 
L 237.572555 204.608433 
L 236.806912 203.966777 
" style="fill:none;stroke:#000000;stroke-linecap:square;"/>
   </g>
   <g id="line2d_20">
    <path clip-path="url(#pfeda93401e)" d="M 225.265846 219.67711 
L 224.634227 218.925307 
L 223.997169 218.167029 
L 223.354718 217.402333 
" style="fill:none;stroke:#000000;stroke-linecap:square;"/>
   </g>
   <g id="line2d_21">
    <path clip-path="url(#pfeda93401e)" d="M 209.257538 230.872385 
L 208.766226 230.022459 
L 208.270682 229.165214 
L 207.770945 228.300713 
" style="fill:none;stroke:#000000;stroke-linecap:square;"/>
   </g>
   <g id="line2d_22">
    <path clip-path="url(#pfeda93401e)" d="M 191.545986 239.121202 
L 191.209908 238.198979 
L 190.870936 237.268813 
L 190.529096 236.330776 
" style="fill:none;stroke:#000000;stroke-linecap:square;"/>
   </g>
   <g id="line2d_23">
    <path clip-path="url(#pfeda93401e)" d="M 172.669346 244.172927 
L 172.498715 243.206428 
L 172.326614 242.231604 
L 172.153057 241.24853 
" style="fill:none;stroke:#000000;stroke-linecap:square;"/>
   </g>
   <g id="line2d_24">
    <path clip-path="url(#pfeda93401e)" d="M 153.201175 245.874065 
L 153.201175 244.892655 
L 153.201175 243.902794 
L 153.201175 242.904555 
" style="fill:none;stroke:#000000;stroke-linecap:square;"/>
   </g>
   <g id="line2d_25">
    <path clip-path="url(#pfeda93401e)" d="M 133.733004 244.172927 
L 133.903635 243.206428 
L 134.075736 242.231604 
L 134.249293 241.24853 
" style="fill:none;stroke:#000000;stroke-linecap:square;"/>
   </g>
   <g id="line2d_26">
    <path clip-path="url(#pfeda93401e)" d="M 114.856364 239.121202 
L 115.192442 238.198979 
L 115.531414 237.268813 
L 115.873254 236.330776 
" style="fill:none;stroke:#000000;stroke-linecap:square;"/>
   </g>
   <g id="line2d_27">
    <path clip-path="url(#pfeda93401e)" d="M 97.144812 230.872385 
L 97.636124 230.022459 
L 98.131668 229.165214 
L 98.631406 228.300713 
" style="fill:none;stroke:#000000;stroke-linecap:square;"/>
   </g>
   <g id="line2d_28">
    <path clip-path="url(#pfeda93401e)" d="M 81.136504 219.67711 
L 81.768123 218.925307 
L 82.405181 218.167029 
L 83.047632 217.402333 
" style="fill:none;stroke:#000000;stroke-linecap:square;"/>
   </g>
   <g id="line2d_29">
    <path clip-path="url(#pfeda93401e)" d="M 67.317844 205.875541 
L 68.070578 205.244704 
L 68.829795 204.608433 
L 69.595438 203.966777 
" style="fill:none;stroke:#000000;stroke-linecap:square;"/>
   </g>
   <g id="line2d_30">
    <path clip-path="url(#pfeda93401e)" d="M 56.108706 189.887032 
L 56.959684 189.396328 
L 57.817991 188.901397 
L 58.683562 188.402277 
" style="fill:none;stroke:#000000;stroke-linecap:square;"/>
   </g>
   <g id="line2d_31">
    <path clip-path="url(#pfeda93401e)" d="M 47.849674 172.197386 
L 48.773039 171.861724 
L 49.704356 171.523171 
L 50.643556 171.181753 
" style="fill:none;stroke:#000000;stroke-linecap:square;"/>
   </g>
   <g id="line2d_32">
    <path clip-path="url(#pfeda93401e)" d="M 42.791693 153.344092 
L 43.759389 153.173672 
L 44.73542 153.001785 
L 45.719711 152.828442 
" style="fill:none;stroke:#000000;stroke-linecap:square;"/>
   </g>
   <g id="line2d_33">
    <path clip-path="url(#pfeda93401e)" d="M 41.088449 133.9 
L 42.071073 133.9 
L 43.062161 133.9 
L 44.061636 133.9 
" style="fill:none;stroke:#000000;stroke-linecap:square;"/>
   </g>
   <g id="line2d_34">
    <path clip-path="url(#pfeda93401e)" d="M 42.791693 114.455908 
L 43.759389 114.626328 
L 44.73542 114.798215 
L 45.719711 114.971558 
" style="fill:none;stroke:#000000;stroke-linecap:square;"/>
   </g>
   <g id="line2d_35">
    <path clip-path="url(#pfeda93401e)" d="M 47.849674 95.602614 
L 48.773039 95.938276 
L 49.704356 96.276829 
L 50.643556 96.618247 
" style="fill:none;stroke:#000000;stroke-linecap:square;"/>
   </g>
   <g id="line2d_36">
    <path clip-path="url(#pfeda93401e)" d="M 56.108706 77.912968 
L 56.959684 78.403672 
L 57.817991 78.898603 
L 58.683562 79.397723 
" style="fill:none;stroke:#000000;stroke-linecap:square;"/>
   </g>
   <g id="line2d_37">
    <path clip-path="url(#pfeda93401e)" d="M 67.317844 61.924459 
L 68.070578 62.555296 
L 68.829795 63.191567 
L 69.595438 63.833223 
" style="fill:none;stroke:#000000;stroke-linecap:square;"/>
   </g>
   <g id="line2d_38">
    <path clip-path="url(#pfeda93401e)" d="M 81.136504 48.12289 
L 81.768123 48.874693 
L 82.405181 49.632971 
L 83.047632 50.397667 
" style="fill:none;stroke:#000000;stroke-linecap:square;"/>
   </g>
   <g id="line2d_39">
    <path clip-path="url(#pfeda93401e)" d="M 97.144812 36.927615 
L 97.636124 37.777541 
L 98.131668 38.634786 
L 98.631406 39.499287 
" style="fill:none;stroke:#000000;stroke-linecap:square;"/>
   </g>
   <g id="line2d_40">
    <path clip-path="url(#pfeda93401e)" d="M 114.856364 28.678798 
L 115.192442 29.601021 
L 115.531414 30.531187 
L 115.873254 31.469224 
" style="fill:none;stroke:#000000;stroke-linecap:square;"/>
   </g>
   <g id="line2d_41">
    <path clip-path="url(#pfeda93401e)" d="M 133.733004 23.627073 
L 133.903635 24.593572 
L 134.075736 25.568396 
L 134.249293 26.55147 
" style="fill:none;stroke:#000000;stroke-linecap:square;"/>
   </g>
   <g id="line2d_42">
    <path clip-path="url(#pfeda93401e)" d="M 78.658596 152.333312 
L 78.331023 152.452473 
L 78.013166 152.598528 
L 77.706332 152.77101 
L 77.411793 152.969339 
L 77.130786 153.192824 
L 76.864503 153.440667 
L 76.614087 153.711961 
L 76.380625 154.005695 
L 76.165142 154.320756 
L 75.968597 154.65593 
L 75.791876 155.009912 
L 75.635788 155.381305 
L 75.501057 155.768628 
L 75.388321 156.170322 
L 75.298125 156.584755 
L 75.23092 157.010231 
L 75.187054 157.444998 
L 75.166777 157.887252 
L 75.170232 158.335153 
L 75.197456 158.786824 
L 75.24838 159.24037 
L 75.322827 159.69388 
L 75.420511 160.145441 
L 75.541041 160.593145 
L 75.683921 161.035101 
L 75.848552 161.469444 
L 76.034235 161.894341 
L 76.240176 162.308007 
L 76.465488 162.708706 
L 76.709199 163.094766 
L 76.970252 163.464585 
L 77.247516 163.816638 
L 77.539791 164.149483 
L 77.845813 164.461771 
L 78.164261 164.752248 
L 78.493766 165.019763 
L 78.832917 165.263273 
L 79.180268 165.481842 
L 79.534345 165.67465 
L 79.893658 165.840992 
L 80.256702 165.980282 
L 80.621967 166.09205 
L 80.987948 166.175948 
L 81.353147 166.231744 
L 81.716082 166.259328 
L 82.075295 166.258702 
L 82.429355 166.229988 
L 82.776864 166.173415 
L 83.116466 166.089326 
L 83.446847 165.978168 
L 83.766744 165.840491 
L 84.074946 165.676946 
L 84.370299 165.488276 
L 84.651711 165.275317 
L 84.918151 165.038987 
L 85.168658 164.78029 
L 85.402335 164.500303 
L 85.61836 164.200173 
L 85.815982 163.881117 
L 85.994523 163.54441 
L 86.153381 163.191383 
L 86.292029 162.823418 
L 86.410018 162.441943 
L 86.506974 162.048425 
L 86.582601 161.644367 
L 86.63668 161.231302 
L 86.669067 160.810787 
L 86.679697 160.384401 
L 86.668577 159.953734 
L 86.635793 159.520391 
L 86.581501 159.085978 
L 86.505933 158.652104 
L 86.409392 158.220371 
L 86.292252 157.792373 
L 86.154954 157.369691 
L 85.99801 156.953886 
L 85.821997 156.546497 
L 85.627557 156.149034 
L 85.415393 155.762975 
L 85.186273 155.389762 
L 84.941019 155.030793 
L 84.680515 154.687425 
L 84.405695 154.360961 
L 84.117548 154.05265 
L 83.817113 153.763683 
L 83.505474 153.495189 
L 83.18376 153.248227 
L 82.853144 153.023787 
L 82.514833 152.822783 
L 82.170071 152.646049 
L 81.820134 152.494337 
L 81.466324 152.368311 
L 81.109968 152.268545 
L 80.752411 152.195521 
L 80.395016 152.149621 
L 80.039154 152.13113 
L 79.686204 152.14023 
L 79.337546 152.176998 
L 78.994554 152.241405 
L 78.658596 152.333312 
" style="fill:none;stroke:#0000ff;stroke-linecap:square;"/>
   </g>
   <g id="legend_1">
    <g id="patch_2">
     <path d="M 70.798321 70.55 
L 227.482696 70.55 
L 227.482696 31.055 
L 70.798321 31.055 
z
" style="fill:#ffffff;stroke:#000000;stroke-linejoin:miter;"/>
    </g>
    <g id="PathCollection_4">
     <path d="M 79.198321 44.059193 
C 79.791333 44.059193 80.360137 43.823587 80.77946 43.404264 
C 81.198783 42.984941 81.434389 42.416137 81.434389 41.823125 
C 81.434389 41.230113 81.198783 40.661309 80.77946 40.241986 
C 80.360137 39.822663 79.791333 39.587057 79.198321 39.587057 
C 78.605309 39.587057 78.036505 39.822663 77.617182 40.241986 
C 77.19786 40.661309 76.962253 41.230113 76.962253 41.823125 
C 76.962253 42.416137 77.19786 42.984941 77.617182 43.404264 
C 78.036505 43.823587 78.605309 44.059193 79.198321 44.059193 
z
" style="fill:#008000;stroke:#008000;"/>
     <path d="M 87.598321 43.009193 
C 88.191333 43.009193 88.760137 42.773587 89.17946 42.354264 
C 89.598783 41.934941 89.834389 41.366137 89.834389 40.773125 
C 89.834389 40.180113 89.598783 39.611309 89.17946 39.191986 
C 88.760137 38.772663 88.191333 38.537057 87.598321 38.537057 
C 87.005309 38.537057 86.436505 38.772663 86.017182 39.191986 
C 85.59786 39.611309 85.362253 40.180113 85.362253 40.773125 
C 85.362253 41.366137 85.59786 41.934941 86.017182 42.354264 
C 86.436505 42.773587 87.005309 43.009193 87.598321 43.009193 
z
" style="fill:#008000;stroke:#008000;"/>
     <path d="M 95.998321 44.584193 
C 96.591333 44.584193 97.160137 44.348587 97.57946 43.929264 
C 97.998783 43.509941 98.234389 42.941137 98.234389 42.348125 
C 98.234389 41.755113 97.998783 41.186309 97.57946 40.766986 
C 97.160137 40.347663 96.591333 40.112057 95.998321 40.112057 
C 95.405309 40.112057 94.836505 40.347663 94.417182 40.766986 
C 93.99786 41.186309 93.762253 41.755113 93.762253 42.348125 
C 93.762253 42.941137 93.99786 43.509941 94.417182 43.929264 
C 94.836505 44.348587 95.405309 44.584193 95.998321 44.584193 
z
" style="fill:#008000;stroke:#008000;"/>
    </g>
    <g id="text_1">
     <!-- Z33_low_geo -->
     <defs>
      <path d="M 5.609375 72.90625 
L 62.890625 72.90625 
L 62.890625 65.375 
L 16.796875 8.296875 
L 64.015625 8.296875 
L 64.015625 0 
L 4.5 0 
L 4.5 7.515625 
L 50.59375 64.59375 
L 5.609375 64.59375 
z
" id="BitstreamVeraSans-Roman-5a"/>
      <path d="M 50.984375 -16.609375 
L 50.984375 -23.578125 
L -0.984375 -23.578125 
L -0.984375 -16.609375 
z
" id="BitstreamVeraSans-Roman-5f"/>
      <path d="M 40.578125 39.3125 
Q 47.65625 37.796875 51.625 33 
Q 55.609375 28.21875 55.609375 21.1875 
Q 55.609375 10.40625 48.1875 4.484375 
Q 40.765625 -1.421875 27.09375 -1.421875 
Q 22.515625 -1.421875 17.65625 -0.515625 
Q 12.796875 0.390625 7.625 2.203125 
L 7.625 11.71875 
Q 11.71875 9.328125 16.59375 8.109375 
Q 21.484375 6.890625 26.8125 6.890625 
Q 36.078125 6.890625 40.9375 10.546875 
Q 45.796875 14.203125 45.796875 21.1875 
Q 45.796875 27.640625 41.28125 31.265625 
Q 36.765625 34.90625 28.71875 34.90625 
L 20.21875 34.90625 
L 20.21875 43.015625 
L 29.109375 43.015625 
Q 36.375 43.015625 40.234375 45.921875 
Q 44.09375 48.828125 44.09375 54.296875 
Q 44.09375 59.90625 40.109375 62.90625 
Q 36.140625 65.921875 28.71875 65.921875 
Q 24.65625 65.921875 20.015625 65.03125 
Q 15.375 64.15625 9.8125 62.3125 
L 9.8125 71.09375 
Q 15.4375 72.65625 20.34375 73.4375 
Q 25.25 74.21875 29.59375 74.21875 
Q 40.828125 74.21875 47.359375 69.109375 
Q 53.90625 64.015625 53.90625 55.328125 
Q 53.90625 49.265625 50.4375 45.09375 
Q 46.96875 40.921875 40.578125 39.3125 
" id="BitstreamVeraSans-Roman-33"/>
      <path d="M 30.609375 48.390625 
Q 23.390625 48.390625 19.1875 42.75 
Q 14.984375 37.109375 14.984375 27.296875 
Q 14.984375 17.484375 19.15625 11.84375 
Q 23.34375 6.203125 30.609375 6.203125 
Q 37.796875 6.203125 41.984375 11.859375 
Q 46.1875 17.53125 46.1875 27.296875 
Q 46.1875 37.015625 41.984375 42.703125 
Q 37.796875 48.390625 30.609375 48.390625 
M 30.609375 56 
Q 42.328125 56 49.015625 48.375 
Q 55.71875 40.765625 55.71875 27.296875 
Q 55.71875 13.875 49.015625 6.21875 
Q 42.328125 -1.421875 30.609375 -1.421875 
Q 18.84375 -1.421875 12.171875 6.21875 
Q 5.515625 13.875 5.515625 27.296875 
Q 5.515625 40.765625 12.171875 48.375 
Q 18.84375 56 30.609375 56 
" id="BitstreamVeraSans-Roman-6f"/>
      <path d="M 9.421875 75.984375 
L 18.40625 75.984375 
L 18.40625 0 
L 9.421875 0 
z
" id="BitstreamVeraSans-Roman-6c"/>
      <path d="M 56.203125 29.59375 
L 56.203125 25.203125 
L 14.890625 25.203125 
Q 15.484375 15.921875 20.484375 11.0625 
Q 25.484375 6.203125 34.421875 6.203125 
Q 39.59375 6.203125 44.453125 7.46875 
Q 49.3125 8.734375 54.109375 11.28125 
L 54.109375 2.78125 
Q 49.265625 0.734375 44.1875 -0.34375 
Q 39.109375 -1.421875 33.890625 -1.421875 
Q 20.796875 -1.421875 13.15625 6.1875 
Q 5.515625 13.8125 5.515625 26.8125 
Q 5.515625 40.234375 12.765625 48.109375 
Q 20.015625 56 32.328125 56 
Q 43.359375 56 49.78125 48.890625 
Q 56.203125 41.796875 56.203125 29.59375 
M 47.21875 32.234375 
Q 47.125 39.59375 43.09375 43.984375 
Q 39.0625 48.390625 32.421875 48.390625 
Q 24.90625 48.390625 20.390625 44.140625 
Q 15.875 39.890625 15.1875 32.171875 
z
" id="BitstreamVeraSans-Roman-65"/>
      <path d="M 4.203125 54.6875 
L 13.1875 54.6875 
L 24.421875 12.015625 
L 35.59375 54.6875 
L 46.1875 54.6875 
L 57.421875 12.015625 
L 68.609375 54.6875 
L 77.59375 54.6875 
L 63.28125 0 
L 52.6875 0 
L 40.921875 44.828125 
L 29.109375 0 
L 18.5 0 
z
" id="BitstreamVeraSans-Roman-77"/>
      <path d="M 45.40625 27.984375 
Q 45.40625 37.75 41.375 43.109375 
Q 37.359375 48.484375 30.078125 48.484375 
Q 22.859375 48.484375 18.828125 43.109375 
Q 14.796875 37.75 14.796875 27.984375 
Q 14.796875 18.265625 18.828125 12.890625 
Q 22.859375 7.515625 30.078125 7.515625 
Q 37.359375 7.515625 41.375 12.890625 
Q 45.40625 18.265625 45.40625 27.984375 
M 54.390625 6.78125 
Q 54.390625 -7.171875 48.1875 -13.984375 
Q 42 -20.796875 29.203125 -20.796875 
Q 24.46875 -20.796875 20.265625 -20.09375 
Q 16.0625 -19.390625 12.109375 -17.921875 
L 12.109375 -9.1875 
Q 16.0625 -11.328125 19.921875 -12.34375 
Q 23.78125 -13.375 27.78125 -13.375 
Q 36.625 -13.375 41.015625 -8.765625 
Q 45.40625 -4.15625 45.40625 5.171875 
L 45.40625 9.625 
Q 42.625 4.78125 38.28125 2.390625 
Q 33.9375 0 27.875 0 
Q 17.828125 0 11.671875 7.65625 
Q 5.515625 15.328125 5.515625 27.984375 
Q 5.515625 40.671875 11.671875 48.328125 
Q 17.828125 56 27.875 56 
Q 33.9375 56 38.28125 53.609375 
Q 42.625 51.21875 45.40625 46.390625 
L 45.40625 54.6875 
L 54.390625 54.6875 
z
" id="BitstreamVeraSans-Roman-67"/>
     </defs>
     <g transform="translate(109.198321262 44.973125)scale(0.12 -0.12)">
      <use xlink:href="#BitstreamVeraSans-Roman-5a"/>
      <use x="68.505859375" xlink:href="#BitstreamVeraSans-Roman-33"/>
      <use x="132.12890625" xlink:href="#BitstreamVeraSans-Roman-33"/>
      <use x="195.751953125" xlink:href="#BitstreamVeraSans-Roman-5f"/>
      <use x="245.751953125" xlink:href="#BitstreamVeraSans-Roman-6c"/>
      <use x="273.53515625" xlink:href="#BitstreamVeraSans-Roman-6f"/>
      <use x="334.716796875" xlink:href="#BitstreamVeraSans-Roman-77"/>
      <use x="416.50390625" xlink:href="#BitstreamVeraSans-Roman-5f"/>
      <use x="466.50390625" xlink:href="#BitstreamVeraSans-Roman-67"/>
      <use x="529.98046875" xlink:href="#BitstreamVeraSans-Roman-65"/>
      <use x="591.50390625" xlink:href="#BitstreamVeraSans-Roman-6f"/>
     </g>
    </g>
    <g id="PathCollection_5">
     <path d="M 76.962253 62.006693 
L 81.434389 62.006693 
L 81.434389 57.534557 
L 76.962253 57.534557 
z
" style="fill:#ffffff;stroke:#0000ff;"/>
     <path d="M 85.362253 60.956693 
L 89.834389 60.956693 
L 89.834389 56.484557 
L 85.362253 56.484557 
z
" style="fill:#ffffff;stroke:#0000ff;"/>
     <path d="M 93.762253 62.531693 
L 98.234389 62.531693 
L 98.234389 58.059557 
L 93.762253 58.059557 
z
" style="fill:#ffffff;stroke:#0000ff;"/>
    </g>
    <g id="text_2">
     <!-- Z33_mag_tc_mean -->
     <defs>
      <path d="M 54.890625 33.015625 
L 54.890625 0 
L 45.90625 0 
L 45.90625 32.71875 
Q 45.90625 40.484375 42.875 44.328125 
Q 39.84375 48.1875 33.796875 48.1875 
Q 26.515625 48.1875 22.3125 43.546875 
Q 18.109375 38.921875 18.109375 30.90625 
L 18.109375 0 
L 9.078125 0 
L 9.078125 54.6875 
L 18.109375 54.6875 
L 18.109375 46.1875 
Q 21.34375 51.125 25.703125 53.5625 
Q 30.078125 56 35.796875 56 
Q 45.21875 56 50.046875 50.171875 
Q 54.890625 44.34375 54.890625 33.015625 
" id="BitstreamVeraSans-Roman-6e"/>
      <path d="M 52 44.1875 
Q 55.375 50.25 60.0625 53.125 
Q 64.75 56 71.09375 56 
Q 79.640625 56 84.28125 50.015625 
Q 88.921875 44.046875 88.921875 33.015625 
L 88.921875 0 
L 79.890625 0 
L 79.890625 32.71875 
Q 79.890625 40.578125 77.09375 44.375 
Q 74.3125 48.1875 68.609375 48.1875 
Q 61.625 48.1875 57.5625 43.546875 
Q 53.515625 38.921875 53.515625 30.90625 
L 53.515625 0 
L 44.484375 0 
L 44.484375 32.71875 
Q 44.484375 40.625 41.703125 44.40625 
Q 38.921875 48.1875 33.109375 48.1875 
Q 26.21875 48.1875 22.15625 43.53125 
Q 18.109375 38.875 18.109375 30.90625 
L 18.109375 0 
L 9.078125 0 
L 9.078125 54.6875 
L 18.109375 54.6875 
L 18.109375 46.1875 
Q 21.1875 51.21875 25.484375 53.609375 
Q 29.78125 56 35.6875 56 
Q 41.65625 56 45.828125 52.96875 
Q 50 49.953125 52 44.1875 
" id="BitstreamVeraSans-Roman-6d"/>
      <path d="M 18.3125 70.21875 
L 18.3125 54.6875 
L 36.8125 54.6875 
L 36.8125 47.703125 
L 18.3125 47.703125 
L 18.3125 18.015625 
Q 18.3125 11.328125 20.140625 9.421875 
Q 21.96875 7.515625 27.59375 7.515625 
L 36.8125 7.515625 
L 36.8125 0 
L 27.59375 0 
Q 17.1875 0 13.234375 3.875 
Q 9.28125 7.765625 9.28125 18.015625 
L 9.28125 47.703125 
L 2.6875 47.703125 
L 2.6875 54.6875 
L 9.28125 54.6875 
L 9.28125 70.21875 
z
" id="BitstreamVeraSans-Roman-74"/>
      <path d="M 34.28125 27.484375 
Q 23.390625 27.484375 19.1875 25 
Q 14.984375 22.515625 14.984375 16.5 
Q 14.984375 11.71875 18.140625 8.90625 
Q 21.296875 6.109375 26.703125 6.109375 
Q 34.1875 6.109375 38.703125 11.40625 
Q 43.21875 16.703125 43.21875 25.484375 
L 43.21875 27.484375 
z
M 52.203125 31.203125 
L 52.203125 0 
L 43.21875 0 
L 43.21875 8.296875 
Q 40.140625 3.328125 35.546875 0.953125 
Q 30.953125 -1.421875 24.3125 -1.421875 
Q 15.921875 -1.421875 10.953125 3.296875 
Q 6 8.015625 6 15.921875 
Q 6 25.140625 12.171875 29.828125 
Q 18.359375 34.515625 30.609375 34.515625 
L 43.21875 34.515625 
L 43.21875 35.40625 
Q 43.21875 41.609375 39.140625 45 
Q 35.0625 48.390625 27.6875 48.390625 
Q 23 48.390625 18.546875 47.265625 
Q 14.109375 46.140625 10.015625 43.890625 
L 10.015625 52.203125 
Q 14.9375 54.109375 19.578125 55.046875 
Q 24.21875 56 28.609375 56 
Q 40.484375 56 46.34375 49.84375 
Q 52.203125 43.703125 52.203125 31.203125 
" id="BitstreamVeraSans-Roman-61"/>
      <path d="M 48.78125 52.59375 
L 48.78125 44.1875 
Q 44.96875 46.296875 41.140625 47.34375 
Q 37.3125 48.390625 33.40625 48.390625 
Q 24.65625 48.390625 19.8125 42.84375 
Q 14.984375 37.3125 14.984375 27.296875 
Q 14.984375 17.28125 19.8125 11.734375 
Q 24.65625 6.203125 33.40625 6.203125 
Q 37.3125 6.203125 41.140625 7.25 
Q 44.96875 8.296875 48.78125 10.40625 
L 48.78125 2.09375 
Q 45.015625 0.34375 40.984375 -0.53125 
Q 36.96875 -1.421875 32.421875 -1.421875 
Q 20.0625 -1.421875 12.78125 6.34375 
Q 5.515625 14.109375 5.515625 27.296875 
Q 5.515625 40.671875 12.859375 48.328125 
Q 20.21875 56 33.015625 56 
Q 37.15625 56 41.109375 55.140625 
Q 45.0625 54.296875 48.78125 52.59375 
" id="BitstreamVeraSans-Roman-63"/>
     </defs>
     <g transform="translate(109.198321262 62.920625)scale(0.12 -0.12)">
      <use xlink:href="#BitstreamVeraSans-Roman-5a"/>
      <use x="68.505859375" xlink:href="#BitstreamVeraSans-Roman-33"/>
      <use x="132.12890625" xlink:href="#BitstreamVeraSans-Roman-33"/>
      <use x="195.751953125" xlink:href="#BitstreamVeraSans-Roman-5f"/>
      <use x="245.751953125" xlink:href="#BitstreamVeraSans-Roman-6d"/>
      <use x="343.1640625" xlink:href="#BitstreamVeraSans-Roman-61"/>
      <use x="404.443359375" xlink:href="#BitstreamVeraSans-Roman-67"/>
      <use x="467.919921875" xlink:href="#BitstreamVeraSans-Roman-5f"/>
      <use x="517.919921875" xlink:href="#BitstreamVeraSans-Roman-74"/>
      <use x="557.12890625" xlink:href="#BitstreamVeraSans-Roman-63"/>
      <use x="612.109375" xlink:href="#BitstreamVeraSans-Roman-5f"/>
      <use x="662.109375" xlink:href="#BitstreamVeraSans-Roman-6d"/>
      <use x="759.521484375" xlink:href="#BitstreamVeraSans-Roman-65"/>
      <use x="821.044921875" xlink:href="#BitstreamVeraSans-Roman-61"/>
      <use x="882.32421875" xlink:href="#BitstreamVeraSans-Roman-6e"/>
     </g>
    </g>
   </g>
  </g>
 </g>
 <defs>
  <clipPath id="pfeda93401e">
   <rect height="253.4" width="235.436725077" x="35.4828125" y="7.2"/>
  </clipPath>
 </defs>
</svg>
