<?xml version="1.0" encoding="utf-8" standalone="no"?>
<!DOCTYPE svg PUBLIC "-//W3C//DTD SVG 1.1//EN"
  "http://www.w3.org/Graphics/SVG/1.1/DTD/svg11.dtd">
<!-- Created with matplotlib (http://matplotlib.org/) -->
<svg height="295pt" version="1.1" viewBox="0 0 475 295" width="475pt" xmlns="http://www.w3.org/2000/svg" xmlns:xlink="http://www.w3.org/1999/xlink">
 <defs>
  <style type="text/css">
*{stroke-linecap:butt;stroke-linejoin:round;stroke-miterlimit:100000;}
  </style>
 </defs>
 <g id="figure_1">
  <g id="patch_1">
   <path d="M 0 295.59625 
L 475.305 295.59625 
L 475.305 0 
L 0 0 
L 0 295.59625 
z
" style="fill:none;"/>
  </g>
  <g id="axes_1">
   <g id="PathCollection_1">
    <defs>
     <path d="M -2.236068 2.236068 
L 2.236068 2.236068 
L 2.236068 -2.236068 
L -2.236068 -2.236068 
z
" id="m9f4292cee6" style="stroke:#bf00bf;"/>
    </defs>
    <g clip-path="url(#pd23c59062b)">
     <use style="fill:#ffffff;stroke:#bf00bf;" x="224.490047326" xlink:href="#m9f4292cee6" y="122.288256917"/>
    </g>
   </g>
   <g id="PathCollection_2">
    <g clip-path="url(#pd23c59062b)">
     <use style="fill:#ffffff;stroke:#bf00bf;" x="216.031586593" xlink:href="#m9f4292cee6" y="179.146981136"/>
    </g>
   </g>
   <g id="PathCollection_3">
    <g clip-path="url(#pd23c59062b)">
     <use style="fill:#ffffff;stroke:#bf00bf;" x="244.737165987" xlink:href="#m9f4292cee6" y="186.903312538"/>
    </g>
   </g>
   <g id="line2d_1">
    <path clip-path="url(#pd23c59062b)" d="M 237.6525 36.04406 
L 243.520027 36.197517 
L 249.371471 36.657466 
L 255.190794 37.422647 
L 260.962046 38.490962 
L 266.669409 39.859484 
L 272.297238 41.524461 
L 277.830108 43.48133 
L 283.252854 45.724727 
L 288.550613 48.248503 
L 293.708863 51.04574 
L 298.713467 54.108773 
L 303.550707 57.429204 
L 308.207325 60.997933 
L 312.670556 64.805178 
L 316.928169 68.840505 
L 320.968492 73.092851 
L 324.780452 77.550563 
L 328.353601 82.201421 
L 331.678144 87.032678 
L 334.744969 92.031093 
L 337.545671 97.182963 
L 340.072572 102.47417 
L 342.318747 107.890209 
L 344.278039 113.416236 
L 345.945078 119.037105 
L 347.315294 124.737408 
L 348.384933 130.501522 
L 349.151061 136.313648 
L 349.61158 142.157855 
L 349.765226 148.018125 
L 349.61158 153.878395 
L 349.151061 159.722602 
L 348.384933 165.534728 
L 347.315294 171.298842 
L 345.945078 176.999145 
L 344.278039 182.620014 
L 342.318747 188.146041 
L 340.072572 193.56208 
L 337.545671 198.853287 
L 334.744969 204.005157 
L 331.678144 209.003572 
L 328.353601 213.834829 
L 324.780452 218.485687 
L 320.968492 222.943399 
L 316.928169 227.195745 
L 312.670556 231.231072 
L 308.207325 235.038317 
L 303.550707 238.607046 
L 298.713467 241.927477 
L 293.708863 244.99051 
L 288.550613 247.787747 
L 283.252854 250.311523 
L 277.830108 252.55492 
L 272.297238 254.511789 
L 266.669409 256.176766 
L 260.962046 257.545288 
L 255.190794 258.613603 
L 249.371471 259.378784 
L 243.520027 259.838733 
L 237.6525 259.99219 
L 231.784973 259.838733 
L 225.933529 259.378784 
L 220.114206 258.613603 
L 214.342954 257.545288 
L 208.635591 256.176766 
L 203.007762 254.511789 
L 197.474892 252.55492 
L 192.052146 250.311523 
L 186.754387 247.787747 
L 181.596137 244.99051 
L 176.591533 241.927477 
L 171.754293 238.607046 
L 167.097675 235.038317 
L 162.634444 231.231072 
L 158.376831 227.195745 
L 154.336508 222.943399 
L 150.524548 218.485687 
L 146.951399 213.834829 
L 143.626856 209.003572 
L 140.560031 204.005157 
L 137.759329 198.853287 
L 135.232428 193.56208 
L 132.986253 188.146041 
L 131.026961 182.620014 
L 129.359922 176.999145 
L 127.989706 171.298842 
L 126.920067 165.534728 
L 126.153939 159.722602 
L 125.69342 153.878395 
L 125.539774 148.018125 
L 125.69342 142.157855 
L 126.153939 136.313648 
L 126.920067 130.501522 
L 127.989706 124.737408 
L 129.359922 119.037105 
L 131.026961 113.416236 
L 132.986253 107.890209 
L 135.232428 102.47417 
L 137.759329 97.182963 
L 140.560031 92.031093 
L 143.626856 87.032678 
L 146.951399 82.201421 
L 150.524548 77.550563 
L 154.336508 73.092851 
L 158.376831 68.840505 
L 162.634444 64.805178 
L 167.097675 60.997933 
L 171.754293 57.429204 
L 176.591533 54.108773 
L 181.596137 51.04574 
L 186.754387 48.248503 
L 192.052146 45.724727 
L 197.474892 43.48133 
L 203.007762 41.524461 
L 208.635591 39.859484 
L 214.342954 38.490962 
L 220.114206 37.422647 
L 225.933529 36.657466 
L 231.784973 36.197517 
L 237.6525 36.04406 
L 237.6525 36.04406 
" style="fill:none;stroke:#000000;stroke-linecap:square;"/>
   </g>
   <g id="line2d_2">
    <defs>
     <path d="M -3 0 
L 3 0 
M 0 3 
L 0 -3 
" id="mf65867bf23" style="stroke:#000000;stroke-width:0.5;"/>
    </defs>
    <g clip-path="url(#pd23c59062b)">
     <use style="stroke:#000000;stroke-width:0.5;" x="237.6525" xlink:href="#mf65867bf23" y="46.2293382669"/>
     <use style="stroke:#000000;stroke-width:0.5;" x="237.6525" xlink:href="#mf65867bf23" y="57.1892902884"/>
     <use style="stroke:#000000;stroke-width:0.5;" x="237.6525" xlink:href="#mf65867bf23" y="68.840504586"/>
     <use style="stroke:#000000;stroke-width:0.5;" x="237.6525" xlink:href="#mf65867bf23" y="81.0943083838"/>
     <use style="stroke:#000000;stroke-width:0.5;" x="237.6525" xlink:href="#mf65867bf23" y="93.8574428357"/>
     <use style="stroke:#000000;stroke-width:0.5;" x="237.6525" xlink:href="#mf65867bf23" y="107.032772782"/>
     <use style="stroke:#000000;stroke-width:0.5;" x="237.6525" xlink:href="#mf65867bf23" y="120.520026006"/>
     <use style="stroke:#000000;stroke-width:0.5;" x="237.6525" xlink:href="#mf65867bf23" y="134.216556368"/>
     <use style="stroke:#000000;stroke-width:0.5;" x="237.6525" xlink:href="#mf65867bf23" y="148.018125"/>
    </g>
   </g>
   <g id="line2d_3">
    <g clip-path="url(#pd23c59062b)">
     <use style="stroke:#000000;stroke-width:0.5;" x="339.56733553" xlink:href="#mf65867bf23" y="148.018125"/>
     <use style="stroke:#000000;stroke-width:0.5;" x="328.593811397" xlink:href="#mf65867bf23" y="148.018125"/>
     <use style="stroke:#000000;stroke-width:0.5;" x="316.928168973" xlink:href="#mf65867bf23" y="148.018125"/>
     <use style="stroke:#000000;stroke-width:0.5;" x="304.659190839" xlink:href="#mf65867bf23" y="148.018125"/>
     <use style="stroke:#000000;stroke-width:0.5;" x="291.880251328" xlink:href="#mf65867bf23" y="148.018125"/>
     <use style="stroke:#000000;stroke-width:0.5;" x="278.688605887" xlink:href="#mf65867bf23" y="148.018125"/>
     <use style="stroke:#000000;stroke-width:0.5;" x="265.184650901" xlink:href="#mf65867bf23" y="148.018125"/>
     <use style="stroke:#000000;stroke-width:0.5;" x="251.471159622" xlink:href="#mf65867bf23" y="148.018125"/>
    </g>
   </g>
   <g id="line2d_4">
    <g clip-path="url(#pd23c59062b)">
     <use style="stroke:#000000;stroke-width:0.5;" x="237.6525" xlink:href="#mf65867bf23" y="249.806911733"/>
     <use style="stroke:#000000;stroke-width:0.5;" x="237.6525" xlink:href="#mf65867bf23" y="238.846959712"/>
     <use style="stroke:#000000;stroke-width:0.5;" x="237.6525" xlink:href="#mf65867bf23" y="227.195745414"/>
     <use style="stroke:#000000;stroke-width:0.5;" x="237.6525" xlink:href="#mf65867bf23" y="214.941941616"/>
     <use style="stroke:#000000;stroke-width:0.5;" x="237.6525" xlink:href="#mf65867bf23" y="202.178807164"/>
     <use style="stroke:#000000;stroke-width:0.5;" x="237.6525" xlink:href="#mf65867bf23" y="189.003477218"/>
     <use style="stroke:#000000;stroke-width:0.5;" x="237.6525" xlink:href="#mf65867bf23" y="175.516223994"/>
     <use style="stroke:#000000;stroke-width:0.5;" x="237.6525" xlink:href="#mf65867bf23" y="161.819693632"/>
    </g>
   </g>
   <g id="line2d_5">
    <g clip-path="url(#pd23c59062b)">
     <use style="stroke:#000000;stroke-width:0.5;" x="135.73766447" xlink:href="#mf65867bf23" y="148.018125"/>
     <use style="stroke:#000000;stroke-width:0.5;" x="146.711188603" xlink:href="#mf65867bf23" y="148.018125"/>
     <use style="stroke:#000000;stroke-width:0.5;" x="158.376831027" xlink:href="#mf65867bf23" y="148.018125"/>
     <use style="stroke:#000000;stroke-width:0.5;" x="170.645809161" xlink:href="#mf65867bf23" y="148.018125"/>
     <use style="stroke:#000000;stroke-width:0.5;" x="183.424748672" xlink:href="#mf65867bf23" y="148.018125"/>
     <use style="stroke:#000000;stroke-width:0.5;" x="196.616394113" xlink:href="#mf65867bf23" y="148.018125"/>
     <use style="stroke:#000000;stroke-width:0.5;" x="210.120349099" xlink:href="#mf65867bf23" y="148.018125"/>
     <use style="stroke:#000000;stroke-width:0.5;" x="223.833840378" xlink:href="#mf65867bf23" y="148.018125"/>
    </g>
   </g>
   <g id="line2d_6">
    <path clip-path="url(#pd23c59062b)" d="M 237.6525 36.04406 
L 237.6525 37.02547 
L 237.6525 38.015331 
L 237.6525 39.01357 
" style="fill:none;stroke:#000000;stroke-linecap:square;"/>
   </g>
   <g id="line2d_7">
    <path clip-path="url(#pd23c59062b)" d="M 257.120671 37.745198 
L 256.95004 38.711697 
L 256.777939 39.686521 
L 256.604382 40.669595 
" style="fill:none;stroke:#000000;stroke-linecap:square;"/>
   </g>
   <g id="line2d_8">
    <path clip-path="url(#pd23c59062b)" d="M 275.997311 42.796923 
L 275.661233 43.719146 
L 275.322261 44.649312 
L 274.980421 45.587349 
" style="fill:none;stroke:#000000;stroke-linecap:square;"/>
   </g>
   <g id="line2d_9">
    <path clip-path="url(#pd23c59062b)" d="M 293.708863 51.04574 
L 293.217551 51.895666 
L 292.722007 52.752911 
L 292.222269 53.617412 
" style="fill:none;stroke:#000000;stroke-linecap:square;"/>
   </g>
   <g id="line2d_10">
    <path clip-path="url(#pd23c59062b)" d="M 309.717171 62.241015 
L 309.085552 62.992818 
L 308.448494 63.751096 
L 307.806043 64.515792 
" style="fill:none;stroke:#000000;stroke-linecap:square;"/>
   </g>
   <g id="line2d_11">
    <path clip-path="url(#pd23c59062b)" d="M 323.535831 76.042584 
L 322.783097 76.673421 
L 322.02388 77.309692 
L 321.258237 77.951348 
" style="fill:none;stroke:#000000;stroke-linecap:square;"/>
   </g>
   <g id="line2d_12">
    <path clip-path="url(#pd23c59062b)" d="M 334.744969 92.031093 
L 333.893991 92.521797 
L 333.035684 93.016728 
L 332.170113 93.515848 
" style="fill:none;stroke:#000000;stroke-linecap:square;"/>
   </g>
   <g id="line2d_13">
    <path clip-path="url(#pd23c59062b)" d="M 343.004002 109.720739 
L 342.080636 110.056401 
L 341.149319 110.394954 
L 340.210119 110.736372 
" style="fill:none;stroke:#000000;stroke-linecap:square;"/>
   </g>
   <g id="line2d_14">
    <path clip-path="url(#pd23c59062b)" d="M 348.061982 128.574033 
L 347.094286 128.744453 
L 346.118255 128.91634 
L 345.133964 129.089683 
" style="fill:none;stroke:#000000;stroke-linecap:square;"/>
   </g>
   <g id="line2d_15">
    <path clip-path="url(#pd23c59062b)" d="M 349.765226 148.018125 
L 348.782602 148.018125 
L 347.791514 148.018125 
L 346.792039 148.018125 
" style="fill:none;stroke:#000000;stroke-linecap:square;"/>
   </g>
   <g id="line2d_16">
    <path clip-path="url(#pd23c59062b)" d="M 348.061982 167.462217 
L 347.094286 167.291797 
L 346.118255 167.11991 
L 345.133964 166.946567 
" style="fill:none;stroke:#000000;stroke-linecap:square;"/>
   </g>
   <g id="line2d_17">
    <path clip-path="url(#pd23c59062b)" d="M 343.004002 186.315511 
L 342.080636 185.979849 
L 341.149319 185.641296 
L 340.210119 185.299878 
" style="fill:none;stroke:#000000;stroke-linecap:square;"/>
   </g>
   <g id="line2d_18">
    <path clip-path="url(#pd23c59062b)" d="M 334.744969 204.005157 
L 333.893991 203.514453 
L 333.035684 203.019522 
L 332.170113 202.520402 
" style="fill:none;stroke:#000000;stroke-linecap:square;"/>
   </g>
   <g id="line2d_19">
    <path clip-path="url(#pd23c59062b)" d="M 323.535831 219.993666 
L 322.783097 219.362829 
L 322.02388 218.726558 
L 321.258237 218.084902 
" style="fill:none;stroke:#000000;stroke-linecap:square;"/>
   </g>
   <g id="line2d_20">
    <path clip-path="url(#pd23c59062b)" d="M 309.717171 233.795235 
L 309.085552 233.043432 
L 308.448494 232.285154 
L 307.806043 231.520458 
" style="fill:none;stroke:#000000;stroke-linecap:square;"/>
   </g>
   <g id="line2d_21">
    <path clip-path="url(#pd23c59062b)" d="M 293.708863 244.99051 
L 293.217551 244.140584 
L 292.722007 243.283339 
L 292.222269 242.418838 
" style="fill:none;stroke:#000000;stroke-linecap:square;"/>
   </g>
   <g id="line2d_22">
    <path clip-path="url(#pd23c59062b)" d="M 275.997311 253.239327 
L 275.661233 252.317104 
L 275.322261 251.386938 
L 274.980421 250.448901 
" style="fill:none;stroke:#000000;stroke-linecap:square;"/>
   </g>
   <g id="line2d_23">
    <path clip-path="url(#pd23c59062b)" d="M 257.120671 258.291052 
L 256.95004 257.324553 
L 256.777939 256.349729 
L 256.604382 255.366655 
" style="fill:none;stroke:#000000;stroke-linecap:square;"/>
   </g>
   <g id="line2d_24">
    <path clip-path="url(#pd23c59062b)" d="M 237.6525 259.99219 
L 237.6525 259.01078 
L 237.6525 258.020919 
L 237.6525 257.02268 
" style="fill:none;stroke:#000000;stroke-linecap:square;"/>
   </g>
   <g id="line2d_25">
    <path clip-path="url(#pd23c59062b)" d="M 218.184329 258.291052 
L 218.35496 257.324553 
L 218.527061 256.349729 
L 218.700618 255.366655 
" style="fill:none;stroke:#000000;stroke-linecap:square;"/>
   </g>
   <g id="line2d_26">
    <path clip-path="url(#pd23c59062b)" d="M 199.307689 253.239327 
L 199.643767 252.317104 
L 199.982739 251.386938 
L 200.324579 250.448901 
" style="fill:none;stroke:#000000;stroke-linecap:square;"/>
   </g>
   <g id="line2d_27">
    <path clip-path="url(#pd23c59062b)" d="M 181.596137 244.99051 
L 182.087449 244.140584 
L 182.582993 243.283339 
L 183.082731 242.418838 
" style="fill:none;stroke:#000000;stroke-linecap:square;"/>
   </g>
   <g id="line2d_28">
    <path clip-path="url(#pd23c59062b)" d="M 165.587829 233.795235 
L 166.219448 233.043432 
L 166.856506 232.285154 
L 167.498957 231.520458 
" style="fill:none;stroke:#000000;stroke-linecap:square;"/>
   </g>
   <g id="line2d_29">
    <path clip-path="url(#pd23c59062b)" d="M 151.769169 219.993666 
L 152.521903 219.362829 
L 153.28112 218.726558 
L 154.046763 218.084902 
" style="fill:none;stroke:#000000;stroke-linecap:square;"/>
   </g>
   <g id="line2d_30">
    <path clip-path="url(#pd23c59062b)" d="M 140.560031 204.005157 
L 141.411009 203.514453 
L 142.269316 203.019522 
L 143.134887 202.520402 
" style="fill:none;stroke:#000000;stroke-linecap:square;"/>
   </g>
   <g id="line2d_31">
    <path clip-path="url(#pd23c59062b)" d="M 132.300998 186.315511 
L 133.224364 185.979849 
L 134.155681 185.641296 
L 135.094881 185.299878 
" style="fill:none;stroke:#000000;stroke-linecap:square;"/>
   </g>
   <g id="line2d_32">
    <path clip-path="url(#pd23c59062b)" d="M 127.243018 167.462217 
L 128.210714 167.291797 
L 129.186745 167.11991 
L 130.171036 166.946567 
" style="fill:none;stroke:#000000;stroke-linecap:square;"/>
   </g>
   <g id="line2d_33">
    <path clip-path="url(#pd23c59062b)" d="M 125.539774 148.018125 
L 126.522398 148.018125 
L 127.513486 148.018125 
L 128.512961 148.018125 
" style="fill:none;stroke:#000000;stroke-linecap:square;"/>
   </g>
   <g id="line2d_34">
    <path clip-path="url(#pd23c59062b)" d="M 127.243018 128.574033 
L 128.210714 128.744453 
L 129.186745 128.91634 
L 130.171036 129.089683 
" style="fill:none;stroke:#000000;stroke-linecap:square;"/>
   </g>
   <g id="line2d_35">
    <path clip-path="url(#pd23c59062b)" d="M 132.300998 109.720739 
L 133.224364 110.056401 
L 134.155681 110.394954 
L 135.094881 110.736372 
" style="fill:none;stroke:#000000;stroke-linecap:square;"/>
   </g>
   <g id="line2d_36">
    <path clip-path="url(#pd23c59062b)" d="M 140.560031 92.031093 
L 141.411009 92.521797 
L 142.269316 93.016728 
L 143.134887 93.515848 
" style="fill:none;stroke:#000000;stroke-linecap:square;"/>
   </g>
   <g id="line2d_37">
    <path clip-path="url(#pd23c59062b)" d="M 151.769169 76.042584 
L 152.521903 76.673421 
L 153.28112 77.309692 
L 154.046763 77.951348 
" style="fill:none;stroke:#000000;stroke-linecap:square;"/>
   </g>
   <g id="line2d_38">
    <path clip-path="url(#pd23c59062b)" d="M 165.587829 62.241015 
L 166.219448 62.992818 
L 166.856506 63.751096 
L 167.498957 64.515792 
" style="fill:none;stroke:#000000;stroke-linecap:square;"/>
   </g>
   <g id="line2d_39">
    <path clip-path="url(#pd23c59062b)" d="M 181.596137 51.04574 
L 182.087449 51.895666 
L 182.582993 52.752911 
L 183.082731 53.617412 
" style="fill:none;stroke:#000000;stroke-linecap:square;"/>
   </g>
   <g id="line2d_40">
    <path clip-path="url(#pd23c59062b)" d="M 199.307689 42.796923 
L 199.643767 43.719146 
L 199.982739 44.649312 
L 200.324579 45.587349 
" style="fill:none;stroke:#000000;stroke-linecap:square;"/>
   </g>
   <g id="line2d_41">
    <path clip-path="url(#pd23c59062b)" d="M 218.184329 37.745198 
L 218.35496 38.711697 
L 218.527061 39.686521 
L 218.700618 40.669595 
" style="fill:none;stroke:#000000;stroke-linecap:square;"/>
   </g>
   <g id="line2d_42">
    <path clip-path="url(#pd23c59062b)" d="M 253.523266 109.410906 
L 252.656754 107.691532 
L 251.677689 106.027834 
L 250.589181 104.426838 
L 249.394828 102.895415 
L 248.098717 101.440249 
L 246.705421 100.0678 
L 245.219985 98.784268 
L 243.647925 97.595556 
L 241.995203 96.507236 
L 240.268217 95.52451 
L 238.473778 94.652177 
L 236.619084 93.894596 
L 234.711689 93.255655 
L 232.759477 92.738738 
L 230.77062 92.346699 
L 228.753544 92.081831 
L 226.716882 91.945847 
L 224.669434 91.939859 
L 222.620114 92.064364 
L 220.577906 92.31923 
L 218.551808 92.703691 
L 216.550785 93.216343 
L 214.58371 93.855151 
L 212.659317 94.617452 
L 210.786146 95.499969 
L 208.972494 96.498832 
L 207.226361 97.609595 
L 205.555411 98.827266 
L 203.966922 100.146337 
L 202.467745 101.560819 
L 201.064272 103.064279 
L 199.762396 104.649884 
L 198.56749 106.31044 
L 197.484375 108.038442 
L 196.517304 109.826116 
L 195.669947 111.665471 
L 194.945379 113.548345 
L 194.346075 115.46645 
L 193.873908 117.411425 
L 193.530152 119.374876 
L 193.315487 121.348424 
L 193.230011 123.323744 
L 193.273251 125.292611 
L 193.444183 127.246932 
L 193.741246 129.178787 
L 194.162369 131.080458 
L 194.70499 132.944459 
L 195.366081 134.763566 
L 196.142175 136.530839 
L 197.029394 138.239646 
L 198.023474 139.88368 
L 199.119795 141.456975 
L 200.313406 142.953922 
L 201.599058 144.36928 
L 202.971225 145.698184 
L 204.424136 146.936153 
L 205.9518 148.079098 
L 207.548032 149.12332 
L 209.206478 150.065519 
L 210.92064 150.902791 
L 212.683898 151.632627 
L 214.489535 152.252916 
L 216.330756 152.761938 
L 218.200712 153.158361 
L 220.092518 153.441242 
L 221.999272 153.610018 
L 223.914077 153.664503 
L 225.830054 153.604881 
L 227.740362 153.431704 
L 229.638217 153.145881 
L 231.516903 152.748677 
L 233.36979 152.241703 
L 235.190351 151.626909 
L 236.972177 150.906583 
L 238.708986 150.083336 
L 240.394645 149.160102 
L 242.023181 148.140126 
L 243.588793 147.02696 
L 245.085872 145.824452 
L 246.509007 144.536742 
L 247.853008 143.16825 
L 249.112915 141.723672 
L 250.284011 140.207964 
L 251.361843 138.626341 
L 252.342231 136.984261 
L 253.221281 135.287416 
L 253.995408 133.541721 
L 254.661344 131.753301 
L 255.216152 129.92848 
L 255.657249 128.073765 
L 255.982411 126.195829 
L 256.189793 124.3015 
L 256.277946 122.397739 
L 256.245823 120.491622 
L 256.092799 118.590322 
L 255.818683 116.701085 
L 255.423728 114.831206 
L 254.908644 112.988007 
L 254.274607 111.178809 
L 253.523266 109.410906 
" style="fill:none;stroke:#bf00bf;stroke-linecap:square;"/>
   </g>
   <g id="line2d_43">
    <path clip-path="url(#pd23c59062b)" d="M 186.35288 154.576849 
L 185.000746 156.403922 
L 183.768525 158.324575 
L 182.662504 160.332199 
L 181.688595 162.419668 
L 180.852292 164.57935 
L 180.158625 166.803121 
L 179.61211 169.082386 
L 179.216705 171.4081 
L 178.975763 173.770804 
L 178.891988 176.160654 
L 178.967388 178.567469 
L 179.203241 180.980776 
L 179.600054 183.389863 
L 180.157533 185.78384 
L 180.874557 188.151701 
L 181.749157 190.482396 
L 182.778504 192.764903 
L 183.958905 194.988304 
L 185.285803 197.141861 
L 186.753793 199.215101 
L 188.356639 201.197893 
L 190.08731 203.080525 
L 191.938012 204.853781 
L 193.900241 206.509015 
L 195.964838 208.038218 
L 198.122052 209.434075 
L 200.361608 210.690026 
L 202.672787 211.800307 
L 205.044502 212.759991 
L 207.46538 213.565016 
L 209.923852 214.212204 
L 212.408231 214.69927 
L 214.906801 215.024825 
L 217.4079 215.188369 
L 219.899992 215.190269 
L 222.371751 215.031739 
L 224.812123 214.714808 
L 227.210395 214.242281 
L 229.556251 213.617697 
L 231.839822 212.845283 
L 234.051734 211.929902 
L 236.183143 210.876998 
L 238.225763 209.692549 
L 240.171898 208.383003 
L 242.014452 206.955232 
L 243.746946 205.416472 
L 245.363523 203.774272 
L 246.858949 202.036445 
L 248.228612 200.211018 
L 249.468516 198.306187 
L 250.575269 196.330274 
L 251.54607 194.291685 
L 252.378699 192.198877 
L 253.071495 190.06032 
L 253.62334 187.884466 
L 254.03364 185.679723 
L 254.302303 183.454427 
L 254.429724 181.216822 
L 254.416757 178.975036 
L 254.264702 176.737062 
L 253.97528 174.510745 
L 253.550616 172.303767 
L 252.993221 170.123631 
L 252.305968 167.977652 
L 251.492084 165.872944 
L 250.555123 163.816417 
L 249.498958 161.81476 
L 248.327761 159.874442 
L 247.045992 158.001697 
L 245.658382 156.202524 
L 244.169923 154.48268 
L 242.585854 152.847668 
L 240.91165 151.302738 
L 239.153012 149.85288 
L 237.315854 148.502814 
L 235.406295 147.256987 
L 233.430649 146.119566 
L 231.395416 145.094431 
L 229.30727 144.185168 
L 227.173051 143.39506 
L 224.999759 142.727079 
L 222.794537 142.183881 
L 220.56467 141.767791 
L 218.317567 141.480795 
L 216.060754 141.324534 
L 213.801863 141.300284 
L 211.548617 141.408955 
L 209.308818 141.651069 
L 207.090334 142.026756 
L 204.901081 142.535736 
L 202.749005 143.177305 
L 200.642067 143.950327 
L 198.58822 144.853217 
L 196.595385 145.883929 
L 194.671431 147.039944 
L 192.824143 148.318258 
L 191.061199 149.715369 
L 189.390134 151.227271 
L 187.81831 152.849444 
L 186.35288 154.576849 
" style="fill:none;stroke:#bf00bf;stroke-linecap:square;"/>
   </g>
   <g id="line2d_44">
    <path clip-path="url(#pd23c59062b)" d="M 239.095538 187.85341 
L 239.163797 188.183117 
L 239.254101 188.507866 
L 239.366131 188.826361 
L 239.499478 189.13733 
L 239.65365 189.439525 
L 239.828065 189.731727 
L 240.022061 190.012755 
L 240.234896 190.281469 
L 240.465747 190.536776 
L 240.713715 190.777632 
L 240.977832 191.00305 
L 241.257058 191.212103 
L 241.55029 191.403927 
L 241.856366 191.57773 
L 242.174066 191.732787 
L 242.502121 191.868454 
L 242.839216 191.984162 
L 243.183997 192.079425 
L 243.535076 192.15384 
L 243.891035 192.207091 
L 244.250436 192.238949 
L 244.611825 192.249275 
L 244.973737 192.238017 
L 245.334705 192.205215 
L 245.693265 192.150997 
L 246.047964 192.075584 
L 246.397362 191.979281 
L 246.740045 191.862483 
L 247.074626 191.72567 
L 247.399752 191.569403 
L 247.714111 191.394325 
L 248.016437 191.201157 
L 248.305517 190.990694 
L 248.580192 190.763801 
L 248.839367 190.521408 
L 249.082011 190.264511 
L 249.307165 189.994161 
L 249.513942 189.711463 
L 249.701534 189.417569 
L 249.869212 189.113675 
L 250.016333 188.801014 
L 250.142336 188.480851 
L 250.246749 188.154479 
L 250.329189 187.82321 
L 250.389361 187.488373 
L 250.427062 187.151307 
L 250.44218 186.813355 
L 250.434692 186.475859 
L 250.404666 186.140156 
L 250.352258 185.807568 
L 250.277713 185.479403 
L 250.181363 185.156947 
L 250.063623 184.841456 
L 249.924991 184.534158 
L 249.766043 184.236243 
L 249.587436 183.948861 
L 249.389898 183.673118 
L 249.174227 183.410069 
L 248.941292 183.160721 
L 248.692022 182.926021 
L 248.427409 182.70686 
L 248.148498 182.504068 
L 247.856387 182.318407 
L 247.552224 182.150574 
L 247.237195 182.001199 
L 246.912528 181.870837 
L 246.579485 181.759973 
L 246.239356 181.669017 
L 245.893457 181.598303 
L 245.543121 181.548089 
L 245.1897 181.518556 
L 244.834553 181.509808 
L 244.479047 181.52187 
L 244.124547 181.55469 
L 243.772415 181.608139 
L 243.424003 181.68201 
L 243.080652 181.77602 
L 242.74368 181.889812 
L 242.414385 182.022953 
L 242.094035 182.17494 
L 241.783869 182.345196 
L 241.485084 182.533078 
L 241.198839 182.737874 
L 240.926248 182.958808 
L 240.668373 183.195043 
L 240.426225 183.445682 
L 240.200755 183.709772 
L 239.992854 183.986308 
L 239.803349 184.274232 
L 239.632998 184.572445 
L 239.482488 184.879802 
L 239.352432 185.195122 
L 239.243367 185.517189 
L 239.155748 185.844758 
L 239.089953 186.176559 
L 239.046272 186.511301 
L 239.024913 186.847676 
L 239.025997 187.184368 
L 239.049557 187.520054 
L 239.095538 187.85341 
" style="fill:none;stroke:#bf00bf;stroke-linecap:square;"/>
   </g>
   <g id="text_1">
    <!-- Mid-temperature directions from Teel basalt flows in geographic coordinates -->
    <defs>
     <path id="BitstreamVeraSans-Roman-20"/>
     <path d="M 9.421875 54.6875 
L 18.40625 54.6875 
L 18.40625 0 
L 9.421875 0 
z
M 9.421875 75.984375 
L 18.40625 75.984375 
L 18.40625 64.59375 
L 9.421875 64.59375 
z
" id="BitstreamVeraSans-Roman-69"/>
     <path d="M 54.890625 33.015625 
L 54.890625 0 
L 45.90625 0 
L 45.90625 32.71875 
Q 45.90625 40.484375 42.875 44.328125 
Q 39.84375 48.1875 33.796875 48.1875 
Q 26.515625 48.1875 22.3125 43.546875 
Q 18.109375 38.921875 18.109375 30.90625 
L 18.109375 0 
L 9.078125 0 
L 9.078125 75.984375 
L 18.109375 75.984375 
L 18.109375 46.1875 
Q 21.34375 51.125 25.703125 53.5625 
Q 30.078125 56 35.796875 56 
Q 45.21875 56 50.046875 50.171875 
Q 54.890625 44.34375 54.890625 33.015625 
" id="BitstreamVeraSans-Roman-68"/>
     <path d="M 56.203125 29.59375 
L 56.203125 25.203125 
L 14.890625 25.203125 
Q 15.484375 15.921875 20.484375 11.0625 
Q 25.484375 6.203125 34.421875 6.203125 
Q 39.59375 6.203125 44.453125 7.46875 
Q 49.3125 8.734375 54.109375 11.28125 
L 54.109375 2.78125 
Q 49.265625 0.734375 44.1875 -0.34375 
Q 39.109375 -1.421875 33.890625 -1.421875 
Q 20.796875 -1.421875 13.15625 6.1875 
Q 5.515625 13.8125 5.515625 26.8125 
Q 5.515625 40.234375 12.765625 48.109375 
Q 20.015625 56 32.328125 56 
Q 43.359375 56 49.78125 48.890625 
Q 56.203125 41.796875 56.203125 29.59375 
M 47.21875 32.234375 
Q 47.125 39.59375 43.09375 43.984375 
Q 39.0625 48.390625 32.421875 48.390625 
Q 24.90625 48.390625 20.390625 44.140625 
Q 15.875 39.890625 15.1875 32.171875 
z
" id="BitstreamVeraSans-Roman-65"/>
     <path d="M 45.40625 46.390625 
L 45.40625 75.984375 
L 54.390625 75.984375 
L 54.390625 0 
L 45.40625 0 
L 45.40625 8.203125 
Q 42.578125 3.328125 38.25 0.953125 
Q 33.9375 -1.421875 27.875 -1.421875 
Q 17.96875 -1.421875 11.734375 6.484375 
Q 5.515625 14.40625 5.515625 27.296875 
Q 5.515625 40.1875 11.734375 48.09375 
Q 17.96875 56 27.875 56 
Q 33.9375 56 38.25 53.625 
Q 42.578125 51.265625 45.40625 46.390625 
M 14.796875 27.296875 
Q 14.796875 17.390625 18.875 11.75 
Q 22.953125 6.109375 30.078125 6.109375 
Q 37.203125 6.109375 41.296875 11.75 
Q 45.40625 17.390625 45.40625 27.296875 
Q 45.40625 37.203125 41.296875 42.84375 
Q 37.203125 48.484375 30.078125 48.484375 
Q 22.953125 48.484375 18.875 42.84375 
Q 14.796875 37.203125 14.796875 27.296875 
" id="BitstreamVeraSans-Roman-64"/>
     <path d="M 45.40625 27.984375 
Q 45.40625 37.75 41.375 43.109375 
Q 37.359375 48.484375 30.078125 48.484375 
Q 22.859375 48.484375 18.828125 43.109375 
Q 14.796875 37.75 14.796875 27.984375 
Q 14.796875 18.265625 18.828125 12.890625 
Q 22.859375 7.515625 30.078125 7.515625 
Q 37.359375 7.515625 41.375 12.890625 
Q 45.40625 18.265625 45.40625 27.984375 
M 54.390625 6.78125 
Q 54.390625 -7.171875 48.1875 -13.984375 
Q 42 -20.796875 29.203125 -20.796875 
Q 24.46875 -20.796875 20.265625 -20.09375 
Q 16.0625 -19.390625 12.109375 -17.921875 
L 12.109375 -9.1875 
Q 16.0625 -11.328125 19.921875 -12.34375 
Q 23.78125 -13.375 27.78125 -13.375 
Q 36.625 -13.375 41.015625 -8.765625 
Q 45.40625 -4.15625 45.40625 5.171875 
L 45.40625 9.625 
Q 42.625 4.78125 38.28125 2.390625 
Q 33.9375 0 27.875 0 
Q 17.828125 0 11.671875 7.65625 
Q 5.515625 15.328125 5.515625 27.984375 
Q 5.515625 40.671875 11.671875 48.328125 
Q 17.828125 56 27.875 56 
Q 33.9375 56 38.28125 53.609375 
Q 42.625 51.21875 45.40625 46.390625 
L 45.40625 54.6875 
L 54.390625 54.6875 
z
" id="BitstreamVeraSans-Roman-67"/>
     <path d="M 37.109375 75.984375 
L 37.109375 68.5 
L 28.515625 68.5 
Q 23.6875 68.5 21.796875 66.546875 
Q 19.921875 64.59375 19.921875 59.515625 
L 19.921875 54.6875 
L 34.71875 54.6875 
L 34.71875 47.703125 
L 19.921875 47.703125 
L 19.921875 0 
L 10.890625 0 
L 10.890625 47.703125 
L 2.296875 47.703125 
L 2.296875 54.6875 
L 10.890625 54.6875 
L 10.890625 58.5 
Q 10.890625 67.625 15.140625 71.796875 
Q 19.390625 75.984375 28.609375 75.984375 
z
" id="BitstreamVeraSans-Roman-66"/>
     <path d="M 34.28125 27.484375 
Q 23.390625 27.484375 19.1875 25 
Q 14.984375 22.515625 14.984375 16.5 
Q 14.984375 11.71875 18.140625 8.90625 
Q 21.296875 6.109375 26.703125 6.109375 
Q 34.1875 6.109375 38.703125 11.40625 
Q 43.21875 16.703125 43.21875 25.484375 
L 43.21875 27.484375 
z
M 52.203125 31.203125 
L 52.203125 0 
L 43.21875 0 
L 43.21875 8.296875 
Q 40.140625 3.328125 35.546875 0.953125 
Q 30.953125 -1.421875 24.3125 -1.421875 
Q 15.921875 -1.421875 10.953125 3.296875 
Q 6 8.015625 6 15.921875 
Q 6 25.140625 12.171875 29.828125 
Q 18.359375 34.515625 30.609375 34.515625 
L 43.21875 34.515625 
L 43.21875 35.40625 
Q 43.21875 41.609375 39.140625 45 
Q 35.0625 48.390625 27.6875 48.390625 
Q 23 48.390625 18.546875 47.265625 
Q 14.109375 46.140625 10.015625 43.890625 
L 10.015625 52.203125 
Q 14.9375 54.109375 19.578125 55.046875 
Q 24.21875 56 28.609375 56 
Q 40.484375 56 46.34375 49.84375 
Q 52.203125 43.703125 52.203125 31.203125 
" id="BitstreamVeraSans-Roman-61"/>
     <path d="M 48.78125 52.59375 
L 48.78125 44.1875 
Q 44.96875 46.296875 41.140625 47.34375 
Q 37.3125 48.390625 33.40625 48.390625 
Q 24.65625 48.390625 19.8125 42.84375 
Q 14.984375 37.3125 14.984375 27.296875 
Q 14.984375 17.28125 19.8125 11.734375 
Q 24.65625 6.203125 33.40625 6.203125 
Q 37.3125 6.203125 41.140625 7.25 
Q 44.96875 8.296875 48.78125 10.40625 
L 48.78125 2.09375 
Q 45.015625 0.34375 40.984375 -0.53125 
Q 36.96875 -1.421875 32.421875 -1.421875 
Q 20.0625 -1.421875 12.78125 6.34375 
Q 5.515625 14.109375 5.515625 27.296875 
Q 5.515625 40.671875 12.859375 48.328125 
Q 20.21875 56 33.015625 56 
Q 37.15625 56 41.109375 55.140625 
Q 45.0625 54.296875 48.78125 52.59375 
" id="BitstreamVeraSans-Roman-63"/>
     <path d="M 48.6875 27.296875 
Q 48.6875 37.203125 44.609375 42.84375 
Q 40.53125 48.484375 33.40625 48.484375 
Q 26.265625 48.484375 22.1875 42.84375 
Q 18.109375 37.203125 18.109375 27.296875 
Q 18.109375 17.390625 22.1875 11.75 
Q 26.265625 6.109375 33.40625 6.109375 
Q 40.53125 6.109375 44.609375 11.75 
Q 48.6875 17.390625 48.6875 27.296875 
M 18.109375 46.390625 
Q 20.953125 51.265625 25.265625 53.625 
Q 29.59375 56 35.59375 56 
Q 45.5625 56 51.78125 48.09375 
Q 58.015625 40.1875 58.015625 27.296875 
Q 58.015625 14.40625 51.78125 6.484375 
Q 45.5625 -1.421875 35.59375 -1.421875 
Q 29.59375 -1.421875 25.265625 0.953125 
Q 20.953125 3.328125 18.109375 8.203125 
L 18.109375 0 
L 9.078125 0 
L 9.078125 75.984375 
L 18.109375 75.984375 
z
" id="BitstreamVeraSans-Roman-62"/>
     <path d="M 9.8125 72.90625 
L 24.515625 72.90625 
L 43.109375 23.296875 
L 61.8125 72.90625 
L 76.515625 72.90625 
L 76.515625 0 
L 66.890625 0 
L 66.890625 64.015625 
L 48.09375 14.015625 
L 38.1875 14.015625 
L 19.390625 64.015625 
L 19.390625 0 
L 9.8125 0 
z
" id="BitstreamVeraSans-Roman-4d"/>
     <path d="M 54.890625 33.015625 
L 54.890625 0 
L 45.90625 0 
L 45.90625 32.71875 
Q 45.90625 40.484375 42.875 44.328125 
Q 39.84375 48.1875 33.796875 48.1875 
Q 26.515625 48.1875 22.3125 43.546875 
Q 18.109375 38.921875 18.109375 30.90625 
L 18.109375 0 
L 9.078125 0 
L 9.078125 54.6875 
L 18.109375 54.6875 
L 18.109375 46.1875 
Q 21.34375 51.125 25.703125 53.5625 
Q 30.078125 56 35.796875 56 
Q 45.21875 56 50.046875 50.171875 
Q 54.890625 44.34375 54.890625 33.015625 
" id="BitstreamVeraSans-Roman-6e"/>
     <path d="M 52 44.1875 
Q 55.375 50.25 60.0625 53.125 
Q 64.75 56 71.09375 56 
Q 79.640625 56 84.28125 50.015625 
Q 88.921875 44.046875 88.921875 33.015625 
L 88.921875 0 
L 79.890625 0 
L 79.890625 32.71875 
Q 79.890625 40.578125 77.09375 44.375 
Q 74.3125 48.1875 68.609375 48.1875 
Q 61.625 48.1875 57.5625 43.546875 
Q 53.515625 38.921875 53.515625 30.90625 
L 53.515625 0 
L 44.484375 0 
L 44.484375 32.71875 
Q 44.484375 40.625 41.703125 44.40625 
Q 38.921875 48.1875 33.109375 48.1875 
Q 26.21875 48.1875 22.15625 43.53125 
Q 18.109375 38.875 18.109375 30.90625 
L 18.109375 0 
L 9.078125 0 
L 9.078125 54.6875 
L 18.109375 54.6875 
L 18.109375 46.1875 
Q 21.1875 51.21875 25.484375 53.609375 
Q 29.78125 56 35.6875 56 
Q 41.65625 56 45.828125 52.96875 
Q 50 49.953125 52 44.1875 
" id="BitstreamVeraSans-Roman-6d"/>
     <path d="M 30.609375 48.390625 
Q 23.390625 48.390625 19.1875 42.75 
Q 14.984375 37.109375 14.984375 27.296875 
Q 14.984375 17.484375 19.15625 11.84375 
Q 23.34375 6.203125 30.609375 6.203125 
Q 37.796875 6.203125 41.984375 11.859375 
Q 46.1875 17.53125 46.1875 27.296875 
Q 46.1875 37.015625 41.984375 42.703125 
Q 37.796875 48.390625 30.609375 48.390625 
M 30.609375 56 
Q 42.328125 56 49.015625 48.375 
Q 55.71875 40.765625 55.71875 27.296875 
Q 55.71875 13.875 49.015625 6.21875 
Q 42.328125 -1.421875 30.609375 -1.421875 
Q 18.84375 -1.421875 12.171875 6.21875 
Q 5.515625 13.875 5.515625 27.296875 
Q 5.515625 40.765625 12.171875 48.375 
Q 18.84375 56 30.609375 56 
" id="BitstreamVeraSans-Roman-6f"/>
     <path d="M 9.421875 75.984375 
L 18.40625 75.984375 
L 18.40625 0 
L 9.421875 0 
z
" id="BitstreamVeraSans-Roman-6c"/>
     <path d="M -0.296875 72.90625 
L 61.375 72.90625 
L 61.375 64.59375 
L 35.5 64.59375 
L 35.5 0 
L 25.59375 0 
L 25.59375 64.59375 
L -0.296875 64.59375 
z
" id="BitstreamVeraSans-Roman-54"/>
     <path d="M 4.890625 31.390625 
L 31.203125 31.390625 
L 31.203125 23.390625 
L 4.890625 23.390625 
z
" id="BitstreamVeraSans-Roman-2d"/>
     <path d="M 4.203125 54.6875 
L 13.1875 54.6875 
L 24.421875 12.015625 
L 35.59375 54.6875 
L 46.1875 54.6875 
L 57.421875 12.015625 
L 68.609375 54.6875 
L 77.59375 54.6875 
L 63.28125 0 
L 52.6875 0 
L 40.921875 44.828125 
L 29.109375 0 
L 18.5 0 
z
" id="BitstreamVeraSans-Roman-77"/>
     <path d="M 18.3125 70.21875 
L 18.3125 54.6875 
L 36.8125 54.6875 
L 36.8125 47.703125 
L 18.3125 47.703125 
L 18.3125 18.015625 
Q 18.3125 11.328125 20.140625 9.421875 
Q 21.96875 7.515625 27.59375 7.515625 
L 36.8125 7.515625 
L 36.8125 0 
L 27.59375 0 
Q 17.1875 0 13.234375 3.875 
Q 9.28125 7.765625 9.28125 18.015625 
L 9.28125 47.703125 
L 2.6875 47.703125 
L 2.6875 54.6875 
L 9.28125 54.6875 
L 9.28125 70.21875 
z
" id="BitstreamVeraSans-Roman-74"/>
     <path d="M 8.5 21.578125 
L 8.5 54.6875 
L 17.484375 54.6875 
L 17.484375 21.921875 
Q 17.484375 14.15625 20.5 10.265625 
Q 23.53125 6.390625 29.59375 6.390625 
Q 36.859375 6.390625 41.078125 11.03125 
Q 45.3125 15.671875 45.3125 23.6875 
L 45.3125 54.6875 
L 54.296875 54.6875 
L 54.296875 0 
L 45.3125 0 
L 45.3125 8.40625 
Q 42.046875 3.421875 37.71875 1 
Q 33.40625 -1.421875 27.6875 -1.421875 
Q 18.265625 -1.421875 13.375 4.4375 
Q 8.5 10.296875 8.5 21.578125 
" id="BitstreamVeraSans-Roman-75"/>
     <path d="M 41.109375 46.296875 
Q 39.59375 47.171875 37.8125 47.578125 
Q 36.03125 48 33.890625 48 
Q 26.265625 48 22.1875 43.046875 
Q 18.109375 38.09375 18.109375 28.8125 
L 18.109375 0 
L 9.078125 0 
L 9.078125 54.6875 
L 18.109375 54.6875 
L 18.109375 46.1875 
Q 20.953125 51.171875 25.484375 53.578125 
Q 30.03125 56 36.53125 56 
Q 37.453125 56 38.578125 55.875 
Q 39.703125 55.765625 41.0625 55.515625 
z
" id="BitstreamVeraSans-Roman-72"/>
     <path d="M 44.28125 53.078125 
L 44.28125 44.578125 
Q 40.484375 46.53125 36.375 47.5 
Q 32.28125 48.484375 27.875 48.484375 
Q 21.1875 48.484375 17.84375 46.4375 
Q 14.5 44.390625 14.5 40.28125 
Q 14.5 37.15625 16.890625 35.375 
Q 19.28125 33.59375 26.515625 31.984375 
L 29.59375 31.296875 
Q 39.15625 29.25 43.1875 25.515625 
Q 47.21875 21.78125 47.21875 15.09375 
Q 47.21875 7.46875 41.1875 3.015625 
Q 35.15625 -1.421875 24.609375 -1.421875 
Q 20.21875 -1.421875 15.453125 -0.5625 
Q 10.6875 0.296875 5.421875 2 
L 5.421875 11.28125 
Q 10.40625 8.6875 15.234375 7.390625 
Q 20.0625 6.109375 24.8125 6.109375 
Q 31.15625 6.109375 34.5625 8.28125 
Q 37.984375 10.453125 37.984375 14.40625 
Q 37.984375 18.0625 35.515625 20.015625 
Q 33.0625 21.96875 24.703125 23.78125 
L 21.578125 24.515625 
Q 13.234375 26.265625 9.515625 29.90625 
Q 5.8125 33.546875 5.8125 39.890625 
Q 5.8125 47.609375 11.28125 51.796875 
Q 16.75 56 26.8125 56 
Q 31.78125 56 36.171875 55.265625 
Q 40.578125 54.546875 44.28125 53.078125 
" id="BitstreamVeraSans-Roman-73"/>
     <path d="M 18.109375 8.203125 
L 18.109375 -20.796875 
L 9.078125 -20.796875 
L 9.078125 54.6875 
L 18.109375 54.6875 
L 18.109375 46.390625 
Q 20.953125 51.265625 25.265625 53.625 
Q 29.59375 56 35.59375 56 
Q 45.5625 56 51.78125 48.09375 
Q 58.015625 40.1875 58.015625 27.296875 
Q 58.015625 14.40625 51.78125 6.484375 
Q 45.5625 -1.421875 35.59375 -1.421875 
Q 29.59375 -1.421875 25.265625 0.953125 
Q 20.953125 3.328125 18.109375 8.203125 
M 48.6875 27.296875 
Q 48.6875 37.203125 44.609375 42.84375 
Q 40.53125 48.484375 33.40625 48.484375 
Q 26.265625 48.484375 22.1875 42.84375 
Q 18.109375 37.203125 18.109375 27.296875 
Q 18.109375 17.390625 22.1875 11.75 
Q 26.265625 6.109375 33.40625 6.109375 
Q 40.53125 6.109375 44.609375 11.75 
Q 48.6875 17.390625 48.6875 27.296875 
" id="BitstreamVeraSans-Roman-70"/>
    </defs>
    <g transform="translate(7.2 16.318125)scale(0.12 -0.12)">
     <use xlink:href="#BitstreamVeraSans-Roman-4d"/>
     <use x="86.279296875" xlink:href="#BitstreamVeraSans-Roman-69"/>
     <use x="114.0625" xlink:href="#BitstreamVeraSans-Roman-64"/>
     <use x="177.5390625" xlink:href="#BitstreamVeraSans-Roman-2d"/>
     <use x="213.623046875" xlink:href="#BitstreamVeraSans-Roman-74"/>
     <use x="252.83203125" xlink:href="#BitstreamVeraSans-Roman-65"/>
     <use x="314.35546875" xlink:href="#BitstreamVeraSans-Roman-6d"/>
     <use x="411.767578125" xlink:href="#BitstreamVeraSans-Roman-70"/>
     <use x="475.244140625" xlink:href="#BitstreamVeraSans-Roman-65"/>
     <use x="536.767578125" xlink:href="#BitstreamVeraSans-Roman-72"/>
     <use x="577.880859375" xlink:href="#BitstreamVeraSans-Roman-61"/>
     <use x="639.16015625" xlink:href="#BitstreamVeraSans-Roman-74"/>
     <use x="678.369140625" xlink:href="#BitstreamVeraSans-Roman-75"/>
     <use x="741.748046875" xlink:href="#BitstreamVeraSans-Roman-72"/>
     <use x="782.830078125" xlink:href="#BitstreamVeraSans-Roman-65"/>
     <use x="844.353515625" xlink:href="#BitstreamVeraSans-Roman-20"/>
     <use x="876.140625" xlink:href="#BitstreamVeraSans-Roman-64"/>
     <use x="939.6171875" xlink:href="#BitstreamVeraSans-Roman-69"/>
     <use x="967.400390625" xlink:href="#BitstreamVeraSans-Roman-72"/>
     <use x="1008.48242188" xlink:href="#BitstreamVeraSans-Roman-65"/>
     <use x="1070.00585938" xlink:href="#BitstreamVeraSans-Roman-63"/>
     <use x="1124.98632812" xlink:href="#BitstreamVeraSans-Roman-74"/>
     <use x="1164.1953125" xlink:href="#BitstreamVeraSans-Roman-69"/>
     <use x="1191.97851562" xlink:href="#BitstreamVeraSans-Roman-6f"/>
     <use x="1253.16015625" xlink:href="#BitstreamVeraSans-Roman-6e"/>
     <use x="1316.5390625" xlink:href="#BitstreamVeraSans-Roman-73"/>
     <use x="1368.63867188" xlink:href="#BitstreamVeraSans-Roman-20"/>
     <use x="1400.42578125" xlink:href="#BitstreamVeraSans-Roman-66"/>
     <use x="1435.63085938" xlink:href="#BitstreamVeraSans-Roman-72"/>
     <use x="1476.71289062" xlink:href="#BitstreamVeraSans-Roman-6f"/>
     <use x="1537.89453125" xlink:href="#BitstreamVeraSans-Roman-6d"/>
     <use x="1635.30664062" xlink:href="#BitstreamVeraSans-Roman-20"/>
     <use x="1667.09375" xlink:href="#BitstreamVeraSans-Roman-54"/>
     <use x="1727.91210938" xlink:href="#BitstreamVeraSans-Roman-65"/>
     <use x="1789.43554688" xlink:href="#BitstreamVeraSans-Roman-65"/>
     <use x="1850.95898438" xlink:href="#BitstreamVeraSans-Roman-6c"/>
     <use x="1878.7421875" xlink:href="#BitstreamVeraSans-Roman-20"/>
     <use x="1910.52929688" xlink:href="#BitstreamVeraSans-Roman-62"/>
     <use x="1974.00585938" xlink:href="#BitstreamVeraSans-Roman-61"/>
     <use x="2035.28515625" xlink:href="#BitstreamVeraSans-Roman-73"/>
     <use x="2087.38476562" xlink:href="#BitstreamVeraSans-Roman-61"/>
     <use x="2148.6640625" xlink:href="#BitstreamVeraSans-Roman-6c"/>
     <use x="2176.44726562" xlink:href="#BitstreamVeraSans-Roman-74"/>
     <use x="2215.65625" xlink:href="#BitstreamVeraSans-Roman-20"/>
     <use x="2247.44335938" xlink:href="#BitstreamVeraSans-Roman-66"/>
     <use x="2282.6484375" xlink:href="#BitstreamVeraSans-Roman-6c"/>
     <use x="2310.43164062" xlink:href="#BitstreamVeraSans-Roman-6f"/>
     <use x="2371.61328125" xlink:href="#BitstreamVeraSans-Roman-77"/>
     <use x="2453.40039062" xlink:href="#BitstreamVeraSans-Roman-73"/>
     <use x="2505.5" xlink:href="#BitstreamVeraSans-Roman-20"/>
     <use x="2537.28710938" xlink:href="#BitstreamVeraSans-Roman-69"/>
     <use x="2565.0703125" xlink:href="#BitstreamVeraSans-Roman-6e"/>
     <use x="2628.44921875" xlink:href="#BitstreamVeraSans-Roman-20"/>
     <use x="2660.23632812" xlink:href="#BitstreamVeraSans-Roman-67"/>
     <use x="2723.71289062" xlink:href="#BitstreamVeraSans-Roman-65"/>
     <use x="2785.23632812" xlink:href="#BitstreamVeraSans-Roman-6f"/>
     <use x="2846.41796875" xlink:href="#BitstreamVeraSans-Roman-67"/>
     <use x="2909.89453125" xlink:href="#BitstreamVeraSans-Roman-72"/>
     <use x="2951.0078125" xlink:href="#BitstreamVeraSans-Roman-61"/>
     <use x="3012.28710938" xlink:href="#BitstreamVeraSans-Roman-70"/>
     <use x="3075.76367188" xlink:href="#BitstreamVeraSans-Roman-68"/>
     <use x="3139.14257812" xlink:href="#BitstreamVeraSans-Roman-69"/>
     <use x="3166.92578125" xlink:href="#BitstreamVeraSans-Roman-63"/>
     <use x="3221.90625" xlink:href="#BitstreamVeraSans-Roman-20"/>
     <use x="3253.69335938" xlink:href="#BitstreamVeraSans-Roman-63"/>
     <use x="3308.67382812" xlink:href="#BitstreamVeraSans-Roman-6f"/>
     <use x="3369.85546875" xlink:href="#BitstreamVeraSans-Roman-6f"/>
     <use x="3431.03710938" xlink:href="#BitstreamVeraSans-Roman-72"/>
     <use x="3472.13476562" xlink:href="#BitstreamVeraSans-Roman-64"/>
     <use x="3535.61132812" xlink:href="#BitstreamVeraSans-Roman-69"/>
     <use x="3563.39453125" xlink:href="#BitstreamVeraSans-Roman-6e"/>
     <use x="3626.7734375" xlink:href="#BitstreamVeraSans-Roman-61"/>
     <use x="3688.05273438" xlink:href="#BitstreamVeraSans-Roman-74"/>
     <use x="3727.26171875" xlink:href="#BitstreamVeraSans-Roman-65"/>
     <use x="3788.78515625" xlink:href="#BitstreamVeraSans-Roman-73"/>
    </g>
   </g>
  </g>
 </g>
 <defs>
  <clipPath id="pd23c59062b">
   <rect height="253.4" width="235.436725077" x="119.934137462" y="21.318125"/>
  </clipPath>
 </defs>
</svg>
