<?xml version="1.0" encoding="utf-8" standalone="no"?>
<!DOCTYPE svg PUBLIC "-//W3C//DTD SVG 1.1//EN"
  "http://www.w3.org/Graphics/SVG/1.1/DTD/svg11.dtd">
<!-- Created with matplotlib (http://matplotlib.org/) -->
<svg height="311pt" version="1.1" viewBox="0 0 280 311" width="280pt" xmlns="http://www.w3.org/2000/svg" xmlns:xlink="http://www.w3.org/1999/xlink">
 <defs>
  <style type="text/css">
*{stroke-linecap:butt;stroke-linejoin:round;stroke-miterlimit:100000;}
  </style>
 </defs>
 <g id="figure_1">
  <g id="patch_1">
   <path d="M 0 311.465625 
L 280.465625 311.465625 
L 280.465625 0 
L 0 0 
L 0 311.465625 
z
" style="fill:none;"/>
  </g>
  <g id="axes_1">
   <g id="PathCollection_1">
    <defs>
     <path d="M 0 2.236068 
C 0.593012 2.236068 1.161816 2.000462 1.581139 1.581139 
C 2.000462 1.161816 2.236068 0.593012 2.236068 0 
C 2.236068 -0.593012 2.000462 -1.161816 1.581139 -1.581139 
C 1.161816 -2.000462 0.593012 -2.236068 0 -2.236068 
C -0.593012 -2.236068 -1.161816 -2.000462 -1.581139 -1.581139 
C -2.000462 -1.161816 -2.236068 -0.593012 -2.236068 0 
C -2.236068 0.593012 -2.000462 1.161816 -1.581139 1.581139 
C -1.161816 2.000462 -0.593012 2.236068 0 2.236068 
z
" id="m70f46d49bf" style="stroke:#008000;"/>
    </defs>
    <g clip-path="url(#p5082a215a3)">
     <use style="fill:#008000;stroke:#008000;" x="158.681447807" xlink:href="#m70f46d49bf" y="125.429327933"/>
     <use style="fill:#008000;stroke:#008000;" x="148.188826197" xlink:href="#m70f46d49bf" y="130.390042861"/>
     <use style="fill:#008000;stroke:#008000;" x="172.208887612" xlink:href="#m70f46d49bf" y="146.122485995"/>
     <use style="fill:#008000;stroke:#008000;" x="193.589423306" xlink:href="#m70f46d49bf" y="138.090154387"/>
     <use style="fill:#008000;stroke:#008000;" x="176.338744087" xlink:href="#m70f46d49bf" y="118.533820978"/>
     <use style="fill:#008000;stroke:#008000;" x="141.146306054" xlink:href="#m70f46d49bf" y="148.805210541"/>
     <use style="fill:#008000;stroke:#008000;" x="137.39485445" xlink:href="#m70f46d49bf" y="131.804399371"/>
     <use style="fill:#008000;stroke:#008000;" x="151.217873147" xlink:href="#m70f46d49bf" y="121.881980265"/>
    </g>
   </g>
   <g id="PathCollection_2">
    <defs>
     <path d="M 0 2.236068 
C 0.593012 2.236068 1.161816 2.000462 1.581139 1.581139 
C 2.000462 1.161816 2.236068 0.593012 2.236068 0 
C 2.236068 -0.593012 2.000462 -1.161816 1.581139 -1.581139 
C 1.161816 -2.000462 0.593012 -2.236068 0 -2.236068 
C -0.593012 -2.236068 -1.161816 -2.000462 -1.581139 -1.581139 
C -2.000462 -1.161816 -2.236068 -0.593012 -2.236068 0 
C -2.236068 0.593012 -2.000462 1.161816 -1.581139 1.581139 
C -1.161816 2.000462 -0.593012 2.236068 0 2.236068 
z
" id="C0_0_cba304da70"/>
    </defs>
    <g clip-path="url(#p5082a215a3)">
     <use style="fill:none;stroke:#bf00bf;" x="80.8499007685" xlink:href="#C0_0_cba304da70" y="103.467238797"/>
    </g>
    <g clip-path="url(#p5082a215a3)">
     <use style="fill:none;stroke:#bf00bf;" x="107.277379755" xlink:href="#C0_0_cba304da70" y="143.37017845"/>
    </g>
    <g clip-path="url(#p5082a215a3)">
     <use style="fill:none;stroke:#bf00bf;" x="91.9781814535" xlink:href="#C0_0_cba304da70" y="156.271199643"/>
    </g>
    <g clip-path="url(#p5082a215a3)">
     <use style="fill:none;stroke:#bf00bf;" x="96.4682982552" xlink:href="#C0_0_cba304da70" y="149.65480045"/>
    </g>
   </g>
   <g id="PathCollection_3">
    <defs>
     <path d="M 0 2.236068 
C 0.593012 2.236068 1.161816 2.000462 1.581139 1.581139 
C 2.000462 1.161816 2.236068 0.593012 2.236068 0 
C 2.236068 -0.593012 2.000462 -1.161816 1.581139 -1.581139 
C 1.161816 -2.000462 0.593012 -2.236068 0 -2.236068 
C -0.593012 -2.236068 -1.161816 -2.000462 -1.581139 -1.581139 
C -2.000462 -1.161816 -2.236068 -0.593012 -2.236068 0 
C -2.236068 0.593012 -2.000462 1.161816 -1.581139 1.581139 
C -1.161816 2.000462 -0.593012 2.236068 0 2.236068 
z
" id="C1_0_64d7300c99"/>
    </defs>
    <g clip-path="url(#p5082a215a3)">
     <use style="fill:none;stroke:#0000ff;" x="99.6886154163" xlink:href="#C1_0_64d7300c99" y="212.520000317"/>
    </g>
    <g clip-path="url(#p5082a215a3)">
     <use style="fill:none;stroke:#0000ff;" x="128.450804795" xlink:href="#C1_0_64d7300c99" y="262.301244464"/>
    </g>
    <g clip-path="url(#p5082a215a3)">
     <use style="fill:none;stroke:#0000ff;" x="89.3155393427" xlink:href="#C1_0_64d7300c99" y="211.969266561"/>
    </g>
    <g clip-path="url(#p5082a215a3)">
     <use style="fill:none;stroke:#0000ff;" x="113.17899083" xlink:href="#C1_0_64d7300c99" y="248.069892818"/>
    </g>
    <g clip-path="url(#p5082a215a3)">
     <use style="fill:none;stroke:#0000ff;" x="97.8933817773" xlink:href="#C1_0_64d7300c99" y="230.423717473"/>
    </g>
    <g clip-path="url(#p5082a215a3)">
     <use style="fill:none;stroke:#0000ff;" x="106.522542602" xlink:href="#C1_0_64d7300c99" y="238.496615801"/>
    </g>
    <g clip-path="url(#p5082a215a3)">
     <use style="fill:none;stroke:#0000ff;" x="80.4678126581" xlink:href="#C1_0_64d7300c99" y="203.001960766"/>
    </g>
    <g clip-path="url(#p5082a215a3)">
     <use style="fill:none;stroke:#0000ff;" x="93.1409938389" xlink:href="#C1_0_64d7300c99" y="226.659199371"/>
    </g>
   </g>
   <g id="PathCollection_4">
    <defs>
     <path d="M 0 2.236068 
C 0.593012 2.236068 1.161816 2.000462 1.581139 1.581139 
C 2.000462 1.161816 2.236068 0.593012 2.236068 0 
C 2.236068 -0.593012 2.000462 -1.161816 1.581139 -1.581139 
C 1.161816 -2.000462 0.593012 -2.236068 0 -2.236068 
C -0.593012 -2.236068 -1.161816 -2.000462 -1.581139 -1.581139 
C -2.000462 -1.161816 -2.236068 -0.593012 -2.236068 0 
C -2.236068 0.593012 -2.000462 1.161816 -1.581139 1.581139 
C -1.161816 2.000462 -0.593012 2.236068 0 2.236068 
z
" id="m4fe5932ca5" style="stroke:#ff0000;"/>
    </defs>
    <g clip-path="url(#p5082a215a3)">
     <use style="fill:#ff0000;stroke:#ff0000;" x="198.022242902" xlink:href="#m4fe5932ca5" y="249.881261997"/>
     <use style="fill:#ff0000;stroke:#ff0000;" x="182.048017543" xlink:href="#m4fe5932ca5" y="240.946185386"/>
     <use style="fill:#ff0000;stroke:#ff0000;" x="193.497380641" xlink:href="#m4fe5932ca5" y="262.018012713"/>
     <use style="fill:#ff0000;stroke:#ff0000;" x="181.676245531" xlink:href="#m4fe5932ca5" y="224.052256156"/>
     <use style="fill:#ff0000;stroke:#ff0000;" x="238.828532671" xlink:href="#m4fe5932ca5" y="234.636881204"/>
     <use style="fill:#ff0000;stroke:#ff0000;" x="199.475119479" xlink:href="#m4fe5932ca5" y="265.771424084"/>
    </g>
   </g>
   <g id="PathCollection_5">
    <defs>
     <path d="M -2.236068 2.236068 
L 2.236068 2.236068 
L 2.236068 -2.236068 
L -2.236068 -2.236068 
z
" id="m96a5e5d75b" style="stroke:#bf00bf;"/>
    </defs>
    <g clip-path="url(#p5082a215a3)">
     <use style="fill:#ffffff;stroke:#bf00bf;" x="92.6826374522" xlink:href="#m96a5e5d75b" y="138.550495687"/>
    </g>
   </g>
   <g id="PathCollection_6">
    <defs>
     <path d="M -2.236068 2.236068 
L 2.236068 2.236068 
L 2.236068 -2.236068 
L -2.236068 -2.236068 
z
" id="m178c103183" style="stroke:#0000ff;"/>
    </defs>
    <g clip-path="url(#p5082a215a3)">
     <use style="fill:#ffffff;stroke:#0000ff;" x="99.0947164943" xlink:href="#m178c103183" y="230.377827792"/>
    </g>
   </g>
   <g id="PathCollection_7">
    <defs>
     <path d="M -2.236068 2.236068 
L 2.236068 2.236068 
L 2.236068 -2.236068 
L -2.236068 -2.236068 
z
" id="m4773077b77" style="stroke:#ff0000;"/>
    </defs>
    <g clip-path="url(#p5082a215a3)">
     <use style="fill:#ff0000;stroke:#ff0000;" x="199.427357244" xlink:href="#m4773077b77" y="248.518462997"/>
    </g>
   </g>
   <g id="line2d_1">
    <path clip-path="url(#p5082a215a3)" d="M 153.201258 51.913435 
L 159.068788 52.066892 
L 164.920237 52.526841 
L 170.739564 53.292022 
L 176.51082 54.360337 
L 182.218187 55.728859 
L 187.84602 57.393836 
L 193.378894 59.350705 
L 198.801644 61.594102 
L 204.099406 64.117878 
L 209.25766 66.915115 
L 214.262267 69.978148 
L 219.099511 73.298579 
L 223.756132 76.867308 
L 228.219367 80.674553 
L 232.476982 84.70988 
L 236.517308 88.962226 
L 240.329271 93.419938 
L 243.902422 98.070796 
L 247.226967 102.902053 
L 250.293795 107.900468 
L 253.094498 113.052338 
L 255.621401 118.343545 
L 257.867578 123.759584 
L 259.826871 129.285611 
L 261.493911 134.90648 
L 262.864129 140.606783 
L 263.933768 146.370897 
L 264.699897 152.183023 
L 265.160416 158.02723 
L 265.314062 163.8875 
L 265.160416 169.74777 
L 264.699897 175.591977 
L 263.933768 181.404103 
L 262.864129 187.168217 
L 261.493911 192.86852 
L 259.826871 198.489389 
L 257.867578 204.015416 
L 255.621401 209.431455 
L 253.094498 214.722662 
L 250.293795 219.874532 
L 247.226967 224.872947 
L 243.902422 229.704204 
L 240.329271 234.355062 
L 236.517308 238.812774 
L 232.476982 243.06512 
L 228.219367 247.100447 
L 223.756132 250.907692 
L 219.099511 254.476421 
L 214.262267 257.796852 
L 209.25766 260.859885 
L 204.099406 263.657122 
L 198.801644 266.180898 
L 193.378894 268.424295 
L 187.84602 270.381164 
L 182.218187 272.046141 
L 176.51082 273.414663 
L 170.739564 274.482978 
L 164.920237 275.248159 
L 159.068788 275.708108 
L 153.201258 275.861565 
L 147.333727 275.708108 
L 141.482278 275.248159 
L 135.662951 274.482978 
L 129.891695 273.414663 
L 124.184329 272.046141 
L 118.556496 270.381164 
L 113.023622 268.424295 
L 107.600872 266.180898 
L 102.303109 263.657122 
L 97.144855 260.859885 
L 92.140248 257.796852 
L 87.303004 254.476421 
L 82.646383 250.907692 
L 78.183149 247.100447 
L 73.925533 243.06512 
L 69.885207 238.812774 
L 66.073244 234.355062 
L 62.500093 229.704204 
L 59.175548 224.872947 
L 56.108721 219.874532 
L 53.308017 214.722662 
L 50.781114 209.431455 
L 48.534937 204.015416 
L 46.575644 198.489389 
L 44.908604 192.86852 
L 43.538387 187.168217 
L 42.468747 181.404103 
L 41.702618 175.591977 
L 41.242099 169.74777 
L 41.088453 163.8875 
L 41.242099 158.02723 
L 41.702618 152.183023 
L 42.468747 146.370897 
L 43.538387 140.606783 
L 44.908604 134.90648 
L 46.575644 129.285611 
L 48.534937 123.759584 
L 50.781114 118.343545 
L 53.308017 113.052338 
L 56.108721 107.900468 
L 59.175548 102.902053 
L 62.500093 98.070796 
L 66.073244 93.419938 
L 69.885207 88.962226 
L 73.925533 84.70988 
L 78.183149 80.674553 
L 82.646383 76.867308 
L 87.303004 73.298579 
L 92.140248 69.978148 
L 97.144855 66.915115 
L 102.303109 64.117878 
L 107.600872 61.594102 
L 113.023622 59.350705 
L 118.556496 57.393836 
L 124.184329 55.728859 
L 129.891695 54.360337 
L 135.662951 53.292022 
L 141.482278 52.526841 
L 147.333727 52.066892 
L 153.201258 51.913435 
L 153.201258 51.913435 
" style="fill:none;stroke:#000000;stroke-linecap:square;"/>
   </g>
   <g id="line2d_2">
    <defs>
     <path d="M -3 0 
L 3 0 
M 0 3 
L 0 -3 
" id="m7f87350ccc" style="stroke:#000000;stroke-width:0.5;"/>
    </defs>
    <g clip-path="url(#p5082a215a3)">
     <use style="stroke:#000000;stroke-width:0.5;" x="153.201257622" xlink:href="#m7f87350ccc" y="62.0987132669"/>
     <use style="stroke:#000000;stroke-width:0.5;" x="153.201257622" xlink:href="#m7f87350ccc" y="73.0586652884"/>
     <use style="stroke:#000000;stroke-width:0.5;" x="153.201257622" xlink:href="#m7f87350ccc" y="84.709879586"/>
     <use style="stroke:#000000;stroke-width:0.5;" x="153.201257622" xlink:href="#m7f87350ccc" y="96.9636833838"/>
     <use style="stroke:#000000;stroke-width:0.5;" x="153.201257622" xlink:href="#m7f87350ccc" y="109.726817836"/>
     <use style="stroke:#000000;stroke-width:0.5;" x="153.201257622" xlink:href="#m7f87350ccc" y="122.902147782"/>
     <use style="stroke:#000000;stroke-width:0.5;" x="153.201257622" xlink:href="#m7f87350ccc" y="136.389401006"/>
     <use style="stroke:#000000;stroke-width:0.5;" x="153.201257622" xlink:href="#m7f87350ccc" y="150.085931368"/>
     <use style="stroke:#000000;stroke-width:0.5;" x="153.201257622" xlink:href="#m7f87350ccc" y="163.8875"/>
    </g>
   </g>
   <g id="line2d_3">
    <g clip-path="url(#p5082a215a3)">
     <use style="stroke:#000000;stroke-width:0.5;" x="255.116164649" xlink:href="#m7f87350ccc" y="163.8875"/>
     <use style="stroke:#000000;stroke-width:0.5;" x="244.142632818" xlink:href="#m7f87350ccc" y="163.8875"/>
     <use style="stroke:#000000;stroke-width:0.5;" x="232.476982209" xlink:href="#m7f87350ccc" y="163.8875"/>
     <use style="stroke:#000000;stroke-width:0.5;" x="220.207995468" xlink:href="#m7f87350ccc" y="163.8875"/>
     <use style="stroke:#000000;stroke-width:0.5;" x="207.429046993" xlink:href="#m7f87350ccc" y="163.8875"/>
     <use style="stroke:#000000;stroke-width:0.5;" x="194.237392297" xlink:href="#m7f87350ccc" y="163.8875"/>
     <use style="stroke:#000000;stroke-width:0.5;" x="180.733427837" xlink:href="#m7f87350ccc" y="163.8875"/>
     <use style="stroke:#000000;stroke-width:0.5;" x="167.019926938" xlink:href="#m7f87350ccc" y="163.8875"/>
    </g>
   </g>
   <g id="line2d_4">
    <g clip-path="url(#p5082a215a3)">
     <use style="stroke:#000000;stroke-width:0.5;" x="153.201257622" xlink:href="#m7f87350ccc" y="265.676286733"/>
     <use style="stroke:#000000;stroke-width:0.5;" x="153.201257622" xlink:href="#m7f87350ccc" y="254.716334712"/>
     <use style="stroke:#000000;stroke-width:0.5;" x="153.201257622" xlink:href="#m7f87350ccc" y="243.065120414"/>
     <use style="stroke:#000000;stroke-width:0.5;" x="153.201257622" xlink:href="#m7f87350ccc" y="230.811316616"/>
     <use style="stroke:#000000;stroke-width:0.5;" x="153.201257622" xlink:href="#m7f87350ccc" y="218.048182164"/>
     <use style="stroke:#000000;stroke-width:0.5;" x="153.201257622" xlink:href="#m7f87350ccc" y="204.872852218"/>
     <use style="stroke:#000000;stroke-width:0.5;" x="153.201257622" xlink:href="#m7f87350ccc" y="191.385598994"/>
     <use style="stroke:#000000;stroke-width:0.5;" x="153.201257622" xlink:href="#m7f87350ccc" y="177.689068632"/>
    </g>
   </g>
   <g id="line2d_5">
    <g clip-path="url(#p5082a215a3)">
     <use style="stroke:#000000;stroke-width:0.5;" x="51.2863505949" xlink:href="#m7f87350ccc" y="163.8875"/>
     <use style="stroke:#000000;stroke-width:0.5;" x="62.2598824263" xlink:href="#m7f87350ccc" y="163.8875"/>
     <use style="stroke:#000000;stroke-width:0.5;" x="73.9255330348" xlink:href="#m7f87350ccc" y="163.8875"/>
     <use style="stroke:#000000;stroke-width:0.5;" x="86.1945197755" xlink:href="#m7f87350ccc" y="163.8875"/>
     <use style="stroke:#000000;stroke-width:0.5;" x="98.9734682509" xlink:href="#m7f87350ccc" y="163.8875"/>
     <use style="stroke:#000000;stroke-width:0.5;" x="112.165122947" xlink:href="#m7f87350ccc" y="163.8875"/>
     <use style="stroke:#000000;stroke-width:0.5;" x="125.669087406" xlink:href="#m7f87350ccc" y="163.8875"/>
     <use style="stroke:#000000;stroke-width:0.5;" x="139.382588305" xlink:href="#m7f87350ccc" y="163.8875"/>
    </g>
   </g>
   <g id="line2d_6">
    <path clip-path="url(#p5082a215a3)" d="M 153.201258 51.913435 
L 153.201258 52.894845 
L 153.201258 53.884706 
L 153.201258 54.882945 
" style="fill:none;stroke:#000000;stroke-linecap:square;"/>
   </g>
   <g id="line2d_7">
    <path clip-path="url(#p5082a215a3)" d="M 172.669442 53.614573 
L 172.498811 54.581072 
L 172.32671 55.555896 
L 172.153153 56.53897 
" style="fill:none;stroke:#000000;stroke-linecap:square;"/>
   </g>
   <g id="line2d_8">
    <path clip-path="url(#p5082a215a3)" d="M 191.546095 58.666298 
L 191.210018 59.588521 
L 190.871045 60.518687 
L 190.529205 61.456724 
" style="fill:none;stroke:#000000;stroke-linecap:square;"/>
   </g>
   <g id="line2d_9">
    <path clip-path="url(#p5082a215a3)" d="M 209.25766 66.915115 
L 208.766347 67.765041 
L 208.270803 68.622286 
L 207.771065 69.486787 
" style="fill:none;stroke:#000000;stroke-linecap:square;"/>
   </g>
   <g id="line2d_10">
    <path clip-path="url(#p5082a215a3)" d="M 225.265979 78.11039 
L 224.63436 78.862193 
L 223.997301 79.620471 
L 223.35485 80.385167 
" style="fill:none;stroke:#000000;stroke-linecap:square;"/>
   </g>
   <g id="line2d_11">
    <path clip-path="url(#p5082a215a3)" d="M 239.084649 91.911959 
L 238.331914 92.542796 
L 237.572696 93.179067 
L 236.807054 93.820723 
" style="fill:none;stroke:#000000;stroke-linecap:square;"/>
   </g>
   <g id="line2d_12">
    <path clip-path="url(#p5082a215a3)" d="M 250.293795 107.900468 
L 249.442816 108.391172 
L 248.584509 108.886103 
L 247.718937 109.385223 
" style="fill:none;stroke:#000000;stroke-linecap:square;"/>
   </g>
   <g id="line2d_13">
    <path clip-path="url(#p5082a215a3)" d="M 258.552833 125.590114 
L 257.629467 125.925776 
L 256.698149 126.264329 
L 255.758949 126.605747 
" style="fill:none;stroke:#000000;stroke-linecap:square;"/>
   </g>
   <g id="line2d_14">
    <path clip-path="url(#p5082a215a3)" d="M 263.610817 144.443408 
L 262.64312 144.613828 
L 261.667089 144.785715 
L 260.682797 144.959058 
" style="fill:none;stroke:#000000;stroke-linecap:square;"/>
   </g>
   <g id="line2d_15">
    <path clip-path="url(#p5082a215a3)" d="M 265.314062 163.8875 
L 264.331437 163.8875 
L 263.340349 163.8875 
L 262.340873 163.8875 
" style="fill:none;stroke:#000000;stroke-linecap:square;"/>
   </g>
   <g id="line2d_16">
    <path clip-path="url(#p5082a215a3)" d="M 263.610817 183.331592 
L 262.64312 183.161172 
L 261.667089 182.989285 
L 260.682797 182.815942 
" style="fill:none;stroke:#000000;stroke-linecap:square;"/>
   </g>
   <g id="line2d_17">
    <path clip-path="url(#p5082a215a3)" d="M 258.552833 202.184886 
L 257.629467 201.849224 
L 256.698149 201.510671 
L 255.758949 201.169253 
" style="fill:none;stroke:#000000;stroke-linecap:square;"/>
   </g>
   <g id="line2d_18">
    <path clip-path="url(#p5082a215a3)" d="M 250.293795 219.874532 
L 249.442816 219.383828 
L 248.584509 218.888897 
L 247.718937 218.389777 
" style="fill:none;stroke:#000000;stroke-linecap:square;"/>
   </g>
   <g id="line2d_19">
    <path clip-path="url(#p5082a215a3)" d="M 239.084649 235.863041 
L 238.331914 235.232204 
L 237.572696 234.595933 
L 236.807054 233.954277 
" style="fill:none;stroke:#000000;stroke-linecap:square;"/>
   </g>
   <g id="line2d_20">
    <path clip-path="url(#p5082a215a3)" d="M 225.265979 249.66461 
L 224.63436 248.912807 
L 223.997301 248.154529 
L 223.35485 247.389833 
" style="fill:none;stroke:#000000;stroke-linecap:square;"/>
   </g>
   <g id="line2d_21">
    <path clip-path="url(#p5082a215a3)" d="M 209.25766 260.859885 
L 208.766347 260.009959 
L 208.270803 259.152714 
L 207.771065 258.288213 
" style="fill:none;stroke:#000000;stroke-linecap:square;"/>
   </g>
   <g id="line2d_22">
    <path clip-path="url(#p5082a215a3)" d="M 191.546095 269.108702 
L 191.210018 268.186479 
L 190.871045 267.256313 
L 190.529205 266.318276 
" style="fill:none;stroke:#000000;stroke-linecap:square;"/>
   </g>
   <g id="line2d_23">
    <path clip-path="url(#p5082a215a3)" d="M 172.669442 274.160427 
L 172.498811 273.193928 
L 172.32671 272.219104 
L 172.153153 271.23603 
" style="fill:none;stroke:#000000;stroke-linecap:square;"/>
   </g>
   <g id="line2d_24">
    <path clip-path="url(#p5082a215a3)" d="M 153.201258 275.861565 
L 153.201258 274.880155 
L 153.201258 273.890294 
L 153.201258 272.892055 
" style="fill:none;stroke:#000000;stroke-linecap:square;"/>
   </g>
   <g id="line2d_25">
    <path clip-path="url(#p5082a215a3)" d="M 133.733073 274.160427 
L 133.903704 273.193928 
L 134.075805 272.219104 
L 134.249362 271.23603 
" style="fill:none;stroke:#000000;stroke-linecap:square;"/>
   </g>
   <g id="line2d_26">
    <path clip-path="url(#p5082a215a3)" d="M 114.85642 269.108702 
L 115.192498 268.186479 
L 115.53147 267.256313 
L 115.873311 266.318276 
" style="fill:none;stroke:#000000;stroke-linecap:square;"/>
   </g>
   <g id="line2d_27">
    <path clip-path="url(#p5082a215a3)" d="M 97.144855 260.859885 
L 97.636168 260.009959 
L 98.131712 259.152714 
L 98.63145 258.288213 
" style="fill:none;stroke:#000000;stroke-linecap:square;"/>
   </g>
   <g id="line2d_28">
    <path clip-path="url(#p5082a215a3)" d="M 81.136536 249.66461 
L 81.768155 248.912807 
L 82.405214 248.154529 
L 83.047665 247.389833 
" style="fill:none;stroke:#000000;stroke-linecap:square;"/>
   </g>
   <g id="line2d_29">
    <path clip-path="url(#p5082a215a3)" d="M 67.317866 235.863041 
L 68.070601 235.232204 
L 68.829819 234.595933 
L 69.595462 233.954277 
" style="fill:none;stroke:#000000;stroke-linecap:square;"/>
   </g>
   <g id="line2d_30">
    <path clip-path="url(#p5082a215a3)" d="M 56.108721 219.874532 
L 56.959699 219.383828 
L 57.818007 218.888897 
L 58.683578 218.389777 
" style="fill:none;stroke:#000000;stroke-linecap:square;"/>
   </g>
   <g id="line2d_31">
    <path clip-path="url(#p5082a215a3)" d="M 47.849682 202.184886 
L 48.773048 201.849224 
L 49.704366 201.510671 
L 50.643566 201.169253 
" style="fill:none;stroke:#000000;stroke-linecap:square;"/>
   </g>
   <g id="line2d_32">
    <path clip-path="url(#p5082a215a3)" d="M 42.791698 183.331592 
L 43.759395 183.161172 
L 44.735427 182.989285 
L 45.719718 182.815942 
" style="fill:none;stroke:#000000;stroke-linecap:square;"/>
   </g>
   <g id="line2d_33">
    <path clip-path="url(#p5082a215a3)" d="M 41.088453 163.8875 
L 42.071078 163.8875 
L 43.062166 163.8875 
L 44.061642 163.8875 
" style="fill:none;stroke:#000000;stroke-linecap:square;"/>
   </g>
   <g id="line2d_34">
    <path clip-path="url(#p5082a215a3)" d="M 42.791698 144.443408 
L 43.759395 144.613828 
L 44.735427 144.785715 
L 45.719718 144.959058 
" style="fill:none;stroke:#000000;stroke-linecap:square;"/>
   </g>
   <g id="line2d_35">
    <path clip-path="url(#p5082a215a3)" d="M 47.849682 125.590114 
L 48.773048 125.925776 
L 49.704366 126.264329 
L 50.643566 126.605747 
" style="fill:none;stroke:#000000;stroke-linecap:square;"/>
   </g>
   <g id="line2d_36">
    <path clip-path="url(#p5082a215a3)" d="M 56.108721 107.900468 
L 56.959699 108.391172 
L 57.818007 108.886103 
L 58.683578 109.385223 
" style="fill:none;stroke:#000000;stroke-linecap:square;"/>
   </g>
   <g id="line2d_37">
    <path clip-path="url(#p5082a215a3)" d="M 67.317866 91.911959 
L 68.070601 92.542796 
L 68.829819 93.179067 
L 69.595462 93.820723 
" style="fill:none;stroke:#000000;stroke-linecap:square;"/>
   </g>
   <g id="line2d_38">
    <path clip-path="url(#p5082a215a3)" d="M 81.136536 78.11039 
L 81.768155 78.862193 
L 82.405214 79.620471 
L 83.047665 80.385167 
" style="fill:none;stroke:#000000;stroke-linecap:square;"/>
   </g>
   <g id="line2d_39">
    <path clip-path="url(#p5082a215a3)" d="M 97.144855 66.915115 
L 97.636168 67.765041 
L 98.131712 68.622286 
L 98.63145 69.486787 
" style="fill:none;stroke:#000000;stroke-linecap:square;"/>
   </g>
   <g id="line2d_40">
    <path clip-path="url(#p5082a215a3)" d="M 114.85642 58.666298 
L 115.192498 59.588521 
L 115.53147 60.518687 
L 115.873311 61.456724 
" style="fill:none;stroke:#000000;stroke-linecap:square;"/>
   </g>
   <g id="line2d_41">
    <path clip-path="url(#p5082a215a3)" d="M 133.733073 53.614573 
L 133.903704 54.581072 
L 134.075805 55.555896 
L 134.249362 56.53897 
" style="fill:none;stroke:#000000;stroke-linecap:square;"/>
   </g>
   <g id="line2d_42">
    <path clip-path="url(#p5082a215a3)" d="M 109.691916 108.699449 
L 108.109143 107.898223 
L 106.460242 107.214635 
L 104.750633 106.653459 
L 102.986205 106.21913 
L 101.173322 105.915704 
L 99.318817 105.746801 
L 97.429983 105.715557 
L 95.514559 105.824564 
L 93.580711 106.075821 
L 91.636993 106.470676 
L 89.692322 107.009772 
L 87.755921 107.692998 
L 85.837269 108.519443 
L 83.94604 109.487352 
L 82.092025 110.594097 
L 80.285057 111.836147 
L 78.534925 113.209055 
L 76.851283 114.707458 
L 75.243553 116.325079 
L 73.720831 118.054756 
L 72.291786 119.888473 
L 70.96457 121.817414 
L 69.746725 123.832025 
L 68.6451 125.92209 
L 67.665774 128.07682 
L 66.813995 130.28495 
L 66.094128 132.534844 
L 65.509612 134.814608 
L 65.06294 137.112201 
L 64.755645 139.415555 
L 64.588307 141.712683 
L 64.560568 143.991791 
L 64.671168 146.241379 
L 64.917981 148.450337 
L 65.298068 150.60803 
L 65.807741 152.704367 
L 66.442627 154.729871 
L 67.197737 156.675725 
L 68.067542 158.533811 
L 69.046048 160.296738 
L 70.126867 161.957858 
L 71.303289 163.511276 
L 72.568352 164.951841 
L 73.914908 166.275139 
L 75.335677 167.477478 
L 76.823308 168.555861 
L 78.370427 169.507959 
L 79.969676 170.332085 
L 81.613759 171.027153 
L 83.295467 171.59265 
L 85.007715 172.028596 
L 86.743556 172.335511 
L 88.496208 172.514378 
L 90.259065 172.566607 
L 92.025708 172.494008 
L 93.789918 172.29875 
L 95.545677 171.983339 
L 97.287177 171.550587 
L 99.008816 171.003585 
L 100.705202 170.345679 
L 102.371153 169.58045 
L 104.001692 168.711692 
L 105.592045 167.743391 
L 107.137639 166.679713 
L 108.634098 165.524987 
L 110.077241 164.283689 
L 111.463072 162.960435 
L 112.787786 161.559965 
L 114.047757 160.087136 
L 115.239539 158.546916 
L 116.359865 156.944371 
L 117.40564 155.284663 
L 118.373943 153.573044 
L 119.262025 151.814847 
L 120.067309 150.015488 
L 120.787389 148.180458 
L 121.420031 146.315318 
L 121.963176 144.4257 
L 122.414945 142.517303 
L 122.773635 140.595888 
L 123.03773 138.667277 
L 123.205904 136.737352 
L 123.277027 134.812048 
L 123.250172 132.897352 
L 123.124624 130.999299 
L 122.899887 129.123969 
L 122.575698 127.277479 
L 122.152035 125.465981 
L 121.629129 123.695651 
L 121.00748 121.972685 
L 120.287869 120.303287 
L 119.471374 118.693658 
L 118.559386 117.149985 
L 117.553624 115.678423 
L 116.456154 114.285081 
L 115.269405 112.976 
L 113.996189 111.757134 
L 112.639715 110.634319 
L 111.203606 109.613251 
L 109.691916 108.699449 
" style="fill:none;stroke:#bf00bf;stroke-linecap:square;"/>
   </g>
   <g id="line2d_43">
    <path clip-path="url(#p5082a215a3)" d="M 85.780077 217.785682 
L 85.240414 218.391793 
L 84.753994 219.046971 
L 84.3234 219.749181 
L 83.951059 220.496129 
L 83.639219 221.285267 
L 83.389929 222.113786 
L 83.20502 222.978628 
L 83.086083 223.876484 
L 83.034447 224.803806 
L 83.05116 225.756817 
L 83.136972 226.731524 
L 83.29231 227.723738 
L 83.517265 228.729089 
L 83.811577 229.743054 
L 84.174623 230.760978 
L 84.605405 231.778109 
L 85.102543 232.789623 
L 85.664276 233.790661 
L 86.288458 234.776363 
L 86.972566 235.741906 
L 87.713708 236.682537 
L 88.508639 237.593616 
L 89.353772 238.470651 
L 90.24521 239.309332 
L 91.178765 240.105565 
L 92.149986 240.85551 
L 93.154201 241.555602 
L 94.186541 242.202584 
L 95.241985 242.793523 
L 96.315398 243.325835 
L 97.401567 243.797293 
L 98.495244 244.206043 
L 99.591187 244.550602 
L 100.684192 244.829868 
L 101.769138 245.043111 
L 102.841016 245.189968 
L 103.894962 245.270436 
L 104.926288 245.284856 
L 105.930507 245.233898 
L 106.903356 245.118545 
L 107.840815 244.940072 
L 108.739125 244.700027 
L 109.594797 244.400207 
L 110.404627 244.042637 
L 111.165696 243.629548 
L 111.875381 243.163356 
L 112.531349 242.646638 
L 113.131561 242.082114 
L 113.674265 241.472623 
L 114.157995 240.82111 
L 114.581559 240.1306 
L 114.944038 239.404192 
L 115.244769 238.645033 
L 115.483343 237.856311 
L 115.659591 237.04124 
L 115.773572 236.203047 
L 115.825567 235.344965 
L 115.816062 234.470221 
L 115.745742 233.582025 
L 115.61548 232.683571 
L 115.426323 231.778022 
L 115.179486 230.868507 
L 114.876341 229.958117 
L 114.518406 229.0499 
L 114.107338 228.146857 
L 113.644925 227.251938 
L 113.133077 226.368036 
L 112.573819 225.49799 
L 111.969284 224.644579 
L 111.321707 223.810516 
L 110.633419 222.998453 
L 109.906838 222.21097 
L 109.144471 221.45058 
L 108.348901 220.719721 
L 107.522789 220.020757 
L 106.668863 219.355971 
L 105.789922 218.727566 
L 104.888824 218.137659 
L 103.968489 217.588277 
L 103.031889 217.081358 
L 102.08205 216.618738 
L 101.122046 216.202154 
L 100.154995 215.833237 
L 99.184055 215.513503 
L 98.212422 215.244354 
L 97.243322 215.027063 
L 96.280014 214.862776 
L 95.325776 214.7525 
L 94.383905 214.697097 
L 93.457712 214.697275 
L 92.550512 214.753582 
L 91.665621 214.866396 
L 90.806344 215.035917 
L 89.975969 215.262159 
L 89.17776 215.544937 
L 88.41494 215.883866 
L 87.690685 216.278343 
L 87.008111 216.727546 
L 86.370258 217.230422 
L 85.780077 217.785682 
" style="fill:none;stroke:#0000ff;stroke-linecap:square;"/>
   </g>
   <g id="line2d_44">
    <path clip-path="url(#p5082a215a3)" d="M 172.904287 258.957499 
L 173.311613 259.994288 
L 173.823344 260.991893 
L 174.439652 261.945544 
L 175.160251 262.850403 
L 175.984354 263.701584 
L 176.910634 264.494185 
L 177.937192 265.223317 
L 179.061518 265.884149 
L 180.280464 266.471947 
L 181.590215 266.982125 
L 182.986272 267.410304 
L 184.463438 267.752367 
L 186.015813 268.004525 
L 187.636805 268.163381 
L 189.319145 268.225998 
L 191.054919 268.189968 
L 192.835612 268.053471 
L 194.652165 267.81534 
L 196.28177 266.964817 
L 197.872265 265.93187 
L 199.496294 264.911486 
L 201.149568 263.905653 
L 202.827848 262.916404 
L 204.526945 261.945824 
L 206.242714 260.99605 
L 207.971048 260.069281 
L 209.707874 259.167775 
L 211.449148 258.293856 
L 213.190848 257.449914 
L 214.928968 256.638408 
L 216.659512 255.861865 
L 218.257649 254.953729 
L 219.441427 253.55711 
L 220.52023 252.135591 
L 221.49014 250.697411 
L 222.348076 249.250707 
L 223.091784 247.803428 
L 223.719802 246.363268 
L 224.231421 244.937603 
L 224.626636 243.533436 
L 224.906102 242.157362 
L 225.071069 240.81553 
L 225.123333 239.513625 
L 225.065174 238.256853 
L 224.899303 237.049939 
L 224.628806 235.897122 
L 224.257093 234.80217 
L 223.78785 233.768389 
L 223.224995 232.798639 
L 222.572639 231.895356 
L 221.835046 231.06057 
L 221.016605 230.295932 
L 220.121798 229.602736 
L 219.155178 228.981943 
L 218.121348 228.434206 
L 217.024939 227.959894 
L 215.870601 227.559114 
L 214.662984 227.231734 
L 213.406733 226.9774 
L 212.106476 226.79556 
L 210.766821 226.68548 
L 209.392346 226.646258 
L 207.987602 226.676843 
L 206.557105 226.776048 
L 205.105335 226.942559 
L 203.636738 227.174951 
L 202.155723 227.471694 
L 200.666661 227.831163 
L 199.173889 228.251646 
L 197.681708 228.731351 
L 196.194382 229.268409 
L 194.716143 229.860882 
L 193.251188 230.506764 
L 191.803682 231.203983 
L 190.377755 231.950408 
L 188.977506 232.743845 
L 187.607001 233.582038 
L 186.270271 234.462674 
L 184.971313 235.383375 
L 183.714088 236.341704 
L 182.502519 237.335156 
L 181.340488 238.361161 
L 180.231831 239.417076 
L 179.180337 240.500189 
L 178.18974 241.607706 
L 177.263715 242.736752 
L 176.405868 243.884368 
L 175.61973 245.0475 
L 174.908745 246.222998 
L 174.276262 247.407612 
L 173.725517 248.597983 
L 173.259623 249.790639 
L 172.881551 250.981993 
L 172.594111 252.168335 
L 172.399934 253.345832 
L 172.301444 254.510521 
L 172.300839 255.658313 
L 172.400061 256.784989 
L 172.600765 257.886206 
L 172.904287 258.957499 
" style="fill:none;stroke:#ff0000;stroke-linecap:square;"/>
   </g>
   <g id="legend_1">
    <g id="patch_2">
     <path d="M 70.798346 100.5375 
L 227.499596 100.5375 
L 227.499596 7.2 
L 70.798346 7.2 
z
" style="fill:#ffffff;stroke:#000000;stroke-linejoin:miter;"/>
    </g>
    <g id="PathCollection_8">
     <path d="M 79.198346 20.204193 
C 79.791358 20.204193 80.360162 19.968587 80.779485 19.549264 
C 81.198808 19.129941 81.434414 18.561137 81.434414 17.968125 
C 81.434414 17.375113 81.198808 16.806309 80.779485 16.386986 
C 80.360162 15.967663 79.791358 15.732057 79.198346 15.732057 
C 78.605334 15.732057 78.03653 15.967663 77.617207 16.386986 
C 77.197884 16.806309 76.962278 17.375113 76.962278 17.968125 
C 76.962278 18.561137 77.197884 19.129941 77.617207 19.549264 
C 78.03653 19.968587 78.605334 20.204193 79.198346 20.204193 
z
" style="fill:#008000;stroke:#008000;"/>
     <path d="M 87.598346 19.154193 
C 88.191358 19.154193 88.760162 18.918587 89.179485 18.499264 
C 89.598808 18.079941 89.834414 17.511137 89.834414 16.918125 
C 89.834414 16.325113 89.598808 15.756309 89.179485 15.336986 
C 88.760162 14.917663 88.191358 14.682057 87.598346 14.682057 
C 87.005334 14.682057 86.43653 14.917663 86.017207 15.336986 
C 85.597884 15.756309 85.362278 16.325113 85.362278 16.918125 
C 85.362278 17.511137 85.597884 18.079941 86.017207 18.499264 
C 86.43653 18.918587 87.005334 19.154193 87.598346 19.154193 
z
" style="fill:#008000;stroke:#008000;"/>
     <path d="M 95.998346 20.729193 
C 96.591358 20.729193 97.160162 20.493587 97.579485 20.074264 
C 97.998808 19.654941 98.234414 19.086137 98.234414 18.493125 
C 98.234414 17.900113 97.998808 17.331309 97.579485 16.911986 
C 97.160162 16.492663 96.591358 16.257057 95.998346 16.257057 
C 95.405334 16.257057 94.83653 16.492663 94.417207 16.911986 
C 93.997884 17.331309 93.762278 17.900113 93.762278 18.493125 
C 93.762278 19.086137 93.997884 19.654941 94.417207 20.074264 
C 94.83653 20.493587 95.405334 20.729193 95.998346 20.729193 
z
" style="fill:#008000;stroke:#008000;"/>
    </g>
    <g id="text_1">
     <!-- Z42_low -->
     <defs>
      <path d="M 19.1875 8.296875 
L 53.609375 8.296875 
L 53.609375 0 
L 7.328125 0 
L 7.328125 8.296875 
Q 12.9375 14.109375 22.625 23.890625 
Q 32.328125 33.6875 34.8125 36.53125 
Q 39.546875 41.84375 41.421875 45.53125 
Q 43.3125 49.21875 43.3125 52.78125 
Q 43.3125 58.59375 39.234375 62.25 
Q 35.15625 65.921875 28.609375 65.921875 
Q 23.96875 65.921875 18.8125 64.3125 
Q 13.671875 62.703125 7.8125 59.421875 
L 7.8125 69.390625 
Q 13.765625 71.78125 18.9375 73 
Q 24.125 74.21875 28.421875 74.21875 
Q 39.75 74.21875 46.484375 68.546875 
Q 53.21875 62.890625 53.21875 53.421875 
Q 53.21875 48.921875 51.53125 44.890625 
Q 49.859375 40.875 45.40625 35.40625 
Q 44.1875 33.984375 37.640625 27.21875 
Q 31.109375 20.453125 19.1875 8.296875 
" id="BitstreamVeraSans-Roman-32"/>
      <path d="M 5.609375 72.90625 
L 62.890625 72.90625 
L 62.890625 65.375 
L 16.796875 8.296875 
L 64.015625 8.296875 
L 64.015625 0 
L 4.5 0 
L 4.5 7.515625 
L 50.59375 64.59375 
L 5.609375 64.59375 
z
" id="BitstreamVeraSans-Roman-5a"/>
      <path d="M 37.796875 64.3125 
L 12.890625 25.390625 
L 37.796875 25.390625 
z
M 35.203125 72.90625 
L 47.609375 72.90625 
L 47.609375 25.390625 
L 58.015625 25.390625 
L 58.015625 17.1875 
L 47.609375 17.1875 
L 47.609375 0 
L 37.796875 0 
L 37.796875 17.1875 
L 4.890625 17.1875 
L 4.890625 26.703125 
z
" id="BitstreamVeraSans-Roman-34"/>
      <path d="M 50.984375 -16.609375 
L 50.984375 -23.578125 
L -0.984375 -23.578125 
L -0.984375 -16.609375 
z
" id="BitstreamVeraSans-Roman-5f"/>
      <path d="M 30.609375 48.390625 
Q 23.390625 48.390625 19.1875 42.75 
Q 14.984375 37.109375 14.984375 27.296875 
Q 14.984375 17.484375 19.15625 11.84375 
Q 23.34375 6.203125 30.609375 6.203125 
Q 37.796875 6.203125 41.984375 11.859375 
Q 46.1875 17.53125 46.1875 27.296875 
Q 46.1875 37.015625 41.984375 42.703125 
Q 37.796875 48.390625 30.609375 48.390625 
M 30.609375 56 
Q 42.328125 56 49.015625 48.375 
Q 55.71875 40.765625 55.71875 27.296875 
Q 55.71875 13.875 49.015625 6.21875 
Q 42.328125 -1.421875 30.609375 -1.421875 
Q 18.84375 -1.421875 12.171875 6.21875 
Q 5.515625 13.875 5.515625 27.296875 
Q 5.515625 40.765625 12.171875 48.375 
Q 18.84375 56 30.609375 56 
" id="BitstreamVeraSans-Roman-6f"/>
      <path d="M 9.421875 75.984375 
L 18.40625 75.984375 
L 18.40625 0 
L 9.421875 0 
z
" id="BitstreamVeraSans-Roman-6c"/>
      <path d="M 4.203125 54.6875 
L 13.1875 54.6875 
L 24.421875 12.015625 
L 35.59375 54.6875 
L 46.1875 54.6875 
L 57.421875 12.015625 
L 68.609375 54.6875 
L 77.59375 54.6875 
L 63.28125 0 
L 52.6875 0 
L 40.921875 44.828125 
L 29.109375 0 
L 18.5 0 
z
" id="BitstreamVeraSans-Roman-77"/>
     </defs>
     <g transform="translate(109.198346037 21.118125)scale(0.12 -0.12)">
      <use xlink:href="#BitstreamVeraSans-Roman-5a"/>
      <use x="68.505859375" xlink:href="#BitstreamVeraSans-Roman-34"/>
      <use x="132.12890625" xlink:href="#BitstreamVeraSans-Roman-32"/>
      <use x="195.751953125" xlink:href="#BitstreamVeraSans-Roman-5f"/>
      <use x="245.751953125" xlink:href="#BitstreamVeraSans-Roman-6c"/>
      <use x="273.53515625" xlink:href="#BitstreamVeraSans-Roman-6f"/>
      <use x="334.716796875" xlink:href="#BitstreamVeraSans-Roman-77"/>
     </g>
    </g>
    <g id="PathCollection_9">
     <path d="M 79.198346 38.151693 
C 79.791358 38.151693 80.360162 37.916087 80.779485 37.496764 
C 81.198808 37.077441 81.434414 36.508637 81.434414 35.915625 
C 81.434414 35.322613 81.198808 34.753809 80.779485 34.334486 
C 80.360162 33.915163 79.791358 33.679557 79.198346 33.679557 
C 78.605334 33.679557 78.03653 33.915163 77.617207 34.334486 
C 77.197884 34.753809 76.962278 35.322613 76.962278 35.915625 
C 76.962278 36.508637 77.197884 37.077441 77.617207 37.496764 
C 78.03653 37.916087 78.605334 38.151693 79.198346 38.151693 
z
" style="fill:#ff0000;stroke:#ff0000;"/>
     <path d="M 87.598346 37.101693 
C 88.191358 37.101693 88.760162 36.866087 89.179485 36.446764 
C 89.598808 36.027441 89.834414 35.458637 89.834414 34.865625 
C 89.834414 34.272613 89.598808 33.703809 89.179485 33.284486 
C 88.760162 32.865163 88.191358 32.629557 87.598346 32.629557 
C 87.005334 32.629557 86.43653 32.865163 86.017207 33.284486 
C 85.597884 33.703809 85.362278 34.272613 85.362278 34.865625 
C 85.362278 35.458637 85.597884 36.027441 86.017207 36.446764 
C 86.43653 36.866087 87.005334 37.101693 87.598346 37.101693 
z
" style="fill:#ff0000;stroke:#ff0000;"/>
     <path d="M 95.998346 38.676693 
C 96.591358 38.676693 97.160162 38.441087 97.579485 38.021764 
C 97.998808 37.602441 98.234414 37.033637 98.234414 36.440625 
C 98.234414 35.847613 97.998808 35.278809 97.579485 34.859486 
C 97.160162 34.440163 96.591358 34.204557 95.998346 34.204557 
C 95.405334 34.204557 94.83653 34.440163 94.417207 34.859486 
C 93.997884 35.278809 93.762278 35.847613 93.762278 36.440625 
C 93.762278 37.033637 93.997884 37.602441 94.417207 38.021764 
C 94.83653 38.441087 95.405334 38.676693 95.998346 38.676693 
z
" style="fill:#ff0000;stroke:#ff0000;"/>
    </g>
    <g id="text_2">
     <!-- Z42_hematite -->
     <defs>
      <path d="M 52 44.1875 
Q 55.375 50.25 60.0625 53.125 
Q 64.75 56 71.09375 56 
Q 79.640625 56 84.28125 50.015625 
Q 88.921875 44.046875 88.921875 33.015625 
L 88.921875 0 
L 79.890625 0 
L 79.890625 32.71875 
Q 79.890625 40.578125 77.09375 44.375 
Q 74.3125 48.1875 68.609375 48.1875 
Q 61.625 48.1875 57.5625 43.546875 
Q 53.515625 38.921875 53.515625 30.90625 
L 53.515625 0 
L 44.484375 0 
L 44.484375 32.71875 
Q 44.484375 40.625 41.703125 44.40625 
Q 38.921875 48.1875 33.109375 48.1875 
Q 26.21875 48.1875 22.15625 43.53125 
Q 18.109375 38.875 18.109375 30.90625 
L 18.109375 0 
L 9.078125 0 
L 9.078125 54.6875 
L 18.109375 54.6875 
L 18.109375 46.1875 
Q 21.1875 51.21875 25.484375 53.609375 
Q 29.78125 56 35.6875 56 
Q 41.65625 56 45.828125 52.96875 
Q 50 49.953125 52 44.1875 
" id="BitstreamVeraSans-Roman-6d"/>
      <path d="M 9.421875 54.6875 
L 18.40625 54.6875 
L 18.40625 0 
L 9.421875 0 
z
M 9.421875 75.984375 
L 18.40625 75.984375 
L 18.40625 64.59375 
L 9.421875 64.59375 
z
" id="BitstreamVeraSans-Roman-69"/>
      <path d="M 54.890625 33.015625 
L 54.890625 0 
L 45.90625 0 
L 45.90625 32.71875 
Q 45.90625 40.484375 42.875 44.328125 
Q 39.84375 48.1875 33.796875 48.1875 
Q 26.515625 48.1875 22.3125 43.546875 
Q 18.109375 38.921875 18.109375 30.90625 
L 18.109375 0 
L 9.078125 0 
L 9.078125 75.984375 
L 18.109375 75.984375 
L 18.109375 46.1875 
Q 21.34375 51.125 25.703125 53.5625 
Q 30.078125 56 35.796875 56 
Q 45.21875 56 50.046875 50.171875 
Q 54.890625 44.34375 54.890625 33.015625 
" id="BitstreamVeraSans-Roman-68"/>
      <path d="M 56.203125 29.59375 
L 56.203125 25.203125 
L 14.890625 25.203125 
Q 15.484375 15.921875 20.484375 11.0625 
Q 25.484375 6.203125 34.421875 6.203125 
Q 39.59375 6.203125 44.453125 7.46875 
Q 49.3125 8.734375 54.109375 11.28125 
L 54.109375 2.78125 
Q 49.265625 0.734375 44.1875 -0.34375 
Q 39.109375 -1.421875 33.890625 -1.421875 
Q 20.796875 -1.421875 13.15625 6.1875 
Q 5.515625 13.8125 5.515625 26.8125 
Q 5.515625 40.234375 12.765625 48.109375 
Q 20.015625 56 32.328125 56 
Q 43.359375 56 49.78125 48.890625 
Q 56.203125 41.796875 56.203125 29.59375 
M 47.21875 32.234375 
Q 47.125 39.59375 43.09375 43.984375 
Q 39.0625 48.390625 32.421875 48.390625 
Q 24.90625 48.390625 20.390625 44.140625 
Q 15.875 39.890625 15.1875 32.171875 
z
" id="BitstreamVeraSans-Roman-65"/>
      <path d="M 18.3125 70.21875 
L 18.3125 54.6875 
L 36.8125 54.6875 
L 36.8125 47.703125 
L 18.3125 47.703125 
L 18.3125 18.015625 
Q 18.3125 11.328125 20.140625 9.421875 
Q 21.96875 7.515625 27.59375 7.515625 
L 36.8125 7.515625 
L 36.8125 0 
L 27.59375 0 
Q 17.1875 0 13.234375 3.875 
Q 9.28125 7.765625 9.28125 18.015625 
L 9.28125 47.703125 
L 2.6875 47.703125 
L 2.6875 54.6875 
L 9.28125 54.6875 
L 9.28125 70.21875 
z
" id="BitstreamVeraSans-Roman-74"/>
      <path d="M 34.28125 27.484375 
Q 23.390625 27.484375 19.1875 25 
Q 14.984375 22.515625 14.984375 16.5 
Q 14.984375 11.71875 18.140625 8.90625 
Q 21.296875 6.109375 26.703125 6.109375 
Q 34.1875 6.109375 38.703125 11.40625 
Q 43.21875 16.703125 43.21875 25.484375 
L 43.21875 27.484375 
z
M 52.203125 31.203125 
L 52.203125 0 
L 43.21875 0 
L 43.21875 8.296875 
Q 40.140625 3.328125 35.546875 0.953125 
Q 30.953125 -1.421875 24.3125 -1.421875 
Q 15.921875 -1.421875 10.953125 3.296875 
Q 6 8.015625 6 15.921875 
Q 6 25.140625 12.171875 29.828125 
Q 18.359375 34.515625 30.609375 34.515625 
L 43.21875 34.515625 
L 43.21875 35.40625 
Q 43.21875 41.609375 39.140625 45 
Q 35.0625 48.390625 27.6875 48.390625 
Q 23 48.390625 18.546875 47.265625 
Q 14.109375 46.140625 10.015625 43.890625 
L 10.015625 52.203125 
Q 14.9375 54.109375 19.578125 55.046875 
Q 24.21875 56 28.609375 56 
Q 40.484375 56 46.34375 49.84375 
Q 52.203125 43.703125 52.203125 31.203125 
" id="BitstreamVeraSans-Roman-61"/>
     </defs>
     <g transform="translate(109.198346037 39.065625)scale(0.12 -0.12)">
      <use xlink:href="#BitstreamVeraSans-Roman-5a"/>
      <use x="68.505859375" xlink:href="#BitstreamVeraSans-Roman-34"/>
      <use x="132.12890625" xlink:href="#BitstreamVeraSans-Roman-32"/>
      <use x="195.751953125" xlink:href="#BitstreamVeraSans-Roman-5f"/>
      <use x="245.751953125" xlink:href="#BitstreamVeraSans-Roman-68"/>
      <use x="309.130859375" xlink:href="#BitstreamVeraSans-Roman-65"/>
      <use x="370.654296875" xlink:href="#BitstreamVeraSans-Roman-6d"/>
      <use x="468.06640625" xlink:href="#BitstreamVeraSans-Roman-61"/>
      <use x="529.345703125" xlink:href="#BitstreamVeraSans-Roman-74"/>
      <use x="568.5546875" xlink:href="#BitstreamVeraSans-Roman-69"/>
      <use x="596.337890625" xlink:href="#BitstreamVeraSans-Roman-74"/>
      <use x="635.546875" xlink:href="#BitstreamVeraSans-Roman-65"/>
     </g>
    </g>
    <g id="PathCollection_10">
     <path d="M 76.962278 56.099193 
L 81.434414 56.099193 
L 81.434414 51.627057 
L 76.962278 51.627057 
z
" style="fill:#ffffff;stroke:#bf00bf;"/>
     <path d="M 85.362278 55.049193 
L 89.834414 55.049193 
L 89.834414 50.577057 
L 85.362278 50.577057 
z
" style="fill:#ffffff;stroke:#bf00bf;"/>
     <path d="M 93.762278 56.624193 
L 98.234414 56.624193 
L 98.234414 52.152057 
L 93.762278 52.152057 
z
" style="fill:#ffffff;stroke:#bf00bf;"/>
    </g>
    <g id="text_3">
     <!-- Z42_mid_tc_mean -->
     <defs>
      <path d="M 54.890625 33.015625 
L 54.890625 0 
L 45.90625 0 
L 45.90625 32.71875 
Q 45.90625 40.484375 42.875 44.328125 
Q 39.84375 48.1875 33.796875 48.1875 
Q 26.515625 48.1875 22.3125 43.546875 
Q 18.109375 38.921875 18.109375 30.90625 
L 18.109375 0 
L 9.078125 0 
L 9.078125 54.6875 
L 18.109375 54.6875 
L 18.109375 46.1875 
Q 21.34375 51.125 25.703125 53.5625 
Q 30.078125 56 35.796875 56 
Q 45.21875 56 50.046875 50.171875 
Q 54.890625 44.34375 54.890625 33.015625 
" id="BitstreamVeraSans-Roman-6e"/>
      <path d="M 45.40625 46.390625 
L 45.40625 75.984375 
L 54.390625 75.984375 
L 54.390625 0 
L 45.40625 0 
L 45.40625 8.203125 
Q 42.578125 3.328125 38.25 0.953125 
Q 33.9375 -1.421875 27.875 -1.421875 
Q 17.96875 -1.421875 11.734375 6.484375 
Q 5.515625 14.40625 5.515625 27.296875 
Q 5.515625 40.1875 11.734375 48.09375 
Q 17.96875 56 27.875 56 
Q 33.9375 56 38.25 53.625 
Q 42.578125 51.265625 45.40625 46.390625 
M 14.796875 27.296875 
Q 14.796875 17.390625 18.875 11.75 
Q 22.953125 6.109375 30.078125 6.109375 
Q 37.203125 6.109375 41.296875 11.75 
Q 45.40625 17.390625 45.40625 27.296875 
Q 45.40625 37.203125 41.296875 42.84375 
Q 37.203125 48.484375 30.078125 48.484375 
Q 22.953125 48.484375 18.875 42.84375 
Q 14.796875 37.203125 14.796875 27.296875 
" id="BitstreamVeraSans-Roman-64"/>
      <path d="M 48.78125 52.59375 
L 48.78125 44.1875 
Q 44.96875 46.296875 41.140625 47.34375 
Q 37.3125 48.390625 33.40625 48.390625 
Q 24.65625 48.390625 19.8125 42.84375 
Q 14.984375 37.3125 14.984375 27.296875 
Q 14.984375 17.28125 19.8125 11.734375 
Q 24.65625 6.203125 33.40625 6.203125 
Q 37.3125 6.203125 41.140625 7.25 
Q 44.96875 8.296875 48.78125 10.40625 
L 48.78125 2.09375 
Q 45.015625 0.34375 40.984375 -0.53125 
Q 36.96875 -1.421875 32.421875 -1.421875 
Q 20.0625 -1.421875 12.78125 6.34375 
Q 5.515625 14.109375 5.515625 27.296875 
Q 5.515625 40.671875 12.859375 48.328125 
Q 20.21875 56 33.015625 56 
Q 37.15625 56 41.109375 55.140625 
Q 45.0625 54.296875 48.78125 52.59375 
" id="BitstreamVeraSans-Roman-63"/>
     </defs>
     <g transform="translate(109.198346037 57.013125)scale(0.12 -0.12)">
      <use xlink:href="#BitstreamVeraSans-Roman-5a"/>
      <use x="68.505859375" xlink:href="#BitstreamVeraSans-Roman-34"/>
      <use x="132.12890625" xlink:href="#BitstreamVeraSans-Roman-32"/>
      <use x="195.751953125" xlink:href="#BitstreamVeraSans-Roman-5f"/>
      <use x="245.751953125" xlink:href="#BitstreamVeraSans-Roman-6d"/>
      <use x="343.1640625" xlink:href="#BitstreamVeraSans-Roman-69"/>
      <use x="370.947265625" xlink:href="#BitstreamVeraSans-Roman-64"/>
      <use x="434.423828125" xlink:href="#BitstreamVeraSans-Roman-5f"/>
      <use x="484.423828125" xlink:href="#BitstreamVeraSans-Roman-74"/>
      <use x="523.6328125" xlink:href="#BitstreamVeraSans-Roman-63"/>
      <use x="578.61328125" xlink:href="#BitstreamVeraSans-Roman-5f"/>
      <use x="628.61328125" xlink:href="#BitstreamVeraSans-Roman-6d"/>
      <use x="726.025390625" xlink:href="#BitstreamVeraSans-Roman-65"/>
      <use x="787.548828125" xlink:href="#BitstreamVeraSans-Roman-61"/>
      <use x="848.828125" xlink:href="#BitstreamVeraSans-Roman-6e"/>
     </g>
    </g>
    <g id="PathCollection_11">
     <path d="M 76.962278 74.046693 
L 81.434414 74.046693 
L 81.434414 69.574557 
L 76.962278 69.574557 
z
" style="fill:#ffffff;stroke:#0000ff;"/>
     <path d="M 85.362278 72.996693 
L 89.834414 72.996693 
L 89.834414 68.524557 
L 85.362278 68.524557 
z
" style="fill:#ffffff;stroke:#0000ff;"/>
     <path d="M 93.762278 74.571693 
L 98.234414 74.571693 
L 98.234414 70.099557 
L 93.762278 70.099557 
z
" style="fill:#ffffff;stroke:#0000ff;"/>
    </g>
    <g id="text_4">
     <!-- Z42_mag_tc_mean -->
     <defs>
      <path d="M 45.40625 27.984375 
Q 45.40625 37.75 41.375 43.109375 
Q 37.359375 48.484375 30.078125 48.484375 
Q 22.859375 48.484375 18.828125 43.109375 
Q 14.796875 37.75 14.796875 27.984375 
Q 14.796875 18.265625 18.828125 12.890625 
Q 22.859375 7.515625 30.078125 7.515625 
Q 37.359375 7.515625 41.375 12.890625 
Q 45.40625 18.265625 45.40625 27.984375 
M 54.390625 6.78125 
Q 54.390625 -7.171875 48.1875 -13.984375 
Q 42 -20.796875 29.203125 -20.796875 
Q 24.46875 -20.796875 20.265625 -20.09375 
Q 16.0625 -19.390625 12.109375 -17.921875 
L 12.109375 -9.1875 
Q 16.0625 -11.328125 19.921875 -12.34375 
Q 23.78125 -13.375 27.78125 -13.375 
Q 36.625 -13.375 41.015625 -8.765625 
Q 45.40625 -4.15625 45.40625 5.171875 
L 45.40625 9.625 
Q 42.625 4.78125 38.28125 2.390625 
Q 33.9375 0 27.875 0 
Q 17.828125 0 11.671875 7.65625 
Q 5.515625 15.328125 5.515625 27.984375 
Q 5.515625 40.671875 11.671875 48.328125 
Q 17.828125 56 27.875 56 
Q 33.9375 56 38.28125 53.609375 
Q 42.625 51.21875 45.40625 46.390625 
L 45.40625 54.6875 
L 54.390625 54.6875 
z
" id="BitstreamVeraSans-Roman-67"/>
     </defs>
     <g transform="translate(109.198346037 74.960625)scale(0.12 -0.12)">
      <use xlink:href="#BitstreamVeraSans-Roman-5a"/>
      <use x="68.505859375" xlink:href="#BitstreamVeraSans-Roman-34"/>
      <use x="132.12890625" xlink:href="#BitstreamVeraSans-Roman-32"/>
      <use x="195.751953125" xlink:href="#BitstreamVeraSans-Roman-5f"/>
      <use x="245.751953125" xlink:href="#BitstreamVeraSans-Roman-6d"/>
      <use x="343.1640625" xlink:href="#BitstreamVeraSans-Roman-61"/>
      <use x="404.443359375" xlink:href="#BitstreamVeraSans-Roman-67"/>
      <use x="467.919921875" xlink:href="#BitstreamVeraSans-Roman-5f"/>
      <use x="517.919921875" xlink:href="#BitstreamVeraSans-Roman-74"/>
      <use x="557.12890625" xlink:href="#BitstreamVeraSans-Roman-63"/>
      <use x="612.109375" xlink:href="#BitstreamVeraSans-Roman-5f"/>
      <use x="662.109375" xlink:href="#BitstreamVeraSans-Roman-6d"/>
      <use x="759.521484375" xlink:href="#BitstreamVeraSans-Roman-65"/>
      <use x="821.044921875" xlink:href="#BitstreamVeraSans-Roman-61"/>
      <use x="882.32421875" xlink:href="#BitstreamVeraSans-Roman-6e"/>
     </g>
    </g>
    <g id="PathCollection_12">
     <path d="M 76.962278 91.994193 
L 81.434414 91.994193 
L 81.434414 87.522057 
L 76.962278 87.522057 
z
" style="fill:#ff0000;stroke:#ff0000;"/>
     <path d="M 85.362278 90.944193 
L 89.834414 90.944193 
L 89.834414 86.472057 
L 85.362278 86.472057 
z
" style="fill:#ff0000;stroke:#ff0000;"/>
     <path d="M 93.762278 92.519193 
L 98.234414 92.519193 
L 98.234414 88.047057 
L 93.762278 88.047057 
z
" style="fill:#ff0000;stroke:#ff0000;"/>
    </g>
    <g id="text_5">
     <!-- Z42_hem_tc_mean -->
     <g transform="translate(109.198346037 92.908125)scale(0.12 -0.12)">
      <use xlink:href="#BitstreamVeraSans-Roman-5a"/>
      <use x="68.505859375" xlink:href="#BitstreamVeraSans-Roman-34"/>
      <use x="132.12890625" xlink:href="#BitstreamVeraSans-Roman-32"/>
      <use x="195.751953125" xlink:href="#BitstreamVeraSans-Roman-5f"/>
      <use x="245.751953125" xlink:href="#BitstreamVeraSans-Roman-68"/>
      <use x="309.130859375" xlink:href="#BitstreamVeraSans-Roman-65"/>
      <use x="370.654296875" xlink:href="#BitstreamVeraSans-Roman-6d"/>
      <use x="468.06640625" xlink:href="#BitstreamVeraSans-Roman-5f"/>
      <use x="518.06640625" xlink:href="#BitstreamVeraSans-Roman-74"/>
      <use x="557.275390625" xlink:href="#BitstreamVeraSans-Roman-63"/>
      <use x="612.255859375" xlink:href="#BitstreamVeraSans-Roman-5f"/>
      <use x="662.255859375" xlink:href="#BitstreamVeraSans-Roman-6d"/>
      <use x="759.66796875" xlink:href="#BitstreamVeraSans-Roman-65"/>
      <use x="821.19140625" xlink:href="#BitstreamVeraSans-Roman-61"/>
      <use x="882.470703125" xlink:href="#BitstreamVeraSans-Roman-6e"/>
     </g>
    </g>
   </g>
  </g>
 </g>
 <defs>
  <clipPath id="p5082a215a3">
   <rect height="253.4" width="235.436890244" x="35.4828125" y="37.1875"/>
  </clipPath>
 </defs>
</svg>
