<?xml version="1.0" encoding="utf-8" standalone="no"?>
<!DOCTYPE svg PUBLIC "-//W3C//DTD SVG 1.1//EN"
  "http://www.w3.org/Graphics/SVG/1.1/DTD/svg11.dtd">
<!-- Created with matplotlib (http://matplotlib.org/) -->
<svg height="293pt" version="1.1" viewBox="0 0 280 293" width="280pt" xmlns="http://www.w3.org/2000/svg" xmlns:xlink="http://www.w3.org/1999/xlink">
 <defs>
  <style type="text/css">
*{stroke-linecap:butt;stroke-linejoin:round;stroke-miterlimit:100000;}
  </style>
 </defs>
 <g id="figure_1">
  <g id="patch_1">
   <path d="M 0 293.518125 
L 280.465625 293.518125 
L 280.465625 0 
L 0 0 
L 0 293.518125 
z
" style="fill:none;"/>
  </g>
  <g id="axes_1">
   <g id="PathCollection_1">
    <defs>
     <path d="M 0 2.236068 
C 0.593012 2.236068 1.161816 2.000462 1.581139 1.581139 
C 2.000462 1.161816 2.236068 0.593012 2.236068 0 
C 2.236068 -0.593012 2.000462 -1.161816 1.581139 -1.581139 
C 1.161816 -2.000462 0.593012 -2.236068 0 -2.236068 
C -0.593012 -2.236068 -1.161816 -2.000462 -1.581139 -1.581139 
C -2.000462 -1.161816 -2.236068 -0.593012 -2.236068 0 
C -2.236068 0.593012 -2.000462 1.161816 -1.581139 1.581139 
C -1.161816 2.000462 -0.593012 2.236068 0 2.236068 
z
" id="mdb8e19e036" style="stroke:#008000;"/>
    </defs>
    <g clip-path="url(#p553f1ee0ce)">
     <use style="fill:#008000;stroke:#008000;" x="119.148209166" xlink:href="#mdb8e19e036" y="103.789820186"/>
     <use style="fill:#008000;stroke:#008000;" x="133.005436792" xlink:href="#mdb8e19e036" y="119.747645555"/>
     <use style="fill:#008000;stroke:#008000;" x="148.841592738" xlink:href="#mdb8e19e036" y="105.858265996"/>
     <use style="fill:#008000;stroke:#008000;" x="135.758177038" xlink:href="#mdb8e19e036" y="106.063774323"/>
     <use style="fill:#008000;stroke:#008000;" x="143.094348862" xlink:href="#mdb8e19e036" y="109.540764611"/>
     <use style="fill:#008000;stroke:#008000;" x="143.186172535" xlink:href="#mdb8e19e036" y="109.376318654"/>
     <use style="fill:#008000;stroke:#008000;" x="150.423617438" xlink:href="#mdb8e19e036" y="109.886017092"/>
     <use style="fill:#008000;stroke:#008000;" x="145.597452946" xlink:href="#mdb8e19e036" y="111.964630365"/>
    </g>
   </g>
   <g id="PathCollection_2">
    <defs>
     <path d="M 0 2.236068 
C 0.593012 2.236068 1.161816 2.000462 1.581139 1.581139 
C 2.000462 1.161816 2.236068 0.593012 2.236068 0 
C 2.236068 -0.593012 2.000462 -1.161816 1.581139 -1.581139 
C 1.161816 -2.000462 0.593012 -2.236068 0 -2.236068 
C -0.593012 -2.236068 -1.161816 -2.000462 -1.581139 -1.581139 
C -2.000462 -1.161816 -2.236068 -0.593012 -2.236068 0 
C -2.236068 0.593012 -2.000462 1.161816 -1.581139 1.581139 
C -1.161816 2.000462 -0.593012 2.236068 0 2.236068 
z
" id="C0_0_6a653ef8a5"/>
    </defs>
    <g clip-path="url(#p553f1ee0ce)">
     <use style="fill:none;stroke:#0000ff;" x="109.244899275" xlink:href="#C0_0_6a653ef8a5" y="188.63279262"/>
    </g>
    <g clip-path="url(#p553f1ee0ce)">
     <use style="fill:none;stroke:#0000ff;" x="92.1871857205" xlink:href="#C0_0_6a653ef8a5" y="187.665507389"/>
    </g>
    <g clip-path="url(#p553f1ee0ce)">
     <use style="fill:none;stroke:#0000ff;" x="88.2598128832" xlink:href="#C0_0_6a653ef8a5" y="194.994049002"/>
    </g>
    <g clip-path="url(#p553f1ee0ce)">
     <use style="fill:none;stroke:#0000ff;" x="96.2584754751" xlink:href="#C0_0_6a653ef8a5" y="196.968609886"/>
    </g>
    <g clip-path="url(#p553f1ee0ce)">
     <use style="fill:none;stroke:#0000ff;" x="106.807939926" xlink:href="#C0_0_6a653ef8a5" y="198.129386588"/>
    </g>
    <g clip-path="url(#p553f1ee0ce)">
     <use style="fill:none;stroke:#0000ff;" x="91.0302878468" xlink:href="#C0_0_6a653ef8a5" y="215.878192355"/>
    </g>
    <g clip-path="url(#p553f1ee0ce)">
     <use style="fill:none;stroke:#0000ff;" x="101.810933596" xlink:href="#C0_0_6a653ef8a5" y="209.323230675"/>
    </g>
    <g clip-path="url(#p553f1ee0ce)">
     <use style="fill:none;stroke:#0000ff;" x="88.9853220551" xlink:href="#C0_0_6a653ef8a5" y="186.799436364"/>
    </g>
   </g>
   <g id="PathCollection_3">
    <defs>
     <path d="M 0 2.236068 
C 0.593012 2.236068 1.161816 2.000462 1.581139 1.581139 
C 2.000462 1.161816 2.236068 0.593012 2.236068 0 
C 2.236068 -0.593012 2.000462 -1.161816 1.581139 -1.581139 
C 1.161816 -2.000462 0.593012 -2.236068 0 -2.236068 
C -0.593012 -2.236068 -1.161816 -2.000462 -1.581139 -1.581139 
C -2.000462 -1.161816 -2.236068 -0.593012 -2.236068 0 
C -2.236068 0.593012 -2.000462 1.161816 -1.581139 1.581139 
C -1.161816 2.000462 -0.593012 2.236068 0 2.236068 
z
" id="ma346f54f60" style="stroke:#ff0000;"/>
    </defs>
    <g clip-path="url(#p553f1ee0ce)">
     <use style="fill:#ff0000;stroke:#ff0000;" x="162.101309394" xlink:href="#ma346f54f60" y="238.256188834"/>
     <use style="fill:#ff0000;stroke:#ff0000;" x="177.079671536" xlink:href="#ma346f54f60" y="232.522755761"/>
     <use style="fill:#ff0000;stroke:#ff0000;" x="157.049819891" xlink:href="#ma346f54f60" y="230.587042315"/>
     <use style="fill:#ff0000;stroke:#ff0000;" x="161.038173268" xlink:href="#ma346f54f60" y="235.405505029"/>
     <use style="fill:#ff0000;stroke:#ff0000;" x="167.320564492" xlink:href="#ma346f54f60" y="239.184033323"/>
     <use style="fill:#ff0000;stroke:#ff0000;" x="164.091316252" xlink:href="#ma346f54f60" y="228.555843748"/>
     <use style="fill:#ff0000;stroke:#ff0000;" x="148.344735211" xlink:href="#ma346f54f60" y="235.502145047"/>
     <use style="fill:#ff0000;stroke:#ff0000;" x="140.281474802" xlink:href="#ma346f54f60" y="240.139996925"/>
    </g>
   </g>
   <g id="PathCollection_4">
    <defs>
     <path d="M -2.236068 2.236068 
L 2.236068 2.236068 
L 2.236068 -2.236068 
L -2.236068 -2.236068 
z
" id="m9fc6056d75" style="stroke:#0000ff;"/>
    </defs>
    <g clip-path="url(#p553f1ee0ce)">
     <use style="fill:#ffffff;stroke:#0000ff;" x="96.4260376675" xlink:href="#m9fc6056d75" y="197.53747145"/>
    </g>
   </g>
   <g id="PathCollection_5">
    <defs>
     <path d="M -2.236068 2.236068 
L 2.236068 2.236068 
L 2.236068 -2.236068 
L -2.236068 -2.236068 
z
" id="m8cd464cf0f" style="stroke:#ff0000;"/>
    </defs>
    <g clip-path="url(#p553f1ee0ce)">
     <use style="fill:#ff0000;stroke:#ff0000;" x="159.757330445" xlink:href="#m8cd464cf0f" y="235.530440962"/>
    </g>
   </g>
   <g id="line2d_1">
    <path clip-path="url(#p553f1ee0ce)" d="M 153.201258 33.965935 
L 159.068788 34.119392 
L 164.920237 34.579341 
L 170.739564 35.344522 
L 176.51082 36.412837 
L 182.218187 37.781359 
L 187.84602 39.446336 
L 193.378894 41.403205 
L 198.801643 43.646602 
L 204.099406 46.170378 
L 209.25766 48.967615 
L 214.262267 52.030648 
L 219.099511 55.351079 
L 223.756132 58.919808 
L 228.219367 62.727053 
L 232.476982 66.76238 
L 236.517308 71.014726 
L 240.329271 75.472438 
L 243.902422 80.123296 
L 247.226967 84.954553 
L 250.293795 89.952968 
L 253.094498 95.104838 
L 255.621401 100.396045 
L 257.867578 105.812084 
L 259.826871 111.338111 
L 261.493911 116.95898 
L 262.864129 122.659283 
L 263.933768 128.423397 
L 264.699897 134.235523 
L 265.160416 140.07973 
L 265.314062 145.94 
L 265.160416 151.80027 
L 264.699897 157.644477 
L 263.933768 163.456603 
L 262.864129 169.220717 
L 261.493911 174.92102 
L 259.826871 180.541889 
L 257.867578 186.067916 
L 255.621401 191.483955 
L 253.094498 196.775162 
L 250.293795 201.927032 
L 247.226967 206.925447 
L 243.902422 211.756704 
L 240.329271 216.407562 
L 236.517308 220.865274 
L 232.476982 225.11762 
L 228.219367 229.152947 
L 223.756132 232.960192 
L 219.099511 236.528921 
L 214.262267 239.849352 
L 209.25766 242.912385 
L 204.099406 245.709622 
L 198.801643 248.233398 
L 193.378894 250.476795 
L 187.84602 252.433664 
L 182.218187 254.098641 
L 176.51082 255.467163 
L 170.739564 256.535478 
L 164.920237 257.300659 
L 159.068788 257.760608 
L 153.201258 257.914065 
L 147.333727 257.760608 
L 141.482278 257.300659 
L 135.662951 256.535478 
L 129.891695 255.467163 
L 124.184328 254.098641 
L 118.556496 252.433664 
L 113.023622 250.476795 
L 107.600872 248.233398 
L 102.303109 245.709622 
L 97.144855 242.912385 
L 92.140248 239.849352 
L 87.303004 236.528921 
L 82.646383 232.960192 
L 78.183148 229.152947 
L 73.925533 225.11762 
L 69.885207 220.865274 
L 66.073244 216.407562 
L 62.500093 211.756704 
L 59.175548 206.925447 
L 56.10872 201.927032 
L 53.308017 196.775162 
L 50.781114 191.483955 
L 48.534937 186.067916 
L 46.575644 180.541889 
L 44.908604 174.92102 
L 43.538387 169.220717 
L 42.468747 163.456603 
L 41.702618 157.644477 
L 41.242099 151.80027 
L 41.088453 145.94 
L 41.242099 140.07973 
L 41.702618 134.235523 
L 42.468747 128.423397 
L 43.538387 122.659283 
L 44.908604 116.95898 
L 46.575644 111.338111 
L 48.534937 105.812084 
L 50.781114 100.396045 
L 53.308017 95.104838 
L 56.10872 89.952968 
L 59.175548 84.954553 
L 62.500093 80.123296 
L 66.073244 75.472438 
L 69.885207 71.014726 
L 73.925533 66.76238 
L 78.183148 62.727053 
L 82.646383 58.919808 
L 87.303004 55.351079 
L 92.140248 52.030648 
L 97.144855 48.967615 
L 102.303109 46.170378 
L 107.600872 43.646602 
L 113.023622 41.403205 
L 118.556496 39.446336 
L 124.184328 37.781359 
L 129.891695 36.412837 
L 135.662951 35.344522 
L 141.482278 34.579341 
L 147.333727 34.119392 
L 153.201258 33.965935 
L 153.201258 33.965935 
" style="fill:none;stroke:#000000;stroke-linecap:square;"/>
   </g>
   <g id="line2d_2">
    <defs>
     <path d="M -3 0 
L 3 0 
M 0 3 
L 0 -3 
" id="m3e5b2897cd" style="stroke:#000000;stroke-width:0.5;"/>
    </defs>
    <g clip-path="url(#p553f1ee0ce)">
     <use style="stroke:#000000;stroke-width:0.5;" x="153.201257575" xlink:href="#m3e5b2897cd" y="44.1512132669"/>
     <use style="stroke:#000000;stroke-width:0.5;" x="153.201257575" xlink:href="#m3e5b2897cd" y="55.1111652884"/>
     <use style="stroke:#000000;stroke-width:0.5;" x="153.201257575" xlink:href="#m3e5b2897cd" y="66.762379586"/>
     <use style="stroke:#000000;stroke-width:0.5;" x="153.201257575" xlink:href="#m3e5b2897cd" y="79.0161833838"/>
     <use style="stroke:#000000;stroke-width:0.5;" x="153.201257575" xlink:href="#m3e5b2897cd" y="91.7793178357"/>
     <use style="stroke:#000000;stroke-width:0.5;" x="153.201257575" xlink:href="#m3e5b2897cd" y="104.954647782"/>
     <use style="stroke:#000000;stroke-width:0.5;" x="153.201257575" xlink:href="#m3e5b2897cd" y="118.441901006"/>
     <use style="stroke:#000000;stroke-width:0.5;" x="153.201257575" xlink:href="#m3e5b2897cd" y="132.138431368"/>
     <use style="stroke:#000000;stroke-width:0.5;" x="153.201257575" xlink:href="#m3e5b2897cd" y="145.94"/>
    </g>
   </g>
   <g id="line2d_3">
    <g clip-path="url(#p553f1ee0ce)">
     <use style="stroke:#000000;stroke-width:0.5;" x="255.116164562" xlink:href="#m3e5b2897cd" y="145.94"/>
     <use style="stroke:#000000;stroke-width:0.5;" x="244.142632735" xlink:href="#m3e5b2897cd" y="145.94"/>
     <use style="stroke:#000000;stroke-width:0.5;" x="232.476982131" xlink:href="#m3e5b2897cd" y="145.94"/>
     <use style="stroke:#000000;stroke-width:0.5;" x="220.207995395" xlink:href="#m3e5b2897cd" y="145.94"/>
     <use style="stroke:#000000;stroke-width:0.5;" x="207.429046925" xlink:href="#m3e5b2897cd" y="145.94"/>
     <use style="stroke:#000000;stroke-width:0.5;" x="194.237392234" xlink:href="#m3e5b2897cd" y="145.94"/>
     <use style="stroke:#000000;stroke-width:0.5;" x="180.73342778" xlink:href="#m3e5b2897cd" y="145.94"/>
     <use style="stroke:#000000;stroke-width:0.5;" x="167.019926886" xlink:href="#m3e5b2897cd" y="145.94"/>
    </g>
   </g>
   <g id="line2d_4">
    <g clip-path="url(#p553f1ee0ce)">
     <use style="stroke:#000000;stroke-width:0.5;" x="153.201257575" xlink:href="#m3e5b2897cd" y="247.728786733"/>
     <use style="stroke:#000000;stroke-width:0.5;" x="153.201257575" xlink:href="#m3e5b2897cd" y="236.768834712"/>
     <use style="stroke:#000000;stroke-width:0.5;" x="153.201257575" xlink:href="#m3e5b2897cd" y="225.117620414"/>
     <use style="stroke:#000000;stroke-width:0.5;" x="153.201257575" xlink:href="#m3e5b2897cd" y="212.863816616"/>
     <use style="stroke:#000000;stroke-width:0.5;" x="153.201257575" xlink:href="#m3e5b2897cd" y="200.100682164"/>
     <use style="stroke:#000000;stroke-width:0.5;" x="153.201257575" xlink:href="#m3e5b2897cd" y="186.925352218"/>
     <use style="stroke:#000000;stroke-width:0.5;" x="153.201257575" xlink:href="#m3e5b2897cd" y="173.438098994"/>
     <use style="stroke:#000000;stroke-width:0.5;" x="153.201257575" xlink:href="#m3e5b2897cd" y="159.741568632"/>
    </g>
   </g>
   <g id="line2d_5">
    <g clip-path="url(#p553f1ee0ce)">
     <use style="stroke:#000000;stroke-width:0.5;" x="51.2863505886" xlink:href="#m3e5b2897cd" y="145.94"/>
     <use style="stroke:#000000;stroke-width:0.5;" x="62.2598824157" xlink:href="#m3e5b2897cd" y="145.94"/>
     <use style="stroke:#000000;stroke-width:0.5;" x="73.9255330196" xlink:href="#m3e5b2897cd" y="145.94"/>
     <use style="stroke:#000000;stroke-width:0.5;" x="86.1945197553" xlink:href="#m3e5b2897cd" y="145.94"/>
     <use style="stroke:#000000;stroke-width:0.5;" x="98.9734682256" xlink:href="#m3e5b2897cd" y="145.94"/>
     <use style="stroke:#000000;stroke-width:0.5;" x="112.165122917" xlink:href="#m3e5b2897cd" y="145.94"/>
     <use style="stroke:#000000;stroke-width:0.5;" x="125.669087371" xlink:href="#m3e5b2897cd" y="145.94"/>
     <use style="stroke:#000000;stroke-width:0.5;" x="139.382588264" xlink:href="#m3e5b2897cd" y="145.94"/>
    </g>
   </g>
   <g id="line2d_6">
    <path clip-path="url(#p553f1ee0ce)" d="M 153.201258 33.965935 
L 153.201258 34.947345 
L 153.201258 35.937206 
L 153.201258 36.935445 
" style="fill:none;stroke:#000000;stroke-linecap:square;"/>
   </g>
   <g id="line2d_7">
    <path clip-path="url(#p553f1ee0ce)" d="M 172.669442 35.667073 
L 172.498811 36.633572 
L 172.32671 37.608396 
L 172.153153 38.59147 
" style="fill:none;stroke:#000000;stroke-linecap:square;"/>
   </g>
   <g id="line2d_8">
    <path clip-path="url(#p553f1ee0ce)" d="M 191.546095 40.718798 
L 191.210018 41.641021 
L 190.871045 42.571187 
L 190.529205 43.509224 
" style="fill:none;stroke:#000000;stroke-linecap:square;"/>
   </g>
   <g id="line2d_9">
    <path clip-path="url(#p553f1ee0ce)" d="M 209.25766 48.967615 
L 208.766347 49.817541 
L 208.270803 50.674786 
L 207.771065 51.539287 
" style="fill:none;stroke:#000000;stroke-linecap:square;"/>
   </g>
   <g id="line2d_10">
    <path clip-path="url(#p553f1ee0ce)" d="M 225.265979 60.16289 
L 224.63436 60.914693 
L 223.997301 61.672971 
L 223.35485 62.437667 
" style="fill:none;stroke:#000000;stroke-linecap:square;"/>
   </g>
   <g id="line2d_11">
    <path clip-path="url(#p553f1ee0ce)" d="M 239.084649 73.964459 
L 238.331914 74.595296 
L 237.572696 75.231567 
L 236.807054 75.873223 
" style="fill:none;stroke:#000000;stroke-linecap:square;"/>
   </g>
   <g id="line2d_12">
    <path clip-path="url(#p553f1ee0ce)" d="M 250.293795 89.952968 
L 249.442816 90.443672 
L 248.584509 90.938603 
L 247.718937 91.437723 
" style="fill:none;stroke:#000000;stroke-linecap:square;"/>
   </g>
   <g id="line2d_13">
    <path clip-path="url(#p553f1ee0ce)" d="M 258.552833 107.642614 
L 257.629467 107.978276 
L 256.698149 108.316829 
L 255.758949 108.658247 
" style="fill:none;stroke:#000000;stroke-linecap:square;"/>
   </g>
   <g id="line2d_14">
    <path clip-path="url(#p553f1ee0ce)" d="M 263.610817 126.495908 
L 262.64312 126.666328 
L 261.667089 126.838215 
L 260.682797 127.011558 
" style="fill:none;stroke:#000000;stroke-linecap:square;"/>
   </g>
   <g id="line2d_15">
    <path clip-path="url(#p553f1ee0ce)" d="M 265.314062 145.94 
L 264.331437 145.94 
L 263.340349 145.94 
L 262.340873 145.94 
" style="fill:none;stroke:#000000;stroke-linecap:square;"/>
   </g>
   <g id="line2d_16">
    <path clip-path="url(#p553f1ee0ce)" d="M 263.610817 165.384092 
L 262.64312 165.213672 
L 261.667089 165.041785 
L 260.682797 164.868442 
" style="fill:none;stroke:#000000;stroke-linecap:square;"/>
   </g>
   <g id="line2d_17">
    <path clip-path="url(#p553f1ee0ce)" d="M 258.552833 184.237386 
L 257.629467 183.901724 
L 256.698149 183.563171 
L 255.758949 183.221753 
" style="fill:none;stroke:#000000;stroke-linecap:square;"/>
   </g>
   <g id="line2d_18">
    <path clip-path="url(#p553f1ee0ce)" d="M 250.293795 201.927032 
L 249.442816 201.436328 
L 248.584509 200.941397 
L 247.718937 200.442277 
" style="fill:none;stroke:#000000;stroke-linecap:square;"/>
   </g>
   <g id="line2d_19">
    <path clip-path="url(#p553f1ee0ce)" d="M 239.084649 217.915541 
L 238.331914 217.284704 
L 237.572696 216.648433 
L 236.807054 216.006777 
" style="fill:none;stroke:#000000;stroke-linecap:square;"/>
   </g>
   <g id="line2d_20">
    <path clip-path="url(#p553f1ee0ce)" d="M 225.265979 231.71711 
L 224.63436 230.965307 
L 223.997301 230.207029 
L 223.35485 229.442333 
" style="fill:none;stroke:#000000;stroke-linecap:square;"/>
   </g>
   <g id="line2d_21">
    <path clip-path="url(#p553f1ee0ce)" d="M 209.25766 242.912385 
L 208.766347 242.062459 
L 208.270803 241.205214 
L 207.771065 240.340713 
" style="fill:none;stroke:#000000;stroke-linecap:square;"/>
   </g>
   <g id="line2d_22">
    <path clip-path="url(#p553f1ee0ce)" d="M 191.546095 251.161202 
L 191.210018 250.238979 
L 190.871045 249.308813 
L 190.529205 248.370776 
" style="fill:none;stroke:#000000;stroke-linecap:square;"/>
   </g>
   <g id="line2d_23">
    <path clip-path="url(#p553f1ee0ce)" d="M 172.669442 256.212927 
L 172.498811 255.246428 
L 172.32671 254.271604 
L 172.153153 253.28853 
" style="fill:none;stroke:#000000;stroke-linecap:square;"/>
   </g>
   <g id="line2d_24">
    <path clip-path="url(#p553f1ee0ce)" d="M 153.201258 257.914065 
L 153.201258 256.932655 
L 153.201258 255.942794 
L 153.201258 254.944555 
" style="fill:none;stroke:#000000;stroke-linecap:square;"/>
   </g>
   <g id="line2d_25">
    <path clip-path="url(#p553f1ee0ce)" d="M 133.733073 256.212927 
L 133.903704 255.246428 
L 134.075805 254.271604 
L 134.249362 253.28853 
" style="fill:none;stroke:#000000;stroke-linecap:square;"/>
   </g>
   <g id="line2d_26">
    <path clip-path="url(#p553f1ee0ce)" d="M 114.85642 251.161202 
L 115.192498 250.238979 
L 115.53147 249.308813 
L 115.873311 248.370776 
" style="fill:none;stroke:#000000;stroke-linecap:square;"/>
   </g>
   <g id="line2d_27">
    <path clip-path="url(#p553f1ee0ce)" d="M 97.144855 242.912385 
L 97.636168 242.062459 
L 98.131712 241.205214 
L 98.63145 240.340713 
" style="fill:none;stroke:#000000;stroke-linecap:square;"/>
   </g>
   <g id="line2d_28">
    <path clip-path="url(#p553f1ee0ce)" d="M 81.136536 231.71711 
L 81.768155 230.965307 
L 82.405214 230.207029 
L 83.047665 229.442333 
" style="fill:none;stroke:#000000;stroke-linecap:square;"/>
   </g>
   <g id="line2d_29">
    <path clip-path="url(#p553f1ee0ce)" d="M 67.317866 217.915541 
L 68.070601 217.284704 
L 68.829819 216.648433 
L 69.595462 216.006777 
" style="fill:none;stroke:#000000;stroke-linecap:square;"/>
   </g>
   <g id="line2d_30">
    <path clip-path="url(#p553f1ee0ce)" d="M 56.10872 201.927032 
L 56.959699 201.436328 
L 57.818007 200.941397 
L 58.683578 200.442277 
" style="fill:none;stroke:#000000;stroke-linecap:square;"/>
   </g>
   <g id="line2d_31">
    <path clip-path="url(#p553f1ee0ce)" d="M 47.849682 184.237386 
L 48.773048 183.901724 
L 49.704366 183.563171 
L 50.643566 183.221753 
" style="fill:none;stroke:#000000;stroke-linecap:square;"/>
   </g>
   <g id="line2d_32">
    <path clip-path="url(#p553f1ee0ce)" d="M 42.791698 165.384092 
L 43.759395 165.213672 
L 44.735427 165.041785 
L 45.719718 164.868442 
" style="fill:none;stroke:#000000;stroke-linecap:square;"/>
   </g>
   <g id="line2d_33">
    <path clip-path="url(#p553f1ee0ce)" d="M 41.088453 145.94 
L 42.071078 145.94 
L 43.062166 145.94 
L 44.061642 145.94 
" style="fill:none;stroke:#000000;stroke-linecap:square;"/>
   </g>
   <g id="line2d_34">
    <path clip-path="url(#p553f1ee0ce)" d="M 42.791698 126.495908 
L 43.759395 126.666328 
L 44.735427 126.838215 
L 45.719718 127.011558 
" style="fill:none;stroke:#000000;stroke-linecap:square;"/>
   </g>
   <g id="line2d_35">
    <path clip-path="url(#p553f1ee0ce)" d="M 47.849682 107.642614 
L 48.773048 107.978276 
L 49.704366 108.316829 
L 50.643566 108.658247 
" style="fill:none;stroke:#000000;stroke-linecap:square;"/>
   </g>
   <g id="line2d_36">
    <path clip-path="url(#p553f1ee0ce)" d="M 56.10872 89.952968 
L 56.959699 90.443672 
L 57.818007 90.938603 
L 58.683578 91.437723 
" style="fill:none;stroke:#000000;stroke-linecap:square;"/>
   </g>
   <g id="line2d_37">
    <path clip-path="url(#p553f1ee0ce)" d="M 67.317866 73.964459 
L 68.070601 74.595296 
L 68.829819 75.231567 
L 69.595462 75.873223 
" style="fill:none;stroke:#000000;stroke-linecap:square;"/>
   </g>
   <g id="line2d_38">
    <path clip-path="url(#p553f1ee0ce)" d="M 81.136536 60.16289 
L 81.768155 60.914693 
L 82.405214 61.672971 
L 83.047665 62.437667 
" style="fill:none;stroke:#000000;stroke-linecap:square;"/>
   </g>
   <g id="line2d_39">
    <path clip-path="url(#p553f1ee0ce)" d="M 97.144855 48.967615 
L 97.636168 49.817541 
L 98.131712 50.674786 
L 98.63145 51.539287 
" style="fill:none;stroke:#000000;stroke-linecap:square;"/>
   </g>
   <g id="line2d_40">
    <path clip-path="url(#p553f1ee0ce)" d="M 114.85642 40.718798 
L 115.192498 41.641021 
L 115.53147 42.571187 
L 115.873311 43.509224 
" style="fill:none;stroke:#000000;stroke-linecap:square;"/>
   </g>
   <g id="line2d_41">
    <path clip-path="url(#p553f1ee0ce)" d="M 133.733073 35.667073 
L 133.903704 36.633572 
L 134.075805 37.608396 
L 134.249362 38.59147 
" style="fill:none;stroke:#000000;stroke-linecap:square;"/>
   </g>
   <g id="line2d_42">
    <path clip-path="url(#p553f1ee0ce)" d="M 89.555747 189.339025 
L 89.174509 189.68431 
L 88.821462 190.061144 
L 88.49819 190.46822 
L 88.20618 190.904089 
L 87.946808 191.367161 
L 87.721337 191.855715 
L 87.530904 192.367896 
L 87.376514 192.901726 
L 87.259029 193.455109 
L 87.179162 194.025839 
L 87.137472 194.611608 
L 87.134355 195.210013 
L 87.170036 195.818574 
L 87.244572 196.434737 
L 87.357839 197.055893 
L 87.509536 197.679387 
L 87.69918 198.302532 
L 87.926107 198.922627 
L 88.189471 199.536967 
L 88.488249 200.142863 
L 88.821243 200.737651 
L 89.187083 201.318714 
L 89.584237 201.883492 
L 90.011017 202.429502 
L 90.465586 202.954346 
L 90.945969 203.45573 
L 91.450064 203.931475 
L 91.975657 204.379528 
L 92.520429 204.797978 
L 93.081973 205.185059 
L 93.657808 205.539163 
L 94.245395 205.85885 
L 94.842147 206.142846 
L 95.445448 206.390059 
L 96.052667 206.599573 
L 96.661173 206.770655 
L 97.268347 206.902755 
L 97.8716 206.995505 
L 98.468381 207.048721 
L 99.056196 207.062394 
L 99.632613 207.036692 
L 100.195279 206.971951 
L 100.741929 206.868675 
L 101.27039 206.727523 
L 101.778597 206.549308 
L 102.264594 206.334987 
L 102.726547 206.085652 
L 103.162742 205.802523 
L 103.571594 205.486942 
L 103.951651 205.140359 
L 104.301594 204.76433 
L 104.620242 204.3605 
L 104.906552 203.930604 
L 105.159618 203.476448 
L 105.378675 202.999911 
L 105.563092 202.502927 
L 105.712379 201.987485 
L 105.826177 201.455617 
L 105.904264 200.909389 
L 105.946546 200.350899 
L 105.953058 199.782263 
L 105.923959 199.205616 
L 105.859533 198.623099 
L 105.76018 198.036855 
L 105.626416 197.449025 
L 105.458868 196.861739 
L 105.258272 196.277112 
L 105.025467 195.697238 
L 104.761395 195.124186 
L 104.467091 194.559994 
L 104.143684 194.006664 
L 103.792395 193.466159 
L 103.414525 192.940393 
L 103.01146 192.431236 
L 102.58466 191.940499 
L 102.135662 191.469936 
L 101.666068 191.02124 
L 101.177549 190.596033 
L 100.671835 190.195868 
L 100.150714 189.822222 
L 99.616027 189.476491 
L 99.069664 189.159986 
L 98.513557 188.87393 
L 97.949681 188.619452 
L 97.380045 188.397585 
L 96.806687 188.209258 
L 96.231673 188.055297 
L 95.657085 187.936416 
L 95.085025 187.853215 
L 94.517599 187.806176 
L 93.956919 187.795658 
L 93.405093 187.821897 
L 92.864219 187.884996 
L 92.33638 187.984928 
L 91.823634 188.121529 
L 91.328008 188.294496 
L 90.851492 188.503387 
L 90.396028 188.747616 
L 89.963505 189.026454 
L 89.555747 189.339025 
" style="fill:none;stroke:#0000ff;stroke-linecap:square;"/>
   </g>
   <g id="line2d_43">
    <path clip-path="url(#p553f1ee0ce)" d="M 150.932161 235.845415 
L 150.959473 236.220128 
L 151.02165 236.59266 
L 151.118651 236.961511 
L 151.250297 237.325171 
L 151.416261 237.682133 
L 151.61607 238.030894 
L 151.849106 238.369964 
L 152.114598 238.697874 
L 152.411632 239.013184 
L 152.739142 239.314489 
L 153.095921 239.600429 
L 153.480619 239.869697 
L 153.891746 240.121045 
L 154.327683 240.353295 
L 154.786682 240.565345 
L 155.266875 240.756177 
L 155.766283 240.924863 
L 156.282825 241.070577 
L 156.814326 241.192592 
L 157.35853 241.290294 
L 157.913112 241.363184 
L 158.475685 241.41088 
L 159.043822 241.433124 
L 159.615059 241.429781 
L 160.186916 241.400843 
L 160.75691 241.346429 
L 161.322563 241.266782 
L 161.881423 241.16227 
L 162.431075 241.033385 
L 162.969152 240.880734 
L 163.49335 240.705041 
L 164.00144 240.507139 
L 164.49128 240.287963 
L 164.960823 240.048545 
L 165.408132 239.790008 
L 165.831383 239.513556 
L 166.228877 239.220468 
L 166.599045 238.912087 
L 166.940454 238.589816 
L 167.251815 238.255103 
L 167.531981 237.90944 
L 167.779956 237.554346 
L 167.99489 237.191366 
L 168.176088 236.822058 
L 168.323002 236.447988 
L 168.435236 236.070718 
L 168.512541 235.691805 
L 168.554815 235.312788 
L 168.562098 234.935185 
L 168.534569 234.560487 
L 168.472544 234.190152 
L 168.376469 233.825597 
L 168.246915 233.468198 
L 168.084575 233.119285 
L 167.890259 232.780134 
L 167.664884 232.45197 
L 167.409474 232.135958 
L 167.125151 231.833207 
L 166.813128 231.544761 
L 166.474707 231.271603 
L 166.11127 231.01465 
L 165.724275 230.774754 
L 165.315247 230.552699 
L 164.885776 230.349201 
L 164.437511 230.164907 
L 163.972151 230.000399 
L 163.491441 229.856184 
L 162.997172 229.732706 
L 162.491164 229.630335 
L 161.975274 229.549375 
L 161.451379 229.49006 
L 160.92138 229.452555 
L 160.387192 229.436956 
L 159.850738 229.443292 
L 159.313949 229.471524 
L 158.778755 229.521544 
L 158.24708 229.593178 
L 157.720839 229.686185 
L 157.201932 229.800258 
L 156.69224 229.935022 
L 156.193618 230.090039 
L 155.707891 230.264803 
L 155.236849 230.458747 
L 154.782243 230.671237 
L 154.345777 230.901576 
L 153.929105 231.149008 
L 153.533823 231.41271 
L 153.161468 231.691805 
L 152.813509 231.985351 
L 152.491342 232.29235 
L 152.196283 232.61175 
L 151.929568 232.942443 
L 151.69234 233.283266 
L 151.485649 233.633009 
L 151.310443 233.990415 
L 151.167565 234.35418 
L 151.057745 234.722961 
L 150.981597 235.095375 
L 150.939614 235.470007 
L 150.932161 235.845415 
" style="fill:none;stroke:#ff0000;stroke-linecap:square;"/>
   </g>
   <g id="legend_1">
    <g id="patch_2">
     <path d="M 70.798346 82.59 
L 227.499596 82.59 
L 227.499596 7.2 
L 70.798346 7.2 
z
" style="fill:#ffffff;stroke:#000000;stroke-linejoin:miter;"/>
    </g>
    <g id="PathCollection_6">
     <path d="M 79.198346 20.204193 
C 79.791358 20.204193 80.360162 19.968587 80.779485 19.549264 
C 81.198808 19.129941 81.434414 18.561137 81.434414 17.968125 
C 81.434414 17.375113 81.198808 16.806309 80.779485 16.386986 
C 80.360162 15.967663 79.791358 15.732057 79.198346 15.732057 
C 78.605334 15.732057 78.03653 15.967663 77.617207 16.386986 
C 77.197884 16.806309 76.962278 17.375113 76.962278 17.968125 
C 76.962278 18.561137 77.197884 19.129941 77.617207 19.549264 
C 78.03653 19.968587 78.605334 20.204193 79.198346 20.204193 
z
" style="fill:#008000;stroke:#008000;"/>
     <path d="M 87.598346 19.154193 
C 88.191358 19.154193 88.760162 18.918587 89.179485 18.499264 
C 89.598808 18.079941 89.834414 17.511137 89.834414 16.918125 
C 89.834414 16.325113 89.598808 15.756309 89.179485 15.336986 
C 88.760162 14.917663 88.191358 14.682057 87.598346 14.682057 
C 87.005334 14.682057 86.43653 14.917663 86.017207 15.336986 
C 85.597884 15.756309 85.362278 16.325113 85.362278 16.918125 
C 85.362278 17.511137 85.597884 18.079941 86.017207 18.499264 
C 86.43653 18.918587 87.005334 19.154193 87.598346 19.154193 
z
" style="fill:#008000;stroke:#008000;"/>
     <path d="M 95.998346 20.729193 
C 96.591358 20.729193 97.160162 20.493587 97.579485 20.074264 
C 97.998808 19.654941 98.234414 19.086137 98.234414 18.493125 
C 98.234414 17.900113 97.998808 17.331309 97.579485 16.911986 
C 97.160162 16.492663 96.591358 16.257057 95.998346 16.257057 
C 95.405334 16.257057 94.83653 16.492663 94.417207 16.911986 
C 93.997884 17.331309 93.762278 17.900113 93.762278 18.493125 
C 93.762278 19.086137 93.997884 19.654941 94.417207 20.074264 
C 94.83653 20.493587 95.405334 20.729193 95.998346 20.729193 
z
" style="fill:#008000;stroke:#008000;"/>
    </g>
    <g id="text_1">
     <!-- Z48_low_geo -->
     <defs>
      <path d="M 5.609375 72.90625 
L 62.890625 72.90625 
L 62.890625 65.375 
L 16.796875 8.296875 
L 64.015625 8.296875 
L 64.015625 0 
L 4.5 0 
L 4.5 7.515625 
L 50.59375 64.59375 
L 5.609375 64.59375 
z
" id="BitstreamVeraSans-Roman-5a"/>
      <path d="M 37.796875 64.3125 
L 12.890625 25.390625 
L 37.796875 25.390625 
z
M 35.203125 72.90625 
L 47.609375 72.90625 
L 47.609375 25.390625 
L 58.015625 25.390625 
L 58.015625 17.1875 
L 47.609375 17.1875 
L 47.609375 0 
L 37.796875 0 
L 37.796875 17.1875 
L 4.890625 17.1875 
L 4.890625 26.703125 
z
" id="BitstreamVeraSans-Roman-34"/>
      <path d="M 50.984375 -16.609375 
L 50.984375 -23.578125 
L -0.984375 -23.578125 
L -0.984375 -16.609375 
z
" id="BitstreamVeraSans-Roman-5f"/>
      <path d="M 31.78125 34.625 
Q 24.75 34.625 20.71875 30.859375 
Q 16.703125 27.09375 16.703125 20.515625 
Q 16.703125 13.921875 20.71875 10.15625 
Q 24.75 6.390625 31.78125 6.390625 
Q 38.8125 6.390625 42.859375 10.171875 
Q 46.921875 13.96875 46.921875 20.515625 
Q 46.921875 27.09375 42.890625 30.859375 
Q 38.875 34.625 31.78125 34.625 
M 21.921875 38.8125 
Q 15.578125 40.375 12.03125 44.71875 
Q 8.5 49.078125 8.5 55.328125 
Q 8.5 64.0625 14.71875 69.140625 
Q 20.953125 74.21875 31.78125 74.21875 
Q 42.671875 74.21875 48.875 69.140625 
Q 55.078125 64.0625 55.078125 55.328125 
Q 55.078125 49.078125 51.53125 44.71875 
Q 48 40.375 41.703125 38.8125 
Q 48.828125 37.15625 52.796875 32.3125 
Q 56.78125 27.484375 56.78125 20.515625 
Q 56.78125 9.90625 50.3125 4.234375 
Q 43.84375 -1.421875 31.78125 -1.421875 
Q 19.734375 -1.421875 13.25 4.234375 
Q 6.78125 9.90625 6.78125 20.515625 
Q 6.78125 27.484375 10.78125 32.3125 
Q 14.796875 37.15625 21.921875 38.8125 
M 18.3125 54.390625 
Q 18.3125 48.734375 21.84375 45.5625 
Q 25.390625 42.390625 31.78125 42.390625 
Q 38.140625 42.390625 41.71875 45.5625 
Q 45.3125 48.734375 45.3125 54.390625 
Q 45.3125 60.0625 41.71875 63.234375 
Q 38.140625 66.40625 31.78125 66.40625 
Q 25.390625 66.40625 21.84375 63.234375 
Q 18.3125 60.0625 18.3125 54.390625 
" id="BitstreamVeraSans-Roman-38"/>
      <path d="M 30.609375 48.390625 
Q 23.390625 48.390625 19.1875 42.75 
Q 14.984375 37.109375 14.984375 27.296875 
Q 14.984375 17.484375 19.15625 11.84375 
Q 23.34375 6.203125 30.609375 6.203125 
Q 37.796875 6.203125 41.984375 11.859375 
Q 46.1875 17.53125 46.1875 27.296875 
Q 46.1875 37.015625 41.984375 42.703125 
Q 37.796875 48.390625 30.609375 48.390625 
M 30.609375 56 
Q 42.328125 56 49.015625 48.375 
Q 55.71875 40.765625 55.71875 27.296875 
Q 55.71875 13.875 49.015625 6.21875 
Q 42.328125 -1.421875 30.609375 -1.421875 
Q 18.84375 -1.421875 12.171875 6.21875 
Q 5.515625 13.875 5.515625 27.296875 
Q 5.515625 40.765625 12.171875 48.375 
Q 18.84375 56 30.609375 56 
" id="BitstreamVeraSans-Roman-6f"/>
      <path d="M 9.421875 75.984375 
L 18.40625 75.984375 
L 18.40625 0 
L 9.421875 0 
z
" id="BitstreamVeraSans-Roman-6c"/>
      <path d="M 56.203125 29.59375 
L 56.203125 25.203125 
L 14.890625 25.203125 
Q 15.484375 15.921875 20.484375 11.0625 
Q 25.484375 6.203125 34.421875 6.203125 
Q 39.59375 6.203125 44.453125 7.46875 
Q 49.3125 8.734375 54.109375 11.28125 
L 54.109375 2.78125 
Q 49.265625 0.734375 44.1875 -0.34375 
Q 39.109375 -1.421875 33.890625 -1.421875 
Q 20.796875 -1.421875 13.15625 6.1875 
Q 5.515625 13.8125 5.515625 26.8125 
Q 5.515625 40.234375 12.765625 48.109375 
Q 20.015625 56 32.328125 56 
Q 43.359375 56 49.78125 48.890625 
Q 56.203125 41.796875 56.203125 29.59375 
M 47.21875 32.234375 
Q 47.125 39.59375 43.09375 43.984375 
Q 39.0625 48.390625 32.421875 48.390625 
Q 24.90625 48.390625 20.390625 44.140625 
Q 15.875 39.890625 15.1875 32.171875 
z
" id="BitstreamVeraSans-Roman-65"/>
      <path d="M 4.203125 54.6875 
L 13.1875 54.6875 
L 24.421875 12.015625 
L 35.59375 54.6875 
L 46.1875 54.6875 
L 57.421875 12.015625 
L 68.609375 54.6875 
L 77.59375 54.6875 
L 63.28125 0 
L 52.6875 0 
L 40.921875 44.828125 
L 29.109375 0 
L 18.5 0 
z
" id="BitstreamVeraSans-Roman-77"/>
      <path d="M 45.40625 27.984375 
Q 45.40625 37.75 41.375 43.109375 
Q 37.359375 48.484375 30.078125 48.484375 
Q 22.859375 48.484375 18.828125 43.109375 
Q 14.796875 37.75 14.796875 27.984375 
Q 14.796875 18.265625 18.828125 12.890625 
Q 22.859375 7.515625 30.078125 7.515625 
Q 37.359375 7.515625 41.375 12.890625 
Q 45.40625 18.265625 45.40625 27.984375 
M 54.390625 6.78125 
Q 54.390625 -7.171875 48.1875 -13.984375 
Q 42 -20.796875 29.203125 -20.796875 
Q 24.46875 -20.796875 20.265625 -20.09375 
Q 16.0625 -19.390625 12.109375 -17.921875 
L 12.109375 -9.1875 
Q 16.0625 -11.328125 19.921875 -12.34375 
Q 23.78125 -13.375 27.78125 -13.375 
Q 36.625 -13.375 41.015625 -8.765625 
Q 45.40625 -4.15625 45.40625 5.171875 
L 45.40625 9.625 
Q 42.625 4.78125 38.28125 2.390625 
Q 33.9375 0 27.875 0 
Q 17.828125 0 11.671875 7.65625 
Q 5.515625 15.328125 5.515625 27.984375 
Q 5.515625 40.671875 11.671875 48.328125 
Q 17.828125 56 27.875 56 
Q 33.9375 56 38.28125 53.609375 
Q 42.625 51.21875 45.40625 46.390625 
L 45.40625 54.6875 
L 54.390625 54.6875 
z
" id="BitstreamVeraSans-Roman-67"/>
     </defs>
     <g transform="translate(109.198346023 21.118125)scale(0.12 -0.12)">
      <use xlink:href="#BitstreamVeraSans-Roman-5a"/>
      <use x="68.505859375" xlink:href="#BitstreamVeraSans-Roman-34"/>
      <use x="132.12890625" xlink:href="#BitstreamVeraSans-Roman-38"/>
      <use x="195.751953125" xlink:href="#BitstreamVeraSans-Roman-5f"/>
      <use x="245.751953125" xlink:href="#BitstreamVeraSans-Roman-6c"/>
      <use x="273.53515625" xlink:href="#BitstreamVeraSans-Roman-6f"/>
      <use x="334.716796875" xlink:href="#BitstreamVeraSans-Roman-77"/>
      <use x="416.50390625" xlink:href="#BitstreamVeraSans-Roman-5f"/>
      <use x="466.50390625" xlink:href="#BitstreamVeraSans-Roman-67"/>
      <use x="529.98046875" xlink:href="#BitstreamVeraSans-Roman-65"/>
      <use x="591.50390625" xlink:href="#BitstreamVeraSans-Roman-6f"/>
     </g>
    </g>
    <g id="PathCollection_7">
     <path d="M 79.198346 38.151693 
C 79.791358 38.151693 80.360162 37.916087 80.779485 37.496764 
C 81.198808 37.077441 81.434414 36.508637 81.434414 35.915625 
C 81.434414 35.322613 81.198808 34.753809 80.779485 34.334486 
C 80.360162 33.915163 79.791358 33.679557 79.198346 33.679557 
C 78.605334 33.679557 78.03653 33.915163 77.617207 34.334486 
C 77.197884 34.753809 76.962278 35.322613 76.962278 35.915625 
C 76.962278 36.508637 77.197884 37.077441 77.617207 37.496764 
C 78.03653 37.916087 78.605334 38.151693 79.198346 38.151693 
z
" style="fill:#ff0000;stroke:#ff0000;"/>
     <path d="M 87.598346 37.101693 
C 88.191358 37.101693 88.760162 36.866087 89.179485 36.446764 
C 89.598808 36.027441 89.834414 35.458637 89.834414 34.865625 
C 89.834414 34.272613 89.598808 33.703809 89.179485 33.284486 
C 88.760162 32.865163 88.191358 32.629557 87.598346 32.629557 
C 87.005334 32.629557 86.43653 32.865163 86.017207 33.284486 
C 85.597884 33.703809 85.362278 34.272613 85.362278 34.865625 
C 85.362278 35.458637 85.597884 36.027441 86.017207 36.446764 
C 86.43653 36.866087 87.005334 37.101693 87.598346 37.101693 
z
" style="fill:#ff0000;stroke:#ff0000;"/>
     <path d="M 95.998346 38.676693 
C 96.591358 38.676693 97.160162 38.441087 97.579485 38.021764 
C 97.998808 37.602441 98.234414 37.033637 98.234414 36.440625 
C 98.234414 35.847613 97.998808 35.278809 97.579485 34.859486 
C 97.160162 34.440163 96.591358 34.204557 95.998346 34.204557 
C 95.405334 34.204557 94.83653 34.440163 94.417207 34.859486 
C 93.997884 35.278809 93.762278 35.847613 93.762278 36.440625 
C 93.762278 37.033637 93.997884 37.602441 94.417207 38.021764 
C 94.83653 38.441087 95.405334 38.676693 95.998346 38.676693 
z
" style="fill:#ff0000;stroke:#ff0000;"/>
    </g>
    <g id="text_2">
     <!-- Z48_hem_tc -->
     <defs>
      <path d="M 52 44.1875 
Q 55.375 50.25 60.0625 53.125 
Q 64.75 56 71.09375 56 
Q 79.640625 56 84.28125 50.015625 
Q 88.921875 44.046875 88.921875 33.015625 
L 88.921875 0 
L 79.890625 0 
L 79.890625 32.71875 
Q 79.890625 40.578125 77.09375 44.375 
Q 74.3125 48.1875 68.609375 48.1875 
Q 61.625 48.1875 57.5625 43.546875 
Q 53.515625 38.921875 53.515625 30.90625 
L 53.515625 0 
L 44.484375 0 
L 44.484375 32.71875 
Q 44.484375 40.625 41.703125 44.40625 
Q 38.921875 48.1875 33.109375 48.1875 
Q 26.21875 48.1875 22.15625 43.53125 
Q 18.109375 38.875 18.109375 30.90625 
L 18.109375 0 
L 9.078125 0 
L 9.078125 54.6875 
L 18.109375 54.6875 
L 18.109375 46.1875 
Q 21.1875 51.21875 25.484375 53.609375 
Q 29.78125 56 35.6875 56 
Q 41.65625 56 45.828125 52.96875 
Q 50 49.953125 52 44.1875 
" id="BitstreamVeraSans-Roman-6d"/>
      <path d="M 18.3125 70.21875 
L 18.3125 54.6875 
L 36.8125 54.6875 
L 36.8125 47.703125 
L 18.3125 47.703125 
L 18.3125 18.015625 
Q 18.3125 11.328125 20.140625 9.421875 
Q 21.96875 7.515625 27.59375 7.515625 
L 36.8125 7.515625 
L 36.8125 0 
L 27.59375 0 
Q 17.1875 0 13.234375 3.875 
Q 9.28125 7.765625 9.28125 18.015625 
L 9.28125 47.703125 
L 2.6875 47.703125 
L 2.6875 54.6875 
L 9.28125 54.6875 
L 9.28125 70.21875 
z
" id="BitstreamVeraSans-Roman-74"/>
      <path d="M 54.890625 33.015625 
L 54.890625 0 
L 45.90625 0 
L 45.90625 32.71875 
Q 45.90625 40.484375 42.875 44.328125 
Q 39.84375 48.1875 33.796875 48.1875 
Q 26.515625 48.1875 22.3125 43.546875 
Q 18.109375 38.921875 18.109375 30.90625 
L 18.109375 0 
L 9.078125 0 
L 9.078125 75.984375 
L 18.109375 75.984375 
L 18.109375 46.1875 
Q 21.34375 51.125 25.703125 53.5625 
Q 30.078125 56 35.796875 56 
Q 45.21875 56 50.046875 50.171875 
Q 54.890625 44.34375 54.890625 33.015625 
" id="BitstreamVeraSans-Roman-68"/>
      <path d="M 48.78125 52.59375 
L 48.78125 44.1875 
Q 44.96875 46.296875 41.140625 47.34375 
Q 37.3125 48.390625 33.40625 48.390625 
Q 24.65625 48.390625 19.8125 42.84375 
Q 14.984375 37.3125 14.984375 27.296875 
Q 14.984375 17.28125 19.8125 11.734375 
Q 24.65625 6.203125 33.40625 6.203125 
Q 37.3125 6.203125 41.140625 7.25 
Q 44.96875 8.296875 48.78125 10.40625 
L 48.78125 2.09375 
Q 45.015625 0.34375 40.984375 -0.53125 
Q 36.96875 -1.421875 32.421875 -1.421875 
Q 20.0625 -1.421875 12.78125 6.34375 
Q 5.515625 14.109375 5.515625 27.296875 
Q 5.515625 40.671875 12.859375 48.328125 
Q 20.21875 56 33.015625 56 
Q 37.15625 56 41.109375 55.140625 
Q 45.0625 54.296875 48.78125 52.59375 
" id="BitstreamVeraSans-Roman-63"/>
     </defs>
     <g transform="translate(109.198346023 39.065625)scale(0.12 -0.12)">
      <use xlink:href="#BitstreamVeraSans-Roman-5a"/>
      <use x="68.505859375" xlink:href="#BitstreamVeraSans-Roman-34"/>
      <use x="132.12890625" xlink:href="#BitstreamVeraSans-Roman-38"/>
      <use x="195.751953125" xlink:href="#BitstreamVeraSans-Roman-5f"/>
      <use x="245.751953125" xlink:href="#BitstreamVeraSans-Roman-68"/>
      <use x="309.130859375" xlink:href="#BitstreamVeraSans-Roman-65"/>
      <use x="370.654296875" xlink:href="#BitstreamVeraSans-Roman-6d"/>
      <use x="468.06640625" xlink:href="#BitstreamVeraSans-Roman-5f"/>
      <use x="518.06640625" xlink:href="#BitstreamVeraSans-Roman-74"/>
      <use x="557.275390625" xlink:href="#BitstreamVeraSans-Roman-63"/>
     </g>
    </g>
    <g id="PathCollection_8">
     <path d="M 76.962278 56.099193 
L 81.434414 56.099193 
L 81.434414 51.627057 
L 76.962278 51.627057 
z
" style="fill:#ffffff;stroke:#0000ff;"/>
     <path d="M 85.362278 55.049193 
L 89.834414 55.049193 
L 89.834414 50.577057 
L 85.362278 50.577057 
z
" style="fill:#ffffff;stroke:#0000ff;"/>
     <path d="M 93.762278 56.624193 
L 98.234414 56.624193 
L 98.234414 52.152057 
L 93.762278 52.152057 
z
" style="fill:#ffffff;stroke:#0000ff;"/>
    </g>
    <g id="text_3">
     <!-- Z48_mag_tc_mean -->
     <defs>
      <path d="M 54.890625 33.015625 
L 54.890625 0 
L 45.90625 0 
L 45.90625 32.71875 
Q 45.90625 40.484375 42.875 44.328125 
Q 39.84375 48.1875 33.796875 48.1875 
Q 26.515625 48.1875 22.3125 43.546875 
Q 18.109375 38.921875 18.109375 30.90625 
L 18.109375 0 
L 9.078125 0 
L 9.078125 54.6875 
L 18.109375 54.6875 
L 18.109375 46.1875 
Q 21.34375 51.125 25.703125 53.5625 
Q 30.078125 56 35.796875 56 
Q 45.21875 56 50.046875 50.171875 
Q 54.890625 44.34375 54.890625 33.015625 
" id="BitstreamVeraSans-Roman-6e"/>
      <path d="M 34.28125 27.484375 
Q 23.390625 27.484375 19.1875 25 
Q 14.984375 22.515625 14.984375 16.5 
Q 14.984375 11.71875 18.140625 8.90625 
Q 21.296875 6.109375 26.703125 6.109375 
Q 34.1875 6.109375 38.703125 11.40625 
Q 43.21875 16.703125 43.21875 25.484375 
L 43.21875 27.484375 
z
M 52.203125 31.203125 
L 52.203125 0 
L 43.21875 0 
L 43.21875 8.296875 
Q 40.140625 3.328125 35.546875 0.953125 
Q 30.953125 -1.421875 24.3125 -1.421875 
Q 15.921875 -1.421875 10.953125 3.296875 
Q 6 8.015625 6 15.921875 
Q 6 25.140625 12.171875 29.828125 
Q 18.359375 34.515625 30.609375 34.515625 
L 43.21875 34.515625 
L 43.21875 35.40625 
Q 43.21875 41.609375 39.140625 45 
Q 35.0625 48.390625 27.6875 48.390625 
Q 23 48.390625 18.546875 47.265625 
Q 14.109375 46.140625 10.015625 43.890625 
L 10.015625 52.203125 
Q 14.9375 54.109375 19.578125 55.046875 
Q 24.21875 56 28.609375 56 
Q 40.484375 56 46.34375 49.84375 
Q 52.203125 43.703125 52.203125 31.203125 
" id="BitstreamVeraSans-Roman-61"/>
     </defs>
     <g transform="translate(109.198346023 57.013125)scale(0.12 -0.12)">
      <use xlink:href="#BitstreamVeraSans-Roman-5a"/>
      <use x="68.505859375" xlink:href="#BitstreamVeraSans-Roman-34"/>
      <use x="132.12890625" xlink:href="#BitstreamVeraSans-Roman-38"/>
      <use x="195.751953125" xlink:href="#BitstreamVeraSans-Roman-5f"/>
      <use x="245.751953125" xlink:href="#BitstreamVeraSans-Roman-6d"/>
      <use x="343.1640625" xlink:href="#BitstreamVeraSans-Roman-61"/>
      <use x="404.443359375" xlink:href="#BitstreamVeraSans-Roman-67"/>
      <use x="467.919921875" xlink:href="#BitstreamVeraSans-Roman-5f"/>
      <use x="517.919921875" xlink:href="#BitstreamVeraSans-Roman-74"/>
      <use x="557.12890625" xlink:href="#BitstreamVeraSans-Roman-63"/>
      <use x="612.109375" xlink:href="#BitstreamVeraSans-Roman-5f"/>
      <use x="662.109375" xlink:href="#BitstreamVeraSans-Roman-6d"/>
      <use x="759.521484375" xlink:href="#BitstreamVeraSans-Roman-65"/>
      <use x="821.044921875" xlink:href="#BitstreamVeraSans-Roman-61"/>
      <use x="882.32421875" xlink:href="#BitstreamVeraSans-Roman-6e"/>
     </g>
    </g>
    <g id="PathCollection_9">
     <path d="M 76.962278 74.046693 
L 81.434414 74.046693 
L 81.434414 69.574557 
L 76.962278 69.574557 
z
" style="fill:#ff0000;stroke:#ff0000;"/>
     <path d="M 85.362278 72.996693 
L 89.834414 72.996693 
L 89.834414 68.524557 
L 85.362278 68.524557 
z
" style="fill:#ff0000;stroke:#ff0000;"/>
     <path d="M 93.762278 74.571693 
L 98.234414 74.571693 
L 98.234414 70.099557 
L 93.762278 70.099557 
z
" style="fill:#ff0000;stroke:#ff0000;"/>
    </g>
    <g id="text_4">
     <!-- Z48_hem_tc_mean -->
     <g transform="translate(109.198346023 74.960625)scale(0.12 -0.12)">
      <use xlink:href="#BitstreamVeraSans-Roman-5a"/>
      <use x="68.505859375" xlink:href="#BitstreamVeraSans-Roman-34"/>
      <use x="132.12890625" xlink:href="#BitstreamVeraSans-Roman-38"/>
      <use x="195.751953125" xlink:href="#BitstreamVeraSans-Roman-5f"/>
      <use x="245.751953125" xlink:href="#BitstreamVeraSans-Roman-68"/>
      <use x="309.130859375" xlink:href="#BitstreamVeraSans-Roman-65"/>
      <use x="370.654296875" xlink:href="#BitstreamVeraSans-Roman-6d"/>
      <use x="468.06640625" xlink:href="#BitstreamVeraSans-Roman-5f"/>
      <use x="518.06640625" xlink:href="#BitstreamVeraSans-Roman-74"/>
      <use x="557.275390625" xlink:href="#BitstreamVeraSans-Roman-63"/>
      <use x="612.255859375" xlink:href="#BitstreamVeraSans-Roman-5f"/>
      <use x="662.255859375" xlink:href="#BitstreamVeraSans-Roman-6d"/>
      <use x="759.66796875" xlink:href="#BitstreamVeraSans-Roman-65"/>
      <use x="821.19140625" xlink:href="#BitstreamVeraSans-Roman-61"/>
      <use x="882.470703125" xlink:href="#BitstreamVeraSans-Roman-6e"/>
     </g>
    </g>
   </g>
  </g>
 </g>
 <defs>
  <clipPath id="p553f1ee0ce">
   <rect height="253.4" width="235.43689015" x="35.4828125" y="19.24"/>
  </clipPath>
 </defs>
</svg>
