<?xml version="1.0" encoding="utf-8" standalone="no"?>
<!DOCTYPE svg PUBLIC "-//W3C//DTD SVG 1.1//EN"
  "http://www.w3.org/Graphics/SVG/1.1/DTD/svg11.dtd">
<!-- Created with matplotlib (http://matplotlib.org/) -->
<svg height="311pt" version="1.1" viewBox="0 0 280 311" width="280pt" xmlns="http://www.w3.org/2000/svg" xmlns:xlink="http://www.w3.org/1999/xlink">
 <defs>
  <style type="text/css">
*{stroke-linecap:butt;stroke-linejoin:round;stroke-miterlimit:100000;}
  </style>
 </defs>
 <g id="figure_1">
  <g id="patch_1">
   <path d="M 0 311.465625 
L 280.465625 311.465625 
L 280.465625 0 
L 0 0 
L 0 311.465625 
z
" style="fill:none;"/>
  </g>
  <g id="axes_1">
   <g id="PathCollection_1">
    <defs>
     <path d="M 0 2.236068 
C 0.593012 2.236068 1.161816 2.000462 1.581139 1.581139 
C 2.000462 1.161816 2.236068 0.593012 2.236068 0 
C 2.236068 -0.593012 2.000462 -1.161816 1.581139 -1.581139 
C 1.161816 -2.000462 0.593012 -2.236068 0 -2.236068 
C -0.593012 -2.236068 -1.161816 -2.000462 -1.581139 -1.581139 
C -2.000462 -1.161816 -2.236068 -0.593012 -2.236068 0 
C -2.236068 0.593012 -2.000462 1.161816 -1.581139 1.581139 
C -1.161816 2.000462 -0.593012 2.236068 0 2.236068 
z
" id="md5402a67ef" style="stroke:#008000;"/>
    </defs>
    <g clip-path="url(#p693f9b2d86)">
     <use style="fill:#008000;stroke:#008000;" x="154.005890932" xlink:href="#md5402a67ef" y="112.73055113"/>
     <use style="fill:#008000;stroke:#008000;" x="157.733380745" xlink:href="#md5402a67ef" y="129.505208155"/>
     <use style="fill:#008000;stroke:#008000;" x="210.537790651" xlink:href="#md5402a67ef" y="127.825440456"/>
     <use style="fill:#008000;stroke:#008000;" x="160.429014968" xlink:href="#md5402a67ef" y="126.400735835"/>
     <use style="fill:#008000;stroke:#008000;" x="171.034593483" xlink:href="#md5402a67ef" y="123.312301225"/>
     <use style="fill:#008000;stroke:#008000;" x="156.823475882" xlink:href="#md5402a67ef" y="124.135276489"/>
     <use style="fill:#008000;stroke:#008000;" x="161.498816141" xlink:href="#md5402a67ef" y="128.274991867"/>
    </g>
   </g>
   <g id="PathCollection_2">
    <defs>
     <path d="M 0 2.236068 
C 0.593012 2.236068 1.161816 2.000462 1.581139 1.581139 
C 2.000462 1.161816 2.236068 0.593012 2.236068 0 
C 2.236068 -0.593012 2.000462 -1.161816 1.581139 -1.581139 
C 1.161816 -2.000462 0.593012 -2.236068 0 -2.236068 
C -0.593012 -2.236068 -1.161816 -2.000462 -1.581139 -1.581139 
C -2.000462 -1.161816 -2.236068 -0.593012 -2.236068 0 
C -2.236068 0.593012 -2.000462 1.161816 -1.581139 1.581139 
C -1.161816 2.000462 -0.593012 2.236068 0 2.236068 
z
" id="C0_0_07d23dd458"/>
    </defs>
    <g clip-path="url(#p693f9b2d86)">
     <use style="fill:none;stroke:#0000ff;" x="101.347590589" xlink:href="#C0_0_07d23dd458" y="235.431885215"/>
    </g>
    <g clip-path="url(#p693f9b2d86)">
     <use style="fill:none;stroke:#0000ff;" x="84.494642703" xlink:href="#C0_0_07d23dd458" y="213.197114682"/>
    </g>
    <g clip-path="url(#p693f9b2d86)">
     <use style="fill:none;stroke:#0000ff;" x="94.4894026544" xlink:href="#C0_0_07d23dd458" y="229.934419045"/>
    </g>
    <g clip-path="url(#p693f9b2d86)">
     <use style="fill:none;stroke:#0000ff;" x="92.5551497597" xlink:href="#C0_0_07d23dd458" y="215.803175523"/>
    </g>
    <g clip-path="url(#p693f9b2d86)">
     <use style="fill:none;stroke:#0000ff;" x="91.9602096337" xlink:href="#C0_0_07d23dd458" y="229.021888237"/>
    </g>
    <g clip-path="url(#p693f9b2d86)">
     <use style="fill:none;stroke:#0000ff;" x="89.7788928725" xlink:href="#C0_0_07d23dd458" y="210.58863547"/>
    </g>
   </g>
   <g id="PathCollection_3">
    <defs>
     <path d="M 0 -2.236068 
L -2.236068 2.236068 
L 2.236068 2.236068 
z
" id="m8e1013e2c9" style="stroke:#0000ff;"/>
    </defs>
    <g clip-path="url(#p693f9b2d86)">
     <use style="fill:#0000ff;stroke:#0000ff;" x="61.9535178578" xlink:href="#m8e1013e2c9" y="214.196623582"/>
    </g>
   </g>
   <g id="PathCollection_4">
    <path clip-path="url(#p693f9b2d86)" d="M 135.609522 275.816531 
C 136.202534 275.816531 136.771338 275.580925 137.190661 275.161602 
C 137.609984 274.742279 137.84559 274.173475 137.84559 273.580463 
C 137.84559 272.987451 137.609984 272.418647 137.190661 271.999324 
C 136.771338 271.580001 136.202534 271.344395 135.609522 271.344395 
C 135.01651 271.344395 134.447706 271.580001 134.028383 271.999324 
C 133.60906 272.418647 133.373454 272.987451 133.373454 273.580463 
C 133.373454 274.173475 133.60906 274.742279 134.028383 275.161602 
C 134.447706 275.580925 135.01651 275.816531 135.609522 275.816531 
L 135.609522 275.816531 
z
" style="fill:none;stroke:#ff0000;"/>
   </g>
   <g id="PathCollection_5">
    <defs>
     <path d="M 0 2.236068 
C 0.593012 2.236068 1.161816 2.000462 1.581139 1.581139 
C 2.000462 1.161816 2.236068 0.593012 2.236068 0 
C 2.236068 -0.593012 2.000462 -1.161816 1.581139 -1.581139 
C 1.161816 -2.000462 0.593012 -2.236068 0 -2.236068 
C -0.593012 -2.236068 -1.161816 -2.000462 -1.581139 -1.581139 
C -2.000462 -1.161816 -2.236068 -0.593012 -2.236068 0 
C -2.236068 0.593012 -2.000462 1.161816 -1.581139 1.581139 
C -1.161816 2.000462 -0.593012 2.236068 0 2.236068 
z
" id="m3d9c2d7960" style="stroke:#ff0000;"/>
    </defs>
    <g clip-path="url(#p693f9b2d86)">
     <use style="fill:#ff0000;stroke:#ff0000;" x="156.520736875" xlink:href="#m3d9c2d7960" y="269.384327831"/>
     <use style="fill:#ff0000;stroke:#ff0000;" x="138.53776468" xlink:href="#m3d9c2d7960" y="272.206820913"/>
     <use style="fill:#ff0000;stroke:#ff0000;" x="146.384444841" xlink:href="#m3d9c2d7960" y="261.251826303"/>
     <use style="fill:#ff0000;stroke:#ff0000;" x="144.46745369" xlink:href="#m3d9c2d7960" y="263.591798212"/>
     <use style="fill:#ff0000;stroke:#ff0000;" x="140.588019872" xlink:href="#m3d9c2d7960" y="272.76562428"/>
    </g>
   </g>
   <g id="PathCollection_6">
    <defs>
     <path d="M 0 -2.236068 
L -2.236068 2.236068 
L 2.236068 2.236068 
z
" id="mc4b11faccf" style="stroke:#ff0000;"/>
    </defs>
    <g clip-path="url(#p693f9b2d86)">
     <use style="fill:#ff0000;stroke:#ff0000;" x="54.0195780771" xlink:href="#mc4b11faccf" y="135.856644953"/>
    </g>
   </g>
   <g id="PathCollection_7">
    <defs>
     <path d="M -2.236068 2.236068 
L 2.236068 2.236068 
L 2.236068 -2.236068 
L -2.236068 -2.236068 
z
" id="mb70c1c7606" style="stroke:#0000ff;"/>
    </defs>
    <g clip-path="url(#p693f9b2d86)">
     <use style="fill:#ffffff;stroke:#0000ff;" x="92.0139866021" xlink:href="#mb70c1c7606" y="222.528753576"/>
    </g>
   </g>
   <g id="PathCollection_8">
    <defs>
     <path d="M -2.236068 2.236068 
L 2.236068 2.236068 
L 2.236068 -2.236068 
L -2.236068 -2.236068 
z
" id="m2aed1c03a0" style="stroke:#ff0000;"/>
    </defs>
    <g clip-path="url(#p693f9b2d86)">
     <use style="fill:#ff0000;stroke:#ff0000;" x="143.746288404" xlink:href="#m2aed1c03a0" y="269.399590243"/>
    </g>
   </g>
   <g id="line2d_1">
    <path clip-path="url(#p693f9b2d86)" d="M 153.201258 51.913435 
L 159.068788 52.066892 
L 164.920237 52.526841 
L 170.739564 53.292022 
L 176.51082 54.360337 
L 182.218187 55.728859 
L 187.84602 57.393836 
L 193.378894 59.350705 
L 198.801644 61.594102 
L 204.099406 64.117878 
L 209.25766 66.915115 
L 214.262267 69.978148 
L 219.099511 73.298579 
L 223.756132 76.867308 
L 228.219367 80.674553 
L 232.476982 84.70988 
L 236.517308 88.962226 
L 240.329271 93.419938 
L 243.902422 98.070796 
L 247.226967 102.902053 
L 250.293795 107.900468 
L 253.094498 113.052338 
L 255.621401 118.343545 
L 257.867578 123.759584 
L 259.826871 129.285611 
L 261.493911 134.90648 
L 262.864129 140.606783 
L 263.933768 146.370897 
L 264.699897 152.183023 
L 265.160416 158.02723 
L 265.314062 163.8875 
L 265.160416 169.74777 
L 264.699897 175.591977 
L 263.933768 181.404103 
L 262.864129 187.168217 
L 261.493911 192.86852 
L 259.826871 198.489389 
L 257.867578 204.015416 
L 255.621401 209.431455 
L 253.094498 214.722662 
L 250.293795 219.874532 
L 247.226967 224.872947 
L 243.902422 229.704204 
L 240.329271 234.355062 
L 236.517308 238.812774 
L 232.476982 243.06512 
L 228.219367 247.100447 
L 223.756132 250.907692 
L 219.099511 254.476421 
L 214.262267 257.796852 
L 209.25766 260.859885 
L 204.099406 263.657122 
L 198.801644 266.180898 
L 193.378894 268.424295 
L 187.84602 270.381164 
L 182.218187 272.046141 
L 176.51082 273.414663 
L 170.739564 274.482978 
L 164.920237 275.248159 
L 159.068788 275.708108 
L 153.201258 275.861565 
L 147.333727 275.708108 
L 141.482278 275.248159 
L 135.662951 274.482978 
L 129.891695 273.414663 
L 124.184329 272.046141 
L 118.556496 270.381164 
L 113.023622 268.424295 
L 107.600872 266.180898 
L 102.303109 263.657122 
L 97.144855 260.859885 
L 92.140248 257.796852 
L 87.303004 254.476421 
L 82.646383 250.907692 
L 78.183149 247.100447 
L 73.925533 243.06512 
L 69.885207 238.812774 
L 66.073244 234.355062 
L 62.500093 229.704204 
L 59.175548 224.872947 
L 56.108721 219.874532 
L 53.308017 214.722662 
L 50.781114 209.431455 
L 48.534937 204.015416 
L 46.575644 198.489389 
L 44.908604 192.86852 
L 43.538387 187.168217 
L 42.468747 181.404103 
L 41.702618 175.591977 
L 41.242099 169.74777 
L 41.088453 163.8875 
L 41.242099 158.02723 
L 41.702618 152.183023 
L 42.468747 146.370897 
L 43.538387 140.606783 
L 44.908604 134.90648 
L 46.575644 129.285611 
L 48.534937 123.759584 
L 50.781114 118.343545 
L 53.308017 113.052338 
L 56.108721 107.900468 
L 59.175548 102.902053 
L 62.500093 98.070796 
L 66.073244 93.419938 
L 69.885207 88.962226 
L 73.925533 84.70988 
L 78.183149 80.674553 
L 82.646383 76.867308 
L 87.303004 73.298579 
L 92.140248 69.978148 
L 97.144855 66.915115 
L 102.303109 64.117878 
L 107.600872 61.594102 
L 113.023622 59.350705 
L 118.556496 57.393836 
L 124.184329 55.728859 
L 129.891695 54.360337 
L 135.662951 53.292022 
L 141.482278 52.526841 
L 147.333727 52.066892 
L 153.201258 51.913435 
L 153.201258 51.913435 
" style="fill:none;stroke:#000000;stroke-linecap:square;"/>
   </g>
   <g id="line2d_2">
    <defs>
     <path d="M -3 0 
L 3 0 
M 0 3 
L 0 -3 
" id="m760365b55f" style="stroke:#000000;stroke-width:0.5;"/>
    </defs>
    <g clip-path="url(#p693f9b2d86)">
     <use style="stroke:#000000;stroke-width:0.5;" x="153.201257622" xlink:href="#m760365b55f" y="62.0987132669"/>
     <use style="stroke:#000000;stroke-width:0.5;" x="153.201257622" xlink:href="#m760365b55f" y="73.0586652884"/>
     <use style="stroke:#000000;stroke-width:0.5;" x="153.201257622" xlink:href="#m760365b55f" y="84.709879586"/>
     <use style="stroke:#000000;stroke-width:0.5;" x="153.201257622" xlink:href="#m760365b55f" y="96.9636833838"/>
     <use style="stroke:#000000;stroke-width:0.5;" x="153.201257622" xlink:href="#m760365b55f" y="109.726817836"/>
     <use style="stroke:#000000;stroke-width:0.5;" x="153.201257622" xlink:href="#m760365b55f" y="122.902147782"/>
     <use style="stroke:#000000;stroke-width:0.5;" x="153.201257622" xlink:href="#m760365b55f" y="136.389401006"/>
     <use style="stroke:#000000;stroke-width:0.5;" x="153.201257622" xlink:href="#m760365b55f" y="150.085931368"/>
     <use style="stroke:#000000;stroke-width:0.5;" x="153.201257622" xlink:href="#m760365b55f" y="163.8875"/>
    </g>
   </g>
   <g id="line2d_3">
    <g clip-path="url(#p693f9b2d86)">
     <use style="stroke:#000000;stroke-width:0.5;" x="255.116164649" xlink:href="#m760365b55f" y="163.8875"/>
     <use style="stroke:#000000;stroke-width:0.5;" x="244.142632818" xlink:href="#m760365b55f" y="163.8875"/>
     <use style="stroke:#000000;stroke-width:0.5;" x="232.476982209" xlink:href="#m760365b55f" y="163.8875"/>
     <use style="stroke:#000000;stroke-width:0.5;" x="220.207995468" xlink:href="#m760365b55f" y="163.8875"/>
     <use style="stroke:#000000;stroke-width:0.5;" x="207.429046993" xlink:href="#m760365b55f" y="163.8875"/>
     <use style="stroke:#000000;stroke-width:0.5;" x="194.237392297" xlink:href="#m760365b55f" y="163.8875"/>
     <use style="stroke:#000000;stroke-width:0.5;" x="180.733427837" xlink:href="#m760365b55f" y="163.8875"/>
     <use style="stroke:#000000;stroke-width:0.5;" x="167.019926938" xlink:href="#m760365b55f" y="163.8875"/>
    </g>
   </g>
   <g id="line2d_4">
    <g clip-path="url(#p693f9b2d86)">
     <use style="stroke:#000000;stroke-width:0.5;" x="153.201257622" xlink:href="#m760365b55f" y="265.676286733"/>
     <use style="stroke:#000000;stroke-width:0.5;" x="153.201257622" xlink:href="#m760365b55f" y="254.716334712"/>
     <use style="stroke:#000000;stroke-width:0.5;" x="153.201257622" xlink:href="#m760365b55f" y="243.065120414"/>
     <use style="stroke:#000000;stroke-width:0.5;" x="153.201257622" xlink:href="#m760365b55f" y="230.811316616"/>
     <use style="stroke:#000000;stroke-width:0.5;" x="153.201257622" xlink:href="#m760365b55f" y="218.048182164"/>
     <use style="stroke:#000000;stroke-width:0.5;" x="153.201257622" xlink:href="#m760365b55f" y="204.872852218"/>
     <use style="stroke:#000000;stroke-width:0.5;" x="153.201257622" xlink:href="#m760365b55f" y="191.385598994"/>
     <use style="stroke:#000000;stroke-width:0.5;" x="153.201257622" xlink:href="#m760365b55f" y="177.689068632"/>
    </g>
   </g>
   <g id="line2d_5">
    <g clip-path="url(#p693f9b2d86)">
     <use style="stroke:#000000;stroke-width:0.5;" x="51.2863505949" xlink:href="#m760365b55f" y="163.8875"/>
     <use style="stroke:#000000;stroke-width:0.5;" x="62.2598824263" xlink:href="#m760365b55f" y="163.8875"/>
     <use style="stroke:#000000;stroke-width:0.5;" x="73.9255330348" xlink:href="#m760365b55f" y="163.8875"/>
     <use style="stroke:#000000;stroke-width:0.5;" x="86.1945197755" xlink:href="#m760365b55f" y="163.8875"/>
     <use style="stroke:#000000;stroke-width:0.5;" x="98.9734682509" xlink:href="#m760365b55f" y="163.8875"/>
     <use style="stroke:#000000;stroke-width:0.5;" x="112.165122947" xlink:href="#m760365b55f" y="163.8875"/>
     <use style="stroke:#000000;stroke-width:0.5;" x="125.669087406" xlink:href="#m760365b55f" y="163.8875"/>
     <use style="stroke:#000000;stroke-width:0.5;" x="139.382588305" xlink:href="#m760365b55f" y="163.8875"/>
    </g>
   </g>
   <g id="line2d_6">
    <path clip-path="url(#p693f9b2d86)" d="M 153.201258 51.913435 
L 153.201258 52.894845 
L 153.201258 53.884706 
L 153.201258 54.882945 
" style="fill:none;stroke:#000000;stroke-linecap:square;"/>
   </g>
   <g id="line2d_7">
    <path clip-path="url(#p693f9b2d86)" d="M 172.669442 53.614573 
L 172.498811 54.581072 
L 172.32671 55.555896 
L 172.153153 56.53897 
" style="fill:none;stroke:#000000;stroke-linecap:square;"/>
   </g>
   <g id="line2d_8">
    <path clip-path="url(#p693f9b2d86)" d="M 191.546095 58.666298 
L 191.210018 59.588521 
L 190.871045 60.518687 
L 190.529205 61.456724 
" style="fill:none;stroke:#000000;stroke-linecap:square;"/>
   </g>
   <g id="line2d_9">
    <path clip-path="url(#p693f9b2d86)" d="M 209.25766 66.915115 
L 208.766347 67.765041 
L 208.270803 68.622286 
L 207.771065 69.486787 
" style="fill:none;stroke:#000000;stroke-linecap:square;"/>
   </g>
   <g id="line2d_10">
    <path clip-path="url(#p693f9b2d86)" d="M 225.265979 78.11039 
L 224.63436 78.862193 
L 223.997301 79.620471 
L 223.35485 80.385167 
" style="fill:none;stroke:#000000;stroke-linecap:square;"/>
   </g>
   <g id="line2d_11">
    <path clip-path="url(#p693f9b2d86)" d="M 239.084649 91.911959 
L 238.331914 92.542796 
L 237.572696 93.179067 
L 236.807054 93.820723 
" style="fill:none;stroke:#000000;stroke-linecap:square;"/>
   </g>
   <g id="line2d_12">
    <path clip-path="url(#p693f9b2d86)" d="M 250.293795 107.900468 
L 249.442816 108.391172 
L 248.584509 108.886103 
L 247.718937 109.385223 
" style="fill:none;stroke:#000000;stroke-linecap:square;"/>
   </g>
   <g id="line2d_13">
    <path clip-path="url(#p693f9b2d86)" d="M 258.552833 125.590114 
L 257.629467 125.925776 
L 256.698149 126.264329 
L 255.758949 126.605747 
" style="fill:none;stroke:#000000;stroke-linecap:square;"/>
   </g>
   <g id="line2d_14">
    <path clip-path="url(#p693f9b2d86)" d="M 263.610817 144.443408 
L 262.64312 144.613828 
L 261.667089 144.785715 
L 260.682797 144.959058 
" style="fill:none;stroke:#000000;stroke-linecap:square;"/>
   </g>
   <g id="line2d_15">
    <path clip-path="url(#p693f9b2d86)" d="M 265.314062 163.8875 
L 264.331437 163.8875 
L 263.340349 163.8875 
L 262.340873 163.8875 
" style="fill:none;stroke:#000000;stroke-linecap:square;"/>
   </g>
   <g id="line2d_16">
    <path clip-path="url(#p693f9b2d86)" d="M 263.610817 183.331592 
L 262.64312 183.161172 
L 261.667089 182.989285 
L 260.682797 182.815942 
" style="fill:none;stroke:#000000;stroke-linecap:square;"/>
   </g>
   <g id="line2d_17">
    <path clip-path="url(#p693f9b2d86)" d="M 258.552833 202.184886 
L 257.629467 201.849224 
L 256.698149 201.510671 
L 255.758949 201.169253 
" style="fill:none;stroke:#000000;stroke-linecap:square;"/>
   </g>
   <g id="line2d_18">
    <path clip-path="url(#p693f9b2d86)" d="M 250.293795 219.874532 
L 249.442816 219.383828 
L 248.584509 218.888897 
L 247.718937 218.389777 
" style="fill:none;stroke:#000000;stroke-linecap:square;"/>
   </g>
   <g id="line2d_19">
    <path clip-path="url(#p693f9b2d86)" d="M 239.084649 235.863041 
L 238.331914 235.232204 
L 237.572696 234.595933 
L 236.807054 233.954277 
" style="fill:none;stroke:#000000;stroke-linecap:square;"/>
   </g>
   <g id="line2d_20">
    <path clip-path="url(#p693f9b2d86)" d="M 225.265979 249.66461 
L 224.63436 248.912807 
L 223.997301 248.154529 
L 223.35485 247.389833 
" style="fill:none;stroke:#000000;stroke-linecap:square;"/>
   </g>
   <g id="line2d_21">
    <path clip-path="url(#p693f9b2d86)" d="M 209.25766 260.859885 
L 208.766347 260.009959 
L 208.270803 259.152714 
L 207.771065 258.288213 
" style="fill:none;stroke:#000000;stroke-linecap:square;"/>
   </g>
   <g id="line2d_22">
    <path clip-path="url(#p693f9b2d86)" d="M 191.546095 269.108702 
L 191.210018 268.186479 
L 190.871045 267.256313 
L 190.529205 266.318276 
" style="fill:none;stroke:#000000;stroke-linecap:square;"/>
   </g>
   <g id="line2d_23">
    <path clip-path="url(#p693f9b2d86)" d="M 172.669442 274.160427 
L 172.498811 273.193928 
L 172.32671 272.219104 
L 172.153153 271.23603 
" style="fill:none;stroke:#000000;stroke-linecap:square;"/>
   </g>
   <g id="line2d_24">
    <path clip-path="url(#p693f9b2d86)" d="M 153.201258 275.861565 
L 153.201258 274.880155 
L 153.201258 273.890294 
L 153.201258 272.892055 
" style="fill:none;stroke:#000000;stroke-linecap:square;"/>
   </g>
   <g id="line2d_25">
    <path clip-path="url(#p693f9b2d86)" d="M 133.733073 274.160427 
L 133.903704 273.193928 
L 134.075805 272.219104 
L 134.249362 271.23603 
" style="fill:none;stroke:#000000;stroke-linecap:square;"/>
   </g>
   <g id="line2d_26">
    <path clip-path="url(#p693f9b2d86)" d="M 114.85642 269.108702 
L 115.192498 268.186479 
L 115.53147 267.256313 
L 115.873311 266.318276 
" style="fill:none;stroke:#000000;stroke-linecap:square;"/>
   </g>
   <g id="line2d_27">
    <path clip-path="url(#p693f9b2d86)" d="M 97.144855 260.859885 
L 97.636168 260.009959 
L 98.131712 259.152714 
L 98.63145 258.288213 
" style="fill:none;stroke:#000000;stroke-linecap:square;"/>
   </g>
   <g id="line2d_28">
    <path clip-path="url(#p693f9b2d86)" d="M 81.136536 249.66461 
L 81.768155 248.912807 
L 82.405214 248.154529 
L 83.047665 247.389833 
" style="fill:none;stroke:#000000;stroke-linecap:square;"/>
   </g>
   <g id="line2d_29">
    <path clip-path="url(#p693f9b2d86)" d="M 67.317866 235.863041 
L 68.070601 235.232204 
L 68.829819 234.595933 
L 69.595462 233.954277 
" style="fill:none;stroke:#000000;stroke-linecap:square;"/>
   </g>
   <g id="line2d_30">
    <path clip-path="url(#p693f9b2d86)" d="M 56.108721 219.874532 
L 56.959699 219.383828 
L 57.818007 218.888897 
L 58.683578 218.389777 
" style="fill:none;stroke:#000000;stroke-linecap:square;"/>
   </g>
   <g id="line2d_31">
    <path clip-path="url(#p693f9b2d86)" d="M 47.849682 202.184886 
L 48.773048 201.849224 
L 49.704366 201.510671 
L 50.643566 201.169253 
" style="fill:none;stroke:#000000;stroke-linecap:square;"/>
   </g>
   <g id="line2d_32">
    <path clip-path="url(#p693f9b2d86)" d="M 42.791698 183.331592 
L 43.759395 183.161172 
L 44.735427 182.989285 
L 45.719718 182.815942 
" style="fill:none;stroke:#000000;stroke-linecap:square;"/>
   </g>
   <g id="line2d_33">
    <path clip-path="url(#p693f9b2d86)" d="M 41.088453 163.8875 
L 42.071078 163.8875 
L 43.062166 163.8875 
L 44.061642 163.8875 
" style="fill:none;stroke:#000000;stroke-linecap:square;"/>
   </g>
   <g id="line2d_34">
    <path clip-path="url(#p693f9b2d86)" d="M 42.791698 144.443408 
L 43.759395 144.613828 
L 44.735427 144.785715 
L 45.719718 144.959058 
" style="fill:none;stroke:#000000;stroke-linecap:square;"/>
   </g>
   <g id="line2d_35">
    <path clip-path="url(#p693f9b2d86)" d="M 47.849682 125.590114 
L 48.773048 125.925776 
L 49.704366 126.264329 
L 50.643566 126.605747 
" style="fill:none;stroke:#000000;stroke-linecap:square;"/>
   </g>
   <g id="line2d_36">
    <path clip-path="url(#p693f9b2d86)" d="M 56.108721 107.900468 
L 56.959699 108.391172 
L 57.818007 108.886103 
L 58.683578 109.385223 
" style="fill:none;stroke:#000000;stroke-linecap:square;"/>
   </g>
   <g id="line2d_37">
    <path clip-path="url(#p693f9b2d86)" d="M 67.317866 91.911959 
L 68.070601 92.542796 
L 68.829819 93.179067 
L 69.595462 93.820723 
" style="fill:none;stroke:#000000;stroke-linecap:square;"/>
   </g>
   <g id="line2d_38">
    <path clip-path="url(#p693f9b2d86)" d="M 81.136536 78.11039 
L 81.768155 78.862193 
L 82.405214 79.620471 
L 83.047665 80.385167 
" style="fill:none;stroke:#000000;stroke-linecap:square;"/>
   </g>
   <g id="line2d_39">
    <path clip-path="url(#p693f9b2d86)" d="M 97.144855 66.915115 
L 97.636168 67.765041 
L 98.131712 68.622286 
L 98.63145 69.486787 
" style="fill:none;stroke:#000000;stroke-linecap:square;"/>
   </g>
   <g id="line2d_40">
    <path clip-path="url(#p693f9b2d86)" d="M 114.85642 58.666298 
L 115.192498 59.588521 
L 115.53147 60.518687 
L 115.873311 61.456724 
" style="fill:none;stroke:#000000;stroke-linecap:square;"/>
   </g>
   <g id="line2d_41">
    <path clip-path="url(#p693f9b2d86)" d="M 133.733073 53.614573 
L 133.903704 54.581072 
L 134.075805 55.555896 
L 134.249362 56.53897 
" style="fill:none;stroke:#000000;stroke-linecap:square;"/>
   </g>
   <g id="line2d_42">
    <path clip-path="url(#p693f9b2d86)" d="M 85.091432 214.674993 
L 84.750764 214.99788 
L 84.438316 215.351081 
L 84.155527 215.733389 
L 83.903735 216.143458 
L 83.684175 216.579806 
L 83.497965 217.04082 
L 83.346102 217.524759 
L 83.22945 218.029755 
L 83.148735 218.553826 
L 83.104537 219.09488 
L 83.097281 219.650721 
L 83.127235 220.21906 
L 83.194502 220.797527 
L 83.299016 221.383681 
L 83.440537 221.975018 
L 83.618653 222.568991 
L 83.832773 223.163018 
L 84.082131 223.754499 
L 84.365786 224.340829 
L 84.682625 224.919414 
L 85.031367 225.487685 
L 85.410568 226.043117 
L 85.818626 226.583237 
L 86.253793 227.105647 
L 86.714181 227.608033 
L 87.197775 228.088178 
L 87.702442 228.543981 
L 88.225944 228.973461 
L 88.765952 229.374776 
L 89.320062 229.746225 
L 89.885805 230.086263 
L 90.460664 230.393506 
L 91.042091 230.666736 
L 91.627518 230.904906 
L 92.214376 231.107144 
L 92.800106 231.272757 
L 93.382176 231.401225 
L 93.958093 231.492207 
L 94.525418 231.545536 
L 95.081773 231.561218 
L 95.624858 231.539424 
L 96.152462 231.48049 
L 96.662464 231.384907 
L 97.152852 231.253318 
L 97.621724 231.086509 
L 98.067296 230.885402 
L 98.487907 230.651046 
L 98.882025 230.384613 
L 99.248248 230.087383 
L 99.585309 229.760742 
L 99.892078 229.406168 
L 100.167558 229.025228 
L 100.410893 228.619564 
L 100.621362 228.190891 
L 100.798379 227.740981 
L 100.941493 227.271665 
L 101.050386 226.784817 
L 101.124868 226.28235 
L 101.164877 225.766211 
L 101.170475 225.23837 
L 101.141844 224.700819 
L 101.079284 224.15556 
L 100.983209 223.604601 
L 100.85414 223.049956 
L 100.692707 222.493629 
L 100.499641 221.937619 
L 100.275771 221.383908 
L 100.02202 220.834461 
L 99.739401 220.291218 
L 99.429013 219.756092 
L 99.092037 219.230963 
L 98.729734 218.717674 
L 98.343438 218.218029 
L 97.934554 217.733784 
L 97.504554 217.26665 
L 97.054972 216.818283 
L 96.587402 216.390283 
L 96.103493 215.984188 
L 95.604946 215.601474 
L 95.09351 215.243546 
L 94.570977 214.911737 
L 94.039179 214.607305 
L 93.499984 214.331425 
L 92.955291 214.085187 
L 92.407027 213.869595 
L 91.857142 213.685557 
L 91.307604 213.533885 
L 90.760395 213.415288 
L 90.217504 213.330373 
L 89.680925 213.279634 
L 89.15265 213.263452 
L 88.634661 213.282093 
L 88.128928 213.335698 
L 87.6374 213.424287 
L 87.162 213.547748 
L 86.704617 213.705842 
L 86.267097 213.898194 
L 85.851242 214.124291 
L 85.458793 214.383487 
L 85.091432 214.674993 
" style="fill:none;stroke:#0000ff;stroke-linecap:square;"/>
   </g>
   <g id="line2d_43">
    <path clip-path="url(#p693f9b2d86)" d="M 133.187116 267.949849 
L 133.145122 268.316565 
L 133.144983 268.688508 
L 133.187057 269.064231 
L 133.271539 269.442237 
L 133.398448 269.820982 
L 133.567627 270.198884 
L 133.778736 270.574331 
L 134.031245 270.945683 
L 134.324434 271.311285 
L 134.657387 271.669476 
L 135.028994 272.018598 
L 135.43795 272.357005 
L 135.882756 272.683074 
L 136.361722 272.99522 
L 136.872972 273.291902 
L 137.414451 273.571638 
L 137.983932 273.833017 
L 138.579026 274.074706 
L 139.197195 274.295468 
L 139.835763 274.494163 
L 140.491929 274.669768 
L 141.162788 274.821378 
L 141.845343 274.948217 
L 142.536527 275.049645 
L 143.233218 275.12516 
L 143.932264 275.174408 
L 144.630496 275.197178 
L 145.324755 275.193411 
L 146.011908 275.163192 
L 146.688867 275.106753 
L 147.352613 275.024469 
L 148.000208 274.916853 
L 148.628817 274.784549 
L 149.235719 274.628325 
L 149.818328 274.44907 
L 150.374202 274.247776 
L 150.901054 274.025539 
L 151.396764 273.783541 
L 151.859389 273.523044 
L 152.287163 273.245378 
L 152.678509 272.951931 
L 153.032041 272.644138 
L 153.346562 272.323472 
L 153.621069 271.991434 
L 153.854749 271.649543 
L 154.046981 271.299325 
L 154.197327 270.942311 
L 154.305535 270.580021 
L 154.371529 270.213964 
L 154.395403 269.845629 
L 154.37742 269.476477 
L 154.318002 269.107938 
L 154.217721 268.741409 
L 154.077297 268.378246 
L 153.897585 268.01976 
L 153.679572 267.667221 
L 153.424367 267.321848 
L 153.133196 266.984811 
L 152.807389 266.657231 
L 152.44838 266.340175 
L 152.057694 266.034658 
L 151.636944 265.741641 
L 151.187822 265.462032 
L 150.712093 265.196687 
L 150.211588 264.946406 
L 149.688199 264.711937 
L 149.143875 264.493974 
L 148.580611 264.293159 
L 148.000447 264.11008 
L 147.40546 263.945275 
L 146.797763 263.799228 
L 146.179494 263.67237 
L 145.552817 263.565082 
L 144.919912 263.477693 
L 144.282975 263.410477 
L 143.644209 263.363659 
L 143.005826 263.33741 
L 142.370033 263.331848 
L 141.739035 263.347035 
L 141.115029 263.382982 
L 140.500197 263.439643 
L 139.896703 263.516916 
L 139.306686 263.614641 
L 138.73226 263.7326 
L 138.175502 263.870517 
L 137.638453 264.028052 
L 137.123106 264.204807 
L 136.631409 264.400316 
L 136.165249 264.614054 
L 135.726452 264.845425 
L 135.316777 265.093769 
L 134.937906 265.358359 
L 134.591438 265.638398 
L 134.278884 265.93302 
L 134.001655 266.24129 
L 133.761062 266.562205 
L 133.5583 266.894692 
L 133.394446 267.23761 
L 133.270447 267.589753 
L 133.187116 267.949849 
" style="fill:none;stroke:#ff0000;stroke-linecap:square;"/>
   </g>
   <g id="legend_1">
    <g id="patch_2">
     <path d="M 70.798346 100.5375 
L 227.499596 100.5375 
L 227.499596 7.2 
L 70.798346 7.2 
z
" style="fill:#ffffff;stroke:#000000;stroke-linejoin:miter;"/>
    </g>
    <g id="PathCollection_9">
     <path d="M 79.198346 20.204193 
C 79.791358 20.204193 80.360162 19.968587 80.779485 19.549264 
C 81.198808 19.129941 81.434414 18.561137 81.434414 17.968125 
C 81.434414 17.375113 81.198808 16.806309 80.779485 16.386986 
C 80.360162 15.967663 79.791358 15.732057 79.198346 15.732057 
C 78.605334 15.732057 78.03653 15.967663 77.617207 16.386986 
C 77.197884 16.806309 76.962278 17.375113 76.962278 17.968125 
C 76.962278 18.561137 77.197884 19.129941 77.617207 19.549264 
C 78.03653 19.968587 78.605334 20.204193 79.198346 20.204193 
z
" style="fill:#008000;stroke:#008000;"/>
     <path d="M 87.598346 19.154193 
C 88.191358 19.154193 88.760162 18.918587 89.179485 18.499264 
C 89.598808 18.079941 89.834414 17.511137 89.834414 16.918125 
C 89.834414 16.325113 89.598808 15.756309 89.179485 15.336986 
C 88.760162 14.917663 88.191358 14.682057 87.598346 14.682057 
C 87.005334 14.682057 86.43653 14.917663 86.017207 15.336986 
C 85.597884 15.756309 85.362278 16.325113 85.362278 16.918125 
C 85.362278 17.511137 85.597884 18.079941 86.017207 18.499264 
C 86.43653 18.918587 87.005334 19.154193 87.598346 19.154193 
z
" style="fill:#008000;stroke:#008000;"/>
     <path d="M 95.998346 20.729193 
C 96.591358 20.729193 97.160162 20.493587 97.579485 20.074264 
C 97.998808 19.654941 98.234414 19.086137 98.234414 18.493125 
C 98.234414 17.900113 97.998808 17.331309 97.579485 16.911986 
C 97.160162 16.492663 96.591358 16.257057 95.998346 16.257057 
C 95.405334 16.257057 94.83653 16.492663 94.417207 16.911986 
C 93.997884 17.331309 93.762278 17.900113 93.762278 18.493125 
C 93.762278 19.086137 93.997884 19.654941 94.417207 20.074264 
C 94.83653 20.493587 95.405334 20.729193 95.998346 20.729193 
z
" style="fill:#008000;stroke:#008000;"/>
    </g>
    <g id="text_1">
     <!-- Z35_low -->
     <defs>
      <path d="M 5.609375 72.90625 
L 62.890625 72.90625 
L 62.890625 65.375 
L 16.796875 8.296875 
L 64.015625 8.296875 
L 64.015625 0 
L 4.5 0 
L 4.5 7.515625 
L 50.59375 64.59375 
L 5.609375 64.59375 
z
" id="BitstreamVeraSans-Roman-5a"/>
      <path d="M 50.984375 -16.609375 
L 50.984375 -23.578125 
L -0.984375 -23.578125 
L -0.984375 -16.609375 
z
" id="BitstreamVeraSans-Roman-5f"/>
      <path d="M 10.796875 72.90625 
L 49.515625 72.90625 
L 49.515625 64.59375 
L 19.828125 64.59375 
L 19.828125 46.734375 
Q 21.96875 47.46875 24.109375 47.828125 
Q 26.265625 48.1875 28.421875 48.1875 
Q 40.625 48.1875 47.75 41.5 
Q 54.890625 34.8125 54.890625 23.390625 
Q 54.890625 11.625 47.5625 5.09375 
Q 40.234375 -1.421875 26.90625 -1.421875 
Q 22.3125 -1.421875 17.546875 -0.640625 
Q 12.796875 0.140625 7.71875 1.703125 
L 7.71875 11.625 
Q 12.109375 9.234375 16.796875 8.0625 
Q 21.484375 6.890625 26.703125 6.890625 
Q 35.15625 6.890625 40.078125 11.328125 
Q 45.015625 15.765625 45.015625 23.390625 
Q 45.015625 31 40.078125 35.4375 
Q 35.15625 39.890625 26.703125 39.890625 
Q 22.75 39.890625 18.8125 39.015625 
Q 14.890625 38.140625 10.796875 36.28125 
z
" id="BitstreamVeraSans-Roman-35"/>
      <path d="M 30.609375 48.390625 
Q 23.390625 48.390625 19.1875 42.75 
Q 14.984375 37.109375 14.984375 27.296875 
Q 14.984375 17.484375 19.15625 11.84375 
Q 23.34375 6.203125 30.609375 6.203125 
Q 37.796875 6.203125 41.984375 11.859375 
Q 46.1875 17.53125 46.1875 27.296875 
Q 46.1875 37.015625 41.984375 42.703125 
Q 37.796875 48.390625 30.609375 48.390625 
M 30.609375 56 
Q 42.328125 56 49.015625 48.375 
Q 55.71875 40.765625 55.71875 27.296875 
Q 55.71875 13.875 49.015625 6.21875 
Q 42.328125 -1.421875 30.609375 -1.421875 
Q 18.84375 -1.421875 12.171875 6.21875 
Q 5.515625 13.875 5.515625 27.296875 
Q 5.515625 40.765625 12.171875 48.375 
Q 18.84375 56 30.609375 56 
" id="BitstreamVeraSans-Roman-6f"/>
      <path d="M 9.421875 75.984375 
L 18.40625 75.984375 
L 18.40625 0 
L 9.421875 0 
z
" id="BitstreamVeraSans-Roman-6c"/>
      <path d="M 40.578125 39.3125 
Q 47.65625 37.796875 51.625 33 
Q 55.609375 28.21875 55.609375 21.1875 
Q 55.609375 10.40625 48.1875 4.484375 
Q 40.765625 -1.421875 27.09375 -1.421875 
Q 22.515625 -1.421875 17.65625 -0.515625 
Q 12.796875 0.390625 7.625 2.203125 
L 7.625 11.71875 
Q 11.71875 9.328125 16.59375 8.109375 
Q 21.484375 6.890625 26.8125 6.890625 
Q 36.078125 6.890625 40.9375 10.546875 
Q 45.796875 14.203125 45.796875 21.1875 
Q 45.796875 27.640625 41.28125 31.265625 
Q 36.765625 34.90625 28.71875 34.90625 
L 20.21875 34.90625 
L 20.21875 43.015625 
L 29.109375 43.015625 
Q 36.375 43.015625 40.234375 45.921875 
Q 44.09375 48.828125 44.09375 54.296875 
Q 44.09375 59.90625 40.109375 62.90625 
Q 36.140625 65.921875 28.71875 65.921875 
Q 24.65625 65.921875 20.015625 65.03125 
Q 15.375 64.15625 9.8125 62.3125 
L 9.8125 71.09375 
Q 15.4375 72.65625 20.34375 73.4375 
Q 25.25 74.21875 29.59375 74.21875 
Q 40.828125 74.21875 47.359375 69.109375 
Q 53.90625 64.015625 53.90625 55.328125 
Q 53.90625 49.265625 50.4375 45.09375 
Q 46.96875 40.921875 40.578125 39.3125 
" id="BitstreamVeraSans-Roman-33"/>
      <path d="M 4.203125 54.6875 
L 13.1875 54.6875 
L 24.421875 12.015625 
L 35.59375 54.6875 
L 46.1875 54.6875 
L 57.421875 12.015625 
L 68.609375 54.6875 
L 77.59375 54.6875 
L 63.28125 0 
L 52.6875 0 
L 40.921875 44.828125 
L 29.109375 0 
L 18.5 0 
z
" id="BitstreamVeraSans-Roman-77"/>
     </defs>
     <g transform="translate(109.198346037 21.118125)scale(0.12 -0.12)">
      <use xlink:href="#BitstreamVeraSans-Roman-5a"/>
      <use x="68.505859375" xlink:href="#BitstreamVeraSans-Roman-33"/>
      <use x="132.12890625" xlink:href="#BitstreamVeraSans-Roman-35"/>
      <use x="195.751953125" xlink:href="#BitstreamVeraSans-Roman-5f"/>
      <use x="245.751953125" xlink:href="#BitstreamVeraSans-Roman-6c"/>
      <use x="273.53515625" xlink:href="#BitstreamVeraSans-Roman-6f"/>
      <use x="334.716796875" xlink:href="#BitstreamVeraSans-Roman-77"/>
     </g>
    </g>
    <g id="PathCollection_10">
     <path d="M 79.198346 38.151693 
C 79.791358 38.151693 80.360162 37.916087 80.779485 37.496764 
C 81.198808 37.077441 81.434414 36.508637 81.434414 35.915625 
C 81.434414 35.322613 81.198808 34.753809 80.779485 34.334486 
C 80.360162 33.915163 79.791358 33.679557 79.198346 33.679557 
C 78.605334 33.679557 78.03653 33.915163 77.617207 34.334486 
C 77.197884 34.753809 76.962278 35.322613 76.962278 35.915625 
C 76.962278 36.508637 77.197884 37.077441 77.617207 37.496764 
C 78.03653 37.916087 78.605334 38.151693 79.198346 38.151693 
L 79.198346 38.151693 
z
" style="fill:none;stroke:#ff0000;"/>
     <path d="M 87.598346 37.101693 
C 88.191358 37.101693 88.760162 36.866087 89.179485 36.446764 
C 89.598808 36.027441 89.834414 35.458637 89.834414 34.865625 
C 89.834414 34.272613 89.598808 33.703809 89.179485 33.284486 
C 88.760162 32.865163 88.191358 32.629557 87.598346 32.629557 
C 87.005334 32.629557 86.43653 32.865163 86.017207 33.284486 
C 85.597884 33.703809 85.362278 34.272613 85.362278 34.865625 
C 85.362278 35.458637 85.597884 36.027441 86.017207 36.446764 
C 86.43653 36.866087 87.005334 37.101693 87.598346 37.101693 
L 87.598346 37.101693 
z
" style="fill:none;stroke:#ff0000;"/>
     <path d="M 95.998346 38.676693 
C 96.591358 38.676693 97.160162 38.441087 97.579485 38.021764 
C 97.998808 37.602441 98.234414 37.033637 98.234414 36.440625 
C 98.234414 35.847613 97.998808 35.278809 97.579485 34.859486 
C 97.160162 34.440163 96.591358 34.204557 95.998346 34.204557 
C 95.405334 34.204557 94.83653 34.440163 94.417207 34.859486 
C 93.997884 35.278809 93.762278 35.847613 93.762278 36.440625 
C 93.762278 37.033637 93.997884 37.602441 94.417207 38.021764 
C 94.83653 38.441087 95.405334 38.676693 95.998346 38.676693 
L 95.998346 38.676693 
z
" style="fill:none;stroke:#ff0000;"/>
    </g>
    <g id="text_2">
     <!-- Z35_hematite -->
     <defs>
      <path d="M 52 44.1875 
Q 55.375 50.25 60.0625 53.125 
Q 64.75 56 71.09375 56 
Q 79.640625 56 84.28125 50.015625 
Q 88.921875 44.046875 88.921875 33.015625 
L 88.921875 0 
L 79.890625 0 
L 79.890625 32.71875 
Q 79.890625 40.578125 77.09375 44.375 
Q 74.3125 48.1875 68.609375 48.1875 
Q 61.625 48.1875 57.5625 43.546875 
Q 53.515625 38.921875 53.515625 30.90625 
L 53.515625 0 
L 44.484375 0 
L 44.484375 32.71875 
Q 44.484375 40.625 41.703125 44.40625 
Q 38.921875 48.1875 33.109375 48.1875 
Q 26.21875 48.1875 22.15625 43.53125 
Q 18.109375 38.875 18.109375 30.90625 
L 18.109375 0 
L 9.078125 0 
L 9.078125 54.6875 
L 18.109375 54.6875 
L 18.109375 46.1875 
Q 21.1875 51.21875 25.484375 53.609375 
Q 29.78125 56 35.6875 56 
Q 41.65625 56 45.828125 52.96875 
Q 50 49.953125 52 44.1875 
" id="BitstreamVeraSans-Roman-6d"/>
      <path d="M 9.421875 54.6875 
L 18.40625 54.6875 
L 18.40625 0 
L 9.421875 0 
z
M 9.421875 75.984375 
L 18.40625 75.984375 
L 18.40625 64.59375 
L 9.421875 64.59375 
z
" id="BitstreamVeraSans-Roman-69"/>
      <path d="M 54.890625 33.015625 
L 54.890625 0 
L 45.90625 0 
L 45.90625 32.71875 
Q 45.90625 40.484375 42.875 44.328125 
Q 39.84375 48.1875 33.796875 48.1875 
Q 26.515625 48.1875 22.3125 43.546875 
Q 18.109375 38.921875 18.109375 30.90625 
L 18.109375 0 
L 9.078125 0 
L 9.078125 75.984375 
L 18.109375 75.984375 
L 18.109375 46.1875 
Q 21.34375 51.125 25.703125 53.5625 
Q 30.078125 56 35.796875 56 
Q 45.21875 56 50.046875 50.171875 
Q 54.890625 44.34375 54.890625 33.015625 
" id="BitstreamVeraSans-Roman-68"/>
      <path d="M 56.203125 29.59375 
L 56.203125 25.203125 
L 14.890625 25.203125 
Q 15.484375 15.921875 20.484375 11.0625 
Q 25.484375 6.203125 34.421875 6.203125 
Q 39.59375 6.203125 44.453125 7.46875 
Q 49.3125 8.734375 54.109375 11.28125 
L 54.109375 2.78125 
Q 49.265625 0.734375 44.1875 -0.34375 
Q 39.109375 -1.421875 33.890625 -1.421875 
Q 20.796875 -1.421875 13.15625 6.1875 
Q 5.515625 13.8125 5.515625 26.8125 
Q 5.515625 40.234375 12.765625 48.109375 
Q 20.015625 56 32.328125 56 
Q 43.359375 56 49.78125 48.890625 
Q 56.203125 41.796875 56.203125 29.59375 
M 47.21875 32.234375 
Q 47.125 39.59375 43.09375 43.984375 
Q 39.0625 48.390625 32.421875 48.390625 
Q 24.90625 48.390625 20.390625 44.140625 
Q 15.875 39.890625 15.1875 32.171875 
z
" id="BitstreamVeraSans-Roman-65"/>
      <path d="M 18.3125 70.21875 
L 18.3125 54.6875 
L 36.8125 54.6875 
L 36.8125 47.703125 
L 18.3125 47.703125 
L 18.3125 18.015625 
Q 18.3125 11.328125 20.140625 9.421875 
Q 21.96875 7.515625 27.59375 7.515625 
L 36.8125 7.515625 
L 36.8125 0 
L 27.59375 0 
Q 17.1875 0 13.234375 3.875 
Q 9.28125 7.765625 9.28125 18.015625 
L 9.28125 47.703125 
L 2.6875 47.703125 
L 2.6875 54.6875 
L 9.28125 54.6875 
L 9.28125 70.21875 
z
" id="BitstreamVeraSans-Roman-74"/>
      <path d="M 34.28125 27.484375 
Q 23.390625 27.484375 19.1875 25 
Q 14.984375 22.515625 14.984375 16.5 
Q 14.984375 11.71875 18.140625 8.90625 
Q 21.296875 6.109375 26.703125 6.109375 
Q 34.1875 6.109375 38.703125 11.40625 
Q 43.21875 16.703125 43.21875 25.484375 
L 43.21875 27.484375 
z
M 52.203125 31.203125 
L 52.203125 0 
L 43.21875 0 
L 43.21875 8.296875 
Q 40.140625 3.328125 35.546875 0.953125 
Q 30.953125 -1.421875 24.3125 -1.421875 
Q 15.921875 -1.421875 10.953125 3.296875 
Q 6 8.015625 6 15.921875 
Q 6 25.140625 12.171875 29.828125 
Q 18.359375 34.515625 30.609375 34.515625 
L 43.21875 34.515625 
L 43.21875 35.40625 
Q 43.21875 41.609375 39.140625 45 
Q 35.0625 48.390625 27.6875 48.390625 
Q 23 48.390625 18.546875 47.265625 
Q 14.109375 46.140625 10.015625 43.890625 
L 10.015625 52.203125 
Q 14.9375 54.109375 19.578125 55.046875 
Q 24.21875 56 28.609375 56 
Q 40.484375 56 46.34375 49.84375 
Q 52.203125 43.703125 52.203125 31.203125 
" id="BitstreamVeraSans-Roman-61"/>
     </defs>
     <g transform="translate(109.198346037 39.065625)scale(0.12 -0.12)">
      <use xlink:href="#BitstreamVeraSans-Roman-5a"/>
      <use x="68.505859375" xlink:href="#BitstreamVeraSans-Roman-33"/>
      <use x="132.12890625" xlink:href="#BitstreamVeraSans-Roman-35"/>
      <use x="195.751953125" xlink:href="#BitstreamVeraSans-Roman-5f"/>
      <use x="245.751953125" xlink:href="#BitstreamVeraSans-Roman-68"/>
      <use x="309.130859375" xlink:href="#BitstreamVeraSans-Roman-65"/>
      <use x="370.654296875" xlink:href="#BitstreamVeraSans-Roman-6d"/>
      <use x="468.06640625" xlink:href="#BitstreamVeraSans-Roman-61"/>
      <use x="529.345703125" xlink:href="#BitstreamVeraSans-Roman-74"/>
      <use x="568.5546875" xlink:href="#BitstreamVeraSans-Roman-69"/>
      <use x="596.337890625" xlink:href="#BitstreamVeraSans-Roman-74"/>
      <use x="635.546875" xlink:href="#BitstreamVeraSans-Roman-65"/>
     </g>
    </g>
    <g id="PathCollection_11">
     <path d="M 79.198346 56.099193 
C 79.791358 56.099193 80.360162 55.863587 80.779485 55.444264 
C 81.198808 55.024941 81.434414 54.456137 81.434414 53.863125 
C 81.434414 53.270113 81.198808 52.701309 80.779485 52.281986 
C 80.360162 51.862663 79.791358 51.627057 79.198346 51.627057 
C 78.605334 51.627057 78.03653 51.862663 77.617207 52.281986 
C 77.197884 52.701309 76.962278 53.270113 76.962278 53.863125 
C 76.962278 54.456137 77.197884 55.024941 77.617207 55.444264 
C 78.03653 55.863587 78.605334 56.099193 79.198346 56.099193 
z
" style="fill:#ff0000;stroke:#ff0000;"/>
     <path d="M 87.598346 55.049193 
C 88.191358 55.049193 88.760162 54.813587 89.179485 54.394264 
C 89.598808 53.974941 89.834414 53.406137 89.834414 52.813125 
C 89.834414 52.220113 89.598808 51.651309 89.179485 51.231986 
C 88.760162 50.812663 88.191358 50.577057 87.598346 50.577057 
C 87.005334 50.577057 86.43653 50.812663 86.017207 51.231986 
C 85.597884 51.651309 85.362278 52.220113 85.362278 52.813125 
C 85.362278 53.406137 85.597884 53.974941 86.017207 54.394264 
C 86.43653 54.813587 87.005334 55.049193 87.598346 55.049193 
z
" style="fill:#ff0000;stroke:#ff0000;"/>
     <path d="M 95.998346 56.624193 
C 96.591358 56.624193 97.160162 56.388587 97.579485 55.969264 
C 97.998808 55.549941 98.234414 54.981137 98.234414 54.388125 
C 98.234414 53.795113 97.998808 53.226309 97.579485 52.806986 
C 97.160162 52.387663 96.591358 52.152057 95.998346 52.152057 
C 95.405334 52.152057 94.83653 52.387663 94.417207 52.806986 
C 93.997884 53.226309 93.762278 53.795113 93.762278 54.388125 
C 93.762278 54.981137 93.997884 55.549941 94.417207 55.969264 
C 94.83653 56.388587 95.405334 56.624193 95.998346 56.624193 
z
" style="fill:#ff0000;stroke:#ff0000;"/>
    </g>
    <g id="text_3">
     <!-- Z35_hematite -->
     <g transform="translate(109.198346037 57.013125)scale(0.12 -0.12)">
      <use xlink:href="#BitstreamVeraSans-Roman-5a"/>
      <use x="68.505859375" xlink:href="#BitstreamVeraSans-Roman-33"/>
      <use x="132.12890625" xlink:href="#BitstreamVeraSans-Roman-35"/>
      <use x="195.751953125" xlink:href="#BitstreamVeraSans-Roman-5f"/>
      <use x="245.751953125" xlink:href="#BitstreamVeraSans-Roman-68"/>
      <use x="309.130859375" xlink:href="#BitstreamVeraSans-Roman-65"/>
      <use x="370.654296875" xlink:href="#BitstreamVeraSans-Roman-6d"/>
      <use x="468.06640625" xlink:href="#BitstreamVeraSans-Roman-61"/>
      <use x="529.345703125" xlink:href="#BitstreamVeraSans-Roman-74"/>
      <use x="568.5546875" xlink:href="#BitstreamVeraSans-Roman-69"/>
      <use x="596.337890625" xlink:href="#BitstreamVeraSans-Roman-74"/>
      <use x="635.546875" xlink:href="#BitstreamVeraSans-Roman-65"/>
     </g>
    </g>
    <g id="PathCollection_12">
     <path d="M 76.962278 74.046693 
L 81.434414 74.046693 
L 81.434414 69.574557 
L 76.962278 69.574557 
z
" style="fill:#ffffff;stroke:#0000ff;"/>
     <path d="M 85.362278 72.996693 
L 89.834414 72.996693 
L 89.834414 68.524557 
L 85.362278 68.524557 
z
" style="fill:#ffffff;stroke:#0000ff;"/>
     <path d="M 93.762278 74.571693 
L 98.234414 74.571693 
L 98.234414 70.099557 
L 93.762278 70.099557 
z
" style="fill:#ffffff;stroke:#0000ff;"/>
    </g>
    <g id="text_4">
     <!-- Z35_mag_tc_mean -->
     <defs>
      <path d="M 54.890625 33.015625 
L 54.890625 0 
L 45.90625 0 
L 45.90625 32.71875 
Q 45.90625 40.484375 42.875 44.328125 
Q 39.84375 48.1875 33.796875 48.1875 
Q 26.515625 48.1875 22.3125 43.546875 
Q 18.109375 38.921875 18.109375 30.90625 
L 18.109375 0 
L 9.078125 0 
L 9.078125 54.6875 
L 18.109375 54.6875 
L 18.109375 46.1875 
Q 21.34375 51.125 25.703125 53.5625 
Q 30.078125 56 35.796875 56 
Q 45.21875 56 50.046875 50.171875 
Q 54.890625 44.34375 54.890625 33.015625 
" id="BitstreamVeraSans-Roman-6e"/>
      <path d="M 45.40625 27.984375 
Q 45.40625 37.75 41.375 43.109375 
Q 37.359375 48.484375 30.078125 48.484375 
Q 22.859375 48.484375 18.828125 43.109375 
Q 14.796875 37.75 14.796875 27.984375 
Q 14.796875 18.265625 18.828125 12.890625 
Q 22.859375 7.515625 30.078125 7.515625 
Q 37.359375 7.515625 41.375 12.890625 
Q 45.40625 18.265625 45.40625 27.984375 
M 54.390625 6.78125 
Q 54.390625 -7.171875 48.1875 -13.984375 
Q 42 -20.796875 29.203125 -20.796875 
Q 24.46875 -20.796875 20.265625 -20.09375 
Q 16.0625 -19.390625 12.109375 -17.921875 
L 12.109375 -9.1875 
Q 16.0625 -11.328125 19.921875 -12.34375 
Q 23.78125 -13.375 27.78125 -13.375 
Q 36.625 -13.375 41.015625 -8.765625 
Q 45.40625 -4.15625 45.40625 5.171875 
L 45.40625 9.625 
Q 42.625 4.78125 38.28125 2.390625 
Q 33.9375 0 27.875 0 
Q 17.828125 0 11.671875 7.65625 
Q 5.515625 15.328125 5.515625 27.984375 
Q 5.515625 40.671875 11.671875 48.328125 
Q 17.828125 56 27.875 56 
Q 33.9375 56 38.28125 53.609375 
Q 42.625 51.21875 45.40625 46.390625 
L 45.40625 54.6875 
L 54.390625 54.6875 
z
" id="BitstreamVeraSans-Roman-67"/>
      <path d="M 48.78125 52.59375 
L 48.78125 44.1875 
Q 44.96875 46.296875 41.140625 47.34375 
Q 37.3125 48.390625 33.40625 48.390625 
Q 24.65625 48.390625 19.8125 42.84375 
Q 14.984375 37.3125 14.984375 27.296875 
Q 14.984375 17.28125 19.8125 11.734375 
Q 24.65625 6.203125 33.40625 6.203125 
Q 37.3125 6.203125 41.140625 7.25 
Q 44.96875 8.296875 48.78125 10.40625 
L 48.78125 2.09375 
Q 45.015625 0.34375 40.984375 -0.53125 
Q 36.96875 -1.421875 32.421875 -1.421875 
Q 20.0625 -1.421875 12.78125 6.34375 
Q 5.515625 14.109375 5.515625 27.296875 
Q 5.515625 40.671875 12.859375 48.328125 
Q 20.21875 56 33.015625 56 
Q 37.15625 56 41.109375 55.140625 
Q 45.0625 54.296875 48.78125 52.59375 
" id="BitstreamVeraSans-Roman-63"/>
     </defs>
     <g transform="translate(109.198346037 74.960625)scale(0.12 -0.12)">
      <use xlink:href="#BitstreamVeraSans-Roman-5a"/>
      <use x="68.505859375" xlink:href="#BitstreamVeraSans-Roman-33"/>
      <use x="132.12890625" xlink:href="#BitstreamVeraSans-Roman-35"/>
      <use x="195.751953125" xlink:href="#BitstreamVeraSans-Roman-5f"/>
      <use x="245.751953125" xlink:href="#BitstreamVeraSans-Roman-6d"/>
      <use x="343.1640625" xlink:href="#BitstreamVeraSans-Roman-61"/>
      <use x="404.443359375" xlink:href="#BitstreamVeraSans-Roman-67"/>
      <use x="467.919921875" xlink:href="#BitstreamVeraSans-Roman-5f"/>
      <use x="517.919921875" xlink:href="#BitstreamVeraSans-Roman-74"/>
      <use x="557.12890625" xlink:href="#BitstreamVeraSans-Roman-63"/>
      <use x="612.109375" xlink:href="#BitstreamVeraSans-Roman-5f"/>
      <use x="662.109375" xlink:href="#BitstreamVeraSans-Roman-6d"/>
      <use x="759.521484375" xlink:href="#BitstreamVeraSans-Roman-65"/>
      <use x="821.044921875" xlink:href="#BitstreamVeraSans-Roman-61"/>
      <use x="882.32421875" xlink:href="#BitstreamVeraSans-Roman-6e"/>
     </g>
    </g>
    <g id="PathCollection_13">
     <path d="M 76.962278 91.994193 
L 81.434414 91.994193 
L 81.434414 87.522057 
L 76.962278 87.522057 
z
" style="fill:#ff0000;stroke:#ff0000;"/>
     <path d="M 85.362278 90.944193 
L 89.834414 90.944193 
L 89.834414 86.472057 
L 85.362278 86.472057 
z
" style="fill:#ff0000;stroke:#ff0000;"/>
     <path d="M 93.762278 92.519193 
L 98.234414 92.519193 
L 98.234414 88.047057 
L 93.762278 88.047057 
z
" style="fill:#ff0000;stroke:#ff0000;"/>
    </g>
    <g id="text_5">
     <!-- Z35_hem_tc_mean -->
     <g transform="translate(109.198346037 92.908125)scale(0.12 -0.12)">
      <use xlink:href="#BitstreamVeraSans-Roman-5a"/>
      <use x="68.505859375" xlink:href="#BitstreamVeraSans-Roman-33"/>
      <use x="132.12890625" xlink:href="#BitstreamVeraSans-Roman-35"/>
      <use x="195.751953125" xlink:href="#BitstreamVeraSans-Roman-5f"/>
      <use x="245.751953125" xlink:href="#BitstreamVeraSans-Roman-68"/>
      <use x="309.130859375" xlink:href="#BitstreamVeraSans-Roman-65"/>
      <use x="370.654296875" xlink:href="#BitstreamVeraSans-Roman-6d"/>
      <use x="468.06640625" xlink:href="#BitstreamVeraSans-Roman-5f"/>
      <use x="518.06640625" xlink:href="#BitstreamVeraSans-Roman-74"/>
      <use x="557.275390625" xlink:href="#BitstreamVeraSans-Roman-63"/>
      <use x="612.255859375" xlink:href="#BitstreamVeraSans-Roman-5f"/>
      <use x="662.255859375" xlink:href="#BitstreamVeraSans-Roman-6d"/>
      <use x="759.66796875" xlink:href="#BitstreamVeraSans-Roman-65"/>
      <use x="821.19140625" xlink:href="#BitstreamVeraSans-Roman-61"/>
      <use x="882.470703125" xlink:href="#BitstreamVeraSans-Roman-6e"/>
     </g>
    </g>
   </g>
  </g>
 </g>
 <defs>
  <clipPath id="p693f9b2d86">
   <rect height="253.4" width="235.436890244" x="35.4828125" y="37.1875"/>
  </clipPath>
 </defs>
</svg>
