<?xml version="1.0" encoding="utf-8" standalone="no"?>
<!DOCTYPE svg PUBLIC "-//W3C//DTD SVG 1.1//EN"
  "http://www.w3.org/Graphics/SVG/1.1/DTD/svg11.dtd">
<!-- Created with matplotlib (http://matplotlib.org/) -->
<svg height="281pt" version="1.1" viewBox="0 0 280 281" width="280pt" xmlns="http://www.w3.org/2000/svg" xmlns:xlink="http://www.w3.org/1999/xlink">
 <defs>
  <style type="text/css">
*{stroke-linecap:butt;stroke-linejoin:round;stroke-miterlimit:100000;}
  </style>
 </defs>
 <g id="figure_1">
  <g id="patch_1">
   <path d="M 0 281.478125 
L 280.465621 281.478125 
L 280.465621 0 
L 0 0 
L 0 281.478125 
z
" style="fill:none;"/>
  </g>
  <g id="axes_1">
   <g id="PathCollection_1">
    <defs>
     <path d="M 0 2.236068 
C 0.593012 2.236068 1.161816 2.000462 1.581139 1.581139 
C 2.000462 1.161816 2.236068 0.593012 2.236068 0 
C 2.236068 -0.593012 2.000462 -1.161816 1.581139 -1.581139 
C 1.161816 -2.000462 0.593012 -2.236068 0 -2.236068 
C -0.593012 -2.236068 -1.161816 -2.000462 -1.581139 -1.581139 
C -2.000462 -1.161816 -2.236068 -0.593012 -2.236068 0 
C -2.236068 0.593012 -2.000462 1.161816 -1.581139 1.581139 
C -1.161816 2.000462 -0.593012 2.236068 0 2.236068 
z
" id="mf82e2206bb" style="stroke:#ff0000;"/>
    </defs>
    <g clip-path="url(#p64096dfc23)">
     <use style="fill:#ff0000;stroke:#ff0000;" x="164.572409274" xlink:href="#mf82e2206bb" y="226.396009718"/>
     <use style="fill:#ff0000;stroke:#ff0000;" x="163.04337716" xlink:href="#mf82e2206bb" y="222.93850064"/>
     <use style="fill:#ff0000;stroke:#ff0000;" x="167.321044849" xlink:href="#mf82e2206bb" y="222.938519683"/>
     <use style="fill:#ff0000;stroke:#ff0000;" x="146.716298746" xlink:href="#mf82e2206bb" y="222.099029341"/>
     <use style="fill:#ff0000;stroke:#ff0000;" x="164.12579824" xlink:href="#mf82e2206bb" y="220.269645096"/>
     <use style="fill:#ff0000;stroke:#ff0000;" x="158.3500536" xlink:href="#mf82e2206bb" y="220.456882473"/>
     <use style="fill:#ff0000;stroke:#ff0000;" x="168.253818063" xlink:href="#mf82e2206bb" y="222.785961235"/>
     <use style="fill:#ff0000;stroke:#ff0000;" x="170.393237446" xlink:href="#mf82e2206bb" y="213.994191738"/>
    </g>
   </g>
   <g id="PathCollection_2">
    <defs>
     <path d="M 0 2.236068 
C 0.593012 2.236068 1.161816 2.000462 1.581139 1.581139 
C 2.000462 1.161816 2.236068 0.593012 2.236068 0 
C 2.236068 -0.593012 2.000462 -1.161816 1.581139 -1.581139 
C 1.161816 -2.000462 0.593012 -2.236068 0 -2.236068 
C -0.593012 -2.236068 -1.161816 -2.000462 -1.581139 -1.581139 
C -2.000462 -1.161816 -2.236068 -0.593012 -2.236068 0 
C -2.236068 0.593012 -2.000462 1.161816 -1.581139 1.581139 
C -1.161816 2.000462 -0.593012 2.236068 0 2.236068 
z
" id="m2109d3cd0d" style="stroke:#0000ff;"/>
    </defs>
    <g clip-path="url(#p64096dfc23)">
     <use style="fill:#0000ff;stroke:#0000ff;" x="160.55554662" xlink:href="#m2109d3cd0d" y="229.359264697"/>
     <use style="fill:#0000ff;stroke:#0000ff;" x="150.626087686" xlink:href="#m2109d3cd0d" y="232.120000421"/>
     <use style="fill:#0000ff;stroke:#0000ff;" x="168.309954603" xlink:href="#m2109d3cd0d" y="228.110030966"/>
     <use style="fill:#0000ff;stroke:#0000ff;" x="150.527763827" xlink:href="#m2109d3cd0d" y="229.494043501"/>
     <use style="fill:#0000ff;stroke:#0000ff;" x="165.887723237" xlink:href="#m2109d3cd0d" y="217.681550484"/>
     <use style="fill:#0000ff;stroke:#0000ff;" x="161.67081541" xlink:href="#m2109d3cd0d" y="230.587712731"/>
     <use style="fill:#0000ff;stroke:#0000ff;" x="165.613742815" xlink:href="#m2109d3cd0d" y="233.430080274"/>
     <use style="fill:#0000ff;stroke:#0000ff;" x="163.145343817" xlink:href="#m2109d3cd0d" y="230.007872231"/>
    </g>
   </g>
   <g id="PathCollection_3">
    <defs>
     <path d="M -2.236068 2.236068 
L 2.236068 2.236068 
L 2.236068 -2.236068 
L -2.236068 -2.236068 
z
" id="me6d7c4bf88" style="stroke:#0000ff;"/>
    </defs>
    <g clip-path="url(#p64096dfc23)">
     <use style="fill:#0000ff;stroke:#0000ff;" x="160.859279738" xlink:href="#me6d7c4bf88" y="229.081789979"/>
    </g>
   </g>
   <g id="PathCollection_4">
    <defs>
     <path d="M -2.236068 2.236068 
L 2.236068 2.236068 
L 2.236068 -2.236068 
L -2.236068 -2.236068 
z
" id="me161063be5" style="stroke:#ff0000;"/>
    </defs>
    <g clip-path="url(#p64096dfc23)">
     <use style="fill:#ff0000;stroke:#ff0000;" x="162.887824785" xlink:href="#me161063be5" y="221.717131127"/>
    </g>
   </g>
   <g id="line2d_1">
    <path clip-path="url(#p64096dfc23)" d="M 153.201256 21.925935 
L 159.068786 22.079392 
L 164.920235 22.539341 
L 170.739562 23.304522 
L 176.510818 24.372837 
L 182.218184 25.741359 
L 187.846017 27.406336 
L 193.378891 29.363205 
L 198.801641 31.606602 
L 204.099403 34.130378 
L 209.257657 36.927615 
L 214.262264 39.990648 
L 219.099508 43.311079 
L 223.756129 46.879808 
L 228.219364 50.687053 
L 232.476979 54.72238 
L 236.517305 58.974726 
L 240.329268 63.432438 
L 243.902419 68.083296 
L 247.226964 72.914553 
L 250.293791 77.912968 
L 253.094495 83.064838 
L 255.621398 88.356045 
L 257.867574 93.772084 
L 259.826868 99.298111 
L 261.493908 104.91898 
L 262.864125 110.619283 
L 263.933764 116.383397 
L 264.699893 122.195523 
L 265.160412 128.03973 
L 265.314059 133.9 
L 265.160412 139.76027 
L 264.699893 145.604477 
L 263.933764 151.416603 
L 262.864125 157.180717 
L 261.493908 162.88102 
L 259.826868 168.501889 
L 257.867574 174.027916 
L 255.621398 179.443955 
L 253.094495 184.735162 
L 250.293791 189.887032 
L 247.226964 194.885447 
L 243.902419 199.716704 
L 240.329268 204.367562 
L 236.517305 208.825274 
L 232.476979 213.07762 
L 228.219364 217.112947 
L 223.756129 220.920192 
L 219.099508 224.488921 
L 214.262264 227.809352 
L 209.257657 230.872385 
L 204.099403 233.669622 
L 198.801641 236.193398 
L 193.378891 238.436795 
L 187.846017 240.393664 
L 182.218184 242.058641 
L 176.510818 243.427163 
L 170.739562 244.495478 
L 164.920235 245.260659 
L 159.068786 245.720608 
L 153.201256 245.874065 
L 147.333725 245.720608 
L 141.482277 245.260659 
L 135.662949 244.495478 
L 129.891693 243.427163 
L 124.184327 242.058641 
L 118.556494 240.393664 
L 113.02362 238.436795 
L 107.600871 236.193398 
L 102.303108 233.669622 
L 97.144854 230.872385 
L 92.140247 227.809352 
L 87.303003 224.488921 
L 82.646383 220.920192 
L 78.183148 217.112947 
L 73.925532 213.07762 
L 69.885206 208.825274 
L 66.073244 204.367562 
L 62.500093 199.716704 
L 59.175547 194.885447 
L 56.10872 189.887032 
L 53.308017 184.735162 
L 50.781114 179.443955 
L 48.534937 174.027916 
L 46.575644 168.501889 
L 44.908604 162.88102 
L 43.538386 157.180717 
L 42.468747 151.416603 
L 41.702618 145.604477 
L 41.242099 139.76027 
L 41.088453 133.9 
L 41.242099 128.03973 
L 41.702618 122.195523 
L 42.468747 116.383397 
L 43.538386 110.619283 
L 44.908604 104.91898 
L 46.575644 99.298111 
L 48.534937 93.772084 
L 50.781114 88.356045 
L 53.308017 83.064838 
L 56.10872 77.912968 
L 59.175547 72.914553 
L 62.500093 68.083296 
L 66.073244 63.432438 
L 69.885206 58.974726 
L 73.925532 54.72238 
L 78.183148 50.687053 
L 82.646383 46.879808 
L 87.303003 43.311079 
L 92.140247 39.990648 
L 97.144854 36.927615 
L 102.303108 34.130378 
L 107.600871 31.606602 
L 113.02362 29.363205 
L 118.556494 27.406336 
L 124.184327 25.741359 
L 129.891693 24.372837 
L 135.662949 23.304522 
L 141.482277 22.539341 
L 147.333725 22.079392 
L 153.201256 21.925935 
L 153.201256 21.925935 
" style="fill:none;stroke:#000000;stroke-linecap:square;"/>
   </g>
   <g id="line2d_2">
    <defs>
     <path d="M -3 0 
L 3 0 
M 0 3 
L 0 -3 
" id="m5ed3510a95" style="stroke:#000000;stroke-width:0.5;"/>
    </defs>
    <g clip-path="url(#p64096dfc23)">
     <use style="stroke:#000000;stroke-width:0.5;" x="153.201255656" xlink:href="#m5ed3510a95" y="32.1112132669"/>
     <use style="stroke:#000000;stroke-width:0.5;" x="153.201255656" xlink:href="#m5ed3510a95" y="43.0711652884"/>
     <use style="stroke:#000000;stroke-width:0.5;" x="153.201255656" xlink:href="#m5ed3510a95" y="54.722379586"/>
     <use style="stroke:#000000;stroke-width:0.5;" x="153.201255656" xlink:href="#m5ed3510a95" y="66.9761833838"/>
     <use style="stroke:#000000;stroke-width:0.5;" x="153.201255656" xlink:href="#m5ed3510a95" y="79.7393178357"/>
     <use style="stroke:#000000;stroke-width:0.5;" x="153.201255656" xlink:href="#m5ed3510a95" y="92.9146477819"/>
     <use style="stroke:#000000;stroke-width:0.5;" x="153.201255656" xlink:href="#m5ed3510a95" y="106.401901006"/>
     <use style="stroke:#000000;stroke-width:0.5;" x="153.201255656" xlink:href="#m5ed3510a95" y="120.098431368"/>
     <use style="stroke:#000000;stroke-width:0.5;" x="153.201255656" xlink:href="#m5ed3510a95" y="133.9"/>
    </g>
   </g>
   <g id="line2d_3">
    <g clip-path="url(#p64096dfc23)">
     <use style="stroke:#000000;stroke-width:0.5;" x="255.11616098" xlink:href="#m5ed3510a95" y="133.9"/>
     <use style="stroke:#000000;stroke-width:0.5;" x="244.142629332" xlink:href="#m5ed3510a95" y="133.9"/>
     <use style="stroke:#000000;stroke-width:0.5;" x="232.476978919" xlink:href="#m5ed3510a95" y="133.9"/>
     <use style="stroke:#000000;stroke-width:0.5;" x="220.207992383" xlink:href="#m5ed3510a95" y="133.9"/>
     <use style="stroke:#000000;stroke-width:0.5;" x="207.429044121" xlink:href="#m5ed3510a95" y="133.9"/>
     <use style="stroke:#000000;stroke-width:0.5;" x="194.237389645" xlink:href="#m5ed3510a95" y="133.9"/>
     <use style="stroke:#000000;stroke-width:0.5;" x="180.733425411" xlink:href="#m5ed3510a95" y="133.9"/>
     <use style="stroke:#000000;stroke-width:0.5;" x="167.019924741" xlink:href="#m5ed3510a95" y="133.9"/>
    </g>
   </g>
   <g id="line2d_4">
    <g clip-path="url(#p64096dfc23)">
     <use style="stroke:#000000;stroke-width:0.5;" x="153.201255656" xlink:href="#m5ed3510a95" y="235.688786733"/>
     <use style="stroke:#000000;stroke-width:0.5;" x="153.201255656" xlink:href="#m5ed3510a95" y="224.728834712"/>
     <use style="stroke:#000000;stroke-width:0.5;" x="153.201255656" xlink:href="#m5ed3510a95" y="213.077620414"/>
     <use style="stroke:#000000;stroke-width:0.5;" x="153.201255656" xlink:href="#m5ed3510a95" y="200.823816616"/>
     <use style="stroke:#000000;stroke-width:0.5;" x="153.201255656" xlink:href="#m5ed3510a95" y="188.060682164"/>
     <use style="stroke:#000000;stroke-width:0.5;" x="153.201255656" xlink:href="#m5ed3510a95" y="174.885352218"/>
     <use style="stroke:#000000;stroke-width:0.5;" x="153.201255656" xlink:href="#m5ed3510a95" y="161.398098994"/>
     <use style="stroke:#000000;stroke-width:0.5;" x="153.201255656" xlink:href="#m5ed3510a95" y="147.701568632"/>
    </g>
   </g>
   <g id="line2d_5">
    <g clip-path="url(#p64096dfc23)">
     <use style="stroke:#000000;stroke-width:0.5;" x="51.2863503309" xlink:href="#m5ed3510a95" y="133.9"/>
     <use style="stroke:#000000;stroke-width:0.5;" x="62.259881979" xlink:href="#m5ed3510a95" y="133.9"/>
     <use style="stroke:#000000;stroke-width:0.5;" x="73.9255323927" xlink:href="#m5ed3510a95" y="133.9"/>
     <use style="stroke:#000000;stroke-width:0.5;" x="86.1945189284" xlink:href="#m5ed3510a95" y="133.9"/>
     <use style="stroke:#000000;stroke-width:0.5;" x="98.9734671904" xlink:href="#m5ed3510a95" y="133.9"/>
     <use style="stroke:#000000;stroke-width:0.5;" x="112.165121666" xlink:href="#m5ed3510a95" y="133.9"/>
     <use style="stroke:#000000;stroke-width:0.5;" x="125.6690859" xlink:href="#m5ed3510a95" y="133.9"/>
     <use style="stroke:#000000;stroke-width:0.5;" x="139.38258657" xlink:href="#m5ed3510a95" y="133.9"/>
    </g>
   </g>
   <g id="line2d_6">
    <path clip-path="url(#p64096dfc23)" d="M 153.201256 21.925935 
L 153.201256 22.907345 
L 153.201256 23.897206 
L 153.201256 24.895445 
" style="fill:none;stroke:#000000;stroke-linecap:square;"/>
   </g>
   <g id="line2d_7">
    <path clip-path="url(#p64096dfc23)" d="M 172.66944 23.627073 
L 172.498809 24.593572 
L 172.326708 25.568396 
L 172.153151 26.55147 
" style="fill:none;stroke:#000000;stroke-linecap:square;"/>
   </g>
   <g id="line2d_8">
    <path clip-path="url(#p64096dfc23)" d="M 191.546093 28.678798 
L 191.210015 29.601021 
L 190.871043 30.531187 
L 190.529202 31.469224 
" style="fill:none;stroke:#000000;stroke-linecap:square;"/>
   </g>
   <g id="line2d_9">
    <path clip-path="url(#p64096dfc23)" d="M 209.257657 36.927615 
L 208.766345 37.777541 
L 208.2708 38.634786 
L 207.771063 39.499287 
" style="fill:none;stroke:#000000;stroke-linecap:square;"/>
   </g>
   <g id="line2d_10">
    <path clip-path="url(#p64096dfc23)" d="M 225.265976 48.12289 
L 224.634357 48.874693 
L 223.997298 49.632971 
L 223.354847 50.397667 
" style="fill:none;stroke:#000000;stroke-linecap:square;"/>
   </g>
   <g id="line2d_11">
    <path clip-path="url(#p64096dfc23)" d="M 239.084645 61.924459 
L 238.331911 62.555296 
L 237.572693 63.191567 
L 236.80705 63.833223 
" style="fill:none;stroke:#000000;stroke-linecap:square;"/>
   </g>
   <g id="line2d_12">
    <path clip-path="url(#p64096dfc23)" d="M 250.293791 77.912968 
L 249.442813 78.403672 
L 248.584505 78.898603 
L 247.718934 79.397723 
" style="fill:none;stroke:#000000;stroke-linecap:square;"/>
   </g>
   <g id="line2d_13">
    <path clip-path="url(#p64096dfc23)" d="M 258.552829 95.602614 
L 257.629464 95.938276 
L 256.698145 96.276829 
L 255.758945 96.618247 
" style="fill:none;stroke:#000000;stroke-linecap:square;"/>
   </g>
   <g id="line2d_14">
    <path clip-path="url(#p64096dfc23)" d="M 263.610813 114.455908 
L 262.643116 114.626328 
L 261.667085 114.798215 
L 260.682793 114.971558 
" style="fill:none;stroke:#000000;stroke-linecap:square;"/>
   </g>
   <g id="line2d_15">
    <path clip-path="url(#p64096dfc23)" d="M 265.314059 133.9 
L 264.331433 133.9 
L 263.340345 133.9 
L 262.340869 133.9 
" style="fill:none;stroke:#000000;stroke-linecap:square;"/>
   </g>
   <g id="line2d_16">
    <path clip-path="url(#p64096dfc23)" d="M 263.610813 153.344092 
L 262.643116 153.173672 
L 261.667085 153.001785 
L 260.682793 152.828442 
" style="fill:none;stroke:#000000;stroke-linecap:square;"/>
   </g>
   <g id="line2d_17">
    <path clip-path="url(#p64096dfc23)" d="M 258.552829 172.197386 
L 257.629464 171.861724 
L 256.698145 171.523171 
L 255.758945 171.181753 
" style="fill:none;stroke:#000000;stroke-linecap:square;"/>
   </g>
   <g id="line2d_18">
    <path clip-path="url(#p64096dfc23)" d="M 250.293791 189.887032 
L 249.442813 189.396328 
L 248.584505 188.901397 
L 247.718934 188.402277 
" style="fill:none;stroke:#000000;stroke-linecap:square;"/>
   </g>
   <g id="line2d_19">
    <path clip-path="url(#p64096dfc23)" d="M 239.084645 205.875541 
L 238.331911 205.244704 
L 237.572693 204.608433 
L 236.80705 203.966777 
" style="fill:none;stroke:#000000;stroke-linecap:square;"/>
   </g>
   <g id="line2d_20">
    <path clip-path="url(#p64096dfc23)" d="M 225.265976 219.67711 
L 224.634357 218.925307 
L 223.997298 218.167029 
L 223.354847 217.402333 
" style="fill:none;stroke:#000000;stroke-linecap:square;"/>
   </g>
   <g id="line2d_21">
    <path clip-path="url(#p64096dfc23)" d="M 209.257657 230.872385 
L 208.766345 230.022459 
L 208.2708 229.165214 
L 207.771063 228.300713 
" style="fill:none;stroke:#000000;stroke-linecap:square;"/>
   </g>
   <g id="line2d_22">
    <path clip-path="url(#p64096dfc23)" d="M 191.546093 239.121202 
L 191.210015 238.198979 
L 190.871043 237.268813 
L 190.529202 236.330776 
" style="fill:none;stroke:#000000;stroke-linecap:square;"/>
   </g>
   <g id="line2d_23">
    <path clip-path="url(#p64096dfc23)" d="M 172.66944 244.172927 
L 172.498809 243.206428 
L 172.326708 242.231604 
L 172.153151 241.24853 
" style="fill:none;stroke:#000000;stroke-linecap:square;"/>
   </g>
   <g id="line2d_24">
    <path clip-path="url(#p64096dfc23)" d="M 153.201256 245.874065 
L 153.201256 244.892655 
L 153.201256 243.902794 
L 153.201256 242.904555 
" style="fill:none;stroke:#000000;stroke-linecap:square;"/>
   </g>
   <g id="line2d_25">
    <path clip-path="url(#p64096dfc23)" d="M 133.733072 244.172927 
L 133.903703 243.206428 
L 134.075803 242.231604 
L 134.249361 241.24853 
" style="fill:none;stroke:#000000;stroke-linecap:square;"/>
   </g>
   <g id="line2d_26">
    <path clip-path="url(#p64096dfc23)" d="M 114.856419 239.121202 
L 115.192496 238.198979 
L 115.531468 237.268813 
L 115.873309 236.330776 
" style="fill:none;stroke:#000000;stroke-linecap:square;"/>
   </g>
   <g id="line2d_27">
    <path clip-path="url(#p64096dfc23)" d="M 97.144854 230.872385 
L 97.636167 230.022459 
L 98.131711 229.165214 
L 98.631449 228.300713 
" style="fill:none;stroke:#000000;stroke-linecap:square;"/>
   </g>
   <g id="line2d_28">
    <path clip-path="url(#p64096dfc23)" d="M 81.136535 219.67711 
L 81.768154 218.925307 
L 82.405214 218.167029 
L 83.047664 217.402333 
" style="fill:none;stroke:#000000;stroke-linecap:square;"/>
   </g>
   <g id="line2d_29">
    <path clip-path="url(#p64096dfc23)" d="M 67.317866 205.875541 
L 68.070601 205.244704 
L 68.829818 204.608433 
L 69.595461 203.966777 
" style="fill:none;stroke:#000000;stroke-linecap:square;"/>
   </g>
   <g id="line2d_30">
    <path clip-path="url(#p64096dfc23)" d="M 56.10872 189.887032 
L 56.959699 189.396328 
L 57.818006 188.901397 
L 58.683578 188.402277 
" style="fill:none;stroke:#000000;stroke-linecap:square;"/>
   </g>
   <g id="line2d_31">
    <path clip-path="url(#p64096dfc23)" d="M 47.849682 172.197386 
L 48.773048 171.861724 
L 49.704366 171.523171 
L 50.643566 171.181753 
" style="fill:none;stroke:#000000;stroke-linecap:square;"/>
   </g>
   <g id="line2d_32">
    <path clip-path="url(#p64096dfc23)" d="M 42.791698 153.344092 
L 43.759395 153.173672 
L 44.735426 153.001785 
L 45.719718 152.828442 
" style="fill:none;stroke:#000000;stroke-linecap:square;"/>
   </g>
   <g id="line2d_33">
    <path clip-path="url(#p64096dfc23)" d="M 41.088453 133.9 
L 42.071078 133.9 
L 43.062166 133.9 
L 44.061642 133.9 
" style="fill:none;stroke:#000000;stroke-linecap:square;"/>
   </g>
   <g id="line2d_34">
    <path clip-path="url(#p64096dfc23)" d="M 42.791698 114.455908 
L 43.759395 114.626328 
L 44.735426 114.798215 
L 45.719718 114.971558 
" style="fill:none;stroke:#000000;stroke-linecap:square;"/>
   </g>
   <g id="line2d_35">
    <path clip-path="url(#p64096dfc23)" d="M 47.849682 95.602614 
L 48.773048 95.938276 
L 49.704366 96.276829 
L 50.643566 96.618247 
" style="fill:none;stroke:#000000;stroke-linecap:square;"/>
   </g>
   <g id="line2d_36">
    <path clip-path="url(#p64096dfc23)" d="M 56.10872 77.912968 
L 56.959699 78.403672 
L 57.818006 78.898603 
L 58.683578 79.397723 
" style="fill:none;stroke:#000000;stroke-linecap:square;"/>
   </g>
   <g id="line2d_37">
    <path clip-path="url(#p64096dfc23)" d="M 67.317866 61.924459 
L 68.070601 62.555296 
L 68.829818 63.191567 
L 69.595461 63.833223 
" style="fill:none;stroke:#000000;stroke-linecap:square;"/>
   </g>
   <g id="line2d_38">
    <path clip-path="url(#p64096dfc23)" d="M 81.136535 48.12289 
L 81.768154 48.874693 
L 82.405214 49.632971 
L 83.047664 50.397667 
" style="fill:none;stroke:#000000;stroke-linecap:square;"/>
   </g>
   <g id="line2d_39">
    <path clip-path="url(#p64096dfc23)" d="M 97.144854 36.927615 
L 97.636167 37.777541 
L 98.131711 38.634786 
L 98.631449 39.499287 
" style="fill:none;stroke:#000000;stroke-linecap:square;"/>
   </g>
   <g id="line2d_40">
    <path clip-path="url(#p64096dfc23)" d="M 114.856419 28.678798 
L 115.192496 29.601021 
L 115.531468 30.531187 
L 115.873309 31.469224 
" style="fill:none;stroke:#000000;stroke-linecap:square;"/>
   </g>
   <g id="line2d_41">
    <path clip-path="url(#p64096dfc23)" d="M 133.733072 23.627073 
L 133.903703 24.593572 
L 134.075803 25.568396 
L 134.249361 26.55147 
" style="fill:none;stroke:#000000;stroke-linecap:square;"/>
   </g>
   <g id="line2d_42">
    <path clip-path="url(#p64096dfc23)" d="M 154.065654 229.426641 
L 154.089801 229.697225 
L 154.140768 229.965718 
L 154.218484 230.23104 
L 154.322768 230.492108 
L 154.45333 230.747844 
L 154.609767 230.997178 
L 154.791565 231.239055 
L 154.998101 231.472439 
L 155.228638 231.696317 
L 155.482333 231.909707 
L 155.758234 232.111661 
L 156.055286 232.301272 
L 156.372334 232.477681 
L 156.708124 232.640076 
L 157.061312 232.787706 
L 157.430467 232.919878 
L 157.814079 233.035967 
L 158.210564 233.135416 
L 158.61827 233.217744 
L 159.035489 233.282548 
L 159.460463 233.329503 
L 159.891393 233.358371 
L 160.326448 233.368996 
L 160.763774 233.361309 
L 161.201506 233.335329 
L 161.637775 233.291163 
L 162.070718 233.229004 
L 162.498492 233.149131 
L 162.919277 233.051907 
L 163.331291 232.937776 
L 163.732795 232.807264 
L 164.122107 232.660968 
L 164.497604 232.499562 
L 164.857733 232.323782 
L 165.20102 232.134431 
L 165.526072 231.932367 
L 165.83159 231.718501 
L 166.116365 231.493792 
L 166.37929 231.259238 
L 166.619362 231.015873 
L 166.835685 230.764761 
L 167.02747 230.506988 
L 167.194041 230.24366 
L 167.334835 229.975892 
L 167.449401 229.704807 
L 167.5374 229.43153 
L 167.598606 229.15718 
L 167.632905 228.882869 
L 167.640291 228.609692 
L 167.620867 228.338729 
L 167.574839 228.071037 
L 167.502516 227.807647 
L 167.404305 227.549559 
L 167.280711 227.297743 
L 167.132328 227.05313 
L 166.959839 226.816617 
L 166.764011 226.589056 
L 166.545689 226.37126 
L 166.305795 226.163996 
L 166.045321 225.967985 
L 165.765326 225.783901 
L 165.466931 225.612369 
L 165.151314 225.453964 
L 164.819705 225.309213 
L 164.473384 225.178589 
L 164.113674 225.062517 
L 163.741937 224.961367 
L 163.359572 224.875458 
L 162.968005 224.805059 
L 162.568691 224.750384 
L 162.163106 224.711596 
L 161.752743 224.688805 
L 161.339107 224.68207 
L 160.923714 224.691398 
L 160.508082 224.716744 
L 160.093731 224.758011 
L 159.682177 224.815052 
L 159.274925 224.887669 
L 158.873471 224.975615 
L 158.479292 225.07859 
L 158.093844 225.196249 
L 157.718557 225.328194 
L 157.354833 225.473982 
L 157.004039 225.63312 
L 156.667502 225.805072 
L 156.346509 225.989253 
L 156.042299 226.185034 
L 155.756057 226.391742 
L 155.488916 226.608663 
L 155.241945 226.835041 
L 155.016152 227.070078 
L 154.812474 227.312943 
L 154.631775 227.562763 
L 154.474842 227.818635 
L 154.34238 228.079623 
L 154.23501 228.344762 
L 154.153263 228.613059 
L 154.097576 228.883498 
L 154.068293 229.155043 
L 154.065654 229.426641 
" style="fill:none;stroke:#0000ff;stroke-linecap:square;"/>
   </g>
   <g id="line2d_43">
    <path clip-path="url(#p64096dfc23)" d="M 156.74269 222.233435 
L 156.775656 222.497955 
L 156.832836 222.759648 
L 156.914104 223.017459 
L 157.019233 223.27034 
L 157.147898 223.517251 
L 157.299674 223.757169 
L 157.474039 223.989087 
L 157.670372 224.212023 
L 157.887955 224.425025 
L 158.125975 224.627172 
L 158.383527 224.817585 
L 158.659617 224.995425 
L 158.953163 225.159902 
L 159.263003 225.310279 
L 159.587894 225.445878 
L 159.926524 225.566078 
L 160.277513 225.670326 
L 160.639418 225.758137 
L 161.010746 225.829097 
L 161.389952 225.882868 
L 161.775456 225.919188 
L 162.165642 225.937874 
L 162.558872 225.938823 
L 162.95349 225.922015 
L 163.347834 225.887509 
L 163.740241 225.835448 
L 164.129059 225.766054 
L 164.512651 225.67963 
L 164.889406 225.576557 
L 165.257748 225.457291 
L 165.61614 225.322361 
L 165.963096 225.172367 
L 166.297183 225.007975 
L 166.617031 224.829914 
L 166.921341 224.638971 
L 167.208885 224.435986 
L 167.478517 224.221848 
L 167.729173 223.997492 
L 167.95988 223.763889 
L 168.169753 223.522045 
L 168.358004 223.272994 
L 168.523942 223.017793 
L 168.666974 222.757516 
L 168.786608 222.493249 
L 168.882451 222.226086 
L 168.954213 221.957121 
L 169.001702 221.687448 
L 169.024828 221.41815 
L 169.023598 221.150302 
L 168.998117 220.884958 
L 168.948585 220.623154 
L 168.875292 220.365903 
L 168.778622 220.114188 
L 168.659042 219.868961 
L 168.517107 219.631142 
L 168.353449 219.401612 
L 168.168778 219.181213 
L 167.963878 218.970746 
L 167.739601 218.770968 
L 167.496868 218.582591 
L 167.236656 218.406277 
L 166.960004 218.242644 
L 166.668002 218.092256 
L 166.361789 217.955628 
L 166.04255 217.833223 
L 165.711509 217.725452 
L 165.369927 217.632672 
L 165.019097 217.555187 
L 164.66034 217.493247 
L 164.295 217.447048 
L 163.924441 217.416733 
L 163.550041 217.402388 
L 163.17319 217.404048 
L 162.795284 217.421693 
L 162.417723 217.455249 
L 162.041902 217.504588 
L 161.669214 217.569532 
L 161.301039 217.649848 
L 160.938745 217.745252 
L 160.58368 217.855408 
L 160.237172 217.979933 
L 159.900519 218.118389 
L 159.574992 218.270295 
L 159.261824 218.435117 
L 158.962212 218.61228 
L 158.677309 218.801159 
L 158.40822 219.001088 
L 158.155999 219.211358 
L 157.921648 219.431217 
L 157.706107 219.659878 
L 157.510254 219.896514 
L 157.334901 220.140264 
L 157.180788 220.390233 
L 157.048585 220.645498 
L 156.93888 220.905106 
L 156.852185 221.168082 
L 156.788923 221.433427 
L 156.749436 221.700123 
L 156.733972 221.967141 
L 156.74269 222.233435 
" style="fill:none;stroke:#ff0000;stroke-linecap:square;"/>
   </g>
   <g id="legend_1">
    <g id="patch_2">
     <path d="M 70.798345 70.55 
L 227.499595 70.55 
L 227.499595 13.1075 
L 70.798345 13.1075 
z
" style="fill:#ffffff;stroke:#000000;stroke-linejoin:miter;"/>
    </g>
    <g id="PathCollection_5">
     <path d="M 79.198345 26.111693 
C 79.791358 26.111693 80.360161 25.876087 80.779484 25.456764 
C 81.198807 25.037441 81.434413 24.468637 81.434413 23.875625 
C 81.434413 23.282613 81.198807 22.713809 80.779484 22.294486 
C 80.360161 21.875163 79.791358 21.639557 79.198345 21.639557 
C 78.605333 21.639557 78.03653 21.875163 77.617207 22.294486 
C 77.197884 22.713809 76.962277 23.282613 76.962277 23.875625 
C 76.962277 24.468637 77.197884 25.037441 77.617207 25.456764 
C 78.03653 25.876087 78.605333 26.111693 79.198345 26.111693 
z
" style="fill:#ff0000;stroke:#ff0000;"/>
     <path d="M 87.598345 25.061693 
C 88.191358 25.061693 88.760161 24.826087 89.179484 24.406764 
C 89.598807 23.987441 89.834413 23.418637 89.834413 22.825625 
C 89.834413 22.232613 89.598807 21.663809 89.179484 21.244486 
C 88.760161 20.825163 88.191358 20.589557 87.598345 20.589557 
C 87.005333 20.589557 86.43653 20.825163 86.017207 21.244486 
C 85.597884 21.663809 85.362277 22.232613 85.362277 22.825625 
C 85.362277 23.418637 85.597884 23.987441 86.017207 24.406764 
C 86.43653 24.826087 87.005333 25.061693 87.598345 25.061693 
z
" style="fill:#ff0000;stroke:#ff0000;"/>
     <path d="M 95.998345 26.636693 
C 96.591358 26.636693 97.160161 26.401087 97.579484 25.981764 
C 97.998807 25.562441 98.234413 24.993637 98.234413 24.400625 
C 98.234413 23.807613 97.998807 23.238809 97.579484 22.819486 
C 97.160161 22.400163 96.591358 22.164557 95.998345 22.164557 
C 95.405333 22.164557 94.83653 22.400163 94.417207 22.819486 
C 93.997884 23.238809 93.762277 23.807613 93.762277 24.400625 
C 93.762277 24.993637 93.997884 25.562441 94.417207 25.981764 
C 94.83653 26.401087 95.405333 26.636693 95.998345 26.636693 
z
" style="fill:#ff0000;stroke:#ff0000;"/>
    </g>
    <g id="text_1">
     <!-- Z50_low_geo -->
     <defs>
      <path d="M 5.609375 72.90625 
L 62.890625 72.90625 
L 62.890625 65.375 
L 16.796875 8.296875 
L 64.015625 8.296875 
L 64.015625 0 
L 4.5 0 
L 4.5 7.515625 
L 50.59375 64.59375 
L 5.609375 64.59375 
z
" id="BitstreamVeraSans-Roman-5a"/>
      <path d="M 31.78125 66.40625 
Q 24.171875 66.40625 20.328125 58.90625 
Q 16.5 51.421875 16.5 36.375 
Q 16.5 21.390625 20.328125 13.890625 
Q 24.171875 6.390625 31.78125 6.390625 
Q 39.453125 6.390625 43.28125 13.890625 
Q 47.125 21.390625 47.125 36.375 
Q 47.125 51.421875 43.28125 58.90625 
Q 39.453125 66.40625 31.78125 66.40625 
M 31.78125 74.21875 
Q 44.046875 74.21875 50.515625 64.515625 
Q 56.984375 54.828125 56.984375 36.375 
Q 56.984375 17.96875 50.515625 8.265625 
Q 44.046875 -1.421875 31.78125 -1.421875 
Q 19.53125 -1.421875 13.0625 8.265625 
Q 6.59375 17.96875 6.59375 36.375 
Q 6.59375 54.828125 13.0625 64.515625 
Q 19.53125 74.21875 31.78125 74.21875 
" id="BitstreamVeraSans-Roman-30"/>
      <path d="M 50.984375 -16.609375 
L 50.984375 -23.578125 
L -0.984375 -23.578125 
L -0.984375 -16.609375 
z
" id="BitstreamVeraSans-Roman-5f"/>
      <path d="M 10.796875 72.90625 
L 49.515625 72.90625 
L 49.515625 64.59375 
L 19.828125 64.59375 
L 19.828125 46.734375 
Q 21.96875 47.46875 24.109375 47.828125 
Q 26.265625 48.1875 28.421875 48.1875 
Q 40.625 48.1875 47.75 41.5 
Q 54.890625 34.8125 54.890625 23.390625 
Q 54.890625 11.625 47.5625 5.09375 
Q 40.234375 -1.421875 26.90625 -1.421875 
Q 22.3125 -1.421875 17.546875 -0.640625 
Q 12.796875 0.140625 7.71875 1.703125 
L 7.71875 11.625 
Q 12.109375 9.234375 16.796875 8.0625 
Q 21.484375 6.890625 26.703125 6.890625 
Q 35.15625 6.890625 40.078125 11.328125 
Q 45.015625 15.765625 45.015625 23.390625 
Q 45.015625 31 40.078125 35.4375 
Q 35.15625 39.890625 26.703125 39.890625 
Q 22.75 39.890625 18.8125 39.015625 
Q 14.890625 38.140625 10.796875 36.28125 
z
" id="BitstreamVeraSans-Roman-35"/>
      <path d="M 30.609375 48.390625 
Q 23.390625 48.390625 19.1875 42.75 
Q 14.984375 37.109375 14.984375 27.296875 
Q 14.984375 17.484375 19.15625 11.84375 
Q 23.34375 6.203125 30.609375 6.203125 
Q 37.796875 6.203125 41.984375 11.859375 
Q 46.1875 17.53125 46.1875 27.296875 
Q 46.1875 37.015625 41.984375 42.703125 
Q 37.796875 48.390625 30.609375 48.390625 
M 30.609375 56 
Q 42.328125 56 49.015625 48.375 
Q 55.71875 40.765625 55.71875 27.296875 
Q 55.71875 13.875 49.015625 6.21875 
Q 42.328125 -1.421875 30.609375 -1.421875 
Q 18.84375 -1.421875 12.171875 6.21875 
Q 5.515625 13.875 5.515625 27.296875 
Q 5.515625 40.765625 12.171875 48.375 
Q 18.84375 56 30.609375 56 
" id="BitstreamVeraSans-Roman-6f"/>
      <path d="M 9.421875 75.984375 
L 18.40625 75.984375 
L 18.40625 0 
L 9.421875 0 
z
" id="BitstreamVeraSans-Roman-6c"/>
      <path d="M 56.203125 29.59375 
L 56.203125 25.203125 
L 14.890625 25.203125 
Q 15.484375 15.921875 20.484375 11.0625 
Q 25.484375 6.203125 34.421875 6.203125 
Q 39.59375 6.203125 44.453125 7.46875 
Q 49.3125 8.734375 54.109375 11.28125 
L 54.109375 2.78125 
Q 49.265625 0.734375 44.1875 -0.34375 
Q 39.109375 -1.421875 33.890625 -1.421875 
Q 20.796875 -1.421875 13.15625 6.1875 
Q 5.515625 13.8125 5.515625 26.8125 
Q 5.515625 40.234375 12.765625 48.109375 
Q 20.015625 56 32.328125 56 
Q 43.359375 56 49.78125 48.890625 
Q 56.203125 41.796875 56.203125 29.59375 
M 47.21875 32.234375 
Q 47.125 39.59375 43.09375 43.984375 
Q 39.0625 48.390625 32.421875 48.390625 
Q 24.90625 48.390625 20.390625 44.140625 
Q 15.875 39.890625 15.1875 32.171875 
z
" id="BitstreamVeraSans-Roman-65"/>
      <path d="M 4.203125 54.6875 
L 13.1875 54.6875 
L 24.421875 12.015625 
L 35.59375 54.6875 
L 46.1875 54.6875 
L 57.421875 12.015625 
L 68.609375 54.6875 
L 77.59375 54.6875 
L 63.28125 0 
L 52.6875 0 
L 40.921875 44.828125 
L 29.109375 0 
L 18.5 0 
z
" id="BitstreamVeraSans-Roman-77"/>
      <path d="M 45.40625 27.984375 
Q 45.40625 37.75 41.375 43.109375 
Q 37.359375 48.484375 30.078125 48.484375 
Q 22.859375 48.484375 18.828125 43.109375 
Q 14.796875 37.75 14.796875 27.984375 
Q 14.796875 18.265625 18.828125 12.890625 
Q 22.859375 7.515625 30.078125 7.515625 
Q 37.359375 7.515625 41.375 12.890625 
Q 45.40625 18.265625 45.40625 27.984375 
M 54.390625 6.78125 
Q 54.390625 -7.171875 48.1875 -13.984375 
Q 42 -20.796875 29.203125 -20.796875 
Q 24.46875 -20.796875 20.265625 -20.09375 
Q 16.0625 -19.390625 12.109375 -17.921875 
L 12.109375 -9.1875 
Q 16.0625 -11.328125 19.921875 -12.34375 
Q 23.78125 -13.375 27.78125 -13.375 
Q 36.625 -13.375 41.015625 -8.765625 
Q 45.40625 -4.15625 45.40625 5.171875 
L 45.40625 9.625 
Q 42.625 4.78125 38.28125 2.390625 
Q 33.9375 0 27.875 0 
Q 17.828125 0 11.671875 7.65625 
Q 5.515625 15.328125 5.515625 27.984375 
Q 5.515625 40.671875 11.671875 48.328125 
Q 17.828125 56 27.875 56 
Q 33.9375 56 38.28125 53.609375 
Q 42.625 51.21875 45.40625 46.390625 
L 45.40625 54.6875 
L 54.390625 54.6875 
z
" id="BitstreamVeraSans-Roman-67"/>
     </defs>
     <g transform="translate(109.198345447 27.025625)scale(0.12 -0.12)">
      <use xlink:href="#BitstreamVeraSans-Roman-5a"/>
      <use x="68.505859375" xlink:href="#BitstreamVeraSans-Roman-35"/>
      <use x="132.12890625" xlink:href="#BitstreamVeraSans-Roman-30"/>
      <use x="195.751953125" xlink:href="#BitstreamVeraSans-Roman-5f"/>
      <use x="245.751953125" xlink:href="#BitstreamVeraSans-Roman-6c"/>
      <use x="273.53515625" xlink:href="#BitstreamVeraSans-Roman-6f"/>
      <use x="334.716796875" xlink:href="#BitstreamVeraSans-Roman-77"/>
      <use x="416.50390625" xlink:href="#BitstreamVeraSans-Roman-5f"/>
      <use x="466.50390625" xlink:href="#BitstreamVeraSans-Roman-67"/>
      <use x="529.98046875" xlink:href="#BitstreamVeraSans-Roman-65"/>
      <use x="591.50390625" xlink:href="#BitstreamVeraSans-Roman-6f"/>
     </g>
    </g>
    <g id="PathCollection_6">
     <path d="M 76.962277 44.059193 
L 81.434413 44.059193 
L 81.434413 39.587057 
L 76.962277 39.587057 
z
" style="fill:#0000ff;stroke:#0000ff;"/>
     <path d="M 85.362277 43.009193 
L 89.834413 43.009193 
L 89.834413 38.537057 
L 85.362277 38.537057 
z
" style="fill:#0000ff;stroke:#0000ff;"/>
     <path d="M 93.762277 44.584193 
L 98.234413 44.584193 
L 98.234413 40.112057 
L 93.762277 40.112057 
z
" style="fill:#0000ff;stroke:#0000ff;"/>
    </g>
    <g id="text_2">
     <!-- Z50_mag_tc_mean -->
     <defs>
      <path d="M 54.890625 33.015625 
L 54.890625 0 
L 45.90625 0 
L 45.90625 32.71875 
Q 45.90625 40.484375 42.875 44.328125 
Q 39.84375 48.1875 33.796875 48.1875 
Q 26.515625 48.1875 22.3125 43.546875 
Q 18.109375 38.921875 18.109375 30.90625 
L 18.109375 0 
L 9.078125 0 
L 9.078125 54.6875 
L 18.109375 54.6875 
L 18.109375 46.1875 
Q 21.34375 51.125 25.703125 53.5625 
Q 30.078125 56 35.796875 56 
Q 45.21875 56 50.046875 50.171875 
Q 54.890625 44.34375 54.890625 33.015625 
" id="BitstreamVeraSans-Roman-6e"/>
      <path d="M 52 44.1875 
Q 55.375 50.25 60.0625 53.125 
Q 64.75 56 71.09375 56 
Q 79.640625 56 84.28125 50.015625 
Q 88.921875 44.046875 88.921875 33.015625 
L 88.921875 0 
L 79.890625 0 
L 79.890625 32.71875 
Q 79.890625 40.578125 77.09375 44.375 
Q 74.3125 48.1875 68.609375 48.1875 
Q 61.625 48.1875 57.5625 43.546875 
Q 53.515625 38.921875 53.515625 30.90625 
L 53.515625 0 
L 44.484375 0 
L 44.484375 32.71875 
Q 44.484375 40.625 41.703125 44.40625 
Q 38.921875 48.1875 33.109375 48.1875 
Q 26.21875 48.1875 22.15625 43.53125 
Q 18.109375 38.875 18.109375 30.90625 
L 18.109375 0 
L 9.078125 0 
L 9.078125 54.6875 
L 18.109375 54.6875 
L 18.109375 46.1875 
Q 21.1875 51.21875 25.484375 53.609375 
Q 29.78125 56 35.6875 56 
Q 41.65625 56 45.828125 52.96875 
Q 50 49.953125 52 44.1875 
" id="BitstreamVeraSans-Roman-6d"/>
      <path d="M 18.3125 70.21875 
L 18.3125 54.6875 
L 36.8125 54.6875 
L 36.8125 47.703125 
L 18.3125 47.703125 
L 18.3125 18.015625 
Q 18.3125 11.328125 20.140625 9.421875 
Q 21.96875 7.515625 27.59375 7.515625 
L 36.8125 7.515625 
L 36.8125 0 
L 27.59375 0 
Q 17.1875 0 13.234375 3.875 
Q 9.28125 7.765625 9.28125 18.015625 
L 9.28125 47.703125 
L 2.6875 47.703125 
L 2.6875 54.6875 
L 9.28125 54.6875 
L 9.28125 70.21875 
z
" id="BitstreamVeraSans-Roman-74"/>
      <path d="M 34.28125 27.484375 
Q 23.390625 27.484375 19.1875 25 
Q 14.984375 22.515625 14.984375 16.5 
Q 14.984375 11.71875 18.140625 8.90625 
Q 21.296875 6.109375 26.703125 6.109375 
Q 34.1875 6.109375 38.703125 11.40625 
Q 43.21875 16.703125 43.21875 25.484375 
L 43.21875 27.484375 
z
M 52.203125 31.203125 
L 52.203125 0 
L 43.21875 0 
L 43.21875 8.296875 
Q 40.140625 3.328125 35.546875 0.953125 
Q 30.953125 -1.421875 24.3125 -1.421875 
Q 15.921875 -1.421875 10.953125 3.296875 
Q 6 8.015625 6 15.921875 
Q 6 25.140625 12.171875 29.828125 
Q 18.359375 34.515625 30.609375 34.515625 
L 43.21875 34.515625 
L 43.21875 35.40625 
Q 43.21875 41.609375 39.140625 45 
Q 35.0625 48.390625 27.6875 48.390625 
Q 23 48.390625 18.546875 47.265625 
Q 14.109375 46.140625 10.015625 43.890625 
L 10.015625 52.203125 
Q 14.9375 54.109375 19.578125 55.046875 
Q 24.21875 56 28.609375 56 
Q 40.484375 56 46.34375 49.84375 
Q 52.203125 43.703125 52.203125 31.203125 
" id="BitstreamVeraSans-Roman-61"/>
      <path d="M 48.78125 52.59375 
L 48.78125 44.1875 
Q 44.96875 46.296875 41.140625 47.34375 
Q 37.3125 48.390625 33.40625 48.390625 
Q 24.65625 48.390625 19.8125 42.84375 
Q 14.984375 37.3125 14.984375 27.296875 
Q 14.984375 17.28125 19.8125 11.734375 
Q 24.65625 6.203125 33.40625 6.203125 
Q 37.3125 6.203125 41.140625 7.25 
Q 44.96875 8.296875 48.78125 10.40625 
L 48.78125 2.09375 
Q 45.015625 0.34375 40.984375 -0.53125 
Q 36.96875 -1.421875 32.421875 -1.421875 
Q 20.0625 -1.421875 12.78125 6.34375 
Q 5.515625 14.109375 5.515625 27.296875 
Q 5.515625 40.671875 12.859375 48.328125 
Q 20.21875 56 33.015625 56 
Q 37.15625 56 41.109375 55.140625 
Q 45.0625 54.296875 48.78125 52.59375 
" id="BitstreamVeraSans-Roman-63"/>
     </defs>
     <g transform="translate(109.198345447 44.973125)scale(0.12 -0.12)">
      <use xlink:href="#BitstreamVeraSans-Roman-5a"/>
      <use x="68.505859375" xlink:href="#BitstreamVeraSans-Roman-35"/>
      <use x="132.12890625" xlink:href="#BitstreamVeraSans-Roman-30"/>
      <use x="195.751953125" xlink:href="#BitstreamVeraSans-Roman-5f"/>
      <use x="245.751953125" xlink:href="#BitstreamVeraSans-Roman-6d"/>
      <use x="343.1640625" xlink:href="#BitstreamVeraSans-Roman-61"/>
      <use x="404.443359375" xlink:href="#BitstreamVeraSans-Roman-67"/>
      <use x="467.919921875" xlink:href="#BitstreamVeraSans-Roman-5f"/>
      <use x="517.919921875" xlink:href="#BitstreamVeraSans-Roman-74"/>
      <use x="557.12890625" xlink:href="#BitstreamVeraSans-Roman-63"/>
      <use x="612.109375" xlink:href="#BitstreamVeraSans-Roman-5f"/>
      <use x="662.109375" xlink:href="#BitstreamVeraSans-Roman-6d"/>
      <use x="759.521484375" xlink:href="#BitstreamVeraSans-Roman-65"/>
      <use x="821.044921875" xlink:href="#BitstreamVeraSans-Roman-61"/>
      <use x="882.32421875" xlink:href="#BitstreamVeraSans-Roman-6e"/>
     </g>
    </g>
    <g id="PathCollection_7">
     <path d="M 76.962277 62.006693 
L 81.434413 62.006693 
L 81.434413 57.534557 
L 76.962277 57.534557 
z
" style="fill:#ff0000;stroke:#ff0000;"/>
     <path d="M 85.362277 60.956693 
L 89.834413 60.956693 
L 89.834413 56.484557 
L 85.362277 56.484557 
z
" style="fill:#ff0000;stroke:#ff0000;"/>
     <path d="M 93.762277 62.531693 
L 98.234413 62.531693 
L 98.234413 58.059557 
L 93.762277 58.059557 
z
" style="fill:#ff0000;stroke:#ff0000;"/>
    </g>
    <g id="text_3">
     <!-- Z50_hem_tc_mean -->
     <defs>
      <path d="M 54.890625 33.015625 
L 54.890625 0 
L 45.90625 0 
L 45.90625 32.71875 
Q 45.90625 40.484375 42.875 44.328125 
Q 39.84375 48.1875 33.796875 48.1875 
Q 26.515625 48.1875 22.3125 43.546875 
Q 18.109375 38.921875 18.109375 30.90625 
L 18.109375 0 
L 9.078125 0 
L 9.078125 75.984375 
L 18.109375 75.984375 
L 18.109375 46.1875 
Q 21.34375 51.125 25.703125 53.5625 
Q 30.078125 56 35.796875 56 
Q 45.21875 56 50.046875 50.171875 
Q 54.890625 44.34375 54.890625 33.015625 
" id="BitstreamVeraSans-Roman-68"/>
     </defs>
     <g transform="translate(109.198345447 62.920625)scale(0.12 -0.12)">
      <use xlink:href="#BitstreamVeraSans-Roman-5a"/>
      <use x="68.505859375" xlink:href="#BitstreamVeraSans-Roman-35"/>
      <use x="132.12890625" xlink:href="#BitstreamVeraSans-Roman-30"/>
      <use x="195.751953125" xlink:href="#BitstreamVeraSans-Roman-5f"/>
      <use x="245.751953125" xlink:href="#BitstreamVeraSans-Roman-68"/>
      <use x="309.130859375" xlink:href="#BitstreamVeraSans-Roman-65"/>
      <use x="370.654296875" xlink:href="#BitstreamVeraSans-Roman-6d"/>
      <use x="468.06640625" xlink:href="#BitstreamVeraSans-Roman-5f"/>
      <use x="518.06640625" xlink:href="#BitstreamVeraSans-Roman-74"/>
      <use x="557.275390625" xlink:href="#BitstreamVeraSans-Roman-63"/>
      <use x="612.255859375" xlink:href="#BitstreamVeraSans-Roman-5f"/>
      <use x="662.255859375" xlink:href="#BitstreamVeraSans-Roman-6d"/>
      <use x="759.66796875" xlink:href="#BitstreamVeraSans-Roman-65"/>
      <use x="821.19140625" xlink:href="#BitstreamVeraSans-Roman-61"/>
      <use x="882.470703125" xlink:href="#BitstreamVeraSans-Roman-6e"/>
     </g>
    </g>
   </g>
  </g>
 </g>
 <defs>
  <clipPath id="p64096dfc23">
   <rect height="253.4" width="235.436886311" x="35.4828125" y="7.2"/>
  </clipPath>
 </defs>
</svg>
