<?xml version="1.0" encoding="utf-8" standalone="no"?>
<!DOCTYPE svg PUBLIC "-//W3C//DTD SVG 1.1//EN"
  "http://www.w3.org/Graphics/SVG/1.1/DTD/svg11.dtd">
<!-- Created with matplotlib (http://matplotlib.org/) -->
<svg height="311pt" version="1.1" viewBox="0 0 280 311" width="280pt" xmlns="http://www.w3.org/2000/svg" xmlns:xlink="http://www.w3.org/1999/xlink">
 <defs>
  <style type="text/css">
*{stroke-linecap:butt;stroke-linejoin:round;stroke-miterlimit:100000;}
  </style>
 </defs>
 <g id="figure_1">
  <g id="patch_1">
   <path d="M 0 311.465625 
L 280.465625 311.465625 
L 280.465625 0 
L 0 0 
L 0 311.465625 
z
" style="fill:none;"/>
  </g>
  <g id="axes_1">
   <g id="PathCollection_1">
    <defs>
     <path d="M 0 2.236068 
C 0.593012 2.236068 1.161816 2.000462 1.581139 1.581139 
C 2.000462 1.161816 2.236068 0.593012 2.236068 0 
C 2.236068 -0.593012 2.000462 -1.161816 1.581139 -1.581139 
C 1.161816 -2.000462 0.593012 -2.236068 0 -2.236068 
C -0.593012 -2.236068 -1.161816 -2.000462 -1.581139 -1.581139 
C -2.000462 -1.161816 -2.236068 -0.593012 -2.236068 0 
C -2.236068 0.593012 -2.000462 1.161816 -1.581139 1.581139 
C -1.161816 2.000462 -0.593012 2.236068 0 2.236068 
z
" id="m9adc7a7e9c" style="stroke:#008000;"/>
    </defs>
    <g clip-path="url(#p6e1b086362)">
     <use style="fill:#008000;stroke:#008000;" x="151.702439328" xlink:href="#m9adc7a7e9c" y="123.063082003"/>
     <use style="fill:#008000;stroke:#008000;" x="142.28778533" xlink:href="#m9adc7a7e9c" y="112.163450873"/>
     <use style="fill:#008000;stroke:#008000;" x="152.110463549" xlink:href="#m9adc7a7e9c" y="107.148515279"/>
     <use style="fill:#008000;stroke:#008000;" x="150.807377375" xlink:href="#m9adc7a7e9c" y="132.81475063"/>
     <use style="fill:#008000;stroke:#008000;" x="160.517168624" xlink:href="#m9adc7a7e9c" y="127.64952453"/>
     <use style="fill:#008000;stroke:#008000;" x="161.216705404" xlink:href="#m9adc7a7e9c" y="128.072823524"/>
     <use style="fill:#008000;stroke:#008000;" x="149.007856963" xlink:href="#m9adc7a7e9c" y="131.640059603"/>
     <use style="fill:#008000;stroke:#008000;" x="151.86621166" xlink:href="#m9adc7a7e9c" y="132.07368799"/>
     <use style="fill:#008000;stroke:#008000;" x="145.703329192" xlink:href="#m9adc7a7e9c" y="119.137094251"/>
    </g>
   </g>
   <g id="PathCollection_2">
    <defs>
     <path d="M 0 2.236068 
C 0.593012 2.236068 1.161816 2.000462 1.581139 1.581139 
C 2.000462 1.161816 2.236068 0.593012 2.236068 0 
C 2.236068 -0.593012 2.000462 -1.161816 1.581139 -1.581139 
C 1.161816 -2.000462 0.593012 -2.236068 0 -2.236068 
C -0.593012 -2.236068 -1.161816 -2.000462 -1.581139 -1.581139 
C -2.000462 -1.161816 -2.236068 -0.593012 -2.236068 0 
C -2.236068 0.593012 -2.000462 1.161816 -1.581139 1.581139 
C -1.161816 2.000462 -0.593012 2.236068 0 2.236068 
z
" id="C0_0_f275a8865d"/>
    </defs>
    <g clip-path="url(#p6e1b086362)">
     <use style="fill:none;stroke:#0000ff;" x="98.9599080588" xlink:href="#C0_0_f275a8865d" y="202.103212261"/>
    </g>
    <g clip-path="url(#p6e1b086362)">
     <use style="fill:none;stroke:#0000ff;" x="96.8053604033" xlink:href="#C0_0_f275a8865d" y="190.995424624"/>
    </g>
    <g clip-path="url(#p6e1b086362)">
     <use style="fill:none;stroke:#0000ff;" x="94.9822300402" xlink:href="#C0_0_f275a8865d" y="194.674741745"/>
    </g>
    <g clip-path="url(#p6e1b086362)">
     <use style="fill:none;stroke:#0000ff;" x="96.7517538608" xlink:href="#C0_0_f275a8865d" y="188.753887246"/>
    </g>
    <g clip-path="url(#p6e1b086362)">
     <use style="fill:none;stroke:#0000ff;" x="109.242816571" xlink:href="#C0_0_f275a8865d" y="205.843114025"/>
    </g>
    <g clip-path="url(#p6e1b086362)">
     <use style="fill:none;stroke:#0000ff;" x="95.872846335" xlink:href="#C0_0_f275a8865d" y="184.501456557"/>
    </g>
    <g clip-path="url(#p6e1b086362)">
     <use style="fill:none;stroke:#0000ff;" x="97.0675308799" xlink:href="#C0_0_f275a8865d" y="178.386703723"/>
    </g>
    <g clip-path="url(#p6e1b086362)">
     <use style="fill:none;stroke:#0000ff;" x="98.1754185225" xlink:href="#C0_0_f275a8865d" y="194.981095662"/>
    </g>
    <g clip-path="url(#p6e1b086362)">
     <use style="fill:none;stroke:#0000ff;" x="91.7317307052" xlink:href="#C0_0_f275a8865d" y="207.517559615"/>
    </g>
   </g>
   <g id="PathCollection_3">
    <defs>
     <path d="M 0 2.236068 
C 0.593012 2.236068 1.161816 2.000462 1.581139 1.581139 
C 2.000462 1.161816 2.236068 0.593012 2.236068 0 
C 2.236068 -0.593012 2.000462 -1.161816 1.581139 -1.581139 
C 1.161816 -2.000462 0.593012 -2.236068 0 -2.236068 
C -0.593012 -2.236068 -1.161816 -2.000462 -1.581139 -1.581139 
C -2.000462 -1.161816 -2.236068 -0.593012 -2.236068 0 
C -2.236068 0.593012 -2.000462 1.161816 -1.581139 1.581139 
C -1.161816 2.000462 -0.593012 2.236068 0 2.236068 
z
" id="C1_0_1f56c1ece1"/>
    </defs>
    <g clip-path="url(#p6e1b086362)">
     <use style="fill:none;stroke:#ff0000;" x="118.711604314" xlink:href="#C1_0_1f56c1ece1" y="266.244606536"/>
    </g>
    <g clip-path="url(#p6e1b086362)">
     <use style="fill:none;stroke:#ff0000;" x="97.3199928058" xlink:href="#C1_0_1f56c1ece1" y="260.168444523"/>
    </g>
    <g clip-path="url(#p6e1b086362)">
     <use style="fill:none;stroke:#ff0000;" x="107.855867872" xlink:href="#C1_0_1f56c1ece1" y="241.702264687"/>
    </g>
    <g clip-path="url(#p6e1b086362)">
     <use style="fill:none;stroke:#ff0000;" x="117.414604753" xlink:href="#C1_0_1f56c1ece1" y="257.487505902"/>
    </g>
    <g clip-path="url(#p6e1b086362)">
     <use style="fill:none;stroke:#ff0000;" x="129.28863931" xlink:href="#C1_0_1f56c1ece1" y="255.57584999"/>
    </g>
    <g clip-path="url(#p6e1b086362)">
     <use style="fill:none;stroke:#ff0000;" x="108.932794401" xlink:href="#C1_0_1f56c1ece1" y="263.193052783"/>
    </g>
   </g>
   <g id="PathCollection_4">
    <defs>
     <path d="M 0 2.236068 
C 0.593012 2.236068 1.161816 2.000462 1.581139 1.581139 
C 2.000462 1.161816 2.236068 0.593012 2.236068 0 
C 2.236068 -0.593012 2.000462 -1.161816 1.581139 -1.581139 
C 1.161816 -2.000462 0.593012 -2.236068 0 -2.236068 
C -0.593012 -2.236068 -1.161816 -2.000462 -1.581139 -1.581139 
C -2.000462 -1.161816 -2.236068 -0.593012 -2.236068 0 
C -2.236068 0.593012 -2.000462 1.161816 -1.581139 1.581139 
C -1.161816 2.000462 -0.593012 2.236068 0 2.236068 
z
" id="m8eb5e13afc" style="stroke:#ff0000;"/>
    </defs>
    <g clip-path="url(#p6e1b086362)">
     <use style="fill:#ff0000;stroke:#ff0000;" x="121.010421219" xlink:href="#m8eb5e13afc" y="269.708901553"/>
    </g>
   </g>
   <g id="PathCollection_5">
    <defs>
     <path d="M -2.236068 2.236068 
L 2.236068 2.236068 
L 2.236068 -2.236068 
L -2.236068 -2.236068 
z
" id="me20052380d" style="stroke:#0000ff;"/>
    </defs>
    <g clip-path="url(#p6e1b086362)">
     <use style="fill:#ffffff;stroke:#0000ff;" x="97.4284173952" xlink:href="#me20052380d" y="194.282211733"/>
    </g>
   </g>
   <g id="PathCollection_6">
    <defs>
     <path d="M -2.236068 2.236068 
L 2.236068 2.236068 
L 2.236068 -2.236068 
L -2.236068 -2.236068 
z
" id="md1d847b4e8" style="stroke:#ff0000;"/>
    </defs>
    <g clip-path="url(#p6e1b086362)">
     <use style="fill:#ffffff;stroke:#ff0000;" x="113.941355314" xlink:href="#md1d847b4e8" y="260.174810768"/>
    </g>
   </g>
   <g id="line2d_1">
    <path clip-path="url(#p6e1b086362)" d="M 153.201258 51.913435 
L 159.068788 52.066892 
L 164.920237 52.526841 
L 170.739564 53.292022 
L 176.51082 54.360337 
L 182.218187 55.728859 
L 187.84602 57.393836 
L 193.378894 59.350705 
L 198.801643 61.594102 
L 204.099406 64.117878 
L 209.25766 66.915115 
L 214.262267 69.978148 
L 219.099511 73.298579 
L 223.756132 76.867308 
L 228.219367 80.674553 
L 232.476982 84.70988 
L 236.517308 88.962226 
L 240.329271 93.419938 
L 243.902422 98.070796 
L 247.226967 102.902053 
L 250.293795 107.900468 
L 253.094498 113.052338 
L 255.621401 118.343545 
L 257.867578 123.759584 
L 259.826871 129.285611 
L 261.493911 134.90648 
L 262.864129 140.606783 
L 263.933768 146.370897 
L 264.699897 152.183023 
L 265.160416 158.02723 
L 265.314062 163.8875 
L 265.160416 169.74777 
L 264.699897 175.591977 
L 263.933768 181.404103 
L 262.864129 187.168217 
L 261.493911 192.86852 
L 259.826871 198.489389 
L 257.867578 204.015416 
L 255.621401 209.431455 
L 253.094498 214.722662 
L 250.293795 219.874532 
L 247.226967 224.872947 
L 243.902422 229.704204 
L 240.329271 234.355062 
L 236.517308 238.812774 
L 232.476982 243.06512 
L 228.219367 247.100447 
L 223.756132 250.907692 
L 219.099511 254.476421 
L 214.262267 257.796852 
L 209.25766 260.859885 
L 204.099406 263.657122 
L 198.801643 266.180898 
L 193.378894 268.424295 
L 187.84602 270.381164 
L 182.218187 272.046141 
L 176.51082 273.414663 
L 170.739564 274.482978 
L 164.920237 275.248159 
L 159.068788 275.708108 
L 153.201258 275.861565 
L 147.333727 275.708108 
L 141.482278 275.248159 
L 135.662951 274.482978 
L 129.891695 273.414663 
L 124.184328 272.046141 
L 118.556496 270.381164 
L 113.023622 268.424295 
L 107.600872 266.180898 
L 102.303109 263.657122 
L 97.144855 260.859885 
L 92.140248 257.796852 
L 87.303004 254.476421 
L 82.646383 250.907692 
L 78.183148 247.100447 
L 73.925533 243.06512 
L 69.885207 238.812774 
L 66.073244 234.355062 
L 62.500093 229.704204 
L 59.175548 224.872947 
L 56.10872 219.874532 
L 53.308017 214.722662 
L 50.781114 209.431455 
L 48.534937 204.015416 
L 46.575644 198.489389 
L 44.908604 192.86852 
L 43.538387 187.168217 
L 42.468747 181.404103 
L 41.702618 175.591977 
L 41.242099 169.74777 
L 41.088453 163.8875 
L 41.242099 158.02723 
L 41.702618 152.183023 
L 42.468747 146.370897 
L 43.538387 140.606783 
L 44.908604 134.90648 
L 46.575644 129.285611 
L 48.534937 123.759584 
L 50.781114 118.343545 
L 53.308017 113.052338 
L 56.10872 107.900468 
L 59.175548 102.902053 
L 62.500093 98.070796 
L 66.073244 93.419938 
L 69.885207 88.962226 
L 73.925533 84.70988 
L 78.183148 80.674553 
L 82.646383 76.867308 
L 87.303004 73.298579 
L 92.140248 69.978148 
L 97.144855 66.915115 
L 102.303109 64.117878 
L 107.600872 61.594102 
L 113.023622 59.350705 
L 118.556496 57.393836 
L 124.184328 55.728859 
L 129.891695 54.360337 
L 135.662951 53.292022 
L 141.482278 52.526841 
L 147.333727 52.066892 
L 153.201258 51.913435 
L 153.201258 51.913435 
" style="fill:none;stroke:#000000;stroke-linecap:square;"/>
   </g>
   <g id="line2d_2">
    <defs>
     <path d="M -3 0 
L 3 0 
M 0 3 
L 0 -3 
" id="mc3055db28a" style="stroke:#000000;stroke-width:0.5;"/>
    </defs>
    <g clip-path="url(#p6e1b086362)">
     <use style="stroke:#000000;stroke-width:0.5;" x="153.201257575" xlink:href="#mc3055db28a" y="62.0987132669"/>
     <use style="stroke:#000000;stroke-width:0.5;" x="153.201257575" xlink:href="#mc3055db28a" y="73.0586652884"/>
     <use style="stroke:#000000;stroke-width:0.5;" x="153.201257575" xlink:href="#mc3055db28a" y="84.709879586"/>
     <use style="stroke:#000000;stroke-width:0.5;" x="153.201257575" xlink:href="#mc3055db28a" y="96.9636833838"/>
     <use style="stroke:#000000;stroke-width:0.5;" x="153.201257575" xlink:href="#mc3055db28a" y="109.726817836"/>
     <use style="stroke:#000000;stroke-width:0.5;" x="153.201257575" xlink:href="#mc3055db28a" y="122.902147782"/>
     <use style="stroke:#000000;stroke-width:0.5;" x="153.201257575" xlink:href="#mc3055db28a" y="136.389401006"/>
     <use style="stroke:#000000;stroke-width:0.5;" x="153.201257575" xlink:href="#mc3055db28a" y="150.085931368"/>
     <use style="stroke:#000000;stroke-width:0.5;" x="153.201257575" xlink:href="#mc3055db28a" y="163.8875"/>
    </g>
   </g>
   <g id="line2d_3">
    <g clip-path="url(#p6e1b086362)">
     <use style="stroke:#000000;stroke-width:0.5;" x="255.116164562" xlink:href="#mc3055db28a" y="163.8875"/>
     <use style="stroke:#000000;stroke-width:0.5;" x="244.142632735" xlink:href="#mc3055db28a" y="163.8875"/>
     <use style="stroke:#000000;stroke-width:0.5;" x="232.476982131" xlink:href="#mc3055db28a" y="163.8875"/>
     <use style="stroke:#000000;stroke-width:0.5;" x="220.207995395" xlink:href="#mc3055db28a" y="163.8875"/>
     <use style="stroke:#000000;stroke-width:0.5;" x="207.429046925" xlink:href="#mc3055db28a" y="163.8875"/>
     <use style="stroke:#000000;stroke-width:0.5;" x="194.237392234" xlink:href="#mc3055db28a" y="163.8875"/>
     <use style="stroke:#000000;stroke-width:0.5;" x="180.73342778" xlink:href="#mc3055db28a" y="163.8875"/>
     <use style="stroke:#000000;stroke-width:0.5;" x="167.019926886" xlink:href="#mc3055db28a" y="163.8875"/>
    </g>
   </g>
   <g id="line2d_4">
    <g clip-path="url(#p6e1b086362)">
     <use style="stroke:#000000;stroke-width:0.5;" x="153.201257575" xlink:href="#mc3055db28a" y="265.676286733"/>
     <use style="stroke:#000000;stroke-width:0.5;" x="153.201257575" xlink:href="#mc3055db28a" y="254.716334712"/>
     <use style="stroke:#000000;stroke-width:0.5;" x="153.201257575" xlink:href="#mc3055db28a" y="243.065120414"/>
     <use style="stroke:#000000;stroke-width:0.5;" x="153.201257575" xlink:href="#mc3055db28a" y="230.811316616"/>
     <use style="stroke:#000000;stroke-width:0.5;" x="153.201257575" xlink:href="#mc3055db28a" y="218.048182164"/>
     <use style="stroke:#000000;stroke-width:0.5;" x="153.201257575" xlink:href="#mc3055db28a" y="204.872852218"/>
     <use style="stroke:#000000;stroke-width:0.5;" x="153.201257575" xlink:href="#mc3055db28a" y="191.385598994"/>
     <use style="stroke:#000000;stroke-width:0.5;" x="153.201257575" xlink:href="#mc3055db28a" y="177.689068632"/>
    </g>
   </g>
   <g id="line2d_5">
    <g clip-path="url(#p6e1b086362)">
     <use style="stroke:#000000;stroke-width:0.5;" x="51.2863505886" xlink:href="#mc3055db28a" y="163.8875"/>
     <use style="stroke:#000000;stroke-width:0.5;" x="62.2598824157" xlink:href="#mc3055db28a" y="163.8875"/>
     <use style="stroke:#000000;stroke-width:0.5;" x="73.9255330196" xlink:href="#mc3055db28a" y="163.8875"/>
     <use style="stroke:#000000;stroke-width:0.5;" x="86.1945197553" xlink:href="#mc3055db28a" y="163.8875"/>
     <use style="stroke:#000000;stroke-width:0.5;" x="98.9734682256" xlink:href="#mc3055db28a" y="163.8875"/>
     <use style="stroke:#000000;stroke-width:0.5;" x="112.165122917" xlink:href="#mc3055db28a" y="163.8875"/>
     <use style="stroke:#000000;stroke-width:0.5;" x="125.669087371" xlink:href="#mc3055db28a" y="163.8875"/>
     <use style="stroke:#000000;stroke-width:0.5;" x="139.382588264" xlink:href="#mc3055db28a" y="163.8875"/>
    </g>
   </g>
   <g id="line2d_6">
    <path clip-path="url(#p6e1b086362)" d="M 153.201258 51.913435 
L 153.201258 52.894845 
L 153.201258 53.884706 
L 153.201258 54.882945 
" style="fill:none;stroke:#000000;stroke-linecap:square;"/>
   </g>
   <g id="line2d_7">
    <path clip-path="url(#p6e1b086362)" d="M 172.669442 53.614573 
L 172.498811 54.581072 
L 172.32671 55.555896 
L 172.153153 56.53897 
" style="fill:none;stroke:#000000;stroke-linecap:square;"/>
   </g>
   <g id="line2d_8">
    <path clip-path="url(#p6e1b086362)" d="M 191.546095 58.666298 
L 191.210018 59.588521 
L 190.871045 60.518687 
L 190.529205 61.456724 
" style="fill:none;stroke:#000000;stroke-linecap:square;"/>
   </g>
   <g id="line2d_9">
    <path clip-path="url(#p6e1b086362)" d="M 209.25766 66.915115 
L 208.766347 67.765041 
L 208.270803 68.622286 
L 207.771065 69.486787 
" style="fill:none;stroke:#000000;stroke-linecap:square;"/>
   </g>
   <g id="line2d_10">
    <path clip-path="url(#p6e1b086362)" d="M 225.265979 78.11039 
L 224.63436 78.862193 
L 223.997301 79.620471 
L 223.35485 80.385167 
" style="fill:none;stroke:#000000;stroke-linecap:square;"/>
   </g>
   <g id="line2d_11">
    <path clip-path="url(#p6e1b086362)" d="M 239.084649 91.911959 
L 238.331914 92.542796 
L 237.572696 93.179067 
L 236.807054 93.820723 
" style="fill:none;stroke:#000000;stroke-linecap:square;"/>
   </g>
   <g id="line2d_12">
    <path clip-path="url(#p6e1b086362)" d="M 250.293795 107.900468 
L 249.442816 108.391172 
L 248.584509 108.886103 
L 247.718937 109.385223 
" style="fill:none;stroke:#000000;stroke-linecap:square;"/>
   </g>
   <g id="line2d_13">
    <path clip-path="url(#p6e1b086362)" d="M 258.552833 125.590114 
L 257.629467 125.925776 
L 256.698149 126.264329 
L 255.758949 126.605747 
" style="fill:none;stroke:#000000;stroke-linecap:square;"/>
   </g>
   <g id="line2d_14">
    <path clip-path="url(#p6e1b086362)" d="M 263.610817 144.443408 
L 262.64312 144.613828 
L 261.667089 144.785715 
L 260.682797 144.959058 
" style="fill:none;stroke:#000000;stroke-linecap:square;"/>
   </g>
   <g id="line2d_15">
    <path clip-path="url(#p6e1b086362)" d="M 265.314062 163.8875 
L 264.331437 163.8875 
L 263.340349 163.8875 
L 262.340873 163.8875 
" style="fill:none;stroke:#000000;stroke-linecap:square;"/>
   </g>
   <g id="line2d_16">
    <path clip-path="url(#p6e1b086362)" d="M 263.610817 183.331592 
L 262.64312 183.161172 
L 261.667089 182.989285 
L 260.682797 182.815942 
" style="fill:none;stroke:#000000;stroke-linecap:square;"/>
   </g>
   <g id="line2d_17">
    <path clip-path="url(#p6e1b086362)" d="M 258.552833 202.184886 
L 257.629467 201.849224 
L 256.698149 201.510671 
L 255.758949 201.169253 
" style="fill:none;stroke:#000000;stroke-linecap:square;"/>
   </g>
   <g id="line2d_18">
    <path clip-path="url(#p6e1b086362)" d="M 250.293795 219.874532 
L 249.442816 219.383828 
L 248.584509 218.888897 
L 247.718937 218.389777 
" style="fill:none;stroke:#000000;stroke-linecap:square;"/>
   </g>
   <g id="line2d_19">
    <path clip-path="url(#p6e1b086362)" d="M 239.084649 235.863041 
L 238.331914 235.232204 
L 237.572696 234.595933 
L 236.807054 233.954277 
" style="fill:none;stroke:#000000;stroke-linecap:square;"/>
   </g>
   <g id="line2d_20">
    <path clip-path="url(#p6e1b086362)" d="M 225.265979 249.66461 
L 224.63436 248.912807 
L 223.997301 248.154529 
L 223.35485 247.389833 
" style="fill:none;stroke:#000000;stroke-linecap:square;"/>
   </g>
   <g id="line2d_21">
    <path clip-path="url(#p6e1b086362)" d="M 209.25766 260.859885 
L 208.766347 260.009959 
L 208.270803 259.152714 
L 207.771065 258.288213 
" style="fill:none;stroke:#000000;stroke-linecap:square;"/>
   </g>
   <g id="line2d_22">
    <path clip-path="url(#p6e1b086362)" d="M 191.546095 269.108702 
L 191.210018 268.186479 
L 190.871045 267.256313 
L 190.529205 266.318276 
" style="fill:none;stroke:#000000;stroke-linecap:square;"/>
   </g>
   <g id="line2d_23">
    <path clip-path="url(#p6e1b086362)" d="M 172.669442 274.160427 
L 172.498811 273.193928 
L 172.32671 272.219104 
L 172.153153 271.23603 
" style="fill:none;stroke:#000000;stroke-linecap:square;"/>
   </g>
   <g id="line2d_24">
    <path clip-path="url(#p6e1b086362)" d="M 153.201258 275.861565 
L 153.201258 274.880155 
L 153.201258 273.890294 
L 153.201258 272.892055 
" style="fill:none;stroke:#000000;stroke-linecap:square;"/>
   </g>
   <g id="line2d_25">
    <path clip-path="url(#p6e1b086362)" d="M 133.733073 274.160427 
L 133.903704 273.193928 
L 134.075805 272.219104 
L 134.249362 271.23603 
" style="fill:none;stroke:#000000;stroke-linecap:square;"/>
   </g>
   <g id="line2d_26">
    <path clip-path="url(#p6e1b086362)" d="M 114.85642 269.108702 
L 115.192498 268.186479 
L 115.53147 267.256313 
L 115.873311 266.318276 
" style="fill:none;stroke:#000000;stroke-linecap:square;"/>
   </g>
   <g id="line2d_27">
    <path clip-path="url(#p6e1b086362)" d="M 97.144855 260.859885 
L 97.636168 260.009959 
L 98.131712 259.152714 
L 98.63145 258.288213 
" style="fill:none;stroke:#000000;stroke-linecap:square;"/>
   </g>
   <g id="line2d_28">
    <path clip-path="url(#p6e1b086362)" d="M 81.136536 249.66461 
L 81.768155 248.912807 
L 82.405214 248.154529 
L 83.047665 247.389833 
" style="fill:none;stroke:#000000;stroke-linecap:square;"/>
   </g>
   <g id="line2d_29">
    <path clip-path="url(#p6e1b086362)" d="M 67.317866 235.863041 
L 68.070601 235.232204 
L 68.829819 234.595933 
L 69.595462 233.954277 
" style="fill:none;stroke:#000000;stroke-linecap:square;"/>
   </g>
   <g id="line2d_30">
    <path clip-path="url(#p6e1b086362)" d="M 56.10872 219.874532 
L 56.959699 219.383828 
L 57.818007 218.888897 
L 58.683578 218.389777 
" style="fill:none;stroke:#000000;stroke-linecap:square;"/>
   </g>
   <g id="line2d_31">
    <path clip-path="url(#p6e1b086362)" d="M 47.849682 202.184886 
L 48.773048 201.849224 
L 49.704366 201.510671 
L 50.643566 201.169253 
" style="fill:none;stroke:#000000;stroke-linecap:square;"/>
   </g>
   <g id="line2d_32">
    <path clip-path="url(#p6e1b086362)" d="M 42.791698 183.331592 
L 43.759395 183.161172 
L 44.735427 182.989285 
L 45.719718 182.815942 
" style="fill:none;stroke:#000000;stroke-linecap:square;"/>
   </g>
   <g id="line2d_33">
    <path clip-path="url(#p6e1b086362)" d="M 41.088453 163.8875 
L 42.071078 163.8875 
L 43.062166 163.8875 
L 44.061642 163.8875 
" style="fill:none;stroke:#000000;stroke-linecap:square;"/>
   </g>
   <g id="line2d_34">
    <path clip-path="url(#p6e1b086362)" d="M 42.791698 144.443408 
L 43.759395 144.613828 
L 44.735427 144.785715 
L 45.719718 144.959058 
" style="fill:none;stroke:#000000;stroke-linecap:square;"/>
   </g>
   <g id="line2d_35">
    <path clip-path="url(#p6e1b086362)" d="M 47.849682 125.590114 
L 48.773048 125.925776 
L 49.704366 126.264329 
L 50.643566 126.605747 
" style="fill:none;stroke:#000000;stroke-linecap:square;"/>
   </g>
   <g id="line2d_36">
    <path clip-path="url(#p6e1b086362)" d="M 56.10872 107.900468 
L 56.959699 108.391172 
L 57.818007 108.886103 
L 58.683578 109.385223 
" style="fill:none;stroke:#000000;stroke-linecap:square;"/>
   </g>
   <g id="line2d_37">
    <path clip-path="url(#p6e1b086362)" d="M 67.317866 91.911959 
L 68.070601 92.542796 
L 68.829819 93.179067 
L 69.595462 93.820723 
" style="fill:none;stroke:#000000;stroke-linecap:square;"/>
   </g>
   <g id="line2d_38">
    <path clip-path="url(#p6e1b086362)" d="M 81.136536 78.11039 
L 81.768155 78.862193 
L 82.405214 79.620471 
L 83.047665 80.385167 
" style="fill:none;stroke:#000000;stroke-linecap:square;"/>
   </g>
   <g id="line2d_39">
    <path clip-path="url(#p6e1b086362)" d="M 97.144855 66.915115 
L 97.636168 67.765041 
L 98.131712 68.622286 
L 98.63145 69.486787 
" style="fill:none;stroke:#000000;stroke-linecap:square;"/>
   </g>
   <g id="line2d_40">
    <path clip-path="url(#p6e1b086362)" d="M 114.85642 58.666298 
L 115.192498 59.588521 
L 115.53147 60.518687 
L 115.873311 61.456724 
" style="fill:none;stroke:#000000;stroke-linecap:square;"/>
   </g>
   <g id="line2d_41">
    <path clip-path="url(#p6e1b086362)" d="M 133.733073 53.614573 
L 133.903704 54.581072 
L 134.075805 55.555896 
L 134.249362 56.53897 
" style="fill:none;stroke:#000000;stroke-linecap:square;"/>
   </g>
   <g id="line2d_42">
    <path clip-path="url(#p6e1b086362)" d="M 94.099285 187.814107 
L 93.765036 188.003034 
L 93.445049 188.21693 
L 93.140644 188.45503 
L 92.85309 188.716471 
L 92.583596 189.000284 
L 92.333309 189.305405 
L 92.103304 189.630675 
L 91.89458 189.974844 
L 91.708056 190.336573 
L 91.544564 190.714446 
L 91.404846 191.106964 
L 91.289546 191.512564 
L 91.19921 191.929613 
L 91.13428 192.356425 
L 91.095092 192.791261 
L 91.081872 193.232341 
L 91.094733 193.67785 
L 91.133679 194.125947 
L 91.198595 194.574773 
L 91.289256 195.022462 
L 91.405321 195.467147 
L 91.546337 195.90697 
L 91.711738 196.340093 
L 91.900852 196.764704 
L 92.112899 197.179027 
L 92.346997 197.581334 
L 92.602167 197.969946 
L 92.877336 198.343249 
L 93.171342 198.699696 
L 93.482944 199.037818 
L 93.810823 199.35623 
L 94.153591 199.653635 
L 94.509799 199.928832 
L 94.877943 200.180721 
L 95.256473 200.408308 
L 95.643798 200.610705 
L 96.038296 200.787141 
L 96.438324 200.936956 
L 96.84222 201.059607 
L 97.248317 201.154671 
L 97.654947 201.221842 
L 98.060449 201.260934 
L 98.463179 201.271876 
L 98.861513 201.254718 
L 99.253859 201.209621 
L 99.638657 201.136863 
L 100.014391 201.036829 
L 100.379593 200.910011 
L 100.732847 200.757008 
L 101.072797 200.578516 
L 101.398146 200.375326 
L 101.707669 200.148322 
L 102.00021 199.898473 
L 102.274686 199.626831 
L 102.530093 199.334522 
L 102.765508 199.022746 
L 102.980089 198.692766 
L 103.17308 198.345908 
L 103.34381 197.983552 
L 103.491696 197.607126 
L 103.616243 197.218104 
L 103.717044 196.817997 
L 103.793783 196.408349 
L 103.846233 195.990732 
L 103.874255 195.566738 
L 103.8778 195.137978 
L 103.856905 194.706072 
L 103.811697 194.272647 
L 103.742386 193.839329 
L 103.64927 193.407741 
L 103.532727 192.979496 
L 103.393219 192.556191 
L 103.231287 192.139405 
L 103.047549 191.73069 
L 102.842701 191.331572 
L 102.617509 190.94354 
L 102.372814 190.568045 
L 102.109523 190.206497 
L 101.828609 189.860254 
L 101.531107 189.530627 
L 101.218114 189.218866 
L 100.890781 188.926164 
L 100.550315 188.653646 
L 100.197972 188.402371 
L 99.835051 188.173324 
L 99.462898 187.967416 
L 99.082894 187.785474 
L 98.696456 187.628245 
L 98.30503 187.496389 
L 97.910087 187.390475 
L 97.51312 187.310979 
L 97.115637 187.258284 
L 96.719157 187.232672 
L 96.325204 187.234328 
L 95.935304 187.263331 
L 95.550976 187.319662 
L 95.173729 187.403191 
L 94.805056 187.513685 
L 94.446427 187.650806 
L 94.099285 187.814107 
" style="fill:none;stroke:#0000ff;stroke-linecap:square;"/>
   </g>
   <g id="line2d_43">
    <path clip-path="url(#p6e1b086362)" d="M 101.084152 253.972192 
L 100.869285 254.433232 
L 100.705411 254.918493 
L 100.593763 255.426299 
L 100.535393 255.95483 
L 100.531157 256.502119 
L 100.581706 257.06606 
L 100.687467 257.644409 
L 100.848637 258.234796 
L 101.065164 258.834728 
L 101.336742 259.441606 
L 101.6628 260.052733 
L 102.042492 260.665331 
L 102.474692 261.276554 
L 102.957992 261.88351 
L 103.490698 262.483276 
L 104.070831 263.072922 
L 104.69613 263.649531 
L 105.364063 264.210222 
L 106.07183 264.752171 
L 106.816382 265.272639 
L 107.594431 265.768988 
L 108.402474 266.238709 
L 109.236811 266.67944 
L 110.09357 267.088988 
L 110.968735 267.465344 
L 111.85817 267.806701 
L 112.757652 268.111467 
L 113.662904 268.378276 
L 114.56962 268.605996 
L 115.473501 268.793735 
L 116.370284 268.940846 
L 117.255774 269.04692 
L 118.125871 269.11179 
L 118.976598 269.135523 
L 119.804128 269.118413 
L 120.604802 269.060971 
L 121.375155 268.963911 
L 122.111931 268.828144 
L 122.812098 268.654756 
L 123.472862 268.444997 
L 124.091673 268.200266 
L 124.666236 267.922092 
L 125.194514 267.612124 
L 125.674727 267.272107 
L 126.105357 266.903875 
L 126.485141 266.509332 
L 126.813071 266.090439 
L 127.088384 265.6492 
L 127.310559 265.187652 
L 127.479307 264.707854 
L 127.594563 264.211874 
L 127.656478 263.701784 
L 127.665404 263.179647 
L 127.621889 262.647515 
L 127.526665 262.107418 
L 127.380634 261.561365 
L 127.184864 261.01133 
L 126.940572 260.459258 
L 126.64912 259.907054 
L 126.311998 259.356586 
L 125.930823 258.80968 
L 125.507323 258.268116 
L 125.043331 257.733633 
L 124.540778 257.207921 
L 124.001684 256.692626 
L 123.428149 256.189343 
L 122.822349 255.699623 
L 122.186528 255.224965 
L 121.522991 254.76682 
L 120.8341 254.326591 
L 120.122267 253.905629 
L 119.38995 253.505235 
L 118.639647 253.126656 
L 117.873893 252.771091 
L 117.095254 252.439682 
L 116.306322 252.133515 
L 115.509713 251.853623 
L 114.708063 251.600978 
L 113.904022 251.376492 
L 113.100251 251.181014 
L 112.299417 251.01533 
L 111.504194 250.880155 
L 110.71725 250.776134 
L 109.941251 250.703837 
L 109.178851 250.663757 
L 108.432691 250.656303 
L 107.705391 250.681799 
L 106.999546 250.740476 
L 106.31772 250.832472 
L 105.66244 250.957822 
L 105.03619 251.11646 
L 104.441403 251.308204 
L 103.880451 251.532761 
L 103.355641 251.789715 
L 102.869205 252.078527 
L 102.423288 252.398525 
L 102.01994 252.748906 
L 101.661105 253.128725 
L 101.34861 253.536897 
L 101.084152 253.972192 
" style="fill:none;stroke:#ff0000;stroke-linecap:square;"/>
   </g>
   <g id="legend_1">
    <g id="patch_2">
     <path d="M 70.798346 100.5375 
L 227.499596 100.5375 
L 227.499596 7.2 
L 70.798346 7.2 
z
" style="fill:#ffffff;stroke:#000000;stroke-linejoin:miter;"/>
    </g>
    <g id="PathCollection_7">
     <path d="M 79.198346 20.204193 
C 79.791358 20.204193 80.360162 19.968587 80.779485 19.549264 
C 81.198808 19.129941 81.434414 18.561137 81.434414 17.968125 
C 81.434414 17.375113 81.198808 16.806309 80.779485 16.386986 
C 80.360162 15.967663 79.791358 15.732057 79.198346 15.732057 
C 78.605334 15.732057 78.03653 15.967663 77.617207 16.386986 
C 77.197884 16.806309 76.962278 17.375113 76.962278 17.968125 
C 76.962278 18.561137 77.197884 19.129941 77.617207 19.549264 
C 78.03653 19.968587 78.605334 20.204193 79.198346 20.204193 
z
" style="fill:#008000;stroke:#008000;"/>
     <path d="M 87.598346 19.154193 
C 88.191358 19.154193 88.760162 18.918587 89.179485 18.499264 
C 89.598808 18.079941 89.834414 17.511137 89.834414 16.918125 
C 89.834414 16.325113 89.598808 15.756309 89.179485 15.336986 
C 88.760162 14.917663 88.191358 14.682057 87.598346 14.682057 
C 87.005334 14.682057 86.43653 14.917663 86.017207 15.336986 
C 85.597884 15.756309 85.362278 16.325113 85.362278 16.918125 
C 85.362278 17.511137 85.597884 18.079941 86.017207 18.499264 
C 86.43653 18.918587 87.005334 19.154193 87.598346 19.154193 
z
" style="fill:#008000;stroke:#008000;"/>
     <path d="M 95.998346 20.729193 
C 96.591358 20.729193 97.160162 20.493587 97.579485 20.074264 
C 97.998808 19.654941 98.234414 19.086137 98.234414 18.493125 
C 98.234414 17.900113 97.998808 17.331309 97.579485 16.911986 
C 97.160162 16.492663 96.591358 16.257057 95.998346 16.257057 
C 95.405334 16.257057 94.83653 16.492663 94.417207 16.911986 
C 93.997884 17.331309 93.762278 17.900113 93.762278 18.493125 
C 93.762278 19.086137 93.997884 19.654941 94.417207 20.074264 
C 94.83653 20.493587 95.405334 20.729193 95.998346 20.729193 
z
" style="fill:#008000;stroke:#008000;"/>
    </g>
    <g id="text_1">
     <!-- Z40_low_geo -->
     <defs>
      <path d="M 5.609375 72.90625 
L 62.890625 72.90625 
L 62.890625 65.375 
L 16.796875 8.296875 
L 64.015625 8.296875 
L 64.015625 0 
L 4.5 0 
L 4.5 7.515625 
L 50.59375 64.59375 
L 5.609375 64.59375 
z
" id="BitstreamVeraSans-Roman-5a"/>
      <path d="M 31.78125 66.40625 
Q 24.171875 66.40625 20.328125 58.90625 
Q 16.5 51.421875 16.5 36.375 
Q 16.5 21.390625 20.328125 13.890625 
Q 24.171875 6.390625 31.78125 6.390625 
Q 39.453125 6.390625 43.28125 13.890625 
Q 47.125 21.390625 47.125 36.375 
Q 47.125 51.421875 43.28125 58.90625 
Q 39.453125 66.40625 31.78125 66.40625 
M 31.78125 74.21875 
Q 44.046875 74.21875 50.515625 64.515625 
Q 56.984375 54.828125 56.984375 36.375 
Q 56.984375 17.96875 50.515625 8.265625 
Q 44.046875 -1.421875 31.78125 -1.421875 
Q 19.53125 -1.421875 13.0625 8.265625 
Q 6.59375 17.96875 6.59375 36.375 
Q 6.59375 54.828125 13.0625 64.515625 
Q 19.53125 74.21875 31.78125 74.21875 
" id="BitstreamVeraSans-Roman-30"/>
      <path d="M 37.796875 64.3125 
L 12.890625 25.390625 
L 37.796875 25.390625 
z
M 35.203125 72.90625 
L 47.609375 72.90625 
L 47.609375 25.390625 
L 58.015625 25.390625 
L 58.015625 17.1875 
L 47.609375 17.1875 
L 47.609375 0 
L 37.796875 0 
L 37.796875 17.1875 
L 4.890625 17.1875 
L 4.890625 26.703125 
z
" id="BitstreamVeraSans-Roman-34"/>
      <path d="M 50.984375 -16.609375 
L 50.984375 -23.578125 
L -0.984375 -23.578125 
L -0.984375 -16.609375 
z
" id="BitstreamVeraSans-Roman-5f"/>
      <path d="M 30.609375 48.390625 
Q 23.390625 48.390625 19.1875 42.75 
Q 14.984375 37.109375 14.984375 27.296875 
Q 14.984375 17.484375 19.15625 11.84375 
Q 23.34375 6.203125 30.609375 6.203125 
Q 37.796875 6.203125 41.984375 11.859375 
Q 46.1875 17.53125 46.1875 27.296875 
Q 46.1875 37.015625 41.984375 42.703125 
Q 37.796875 48.390625 30.609375 48.390625 
M 30.609375 56 
Q 42.328125 56 49.015625 48.375 
Q 55.71875 40.765625 55.71875 27.296875 
Q 55.71875 13.875 49.015625 6.21875 
Q 42.328125 -1.421875 30.609375 -1.421875 
Q 18.84375 -1.421875 12.171875 6.21875 
Q 5.515625 13.875 5.515625 27.296875 
Q 5.515625 40.765625 12.171875 48.375 
Q 18.84375 56 30.609375 56 
" id="BitstreamVeraSans-Roman-6f"/>
      <path d="M 9.421875 75.984375 
L 18.40625 75.984375 
L 18.40625 0 
L 9.421875 0 
z
" id="BitstreamVeraSans-Roman-6c"/>
      <path d="M 56.203125 29.59375 
L 56.203125 25.203125 
L 14.890625 25.203125 
Q 15.484375 15.921875 20.484375 11.0625 
Q 25.484375 6.203125 34.421875 6.203125 
Q 39.59375 6.203125 44.453125 7.46875 
Q 49.3125 8.734375 54.109375 11.28125 
L 54.109375 2.78125 
Q 49.265625 0.734375 44.1875 -0.34375 
Q 39.109375 -1.421875 33.890625 -1.421875 
Q 20.796875 -1.421875 13.15625 6.1875 
Q 5.515625 13.8125 5.515625 26.8125 
Q 5.515625 40.234375 12.765625 48.109375 
Q 20.015625 56 32.328125 56 
Q 43.359375 56 49.78125 48.890625 
Q 56.203125 41.796875 56.203125 29.59375 
M 47.21875 32.234375 
Q 47.125 39.59375 43.09375 43.984375 
Q 39.0625 48.390625 32.421875 48.390625 
Q 24.90625 48.390625 20.390625 44.140625 
Q 15.875 39.890625 15.1875 32.171875 
z
" id="BitstreamVeraSans-Roman-65"/>
      <path d="M 4.203125 54.6875 
L 13.1875 54.6875 
L 24.421875 12.015625 
L 35.59375 54.6875 
L 46.1875 54.6875 
L 57.421875 12.015625 
L 68.609375 54.6875 
L 77.59375 54.6875 
L 63.28125 0 
L 52.6875 0 
L 40.921875 44.828125 
L 29.109375 0 
L 18.5 0 
z
" id="BitstreamVeraSans-Roman-77"/>
      <path d="M 45.40625 27.984375 
Q 45.40625 37.75 41.375 43.109375 
Q 37.359375 48.484375 30.078125 48.484375 
Q 22.859375 48.484375 18.828125 43.109375 
Q 14.796875 37.75 14.796875 27.984375 
Q 14.796875 18.265625 18.828125 12.890625 
Q 22.859375 7.515625 30.078125 7.515625 
Q 37.359375 7.515625 41.375 12.890625 
Q 45.40625 18.265625 45.40625 27.984375 
M 54.390625 6.78125 
Q 54.390625 -7.171875 48.1875 -13.984375 
Q 42 -20.796875 29.203125 -20.796875 
Q 24.46875 -20.796875 20.265625 -20.09375 
Q 16.0625 -19.390625 12.109375 -17.921875 
L 12.109375 -9.1875 
Q 16.0625 -11.328125 19.921875 -12.34375 
Q 23.78125 -13.375 27.78125 -13.375 
Q 36.625 -13.375 41.015625 -8.765625 
Q 45.40625 -4.15625 45.40625 5.171875 
L 45.40625 9.625 
Q 42.625 4.78125 38.28125 2.390625 
Q 33.9375 0 27.875 0 
Q 17.828125 0 11.671875 7.65625 
Q 5.515625 15.328125 5.515625 27.984375 
Q 5.515625 40.671875 11.671875 48.328125 
Q 17.828125 56 27.875 56 
Q 33.9375 56 38.28125 53.609375 
Q 42.625 51.21875 45.40625 46.390625 
L 45.40625 54.6875 
L 54.390625 54.6875 
z
" id="BitstreamVeraSans-Roman-67"/>
     </defs>
     <g transform="translate(109.198346023 21.118125)scale(0.12 -0.12)">
      <use xlink:href="#BitstreamVeraSans-Roman-5a"/>
      <use x="68.505859375" xlink:href="#BitstreamVeraSans-Roman-34"/>
      <use x="132.12890625" xlink:href="#BitstreamVeraSans-Roman-30"/>
      <use x="195.751953125" xlink:href="#BitstreamVeraSans-Roman-5f"/>
      <use x="245.751953125" xlink:href="#BitstreamVeraSans-Roman-6c"/>
      <use x="273.53515625" xlink:href="#BitstreamVeraSans-Roman-6f"/>
      <use x="334.716796875" xlink:href="#BitstreamVeraSans-Roman-77"/>
      <use x="416.50390625" xlink:href="#BitstreamVeraSans-Roman-5f"/>
      <use x="466.50390625" xlink:href="#BitstreamVeraSans-Roman-67"/>
      <use x="529.98046875" xlink:href="#BitstreamVeraSans-Roman-65"/>
      <use x="591.50390625" xlink:href="#BitstreamVeraSans-Roman-6f"/>
     </g>
    </g>
    <g id="PathCollection_8">
     <path d="M 79.198346 38.151693 
C 79.791358 38.151693 80.360162 37.916087 80.779485 37.496764 
C 81.198808 37.077441 81.434414 36.508637 81.434414 35.915625 
C 81.434414 35.322613 81.198808 34.753809 80.779485 34.334486 
C 80.360162 33.915163 79.791358 33.679557 79.198346 33.679557 
C 78.605334 33.679557 78.03653 33.915163 77.617207 34.334486 
C 77.197884 34.753809 76.962278 35.322613 76.962278 35.915625 
C 76.962278 36.508637 77.197884 37.077441 77.617207 37.496764 
C 78.03653 37.916087 78.605334 38.151693 79.198346 38.151693 
L 79.198346 38.151693 
z
" style="fill:none;stroke:#ff0000;"/>
     <path d="M 87.598346 37.101693 
C 88.191358 37.101693 88.760162 36.866087 89.179485 36.446764 
C 89.598808 36.027441 89.834414 35.458637 89.834414 34.865625 
C 89.834414 34.272613 89.598808 33.703809 89.179485 33.284486 
C 88.760162 32.865163 88.191358 32.629557 87.598346 32.629557 
C 87.005334 32.629557 86.43653 32.865163 86.017207 33.284486 
C 85.597884 33.703809 85.362278 34.272613 85.362278 34.865625 
C 85.362278 35.458637 85.597884 36.027441 86.017207 36.446764 
C 86.43653 36.866087 87.005334 37.101693 87.598346 37.101693 
L 87.598346 37.101693 
z
" style="fill:none;stroke:#ff0000;"/>
     <path d="M 95.998346 38.676693 
C 96.591358 38.676693 97.160162 38.441087 97.579485 38.021764 
C 97.998808 37.602441 98.234414 37.033637 98.234414 36.440625 
C 98.234414 35.847613 97.998808 35.278809 97.579485 34.859486 
C 97.160162 34.440163 96.591358 34.204557 95.998346 34.204557 
C 95.405334 34.204557 94.83653 34.440163 94.417207 34.859486 
C 93.997884 35.278809 93.762278 35.847613 93.762278 36.440625 
C 93.762278 37.033637 93.997884 37.602441 94.417207 38.021764 
C 94.83653 38.441087 95.405334 38.676693 95.998346 38.676693 
L 95.998346 38.676693 
z
" style="fill:none;stroke:#ff0000;"/>
    </g>
    <g id="text_2">
     <!-- Z40_hem_tc -->
     <defs>
      <path d="M 52 44.1875 
Q 55.375 50.25 60.0625 53.125 
Q 64.75 56 71.09375 56 
Q 79.640625 56 84.28125 50.015625 
Q 88.921875 44.046875 88.921875 33.015625 
L 88.921875 0 
L 79.890625 0 
L 79.890625 32.71875 
Q 79.890625 40.578125 77.09375 44.375 
Q 74.3125 48.1875 68.609375 48.1875 
Q 61.625 48.1875 57.5625 43.546875 
Q 53.515625 38.921875 53.515625 30.90625 
L 53.515625 0 
L 44.484375 0 
L 44.484375 32.71875 
Q 44.484375 40.625 41.703125 44.40625 
Q 38.921875 48.1875 33.109375 48.1875 
Q 26.21875 48.1875 22.15625 43.53125 
Q 18.109375 38.875 18.109375 30.90625 
L 18.109375 0 
L 9.078125 0 
L 9.078125 54.6875 
L 18.109375 54.6875 
L 18.109375 46.1875 
Q 21.1875 51.21875 25.484375 53.609375 
Q 29.78125 56 35.6875 56 
Q 41.65625 56 45.828125 52.96875 
Q 50 49.953125 52 44.1875 
" id="BitstreamVeraSans-Roman-6d"/>
      <path d="M 18.3125 70.21875 
L 18.3125 54.6875 
L 36.8125 54.6875 
L 36.8125 47.703125 
L 18.3125 47.703125 
L 18.3125 18.015625 
Q 18.3125 11.328125 20.140625 9.421875 
Q 21.96875 7.515625 27.59375 7.515625 
L 36.8125 7.515625 
L 36.8125 0 
L 27.59375 0 
Q 17.1875 0 13.234375 3.875 
Q 9.28125 7.765625 9.28125 18.015625 
L 9.28125 47.703125 
L 2.6875 47.703125 
L 2.6875 54.6875 
L 9.28125 54.6875 
L 9.28125 70.21875 
z
" id="BitstreamVeraSans-Roman-74"/>
      <path d="M 54.890625 33.015625 
L 54.890625 0 
L 45.90625 0 
L 45.90625 32.71875 
Q 45.90625 40.484375 42.875 44.328125 
Q 39.84375 48.1875 33.796875 48.1875 
Q 26.515625 48.1875 22.3125 43.546875 
Q 18.109375 38.921875 18.109375 30.90625 
L 18.109375 0 
L 9.078125 0 
L 9.078125 75.984375 
L 18.109375 75.984375 
L 18.109375 46.1875 
Q 21.34375 51.125 25.703125 53.5625 
Q 30.078125 56 35.796875 56 
Q 45.21875 56 50.046875 50.171875 
Q 54.890625 44.34375 54.890625 33.015625 
" id="BitstreamVeraSans-Roman-68"/>
      <path d="M 48.78125 52.59375 
L 48.78125 44.1875 
Q 44.96875 46.296875 41.140625 47.34375 
Q 37.3125 48.390625 33.40625 48.390625 
Q 24.65625 48.390625 19.8125 42.84375 
Q 14.984375 37.3125 14.984375 27.296875 
Q 14.984375 17.28125 19.8125 11.734375 
Q 24.65625 6.203125 33.40625 6.203125 
Q 37.3125 6.203125 41.140625 7.25 
Q 44.96875 8.296875 48.78125 10.40625 
L 48.78125 2.09375 
Q 45.015625 0.34375 40.984375 -0.53125 
Q 36.96875 -1.421875 32.421875 -1.421875 
Q 20.0625 -1.421875 12.78125 6.34375 
Q 5.515625 14.109375 5.515625 27.296875 
Q 5.515625 40.671875 12.859375 48.328125 
Q 20.21875 56 33.015625 56 
Q 37.15625 56 41.109375 55.140625 
Q 45.0625 54.296875 48.78125 52.59375 
" id="BitstreamVeraSans-Roman-63"/>
     </defs>
     <g transform="translate(109.198346023 39.065625)scale(0.12 -0.12)">
      <use xlink:href="#BitstreamVeraSans-Roman-5a"/>
      <use x="68.505859375" xlink:href="#BitstreamVeraSans-Roman-34"/>
      <use x="132.12890625" xlink:href="#BitstreamVeraSans-Roman-30"/>
      <use x="195.751953125" xlink:href="#BitstreamVeraSans-Roman-5f"/>
      <use x="245.751953125" xlink:href="#BitstreamVeraSans-Roman-68"/>
      <use x="309.130859375" xlink:href="#BitstreamVeraSans-Roman-65"/>
      <use x="370.654296875" xlink:href="#BitstreamVeraSans-Roman-6d"/>
      <use x="468.06640625" xlink:href="#BitstreamVeraSans-Roman-5f"/>
      <use x="518.06640625" xlink:href="#BitstreamVeraSans-Roman-74"/>
      <use x="557.275390625" xlink:href="#BitstreamVeraSans-Roman-63"/>
     </g>
    </g>
    <g id="PathCollection_9">
     <path d="M 79.198346 56.099193 
C 79.791358 56.099193 80.360162 55.863587 80.779485 55.444264 
C 81.198808 55.024941 81.434414 54.456137 81.434414 53.863125 
C 81.434414 53.270113 81.198808 52.701309 80.779485 52.281986 
C 80.360162 51.862663 79.791358 51.627057 79.198346 51.627057 
C 78.605334 51.627057 78.03653 51.862663 77.617207 52.281986 
C 77.197884 52.701309 76.962278 53.270113 76.962278 53.863125 
C 76.962278 54.456137 77.197884 55.024941 77.617207 55.444264 
C 78.03653 55.863587 78.605334 56.099193 79.198346 56.099193 
z
" style="fill:#ff0000;stroke:#ff0000;"/>
     <path d="M 87.598346 55.049193 
C 88.191358 55.049193 88.760162 54.813587 89.179485 54.394264 
C 89.598808 53.974941 89.834414 53.406137 89.834414 52.813125 
C 89.834414 52.220113 89.598808 51.651309 89.179485 51.231986 
C 88.760162 50.812663 88.191358 50.577057 87.598346 50.577057 
C 87.005334 50.577057 86.43653 50.812663 86.017207 51.231986 
C 85.597884 51.651309 85.362278 52.220113 85.362278 52.813125 
C 85.362278 53.406137 85.597884 53.974941 86.017207 54.394264 
C 86.43653 54.813587 87.005334 55.049193 87.598346 55.049193 
z
" style="fill:#ff0000;stroke:#ff0000;"/>
     <path d="M 95.998346 56.624193 
C 96.591358 56.624193 97.160162 56.388587 97.579485 55.969264 
C 97.998808 55.549941 98.234414 54.981137 98.234414 54.388125 
C 98.234414 53.795113 97.998808 53.226309 97.579485 52.806986 
C 97.160162 52.387663 96.591358 52.152057 95.998346 52.152057 
C 95.405334 52.152057 94.83653 52.387663 94.417207 52.806986 
C 93.997884 53.226309 93.762278 53.795113 93.762278 54.388125 
C 93.762278 54.981137 93.997884 55.549941 94.417207 55.969264 
C 94.83653 56.388587 95.405334 56.624193 95.998346 56.624193 
z
" style="fill:#ff0000;stroke:#ff0000;"/>
    </g>
    <g id="text_3">
     <!-- Z40_hem_tc -->
     <g transform="translate(109.198346023 57.013125)scale(0.12 -0.12)">
      <use xlink:href="#BitstreamVeraSans-Roman-5a"/>
      <use x="68.505859375" xlink:href="#BitstreamVeraSans-Roman-34"/>
      <use x="132.12890625" xlink:href="#BitstreamVeraSans-Roman-30"/>
      <use x="195.751953125" xlink:href="#BitstreamVeraSans-Roman-5f"/>
      <use x="245.751953125" xlink:href="#BitstreamVeraSans-Roman-68"/>
      <use x="309.130859375" xlink:href="#BitstreamVeraSans-Roman-65"/>
      <use x="370.654296875" xlink:href="#BitstreamVeraSans-Roman-6d"/>
      <use x="468.06640625" xlink:href="#BitstreamVeraSans-Roman-5f"/>
      <use x="518.06640625" xlink:href="#BitstreamVeraSans-Roman-74"/>
      <use x="557.275390625" xlink:href="#BitstreamVeraSans-Roman-63"/>
     </g>
    </g>
    <g id="PathCollection_10">
     <path d="M 76.962278 74.046693 
L 81.434414 74.046693 
L 81.434414 69.574557 
L 76.962278 69.574557 
z
" style="fill:#ffffff;stroke:#0000ff;"/>
     <path d="M 85.362278 72.996693 
L 89.834414 72.996693 
L 89.834414 68.524557 
L 85.362278 68.524557 
z
" style="fill:#ffffff;stroke:#0000ff;"/>
     <path d="M 93.762278 74.571693 
L 98.234414 74.571693 
L 98.234414 70.099557 
L 93.762278 70.099557 
z
" style="fill:#ffffff;stroke:#0000ff;"/>
    </g>
    <g id="text_4">
     <!-- Z40_mag_tc_mean -->
     <defs>
      <path d="M 54.890625 33.015625 
L 54.890625 0 
L 45.90625 0 
L 45.90625 32.71875 
Q 45.90625 40.484375 42.875 44.328125 
Q 39.84375 48.1875 33.796875 48.1875 
Q 26.515625 48.1875 22.3125 43.546875 
Q 18.109375 38.921875 18.109375 30.90625 
L 18.109375 0 
L 9.078125 0 
L 9.078125 54.6875 
L 18.109375 54.6875 
L 18.109375 46.1875 
Q 21.34375 51.125 25.703125 53.5625 
Q 30.078125 56 35.796875 56 
Q 45.21875 56 50.046875 50.171875 
Q 54.890625 44.34375 54.890625 33.015625 
" id="BitstreamVeraSans-Roman-6e"/>
      <path d="M 34.28125 27.484375 
Q 23.390625 27.484375 19.1875 25 
Q 14.984375 22.515625 14.984375 16.5 
Q 14.984375 11.71875 18.140625 8.90625 
Q 21.296875 6.109375 26.703125 6.109375 
Q 34.1875 6.109375 38.703125 11.40625 
Q 43.21875 16.703125 43.21875 25.484375 
L 43.21875 27.484375 
z
M 52.203125 31.203125 
L 52.203125 0 
L 43.21875 0 
L 43.21875 8.296875 
Q 40.140625 3.328125 35.546875 0.953125 
Q 30.953125 -1.421875 24.3125 -1.421875 
Q 15.921875 -1.421875 10.953125 3.296875 
Q 6 8.015625 6 15.921875 
Q 6 25.140625 12.171875 29.828125 
Q 18.359375 34.515625 30.609375 34.515625 
L 43.21875 34.515625 
L 43.21875 35.40625 
Q 43.21875 41.609375 39.140625 45 
Q 35.0625 48.390625 27.6875 48.390625 
Q 23 48.390625 18.546875 47.265625 
Q 14.109375 46.140625 10.015625 43.890625 
L 10.015625 52.203125 
Q 14.9375 54.109375 19.578125 55.046875 
Q 24.21875 56 28.609375 56 
Q 40.484375 56 46.34375 49.84375 
Q 52.203125 43.703125 52.203125 31.203125 
" id="BitstreamVeraSans-Roman-61"/>
     </defs>
     <g transform="translate(109.198346023 74.960625)scale(0.12 -0.12)">
      <use xlink:href="#BitstreamVeraSans-Roman-5a"/>
      <use x="68.505859375" xlink:href="#BitstreamVeraSans-Roman-34"/>
      <use x="132.12890625" xlink:href="#BitstreamVeraSans-Roman-30"/>
      <use x="195.751953125" xlink:href="#BitstreamVeraSans-Roman-5f"/>
      <use x="245.751953125" xlink:href="#BitstreamVeraSans-Roman-6d"/>
      <use x="343.1640625" xlink:href="#BitstreamVeraSans-Roman-61"/>
      <use x="404.443359375" xlink:href="#BitstreamVeraSans-Roman-67"/>
      <use x="467.919921875" xlink:href="#BitstreamVeraSans-Roman-5f"/>
      <use x="517.919921875" xlink:href="#BitstreamVeraSans-Roman-74"/>
      <use x="557.12890625" xlink:href="#BitstreamVeraSans-Roman-63"/>
      <use x="612.109375" xlink:href="#BitstreamVeraSans-Roman-5f"/>
      <use x="662.109375" xlink:href="#BitstreamVeraSans-Roman-6d"/>
      <use x="759.521484375" xlink:href="#BitstreamVeraSans-Roman-65"/>
      <use x="821.044921875" xlink:href="#BitstreamVeraSans-Roman-61"/>
      <use x="882.32421875" xlink:href="#BitstreamVeraSans-Roman-6e"/>
     </g>
    </g>
    <g id="PathCollection_11">
     <path d="M 76.962278 91.994193 
L 81.434414 91.994193 
L 81.434414 87.522057 
L 76.962278 87.522057 
z
" style="fill:#ffffff;stroke:#ff0000;"/>
     <path d="M 85.362278 90.944193 
L 89.834414 90.944193 
L 89.834414 86.472057 
L 85.362278 86.472057 
z
" style="fill:#ffffff;stroke:#ff0000;"/>
     <path d="M 93.762278 92.519193 
L 98.234414 92.519193 
L 98.234414 88.047057 
L 93.762278 88.047057 
z
" style="fill:#ffffff;stroke:#ff0000;"/>
    </g>
    <g id="text_5">
     <!-- Z40_hem_tc_mean -->
     <g transform="translate(109.198346023 92.908125)scale(0.12 -0.12)">
      <use xlink:href="#BitstreamVeraSans-Roman-5a"/>
      <use x="68.505859375" xlink:href="#BitstreamVeraSans-Roman-34"/>
      <use x="132.12890625" xlink:href="#BitstreamVeraSans-Roman-30"/>
      <use x="195.751953125" xlink:href="#BitstreamVeraSans-Roman-5f"/>
      <use x="245.751953125" xlink:href="#BitstreamVeraSans-Roman-68"/>
      <use x="309.130859375" xlink:href="#BitstreamVeraSans-Roman-65"/>
      <use x="370.654296875" xlink:href="#BitstreamVeraSans-Roman-6d"/>
      <use x="468.06640625" xlink:href="#BitstreamVeraSans-Roman-5f"/>
      <use x="518.06640625" xlink:href="#BitstreamVeraSans-Roman-74"/>
      <use x="557.275390625" xlink:href="#BitstreamVeraSans-Roman-63"/>
      <use x="612.255859375" xlink:href="#BitstreamVeraSans-Roman-5f"/>
      <use x="662.255859375" xlink:href="#BitstreamVeraSans-Roman-6d"/>
      <use x="759.66796875" xlink:href="#BitstreamVeraSans-Roman-65"/>
      <use x="821.19140625" xlink:href="#BitstreamVeraSans-Roman-61"/>
      <use x="882.470703125" xlink:href="#BitstreamVeraSans-Roman-6e"/>
     </g>
    </g>
   </g>
  </g>
 </g>
 <defs>
  <clipPath id="p6e1b086362">
   <rect height="253.4" width="235.43689015" x="35.4828125" y="37.1875"/>
  </clipPath>
 </defs>
</svg>
