<?xml version="1.0" encoding="utf-8" standalone="no"?>
<!DOCTYPE svg PUBLIC "-//W3C//DTD SVG 1.1//EN"
  "http://www.w3.org/Graphics/SVG/1.1/DTD/svg11.dtd">
<!-- Created with matplotlib (http://matplotlib.org/) -->
<svg height="311pt" version="1.1" viewBox="0 0 280 311" width="280pt" xmlns="http://www.w3.org/2000/svg" xmlns:xlink="http://www.w3.org/1999/xlink">
 <defs>
  <style type="text/css">
*{stroke-linecap:butt;stroke-linejoin:round;stroke-miterlimit:100000;}
  </style>
 </defs>
 <g id="figure_1">
  <g id="patch_1">
   <path d="M 0 311.465625 
L 280.465625 311.465625 
L 280.465625 0 
L 0 0 
L 0 311.465625 
z
" style="fill:none;"/>
  </g>
  <g id="axes_1">
   <g id="PathCollection_1">
    <defs>
     <path d="M 0 2.236068 
C 0.593012 2.236068 1.161816 2.000462 1.581139 1.581139 
C 2.000462 1.161816 2.236068 0.593012 2.236068 0 
C 2.236068 -0.593012 2.000462 -1.161816 1.581139 -1.581139 
C 1.161816 -2.000462 0.593012 -2.236068 0 -2.236068 
C -0.593012 -2.236068 -1.161816 -2.000462 -1.581139 -1.581139 
C -2.000462 -1.161816 -2.236068 -0.593012 -2.236068 0 
C -2.236068 0.593012 -2.000462 1.161816 -1.581139 1.581139 
C -1.161816 2.000462 -0.593012 2.236068 0 2.236068 
z
" id="C0_0_edbf0a2439"/>
    </defs>
    <g clip-path="url(#p2db4664ce4)">
     <use style="fill:none;stroke:#008000;" x="224.243042805" xlink:href="#C0_0_edbf0a2439" y="188.042167825"/>
    </g>
    <g clip-path="url(#p2db4664ce4)">
     <use style="fill:none;stroke:#008000;" x="56.3200034045" xlink:href="#C0_0_edbf0a2439" y="206.564346116"/>
    </g>
   </g>
   <g id="PathCollection_2">
    <defs>
     <path d="M 0 2.236068 
C 0.593012 2.236068 1.161816 2.000462 1.581139 1.581139 
C 2.000462 1.161816 2.236068 0.593012 2.236068 0 
C 2.236068 -0.593012 2.000462 -1.161816 1.581139 -1.581139 
C 1.161816 -2.000462 0.593012 -2.236068 0 -2.236068 
C -0.593012 -2.236068 -1.161816 -2.000462 -1.581139 -1.581139 
C -2.000462 -1.161816 -2.236068 -0.593012 -2.236068 0 
C -2.236068 0.593012 -2.000462 1.161816 -1.581139 1.581139 
C -1.161816 2.000462 -0.593012 2.236068 0 2.236068 
z
" id="mf7b13fe9ba" style="stroke:#008000;"/>
    </defs>
    <g clip-path="url(#p2db4664ce4)">
     <use style="fill:#008000;stroke:#008000;" x="89.0982437005" xlink:href="#mf7b13fe9ba" y="162.993502606"/>
     <use style="fill:#008000;stroke:#008000;" x="190.09938148" xlink:href="#mf7b13fe9ba" y="170.850845024"/>
     <use style="fill:#008000;stroke:#008000;" x="119.399238812" xlink:href="#mf7b13fe9ba" y="207.884634394"/>
     <use style="fill:#008000;stroke:#008000;" x="132.648702646" xlink:href="#mf7b13fe9ba" y="167.285742857"/>
     <use style="fill:#008000;stroke:#008000;" x="172.724863024" xlink:href="#mf7b13fe9ba" y="149.511269401"/>
    </g>
   </g>
   <g id="PathCollection_3">
    <defs>
     <path d="M 0 2.236068 
C 0.593012 2.236068 1.161816 2.000462 1.581139 1.581139 
C 2.000462 1.161816 2.236068 0.593012 2.236068 0 
C 2.236068 -0.593012 2.000462 -1.161816 1.581139 -1.581139 
C 1.161816 -2.000462 0.593012 -2.236068 0 -2.236068 
C -0.593012 -2.236068 -1.161816 -2.000462 -1.581139 -1.581139 
C -2.000462 -1.161816 -2.236068 -0.593012 -2.236068 0 
C -2.236068 0.593012 -2.000462 1.161816 -1.581139 1.581139 
C -1.161816 2.000462 -0.593012 2.236068 0 2.236068 
z
" id="C1_0_1633336004"/>
    </defs>
    <g clip-path="url(#p2db4664ce4)">
     <use style="fill:none;stroke:#0000ff;" x="113.627371623" xlink:href="#C1_0_1633336004" y="211.326774109"/>
    </g>
    <g clip-path="url(#p2db4664ce4)">
     <use style="fill:none;stroke:#0000ff;" x="94.2919640675" xlink:href="#C1_0_1633336004" y="225.671799178"/>
    </g>
    <g clip-path="url(#p2db4664ce4)">
     <use style="fill:none;stroke:#0000ff;" x="84.7298179096" xlink:href="#C1_0_1633336004" y="206.786399743"/>
    </g>
    <g clip-path="url(#p2db4664ce4)">
     <use style="fill:none;stroke:#0000ff;" x="97.858159431" xlink:href="#C1_0_1633336004" y="201.170695738"/>
    </g>
    <g clip-path="url(#p2db4664ce4)">
     <use style="fill:none;stroke:#0000ff;" x="104.59214336" xlink:href="#C1_0_1633336004" y="203.06157246"/>
    </g>
   </g>
   <g id="PathCollection_4">
    <path clip-path="url(#p2db4664ce4)" d="M 132.627717 247.903246 
L 130.391649 252.375382 
L 134.863785 252.375382 
L 132.627717 247.903246 
z
" style="fill:none;stroke:#0000ff;"/>
   </g>
   <g id="PathCollection_5">
    <path clip-path="url(#p2db4664ce4)" d="M 146.455248 230.367421 
L 144.21918 234.839557 
L 148.691316 234.839557 
L 146.455248 230.367421 
z
" style="fill:none;stroke:#0000ff;"/>
   </g>
   <g id="PathCollection_6">
    <defs>
     <path d="M 0 2.236068 
C 0.593012 2.236068 1.161816 2.000462 1.581139 1.581139 
C 2.000462 1.161816 2.236068 0.593012 2.236068 0 
C 2.236068 -0.593012 2.000462 -1.161816 1.581139 -1.581139 
C 1.161816 -2.000462 0.593012 -2.236068 0 -2.236068 
C -0.593012 -2.236068 -1.161816 -2.000462 -1.581139 -1.581139 
C -2.000462 -1.161816 -2.236068 -0.593012 -2.236068 0 
C -2.236068 0.593012 -2.000462 1.161816 -1.581139 1.581139 
C -1.161816 2.000462 -0.593012 2.236068 0 2.236068 
z
" id="me3fdbbf1c5" style="stroke:#ff0000;"/>
    </defs>
    <g clip-path="url(#p2db4664ce4)">
     <use style="fill:#ff0000;stroke:#ff0000;" x="167.422194049" xlink:href="#me3fdbbf1c5" y="246.116056306"/>
     <use style="fill:#ff0000;stroke:#ff0000;" x="180.492532062" xlink:href="#me3fdbbf1c5" y="247.777463103"/>
     <use style="fill:#ff0000;stroke:#ff0000;" x="163.439141402" xlink:href="#me3fdbbf1c5" y="241.555713872"/>
     <use style="fill:#ff0000;stroke:#ff0000;" x="141.371651879" xlink:href="#me3fdbbf1c5" y="260.112680509"/>
     <use style="fill:#ff0000;stroke:#ff0000;" x="165.295702099" xlink:href="#me3fdbbf1c5" y="262.266949682"/>
    </g>
   </g>
   <g id="PathCollection_7">
    <defs>
     <path d="M -2.236068 2.236068 
L 2.236068 2.236068 
L 2.236068 -2.236068 
L -2.236068 -2.236068 
z
" id="mfa8aaa6446" style="stroke:#0000ff;"/>
    </defs>
    <g clip-path="url(#p2db4664ce4)">
     <use style="fill:#ffffff;stroke:#0000ff;" x="98.6911902781" xlink:href="#mfa8aaa6446" y="209.900508807"/>
    </g>
   </g>
   <g id="PathCollection_8">
    <defs>
     <path d="M -2.236068 2.236068 
L 2.236068 2.236068 
L 2.236068 -2.236068 
L -2.236068 -2.236068 
z
" id="mf072247db8" style="stroke:#ff0000;"/>
    </defs>
    <g clip-path="url(#p2db4664ce4)">
     <use style="fill:#ff0000;stroke:#ff0000;" x="163.954907837" xlink:href="#mf072247db8" y="252.386150326"/>
    </g>
   </g>
   <g id="line2d_1">
    <path clip-path="url(#p2db4664ce4)" d="M 153.201258 51.913435 
L 159.068788 52.066892 
L 164.920237 52.526841 
L 170.739564 53.292022 
L 176.51082 54.360337 
L 182.218187 55.728859 
L 187.84602 57.393836 
L 193.378894 59.350705 
L 198.801644 61.594102 
L 204.099406 64.117878 
L 209.25766 66.915115 
L 214.262267 69.978148 
L 219.099511 73.298579 
L 223.756132 76.867308 
L 228.219367 80.674553 
L 232.476982 84.70988 
L 236.517308 88.962226 
L 240.329271 93.419938 
L 243.902422 98.070796 
L 247.226967 102.902053 
L 250.293795 107.900468 
L 253.094498 113.052338 
L 255.621401 118.343545 
L 257.867578 123.759584 
L 259.826871 129.285611 
L 261.493911 134.90648 
L 262.864129 140.606783 
L 263.933768 146.370897 
L 264.699897 152.183023 
L 265.160416 158.02723 
L 265.314062 163.8875 
L 265.160416 169.74777 
L 264.699897 175.591977 
L 263.933768 181.404103 
L 262.864129 187.168217 
L 261.493911 192.86852 
L 259.826871 198.489389 
L 257.867578 204.015416 
L 255.621401 209.431455 
L 253.094498 214.722662 
L 250.293795 219.874532 
L 247.226967 224.872947 
L 243.902422 229.704204 
L 240.329271 234.355062 
L 236.517308 238.812774 
L 232.476982 243.06512 
L 228.219367 247.100447 
L 223.756132 250.907692 
L 219.099511 254.476421 
L 214.262267 257.796852 
L 209.25766 260.859885 
L 204.099406 263.657122 
L 198.801644 266.180898 
L 193.378894 268.424295 
L 187.84602 270.381164 
L 182.218187 272.046141 
L 176.51082 273.414663 
L 170.739564 274.482978 
L 164.920237 275.248159 
L 159.068788 275.708108 
L 153.201258 275.861565 
L 147.333727 275.708108 
L 141.482278 275.248159 
L 135.662951 274.482978 
L 129.891695 273.414663 
L 124.184329 272.046141 
L 118.556496 270.381164 
L 113.023622 268.424295 
L 107.600872 266.180898 
L 102.303109 263.657122 
L 97.144855 260.859885 
L 92.140248 257.796852 
L 87.303004 254.476421 
L 82.646383 250.907692 
L 78.183149 247.100447 
L 73.925533 243.06512 
L 69.885207 238.812774 
L 66.073244 234.355062 
L 62.500093 229.704204 
L 59.175548 224.872947 
L 56.108721 219.874532 
L 53.308017 214.722662 
L 50.781114 209.431455 
L 48.534937 204.015416 
L 46.575644 198.489389 
L 44.908604 192.86852 
L 43.538387 187.168217 
L 42.468747 181.404103 
L 41.702618 175.591977 
L 41.242099 169.74777 
L 41.088453 163.8875 
L 41.242099 158.02723 
L 41.702618 152.183023 
L 42.468747 146.370897 
L 43.538387 140.606783 
L 44.908604 134.90648 
L 46.575644 129.285611 
L 48.534937 123.759584 
L 50.781114 118.343545 
L 53.308017 113.052338 
L 56.108721 107.900468 
L 59.175548 102.902053 
L 62.500093 98.070796 
L 66.073244 93.419938 
L 69.885207 88.962226 
L 73.925533 84.70988 
L 78.183149 80.674553 
L 82.646383 76.867308 
L 87.303004 73.298579 
L 92.140248 69.978148 
L 97.144855 66.915115 
L 102.303109 64.117878 
L 107.600872 61.594102 
L 113.023622 59.350705 
L 118.556496 57.393836 
L 124.184329 55.728859 
L 129.891695 54.360337 
L 135.662951 53.292022 
L 141.482278 52.526841 
L 147.333727 52.066892 
L 153.201258 51.913435 
L 153.201258 51.913435 
" style="fill:none;stroke:#000000;stroke-linecap:square;"/>
   </g>
   <g id="line2d_2">
    <defs>
     <path d="M -3 0 
L 3 0 
M 0 3 
L 0 -3 
" id="mc6e52d349b" style="stroke:#000000;stroke-width:0.5;"/>
    </defs>
    <g clip-path="url(#p2db4664ce4)">
     <use style="stroke:#000000;stroke-width:0.5;" x="153.201257622" xlink:href="#mc6e52d349b" y="62.0987132669"/>
     <use style="stroke:#000000;stroke-width:0.5;" x="153.201257622" xlink:href="#mc6e52d349b" y="73.0586652884"/>
     <use style="stroke:#000000;stroke-width:0.5;" x="153.201257622" xlink:href="#mc6e52d349b" y="84.709879586"/>
     <use style="stroke:#000000;stroke-width:0.5;" x="153.201257622" xlink:href="#mc6e52d349b" y="96.9636833838"/>
     <use style="stroke:#000000;stroke-width:0.5;" x="153.201257622" xlink:href="#mc6e52d349b" y="109.726817836"/>
     <use style="stroke:#000000;stroke-width:0.5;" x="153.201257622" xlink:href="#mc6e52d349b" y="122.902147782"/>
     <use style="stroke:#000000;stroke-width:0.5;" x="153.201257622" xlink:href="#mc6e52d349b" y="136.389401006"/>
     <use style="stroke:#000000;stroke-width:0.5;" x="153.201257622" xlink:href="#mc6e52d349b" y="150.085931368"/>
     <use style="stroke:#000000;stroke-width:0.5;" x="153.201257622" xlink:href="#mc6e52d349b" y="163.8875"/>
    </g>
   </g>
   <g id="line2d_3">
    <g clip-path="url(#p2db4664ce4)">
     <use style="stroke:#000000;stroke-width:0.5;" x="255.116164649" xlink:href="#mc6e52d349b" y="163.8875"/>
     <use style="stroke:#000000;stroke-width:0.5;" x="244.142632818" xlink:href="#mc6e52d349b" y="163.8875"/>
     <use style="stroke:#000000;stroke-width:0.5;" x="232.476982209" xlink:href="#mc6e52d349b" y="163.8875"/>
     <use style="stroke:#000000;stroke-width:0.5;" x="220.207995468" xlink:href="#mc6e52d349b" y="163.8875"/>
     <use style="stroke:#000000;stroke-width:0.5;" x="207.429046993" xlink:href="#mc6e52d349b" y="163.8875"/>
     <use style="stroke:#000000;stroke-width:0.5;" x="194.237392297" xlink:href="#mc6e52d349b" y="163.8875"/>
     <use style="stroke:#000000;stroke-width:0.5;" x="180.733427837" xlink:href="#mc6e52d349b" y="163.8875"/>
     <use style="stroke:#000000;stroke-width:0.5;" x="167.019926938" xlink:href="#mc6e52d349b" y="163.8875"/>
    </g>
   </g>
   <g id="line2d_4">
    <g clip-path="url(#p2db4664ce4)">
     <use style="stroke:#000000;stroke-width:0.5;" x="153.201257622" xlink:href="#mc6e52d349b" y="265.676286733"/>
     <use style="stroke:#000000;stroke-width:0.5;" x="153.201257622" xlink:href="#mc6e52d349b" y="254.716334712"/>
     <use style="stroke:#000000;stroke-width:0.5;" x="153.201257622" xlink:href="#mc6e52d349b" y="243.065120414"/>
     <use style="stroke:#000000;stroke-width:0.5;" x="153.201257622" xlink:href="#mc6e52d349b" y="230.811316616"/>
     <use style="stroke:#000000;stroke-width:0.5;" x="153.201257622" xlink:href="#mc6e52d349b" y="218.048182164"/>
     <use style="stroke:#000000;stroke-width:0.5;" x="153.201257622" xlink:href="#mc6e52d349b" y="204.872852218"/>
     <use style="stroke:#000000;stroke-width:0.5;" x="153.201257622" xlink:href="#mc6e52d349b" y="191.385598994"/>
     <use style="stroke:#000000;stroke-width:0.5;" x="153.201257622" xlink:href="#mc6e52d349b" y="177.689068632"/>
    </g>
   </g>
   <g id="line2d_5">
    <g clip-path="url(#p2db4664ce4)">
     <use style="stroke:#000000;stroke-width:0.5;" x="51.2863505949" xlink:href="#mc6e52d349b" y="163.8875"/>
     <use style="stroke:#000000;stroke-width:0.5;" x="62.2598824263" xlink:href="#mc6e52d349b" y="163.8875"/>
     <use style="stroke:#000000;stroke-width:0.5;" x="73.9255330348" xlink:href="#mc6e52d349b" y="163.8875"/>
     <use style="stroke:#000000;stroke-width:0.5;" x="86.1945197755" xlink:href="#mc6e52d349b" y="163.8875"/>
     <use style="stroke:#000000;stroke-width:0.5;" x="98.9734682509" xlink:href="#mc6e52d349b" y="163.8875"/>
     <use style="stroke:#000000;stroke-width:0.5;" x="112.165122947" xlink:href="#mc6e52d349b" y="163.8875"/>
     <use style="stroke:#000000;stroke-width:0.5;" x="125.669087406" xlink:href="#mc6e52d349b" y="163.8875"/>
     <use style="stroke:#000000;stroke-width:0.5;" x="139.382588305" xlink:href="#mc6e52d349b" y="163.8875"/>
    </g>
   </g>
   <g id="line2d_6">
    <path clip-path="url(#p2db4664ce4)" d="M 153.201258 51.913435 
L 153.201258 52.894845 
L 153.201258 53.884706 
L 153.201258 54.882945 
" style="fill:none;stroke:#000000;stroke-linecap:square;"/>
   </g>
   <g id="line2d_7">
    <path clip-path="url(#p2db4664ce4)" d="M 172.669442 53.614573 
L 172.498811 54.581072 
L 172.32671 55.555896 
L 172.153153 56.53897 
" style="fill:none;stroke:#000000;stroke-linecap:square;"/>
   </g>
   <g id="line2d_8">
    <path clip-path="url(#p2db4664ce4)" d="M 191.546095 58.666298 
L 191.210018 59.588521 
L 190.871045 60.518687 
L 190.529205 61.456724 
" style="fill:none;stroke:#000000;stroke-linecap:square;"/>
   </g>
   <g id="line2d_9">
    <path clip-path="url(#p2db4664ce4)" d="M 209.25766 66.915115 
L 208.766347 67.765041 
L 208.270803 68.622286 
L 207.771065 69.486787 
" style="fill:none;stroke:#000000;stroke-linecap:square;"/>
   </g>
   <g id="line2d_10">
    <path clip-path="url(#p2db4664ce4)" d="M 225.265979 78.11039 
L 224.63436 78.862193 
L 223.997301 79.620471 
L 223.35485 80.385167 
" style="fill:none;stroke:#000000;stroke-linecap:square;"/>
   </g>
   <g id="line2d_11">
    <path clip-path="url(#p2db4664ce4)" d="M 239.084649 91.911959 
L 238.331914 92.542796 
L 237.572696 93.179067 
L 236.807054 93.820723 
" style="fill:none;stroke:#000000;stroke-linecap:square;"/>
   </g>
   <g id="line2d_12">
    <path clip-path="url(#p2db4664ce4)" d="M 250.293795 107.900468 
L 249.442816 108.391172 
L 248.584509 108.886103 
L 247.718937 109.385223 
" style="fill:none;stroke:#000000;stroke-linecap:square;"/>
   </g>
   <g id="line2d_13">
    <path clip-path="url(#p2db4664ce4)" d="M 258.552833 125.590114 
L 257.629467 125.925776 
L 256.698149 126.264329 
L 255.758949 126.605747 
" style="fill:none;stroke:#000000;stroke-linecap:square;"/>
   </g>
   <g id="line2d_14">
    <path clip-path="url(#p2db4664ce4)" d="M 263.610817 144.443408 
L 262.64312 144.613828 
L 261.667089 144.785715 
L 260.682797 144.959058 
" style="fill:none;stroke:#000000;stroke-linecap:square;"/>
   </g>
   <g id="line2d_15">
    <path clip-path="url(#p2db4664ce4)" d="M 265.314062 163.8875 
L 264.331437 163.8875 
L 263.340349 163.8875 
L 262.340873 163.8875 
" style="fill:none;stroke:#000000;stroke-linecap:square;"/>
   </g>
   <g id="line2d_16">
    <path clip-path="url(#p2db4664ce4)" d="M 263.610817 183.331592 
L 262.64312 183.161172 
L 261.667089 182.989285 
L 260.682797 182.815942 
" style="fill:none;stroke:#000000;stroke-linecap:square;"/>
   </g>
   <g id="line2d_17">
    <path clip-path="url(#p2db4664ce4)" d="M 258.552833 202.184886 
L 257.629467 201.849224 
L 256.698149 201.510671 
L 255.758949 201.169253 
" style="fill:none;stroke:#000000;stroke-linecap:square;"/>
   </g>
   <g id="line2d_18">
    <path clip-path="url(#p2db4664ce4)" d="M 250.293795 219.874532 
L 249.442816 219.383828 
L 248.584509 218.888897 
L 247.718937 218.389777 
" style="fill:none;stroke:#000000;stroke-linecap:square;"/>
   </g>
   <g id="line2d_19">
    <path clip-path="url(#p2db4664ce4)" d="M 239.084649 235.863041 
L 238.331914 235.232204 
L 237.572696 234.595933 
L 236.807054 233.954277 
" style="fill:none;stroke:#000000;stroke-linecap:square;"/>
   </g>
   <g id="line2d_20">
    <path clip-path="url(#p2db4664ce4)" d="M 225.265979 249.66461 
L 224.63436 248.912807 
L 223.997301 248.154529 
L 223.35485 247.389833 
" style="fill:none;stroke:#000000;stroke-linecap:square;"/>
   </g>
   <g id="line2d_21">
    <path clip-path="url(#p2db4664ce4)" d="M 209.25766 260.859885 
L 208.766347 260.009959 
L 208.270803 259.152714 
L 207.771065 258.288213 
" style="fill:none;stroke:#000000;stroke-linecap:square;"/>
   </g>
   <g id="line2d_22">
    <path clip-path="url(#p2db4664ce4)" d="M 191.546095 269.108702 
L 191.210018 268.186479 
L 190.871045 267.256313 
L 190.529205 266.318276 
" style="fill:none;stroke:#000000;stroke-linecap:square;"/>
   </g>
   <g id="line2d_23">
    <path clip-path="url(#p2db4664ce4)" d="M 172.669442 274.160427 
L 172.498811 273.193928 
L 172.32671 272.219104 
L 172.153153 271.23603 
" style="fill:none;stroke:#000000;stroke-linecap:square;"/>
   </g>
   <g id="line2d_24">
    <path clip-path="url(#p2db4664ce4)" d="M 153.201258 275.861565 
L 153.201258 274.880155 
L 153.201258 273.890294 
L 153.201258 272.892055 
" style="fill:none;stroke:#000000;stroke-linecap:square;"/>
   </g>
   <g id="line2d_25">
    <path clip-path="url(#p2db4664ce4)" d="M 133.733073 274.160427 
L 133.903704 273.193928 
L 134.075805 272.219104 
L 134.249362 271.23603 
" style="fill:none;stroke:#000000;stroke-linecap:square;"/>
   </g>
   <g id="line2d_26">
    <path clip-path="url(#p2db4664ce4)" d="M 114.85642 269.108702 
L 115.192498 268.186479 
L 115.53147 267.256313 
L 115.873311 266.318276 
" style="fill:none;stroke:#000000;stroke-linecap:square;"/>
   </g>
   <g id="line2d_27">
    <path clip-path="url(#p2db4664ce4)" d="M 97.144855 260.859885 
L 97.636168 260.009959 
L 98.131712 259.152714 
L 98.63145 258.288213 
" style="fill:none;stroke:#000000;stroke-linecap:square;"/>
   </g>
   <g id="line2d_28">
    <path clip-path="url(#p2db4664ce4)" d="M 81.136536 249.66461 
L 81.768155 248.912807 
L 82.405214 248.154529 
L 83.047665 247.389833 
" style="fill:none;stroke:#000000;stroke-linecap:square;"/>
   </g>
   <g id="line2d_29">
    <path clip-path="url(#p2db4664ce4)" d="M 67.317866 235.863041 
L 68.070601 235.232204 
L 68.829819 234.595933 
L 69.595462 233.954277 
" style="fill:none;stroke:#000000;stroke-linecap:square;"/>
   </g>
   <g id="line2d_30">
    <path clip-path="url(#p2db4664ce4)" d="M 56.108721 219.874532 
L 56.959699 219.383828 
L 57.818007 218.888897 
L 58.683578 218.389777 
" style="fill:none;stroke:#000000;stroke-linecap:square;"/>
   </g>
   <g id="line2d_31">
    <path clip-path="url(#p2db4664ce4)" d="M 47.849682 202.184886 
L 48.773048 201.849224 
L 49.704366 201.510671 
L 50.643566 201.169253 
" style="fill:none;stroke:#000000;stroke-linecap:square;"/>
   </g>
   <g id="line2d_32">
    <path clip-path="url(#p2db4664ce4)" d="M 42.791698 183.331592 
L 43.759395 183.161172 
L 44.735427 182.989285 
L 45.719718 182.815942 
" style="fill:none;stroke:#000000;stroke-linecap:square;"/>
   </g>
   <g id="line2d_33">
    <path clip-path="url(#p2db4664ce4)" d="M 41.088453 163.8875 
L 42.071078 163.8875 
L 43.062166 163.8875 
L 44.061642 163.8875 
" style="fill:none;stroke:#000000;stroke-linecap:square;"/>
   </g>
   <g id="line2d_34">
    <path clip-path="url(#p2db4664ce4)" d="M 42.791698 144.443408 
L 43.759395 144.613828 
L 44.735427 144.785715 
L 45.719718 144.959058 
" style="fill:none;stroke:#000000;stroke-linecap:square;"/>
   </g>
   <g id="line2d_35">
    <path clip-path="url(#p2db4664ce4)" d="M 47.849682 125.590114 
L 48.773048 125.925776 
L 49.704366 126.264329 
L 50.643566 126.605747 
" style="fill:none;stroke:#000000;stroke-linecap:square;"/>
   </g>
   <g id="line2d_36">
    <path clip-path="url(#p2db4664ce4)" d="M 56.108721 107.900468 
L 56.959699 108.391172 
L 57.818007 108.886103 
L 58.683578 109.385223 
" style="fill:none;stroke:#000000;stroke-linecap:square;"/>
   </g>
   <g id="line2d_37">
    <path clip-path="url(#p2db4664ce4)" d="M 67.317866 91.911959 
L 68.070601 92.542796 
L 68.829819 93.179067 
L 69.595462 93.820723 
" style="fill:none;stroke:#000000;stroke-linecap:square;"/>
   </g>
   <g id="line2d_38">
    <path clip-path="url(#p2db4664ce4)" d="M 81.136536 78.11039 
L 81.768155 78.862193 
L 82.405214 79.620471 
L 83.047665 80.385167 
" style="fill:none;stroke:#000000;stroke-linecap:square;"/>
   </g>
   <g id="line2d_39">
    <path clip-path="url(#p2db4664ce4)" d="M 97.144855 66.915115 
L 97.636168 67.765041 
L 98.131712 68.622286 
L 98.63145 69.486787 
" style="fill:none;stroke:#000000;stroke-linecap:square;"/>
   </g>
   <g id="line2d_40">
    <path clip-path="url(#p2db4664ce4)" d="M 114.85642 58.666298 
L 115.192498 59.588521 
L 115.53147 60.518687 
L 115.873311 61.456724 
" style="fill:none;stroke:#000000;stroke-linecap:square;"/>
   </g>
   <g id="line2d_41">
    <path clip-path="url(#p2db4664ce4)" d="M 133.733073 53.614573 
L 133.903704 54.581072 
L 134.075805 55.555896 
L 134.249362 56.53897 
" style="fill:none;stroke:#000000;stroke-linecap:square;"/>
   </g>
   <g id="line2d_42">
    <path clip-path="url(#p2db4664ce4)" d="M 89.059629 197.043547 
L 88.436193 197.550845 
L 87.852213 198.107934 
L 87.310366 198.71302 
L 86.813209 199.364079 
L 86.363163 200.058852 
L 85.962497 200.794853 
L 85.61331 201.569372 
L 85.317517 202.379481 
L 85.076831 203.22204 
L 84.892746 204.09371 
L 84.766527 204.990964 
L 84.699187 205.910099 
L 84.691481 206.847256 
L 84.743891 207.798434 
L 84.856613 208.759513 
L 85.029554 209.726275 
L 85.262319 210.694428 
L 85.55421 211.659629 
L 85.904223 212.617512 
L 86.311048 213.563717 
L 86.773073 214.493912 
L 87.288388 215.403828 
L 87.854796 216.289282 
L 88.469822 217.146208 
L 89.130731 217.970679 
L 89.834536 218.75894 
L 90.578028 219.507425 
L 91.357787 220.212785 
L 92.170211 220.871906 
L 93.011536 221.481926 
L 93.877866 222.040254 
L 94.765193 222.54458 
L 95.66943 222.992887 
L 96.586435 223.38346 
L 97.512038 223.714886 
L 98.442065 223.986062 
L 99.372369 224.196193 
L 100.298849 224.344785 
L 101.217476 224.431646 
L 102.124313 224.456876 
L 103.015537 224.420858 
L 103.887454 224.324247 
L 104.736518 224.167959 
L 105.559346 223.953159 
L 106.352726 223.681242 
L 107.113634 223.353826 
L 107.839236 222.972729 
L 108.526901 222.539961 
L 109.174203 222.057701 
L 109.778924 221.528287 
L 110.339059 220.9542 
L 110.852817 220.338046 
L 111.318617 219.682545 
L 111.73509 218.990515 
L 112.101078 218.264859 
L 112.415627 217.508553 
L 112.677985 216.724633 
L 112.887601 215.916182 
L 113.044114 215.086324 
L 113.147353 214.238207 
L 113.197331 213.374999 
L 113.194238 212.499875 
L 113.138433 211.616012 
L 113.030447 210.726579 
L 112.870965 209.834728 
L 112.660831 208.943589 
L 112.401037 208.056266 
L 112.092717 207.175823 
L 111.737146 206.305286 
L 111.335729 205.447633 
L 110.890001 204.605789 
L 110.401617 203.782621 
L 109.872353 202.980931 
L 109.304096 202.203456 
L 108.698841 201.452856 
L 108.058689 200.731714 
L 107.385839 200.042527 
L 106.682585 199.387706 
L 105.951314 198.769564 
L 105.194496 198.190316 
L 104.414687 197.652072 
L 103.614518 197.156828 
L 102.796695 196.706468 
L 101.963992 196.302747 
L 101.119247 195.947297 
L 100.265356 195.641609 
L 99.405271 195.387037 
L 98.541988 195.184782 
L 97.67855 195.035893 
L 96.818029 194.941254 
L 95.963531 194.901582 
L 95.118181 194.917416 
L 94.285115 194.989113 
L 93.467477 195.116839 
L 92.668403 195.300563 
L 91.891015 195.540053 
L 91.13841 195.834865 
L 90.413648 196.184341 
L 89.719738 196.587602 
L 89.059629 197.043547 
" style="fill:none;stroke:#0000ff;stroke-linecap:square;"/>
   </g>
   <g id="line2d_43">
    <path clip-path="url(#p2db4664ce4)" d="M 145.697025 253.186876 
L 145.752796 253.965484 
L 145.880653 254.740192 
L 146.08098 255.50785 
L 146.353866 256.26524 
L 146.699093 257.009088 
L 147.116119 257.73608 
L 147.604068 258.442878 
L 148.161718 259.126139 
L 148.787488 259.782534 
L 149.479437 260.408771 
L 150.235253 261.001616 
L 151.052256 261.557923 
L 151.927398 262.074657 
L 152.857268 262.548918 
L 153.838104 262.977976 
L 154.865802 263.359292 
L 155.935939 263.690545 
L 157.04379 263.969662 
L 158.184358 264.194838 
L 159.352402 264.364563 
L 160.542471 264.477635 
L 161.748943 264.533183 
L 162.96606 264.530677 
L 164.187976 264.469939 
L 165.408799 264.351145 
L 166.622631 264.174831 
L 167.823622 263.941885 
L 169.006007 263.653544 
L 170.164151 263.311377 
L 171.292593 262.917275 
L 172.386081 262.473427 
L 173.439609 261.9823 
L 174.448452 261.446616 
L 175.408189 260.869319 
L 176.31473 260.253552 
L 177.164334 259.602623 
L 177.953627 258.919979 
L 178.679607 258.209171 
L 179.339659 257.473828 
L 179.93155 256.717625 
L 180.45343 255.944259 
L 180.90383 255.15742 
L 181.281653 254.360769 
L 181.586161 253.557916 
L 181.816969 252.752399 
L 181.974025 251.947668 
L 182.057597 251.147072 
L 182.068257 250.353839 
L 182.006863 249.571075 
L 181.87454 248.801746 
L 181.672665 248.048679 
L 181.402847 247.31455 
L 181.066909 246.601888 
L 180.666875 245.913066 
L 180.204947 245.250306 
L 179.683494 244.615673 
L 179.105037 244.011084 
L 178.472232 243.438303 
L 177.787859 242.898948 
L 177.054807 242.394491 
L 176.276064 241.926265 
L 175.454706 241.495464 
L 174.593888 241.103149 
L 173.696829 240.750251 
L 172.766812 240.437577 
L 171.807168 240.16581 
L 170.821271 239.935516 
L 169.812535 239.747145 
L 168.784402 239.601037 
L 167.740338 239.497422 
L 166.683828 239.436425 
L 165.61837 239.418066 
L 164.547468 239.442266 
L 163.474632 239.508845 
L 162.403366 239.617525 
L 161.337171 239.76793 
L 160.279533 239.959589 
L 159.233924 240.191934 
L 158.203792 240.464302 
L 157.192561 240.775934 
L 156.203621 241.125972 
L 155.240327 241.513464 
L 154.305989 241.937358 
L 153.403867 242.396501 
L 152.537168 242.889642 
L 151.709033 243.415424 
L 150.922534 243.972388 
L 150.180663 244.558967 
L 149.486325 245.173488 
L 148.842327 245.814167 
L 148.251371 246.479109 
L 147.716039 247.166307 
L 147.238783 247.87364 
L 146.821916 248.598873 
L 146.467593 249.33966 
L 146.177803 250.093537 
L 145.954352 250.857933 
L 145.798847 251.630163 
L 145.712683 252.407441 
L 145.697025 253.186876 
" style="fill:none;stroke:#ff0000;stroke-linecap:square;"/>
   </g>
   <g id="legend_1">
    <g id="patch_2">
     <path d="M 70.798346 100.5375 
L 227.499596 100.5375 
L 227.499596 7.2 
L 70.798346 7.2 
z
" style="fill:#ffffff;stroke:#000000;stroke-linejoin:miter;"/>
    </g>
    <g id="PathCollection_9">
     <path d="M 79.198346 20.204193 
C 79.791358 20.204193 80.360162 19.968587 80.779485 19.549264 
C 81.198808 19.129941 81.434414 18.561137 81.434414 17.968125 
C 81.434414 17.375113 81.198808 16.806309 80.779485 16.386986 
C 80.360162 15.967663 79.791358 15.732057 79.198346 15.732057 
C 78.605334 15.732057 78.03653 15.967663 77.617207 16.386986 
C 77.197884 16.806309 76.962278 17.375113 76.962278 17.968125 
C 76.962278 18.561137 77.197884 19.129941 77.617207 19.549264 
C 78.03653 19.968587 78.605334 20.204193 79.198346 20.204193 
L 79.198346 20.204193 
z
" style="fill:none;stroke:#008000;"/>
     <path d="M 87.598346 19.154193 
C 88.191358 19.154193 88.760162 18.918587 89.179485 18.499264 
C 89.598808 18.079941 89.834414 17.511137 89.834414 16.918125 
C 89.834414 16.325113 89.598808 15.756309 89.179485 15.336986 
C 88.760162 14.917663 88.191358 14.682057 87.598346 14.682057 
C 87.005334 14.682057 86.43653 14.917663 86.017207 15.336986 
C 85.597884 15.756309 85.362278 16.325113 85.362278 16.918125 
C 85.362278 17.511137 85.597884 18.079941 86.017207 18.499264 
C 86.43653 18.918587 87.005334 19.154193 87.598346 19.154193 
L 87.598346 19.154193 
z
" style="fill:none;stroke:#008000;"/>
     <path d="M 95.998346 20.729193 
C 96.591358 20.729193 97.160162 20.493587 97.579485 20.074264 
C 97.998808 19.654941 98.234414 19.086137 98.234414 18.493125 
C 98.234414 17.900113 97.998808 17.331309 97.579485 16.911986 
C 97.160162 16.492663 96.591358 16.257057 95.998346 16.257057 
C 95.405334 16.257057 94.83653 16.492663 94.417207 16.911986 
C 93.997884 17.331309 93.762278 17.900113 93.762278 18.493125 
C 93.762278 19.086137 93.997884 19.654941 94.417207 20.074264 
C 94.83653 20.493587 95.405334 20.729193 95.998346 20.729193 
L 95.998346 20.729193 
z
" style="fill:none;stroke:#008000;"/>
    </g>
    <g id="text_1">
     <!-- Z51_low_geo -->
     <defs>
      <path d="M 5.609375 72.90625 
L 62.890625 72.90625 
L 62.890625 65.375 
L 16.796875 8.296875 
L 64.015625 8.296875 
L 64.015625 0 
L 4.5 0 
L 4.5 7.515625 
L 50.59375 64.59375 
L 5.609375 64.59375 
z
" id="BitstreamVeraSans-Roman-5a"/>
      <path d="M 12.40625 8.296875 
L 28.515625 8.296875 
L 28.515625 63.921875 
L 10.984375 60.40625 
L 10.984375 69.390625 
L 28.421875 72.90625 
L 38.28125 72.90625 
L 38.28125 8.296875 
L 54.390625 8.296875 
L 54.390625 0 
L 12.40625 0 
z
" id="BitstreamVeraSans-Roman-31"/>
      <path d="M 50.984375 -16.609375 
L 50.984375 -23.578125 
L -0.984375 -23.578125 
L -0.984375 -16.609375 
z
" id="BitstreamVeraSans-Roman-5f"/>
      <path d="M 10.796875 72.90625 
L 49.515625 72.90625 
L 49.515625 64.59375 
L 19.828125 64.59375 
L 19.828125 46.734375 
Q 21.96875 47.46875 24.109375 47.828125 
Q 26.265625 48.1875 28.421875 48.1875 
Q 40.625 48.1875 47.75 41.5 
Q 54.890625 34.8125 54.890625 23.390625 
Q 54.890625 11.625 47.5625 5.09375 
Q 40.234375 -1.421875 26.90625 -1.421875 
Q 22.3125 -1.421875 17.546875 -0.640625 
Q 12.796875 0.140625 7.71875 1.703125 
L 7.71875 11.625 
Q 12.109375 9.234375 16.796875 8.0625 
Q 21.484375 6.890625 26.703125 6.890625 
Q 35.15625 6.890625 40.078125 11.328125 
Q 45.015625 15.765625 45.015625 23.390625 
Q 45.015625 31 40.078125 35.4375 
Q 35.15625 39.890625 26.703125 39.890625 
Q 22.75 39.890625 18.8125 39.015625 
Q 14.890625 38.140625 10.796875 36.28125 
z
" id="BitstreamVeraSans-Roman-35"/>
      <path d="M 30.609375 48.390625 
Q 23.390625 48.390625 19.1875 42.75 
Q 14.984375 37.109375 14.984375 27.296875 
Q 14.984375 17.484375 19.15625 11.84375 
Q 23.34375 6.203125 30.609375 6.203125 
Q 37.796875 6.203125 41.984375 11.859375 
Q 46.1875 17.53125 46.1875 27.296875 
Q 46.1875 37.015625 41.984375 42.703125 
Q 37.796875 48.390625 30.609375 48.390625 
M 30.609375 56 
Q 42.328125 56 49.015625 48.375 
Q 55.71875 40.765625 55.71875 27.296875 
Q 55.71875 13.875 49.015625 6.21875 
Q 42.328125 -1.421875 30.609375 -1.421875 
Q 18.84375 -1.421875 12.171875 6.21875 
Q 5.515625 13.875 5.515625 27.296875 
Q 5.515625 40.765625 12.171875 48.375 
Q 18.84375 56 30.609375 56 
" id="BitstreamVeraSans-Roman-6f"/>
      <path d="M 9.421875 75.984375 
L 18.40625 75.984375 
L 18.40625 0 
L 9.421875 0 
z
" id="BitstreamVeraSans-Roman-6c"/>
      <path d="M 56.203125 29.59375 
L 56.203125 25.203125 
L 14.890625 25.203125 
Q 15.484375 15.921875 20.484375 11.0625 
Q 25.484375 6.203125 34.421875 6.203125 
Q 39.59375 6.203125 44.453125 7.46875 
Q 49.3125 8.734375 54.109375 11.28125 
L 54.109375 2.78125 
Q 49.265625 0.734375 44.1875 -0.34375 
Q 39.109375 -1.421875 33.890625 -1.421875 
Q 20.796875 -1.421875 13.15625 6.1875 
Q 5.515625 13.8125 5.515625 26.8125 
Q 5.515625 40.234375 12.765625 48.109375 
Q 20.015625 56 32.328125 56 
Q 43.359375 56 49.78125 48.890625 
Q 56.203125 41.796875 56.203125 29.59375 
M 47.21875 32.234375 
Q 47.125 39.59375 43.09375 43.984375 
Q 39.0625 48.390625 32.421875 48.390625 
Q 24.90625 48.390625 20.390625 44.140625 
Q 15.875 39.890625 15.1875 32.171875 
z
" id="BitstreamVeraSans-Roman-65"/>
      <path d="M 4.203125 54.6875 
L 13.1875 54.6875 
L 24.421875 12.015625 
L 35.59375 54.6875 
L 46.1875 54.6875 
L 57.421875 12.015625 
L 68.609375 54.6875 
L 77.59375 54.6875 
L 63.28125 0 
L 52.6875 0 
L 40.921875 44.828125 
L 29.109375 0 
L 18.5 0 
z
" id="BitstreamVeraSans-Roman-77"/>
      <path d="M 45.40625 27.984375 
Q 45.40625 37.75 41.375 43.109375 
Q 37.359375 48.484375 30.078125 48.484375 
Q 22.859375 48.484375 18.828125 43.109375 
Q 14.796875 37.75 14.796875 27.984375 
Q 14.796875 18.265625 18.828125 12.890625 
Q 22.859375 7.515625 30.078125 7.515625 
Q 37.359375 7.515625 41.375 12.890625 
Q 45.40625 18.265625 45.40625 27.984375 
M 54.390625 6.78125 
Q 54.390625 -7.171875 48.1875 -13.984375 
Q 42 -20.796875 29.203125 -20.796875 
Q 24.46875 -20.796875 20.265625 -20.09375 
Q 16.0625 -19.390625 12.109375 -17.921875 
L 12.109375 -9.1875 
Q 16.0625 -11.328125 19.921875 -12.34375 
Q 23.78125 -13.375 27.78125 -13.375 
Q 36.625 -13.375 41.015625 -8.765625 
Q 45.40625 -4.15625 45.40625 5.171875 
L 45.40625 9.625 
Q 42.625 4.78125 38.28125 2.390625 
Q 33.9375 0 27.875 0 
Q 17.828125 0 11.671875 7.65625 
Q 5.515625 15.328125 5.515625 27.984375 
Q 5.515625 40.671875 11.671875 48.328125 
Q 17.828125 56 27.875 56 
Q 33.9375 56 38.28125 53.609375 
Q 42.625 51.21875 45.40625 46.390625 
L 45.40625 54.6875 
L 54.390625 54.6875 
z
" id="BitstreamVeraSans-Roman-67"/>
     </defs>
     <g transform="translate(109.198346037 21.118125)scale(0.12 -0.12)">
      <use xlink:href="#BitstreamVeraSans-Roman-5a"/>
      <use x="68.505859375" xlink:href="#BitstreamVeraSans-Roman-35"/>
      <use x="132.12890625" xlink:href="#BitstreamVeraSans-Roman-31"/>
      <use x="195.751953125" xlink:href="#BitstreamVeraSans-Roman-5f"/>
      <use x="245.751953125" xlink:href="#BitstreamVeraSans-Roman-6c"/>
      <use x="273.53515625" xlink:href="#BitstreamVeraSans-Roman-6f"/>
      <use x="334.716796875" xlink:href="#BitstreamVeraSans-Roman-77"/>
      <use x="416.50390625" xlink:href="#BitstreamVeraSans-Roman-5f"/>
      <use x="466.50390625" xlink:href="#BitstreamVeraSans-Roman-67"/>
      <use x="529.98046875" xlink:href="#BitstreamVeraSans-Roman-65"/>
      <use x="591.50390625" xlink:href="#BitstreamVeraSans-Roman-6f"/>
     </g>
    </g>
    <g id="PathCollection_10">
     <path d="M 79.198346 38.151693 
C 79.791358 38.151693 80.360162 37.916087 80.779485 37.496764 
C 81.198808 37.077441 81.434414 36.508637 81.434414 35.915625 
C 81.434414 35.322613 81.198808 34.753809 80.779485 34.334486 
C 80.360162 33.915163 79.791358 33.679557 79.198346 33.679557 
C 78.605334 33.679557 78.03653 33.915163 77.617207 34.334486 
C 77.197884 34.753809 76.962278 35.322613 76.962278 35.915625 
C 76.962278 36.508637 77.197884 37.077441 77.617207 37.496764 
C 78.03653 37.916087 78.605334 38.151693 79.198346 38.151693 
z
" style="fill:#008000;stroke:#008000;"/>
     <path d="M 87.598346 37.101693 
C 88.191358 37.101693 88.760162 36.866087 89.179485 36.446764 
C 89.598808 36.027441 89.834414 35.458637 89.834414 34.865625 
C 89.834414 34.272613 89.598808 33.703809 89.179485 33.284486 
C 88.760162 32.865163 88.191358 32.629557 87.598346 32.629557 
C 87.005334 32.629557 86.43653 32.865163 86.017207 33.284486 
C 85.597884 33.703809 85.362278 34.272613 85.362278 34.865625 
C 85.362278 35.458637 85.597884 36.027441 86.017207 36.446764 
C 86.43653 36.866087 87.005334 37.101693 87.598346 37.101693 
z
" style="fill:#008000;stroke:#008000;"/>
     <path d="M 95.998346 38.676693 
C 96.591358 38.676693 97.160162 38.441087 97.579485 38.021764 
C 97.998808 37.602441 98.234414 37.033637 98.234414 36.440625 
C 98.234414 35.847613 97.998808 35.278809 97.579485 34.859486 
C 97.160162 34.440163 96.591358 34.204557 95.998346 34.204557 
C 95.405334 34.204557 94.83653 34.440163 94.417207 34.859486 
C 93.997884 35.278809 93.762278 35.847613 93.762278 36.440625 
C 93.762278 37.033637 93.997884 37.602441 94.417207 38.021764 
C 94.83653 38.441087 95.405334 38.676693 95.998346 38.676693 
z
" style="fill:#008000;stroke:#008000;"/>
    </g>
    <g id="text_2">
     <!-- Z51_low_geo -->
     <g transform="translate(109.198346037 39.065625)scale(0.12 -0.12)">
      <use xlink:href="#BitstreamVeraSans-Roman-5a"/>
      <use x="68.505859375" xlink:href="#BitstreamVeraSans-Roman-35"/>
      <use x="132.12890625" xlink:href="#BitstreamVeraSans-Roman-31"/>
      <use x="195.751953125" xlink:href="#BitstreamVeraSans-Roman-5f"/>
      <use x="245.751953125" xlink:href="#BitstreamVeraSans-Roman-6c"/>
      <use x="273.53515625" xlink:href="#BitstreamVeraSans-Roman-6f"/>
      <use x="334.716796875" xlink:href="#BitstreamVeraSans-Roman-77"/>
      <use x="416.50390625" xlink:href="#BitstreamVeraSans-Roman-5f"/>
      <use x="466.50390625" xlink:href="#BitstreamVeraSans-Roman-67"/>
      <use x="529.98046875" xlink:href="#BitstreamVeraSans-Roman-65"/>
      <use x="591.50390625" xlink:href="#BitstreamVeraSans-Roman-6f"/>
     </g>
    </g>
    <g id="PathCollection_11">
     <path d="M 79.198346 56.099193 
C 79.791358 56.099193 80.360162 55.863587 80.779485 55.444264 
C 81.198808 55.024941 81.434414 54.456137 81.434414 53.863125 
C 81.434414 53.270113 81.198808 52.701309 80.779485 52.281986 
C 80.360162 51.862663 79.791358 51.627057 79.198346 51.627057 
C 78.605334 51.627057 78.03653 51.862663 77.617207 52.281986 
C 77.197884 52.701309 76.962278 53.270113 76.962278 53.863125 
C 76.962278 54.456137 77.197884 55.024941 77.617207 55.444264 
C 78.03653 55.863587 78.605334 56.099193 79.198346 56.099193 
z
" style="fill:#ff0000;stroke:#ff0000;"/>
     <path d="M 87.598346 55.049193 
C 88.191358 55.049193 88.760162 54.813587 89.179485 54.394264 
C 89.598808 53.974941 89.834414 53.406137 89.834414 52.813125 
C 89.834414 52.220113 89.598808 51.651309 89.179485 51.231986 
C 88.760162 50.812663 88.191358 50.577057 87.598346 50.577057 
C 87.005334 50.577057 86.43653 50.812663 86.017207 51.231986 
C 85.597884 51.651309 85.362278 52.220113 85.362278 52.813125 
C 85.362278 53.406137 85.597884 53.974941 86.017207 54.394264 
C 86.43653 54.813587 87.005334 55.049193 87.598346 55.049193 
z
" style="fill:#ff0000;stroke:#ff0000;"/>
     <path d="M 95.998346 56.624193 
C 96.591358 56.624193 97.160162 56.388587 97.579485 55.969264 
C 97.998808 55.549941 98.234414 54.981137 98.234414 54.388125 
C 98.234414 53.795113 97.998808 53.226309 97.579485 52.806986 
C 97.160162 52.387663 96.591358 52.152057 95.998346 52.152057 
C 95.405334 52.152057 94.83653 52.387663 94.417207 52.806986 
C 93.997884 53.226309 93.762278 53.795113 93.762278 54.388125 
C 93.762278 54.981137 93.997884 55.549941 94.417207 55.969264 
C 94.83653 56.388587 95.405334 56.624193 95.998346 56.624193 
z
" style="fill:#ff0000;stroke:#ff0000;"/>
    </g>
    <g id="text_3">
     <!-- Z51_hem_tc -->
     <defs>
      <path d="M 52 44.1875 
Q 55.375 50.25 60.0625 53.125 
Q 64.75 56 71.09375 56 
Q 79.640625 56 84.28125 50.015625 
Q 88.921875 44.046875 88.921875 33.015625 
L 88.921875 0 
L 79.890625 0 
L 79.890625 32.71875 
Q 79.890625 40.578125 77.09375 44.375 
Q 74.3125 48.1875 68.609375 48.1875 
Q 61.625 48.1875 57.5625 43.546875 
Q 53.515625 38.921875 53.515625 30.90625 
L 53.515625 0 
L 44.484375 0 
L 44.484375 32.71875 
Q 44.484375 40.625 41.703125 44.40625 
Q 38.921875 48.1875 33.109375 48.1875 
Q 26.21875 48.1875 22.15625 43.53125 
Q 18.109375 38.875 18.109375 30.90625 
L 18.109375 0 
L 9.078125 0 
L 9.078125 54.6875 
L 18.109375 54.6875 
L 18.109375 46.1875 
Q 21.1875 51.21875 25.484375 53.609375 
Q 29.78125 56 35.6875 56 
Q 41.65625 56 45.828125 52.96875 
Q 50 49.953125 52 44.1875 
" id="BitstreamVeraSans-Roman-6d"/>
      <path d="M 18.3125 70.21875 
L 18.3125 54.6875 
L 36.8125 54.6875 
L 36.8125 47.703125 
L 18.3125 47.703125 
L 18.3125 18.015625 
Q 18.3125 11.328125 20.140625 9.421875 
Q 21.96875 7.515625 27.59375 7.515625 
L 36.8125 7.515625 
L 36.8125 0 
L 27.59375 0 
Q 17.1875 0 13.234375 3.875 
Q 9.28125 7.765625 9.28125 18.015625 
L 9.28125 47.703125 
L 2.6875 47.703125 
L 2.6875 54.6875 
L 9.28125 54.6875 
L 9.28125 70.21875 
z
" id="BitstreamVeraSans-Roman-74"/>
      <path d="M 54.890625 33.015625 
L 54.890625 0 
L 45.90625 0 
L 45.90625 32.71875 
Q 45.90625 40.484375 42.875 44.328125 
Q 39.84375 48.1875 33.796875 48.1875 
Q 26.515625 48.1875 22.3125 43.546875 
Q 18.109375 38.921875 18.109375 30.90625 
L 18.109375 0 
L 9.078125 0 
L 9.078125 75.984375 
L 18.109375 75.984375 
L 18.109375 46.1875 
Q 21.34375 51.125 25.703125 53.5625 
Q 30.078125 56 35.796875 56 
Q 45.21875 56 50.046875 50.171875 
Q 54.890625 44.34375 54.890625 33.015625 
" id="BitstreamVeraSans-Roman-68"/>
      <path d="M 48.78125 52.59375 
L 48.78125 44.1875 
Q 44.96875 46.296875 41.140625 47.34375 
Q 37.3125 48.390625 33.40625 48.390625 
Q 24.65625 48.390625 19.8125 42.84375 
Q 14.984375 37.3125 14.984375 27.296875 
Q 14.984375 17.28125 19.8125 11.734375 
Q 24.65625 6.203125 33.40625 6.203125 
Q 37.3125 6.203125 41.140625 7.25 
Q 44.96875 8.296875 48.78125 10.40625 
L 48.78125 2.09375 
Q 45.015625 0.34375 40.984375 -0.53125 
Q 36.96875 -1.421875 32.421875 -1.421875 
Q 20.0625 -1.421875 12.78125 6.34375 
Q 5.515625 14.109375 5.515625 27.296875 
Q 5.515625 40.671875 12.859375 48.328125 
Q 20.21875 56 33.015625 56 
Q 37.15625 56 41.109375 55.140625 
Q 45.0625 54.296875 48.78125 52.59375 
" id="BitstreamVeraSans-Roman-63"/>
     </defs>
     <g transform="translate(109.198346037 57.013125)scale(0.12 -0.12)">
      <use xlink:href="#BitstreamVeraSans-Roman-5a"/>
      <use x="68.505859375" xlink:href="#BitstreamVeraSans-Roman-35"/>
      <use x="132.12890625" xlink:href="#BitstreamVeraSans-Roman-31"/>
      <use x="195.751953125" xlink:href="#BitstreamVeraSans-Roman-5f"/>
      <use x="245.751953125" xlink:href="#BitstreamVeraSans-Roman-68"/>
      <use x="309.130859375" xlink:href="#BitstreamVeraSans-Roman-65"/>
      <use x="370.654296875" xlink:href="#BitstreamVeraSans-Roman-6d"/>
      <use x="468.06640625" xlink:href="#BitstreamVeraSans-Roman-5f"/>
      <use x="518.06640625" xlink:href="#BitstreamVeraSans-Roman-74"/>
      <use x="557.275390625" xlink:href="#BitstreamVeraSans-Roman-63"/>
     </g>
    </g>
    <g id="PathCollection_12">
     <path d="M 76.962278 74.046693 
L 81.434414 74.046693 
L 81.434414 69.574557 
L 76.962278 69.574557 
z
" style="fill:#ffffff;stroke:#0000ff;"/>
     <path d="M 85.362278 72.996693 
L 89.834414 72.996693 
L 89.834414 68.524557 
L 85.362278 68.524557 
z
" style="fill:#ffffff;stroke:#0000ff;"/>
     <path d="M 93.762278 74.571693 
L 98.234414 74.571693 
L 98.234414 70.099557 
L 93.762278 70.099557 
z
" style="fill:#ffffff;stroke:#0000ff;"/>
    </g>
    <g id="text_4">
     <!-- Z51_mag_tc_mean -->
     <defs>
      <path d="M 54.890625 33.015625 
L 54.890625 0 
L 45.90625 0 
L 45.90625 32.71875 
Q 45.90625 40.484375 42.875 44.328125 
Q 39.84375 48.1875 33.796875 48.1875 
Q 26.515625 48.1875 22.3125 43.546875 
Q 18.109375 38.921875 18.109375 30.90625 
L 18.109375 0 
L 9.078125 0 
L 9.078125 54.6875 
L 18.109375 54.6875 
L 18.109375 46.1875 
Q 21.34375 51.125 25.703125 53.5625 
Q 30.078125 56 35.796875 56 
Q 45.21875 56 50.046875 50.171875 
Q 54.890625 44.34375 54.890625 33.015625 
" id="BitstreamVeraSans-Roman-6e"/>
      <path d="M 34.28125 27.484375 
Q 23.390625 27.484375 19.1875 25 
Q 14.984375 22.515625 14.984375 16.5 
Q 14.984375 11.71875 18.140625 8.90625 
Q 21.296875 6.109375 26.703125 6.109375 
Q 34.1875 6.109375 38.703125 11.40625 
Q 43.21875 16.703125 43.21875 25.484375 
L 43.21875 27.484375 
z
M 52.203125 31.203125 
L 52.203125 0 
L 43.21875 0 
L 43.21875 8.296875 
Q 40.140625 3.328125 35.546875 0.953125 
Q 30.953125 -1.421875 24.3125 -1.421875 
Q 15.921875 -1.421875 10.953125 3.296875 
Q 6 8.015625 6 15.921875 
Q 6 25.140625 12.171875 29.828125 
Q 18.359375 34.515625 30.609375 34.515625 
L 43.21875 34.515625 
L 43.21875 35.40625 
Q 43.21875 41.609375 39.140625 45 
Q 35.0625 48.390625 27.6875 48.390625 
Q 23 48.390625 18.546875 47.265625 
Q 14.109375 46.140625 10.015625 43.890625 
L 10.015625 52.203125 
Q 14.9375 54.109375 19.578125 55.046875 
Q 24.21875 56 28.609375 56 
Q 40.484375 56 46.34375 49.84375 
Q 52.203125 43.703125 52.203125 31.203125 
" id="BitstreamVeraSans-Roman-61"/>
     </defs>
     <g transform="translate(109.198346037 74.960625)scale(0.12 -0.12)">
      <use xlink:href="#BitstreamVeraSans-Roman-5a"/>
      <use x="68.505859375" xlink:href="#BitstreamVeraSans-Roman-35"/>
      <use x="132.12890625" xlink:href="#BitstreamVeraSans-Roman-31"/>
      <use x="195.751953125" xlink:href="#BitstreamVeraSans-Roman-5f"/>
      <use x="245.751953125" xlink:href="#BitstreamVeraSans-Roman-6d"/>
      <use x="343.1640625" xlink:href="#BitstreamVeraSans-Roman-61"/>
      <use x="404.443359375" xlink:href="#BitstreamVeraSans-Roman-67"/>
      <use x="467.919921875" xlink:href="#BitstreamVeraSans-Roman-5f"/>
      <use x="517.919921875" xlink:href="#BitstreamVeraSans-Roman-74"/>
      <use x="557.12890625" xlink:href="#BitstreamVeraSans-Roman-63"/>
      <use x="612.109375" xlink:href="#BitstreamVeraSans-Roman-5f"/>
      <use x="662.109375" xlink:href="#BitstreamVeraSans-Roman-6d"/>
      <use x="759.521484375" xlink:href="#BitstreamVeraSans-Roman-65"/>
      <use x="821.044921875" xlink:href="#BitstreamVeraSans-Roman-61"/>
      <use x="882.32421875" xlink:href="#BitstreamVeraSans-Roman-6e"/>
     </g>
    </g>
    <g id="PathCollection_13">
     <path d="M 76.962278 91.994193 
L 81.434414 91.994193 
L 81.434414 87.522057 
L 76.962278 87.522057 
z
" style="fill:#ff0000;stroke:#ff0000;"/>
     <path d="M 85.362278 90.944193 
L 89.834414 90.944193 
L 89.834414 86.472057 
L 85.362278 86.472057 
z
" style="fill:#ff0000;stroke:#ff0000;"/>
     <path d="M 93.762278 92.519193 
L 98.234414 92.519193 
L 98.234414 88.047057 
L 93.762278 88.047057 
z
" style="fill:#ff0000;stroke:#ff0000;"/>
    </g>
    <g id="text_5">
     <!-- Z51_hem_tc_mean -->
     <g transform="translate(109.198346037 92.908125)scale(0.12 -0.12)">
      <use xlink:href="#BitstreamVeraSans-Roman-5a"/>
      <use x="68.505859375" xlink:href="#BitstreamVeraSans-Roman-35"/>
      <use x="132.12890625" xlink:href="#BitstreamVeraSans-Roman-31"/>
      <use x="195.751953125" xlink:href="#BitstreamVeraSans-Roman-5f"/>
      <use x="245.751953125" xlink:href="#BitstreamVeraSans-Roman-68"/>
      <use x="309.130859375" xlink:href="#BitstreamVeraSans-Roman-65"/>
      <use x="370.654296875" xlink:href="#BitstreamVeraSans-Roman-6d"/>
      <use x="468.06640625" xlink:href="#BitstreamVeraSans-Roman-5f"/>
      <use x="518.06640625" xlink:href="#BitstreamVeraSans-Roman-74"/>
      <use x="557.275390625" xlink:href="#BitstreamVeraSans-Roman-63"/>
      <use x="612.255859375" xlink:href="#BitstreamVeraSans-Roman-5f"/>
      <use x="662.255859375" xlink:href="#BitstreamVeraSans-Roman-6d"/>
      <use x="759.66796875" xlink:href="#BitstreamVeraSans-Roman-65"/>
      <use x="821.19140625" xlink:href="#BitstreamVeraSans-Roman-61"/>
      <use x="882.470703125" xlink:href="#BitstreamVeraSans-Roman-6e"/>
     </g>
    </g>
   </g>
  </g>
 </g>
 <defs>
  <clipPath id="p2db4664ce4">
   <rect height="253.4" width="235.436890244" x="35.4828125" y="37.1875"/>
  </clipPath>
 </defs>
</svg>
